<?xml version="1.0" standalone="no"?>
<!DOCTYPE svg PUBLIC "-//W3C//DTD SVG 1.1//EN" "http://www.w3.org/Graphics/SVG/1.1/DTD/svg11.dtd" >
<svg xmlns="http://www.w3.org/2000/svg" xmlns:xlink="http://www.w3.org/1999/xlink" version="1.1">
<metadata>
Created by FontForge 20170731 at Sat Jun 11 18:24:15 2022
 By Aleksey,,,
Copyright (c) 2011 by Ian Party, distributed by B&#38;P Foundry Srl, Switzerland, d/b/a b+p swiss typefaces: http://www.swisstypefaces.com. All rights reserved.
</metadata>
<defs>
<font id="SuisseBPIntl-Regular" horiz-adv-x="1087" >
  <font-face 
    font-family="Suisse BP Int'l Regular"
    font-weight="400"
    font-stretch="normal"
    units-per-em="2048"
    panose-1="0 0 0 0 0 0 0 0 0 0"
    ascent="1536"
    descent="-512"
    x-height="1004"
    cap-height="1360"
    bbox="-442 -453 2415 1890"
    underline-thickness="102"
    underline-position="-307"
    unicode-range="U+0020-FB06"
  />
<missing-glyph horiz-adv-x="0" 
 />
    <glyph glyph-name="f_f" unicode="ff" horiz-adv-x="1191" 
d="M180 1004v73q0 84 10.5 134.5t41.5 86t84 49t141 13.5h90v-148h-86q-67 0 -87 -26t-20 -107v-75h193v-144h-193v-860h-174v860h-141v144h141zM776 1004v73q0 84 10.5 134.5t41.5 86t84 49t141 13.5h90v-148h-86q-67 0 -87 -26t-20 -107v-75h193v-144h-193v-860h-174v860
h-141v144h141z" />
    <glyph glyph-name="fi" unicode="fi" horiz-adv-x="1044" 
d="M180 1004v73q0 84 10.5 134.5t41.5 86t84 49t141 13.5h90v-148h-86q-67 0 -87 -26t-20 -107v-75h193v-144h-193v-860h-174v860h-141v144h141zM733 1004h174v-1004h-174v1004zM733 1360h174v-209h-174v209z" />
    <glyph glyph-name="fl" unicode="fl" horiz-adv-x="1044" 
d="M180 1004v73q0 84 10.5 134.5t41.5 86t84 49t141 13.5h90v-148h-86q-67 0 -87 -26t-20 -107v-75h193v-144h-193v-860h-174v860h-141v144h141zM907 1360v-1360h-174v1360h174z" />
    <glyph glyph-name="f_f_i" unicode="ffi" horiz-adv-x="1640" 
d="M180 1004v73q0 84 10.5 134.5t41.5 86t84 49t141 13.5h90v-148h-86q-67 0 -87 -26t-20 -107v-75h193v-144h-193v-860h-174v860h-141v144h141zM776 1004v73q0 84 10.5 134.5t41.5 86t84 49t141 13.5h90v-148h-86q-67 0 -87 -26t-20 -107v-75h193v-144h-193v-860h-174v860
h-141v144h141zM1329 1004h174v-1004h-174v1004zM1329 1360h174v-209h-174v209z" />
    <glyph glyph-name="f_f_l" unicode="ffl" horiz-adv-x="1640" 
d="M180 1004v73q0 84 10.5 134.5t41.5 86t84 49t141 13.5h90v-148h-86q-67 0 -87 -26t-20 -107v-75h193v-144h-193v-860h-174v860h-141v144h141zM776 1004v73q0 84 10.5 134.5t41.5 86t84 49t141 13.5h90v-148h-86q-67 0 -87 -26t-20 -107v-75h193v-144h-193v-860h-174v860
h-141v144h141zM1503 1360v-1360h-174v1360h174z" />
    <glyph glyph-name="s_t" unicode="st" horiz-adv-x="1611" 
d="M903 731l-180 -16q-37 159 -250 159q-89 0 -152 -31.5t-63 -90.5q0 -56 40.5 -86t125.5 -48l121 -24q63 -13 111 -27.5t97.5 -39.5t82 -56t53 -77.5t20.5 -104.5q0 -147 -117 -230.5t-300 -83.5q-97 0 -178 28.5t-134 75.5t-84.5 104t-38.5 118l183 16q44 -196 256 -196
q104 0 170.5 41.5t66.5 107.5q0 115 -219 162l-131 27q-48 10 -87 22.5t-80 35t-69 51.5t-45.5 73.5t-17.5 99.5q0 85 57.5 149.5t149.5 97t201 32.5q165 0 273 -78.5t138 -210.5zM1180 1004v276h174v-276h192v-144h-192v-579q0 -84 17 -109t89 -25h86v-147h-125
q-77 0 -121 9.5t-72.5 39t-38 77t-9.5 130.5v604h-162v144h162z" />
    <glyph glyph-name="f_b" unicode="fb" horiz-adv-x="1720" 
d="M180 1004v73q0 84 10.5 134.5t41.5 86t84 49t141 13.5h90v-148h-86q-67 0 -87 -26t-20 -107v-75h193v-144h-193v-860h-174v860h-141v144h141zM733 1360v-1360h166l8 123q43 -68 121.5 -108t183.5 -40q195 0 317 141t122 380q0 242 -116.5 383t-301.5 141
q-220 0 -326 -162v502h-174zM1188 868q136 0 207 -97.5t71 -274.5q0 -175 -71.5 -272t-206.5 -97q-128 0 -208.5 92t-80.5 277q0 184 82 278t207 94z" />
    <glyph glyph-name="f_h" unicode="fh" horiz-adv-x="1695" 
d="M180 1004v73q0 84 10.5 134.5t41.5 86t84 49t141 13.5h90v-148h-86q-67 0 -87 -26t-20 -107v-75h193v-144h-193v-860h-174v860h-141v144h141zM907 1360v-496q101 156 330 156q199 0 283 -137q55 -89 55 -267v-616h-174v569q0 149 -37 213q-52 86 -186 86
q-128 0 -199.5 -85.5t-71.5 -247.5v-535h-174v1360h174z" />
    <glyph glyph-name="f_k" unicode="fk" horiz-adv-x="1556" 
d="M180 1004v73q0 84 10.5 134.5t41.5 86t84 49t141 13.5h90v-148h-86q-67 0 -87 -26t-20 -107v-75h193v-144h-193v-860h-174v860h-141v144h141zM907 1360h-174v-1360h174v360l146 150l309 -510h203l-394 633l361 371h-213l-412 -424v780z" />
    <glyph glyph-name="f_j" unicode="fj" horiz-adv-x="1044" 
d="M180 1004v73q0 84 10.5 134.5t41.5 86t84 49t141 13.5h90v-148h-86q-67 0 -87 -26t-20 -107v-75h193v-144h-193v-860h-174v860h-141v144h141zM733 -74v1078h174v-1076q0 -163 -48 -222.5t-193 -59.5h-88v147h49q66 0 86 26t20 107zM733 1360h174v-209h-174v209z" />
    <glyph glyph-name="f_t" unicode="ft" horiz-adv-x="1214" 
d="M180 1004v73q0 84 10.5 134.5t41.5 86t84 49t141 13.5h90v-148h-86q-67 0 -87 -26t-20 -107v-75h193v-144h-193v-860h-174v860h-141v144h141zM782 1004v276h174v-276h193v-144h-193v-579q0 -84 17.5 -109t89.5 -25h86v-147h-125q-77 0 -121.5 9.5t-73 39t-38 77
t-9.5 130.5v604h-161v144h161z" />
    <glyph glyph-name="f_f_j" unicode="ffj" horiz-adv-x="1640" 
d="M180 1004v73q0 84 10.5 134.5t41.5 86t84 49t141 13.5h90v-148h-86q-67 0 -87 -26t-20 -107v-75h193v-144h-193v-860h-174v860h-141v144h141zM776 1004v73q0 84 10.5 134.5t41.5 86t84 49t141 13.5h90v-148h-86q-67 0 -87 -26t-20 -107v-75h193v-144h-193v-860h-174v860
h-141v144h141zM1329 -74v1078h174v-1076q0 -163 -48 -222.5t-193 -59.5h-88v147h49q66 0 86 26t20 107zM1329 1360h174v-209h-174v209z" />
    <glyph glyph-name="f_f_k" unicode="ffk" horiz-adv-x="2152" 
d="M180 1004v73q0 84 10.5 134.5t41.5 86t84 49t141 13.5h90v-148h-86q-67 0 -87 -26t-20 -107v-75h193v-144h-193v-860h-174v860h-141v144h141zM776 1004v73q0 84 10.5 134.5t41.5 86t84 49t141 13.5h90v-148h-86q-67 0 -87 -26t-20 -107v-75h193v-144h-193v-860h-174v860
h-141v144h141zM1503 1360h-174v-1360h174v360l146 150l309 -510h203l-394 633l361 371h-213l-412 -424v780z" />
    <glyph glyph-name="f_f_t" unicode="fft" horiz-adv-x="1810" 
d="M180 1004v73q0 84 10.5 134.5t41.5 86t84 49t141 13.5h90v-148h-86q-67 0 -87 -26t-20 -107v-75h193v-144h-193v-860h-174v860h-141v144h141zM776 1004v73q0 84 10.5 134.5t41.5 86t84 49t141 13.5h90v-148h-86q-67 0 -87 -26t-20 -107v-75h193v-144h-193v-860h-174v860
h-141v144h141zM1378 1004v276h174v-276h193v-144h-193v-579q0 -84 17.5 -109t89.5 -25h86v-147h-125q-77 0 -121.5 9.5t-73 39t-38 77t-9.5 130.5v604h-161v144h161z" />
    <glyph glyph-name="f_f_b" unicode="ffb" horiz-adv-x="2316" 
d="M180 1004v73q0 84 10.5 134.5t41.5 86t84 49t141 13.5h90v-148h-86q-67 0 -87 -26t-20 -107v-75h193v-144h-193v-860h-174v860h-141v144h141zM776 1004v73q0 84 10.5 134.5t41.5 86t84 49t141 13.5h90v-148h-86q-67 0 -87 -26t-20 -107v-75h193v-144h-193v-860h-174v860
h-141v144h141zM1329 1360v-1360h166l8 123q43 -68 121.5 -108t183.5 -40q195 0 317 141t122 380q0 242 -116.5 383t-301.5 141q-220 0 -326 -162v502h-174zM1784 868q136 0 207 -97.5t71 -274.5q0 -175 -71.5 -272t-206.5 -97q-128 0 -208.5 92t-80.5 277q0 184 82 278
t207 94z" />
    <glyph glyph-name="f_f_h" unicode="ffh" horiz-adv-x="2291" 
d="M180 1004v73q0 84 10.5 134.5t41.5 86t84 49t141 13.5h90v-148h-86q-67 0 -87 -26t-20 -107v-75h193v-144h-193v-860h-174v860h-141v144h141zM776 1004v73q0 84 10.5 134.5t41.5 86t84 49t141 13.5h90v-148h-86q-67 0 -87 -26t-20 -107v-75h193v-144h-193v-860h-174v860
h-141v144h141zM1503 1360v-496q101 156 330 156q199 0 283 -137q55 -89 55 -267v-616h-174v569q0 149 -37 213q-52 86 -186 86q-128 0 -199.5 -85.5t-71.5 -247.5v-535h-174v1360h174z" />
    <glyph glyph-name="s_p" unicode="sp" horiz-adv-x="2107" 
d="M903 731l-180 -16q-37 159 -250 159q-89 0 -152 -31.5t-63 -90.5q0 -56 40.5 -86t125.5 -48l121 -24q63 -13 111 -27.5t97.5 -39.5t82 -56t53 -77.5t20.5 -104.5q0 -147 -117 -230.5t-300 -83.5q-97 0 -178 28.5t-134 75.5t-84.5 104t-38.5 118l183 16q44 -196 256 -196
q104 0 170.5 41.5t66.5 107.5q0 115 -219 162l-131 27q-48 10 -87 22.5t-80 35t-69 51.5t-45.5 73.5t-17.5 99.5q0 85 57.5 149.5t149.5 97t201 32.5q165 0 273 -78.5t138 -210.5zM1294 -354v477q43 -68 121.5 -108t183.5 -40q195 0 317 141t122 380q0 242 -116.5 383
t-301.5 141q-220 0 -326 -162l-4 146h-170v-1358h174zM1575 868q136 0 207 -97.5t71 -274.5q0 -175 -71.5 -272t-206.5 -97q-128 0 -208.5 92t-80.5 277q0 184 82 278t207 94z" />
    <glyph glyph-name="c_t" unicode="ct" horiz-adv-x="1656" 
d="M557 1020q90 0 167.5 -29.5t129.5 -78t84 -106.5t41 -118l-176 -24q-19 94 -88 148t-170 54q-127 0 -209 -93.5t-82 -270.5q0 -179 83 -276t208 -97q106 0 176 56.5t90 144.5l178 -23q-26 -138 -150 -235t-298 -97q-219 0 -345 146.5t-126 378.5q0 149 56.5 265.5
t168 185.5t262.5 69zM1225 1004v276h174v-276h192v-144h-192v-579q0 -84 17 -109t89 -25h86v-147h-125q-77 0 -121 9.5t-72.5 39t-38 77t-9.5 130.5v604h-162v144h162z" />
    <glyph glyph-name="t_t" unicode="tt" horiz-adv-x="1236" 
d="M186 1004v276h174v-276h193v-144h-193v-579q0 -84 17.5 -109t89.5 -25h86v-147h-125q-77 0 -121.5 9.5t-73 39t-38 77t-9.5 130.5v604h-161v144h161zM805 1004v276h174v-276h192v-144h-192v-579q0 -84 17 -109t89 -25h86v-147h-124q-77 0 -121.5 9.5t-73 39t-38 77
t-9.5 130.5v604h-162v144h162z" />
    <glyph glyph-name="t_f" unicode="tf" horiz-adv-x="1214" 
d="M186 1004v276h174v-276h193v-144h-193v-579q0 -84 17.5 -109t89.5 -25h86v-147h-125q-77 0 -121.5 9.5t-73 39t-38 77t-9.5 130.5v604h-161v144h161zM799 1004v73q0 84 10.5 134.5t41 86t83.5 49t141 13.5h90v-148h-86q-66 0 -86 -26t-20 -107v-75h192v-144h-192v-860
h-174v860h-142v144h142z" />
    <glyph glyph-name=".notdef" horiz-adv-x="0" 
 />
    <glyph glyph-name=".null" horiz-adv-x="0" 
 />
    <glyph glyph-name="nonmarkingreturn" horiz-adv-x="682" 
 />
    <glyph glyph-name="space" unicode=" " horiz-adv-x="450" 
 />
    <glyph glyph-name="exclam" unicode="!" horiz-adv-x="464" 
d="M281 403h-109l-37 560v397h182v-397zM342 0h-219v219h219v-219z" />
    <glyph glyph-name="quotedbl" unicode="&#x22;" horiz-adv-x="587" 
d="M51 1360h195l-39 -483h-117zM342 1360h195l-39 -483h-117z" />
    <glyph glyph-name="numbersign" unicode="#" horiz-adv-x="1267" 
d="M123 1004h268l51 356h142l-52 -356h297l52 356h141l-51 -356h256l-19 -136h-256l-43 -311h254l-18 -135h-254l-60 -422h-141l60 422h-297l-60 -422h-141l59 422h-270l18 135h271l43 311h-269zM514 868l-43 -311h297l43 311h-297z" />
    <glyph glyph-name="dollar" unicode="$" horiz-adv-x="1118" 
d="M502 1544h104v-162q195 -14 308 -127.5t110 -298.5l-178 -4q-3 135 -69.5 202t-170.5 77v-455l29 -8q74 -20 125.5 -38.5t112 -51t97.5 -71.5t62 -99t25 -135q0 -92 -35.5 -166t-98 -121.5t-143 -75t-174.5 -33.5v-161h-104v161q-197 17 -319.5 142.5t-119.5 310.5l179 4
q3 -141 77 -217t183 -88v498l-43 12q-165 44 -262 140.5t-97 246.5q0 78 33.5 143.5t90.5 109t128.5 70t149.5 33.5v162zM879 346q0 58 -17.5 99.5t-57 70t-83.5 46t-115 36.5v-471q118 5 195.5 60t77.5 159zM279 1028q0 -84 54 -138t167 -85l2 -2v430q-93 -5 -158 -56.5
t-65 -148.5z" />
    <glyph glyph-name="percent" unicode="%" horiz-adv-x="1693" 
d="M358 569q-154 0 -233.5 109t-79.5 295q0 187 79.5 294t233.5 107q153 0 232.5 -107t79.5 -294q0 -186 -79.5 -295t-232.5 -109zM358 678q83 0 126.5 75t43.5 220q0 293 -170 293q-172 0 -172 -293q0 -145 43.5 -220t128.5 -75zM274 0h193l952 1360h-192zM1337 -14
q-154 0 -233.5 108.5t-79.5 294.5q0 187 79.5 294.5t233.5 107.5q153 0 232.5 -107.5t79.5 -294.5q0 -186 -79.5 -294.5t-232.5 -108.5zM1337 94q83 0 126.5 75t43.5 220q0 293 -170 293q-172 0 -172 -293q0 -145 43.5 -220t128.5 -75z" />
    <glyph glyph-name="ampersand" unicode="&#x26;" horiz-adv-x="1337" 
d="M512 -25q-208 0 -333.5 113.5t-125.5 284.5q0 150 92 254.5t256 160.5q-151 167 -151 308q0 130 104 209t267 79q67 0 127 -15.5t112.5 -48t83.5 -91t31 -137.5q0 -234 -285 -353l279 -290q56 131 67 286h178q-19 -234 -124 -413l309 -322h-250l-168 176
q-191 -201 -469 -201zM512 127q215 0 360 164l-368 389q-266 -92 -266 -299q0 -114 80.5 -184t193.5 -70zM434 1100q0 -58 39.5 -117.5t108.5 -130.5l6 -6q103 37 162 96.5t59 138.5q0 78 -51 115t-133 37q-80 0 -135.5 -34t-55.5 -99z" />
    <glyph glyph-name="quotesingle" unicode="'" horiz-adv-x="296" 
d="M51 1360h195l-39 -483h-117z" />
    <glyph glyph-name="parenleft" unicode="(" horiz-adv-x="466" 
d="M61 504q0 137 24 270.5t65 242t83.5 191.5t90.5 152h143q-102 -168 -164.5 -385.5t-62.5 -470.5t62.5 -472t164.5 -386h-143q-48 69 -90.5 152.5t-83.5 192t-65 242.5t-24 271z" />
    <glyph glyph-name="parenright" unicode=")" horiz-adv-x="466" 
d="M406 504q0 -137 -24 -271t-65 -242.5t-83.5 -192t-90.5 -152.5h-143q102 167 164.5 386t62.5 472t-62.5 470.5t-164.5 385.5h143q48 -69 90.5 -152t83.5 -191.5t65 -242t24 -270.5z" />
    <glyph glyph-name="asterisk" unicode="*" horiz-adv-x="669" 
d="M389 1370v-227l215 82l45 -107l-219 -76l131 -184l-88 -67l-141 192l-129 -192l-101 65l134 186l-216 76l39 107l215 -82v227h115z" />
    <glyph glyph-name="plus" unicode="+" horiz-adv-x="1177" 
d="M676 0h-174v430h-430v164h430v418h174v-418h430v-164h-430v-430z" />
    <glyph glyph-name="comma" unicode="," horiz-adv-x="464" 
d="M123 0v219h219v-233l-117 -250h-110l100 264h-92z" />
    <glyph glyph-name="hyphen" unicode="-" horiz-adv-x="770" 
d="M688 440h-606v164h606v-164z" />
    <glyph glyph-name="period" unicode="." horiz-adv-x="464" 
d="M342 0h-219v219h219v-219z" />
    <glyph glyph-name="slash" unicode="/" horiz-adv-x="716" 
d="M174 0h-174l543 1360h174z" />
    <glyph glyph-name="zero" unicode="0" horiz-adv-x="1259" 
d="M629 -25q-180 0 -301.5 89t-178.5 246t-57 376q0 330 134.5 514t402.5 184q180 0 302 -86t179 -240.5t57 -371.5q0 -219 -57 -376t-179 -246t-302 -89zM629 127q167 0 260.5 141t93.5 418q0 275 -93 411t-261 136t-260.5 -136t-92.5 -411q0 -277 93 -418t260 -141z" />
    <glyph glyph-name="one" unicode="1" horiz-adv-x="700" 
d="M516 0h-174v1059h-319v119q65 2 108.5 6.5t86.5 16t72.5 31.5t56.5 51.5t50 76.5h119v-1360z" />
    <glyph glyph-name="two" unicode="2" horiz-adv-x="1122" 
d="M575 1384q196 0 317.5 -95.5t121.5 -266.5q0 -78 -24 -152.5t-80.5 -152t-108 -136.5t-151 -143.5t-161 -133.5t-184.5 -142h746v-162h-994v156q162 120 269 204t211 176.5t162.5 165t94 149t35.5 148.5q0 108 -68 171t-190 63q-59 0 -109.5 -16.5t-93 -51.5t-68 -96
t-26.5 -143l-178 4q-3 200 129 327t350 127z" />
    <glyph glyph-name="three" unicode="3" horiz-adv-x="1118" 
d="M537 127q140 0 225.5 67t85.5 187q0 258 -397 258h-29v156h22q184 0 275.5 54.5t91.5 172.5q0 100 -76 155.5t-192 55.5q-134 0 -211 -70.5t-88 -189.5l-181 14q15 177 144.5 287t339.5 110q92 0 170 -19t142 -59t100 -108.5t36 -159.5q0 -105 -58.5 -188t-166.5 -125
q262 -84 262 -342q0 -99 -41.5 -178.5t-111.5 -128.5t-158 -75t-186 -26q-117 0 -210 34.5t-151.5 93.5t-91 132t-39.5 156l178 15q16 -131 95 -205t221 -74z" />
    <glyph glyph-name="four" unicode="4" horiz-adv-x="1187" 
d="M719 1122l-494 -618h494v618zM1147 504v-164h-254v-340h-174v340h-686v164l684 856h176v-856h254z" />
    <glyph glyph-name="five" unicode="5" horiz-adv-x="1155" 
d="M578 127q131 0 219 84.5t88 234.5q0 81 -27 144t-72.5 100t-99.5 55.5t-113 18.5q-96 0 -168 -44.5t-98 -101.5l-174 9l90 733h793v-168h-651l-50 -379q108 102 299 102q123 0 225 -53t166 -161t64 -252q0 -113 -40.5 -204.5t-110 -149.5t-157.5 -89t-186 -31
q-93 0 -171 23t-132.5 61.5t-94.5 92t-62.5 112t-30.5 123.5l178 14q44 -274 316 -274z" />
    <glyph glyph-name="six" unicode="6" horiz-adv-x="1171" 
d="M293 436q0 -141 81.5 -225t217.5 -84q134 0 218.5 85t84.5 224q0 138 -84 225t-217 87q-135 0 -218 -87t-83 -225zM610 1233q-157 0 -244.5 -137.5t-95.5 -378.5q51 85 143 136.5t222 51.5q193 0 318.5 -129t125.5 -332q0 -127 -59 -233.5t-171 -171t-255 -64.5
q-254 0 -378 167.5t-124 488.5q0 120 17.5 227t58 205t101 168t153.5 111.5t209 41.5q97 0 175.5 -28t128.5 -76.5t80.5 -107t41.5 -125.5l-189 -3q-17 92 -84.5 140.5t-173.5 48.5z" />
    <glyph glyph-name="seven" unicode="7" horiz-adv-x="976" 
d="M20 1190v170h957v-170q-261 -211 -411.5 -510t-174.5 -680h-209q23 363 175.5 662t416.5 528h-754z" />
    <glyph glyph-name="eight" unicode="8" horiz-adv-x="1191" 
d="M596 1384q209 0 335 -97.5t126 -250.5q0 -91 -47 -175.5t-144 -135.5q65 -27 112 -67t73 -86.5t37.5 -93t11.5 -95.5q0 -190 -142 -299t-362 -109t-362 109t-142 299q0 49 11.5 95.5t37.5 93t73 86.5t112 67q-97 51 -144 135.5t-47 175.5q0 153 126 250.5t335 97.5z
M596 645q-146 0 -233 -71t-87 -191q0 -119 86.5 -187.5t233.5 -68.5t233 68.5t86 187.5q0 120 -86.5 191t-232.5 71zM883 1018q0 100 -78.5 157.5t-208.5 57.5t-208.5 -57.5t-78.5 -157.5q0 -103 79.5 -168.5t207.5 -65.5t207.5 65.5t79.5 168.5z" />
    <glyph glyph-name="nine" unicode="9" horiz-adv-x="1161" 
d="M868 924q0 141 -81.5 225t-217.5 84q-134 0 -218.5 -85t-84.5 -224q0 -138 84 -225t217 -87q135 0 218 87t83 225zM551 127q157 0 244.5 137.5t95.5 378.5q-51 -85 -143 -136.5t-222 -51.5q-193 0 -318.5 128.5t-125.5 331.5q0 127 59 233.5t171 171t255 64.5
q502 0 502 -655q0 -121 -17 -227.5t-56.5 -204.5t-99.5 -168.5t-152.5 -112t-208.5 -41.5q-97 0 -176 28t-130.5 77t-82.5 107.5t-42 125.5l189 2q17 -92 84 -140t174 -48z" />
    <glyph glyph-name="colon" unicode=":" horiz-adv-x="464" 
d="M123 0v219h219v-219h-219zM123 784v220h219v-220h-219z" />
    <glyph glyph-name="semicolon" unicode=";" horiz-adv-x="464" 
d="M123 784v220h219v-220h-219zM123 0v219h219v-233l-117 -250h-110l100 264h-92z" />
    <glyph glyph-name="less" unicode="&#x3c;" horiz-adv-x="1130" 
d="M72 584l977 432v-187l-760 -319l760 -313v-185l-977 424v148z" />
    <glyph glyph-name="equal" unicode="=" horiz-adv-x="1118" 
d="M1036 633h-954v164h954v-164zM1036 248h-954v164h954v-164z" />
    <glyph glyph-name="greater" unicode="&#x3e;" horiz-adv-x="1130" 
d="M1059 584v-148l-977 -424v185l760 313l-760 319v187z" />
    <glyph glyph-name="question" unicode="?" horiz-adv-x="950" 
d="M492 1384q83 0 158.5 -20.5t137 -60t98 -105.5t36.5 -149q0 -64 -21 -120.5t-61 -102.5t-80 -79t-96 -69q-66 -43 -95.5 -68t-47 -60.5t-17.5 -86.5v-60h-176v66q0 113 52.5 180.5t182.5 149.5q45 29 70 48t53 49t40.5 65.5t12.5 80.5q0 87 -70.5 138t-181.5 51
q-76 0 -133.5 -24t-89 -64t-47.5 -83t-18 -91l-174 6q1 184 131.5 296.5t335.5 112.5zM309 0v219h219v-219h-219z" />
    <glyph glyph-name="at" unicode="@" horiz-adv-x="1615" 
d="M1159 291q-77 0 -128.5 46t-63.5 130q-89 -170 -289 -170q-120 0 -200.5 86t-80.5 254q0 84 27 162.5t75.5 141t123.5 100.5t163 38q77 0 135 -39t85 -106l14 113h135l-55 -414q-3 -29 -5 -48t0 -52t9.5 -53t26.5 -36t49 -16q77 0 129.5 92t52.5 246q0 231 -145 356
t-386 125q-130 0 -240.5 -45t-187.5 -123.5t-120 -187t-43 -232.5q0 -238 140 -389t378 -151q92 0 190.5 21t177.5 61l54 -133q-93 -43 -209 -68t-213 -25q-196 0 -349.5 89.5t-237 246.5t-83.5 353q0 151 57.5 284t157 227.5t238 149.5t295.5 55q141 0 261 -37
t212.5 -109.5t145 -191t52.5 -270.5q0 -112 -30 -205t-79.5 -152t-111.5 -91.5t-127 -32.5zM788 936q-102 0 -164.5 -88t-62.5 -213q0 -99 41.5 -149t118.5 -50q108 0 170.5 91t62.5 223q0 89 -44 137.5t-122 48.5z" />
    <glyph glyph-name="A" unicode="A" horiz-adv-x="1255" 
d="M0 0l512 1360h225l518 -1360h-213l-108 295h-627l-104 -295h-203zM618 1159l-249 -694h503z" />
    <glyph glyph-name="B" unicode="B" horiz-adv-x="1280" 
d="M164 0v1360h498q82 0 149.5 -8.5t131.5 -31.5t107.5 -60t70 -97.5t26.5 -140.5q0 -98 -41 -178t-113 -121q209 -88 209 -322q0 -86 -25 -154t-69 -114t-106.5 -76t-135 -43.5t-157.5 -13.5h-545zM358 618v-446h353q147 0 220 55.5t73 171.5q0 119 -73.5 169t-232.5 50
h-340zM358 1188v-408h332q127 0 193.5 49.5t66.5 165.5q0 193 -260 193h-332z" />
    <glyph glyph-name="C" unicode="C" horiz-adv-x="1372" 
d="M1122 420l189 -27q-45 -197 -203 -307.5t-385 -110.5q-293 0 -460 193.5t-167 513.5q0 321 174.5 511.5t466.5 190.5q216 0 369 -112t197 -305l-189 -27q-32 126 -129.5 201.5t-255.5 75.5q-191 0 -312.5 -140t-121.5 -395q0 -252 121 -395.5t317 -143.5q159 0 257.5 74
t131.5 203z" />
    <glyph glyph-name="D" unicode="D" horiz-adv-x="1368" 
d="M1073 680q0 98 -19 175.5t-49 130.5t-78.5 91t-96.5 59t-113.5 33t-119 15.5t-124.5 3.5h-115v-1016h115q71 0 124.5 3.5t119 15.5t113.5 33t96.5 59t78.5 91t49 130.5t19 175.5zM164 1360h315q793 0 793 -680t-793 -680h-315v1360z" />
    <glyph glyph-name="E" unicode="E" horiz-adv-x="1167" 
d="M164 0v1360h936v-172h-742v-402h699v-172h-699v-442h742v-172h-936z" />
    <glyph glyph-name="F" unicode="F" horiz-adv-x="1064" 
d="M164 0v1360h897v-172h-703v-402h662v-172h-662v-614h-194z" />
    <glyph glyph-name="G" unicode="G" horiz-adv-x="1466" 
d="M737 1384q216 0 370.5 -111.5t201.5 -303.5l-189 -27q-36 123 -135.5 199t-255.5 76q-191 0 -312.5 -140t-121.5 -395q0 -252 119 -395.5t315 -143.5q59 0 113 9.5t109 34.5t94.5 64t64.5 103t25 146v32h-365v173h549v-705h-154l-8 174q-127 -199 -436 -199
q-293 0 -459 193.5t-166 513.5t175 511t466 191z" />
    <glyph glyph-name="H" unicode="H" horiz-adv-x="1441" 
d="M1083 1360h195v-1360h-195v614h-725v-614h-194v1360h194v-574h725v574z" />
    <glyph glyph-name="I" unicode="I" horiz-adv-x="522" 
d="M358 1360v-1360h-194v1360h194z" />
    <glyph glyph-name="J" unicode="J" horiz-adv-x="622" 
d="M61 0v174h31q44 0 70.5 1.5t47.5 10t30.5 17t15.5 32t7 45.5t1 66v1014h195v-1030q0 -73 -7.5 -126t-26 -89.5t-42 -59t-63 -35t-81.5 -16.5t-104 -4h-74z" />
    <glyph glyph-name="K" unicode="K" horiz-adv-x="1267" 
d="M358 1360v-676l623 676h242l-514 -549l573 -811h-233l-471 670l-220 -236v-434h-194v1360h194z" />
    <glyph glyph-name="L" unicode="L" 
d="M358 1360v-1188h729v-172h-923v1360h194z" />
    <glyph glyph-name="M" unicode="M" horiz-adv-x="1683" 
d="M944 0h-205l-381 1182v-1182h-194v1360h325l353 -1131l352 1131h326v-1360h-195v1182z" />
    <glyph glyph-name="N" unicode="N" horiz-adv-x="1437" 
d="M1274 0h-285l-631 1157v-1157h-194v1360h285l630 -1155v1155h195v-1360z" />
    <glyph glyph-name="O" unicode="O" horiz-adv-x="1486" 
d="M1192 680q0 253 -126.5 395t-322.5 142t-322 -142t-126 -395t126 -395t322 -142t322.5 142t126.5 395zM1391 680q0 -323 -179.5 -514t-470.5 -191q-195 0 -342 89.5t-225 249t-78 366.5q0 312 181 508t468 196q290 0 468 -190t178 -514z" />
    <glyph glyph-name="P" unicode="P" horiz-adv-x="1179" 
d="M164 1360h401q106 0 189 -11.5t157.5 -41t123 -77t76.5 -123t28 -175.5t-28 -175.5t-76.5 -123t-123 -77t-157.5 -41t-189 -11.5h-207v-504h-194v1360zM580 1188h-222v-512h222q68 0 116.5 5t97 20.5t79 43t49 74.5t18.5 113t-18.5 113t-49 74.5t-79 43t-97 20.5
t-116.5 5z" />
    <glyph glyph-name="Q" unicode="Q" horiz-adv-x="1513" 
d="M1391 680q0 -300 -160 -494l160 -159l-119 -119l-168 168q-153 -101 -363 -101q-195 0 -342 89.5t-225 249t-78 366.5q0 312 181 508t468 196q290 0 468 -190t178 -514zM1192 680q0 253 -126.5 395t-322.5 142t-322 -142t-126 -395t126 -395t322 -142q131 0 232 64
l-127 127l119 119l129 -131q96 138 96 358z" />
    <glyph glyph-name="R" unicode="R" horiz-adv-x="1275" 
d="M989 0l-295 559q-35 -2 -108 -2h-228v-557h-194v1360h422q108 0 189.5 -9.5t156.5 -35.5t123 -69.5t76 -114.5t28 -168q0 -156 -68.5 -245t-197.5 -128l313 -590h-217zM600 1188h-242v-459h242q58 0 98 2.5t85.5 9.5t74 22.5t54 40t37.5 63.5t12 91q0 45 -10 80t-26 59
t-43 41t-54.5 26.5t-68 15t-75.5 7t-84 1.5z" />
    <glyph glyph-name="S" unicode="S" horiz-adv-x="1220" 
d="M106 1012q0 76 30.5 139t81 105.5t116.5 72t134.5 42.5t137.5 13q128 0 234 -38t184 -121t104 -203l-188 -27q-16 61 -52 106t-84.5 69.5t-99 35.5t-106.5 11q-35 0 -71.5 -5.5t-77 -20t-72 -36t-52 -57t-20.5 -80.5q0 -85 59 -132t166 -71l160 -35q53 -12 92.5 -22.5
t91 -28.5t88 -38t75 -50.5t62.5 -66.5t39 -85t15 -106q0 -130 -75 -224.5t-191.5 -139t-257.5 -44.5q-240 0 -390 119.5t-178 317.5l189 26q28 -143 124.5 -219t258.5 -76q151 0 236 60t85 162q0 53 -21.5 92.5t-63.5 67t-92 45t-120 32.5l-172 37q-76 17 -139.5 44
t-119.5 70.5t-88 109.5t-32 149z" />
    <glyph glyph-name="T" unicode="T" horiz-adv-x="1091" 
d="M449 0v1188h-449v172h1092v-172h-449v-1188h-194z" />
    <glyph glyph-name="U" unicode="U" horiz-adv-x="1392" 
d="M143 1360h195v-819q0 -207 82 -302.5t274 -95.5q193 0 277 103.5t84 314.5v799h194v-782q0 -309 -130 -456t-425 -147q-195 0 -314 57t-178 185.5t-59 343.5v799z" />
    <glyph glyph-name="V" unicode="V" horiz-adv-x="1214" 
d="M20 1360h213l383 -1159l375 1159h203l-467 -1360h-233z" />
    <glyph glyph-name="W" unicode="W" horiz-adv-x="1755" 
d="M993 1360l273 -1139l256 1139h202l-344 -1360h-235l-266 1114l-263 -1114h-235l-350 1360h213l266 -1139l256 1139h227z" />
    <glyph glyph-name="X" unicode="X" horiz-adv-x="1249" 
d="M0 0l512 700l-477 660h229l365 -502l366 502h219l-477 -653l512 -707h-229l-399 549l-402 -549h-219z" />
    <glyph glyph-name="Y" unicode="Y" horiz-adv-x="1187" 
d="M0 1360h213l377 -674l385 674h213l-506 -846v-514h-195v518z" />
    <glyph glyph-name="Z" unicode="Z" horiz-adv-x="1204" 
d="M1118 1360v-172l-811 -1016h842v-172h-1071v172l813 1016h-750v172h977z" />
    <glyph glyph-name="bracketleft" unicode="[" horiz-adv-x="581" 
d="M154 1360h428v-148h-260v-1419h260v-147h-428v1714z" />
    <glyph glyph-name="backslash" unicode="\" horiz-adv-x="716" 
d="M174 1360l543 -1360h-174l-543 1360h174z" />
    <glyph glyph-name="bracketright" unicode="]" horiz-adv-x="581" 
d="M0 1360h428v-1714h-428v147h260v1419h-260v148z" />
    <glyph glyph-name="asciicircum" unicode="^" horiz-adv-x="839" 
d="M489 1360l392 -737h-187l-278 520l-273 -520h-184l383 737h147z" />
    <glyph glyph-name="underscore" unicode="_" horiz-adv-x="872" 
d="M811 -166h-750v164h750v-164z" />
    <glyph glyph-name="grave" unicode="`" horiz-adv-x="516" 
d="M309 1118l-248 242h222l172 -242h-146z" />
    <glyph glyph-name="a" unicode="a" horiz-adv-x="1054" 
d="M285 694l-170 6q9 151 127 236.5t293 85.5q214 0 307 -89.5t90 -291.5l-4 -254q-2 -145 20 -387h-168l-6 141q-101 -166 -338 -166q-167 0 -260.5 94.5t-93.5 231.5q0 151 135 227q114 63 346 88l195 21v37q0 115 -61 161t-171 46q-114 0 -173.5 -50t-67.5 -137zM770 434
v60l-209 -21q-152 -14 -223.5 -55t-71.5 -123q0 -78 56 -123t147 -45q44 0 85.5 9.5t81.5 32.5t69 57t47 87.5t18 120.5z" />
    <glyph glyph-name="b" unicode="b" horiz-adv-x="1124" 
d="M137 0v1360h174v-502q106 162 326 162q185 0 301.5 -141t116.5 -383q0 -239 -122 -380t-317 -141q-105 0 -183.5 40t-121.5 108l-8 -123h-166zM592 868q-125 0 -207 -94t-82 -278q0 -185 80.5 -277t208.5 -92q135 0 206.5 97t71.5 272q0 177 -71 274.5t-207 97.5z" />
    <glyph glyph-name="c" unicode="c" horiz-adv-x="1038" 
d="M557 1020q90 0 167.5 -29.5t129.5 -78t84 -106.5t41 -118l-176 -24q-19 94 -88 148t-170 54q-127 0 -209 -93.5t-82 -270.5q0 -179 83 -276t208 -97q106 0 176 56.5t90 144.5l178 -23q-26 -138 -150 -235t-298 -97q-219 0 -345 146.5t-126 378.5q0 149 56.5 265.5
t168 185.5t262.5 69z" />
    <glyph glyph-name="d" unicode="d" horiz-adv-x="1124" 
d="M987 1360v-1360h-168l-6 137q-106 -162 -326 -162q-185 0 -301 141.5t-116 383.5q0 239 121.5 379.5t316.5 140.5q105 0 183.5 -40t121.5 -108v488h174zM532 127q59 0 110 22t92 66t64 117.5t23 167.5q0 185 -80 276.5t-209 91.5q-135 0 -206.5 -96.5t-71.5 -271.5
q0 -177 71 -275t207 -98z" />
    <glyph glyph-name="e" unicode="e" 
d="M555 -25q-120 0 -213.5 40t-152.5 111.5t-89 165.5t-30 206q0 233 136 377.5t351 144.5q154 0 266.5 -76t164.5 -206t40 -292h-774q0 -145 83.5 -231t213.5 -86q115 0 182 45t101 131l178 -22q-38 -133 -157.5 -220.5t-299.5 -87.5zM557 872q-132 0 -213.5 -74.5
t-87.5 -205.5h588q-2 52 -21 101t-53.5 89.5t-90 65t-122.5 24.5z" />
    <glyph glyph-name="f" unicode="f" horiz-adv-x="595" 
d="M180 1004v73q0 84 10.5 134.5t41.5 86t84 49t141 13.5h90v-148h-86q-67 0 -87 -26t-20 -107v-75h193v-144h-193v-860h-174v860h-141v144h141z" />
    <glyph glyph-name="g" unicode="g" horiz-adv-x="1116" 
d="M805 88v90q-52 -79 -126 -120.5t-192 -41.5q-186 0 -301.5 134.5t-115.5 369.5q0 232 121 366t317 134q202 0 297 -148l4 132h170v-877q0 -149 -21 -228.5t-67 -129.5q-57 -65 -149 -100.5t-205 -35.5q-176 0 -286.5 79.5t-135.5 228.5l184 6q21 -78 75 -120t165 -42
q139 0 209 76q30 33 43.5 81t13.5 146zM532 168q125 0 203 86.5t78 265.5q0 180 -76 264t-205 84q-136 0 -207 -90t-71 -258q0 -170 70.5 -261t207.5 -91z" />
    <glyph glyph-name="h" unicode="h" horiz-adv-x="1099" 
d="M311 1360v-496q101 156 330 156q199 0 283 -137q55 -89 55 -267v-616h-174v569q0 149 -37 213q-52 86 -186 86q-128 0 -199.5 -85.5t-71.5 -247.5v-535h-174v1360h174z" />
    <glyph glyph-name="i" unicode="i" horiz-adv-x="448" 
d="M137 1004h174v-1004h-174v1004zM137 1360h174v-209h-174v209z" />
    <glyph glyph-name="j" unicode="j" horiz-adv-x="448" 
d="M137 -74v1078h174v-1076q0 -163 -48 -222.5t-193 -59.5h-88v147h49q66 0 86 26t20 107zM137 1360h174v-209h-174v209z" />
    <glyph glyph-name="k" unicode="k" horiz-adv-x="960" 
d="M137 1360h174v-780l412 424h213l-361 -371l394 -633h-203l-309 510l-146 -150v-360h-174v1360z" />
    <glyph glyph-name="l" unicode="l" horiz-adv-x="448" 
d="M311 1360v-1360h-174v1360h174z" />
    <glyph glyph-name="m" unicode="m" horiz-adv-x="1710" 
d="M137 0v1004h174v-140q92 156 312 156q114 0 181 -45t105 -129q115 174 353 174q148 0 239 -94q88 -95 88 -310v-616h-174v567q0 184 -57 244q-54 57 -160 57q-115 0 -181.5 -85.5t-66.5 -241.5v-541h-174v567q0 184 -57 244q-54 57 -160 57q-115 0 -181.5 -85.5
t-66.5 -241.5v-541h-174z" />
    <glyph glyph-name="n" unicode="n" horiz-adv-x="1099" 
d="M311 1004v-140q101 156 330 156q199 0 283 -137q55 -89 55 -267v-616h-174v569q0 149 -37 213q-52 86 -186 86q-128 0 -199.5 -85.5t-71.5 -247.5v-535h-174v1004h174z" />
    <glyph glyph-name="o" unicode="o" horiz-adv-x="1085" 
d="M254 498q0 -188 79 -279.5t210 -91.5t209.5 91.5t78.5 279.5t-78.5 279t-209.5 91t-210 -91.5t-79 -278.5zM70 498q0 130 39 232.5t105.5 164.5t150 93.5t178.5 31.5t178.5 -31.5t150 -93.5t105.5 -164.5t39 -232.5t-39 -232.5t-105.5 -164.5t-150 -94t-178.5 -32
t-178.5 32t-150 94t-105.5 164.5t-39 232.5z" />
    <glyph glyph-name="p" unicode="p" horiz-adv-x="1124" 
d="M311 123v-477h-174v1358h170l4 -146q106 162 326 162q185 0 301.5 -141t116.5 -383q0 -239 -122 -380t-317 -141q-105 0 -183.5 40t-121.5 108zM592 868q-125 0 -207 -94t-82 -278q0 -185 80.5 -277t208.5 -92q135 0 206.5 97t71.5 272q0 177 -71 274.5t-207 97.5z" />
    <glyph glyph-name="q" unicode="q" horiz-adv-x="1124" 
d="M813 872v132h174v-1358h-174v491q-106 -162 -326 -162q-185 0 -301 141.5t-116 383.5q0 239 121.5 379.5t316.5 140.5q105 0 183.5 -40t121.5 -108zM532 127q59 0 110 22t92 66t64 117.5t23 167.5q0 185 -80 276.5t-209 91.5q-135 0 -206.5 -96.5t-71.5 -271.5
q0 -177 71 -275t207 -98z" />
    <glyph glyph-name="r" unicode="r" horiz-adv-x="675" 
d="M647 1008v-185q-56 6 -96 6q-122 0 -181 -73.5t-59 -239.5v-516h-174v1004h170v-179q38 86 113.5 134t175.5 51q33 0 51 -2z" />
    <glyph glyph-name="s" unicode="s" horiz-adv-x="983" 
d="M903 731l-180 -16q-37 159 -250 159q-89 0 -152 -31.5t-63 -90.5q0 -56 40.5 -86t125.5 -48l121 -24q63 -13 111 -27.5t97.5 -39.5t82 -56t53 -77.5t20.5 -104.5q0 -147 -117 -230.5t-300 -83.5q-97 0 -178 28.5t-134 75.5t-84.5 104t-38.5 118l183 16q44 -196 256 -196
q104 0 170.5 41.5t66.5 107.5q0 115 -219 162l-131 27q-48 10 -87 22.5t-80 35t-69 51.5t-45.5 73.5t-17.5 99.5q0 85 57.5 149.5t149.5 97t201 32.5q165 0 273 -78.5t138 -210.5z" />
    <glyph glyph-name="t" unicode="t" horiz-adv-x="618" 
d="M186 1004v276h174v-276h193v-144h-193v-579q0 -84 17.5 -109t89.5 -25h86v-147h-125q-77 0 -121.5 9.5t-73 39t-38 77t-9.5 130.5v604h-161v144h161z" />
    <glyph glyph-name="u" unicode="u" 
d="M776 0v143q-97 -166 -315 -166q-176 0 -262 117q-70 94 -70 287v623h174v-568q0 -148 33 -213q46 -94 188 -94q119 0 185.5 85.5t66.5 242.5v547h174v-1004h-174z" />
    <glyph glyph-name="v" unicode="v" horiz-adv-x="927" 
d="M193 1004l278 -764l277 764h180l-387 -1004h-154l-387 1004h193z" />
    <glyph glyph-name="w" unicode="w" horiz-adv-x="1351" 
d="M383 266l203 738h180l203 -738l196 738h187l-295 -1004h-158l-227 803l-219 -803h-158l-295 1004h186z" />
    <glyph glyph-name="x" unicode="x" horiz-adv-x="995" 
d="M946 1004l-348 -482l381 -522h-207l-276 381l-277 -381h-199l377 516l-354 488h207l250 -347l252 347h194z" />
    <glyph glyph-name="y" unicode="y" horiz-adv-x="901" 
d="M180 -354h-90v151h72q38 0 61 3t48 12.5t41.5 29.5t33 53.5t31.5 84.5l6 20l-369 1004h193l260 -771l254 771h180l-364 -1047q-24 -69 -43 -112t-48 -85t-63.5 -64.5t-85 -36t-117.5 -13.5z" />
    <glyph glyph-name="z" unicode="z" horiz-adv-x="929" 
d="M63 0v143l592 717h-553v144h756v-144l-592 -717h602v-143h-805z" />
    <glyph glyph-name="braceleft" unicode="{" horiz-adv-x="512" 
d="M442 -354q-88 0 -141 13.5t-83.5 48.5t-41 85.5t-10.5 134.5v310q0 101 -29 148.5t-117 47.5v139q88 0 117 48t29 149v307q0 84 10.5 134.5t41 86t83.5 49t141 13.5h90v-148h-86q-66 0 -86 -26t-20 -107v-313q0 -125 -39.5 -181.5t-120.5 -78.5v-4q81 -22 120.5 -78.5
t39.5 -181.5v-316q0 -81 20 -107t86 -26h86v-147h-90z" />
    <glyph glyph-name="bar" unicode="|" horiz-adv-x="485" 
d="M164 1360h158v-1530h-158v1530z" />
    <glyph glyph-name="braceright" unicode="}" horiz-adv-x="512" 
d="M-20 -354v147h86q66 0 86 26t20 107v316q0 125 39.5 181.5t120.5 78.5v4q-81 22 -120.5 78.5t-39.5 181.5v313q0 81 -20 107t-86 26h-86v148h90q88 0 141 -13.5t83.5 -49t41 -86t10.5 -134.5v-307q0 -101 29 -149t117 -48v-139q-88 0 -117 -47.5t-29 -148.5v-310
q0 -84 -10.5 -134.5t-41 -85.5t-83.5 -48.5t-141 -13.5h-90z" />
    <glyph glyph-name="asciitilde" unicode="~" horiz-adv-x="1097" 
d="M764 545q54 0 90.5 35t40.5 96h162q-8 -126 -87 -204.5t-206 -78.5q-52 0 -114.5 20.5t-110.5 45t-105 45t-100 20.5q-54 0 -90.5 -35t-40.5 -96h-162q8 126 87 204.5t206 78.5q61 0 127 -20.5t112.5 -45t99.5 -45t91 -20.5z" />
    <glyph glyph-name="exclamdown" unicode="&#xa1;" horiz-adv-x="464" 
d="M330 41v-397h-183v397l37 559h109zM123 1004h219v-220h-219v220z" />
    <glyph glyph-name="cent" unicode="&#xa2;" horiz-adv-x="1038" 
d="M979 688l-176 -24q-17 83 -73.5 135t-139.5 63v-731q88 12 145.5 66.5t75.5 132.5l178 -23q-24 -127 -133.5 -221t-265.5 -109v-161h-88v161q-203 13 -317.5 157t-114.5 366q0 213 116.5 355t315.5 161v180h88v-178q160 -10 264.5 -108t124.5 -222zM254 502
q0 -163 69 -259t179 -112v731q-110 -14 -179 -107t-69 -253z" />
    <glyph glyph-name="sterling" unicode="&#xa3;" 
d="M567 1233q-48 0 -91.5 -10t-84 -32t-64.5 -64t-24 -99q0 -45 16.5 -97.5t32 -83.5t49.5 -93h373v-123h-315q28 -79 28 -142q0 -189 -200 -307l2 -4q67 25 129 25q51 0 158.5 -37t179.5 -37q106 0 229 51l51 -149q-43 -25 -118 -44.5t-146 -19.5q-72 0 -196.5 38
t-200.5 38q-139 0 -279 -76l-57 139q37 16 78 43.5t85.5 70.5t73.5 106.5t29 134.5q0 72 -37 170h-227v123h168q-30 57 -45 90t-30 87t-15 105q0 91 40 160t106.5 109t145 59.5t164.5 19.5q217 0 340.5 -122t120.5 -324l-178 -4q-3 160 -82 229.5t-209 69.5z" />
    <glyph glyph-name="currency" unicode="&#xa4;" horiz-adv-x="1210" 
d="M150 659q0 149 83 265l-131 133l95 92l129 -129q121 94 274 94q154 0 281 -96l133 131l94 -92l-135 -135q82 -119 82 -263q0 -143 -84 -260l137 -137l-94 -92l-135 133q-124 -94 -279 -94q-152 0 -272 90l-131 -129l-95 92l131 133q-83 116 -83 264zM307 659
q0 -130 82.5 -218.5t208.5 -88.5q132 0 217.5 88.5t85.5 218.5q0 133 -85.5 223.5t-217.5 90.5q-126 0 -208.5 -90.5t-82.5 -223.5z" />
    <glyph glyph-name="yen" unicode="&#xa5;" horiz-adv-x="1146" 
d="M977 211h-326v-211h-174v211h-311v123h311v143h-311v123h264l-440 760h203l376 -694l385 694h203l-455 -760h275v-123h-326v-143h326v-123z" />
    <glyph glyph-name="brokenbar" unicode="&#xa6;" horiz-adv-x="432" 
d="M137 1360h158v-582h-158v582zM137 412h158v-582h-158v582z" />
    <glyph glyph-name="section" unicode="&#xa7;" horiz-adv-x="1103" 
d="M547 -221q93 0 150 37.5t57 105.5q0 61 -39 109.5t-146 105.5l-245 131q-254 135 -254 332q0 91 63.5 162t163.5 108q-133 95 -133 246q0 86 55.5 148.5t137.5 91t178 28.5q166 0 271.5 -83t127.5 -222l-178 -8q-16 86 -77.5 127t-152.5 41q-85 0 -135.5 -31.5
t-50.5 -83.5q0 -51 34 -89.5t120 -84.5l262 -141q141 -75 209.5 -148t68.5 -182q0 -97 -59.5 -175.5t-161.5 -125.5q117 -99 117 -229q0 -148 -110.5 -232t-276.5 -84q-178 0 -289 94t-125 253l178 8q29 -209 240 -209zM666 668l-230 123q-82 -25 -138 -71t-56 -110
q0 -57 34 -100.5t115 -87.5l260 -139q38 -22 41 -23q74 33 122 81.5t48 109.5q0 63 -46 112t-150 105z" />
    <glyph glyph-name="dieresis" unicode="&#xa8;" horiz-adv-x="733" 
d="M61 1141v188h175v-188h-175zM498 1329h174v-188h-174v188z" />
    <glyph glyph-name="copyright" unicode="&#xa9;" horiz-adv-x="1570" 
d="M82 678q0 153 55 285t150 223.5t224.5 143.5t274.5 52q144 0 273 -52t224 -143.5t150.5 -223.5t55.5 -285q0 -204 -95 -366t-255 -249.5t-353 -87.5q-195 0 -355 87.5t-254.5 249.5t-94.5 366zM221 678q0 -126 44 -235t119.5 -183.5t179.5 -117t222 -42.5q120 0 224 42.5
t179 117.5t118 183t43 235q0 170 -73.5 302t-202 203.5t-288.5 71.5q-118 0 -222 -42t-179.5 -116.5t-119.5 -183t-44 -235.5zM784 424q67 0 119 34t72 107l141 -37q-34 -97 -118 -160t-214 -63q-169 0 -260.5 103t-91.5 286q0 179 96.5 281t262.5 102q128 0 209.5 -65
t109.5 -170l-139 -39q-18 76 -68.5 115.5t-118.5 39.5q-90 0 -144 -66.5t-54 -197.5t54.5 -200.5t143.5 -69.5z" />
    <glyph glyph-name="ordfeminine" unicode="&#xaa;" horiz-adv-x="647" 
d="M205 1192l-131 4q8 86 74 137t180 51q126 0 184 -52.5t57 -166.5q-4 -102 -4 -172q0 -85 13 -196h-129l-5 65q-56 -80 -182 -80q-94 0 -150.5 55.5t-56.5 131.5q0 78 58 123q67 48 213 61l104 12v21q0 53 -27.5 74.5t-80.5 21.5t-83.5 -23t-33.5 -67zM434 1032v35
l-104 -12q-70 -7 -101.5 -28t-31.5 -58q0 -35 26.5 -57.5t69.5 -22.5q60 0 100.5 36t40.5 107z" />
    <glyph glyph-name="guillemotleft" unicode="&#xab;" horiz-adv-x="956" 
d="M303 63l-303 437l303 434h186l-286 -434l286 -437h-186zM731 63l-303 437l303 434h184l-286 -434l286 -437h-184z" />
    <glyph glyph-name="logicalnot" unicode="&#xac;" horiz-adv-x="1157" 
d="M901 655h-819v164h993v-633h-174v469z" />
    <glyph glyph-name="registered" unicode="&#xae;" horiz-adv-x="1570" 
d="M82 678q0 153 55 285t150 223.5t224.5 143.5t274.5 52q144 0 273 -52t224 -143.5t150.5 -223.5t55.5 -285q0 -204 -95 -366t-255 -249.5t-353 -87.5q-195 0 -355 87.5t-254.5 249.5t-94.5 366zM221 678q0 -126 44 -235t119.5 -183.5t179.5 -117t222 -42.5q120 0 224 42.5
t179 117.5t118 183t43 235q0 170 -73.5 302t-202 203.5t-288.5 71.5q-118 0 -222 -42t-179.5 -116.5t-119.5 -183t-44 -235.5zM961 330l-152 284h-35h-108v-284h-154v745h229q90 0 149.5 -9t108.5 -33t72 -70t23 -117q0 -64 -34 -116.5t-102 -82.5l172 -317h-169zM940 844
q0 62 -45 86t-129 24h-100v-221h108q87 0 126.5 27.5t39.5 83.5z" />
    <glyph glyph-name="macron" unicode="&#xaf;" horiz-adv-x="653" 
d="M612 1167h-571v144h571v-144z" />
    <glyph glyph-name="degree" unicode="&#xb0;" horiz-adv-x="641" 
d="M41 1104q0 117 81 198.5t197 81.5q117 0 199 -81.5t82 -198.5q0 -116 -82 -197.5t-199 -81.5q-115 0 -196.5 81.5t-81.5 197.5zM180 1104q0 -63 39.5 -106.5t99.5 -43.5q62 0 103 44t41 106q0 64 -41 107.5t-103 43.5q-61 0 -100 -43.5t-39 -107.5z" />
    <glyph glyph-name="plusminus" unicode="&#xb1;" horiz-adv-x="1157" 
d="M492 717v295h174v-295h409v-164h-409v-297h-174v297h-410v164h410zM1075 0h-993v164h993v-164z" />
    <glyph glyph-name="two.superior" unicode="&#xb2;" horiz-adv-x="659" 
d="M344 1624q119 0 191.5 -56t72.5 -155q0 -33 -11.5 -67t-27 -62.5t-48 -65t-58 -62.5t-74.5 -67t-80 -66t-90 -71h377v-118h-553v112q220 176 279 231q129 120 141 204q2 11 2 22q0 52 -37.5 82.5t-93.5 30.5q-60 0 -99.5 -38t-39.5 -122h-138q-1 121 77.5 194.5
t209.5 73.5z" />
    <glyph glyph-name="three.superior" unicode="&#xb3;" horiz-adv-x="692" 
d="M342 928q67 0 110.5 33.5t43.5 91.5q0 129 -203 129h-29v112h23q188 0 188 115q0 51 -37.5 79t-93.5 28q-66 0 -106.5 -39t-51.5 -103l-133 15q18 109 94.5 172t204.5 63q69 0 127 -20t97.5 -68.5t39.5 -118.5q0 -56 -30 -101t-80 -71q64 -25 97.5 -76.5t33.5 -113.5
q0 -113 -85 -174.5t-214 -61.5q-128 0 -204 70.5t-89 173.5l133 14q11 -66 52 -107.5t112 -41.5z" />
    <glyph glyph-name="acute" unicode="&#xb4;" horiz-adv-x="516" 
d="M455 1360l-248 -242h-146l172 242h222z" />
    <glyph glyph-name="mu" unicode="&#xb5;" horiz-adv-x="1091" 
d="M113 -354q20 95 20 301v1057h174v-582q0 -162 52.5 -228.5t168.5 -66.5q119 0 185.5 85.5t66.5 242.5v549h174v-1004h-174v141q-44 -74 -108 -120t-137 -46q-147 0 -228 115v-127q0 -213 -22 -317h-172z" />
    <glyph glyph-name="mu" unicode="&#x3bc;" horiz-adv-x="1091" 
d="M113 -354q20 95 20 301v1057h174v-582q0 -162 52.5 -228.5t168.5 -66.5q119 0 185.5 85.5t66.5 242.5v549h174v-1004h-174v141q-44 -74 -108 -120t-137 -46q-147 0 -228 115v-127q0 -213 -22 -317h-172z" />
    <glyph glyph-name="paragraph" unicode="&#xb6;" horiz-adv-x="991" 
d="M0 1001q0 169 116.5 264t342.5 95h395v-1530h-143v1397h-232v-1397h-143v836q-66 7 -124 30.5t-106.5 63t-77 101.5t-28.5 140z" />
    <glyph glyph-name="periodcentered" unicode="&#xb7;" horiz-adv-x="430" 
d="M102 412v219h220v-219h-220z" />
    <glyph glyph-name="cedilla" unicode="&#xb8;" horiz-adv-x="464" 
d="M41 -336l31 78q56 -27 110 -27q48 0 81.5 14.5t33.5 45.5q0 28 -23 42.5t-59 14.5q-47 0 -74 -16l-57 32l98 158h101l-62 -98q30 6 58 6q68 0 106.5 -35t38.5 -94q0 -71 -63.5 -113.5t-143.5 -42.5q-100 0 -176 35z" />
    <glyph glyph-name="one.superior" unicode="&#xb9;" horiz-adv-x="440" 
d="M334 834h-137v583h-172v94q49 2 76.5 5.5t54 13.5t44 29t31.5 51h103v-776z" />
    <glyph glyph-name="ordmasculine" unicode="&#xba;" horiz-adv-x="673" 
d="M197 1083q0 -91 38 -140.5t103 -49.5q64 0 102.5 49.5t38.5 140.5q0 92 -38 141.5t-103 49.5q-66 0 -103.5 -49.5t-37.5 -141.5zM55 1083q0 147 81 224t202 77q119 0 201 -77t82 -224q0 -145 -82 -222t-201 -77q-121 0 -202 76.5t-81 222.5z" />
    <glyph glyph-name="guillemotright" unicode="&#xbb;" horiz-adv-x="956" 
d="M956 500l-303 -437h-186l287 437l-287 434h186zM528 500l-303 -437h-184l287 437l-287 434h184z" />
    <glyph glyph-name="onequarter" unicode="&#xbc;" horiz-adv-x="1695" 
d="M512 584h-137v583h-172v95q95 3 137.5 20.5t69.5 77.5h102v-776zM467 0h-193l953 1360h192zM1393 594l-236 -291h236v291zM1667 303v-123h-137v-180h-137v180h-387v115l389 481h135v-473h137z" />
    <glyph glyph-name="onehalf" unicode="&#xbd;" horiz-adv-x="1695" 
d="M512 584h-137v583h-172v95q95 3 137.5 20.5t69.5 77.5h102v-776zM467 0h-193l953 1360h192zM1352 791q119 0 191.5 -56t72.5 -155q0 -33 -11.5 -67t-27 -62.5t-48 -65t-58 -62.5t-74.5 -67t-80 -66t-90 -71h377v-119h-553v113q16 13 47 38q205 163 270 229
q104 107 105 189q0 52 -38 82.5t-94 30.5q-60 0 -99.5 -38t-39.5 -122h-137q-1 121 77.5 195t209.5 74z" />
    <glyph glyph-name="threequarters" unicode="&#xbe;" horiz-adv-x="1695" 
d="M358 678q67 0 110.5 33.5t43.5 91.5q0 129 -203 129h-28v112h22q189 0 189 115q0 51 -38 79t-94 28q-66 0 -106 -38.5t-51 -103.5l-133 15q18 109 94 172t205 63q69 0 127 -20t97.5 -68.5t39.5 -118.5q0 -56 -30.5 -101t-80.5 -71q64 -25 97.5 -76.5t33.5 -113.5
q0 -113 -85 -174.5t-214 -61.5q-128 0 -204 70.5t-89 173.5l134 14q11 -67 51.5 -108t111.5 -41zM274 0h193l952 1360h-192zM1157 303l236 291v-291h-236zM1667 180v123h-137v473h-135l-389 -481v-115h387v-180h137v180h137z" />
    <glyph glyph-name="questiondown" unicode="&#xbf;" horiz-adv-x="950" 
d="M453 -381q-83 0 -158 20.5t-136 60.5t-97.5 106t-36.5 149q0 52 16 100.5t37 83t59 73.5t65 61t72 57q10 7 40 29t40 30t30.5 28t28 35t14.5 38.5t7 50.5v59h176v-65q0 -37 -6 -68.5t-21.5 -58.5t-28 -46t-40 -42.5t-42 -35t-48.5 -36t-47 -33.5q-41 -30 -64.5 -50
t-51.5 -52t-41 -69.5t-13 -82.5q0 -88 70 -138t186 -50q74 0 129.5 25.5t85.5 66.5t44.5 83.5t16.5 86.5l174 -6q-1 -121 -61 -215t-164.5 -144.5t-234.5 -50.5zM629 1004v-220h-219v220h219z" />
    <glyph glyph-name="Agrave" unicode="&#xc0;" horiz-adv-x="1255" 
d="M0 0l512 1360h225l518 -1360h-213l-108 295h-627l-104 -295h-203zM618 1159l-249 -694h503zM565 1430l-282 215h245l209 -215h-172z" />
    <glyph glyph-name="Aacute" unicode="&#xc1;" horiz-adv-x="1255" 
d="M0 0l512 1360h225l518 -1360h-213l-108 295h-627l-104 -295h-203zM618 1159l-249 -694h503zM950 1645l-282 -215h-172l209 215h245z" />
    <glyph glyph-name="Acircumflex" unicode="&#xc2;" horiz-adv-x="1255" 
d="M0 0l512 1360h225l518 -1360h-213l-108 295h-627l-104 -295h-203zM618 1159l-249 -694h503zM702 1645l250 -215h-202l-129 106l-132 -106h-202l256 215h159z" />
    <glyph glyph-name="Atilde" unicode="&#xc3;" horiz-adv-x="1255" 
d="M0 0l512 1360h225l518 -1360h-213l-108 295h-627l-104 -295h-203zM618 1159l-249 -694h503zM748 1556q78 0 90 86h135q-19 -111 -79 -163t-142 -52q-39 0 -77.5 14t-64.5 31.5t-58 31.5t-58 14q-37 0 -59 -22t-27 -62h-136q18 107 76.5 160t143.5 53q39 0 77 -14
t62.5 -31.5t56.5 -31.5t60 -14z" />
    <glyph glyph-name="Adieresis" unicode="&#xc4;" horiz-adv-x="1255" 
d="M0 0l512 1360h225l518 -1360h-213l-108 295h-627l-104 -295h-203zM618 1159l-249 -694h503zM315 1632h174v-188h-174v188zM752 1632h174v-188h-174v188z" />
    <glyph glyph-name="Aring" unicode="&#xc5;" horiz-adv-x="1255" 
d="M0 0l512 1360h225l518 -1360h-213l-108 295h-627l-104 -295h-203zM618 1159l-249 -694h503zM621 1735q72 0 122 -46t50 -116t-49.5 -116t-122.5 -46t-122.5 46t-49.5 116t50 116t122 46zM621 1655q-33 0 -57.5 -23.5t-24.5 -58.5q0 -34 24.5 -57t57.5 -23t57 23t24 57
q0 35 -24 58.5t-57 23.5z" />
    <glyph glyph-name="AE" unicode="&#xc6;" horiz-adv-x="1998" 
d="M1006 1360h925v-172h-731v-402h688v-172h-688v-442h731v-172h-925v295h-578l-215 -295h-213zM1006 1081l-453 -616h453v616z" />
    <glyph glyph-name="Ccedilla" unicode="&#xc7;" horiz-adv-x="1372" 
d="M506 -336l31 78q56 -27 110 -27q47 0 81 14.5t34 45.5q0 28 -23 42.5t-59 14.5q-47 0 -74 -16l-57 32l82 134q-252 29 -393.5 217.5t-141.5 482.5q0 321 174.5 511.5t466.5 190.5q216 0 369 -112t197 -305l-189 -27q-32 126 -129.5 201.5t-255.5 75.5q-191 0 -312.5 -140
t-121.5 -395q0 -252 121 -395.5t317 -143.5q159 0 257.5 74t131.5 203l189 -27q-45 -197 -201.5 -306.5t-382.5 -111.5l-41 -67q30 6 57 6q68 0 107 -35t39 -94q0 -71 -63.5 -113.5t-143.5 -42.5q-100 0 -176 35z" />
    <glyph glyph-name="Egrave" unicode="&#xc8;" horiz-adv-x="1167" 
d="M164 0v1360h936v-172h-742v-402h699v-172h-699v-442h742v-172h-936zM637 1430l-283 215h246l209 -215h-172z" />
    <glyph glyph-name="Eacute" unicode="&#xc9;" horiz-adv-x="1167" 
d="M164 0v1360h936v-172h-742v-402h699v-172h-699v-442h742v-172h-936zM926 1645l-283 -215h-172l209 215h246z" />
    <glyph glyph-name="Ecircumflex" unicode="&#xca;" horiz-adv-x="1167" 
d="M164 0v1360h936v-172h-742v-402h699v-172h-699v-442h742v-172h-936zM725 1645l250 -215h-203l-129 106l-131 -106h-203l256 215h160z" />
    <glyph glyph-name="Edieresis" unicode="&#xcb;" horiz-adv-x="1167" 
d="M164 0v1360h936v-172h-742v-402h699v-172h-699v-442h742v-172h-936zM319 1632h175v-188h-175v188zM756 1632h174v-188h-174v188z" />
    <glyph glyph-name="Igrave" unicode="&#xcc;" horiz-adv-x="522" 
d="M358 1360v-1360h-194v1360h194zM182 1430l-282 215h245l209 -215h-172z" />
    <glyph glyph-name="Iacute" unicode="&#xcd;" horiz-adv-x="522" 
d="M358 1360v-1360h-194v1360h194zM621 1645l-283 -215h-172l209 215h246z" />
    <glyph glyph-name="Icircumflex" unicode="&#xce;" horiz-adv-x="522" 
d="M348 1645l209 -215h-182l-109 106l-110 -106h-183l215 215h160zM358 1360v-1360h-194v1360h194z" />
    <glyph glyph-name="Idieresis" unicode="&#xcf;" horiz-adv-x="522" 
d="M0 1632h174v-188h-174v188zM350 1632h174v-188h-174v188zM358 1360v-1360h-194v1360h194z" />
    <glyph glyph-name="Eth" unicode="&#xd0;" horiz-adv-x="1394" 
d="M197 1360h315q137 0 250.5 -20t215 -68.5t170.5 -124.5t109.5 -194.5t40.5 -272.5t-40.5 -272.5t-109.5 -194.5t-170.5 -124.5t-215 -68.5t-250.5 -20h-315v614h-156v172h156v574zM659 614h-268v-442h115q71 0 124 3.5t118.5 15.5t112.5 33t94.5 59t77.5 91t48.5 130.5
t18.5 175.5t-18.5 175.5t-48.5 130.5t-77.5 91t-94.5 59t-112.5 33t-118.5 15.5t-124 3.5h-115v-402h268v-172z" />
    <glyph glyph-name="Ntilde" unicode="&#xd1;" horiz-adv-x="1437" 
d="M1274 0h-285l-631 1157v-1157h-194v1360h285l630 -1155v1155h195v-1360zM870 1556q37 0 61 22t30 64h135q-19 -111 -79.5 -163t-142.5 -52q-39 0 -77.5 14t-64.5 31.5t-58 31.5t-58 14q-37 0 -59 -22t-27 -62h-135q18 107 76 160t143 53q39 0 77 -14t62.5 -31.5
t56.5 -31.5t60 -14z" />
    <glyph glyph-name="Ograve" unicode="&#xd2;" horiz-adv-x="1486" 
d="M1192 680q0 253 -126.5 395t-322.5 142t-322 -142t-126 -395t126 -395t322 -142t322.5 142t126.5 395zM1391 680q0 -323 -179.5 -514t-470.5 -191q-195 0 -342 89.5t-225 249t-78 366.5q0 312 181 508t468 196q290 0 468 -190t178 -514zM723 1430l-283 215h246l209 -215
h-172z" />
    <glyph glyph-name="Oacute" unicode="&#xd3;" horiz-adv-x="1486" 
d="M1192 680q0 253 -126.5 395t-322.5 142t-322 -142t-126 -395t126 -395t322 -142t322.5 142t126.5 395zM1391 680q0 -323 -179.5 -514t-470.5 -191q-195 0 -342 89.5t-225 249t-78 366.5q0 312 181 508t468 196q290 0 468 -190t178 -514zM1016 1645l-283 -215h-172
l209 215h246z" />
    <glyph glyph-name="Ocircumflex" unicode="&#xd4;" horiz-adv-x="1486" 
d="M1192 680q0 253 -126.5 395t-322.5 142t-322 -142t-126 -395t126 -395t322 -142t322.5 142t126.5 395zM1391 680q0 -323 -179.5 -514t-470.5 -191q-195 0 -342 89.5t-225 249t-78 366.5q0 312 181 508t468 196q290 0 468 -190t178 -514zM823 1645l250 -215h-203l-129 106
l-131 -106h-202l256 215h159z" />
    <glyph glyph-name="Otilde" unicode="&#xd5;" horiz-adv-x="1486" 
d="M1192 680q0 253 -126.5 395t-322.5 142t-322 -142t-126 -395t126 -395t322 -142t322.5 142t126.5 395zM1391 680q0 -323 -179.5 -514t-470.5 -191q-195 0 -342 89.5t-225 249t-78 366.5q0 312 181 508t468 196q290 0 468 -190t178 -514zM856 1556q78 0 90 86h135
q-19 -111 -79 -163t-142 -52q-39 0 -77.5 14t-64.5 31.5t-58 31.5t-58 14q-37 0 -59 -22t-27 -62h-135q18 107 76 160t143 53q39 0 77 -14t62.5 -31.5t56.5 -31.5t60 -14z" />
    <glyph glyph-name="Odieresis" unicode="&#xd6;" horiz-adv-x="1486" 
d="M1192 680q0 253 -126.5 395t-322.5 142t-322 -142t-126 -395t126 -395t322 -142t322.5 142t126.5 395zM1391 680q0 -323 -179.5 -514t-470.5 -191q-195 0 -342 89.5t-225 249t-78 366.5q0 312 181 508t468 196q290 0 468 -190t178 -514zM430 1632h174v-188h-174v188z
M866 1632h174v-188h-174v188z" />
    <glyph glyph-name="multiply" unicode="&#xd7;" horiz-adv-x="976" 
d="M936 180l-123 -123l-330 330l-319 -317l-123 123l319 317l-319 321l123 123l319 -319l320 317l123 -123l-320 -319z" />
    <glyph glyph-name="Oslash" unicode="&#xd8;" horiz-adv-x="1474" 
d="M1348 1323l-127 -149q157 -190 157 -494q0 -324 -176.5 -514.5t-466.5 -190.5q-243 0 -413 144l-125 -146l-76 68l129 152q-154 189 -154 487q0 206 80.5 366t227 249t335.5 89q245 0 410 -137l121 142zM1180 680q0 210 -86 344l-654 -764q117 -117 297 -117
q195 0 319 141.5t124 395.5zM295 680q0 -205 82 -338l651 762q-119 113 -291 113q-195 0 -318.5 -141.5t-123.5 -395.5z" />
    <glyph glyph-name="Ugrave" unicode="&#xd9;" horiz-adv-x="1392" 
d="M143 1360h195v-819q0 -207 82 -302.5t274 -95.5q193 0 277 103.5t84 314.5v799h194v-782q0 -309 -130 -456t-425 -147q-195 0 -314 57t-178 185.5t-59 343.5v799zM696 1430l-282 215h245l209 -215h-172z" />
    <glyph glyph-name="Uacute" unicode="&#xda;" horiz-adv-x="1392" 
d="M143 1360h195v-819q0 -207 82 -302.5t274 -95.5q193 0 277 103.5t84 314.5v799h194v-782q0 -309 -130 -456t-425 -147q-195 0 -314 57t-178 185.5t-59 343.5v799zM985 1645l-283 -215h-172l209 215h246z" />
    <glyph glyph-name="Ucircumflex" unicode="&#xdb;" horiz-adv-x="1392" 
d="M143 1360h195v-819q0 -207 82 -302.5t274 -95.5q193 0 277 103.5t84 314.5v799h194v-782q0 -309 -130 -456t-425 -147q-195 0 -314 57t-178 185.5t-59 343.5v799zM782 1645l250 -215h-203l-129 106l-131 -106h-202l256 215h159z" />
    <glyph glyph-name="Udieresis" unicode="&#xdc;" horiz-adv-x="1392" 
d="M143 1360h195v-819q0 -207 82 -302.5t274 -95.5q193 0 277 103.5t84 314.5v799h194v-782q0 -309 -130 -456t-425 -147q-195 0 -314 57t-178 185.5t-59 343.5v799zM377 1632h174v-188h-174v188zM813 1632h174v-188h-174v188z" />
    <glyph glyph-name="Yacute" unicode="&#xdd;" horiz-adv-x="1187" 
d="M0 1360h213l377 -674l385 674h213l-506 -846v-514h-195v518zM860 1645l-282 -215h-172l208 215h246z" />
    <glyph glyph-name="Thorn" unicode="&#xde;" horiz-adv-x="1179" 
d="M358 1120h207q106 0 189 -11.5t157.5 -41t123 -77t76.5 -123t28 -175.5t-28 -175.5t-76.5 -123t-123 -77t-157.5 -41t-189 -11.5h-207v-264h-194v1360h194v-240zM580 948h-222v-512h222q68 0 116.5 5t97 20.5t79 43t49 74.5t18.5 113t-18.5 113t-49 74.5t-79 43t-97 20.5
t-116.5 5z" />
    <glyph glyph-name="germandbls" unicode="&#xdf;" horiz-adv-x="1204" 
d="M311 0h-174v922q0 225 105 333q124 129 383 129q188 0 309 -87.5t121 -235.5q0 -208 -207 -295q287 -73 287 -365q0 -92 -28.5 -165.5t-76 -121.5t-113.5 -80t-138 -45.5t-152 -13.5q-97 0 -207 21l37 166q80 -25 178 -25q51 0 94.5 7.5t84.5 26t70 47.5t46.5 75
t17.5 106q0 275 -387 275h-6v155h4q154 0 237 53t83 154q0 90 -70.5 143.5t-185.5 53.5q-185 0 -254 -90q-58 -75 -58 -232v-911z" />
    <glyph glyph-name="agrave" unicode="&#xe0;" horiz-adv-x="1054" 
d="M115 700l170 -6q8 87 67.5 137t173.5 50q110 0 171 -46t61 -161v-37l-195 -21q-232 -25 -346 -88q-135 -76 -135 -227q0 -137 93.5 -231.5t260.5 -94.5q237 0 338 166l6 -141h168q-22 242 -20 387l4 254q3 202 -90 291.5t-307 89.5q-175 0 -293 -85.5t-127 -236.5z
M770 434q0 -67 -18 -120.5t-47 -87.5t-69 -57t-81.5 -32.5t-85.5 -9.5q-91 0 -147 45t-56 123q0 82 71.5 123t223.5 55l209 21v-60zM530 1118l-247 242h221l172 -242h-146z" />
    <glyph glyph-name="aacute" unicode="&#xe1;" horiz-adv-x="1054" 
d="M115 700l170 -6q8 87 67.5 137t173.5 50q110 0 171 -46t61 -161v-37l-195 -21q-232 -25 -346 -88q-135 -76 -135 -227q0 -137 93.5 -231.5t260.5 -94.5q237 0 338 166l6 -141h168q-22 242 -20 387l4 254q3 202 -90 291.5t-307 89.5q-175 0 -293 -85.5t-127 -236.5z
M770 434q0 -67 -18 -120.5t-47 -87.5t-69 -57t-81.5 -32.5t-85.5 -9.5q-91 0 -147 45t-56 123q0 82 71.5 123t223.5 55l209 21v-60zM780 1360l-248 -242h-145l172 242h221z" />
    <glyph glyph-name="acircumflex" unicode="&#xe2;" horiz-adv-x="1054" 
d="M115 700l170 -6q8 87 67.5 137t173.5 50q110 0 171 -46t61 -161v-37l-195 -21q-232 -25 -346 -88q-135 -76 -135 -227q0 -137 93.5 -231.5t260.5 -94.5q237 0 338 166l6 -141h168q-22 242 -20 387l4 254q3 202 -90 291.5t-307 89.5q-175 0 -293 -85.5t-127 -236.5z
M770 434q0 -67 -18 -120.5t-47 -87.5t-69 -57t-81.5 -32.5t-85.5 -9.5q-91 0 -147 45t-56 123q0 82 71.5 123t223.5 55l209 21v-60zM612 1360l246 -242h-182l-150 123l-151 -123h-182l251 242h168z" />
    <glyph glyph-name="atilde" unicode="&#xe3;" horiz-adv-x="1054" 
d="M115 700l170 -6q8 87 67.5 137t173.5 50q110 0 171 -46t61 -161v-37l-195 -21q-232 -25 -346 -88q-135 -76 -135 -227q0 -137 93.5 -231.5t260.5 -94.5q237 0 338 166l6 -141h168q-22 242 -20 387l4 254q3 202 -90 291.5t-307 89.5q-175 0 -293 -85.5t-127 -236.5z
M770 434q0 -67 -18 -120.5t-47 -87.5t-69 -57t-81.5 -32.5t-85.5 -9.5q-91 0 -147 45t-56 123q0 82 71.5 123t223.5 55l209 21v-60zM657 1260q37 0 61 22t30 64h135q-19 -112 -79 -164t-142 -52q-49 0 -97 23t-89 45.5t-73 22.5q-37 0 -59 -22t-27 -62h-135q18 107 76 160
t143 53q50 0 95.5 -22.5t85.5 -45t75 -22.5z" />
    <glyph glyph-name="adieresis" unicode="&#xe4;" horiz-adv-x="1054" 
d="M115 700l170 -6q8 87 67.5 137t173.5 50q110 0 171 -46t61 -161v-37l-195 -21q-232 -25 -346 -88q-135 -76 -135 -227q0 -137 93.5 -231.5t260.5 -94.5q237 0 338 166l6 -141h168q-22 242 -20 387l4 254q3 202 -90 291.5t-307 89.5q-175 0 -293 -85.5t-127 -236.5z
M770 434q0 -67 -18 -120.5t-47 -87.5t-69 -57t-81.5 -32.5t-85.5 -9.5q-91 0 -147 45t-56 123q0 82 71.5 123t223.5 55l209 21v-60zM223 1141v188h174v-188h-174zM659 1329h175v-188h-175v188z" />
    <glyph glyph-name="aring" unicode="&#xe5;" horiz-adv-x="1054" 
d="M115 700l170 -6q8 87 67.5 137t173.5 50q110 0 171 -46t61 -161v-37l-195 -21q-232 -25 -346 -88q-135 -76 -135 -227q0 -137 93.5 -231.5t260.5 -94.5q237 0 338 166l6 -141h168q-22 242 -20 387l4 254q3 202 -90 291.5t-307 89.5q-175 0 -293 -85.5t-127 -236.5z
M770 434q0 -67 -18 -120.5t-47 -87.5t-69 -57t-81.5 -32.5t-85.5 -9.5q-91 0 -147 45t-56 123q0 82 71.5 123t223.5 55l209 21v-60zM543 1425q72 0 122 -46t50 -115q0 -70 -49.5 -116t-122.5 -46t-122.5 46t-49.5 116q0 69 50 115t122 46zM543 1346q-33 0 -57.5 -23.5
t-24.5 -58.5q0 -34 24.5 -57t57.5 -23t57.5 23t24.5 57q0 35 -24.5 58.5t-57.5 23.5z" />
    <glyph glyph-name="ae" unicode="&#xe6;" horiz-adv-x="1757" 
d="M287 686l-172 8q7 154 125.5 240t294.5 86q257 0 342 -162q127 162 352 162q154 0 266 -76t164 -206t39 -292h-774q0 -142 83 -229.5t226 -87.5q202 0 270 176l178 -22q-36 -131 -154.5 -219.5t-297.5 -88.5q-268 0 -385 209q-38 -72 -106 -120.5t-142 -68.5t-154 -20
q-172 0 -266 94.5t-94 231.5q0 149 135 225q115 66 346 90l195 21v37q0 115 -61 161t-171 46q-115 0 -174 -52t-65 -143zM469 127q44 0 85.5 9.5t81.5 32.5t69 57t47 87.5t18 120.5v60l-209 -21q-152 -14 -223.5 -55t-71.5 -123q0 -78 56 -123t147 -45zM926 592h587
q-3 111 -78.5 195.5t-203.5 84.5q-134 0 -216 -75t-89 -205z" />
    <glyph glyph-name="ccedilla" unicode="&#xe7;" horiz-adv-x="1038" 
d="M330 -336l30 78q56 -27 111 -27q47 0 81 14.5t34 45.5q0 28 -23 42.5t-59 14.5q-47 0 -74 -16l-57 32l82 134q-182 29 -283.5 169.5t-101.5 348.5q0 149 56.5 265.5t168 185.5t262.5 69q90 0 167.5 -29.5t129.5 -78t84 -106.5t41 -118l-176 -24q-19 94 -88 148t-170 54
q-127 0 -209 -93.5t-82 -270.5q0 -179 83 -276t208 -97q106 0 176 56.5t90 144.5l178 -23q-26 -135 -147 -231.5t-291 -100.5l-41 -67q30 6 57 6q68 0 107 -35t39 -94q0 -71 -63.5 -113.5t-143.5 -42.5q-100 0 -176 35z" />
    <glyph glyph-name="egrave" unicode="&#xe8;" 
d="M555 -25q-120 0 -213.5 40t-152.5 111.5t-89 165.5t-30 206q0 233 136 377.5t351 144.5q154 0 266.5 -76t164.5 -206t40 -292h-774q0 -145 83.5 -231t213.5 -86q115 0 182 45t101 131l178 -22q-38 -133 -157.5 -220.5t-299.5 -87.5zM557 872q-132 0 -213.5 -74.5
t-87.5 -205.5h588q-2 52 -21 101t-53.5 89.5t-90 65t-122.5 24.5zM553 1118l-248 242h221l172 -242h-145z" />
    <glyph glyph-name="eacute" unicode="&#xe9;" 
d="M555 -25q-120 0 -213.5 40t-152.5 111.5t-89 165.5t-30 206q0 233 136 377.5t351 144.5q154 0 266.5 -76t164.5 -206t40 -292h-774q0 -145 83.5 -231t213.5 -86q115 0 182 45t101 131l178 -22q-38 -133 -157.5 -220.5t-299.5 -87.5zM557 872q-132 0 -213.5 -74.5
t-87.5 -205.5h588q-2 52 -21 101t-53.5 89.5t-90 65t-122.5 24.5zM805 1360l-248 -242h-145l172 242h221z" />
    <glyph glyph-name="ecircumflex" unicode="&#xea;" 
d="M555 -25q-120 0 -213.5 40t-152.5 111.5t-89 165.5t-30 206q0 233 136 377.5t351 144.5q154 0 266.5 -76t164.5 -206t40 -292h-774q0 -145 83.5 -231t213.5 -86q115 0 182 45t101 131l178 -22q-38 -133 -157.5 -220.5t-299.5 -87.5zM557 872q-132 0 -213.5 -74.5
t-87.5 -205.5h588q-2 52 -21 101t-53.5 89.5t-90 65t-122.5 24.5zM635 1360l246 -242h-183l-149 123l-152 -123h-182l252 242h168z" />
    <glyph glyph-name="edieresis" unicode="&#xeb;" 
d="M555 -25q-120 0 -213.5 40t-152.5 111.5t-89 165.5t-30 206q0 233 136 377.5t351 144.5q154 0 266.5 -76t164.5 -206t40 -292h-774q0 -145 83.5 -231t213.5 -86q115 0 182 45t101 131l178 -22q-38 -133 -157.5 -220.5t-299.5 -87.5zM557 872q-132 0 -213.5 -74.5
t-87.5 -205.5h588q-2 52 -21 101t-53.5 89.5t-90 65t-122.5 24.5zM244 1141v188h174v-188h-174zM680 1329h174v-188h-174v188z" />
    <glyph glyph-name="igrave" unicode="&#xec;" horiz-adv-x="448" 
d="M137 1004h174v-1004h-174v1004zM158 1118l-248 242h221l172 -242h-145z" />
    <glyph glyph-name="iacute" unicode="&#xed;" horiz-adv-x="448" 
d="M137 1004h174v-1004h-174v1004zM532 1360l-247 -242h-146l172 242h221z" />
    <glyph glyph-name="icircumflex" unicode="&#xee;" horiz-adv-x="448" 
d="M291 1360l225 -262h-192l-99 135l-100 -135h-193l232 262h127zM137 1004h174v-1004h-174v1004z" />
    <glyph glyph-name="idieresis" unicode="&#xef;" horiz-adv-x="448" 
d="M-39 1145v188h174v-188h-174zM315 1145v188h174v-188h-174zM137 1004h174v-1004h-174v1004z" />
    <glyph glyph-name="eth" unicode="&#xf0;" horiz-adv-x="1091" 
d="M612 1303l131 81l88 -49l-143 -88q322 -247 322 -655q0 -304 -129.5 -460.5t-350.5 -156.5q-215 0 -337.5 139.5t-122.5 385.5q0 239 121.5 379.5t316.5 140.5q184 0 293 -148l2 2q-72 167 -254 287l-148 -90l-86 47l150 92q-25 13 -152 76l125 113q88 -43 174 -96z
M532 127q130 0 209.5 93t79.5 280q0 185 -80.5 277.5t-208.5 92.5q-135 0 -206.5 -97.5t-71.5 -272.5q0 -177 71 -275t207 -98z" />
    <glyph glyph-name="ntilde" unicode="&#xf1;" horiz-adv-x="1099" 
d="M311 1004v-140q101 156 330 156q199 0 283 -137q55 -89 55 -267v-616h-174v569q0 149 -37 213q-52 86 -186 86q-128 0 -199.5 -85.5t-71.5 -247.5v-535h-174v1004h174zM702 1260q37 0 61 22t30 64h135q-19 -112 -79 -164t-142 -52q-49 0 -96.5 23t-88.5 45.5t-73 22.5
q-37 0 -59.5 -22t-27.5 -62h-135q18 107 76 160t143 53q50 0 95.5 -22.5t85.5 -45t75 -22.5z" />
    <glyph glyph-name="ograve" unicode="&#xf2;" horiz-adv-x="1085" 
d="M254 498q0 -188 79 -279.5t210 -91.5t209.5 91.5t78.5 279.5t-78.5 279t-209.5 91t-210 -91.5t-79 -278.5zM70 498q0 130 39 232.5t105.5 164.5t150 93.5t178.5 31.5t178.5 -31.5t150 -93.5t105.5 -164.5t39 -232.5t-39 -232.5t-105.5 -164.5t-150 -94t-178.5 -32
t-178.5 32t-150 94t-105.5 164.5t-39 232.5zM573 1118l-247 242h221l172 -242h-146z" />
    <glyph glyph-name="oacute" unicode="&#xf3;" horiz-adv-x="1085" 
d="M254 498q0 -188 79 -279.5t210 -91.5t209.5 91.5t78.5 279.5t-78.5 279t-209.5 91t-210 -91.5t-79 -278.5zM70 498q0 130 39 232.5t105.5 164.5t150 93.5t178.5 31.5t178.5 -31.5t150 -93.5t105.5 -164.5t39 -232.5t-39 -232.5t-105.5 -164.5t-150 -94t-178.5 -32
t-178.5 32t-150 94t-105.5 164.5t-39 232.5zM829 1360l-247 -242h-146l172 242h221z" />
    <glyph glyph-name="ocircumflex" unicode="&#xf4;" horiz-adv-x="1085" 
d="M254 498q0 -188 79 -279.5t210 -91.5t209.5 91.5t78.5 279.5t-78.5 279t-209.5 91t-210 -91.5t-79 -278.5zM70 498q0 130 39 232.5t105.5 164.5t150 93.5t178.5 31.5t178.5 -31.5t150 -93.5t105.5 -164.5t39 -232.5t-39 -232.5t-105.5 -164.5t-150 -94t-178.5 -32
t-178.5 32t-150 94t-105.5 164.5t-39 232.5zM629 1360l245 -242h-182l-149 123l-152 -123h-182l252 242h168z" />
    <glyph glyph-name="otilde" unicode="&#xf5;" horiz-adv-x="1085" 
d="M254 498q0 -188 79 -279.5t210 -91.5t209.5 91.5t78.5 279.5t-78.5 279t-209.5 91t-210 -91.5t-79 -278.5zM70 498q0 130 39 232.5t105.5 164.5t150 93.5t178.5 31.5t178.5 -31.5t150 -93.5t105.5 -164.5t39 -232.5t-39 -232.5t-105.5 -164.5t-150 -94t-178.5 -32
t-178.5 32t-150 94t-105.5 164.5t-39 232.5zM678 1260q78 0 90 86h135q-19 -112 -79 -164t-142 -52q-49 0 -96.5 23t-88.5 45.5t-73 22.5q-37 0 -59 -22t-27 -62h-135q18 107 76 160t143 53q50 0 95.5 -22.5t85.5 -45t75 -22.5z" />
    <glyph glyph-name="odieresis" unicode="&#xf6;" horiz-adv-x="1085" 
d="M254 498q0 -188 79 -279.5t210 -91.5t209.5 91.5t78.5 279.5t-78.5 279t-209.5 91t-210 -91.5t-79 -278.5zM70 498q0 130 39 232.5t105.5 164.5t150 93.5t178.5 31.5t178.5 -31.5t150 -93.5t105.5 -164.5t39 -232.5t-39 -232.5t-105.5 -164.5t-150 -94t-178.5 -32
t-178.5 32t-150 94t-105.5 164.5t-39 232.5zM238 1141v188h174v-188h-174zM674 1329h174v-188h-174v188z" />
    <glyph glyph-name="divide" unicode="&#xf7;" horiz-adv-x="1136" 
d="M463 61v220h219v-220h-219zM463 723v219h219v-219h-219zM72 410h993v163h-993v-163z" />
    <glyph glyph-name="oslash" unicode="&#xf8;" horiz-adv-x="1089" 
d="M70 498q0 130 40 232.5t107.5 164.5t151 93.5t176.5 31.5q176 0 301 -102l90 104l78 -66l-99 -112q105 -140 105 -346q0 -130 -40 -232.5t-107.5 -164.5t-151 -94t-176.5 -32q-177 0 -299 99l-86 -99l-76 68l90 104q-104 139 -104 351zM254 498q0 -129 39 -215l446 514
q-74 71 -194 71q-133 0 -212 -91t-79 -279zM836 498q0 133 -37 211l-447 -512q70 -70 193 -70q133 0 212 91.5t79 279.5z" />
    <glyph glyph-name="ugrave" unicode="&#xf9;" 
d="M776 0v143q-97 -166 -315 -166q-176 0 -262 117q-70 94 -70 287v623h174v-568q0 -148 33 -213q46 -94 188 -94q119 0 185.5 85.5t66.5 242.5v547h174v-1004h-174zM551 1118l-248 242h221l172 -242h-145z" />
    <glyph glyph-name="uacute" unicode="&#xfa;" 
d="M776 0v143q-97 -166 -315 -166q-176 0 -262 117q-70 94 -70 287v623h174v-568q0 -148 33 -213q46 -94 188 -94q119 0 185.5 85.5t66.5 242.5v547h174v-1004h-174zM807 1360l-248 -242h-145l172 242h221z" />
    <glyph glyph-name="ucircumflex" unicode="&#xfb;" 
d="M776 0v143q-97 -166 -315 -166q-176 0 -262 117q-70 94 -70 287v623h174v-568q0 -148 33 -213q46 -94 188 -94q119 0 185.5 85.5t66.5 242.5v547h174v-1004h-174zM641 1360l246 -242h-182l-150 123l-152 -123h-182l252 242h168z" />
    <glyph glyph-name="udieresis" unicode="&#xfc;" 
d="M776 0v143q-97 -166 -315 -166q-176 0 -262 117q-70 94 -70 287v623h174v-568q0 -148 33 -213q46 -94 188 -94q119 0 185.5 85.5t66.5 242.5v547h174v-1004h-174zM250 1141v188h174v-188h-174zM686 1329h174v-188h-174v188z" />
    <glyph glyph-name="yacute" unicode="&#xfd;" horiz-adv-x="901" 
d="M90 -354h90q67 0 117.5 13.5t85 36t63.5 64.5t48 85t43 112l364 1047h-180l-254 -771l-260 771h-193l369 -1004l-6 -20q-15 -51 -31.5 -84.5t-33 -53.5t-41.5 -29.5t-48 -12.5t-61 -3h-72v-151zM745 1360l-247 -242h-146l172 242h221z" />
    <glyph glyph-name="thorn" unicode="&#xfe;" horiz-adv-x="1124" 
d="M137 -354v1714h174v-502q106 162 326 162q185 0 301.5 -141t116.5 -383q0 -239 -122 -380t-317 -141q-105 0 -183.5 40t-121.5 108v-477h-174zM592 868q-125 0 -207 -94t-82 -278q0 -185 80.5 -277t208.5 -92q135 0 206.5 97t71.5 272q0 177 -71 274.5t-207 97.5z" />
    <glyph glyph-name="ydieresis" unicode="&#xff;" horiz-adv-x="901" 
d="M90 -354h90q67 0 117.5 13.5t85 36t63.5 64.5t48 85t43 112l364 1047h-180l-254 -771l-260 771h-193l369 -1004l-6 -20q-15 -51 -31.5 -84.5t-33 -53.5t-41.5 -29.5t-48 -12.5t-61 -3h-72v-151zM166 1141v188h174v-188h-174zM602 1329h174v-188h-174v188z" />
    <glyph glyph-name="Amacron" unicode="&#x100;" horiz-adv-x="1255" 
d="M0 0l512 1360h225l518 -1360h-213l-108 295h-627l-104 -295h-203zM618 1159l-249 -694h503zM903 1464h-571v144h571v-144z" />
    <glyph glyph-name="amacron" unicode="&#x101;" horiz-adv-x="1054" 
d="M115 700l170 -6q8 87 67.5 137t173.5 50q110 0 171 -46t61 -161v-37l-195 -21q-232 -25 -346 -88q-135 -76 -135 -227q0 -137 93.5 -231.5t260.5 -94.5q237 0 338 166l6 -141h168q-22 242 -20 387l4 254q3 202 -90 291.5t-307 89.5q-175 0 -293 -85.5t-127 -236.5z
M770 434q0 -67 -18 -120.5t-47 -87.5t-69 -57t-81.5 -32.5t-85.5 -9.5q-91 0 -147 45t-56 123q0 82 71.5 123t223.5 55l209 21v-60zM819 1167h-571v144h571v-144z" />
    <glyph glyph-name="Abreve" unicode="&#x102;" horiz-adv-x="1255" 
d="M0 0l512 1360h225l518 -1360h-213l-108 295h-627l-104 -295h-203zM618 1159l-249 -694h503zM780 1645h148q-13 -104 -88 -165t-215 -61q-135 0 -209.5 61.5t-87.5 164.5h147q15 -111 152 -111q134 0 153 111z" />
    <glyph glyph-name="abreve" unicode="&#x103;" horiz-adv-x="1054" 
d="M115 700l170 -6q8 87 67.5 137t173.5 50q110 0 171 -46t61 -161v-37l-195 -21q-232 -25 -346 -88q-135 -76 -135 -227q0 -137 93.5 -231.5t260.5 -94.5q237 0 338 166l6 -141h168q-22 242 -20 387l4 254q3 202 -90 291.5t-307 89.5q-175 0 -293 -85.5t-127 -236.5z
M770 434q0 -67 -18 -120.5t-47 -87.5t-69 -57t-81.5 -32.5t-85.5 -9.5q-91 0 -147 45t-56 123q0 82 71.5 123t223.5 55l209 21v-60zM825 1360q-26 -252 -305 -252q-76 0 -133.5 20t-91.5 56t-51.5 79.5t-22.5 96.5h135q13 -137 166 -137q155 0 168 137h135z" />
    <glyph glyph-name="Aogonek" unicode="&#x104;" horiz-adv-x="1255" 
d="M0 0l512 1360h225l518 -1360q-176 -86 -176 -162q0 -41 36 -61.5t89 -20.5q52 0 94 17v-115q-54 -23 -131 -23q-61 0 -114.5 17.5t-92 59.5t-38.5 102q0 114 120 186l-108 295h-627l-104 -295h-203zM618 1159l-249 -694h503z" />
    <glyph glyph-name="aogonek" unicode="&#x105;" horiz-adv-x="1054" 
d="M770 434v60l-209 -21q-152 -14 -223.5 -55t-71.5 -123q0 -78 56 -123t147 -45q44 0 85.5 9.5t81.5 32.5t69 57t47 87.5t18 120.5zM285 694l-170 6q9 151 127 236.5t293 85.5q214 0 307 -89.5t90 -291.5l-4 -254q-2 -145 20 -387q-77 -38 -122.5 -79.5t-45.5 -82.5
t36 -61.5t89 -20.5q51 0 94 17v-115q-54 -23 -131 -23q-61 0 -114.5 17.5t-92 59.5t-38.5 102q0 108 157 186l-6 141q-101 -166 -338 -166q-167 0 -260.5 94.5t-93.5 231.5q0 151 135 227q114 63 346 88l195 21v37q0 115 -61 161t-171 46q-114 0 -173.5 -50t-67.5 -137z" />
    <glyph glyph-name="Cacute" unicode="&#x106;" horiz-adv-x="1372" 
d="M1122 420l189 -27q-45 -197 -203 -307.5t-385 -110.5q-293 0 -460 193.5t-167 513.5q0 321 174.5 511.5t466.5 190.5q216 0 369 -112t197 -305l-189 -27q-32 126 -129.5 201.5t-255.5 75.5q-191 0 -312.5 -140t-121.5 -395q0 -252 121 -395.5t317 -143.5q159 0 257.5 74
t131.5 203zM1020 1645l-283 -215h-172l209 215h246z" />
    <glyph glyph-name="cacute" unicode="&#x107;" horiz-adv-x="1038" 
d="M557 1020q90 0 167.5 -29.5t129.5 -78t84 -106.5t41 -118l-176 -24q-19 94 -88 148t-170 54q-127 0 -209 -93.5t-82 -270.5q0 -179 83 -276t208 -97q106 0 176 56.5t90 144.5l178 -23q-26 -138 -150 -235t-298 -97q-219 0 -345 146.5t-126 378.5q0 149 56.5 265.5
t168 185.5t262.5 69zM817 1360l-248 -242h-145l172 242h221z" />
    <glyph glyph-name="Ccircumflex" unicode="&#x108;" horiz-adv-x="1372" 
d="M1122 420l189 -27q-45 -197 -203 -307.5t-385 -110.5q-293 0 -460 193.5t-167 513.5q0 321 174.5 511.5t466.5 190.5q216 0 369 -112t197 -305l-189 -27q-32 126 -129.5 201.5t-255.5 75.5q-191 0 -312.5 -140t-121.5 -395q0 -252 121 -395.5t317 -143.5q159 0 257.5 74
t131.5 203zM809 1645l250 -215h-203l-129 106l-131 -106h-203l256 215h160z" />
    <glyph glyph-name="ccircumflex" unicode="&#x109;" horiz-adv-x="1038" 
d="M557 1020q90 0 167.5 -29.5t129.5 -78t84 -106.5t41 -118l-176 -24q-19 94 -88 148t-170 54q-127 0 -209 -93.5t-82 -270.5q0 -179 83 -276t208 -97q106 0 176 56.5t90 144.5l178 -23q-26 -138 -150 -235t-298 -97q-219 0 -345 146.5t-126 378.5q0 149 56.5 265.5
t168 185.5t262.5 69zM639 1360l246 -242h-183l-149 123l-152 -123h-182l252 242h168z" />
    <glyph glyph-name="Cdotaccent" unicode="&#x10a;" horiz-adv-x="1372" 
d="M1122 420l189 -27q-45 -197 -203 -307.5t-385 -110.5q-293 0 -460 193.5t-167 513.5q0 321 174.5 511.5t466.5 190.5q216 0 369 -112t197 -305l-189 -27q-32 126 -129.5 201.5t-255.5 75.5q-191 0 -312.5 -140t-121.5 -395q0 -252 121 -395.5t317 -143.5q159 0 257.5 74
t131.5 203zM637 1634h174v-188h-174v188z" />
    <glyph glyph-name="cdotaccent" unicode="&#x10b;" horiz-adv-x="1038" 
d="M557 1020q90 0 167.5 -29.5t129.5 -78t84 -106.5t41 -118l-176 -24q-19 94 -88 148t-170 54q-127 0 -209 -93.5t-82 -270.5q0 -179 83 -276t208 -97q106 0 176 56.5t90 144.5l178 -23q-26 -138 -150 -235t-298 -97q-219 0 -345 146.5t-126 378.5q0 149 56.5 265.5
t168 185.5t262.5 69zM444 1333h174v-188h-174v188z" />
    <glyph glyph-name="Ccaron" unicode="&#x10c;" horiz-adv-x="1372" 
d="M635 1430l-250 215h203l129 -107l131 107h203l-256 -215h-160zM1122 420l189 -27q-45 -197 -203 -307.5t-385 -110.5q-293 0 -460 193.5t-167 513.5q0 321 174.5 511.5t466.5 190.5q216 0 369 -112t197 -305l-189 -27q-32 126 -129.5 201.5t-255.5 75.5
q-191 0 -312.5 -140t-121.5 -395q0 -252 121 -395.5t317 -143.5q159 0 257.5 74t131.5 203z" />
    <glyph glyph-name="ccaron" unicode="&#x10d;" horiz-adv-x="1038" 
d="M557 1020q90 0 167.5 -29.5t129.5 -78t84 -106.5t41 -118l-176 -24q-19 94 -88 148t-170 54q-127 0 -209 -93.5t-82 -270.5q0 -179 83 -276t208 -97q106 0 176 56.5t90 144.5l178 -23q-26 -138 -150 -235t-298 -97q-219 0 -345 146.5t-126 378.5q0 149 56.5 265.5
t168 185.5t262.5 69zM457 1118l-246 242h182l150 -123l151 123h183l-252 -242h-168z" />
    <glyph glyph-name="Dcaron" unicode="&#x10e;" horiz-adv-x="1368" 
d="M1073 680q0 98 -19 175.5t-49 130.5t-78.5 91t-96.5 59t-113.5 33t-119 15.5t-124.5 3.5h-115v-1016h115q71 0 124.5 3.5t119 15.5t113.5 33t96.5 59t78.5 91t49 130.5t19 175.5zM164 1360h315q793 0 793 -680t-793 -680h-315v1360zM485 1430l-249 215h202l129 -107
l131 107h203l-256 -215h-160z" />
    <glyph glyph-name="dcaron" unicode="&#x10f;" horiz-adv-x="1193" 
d="M1288 1360l-133 -324h-111l58 324h186zM987 0v1360h-174v-488q-43 68 -121.5 108t-183.5 40q-195 0 -316.5 -140.5t-121.5 -379.5q0 -242 116 -383.5t301 -141.5q220 0 326 162l6 -137h168zM532 127q-136 0 -207 98t-71 275q0 175 71.5 271.5t206.5 96.5q129 0 209 -91.5
t80 -276.5q0 -94 -23 -167.5t-64 -117.5t-92 -66t-110 -22z" />
    <glyph glyph-name="Dcroat" unicode="&#x110;" horiz-adv-x="1394" 
d="M41 786h156v574h315q137 0 250.5 -20t215 -68.5t170.5 -124.5t109.5 -194.5t40.5 -272.5t-40.5 -272.5t-109.5 -194.5t-170.5 -124.5t-215 -68.5t-250.5 -20h-315v614h-156v172zM1100 680q0 98 -18.5 175.5t-48.5 130.5t-77.5 91t-94.5 59t-112.5 33t-118.5 15.5
t-124 3.5h-115v-402h268v-172h-268v-442h115q71 0 124 3.5t118.5 15.5t112.5 33t94.5 59t77.5 91t48.5 130.5t18.5 175.5z" />
    <glyph glyph-name="dcroat" unicode="&#x111;" horiz-adv-x="1124" 
d="M987 1081v-1081h-168l-6 137q-106 -162 -326 -162q-185 0 -301 141.5t-116 383.5q0 239 121.5 379.5t316.5 140.5q105 0 183.5 -40t121.5 -108v209h-215v144h215v135h174v-135h160v-144h-160zM532 127q59 0 110 22t92 66t64 117.5t23 167.5q0 185 -80 276.5t-209 91.5
q-135 0 -206.5 -96.5t-71.5 -271.5q0 -177 71 -275t207 -98z" />
    <glyph glyph-name="Emacron" unicode="&#x112;" horiz-adv-x="1167" 
d="M164 0v1360h936v-172h-742v-402h699v-172h-699v-442h742v-172h-936zM922 1464h-572v144h572v-144z" />
    <glyph glyph-name="emacron" unicode="&#x113;" 
d="M555 -25q-120 0 -213.5 40t-152.5 111.5t-89 165.5t-30 206q0 233 136 377.5t351 144.5q154 0 266.5 -76t164.5 -206t40 -292h-774q0 -145 83.5 -231t213.5 -86q115 0 182 45t101 131l178 -22q-38 -133 -157.5 -220.5t-299.5 -87.5zM557 872q-132 0 -213.5 -74.5
t-87.5 -205.5h588q-2 52 -21 101t-53.5 89.5t-90 65t-122.5 24.5zM838 1167h-572v144h572v-144z" />
    <glyph glyph-name="Ebreve" unicode="&#x114;" horiz-adv-x="1167" 
d="M164 0v1360h936v-172h-742v-402h699v-172h-699v-442h742v-172h-936zM778 1645h148q-13 -104 -88 -165t-215 -61q-135 0 -209.5 61.5t-87.5 164.5h147q15 -111 152 -111q134 0 153 111z" />
    <glyph glyph-name="ebreve" unicode="&#x115;" 
d="M555 -25q-120 0 -213.5 40t-152.5 111.5t-89 165.5t-30 206q0 233 136 377.5t351 144.5q154 0 266.5 -76t164.5 -206t40 -292h-774q0 -145 83.5 -231t213.5 -86q115 0 182 45t101 131l178 -22q-38 -133 -157.5 -220.5t-299.5 -87.5zM557 872q-132 0 -213.5 -74.5
t-87.5 -205.5h588q-2 52 -21 101t-53.5 89.5t-90 65t-122.5 24.5zM846 1360q-26 -252 -305 -252q-76 0 -133.5 20t-91.5 56t-51.5 79.5t-22.5 96.5h135q13 -137 166 -137q155 0 168 137h135z" />
    <glyph glyph-name="Edotaccent" unicode="&#x116;" horiz-adv-x="1167" 
d="M164 0v1360h936v-172h-742v-402h699v-172h-699v-442h742v-172h-936zM535 1634h174v-188h-174v188z" />
    <glyph glyph-name="edotaccent" unicode="&#x117;" 
d="M555 -25q-120 0 -213.5 40t-152.5 111.5t-89 165.5t-30 206q0 233 136 377.5t351 144.5q154 0 266.5 -76t164.5 -206t40 -292h-774q0 -145 83.5 -231t213.5 -86q115 0 182 45t101 131l178 -22q-38 -133 -157.5 -220.5t-299.5 -87.5zM557 872q-132 0 -213.5 -74.5
t-87.5 -205.5h588q-2 52 -21 101t-53.5 89.5t-90 65t-122.5 24.5zM463 1333h174v-188h-174v188z" />
    <glyph glyph-name="Eogonek" unicode="&#x118;" horiz-adv-x="1167" 
d="M164 0v1360h936v-172h-742v-402h699v-172h-699v-442h742v-172h-10q-77 -38 -122.5 -79.5t-45.5 -82.5t36 -61.5t89 -20.5q51 0 94 17v-115q-54 -23 -131 -23q-61 0 -114.5 17.5t-92.5 59.5t-39 102q0 110 151 186h-751z" />
    <glyph glyph-name="eogonek" unicode="&#x119;" 
d="M1012 283q-58 -197 -273 -283q-75 -31 -126.5 -76t-51.5 -86t36 -61.5t89 -20.5q52 0 94 17v-115q-54 -23 -131 -23q-61 0 -114.5 17.5t-92.5 59.5t-39 102q0 94 109 163q-109 7 -194.5 49.5t-139 112.5t-81 161t-27.5 198q0 233 136 377.5t351 144.5q154 0 266.5 -76
t164.5 -206t40 -292h-774q0 -145 83.5 -231t213.5 -86q212 0 283 176zM557 872q-132 0 -213.5 -74.5t-87.5 -205.5h588q-2 52 -21 101t-53.5 89.5t-90 65t-122.5 24.5z" />
    <glyph glyph-name="Ecaron" unicode="&#x11a;" horiz-adv-x="1167" 
d="M164 0v1360h936v-172h-742v-402h699v-172h-699v-442h742v-172h-936zM557 1430l-250 215h203l129 -107l131 107h203l-256 -215h-160z" />
    <glyph glyph-name="ecaron" unicode="&#x11b;" 
d="M555 -25q-120 0 -213.5 40t-152.5 111.5t-89 165.5t-30 206q0 233 136 377.5t351 144.5q154 0 266.5 -76t164.5 -206t40 -292h-774q0 -145 83.5 -231t213.5 -86q115 0 182 45t101 131l178 -22q-38 -133 -157.5 -220.5t-299.5 -87.5zM557 872q-132 0 -213.5 -74.5
t-87.5 -205.5h588q-2 52 -21 101t-53.5 89.5t-90 65t-122.5 24.5zM461 1118l-246 242h182l150 -123l151 123h183l-252 -242h-168z" />
    <glyph glyph-name="Gcircumflex" unicode="&#x11c;" horiz-adv-x="1466" 
d="M737 1384q216 0 370.5 -111.5t201.5 -303.5l-189 -27q-36 123 -135.5 199t-255.5 76q-191 0 -312.5 -140t-121.5 -395q0 -252 119 -395.5t315 -143.5q59 0 113 9.5t109 34.5t94.5 64t64.5 103t25 146v32h-365v173h549v-705h-154l-8 174q-127 -199 -436 -199
q-293 0 -459 193.5t-166 513.5t175 511t466 191zM817 1645l250 -215h-203l-129 106l-131 -106h-203l256 215h160z" />
    <glyph glyph-name="gcircumflex" unicode="&#x11d;" horiz-adv-x="1116" 
d="M805 178v-90q0 -98 -13.5 -146t-43.5 -81q-70 -76 -209 -76q-111 0 -165 42t-75 120l-184 -6q25 -149 135.5 -228.5t286.5 -79.5q113 0 205 35.5t149 100.5q46 50 67 129.5t21 228.5v877h-170l-4 -132q-95 148 -297 148q-196 0 -317 -134t-121 -366q0 -235 115.5 -369.5
t301.5 -134.5q118 0 192 41.5t126 120.5zM532 168q-137 0 -207.5 91t-70.5 261q0 168 71 258t207 90q129 0 205 -84t76 -264q0 -179 -78 -265.5t-203 -86.5zM641 1360l246 -242h-182l-150 123l-152 -123h-182l252 242h168z" />
    <glyph glyph-name="Gbreve" unicode="&#x11e;" horiz-adv-x="1466" 
d="M737 1384q216 0 370.5 -111.5t201.5 -303.5l-189 -27q-36 123 -135.5 199t-255.5 76q-191 0 -312.5 -140t-121.5 -395q0 -252 119 -395.5t315 -143.5q59 0 113 9.5t109 34.5t94.5 64t64.5 103t25 146v32h-365v173h549v-705h-154l-8 174q-127 -199 -436 -199
q-293 0 -459 193.5t-166 513.5t175 511t466 191zM885 1645h147q-13 -104 -88 -165t-215 -61q-135 0 -209.5 61.5t-87.5 164.5h148q15 -111 151 -111q135 0 154 111z" />
    <glyph glyph-name="gbreve" unicode="&#x11f;" horiz-adv-x="1116" 
d="M805 178v-90q0 -98 -13.5 -146t-43.5 -81q-70 -76 -209 -76q-111 0 -165 42t-75 120l-184 -6q25 -149 135.5 -228.5t286.5 -79.5q113 0 205 35.5t149 100.5q46 50 67 129.5t21 228.5v877h-170l-4 -132q-95 148 -297 148q-196 0 -317 -134t-121 -366q0 -235 115.5 -369.5
t301.5 -134.5q118 0 192 41.5t126 120.5zM532 168q-137 0 -207.5 91t-70.5 261q0 168 71 258t207 90q129 0 205 -84t76 -264q0 -179 -78 -265.5t-203 -86.5zM854 1360q-26 -252 -305 -252q-76 0 -133.5 20t-91.5 56t-51.5 79.5t-22.5 96.5h135q13 -137 166 -137
q155 0 168 137h135z" />
    <glyph glyph-name="Gdotaccent" unicode="&#x120;" horiz-adv-x="1466" 
d="M737 1384q216 0 370.5 -111.5t201.5 -303.5l-189 -27q-36 123 -135.5 199t-255.5 76q-191 0 -312.5 -140t-121.5 -395q0 -252 119 -395.5t315 -143.5q59 0 113 9.5t109 34.5t94.5 64t64.5 103t25 146v32h-365v173h549v-705h-154l-8 174q-127 -199 -436 -199
q-293 0 -459 193.5t-166 513.5t175 511t466 191zM629 1634h174v-188h-174v188z" />
    <glyph glyph-name="gdotaccent" unicode="&#x121;" horiz-adv-x="1116" 
d="M805 178v-90q0 -98 -13.5 -146t-43.5 -81q-70 -76 -209 -76q-111 0 -165 42t-75 120l-184 -6q25 -149 135.5 -228.5t286.5 -79.5q113 0 205 35.5t149 100.5q46 50 67 129.5t21 228.5v877h-170l-4 -132q-95 148 -297 148q-196 0 -317 -134t-121 -366q0 -235 115.5 -369.5
t301.5 -134.5q118 0 192 41.5t126 120.5zM532 168q-137 0 -207.5 91t-70.5 261q0 168 71 258t207 90q129 0 205 -84t76 -264q0 -179 -78 -265.5t-203 -86.5zM459 1333h174v-188h-174v188z" />
    <glyph glyph-name="Gcommaaccent" unicode="&#x122;" horiz-adv-x="1466" 
d="M737 1384q216 0 370.5 -111.5t201.5 -303.5l-189 -27q-36 123 -135.5 199t-255.5 76q-191 0 -312.5 -140t-121.5 -395q0 -252 119 -395.5t315 -143.5q59 0 113 9.5t109 34.5t94.5 64t64.5 103t25 146v32h-365v173h549v-705h-154l-8 174q-127 -199 -436 -199
q-293 0 -459 193.5t-166 513.5t175 511t466 191zM641 -238v170h180v-182l-84 -170h-102l74 182h-68z" />
    <glyph glyph-name="gcommaaccent" unicode="&#x123;" horiz-adv-x="1116" 
d="M621 1255v-170h-181v183l84 170h103l-74 -183h68zM805 178v-90q0 -98 -13.5 -146t-43.5 -81q-70 -76 -209 -76q-111 0 -165 42t-75 120l-184 -6q25 -149 135.5 -228.5t286.5 -79.5q113 0 205 35.5t149 100.5q46 50 67 129.5t21 228.5v877h-170l-4 -132q-95 148 -297 148
q-196 0 -317 -134t-121 -366q0 -235 115.5 -369.5t301.5 -134.5q118 0 192 41.5t126 120.5zM532 168q-137 0 -207.5 91t-70.5 261q0 168 71 258t207 90q129 0 205 -84t76 -264q0 -179 -78 -265.5t-203 -86.5z" />
    <glyph glyph-name="Hcircumflex" unicode="&#x124;" horiz-adv-x="1441" 
d="M1083 1360h195v-1360h-195v614h-725v-614h-194v1360h194v-574h725v574zM805 1645l250 -215h-203l-129 106l-131 -106h-203l256 215h160z" />
    <glyph glyph-name="hcircumflex" unicode="&#x125;" horiz-adv-x="1099" 
d="M711 1360l225 -262h-172l-119 135l-121 -135h-172l232 262h127zM311 1360v-496q101 156 330 156q199 0 283 -137q55 -89 55 -267v-616h-174v569q0 149 -37 213q-52 86 -186 86q-128 0 -199.5 -85.5t-71.5 -247.5v-535h-174v1360h174z" />
    <glyph glyph-name="Hbar" unicode="&#x126;" horiz-adv-x="1441" 
d="M1083 1360h195v-1360h-195v614h-725v-614h-194v1360h194v-219h725v219zM358 786h725v183h-725v-183z" />
    <glyph glyph-name="hbar" unicode="&#x127;" horiz-adv-x="1099" 
d="M311 1360v-135h238v-144h-238v-217q101 156 330 156q199 0 283 -137q55 -89 55 -267v-616h-174v569q0 149 -37 213q-52 86 -186 86q-128 0 -199.5 -85.5t-71.5 -247.5v-535h-174v1081h-160v144h160v135h174z" />
    <glyph glyph-name="Itilde" unicode="&#x128;" horiz-adv-x="522" 
d="M86 1434h-113q3 117 51 168t111 51q38 0 82.5 -24t84.5 -48.5t67 -24.5q32 0 46.5 19t20.5 67h111q-11 -111 -53.5 -165t-100.5 -54q-31 0 -67 15.5t-63 34t-58 34t-53 15.5q-33 0 -48 -18.5t-18 -69.5zM358 1360v-1360h-194v1360h194z" />
    <glyph glyph-name="itilde" unicode="&#x129;" horiz-adv-x="448" 
d="M336 1264q39 0 66 20.5t34 56.5h139q-9 -57 -31 -99.5t-46.5 -64.5t-55.5 -35.5t-52.5 -16.5t-43.5 -3q-45 0 -88.5 19.5t-80 39t-64.5 19.5q-38 0 -65 -20.5t-34 -57.5h-139q9 57 31 99.5t46.5 64.5t55.5 35.5t52.5 16.5t43.5 3q56 0 126 -38.5t106 -38.5zM137 1004h174
v-1004h-174v1004z" />
    <glyph glyph-name="Imacron" unicode="&#x12a;" horiz-adv-x="522" 
d="M461 1464h-400v144h400v-144zM358 1360v-1360h-194v1360h194z" />
    <glyph glyph-name="imacron" unicode="&#x12b;" horiz-adv-x="448" 
d="M463 1155h-475v143h475v-143zM137 1004h174v-1004h-174v1004z" />
    <glyph glyph-name="Ibreve" unicode="&#x12c;" horiz-adv-x="522" 
d="M264 1419q-108 0 -176 62.5t-80 163.5h148q8 -56 33.5 -83.5t76.5 -27.5t77.5 28t35.5 83h147q-12 -102 -81 -164t-181 -62zM358 1360v-1360h-194v1360h194z" />
    <glyph glyph-name="ibreve" unicode="&#x12d;" horiz-adv-x="448" 
d="M508 1360q-25 -277 -285 -277q-135 0 -201.5 75t-76.5 202h135q13 -162 145 -162q67 0 104.5 42t43.5 120h135zM137 1004h174v-1004h-174v1004z" />
    <glyph glyph-name="Iogonek" unicode="&#x12e;" horiz-adv-x="522" 
d="M164 0v1360h194v-1360q-77 -38 -122.5 -79.5t-45.5 -82.5t36 -61.5t89 -20.5t95 17v-115q-54 -23 -131 -23q-61 0 -114.5 17.5t-92.5 59.5t-39 102q0 118 131 186z" />
    <glyph glyph-name="iogonek" unicode="&#x12f;" horiz-adv-x="448" 
d="M137 1360h174v-209h-174v209zM137 0v1004h174v-1004q-77 -38 -122.5 -79.5t-45.5 -82.5t36 -61.5t89 -20.5q52 0 94 17v-115q-54 -23 -131 -23q-61 0 -114.5 17.5t-92 59.5t-38.5 102q0 110 151 186z" />
    <glyph glyph-name="Idotaccent" unicode="&#x130;" horiz-adv-x="522" 
d="M164 1634h194v-188h-194v188zM358 1360v-1360h-194v1360h194z" />
    <glyph glyph-name="dotlessi" unicode="&#x131;" horiz-adv-x="448" 
d="M137 1004h174v-1004h-174v1004z" />
    <glyph glyph-name="IJ" unicode="&#x132;" horiz-adv-x="1144" 
d="M358 1360v-1360h-194v1360h194zM584 0v174h30q44 0 70.5 1.5t47.5 10t30.5 17t15.5 32t7 45.5t1 66v1014h195v-1030q0 -73 -7.5 -126t-26 -89.5t-42 -59t-63 -35t-81.5 -16.5t-104 -4h-73z" />
    <glyph glyph-name="ij" unicode="&#x133;" horiz-adv-x="897" 
d="M137 1004h174v-1004h-174v1004zM137 1360h174v-209h-174v209zM586 -74v1078h174v-1076q0 -163 -48.5 -222.5t-193.5 -59.5h-88v147h49q67 0 87 26t20 107zM586 1360h174v-209h-174v209z" />
    <glyph glyph-name="Jcircumflex" unicode="&#x134;" horiz-adv-x="622" 
d="M442 1645l209 -215h-182l-109 106l-110 -106h-182l215 215h159zM61 0v174h31q44 0 70.5 1.5t47.5 10t30.5 17t15.5 32t7 45.5t1 66v1014h195v-1030q0 -73 -7.5 -126t-26 -89.5t-42 -59t-63 -35t-81.5 -16.5t-104 -4h-74z" />
    <glyph glyph-name="jcircumflex" unicode="&#x135;" horiz-adv-x="448" 
d="M137 -74v1078h174v-1076q0 -163 -48 -222.5t-193 -59.5h-88v147h49q66 0 86 26t20 107zM285 1360l225 -262h-172l-119 135l-121 -135h-172l232 262h127z" />
    <glyph glyph-name="Kcommaaccent" unicode="&#x136;" horiz-adv-x="1267" 
d="M358 1360v-676l623 676h242l-514 -549l573 -811h-233l-471 670l-220 -236v-434h-194v1360h194zM578 -238v170h180v-182l-84 -170h-103l74 182h-67z" />
    <glyph glyph-name="kcommaaccent" unicode="&#x137;" horiz-adv-x="960" 
d="M137 1360h174v-780l412 424h213l-361 -371l394 -633h-203l-309 510l-146 -150v-360h-174v1360zM420 -238v170h180v-182l-84 -170h-102l73 182h-67z" />
    <glyph glyph-name="kgreenlandic" unicode="&#x138;" horiz-adv-x="962" 
d="M137 1004h174v-443l416 443h197l-383 -404l430 -600h-213l-340 471l-107 -113v-358h-174v1004z" />
    <glyph glyph-name="Lacute" unicode="&#x139;" 
d="M358 1360v-1188h729v-172h-923v1360h194zM621 1645l-283 -215h-172l209 215h246z" />
    <glyph glyph-name="lacute" unicode="&#x13a;" horiz-adv-x="448" 
d="M311 1360v-1360h-174v1360h174zM598 1645l-283 -215h-172l209 215h246z" />
    <glyph glyph-name="Lcommaaccent" unicode="&#x13b;" 
d="M358 1360v-1188h729v-172h-923v1360h194zM551 -238v170h180v-182l-84 -170h-102l73 182h-67z" />
    <glyph glyph-name="lcommaaccent" unicode="&#x13c;" horiz-adv-x="448" 
d="M311 1360v-1360h-174v1360h174zM135 -238v170h180v-182l-84 -170h-102l74 182h-68z" />
    <glyph glyph-name="Lcaron" unicode="&#x13d;" 
d="M776 1360l-133 -324h-111l58 324h186zM358 1360v-1188h729v-172h-923v1360h194z" />
    <glyph glyph-name="lcaron" unicode="&#x13e;" horiz-adv-x="518" 
d="M612 1360l-133 -324h-110l57 324h186zM311 1360v-1360h-174v1360h174z" />
    <glyph glyph-name="Ldot" unicode="&#x13f;" 
d="M164 1634h194v-188h-194v188zM358 1360v-1188h729v-172h-923v1360h194z" />
    <glyph glyph-name="ldot" unicode="&#x140;" horiz-adv-x="448" 
d="M137 1446v188h174v-188h-174zM311 1360v-1360h-174v1360h174z" />
    <glyph glyph-name="Lslash" unicode="&#x141;" horiz-adv-x="1097" 
d="M0 367v174l174 118v701h195v-567l348 239v-174l-348 -240v-446h729v-172h-924v485z" />
    <glyph glyph-name="lslash" unicode="&#x142;" horiz-adv-x="448" 
d="M0 508v145l137 95v612h174v-494l138 95v-146l-138 -94v-721h-174v602z" />
    <glyph glyph-name="Nacute" unicode="&#x143;" horiz-adv-x="1437" 
d="M1274 0h-285l-631 1157v-1157h-194v1360h285l630 -1155v1155h195v-1360zM1059 1645l-283 -215h-172l209 215h246z" />
    <glyph glyph-name="nacute" unicode="&#x144;" horiz-adv-x="1099" 
d="M311 1004v-140q101 156 330 156q199 0 283 -137q55 -89 55 -267v-616h-174v569q0 149 -37 213q-52 86 -186 86q-128 0 -199.5 -85.5t-71.5 -247.5v-535h-174v1004h174zM856 1360l-248 -242h-145l172 242h221z" />
    <glyph glyph-name="Ncommaaccent" unicode="&#x145;" horiz-adv-x="1437" 
d="M1274 0h-285l-631 1157v-1157h-194v1360h285l630 -1155v1155h195v-1360zM645 -238v170h180v-182l-84 -170h-102l74 182h-68z" />
    <glyph glyph-name="ncommaaccent" unicode="&#x146;" horiz-adv-x="1099" 
d="M311 1004v-140q101 156 330 156q199 0 283 -137q55 -89 55 -267v-616h-174v569q0 149 -37 213q-52 86 -186 86q-128 0 -199.5 -85.5t-71.5 -247.5v-535h-174v1004h174zM473 -238v170h180v-182l-84 -170h-102l74 182h-68z" />
    <glyph glyph-name="Ncaron" unicode="&#x147;" horiz-adv-x="1437" 
d="M1274 0h-285l-631 1157v-1157h-194v1360h285l630 -1155v1155h195v-1360zM664 1430l-250 215h202l129 -107l132 107h202l-256 -215h-159z" />
    <glyph glyph-name="ncaron" unicode="&#x148;" horiz-adv-x="1099" 
d="M311 1004v-140q101 156 330 156q199 0 283 -137q55 -89 55 -267v-616h-174v569q0 149 -37 213q-52 86 -186 86q-128 0 -199.5 -85.5t-71.5 -247.5v-535h-174v1004h174zM473 1118l-246 242h183l149 -123l152 123h182l-252 -242h-168z" />
    <glyph glyph-name="napostrophe" unicode="&#x149;" horiz-adv-x="1099" 
d="M311 1004v-140q101 156 330 156q199 0 283 -137q55 -89 55 -267v-616h-174v569q0 149 -37 213q-52 86 -186 86q-128 0 -199.5 -85.5t-71.5 -247.5v-535h-174v1004h174zM147 1268v170h181v-183l-84 -170h-103l74 183h-68z" />
    <glyph glyph-name="Eng" unicode="&#x14a;" horiz-adv-x="1437" 
d="M1079 6l-721 1147v-1153h-194v1360h291l624 -1010v1010h195v-1389q0 -100 -17 -163.5t-58 -99.5t-97.5 -49t-145.5 -13h-79v174h41q106 0 133.5 29.5t27.5 138.5v18z" />
    <glyph glyph-name="eng" unicode="&#x14b;" horiz-adv-x="1099" 
d="M805 -74v654q0 160 -54 224t-169 64q-128 0 -199.5 -85.5t-71.5 -247.5v-535h-174v1004h174v-140q101 156 328 156q170 0 255 -103t85 -288v-701q0 -163 -48.5 -222.5t-193.5 -59.5h-88v147h49q67 0 87 26t20 107z" />
    <glyph glyph-name="Omacron" unicode="&#x14c;" horiz-adv-x="1486" 
d="M1192 680q0 253 -126.5 395t-322.5 142t-322 -142t-126 -395t126 -395t322 -142t322.5 142t126.5 395zM1391 680q0 -323 -179.5 -514t-470.5 -191q-195 0 -342 89.5t-225 249t-78 366.5q0 312 181 508t468 196q290 0 468 -190t178 -514zM1028 1464h-571v144h571v-144z
" />
    <glyph glyph-name="omacron" unicode="&#x14d;" horiz-adv-x="1085" 
d="M254 498q0 -188 79 -279.5t210 -91.5t209.5 91.5t78.5 279.5t-78.5 279t-209.5 91t-210 -91.5t-79 -278.5zM70 498q0 130 39 232.5t105.5 164.5t150 93.5t178.5 31.5t178.5 -31.5t150 -93.5t105.5 -164.5t39 -232.5t-39 -232.5t-105.5 -164.5t-150 -94t-178.5 -32
t-178.5 32t-150 94t-105.5 164.5t-39 232.5zM823 1167h-571v144h571v-144z" />
    <glyph glyph-name="Obreve" unicode="&#x14e;" horiz-adv-x="1486" 
d="M1192 680q0 253 -126.5 395t-322.5 142t-322 -142t-126 -395t126 -395t322 -142t322.5 142t126.5 395zM1391 680q0 -323 -179.5 -514t-470.5 -191q-195 0 -342 89.5t-225 249t-78 366.5q0 312 181 508t468 196q290 0 468 -190t178 -514zM883 1645h147q-13 -104 -88 -165
t-215 -61q-135 0 -209.5 61.5t-87.5 164.5h148q15 -111 151 -111q135 0 154 111z" />
    <glyph glyph-name="obreve" unicode="&#x14f;" horiz-adv-x="1085" 
d="M254 498q0 -188 79 -279.5t210 -91.5t209.5 91.5t78.5 279.5t-78.5 279t-209.5 91t-210 -91.5t-79 -278.5zM70 498q0 130 39 232.5t105.5 164.5t150 93.5t178.5 31.5t178.5 -31.5t150 -93.5t105.5 -164.5t39 -232.5t-39 -232.5t-105.5 -164.5t-150 -94t-178.5 -32
t-178.5 32t-150 94t-105.5 164.5t-39 232.5zM840 1360q-26 -252 -305 -252q-76 0 -133.5 20t-91.5 56t-51.5 79.5t-22.5 96.5h135q13 -137 166 -137q155 0 168 137h135z" />
    <glyph glyph-name="Ohungarumlaut" unicode="&#x150;" horiz-adv-x="1486" 
d="M1192 680q0 253 -126.5 395t-322.5 142t-322 -142t-126 -395t126 -395t322 -142t322.5 142t126.5 395zM1391 680q0 -323 -179.5 -514t-470.5 -191q-195 0 -342 89.5t-225 249t-78 366.5q0 312 181 508t468 196q290 0 468 -190t178 -514zM893 1645l-283 -215h-172l209 215
h246zM1210 1645l-282 -215h-172l209 215h245z" />
    <glyph glyph-name="ohungarumlaut" unicode="&#x151;" horiz-adv-x="1085" 
d="M254 498q0 -188 79 -279.5t210 -91.5t209.5 91.5t78.5 279.5t-78.5 279t-209.5 91t-210 -91.5t-79 -278.5zM70 498q0 130 39 232.5t105.5 164.5t150 93.5t178.5 31.5t178.5 -31.5t150 -93.5t105.5 -164.5t39 -232.5t-39 -232.5t-105.5 -164.5t-150 -94t-178.5 -32
t-178.5 32t-150 94t-105.5 164.5t-39 232.5zM668 1360l-248 -242h-146l172 242h222zM969 1360l-248 -242h-146l173 242h221z" />
    <glyph glyph-name="OE" unicode="&#x152;" horiz-adv-x="2158" 
d="M739 1384q263 0 426 -163v139h926v-172h-731v-402h688v-172h-688v-442h731v-172h-926v141q-166 -166 -430 -166q-194 0 -340 89.5t-222.5 249t-76.5 366.5q0 206 80.5 366t227 249t335.5 89zM1180 680q0 254 -124 395.5t-319 141.5t-318.5 -141.5t-123.5 -395.5
t123.5 -395.5t318.5 -141.5t319 141.5t124 395.5z" />
    <glyph glyph-name="oe" unicode="&#x153;" horiz-adv-x="1835" 
d="M70 498q0 130 40 232.5t107.5 164.5t151 93.5t176.5 31.5q117 0 216.5 -51.5t160.5 -151.5q61 97 159.5 150t225.5 53q154 0 266 -76t164 -206t39 -292h-775q0 -147 86 -232t220 -85q203 0 274 176l178 -22q-35 -129 -154.5 -218.5t-297.5 -89.5q-133 0 -230.5 53
t-156.5 148q-61 -100 -159 -150.5t-216 -50.5q-93 0 -176.5 32t-151 94t-107.5 164.5t-40 232.5zM254 498q0 -188 79 -279.5t212 -91.5t212 91.5t79 279.5t-79 279t-212 91t-212 -91t-79 -279zM1309 872q-132 0 -215 -73.5t-90 -206.5h587q-3 111 -78 195.5t-204 84.5z" />
    <glyph glyph-name="Racute" unicode="&#x154;" horiz-adv-x="1275" 
d="M989 0l-295 559q-35 -2 -108 -2h-228v-557h-194v1360h422q108 0 189.5 -9.5t156.5 -35.5t123 -69.5t76 -114.5t28 -168q0 -156 -68.5 -245t-197.5 -128l313 -590h-217zM600 1188h-242v-459h242q58 0 98 2.5t85.5 9.5t74 22.5t54 40t37.5 63.5t12 91q0 45 -10 80t-26 59
t-43 41t-54.5 26.5t-68 15t-75.5 7t-84 1.5zM889 1645l-283 -215h-172l209 215h246z" />
    <glyph glyph-name="racute" unicode="&#x155;" horiz-adv-x="675" 
d="M647 1008v-185q-56 6 -96 6q-122 0 -181 -73.5t-59 -239.5v-516h-174v1004h170v-179q38 86 113.5 134t175.5 51q33 0 51 -2zM659 1360l-247 -242h-146l172 242h221z" />
    <glyph glyph-name="Rcommaaccent" unicode="&#x156;" horiz-adv-x="1275" 
d="M989 0l-295 559q-35 -2 -108 -2h-228v-557h-194v1360h422q108 0 189.5 -9.5t156.5 -35.5t123 -69.5t76 -114.5t28 -168q0 -156 -68.5 -245t-197.5 -128l313 -590h-217zM600 1188h-242v-459h242q58 0 98 2.5t85.5 9.5t74 22.5t54 40t37.5 63.5t12 91q0 45 -10 80t-26 59
t-43 41t-54.5 26.5t-68 15t-75.5 7t-84 1.5zM530 -238v170h181v-182l-84 -170h-103l74 182h-68z" />
    <glyph glyph-name="rcommaaccent" unicode="&#x157;" horiz-adv-x="675" 
d="M647 1008v-185q-56 6 -96 6q-122 0 -181 -73.5t-59 -239.5v-516h-174v1004h170v-179q38 86 113.5 134t175.5 51q33 0 51 -2zM135 -238v170h180v-182l-84 -170h-102l74 182h-68z" />
    <glyph glyph-name="Rcaron" unicode="&#x158;" horiz-adv-x="1275" 
d="M989 0l-295 559q-35 -2 -108 -2h-228v-557h-194v1360h422q108 0 189.5 -9.5t156.5 -35.5t123 -69.5t76 -114.5t28 -168q0 -156 -68.5 -245t-197.5 -128l313 -590h-217zM600 1188h-242v-459h242q58 0 98 2.5t85.5 9.5t74 22.5t54 40t37.5 63.5t12 91q0 45 -10 80t-26 59
t-43 41t-54.5 26.5t-68 15t-75.5 7t-84 1.5zM524 1430l-250 215h203l129 -107l131 107h203l-256 -215h-160z" />
    <glyph glyph-name="rcaron" unicode="&#x159;" horiz-adv-x="675" 
d="M647 1008v-185q-56 6 -96 6q-122 0 -181 -73.5t-59 -239.5v-516h-174v1004h170v-179q38 86 113.5 134t175.5 51q33 0 51 -2zM305 1118l-246 242h183l149 -123l152 123h182l-252 -242h-168z" />
    <glyph glyph-name="Sacute" unicode="&#x15a;" horiz-adv-x="1220" 
d="M106 1012q0 76 30.5 139t81 105.5t116.5 72t134.5 42.5t137.5 13q128 0 234 -38t184 -121t104 -203l-188 -27q-16 61 -52 106t-84.5 69.5t-99 35.5t-106.5 11q-35 0 -71.5 -5.5t-77 -20t-72 -36t-52 -57t-20.5 -80.5q0 -85 59 -132t166 -71l160 -35q53 -12 92.5 -22.5
t91 -28.5t88 -38t75 -50.5t62.5 -66.5t39 -85t15 -106q0 -130 -75 -224.5t-191.5 -139t-257.5 -44.5q-240 0 -390 119.5t-178 317.5l189 26q28 -143 124.5 -219t258.5 -76q151 0 236 60t85 162q0 53 -21.5 92.5t-63.5 67t-92 45t-120 32.5l-172 37q-76 17 -139.5 44
t-119.5 70.5t-88 109.5t-32 149zM895 1645l-283 -215h-172l209 215h246z" />
    <glyph glyph-name="sacute" unicode="&#x15b;" horiz-adv-x="983" 
d="M903 731l-180 -16q-37 159 -250 159q-89 0 -152 -31.5t-63 -90.5q0 -56 40.5 -86t125.5 -48l121 -24q63 -13 111 -27.5t97.5 -39.5t82 -56t53 -77.5t20.5 -104.5q0 -147 -117 -230.5t-300 -83.5q-97 0 -178 28.5t-134 75.5t-84.5 104t-38.5 118l183 16q44 -196 256 -196
q104 0 170.5 41.5t66.5 107.5q0 115 -219 162l-131 27q-48 10 -87 22.5t-80 35t-69 51.5t-45.5 73.5t-17.5 99.5q0 85 57.5 149.5t149.5 97t201 32.5q165 0 273 -78.5t138 -210.5zM760 1360l-248 -242h-145l172 242h221z" />
    <glyph glyph-name="Scircumflex" unicode="&#x15c;" horiz-adv-x="1220" 
d="M106 1012q0 76 30.5 139t81 105.5t116.5 72t134.5 42.5t137.5 13q128 0 234 -38t184 -121t104 -203l-188 -27q-16 61 -52 106t-84.5 69.5t-99 35.5t-106.5 11q-35 0 -71.5 -5.5t-77 -20t-72 -36t-52 -57t-20.5 -80.5q0 -85 59 -132t166 -71l160 -35q53 -12 92.5 -22.5
t91 -28.5t88 -38t75 -50.5t62.5 -66.5t39 -85t15 -106q0 -130 -75 -224.5t-191.5 -139t-257.5 -44.5q-240 0 -390 119.5t-178 317.5l189 26q28 -143 124.5 -219t258.5 -76q151 0 236 60t85 162q0 53 -21.5 92.5t-63.5 67t-92 45t-120 32.5l-172 37q-76 17 -139.5 44
t-119.5 70.5t-88 109.5t-32 149zM692 1645l250 -215h-203l-129 106l-131 -106h-203l256 215h160z" />
    <glyph glyph-name="scircumflex" unicode="&#x15d;" horiz-adv-x="983" 
d="M903 731l-180 -16q-37 159 -250 159q-89 0 -152 -31.5t-63 -90.5q0 -56 40.5 -86t125.5 -48l121 -24q63 -13 111 -27.5t97.5 -39.5t82 -56t53 -77.5t20.5 -104.5q0 -147 -117 -230.5t-300 -83.5q-97 0 -178 28.5t-134 75.5t-84.5 104t-38.5 118l183 16q44 -196 256 -196
q104 0 170.5 41.5t66.5 107.5q0 115 -219 162l-131 27q-48 10 -87 22.5t-80 35t-69 51.5t-45.5 73.5t-17.5 99.5q0 85 57.5 149.5t149.5 97t201 32.5q165 0 273 -78.5t138 -210.5zM575 1360l246 -242h-182l-150 123l-151 -123h-182l252 242h167z" />
    <glyph glyph-name="Scedilla" unicode="&#x15e;" horiz-adv-x="1220" 
d="M391 -336l31 78q56 -27 110 -27q48 0 81.5 14.5t33.5 45.5q0 28 -23 42.5t-59 14.5q-46 0 -73 -16l-58 32l84 136q-193 26 -312.5 140.5t-144.5 287.5l189 26q28 -143 124.5 -219t258.5 -76q151 0 236 60t85 162q0 53 -21.5 92.5t-63.5 67t-92 45t-120 32.5l-172 37
q-76 17 -139.5 44t-119.5 70.5t-88 109.5t-32 149q0 76 30.5 139t81 105.5t116.5 72t134.5 42.5t137.5 13q128 0 234 -38t184 -121t104 -203l-188 -27q-16 61 -52 106t-84.5 69.5t-99 35.5t-106.5 11q-35 0 -71.5 -5.5t-77 -20t-72 -36t-52 -57t-20.5 -80.5q0 -85 59 -132
t166 -71l160 -35q53 -12 92.5 -22.5t91 -28.5t88 -38t75 -50.5t62.5 -66.5t39 -85t15 -106q0 -130 -75 -224.5t-191.5 -139t-257.5 -44.5h-17l-41 -67q30 6 58 6q68 0 106.5 -35t38.5 -94q0 -71 -63.5 -113.5t-143.5 -42.5q-100 0 -176 35z" />
    <glyph glyph-name="scedilla" unicode="&#x15f;" horiz-adv-x="983" 
d="M266 -336l31 78q56 -27 111 -27q47 0 80.5 14.5t33.5 45.5q0 28 -23 42.5t-59 14.5q-46 0 -73 -16l-58 32l84 136q-147 25 -235 115.5t-101 201.5l183 16q44 -196 256 -196q104 0 170.5 41.5t66.5 107.5q0 115 -219 162l-131 27q-48 10 -87 22.5t-80 35t-69 51.5
t-45.5 73.5t-17.5 99.5q0 85 57.5 149.5t149.5 97t201 32.5q165 0 273 -78.5t138 -210.5l-180 -16q-37 159 -250 159q-89 0 -152 -31.5t-63 -90.5q0 -56 40.5 -86t125.5 -48l121 -24q63 -13 111 -27.5t97.5 -39.5t82 -56t53 -77.5t20.5 -104.5q0 -147 -117 -230.5
t-300 -83.5h-5l-41 -67q30 6 58 6q68 0 106.5 -35t38.5 -94q0 -71 -63.5 -113.5t-143.5 -42.5q-100 0 -176 35z" />
    <glyph glyph-name="Scaron" unicode="&#x160;" horiz-adv-x="1220" 
d="M106 1012q0 76 30.5 139t81 105.5t116.5 72t134.5 42.5t137.5 13q128 0 234 -38t184 -121t104 -203l-188 -27q-16 61 -52 106t-84.5 69.5t-99 35.5t-106.5 11q-35 0 -71.5 -5.5t-77 -20t-72 -36t-52 -57t-20.5 -80.5q0 -85 59 -132t166 -71l160 -35q53 -12 92.5 -22.5
t91 -28.5t88 -38t75 -50.5t62.5 -66.5t39 -85t15 -106q0 -130 -75 -224.5t-191.5 -139t-257.5 -44.5q-240 0 -390 119.5t-178 317.5l189 26q28 -143 124.5 -219t258.5 -76q151 0 236 60t85 162q0 53 -21.5 92.5t-63.5 67t-92 45t-120 32.5l-172 37q-76 17 -139.5 44
t-119.5 70.5t-88 109.5t-32 149zM530 1430l-249 215h202l129 -107l131 107h203l-256 -215h-160z" />
    <glyph glyph-name="scaron" unicode="&#x161;" horiz-adv-x="983" 
d="M903 731l-180 -16q-37 159 -250 159q-89 0 -152 -31.5t-63 -90.5q0 -56 40.5 -86t125.5 -48l121 -24q63 -13 111 -27.5t97.5 -39.5t82 -56t53 -77.5t20.5 -104.5q0 -147 -117 -230.5t-300 -83.5q-97 0 -178 28.5t-134 75.5t-84.5 104t-38.5 118l183 16q44 -196 256 -196
q104 0 170.5 41.5t66.5 107.5q0 115 -219 162l-131 27q-48 10 -87 22.5t-80 35t-69 51.5t-45.5 73.5t-17.5 99.5q0 85 57.5 149.5t149.5 97t201 32.5q165 0 273 -78.5t138 -210.5zM395 1118l-245 242h182l149 -123l152 123h182l-252 -242h-168z" />
    <glyph glyph-name="Tcommaaccent" unicode="&#x162;" horiz-adv-x="1091" 
d="M449 0v1188h-449v172h1092v-172h-449v-1188h-37l-57 -92q30 6 57 6q68 0 107 -35t39 -94q0 -71 -63.5 -113.5t-143.5 -42.5q-100 0 -176 35l30 78q56 -27 111 -27q48 0 81.5 14.5t33.5 45.5q0 28 -23 42.5t-59 14.5q-47 0 -74 -16l-57 32l94 152h-57z" />
    <glyph glyph-name="tcommaaccent" unicode="&#x163;" horiz-adv-x="618" 
d="M197 -336l30 78q56 -27 111 -27q48 0 81.5 14.5t33.5 45.5q0 28 -23 42.5t-59 14.5q-47 0 -74 -16l-57 32l96 156q-88 12 -119 65t-31 187v604h-161v144h161v276h174v-276h193v-144h-193v-579q0 -84 17.5 -109t89.5 -25h86v-147h-119l-57 -92q30 6 57 6q68 0 107 -35
t39 -94q0 -71 -63.5 -113.5t-143.5 -42.5q-100 0 -176 35z" />
    <glyph glyph-name="Tcaron" unicode="&#x164;" horiz-adv-x="1091" 
d="M449 0v1188h-449v172h1092v-172h-449v-1188h-194zM461 1430l-250 215h203l129 -107l131 107h203l-256 -215h-160z" />
    <glyph glyph-name="tcaron" unicode="&#x165;" horiz-adv-x="677" 
d="M719 1360l-133 -324h-111l57 324h187zM186 1004v276h174v-276h193v-144h-193v-579q0 -84 17.5 -109t89.5 -25h86v-147h-125q-77 0 -121.5 9.5t-73 39t-38 77t-9.5 130.5v604h-161v144h161z" />
    <glyph glyph-name="Tbar" unicode="&#x166;" horiz-adv-x="1091" 
d="M449 0v614h-287v172h287v402h-449v172h1092v-172h-449v-402h287v-172h-287v-614h-194z" />
    <glyph glyph-name="tbar" unicode="&#x167;" horiz-adv-x="659" 
d="M207 1004v276h174v-276h192v-144h-192v-133h192v-143h-192v-303q0 -84 17 -109t89 -25h86v-147h-124q-77 0 -121.5 9.5t-73 39t-38 77t-9.5 130.5v328h-162v143h162v133h-162v144h162z" />
    <glyph glyph-name="Utilde" unicode="&#x168;" horiz-adv-x="1392" 
d="M143 1360h195v-819q0 -207 82 -302.5t274 -95.5q193 0 277 103.5t84 314.5v799h194v-782q0 -309 -130 -456t-425 -147q-195 0 -314 57t-178 185.5t-59 343.5v799zM825 1556q78 0 90 86h136q-19 -111 -79.5 -163t-142.5 -52q-39 0 -77.5 14t-64.5 31.5t-58 31.5t-58 14
q-37 0 -59 -22t-27 -62h-135q18 107 76 160t143 53q39 0 77 -14t62.5 -31.5t56.5 -31.5t60 -14z" />
    <glyph glyph-name="utilde" unicode="&#x169;" 
d="M776 0v143q-97 -166 -315 -166q-176 0 -262 117q-70 94 -70 287v623h174v-568q0 -148 33 -213q46 -94 188 -94q119 0 185.5 85.5t66.5 242.5v547h174v-1004h-174zM666 1260q78 0 90 86h135q-19 -112 -79 -164t-142 -52q-49 0 -96.5 23t-88.5 45.5t-73 22.5q-37 0 -59 -22
t-27 -62h-136q18 107 76.5 160t143.5 53q50 0 95.5 -22.5t85.5 -45t75 -22.5z" />
    <glyph glyph-name="Umacron" unicode="&#x16a;" horiz-adv-x="1392" 
d="M143 1360h195v-819q0 -207 82 -302.5t274 -95.5q193 0 277 103.5t84 314.5v799h194v-782q0 -309 -130 -456t-425 -147q-195 0 -314 57t-178 185.5t-59 343.5v799zM969 1464h-572v144h572v-144z" />
    <glyph glyph-name="umacron" unicode="&#x16b;" 
d="M776 0v143q-97 -166 -315 -166q-176 0 -262 117q-70 94 -70 287v623h174v-568q0 -148 33 -213q46 -94 188 -94q119 0 185.5 85.5t66.5 242.5v547h174v-1004h-174zM829 1167h-571v144h571v-144z" />
    <glyph glyph-name="Ubreve" unicode="&#x16c;" horiz-adv-x="1392" 
d="M143 1360h195v-819q0 -207 82 -302.5t274 -95.5q193 0 277 103.5t84 314.5v799h194v-782q0 -309 -130 -456t-425 -147q-195 0 -314 57t-178 185.5t-59 343.5v799zM836 1645h147q-13 -104 -88 -165t-215 -61q-135 0 -209.5 61.5t-87.5 164.5h147q15 -111 152 -111
q135 0 154 111z" />
    <glyph glyph-name="ubreve" unicode="&#x16d;" 
d="M776 0v143q-97 -166 -315 -166q-176 0 -262 117q-70 94 -70 287v623h174v-568q0 -148 33 -213q46 -94 188 -94q119 0 185.5 85.5t66.5 242.5v547h174v-1004h-174zM842 1360q-26 -252 -305 -252q-76 0 -133.5 20t-91.5 56t-51.5 79.5t-22.5 96.5h135q13 -137 166 -137
q155 0 168 137h135z" />
    <glyph glyph-name="Uring" unicode="&#x16e;" horiz-adv-x="1392" 
d="M143 1360h195v-819q0 -207 82 -302.5t274 -95.5q193 0 277 103.5t84 314.5v799h194v-782q0 -309 -130 -456t-425 -147q-195 0 -314 57t-178 185.5t-59 343.5v799zM690 1735q72 0 122 -46t50 -116t-49.5 -116t-122.5 -46t-122.5 46t-49.5 116t50 116t122 46zM690 1655
q-33 0 -57.5 -23.5t-24.5 -58.5q0 -34 24.5 -57t57.5 -23t57.5 23t24.5 57q0 35 -24.5 58.5t-57.5 23.5z" />
    <glyph glyph-name="uring" unicode="&#x16f;" 
d="M776 0v143q-97 -166 -315 -166q-176 0 -262 117q-70 94 -70 287v623h174v-568q0 -148 33 -213q46 -94 188 -94q119 0 185.5 85.5t66.5 242.5v547h174v-1004h-174zM539 1425q72 0 122 -46t50 -115q0 -70 -49.5 -116t-122.5 -46t-122.5 46t-49.5 116q0 69 50 115t122 46z
M539 1346q-33 0 -57.5 -23.5t-24.5 -58.5q0 -34 24.5 -57t57.5 -23t57.5 23t24.5 57q0 35 -24.5 58.5t-57.5 23.5z" />
    <glyph glyph-name="Uhungarumlaut" unicode="&#x170;" horiz-adv-x="1392" 
d="M143 1360h195v-819q0 -207 82 -302.5t274 -95.5q193 0 277 103.5t84 314.5v799h194v-782q0 -309 -130 -456t-425 -147q-195 0 -314 57t-178 185.5t-59 343.5v799zM872 1645l-282 -215h-172l209 215h245zM1190 1645l-283 -215h-172l209 215h246z" />
    <glyph glyph-name="uhungarumlaut" unicode="&#x171;" 
d="M776 0v143q-97 -166 -315 -166q-176 0 -262 117q-70 94 -70 287v623h174v-568q0 -148 33 -213q46 -94 188 -94q119 0 185.5 85.5t66.5 242.5v547h174v-1004h-174zM655 1360l-247 -242h-146l172 242h221zM956 1360l-247 -242h-146l172 242h221z" />
    <glyph glyph-name="Uogonek" unicode="&#x172;" horiz-adv-x="1392" 
d="M143 1360h195v-819q0 -207 82 -302.5t274 -95.5q193 0 277 103.5t84 314.5v799h194v-782q0 -284 -109 -430.5t-354 -167.5q-127 -72 -127 -142q0 -41 36 -61.5t89 -20.5q52 0 95 17v-115q-54 -23 -131 -23q-61 0 -114.5 17.5t-92.5 59.5t-39 102q0 98 110 166
q-247 15 -358 150t-111 431v799z" />
    <glyph glyph-name="uogonek" unicode="&#x173;" 
d="M776 0v143q-97 -166 -315 -166q-176 0 -262 117q-70 94 -70 287v623h174v-568q0 -148 33 -213q46 -94 188 -94q119 0 185.5 85.5t66.5 242.5v547h174v-1004q-77 -38 -122.5 -79.5t-45.5 -82.5t36 -61.5t89 -20.5q51 0 94 17v-115q-54 -23 -131 -23q-61 0 -114.5 17.5
t-92 59.5t-38.5 102q0 110 151 186z" />
    <glyph glyph-name="Wcircumflex" unicode="&#x174;" horiz-adv-x="1755" 
d="M993 1360l273 -1139l256 1139h202l-344 -1360h-235l-266 1114l-263 -1114h-235l-350 1360h213l266 -1139l256 1139h227zM967 1645l250 -215h-203l-129 106l-131 -106h-203l256 215h160z" />
    <glyph glyph-name="wcircumflex" unicode="&#x175;" horiz-adv-x="1351" 
d="M586 1004l-203 -738l-197 738h-186l295 -1004h158l219 803l227 -803h158l295 1004h-187l-196 -738l-203 738h-180zM760 1360l246 -242h-183l-149 123l-152 -123h-182l252 242h168z" />
    <glyph glyph-name="Ycircumflex" unicode="&#x176;" horiz-adv-x="1187" 
d="M0 1360h213l377 -674l385 674h213l-506 -846v-514h-195v518zM672 1645l250 -215h-203l-129 106l-131 -106h-203l256 215h160z" />
    <glyph glyph-name="ycircumflex" unicode="&#x177;" horiz-adv-x="901" 
d="M90 -354h90q67 0 117.5 13.5t85 36t63.5 64.5t48 85t43 112l364 1047h-180l-254 -771l-260 771h-193l369 -1004l-6 -20q-15 -51 -31.5 -84.5t-33 -53.5t-41.5 -29.5t-48 -12.5t-61 -3h-72v-151zM559 1360l246 -242h-182l-150 123l-151 -123h-183l252 242h168z" />
    <glyph glyph-name="Ydieresis" unicode="&#x178;" horiz-adv-x="1187" 
d="M0 1360h213l377 -674l385 674h213l-506 -846v-514h-195v518zM285 1632h174v-188h-174v188zM721 1632h174v-188h-174v188z" />
    <glyph glyph-name="Zacute" unicode="&#x179;" horiz-adv-x="1204" 
d="M1118 1360v-172l-811 -1016h842v-172h-1071v172l813 1016h-750v172h977zM926 1645l-283 -215h-172l209 215h246z" />
    <glyph glyph-name="zacute" unicode="&#x17a;" horiz-adv-x="929" 
d="M63 143v-143h805v143h-602l592 717v144h-756v-144h553zM774 1360l-248 -242h-145l172 242h221z" />
    <glyph glyph-name="Zdotaccent" unicode="&#x17b;" horiz-adv-x="1204" 
d="M1118 1360v-172l-811 -1016h842v-172h-1071v172l813 1016h-750v172h977zM551 1634h174v-188h-174v188z" />
    <glyph glyph-name="zdotaccent" unicode="&#x17c;" horiz-adv-x="929" 
d="M63 143v-143h805v143h-602l592 717v144h-756v-144h553zM391 1333h174v-188h-174v188z" />
    <glyph glyph-name="Zcaron" unicode="&#x17d;" horiz-adv-x="1204" 
d="M1118 1360v-172l-811 -1016h842v-172h-1071v172l813 1016h-750v172h977zM573 1430l-249 215h202l129 -107l131 107h203l-256 -215h-160z" />
    <glyph glyph-name="zcaron" unicode="&#x17e;" horiz-adv-x="929" 
d="M63 143v-143h805v143h-602l592 717v144h-756v-144h553zM397 1118l-245 242h182l149 -123l152 123h182l-252 -242h-168z" />
    <glyph glyph-name="uni0186" unicode="&#x186;" horiz-adv-x="1370" 
d="M262 954l-184 31q44 175 202.5 287t387.5 112q190 0 328 -90.5t208 -250t70 -371.5q0 -317 -175.5 -507t-469.5 -190q-210 0 -364 112.5t-204 295.5l187 33q26 -93 87 -156t135 -90t159 -27q206 0 326 136.5t120 394.5q0 254 -115.5 398.5t-304.5 144.5
q-153 0 -253 -68.5t-140 -194.5z" />
    <glyph glyph-name="uni018F" unicode="&#x18f;" horiz-adv-x="1486" 
d="M350 979l-188 49q62 166 220 261t363 95q290 0 464.5 -190t174.5 -514t-176.5 -514.5t-466.5 -190.5q-165 0 -293 61.5t-206.5 169t-113.5 252.5t-22 314h1076q-15 210 -138.5 327.5t-300.5 117.5q-152 0 -253 -66t-140 -172zM743 143q182 0 303.5 120t135.5 345h-875
q6 -222 128.5 -343.5t307.5 -121.5z" />
    <glyph glyph-name="uni0190" unicode="&#x190;" horiz-adv-x="1144" 
d="M1067 172v-172h-496q-247 0 -370 99.5t-123 291.5q0 227 209 322q-72 41 -113 119t-41 176q0 99 39 170t109 109.5t152.5 55.5t184.5 17h449v-172h-477q-116 0 -188 -51t-72 -152q0 -100 69 -152.5t191 -52.5h422v-162h-430q-153 0 -229.5 -57.5t-76.5 -165.5
q0 -105 74.5 -164t229.5 -59h487z" />
    <glyph glyph-name="uni019D" unicode="&#x19d;" horiz-adv-x="1437" 
d="M8 -354v174h49q64 0 85.5 25t21.5 81v1434h291l624 -1151v1151h195v-1360h-291l-625 1153v-1225q0 -160 -57 -221t-205 -61h-88z" />
    <glyph glyph-name="uni019F" unicode="&#x19f;" horiz-adv-x="1486" 
d="M1384 680q0 -324 -176.5 -514.5t-466.5 -190.5q-194 0 -340 89.5t-222.5 249t-76.5 366.5q0 206 80.5 366t227 249t335.5 89q290 0 464.5 -190t174.5 -514zM743 143q180 0 300.5 121.5t138.5 343.5h-879q18 -222 138 -343.5t302 -121.5zM743 1217q-174 0 -293 -114.5
t-145 -322.5h875q-24 207 -144 322t-293 115z" />
    <glyph glyph-name="Ohorn" unicode="&#x1a0;" horiz-adv-x="1486" 
d="M1391 680q0 -323 -179.5 -514t-470.5 -191q-195 0 -342 89.5t-225 249t-78 366.5q0 312 181 508t468 196q220 0 388 -114q73 -49 131 -49q38 0 61 24t23 68q0 26 -10 52t-20 39l-11 13l137 41q47 -71 47 -147q0 -97 -56.5 -149t-160.5 -46q117 -182 117 -436zM1192 680
q0 253 -126.5 395t-322.5 142t-322 -142t-126 -395t126 -395t322 -142t322.5 142t126.5 395z" />
    <glyph glyph-name="ohorn" unicode="&#x1a1;" horiz-adv-x="1085" 
d="M70 498q0 130 39 232.5t105.5 164.5t150 93.5t178.5 31.5q103 0 198 -39q10 -4 45.5 -20t60.5 -23.5t46 -7.5q42 0 65 23t23 59q0 27 -7.5 52.5t-15.5 37.5l-8 12l133 35q35 -75 35 -137q0 -174 -194 -183q92 -132 92 -331q0 -130 -39 -232.5t-105.5 -164.5t-150 -94
t-178.5 -32t-178.5 32t-150 94t-105.5 164.5t-39 232.5zM254 498q0 -188 79 -279.5t210 -91.5t209.5 91.5t78.5 279.5t-78.5 279t-209.5 91t-210 -91.5t-79 -278.5z" />
    <glyph glyph-name="Uhorn" unicode="&#x1af;" horiz-adv-x="1392" 
d="M143 1360h195v-819q0 -207 82 -302.5t274 -95.5q193 0 277 103.5t84 314.5v799h149q52 3 75.5 28.5t23.5 63.5q0 46 -35 104l131 41q24 -37 35.5 -68.5t11.5 -82.5q0 -92 -59.5 -141.5t-137.5 -51.5v-675q0 -309 -130 -456t-425 -147q-195 0 -314 57t-178 185.5
t-59 343.5v799z" />
    <glyph glyph-name="uhorn" unicode="&#x1b0;" 
d="M776 0v143q-97 -166 -315 -166q-176 0 -262 117q-70 94 -70 287v623h174v-568q0 -148 33 -213q46 -94 188 -94q119 0 185.5 85.5t66.5 242.5v547h117q52 3 75 28.5t23 63.5q0 46 -35 104l131 41q48 -72 48 -151q0 -89 -55 -138.5t-130 -54.5v-897h-174z" />
    <glyph glyph-name="uni01C4" unicode="&#x1c4;" horiz-adv-x="2469" 
d="M1073 680q0 98 -19 175.5t-49 130.5t-78.5 91t-96.5 59t-113.5 33t-119 15.5t-124.5 3.5h-115v-1016h115q71 0 124.5 3.5t119 15.5t113.5 33t96.5 59t78.5 91t49 130.5t19 175.5zM164 1360h315q793 0 793 -680t-793 -680h-315v1360zM2384 1360v-172l-811 -1016h842v-172
h-1072v172l814 1016h-750v172h977zM1827 1430l-250 215h203l129 -107l131 107h203l-256 -215h-160z" />
    <glyph glyph-name="uni01C5" unicode="&#x1c5;" horiz-adv-x="2240" 
d="M1073 680q0 98 -19 175.5t-49 130.5t-78.5 91t-96.5 59t-113.5 33t-119 15.5t-124.5 3.5h-115v-1016h115q71 0 124.5 3.5t119 15.5t113.5 33t96.5 59t78.5 91t49 130.5t19 175.5zM164 1360h315q793 0 793 -680t-793 -680h-315v1360zM1374 143v-143h805v143h-602l592 717
v144h-756v-144h553zM1726 1118l-245 242h182l149 -123l152 123h182l-252 -242h-168z" />
    <glyph glyph-name="uni01C6" unicode="&#x1c6;" horiz-adv-x="2058" 
d="M987 1360v-1360h-168l-6 137q-106 -162 -326 -162q-185 0 -301 141.5t-116 383.5q0 239 121.5 379.5t316.5 140.5q105 0 183.5 -40t121.5 -108v488h174zM532 127q59 0 110 22t92 66t64 117.5t23 167.5q0 185 -80 276.5t-209 91.5q-135 0 -206.5 -96.5t-71.5 -271.5
q0 -177 71 -275t207 -98zM1192 0v143l592 717h-553v144h756v-144l-592 -717h602v-143h-805zM1544 1118l-246 242h183l149 -123l152 123h182l-252 -242h-168z" />
    <glyph glyph-name="uni01C7" unicode="&#x1c7;" horiz-adv-x="1710" 
d="M358 1360v-1188h729v-172h-923v1360h194zM1149 0v174h31q44 0 70.5 1.5t47.5 10t30.5 17t15.5 32t7 45.5t1 66v1014h194v-1030q0 -73 -7.5 -126t-26 -90t-42 -59t-62.5 -34.5t-81 -16.5t-104 -4h-74z" />
    <glyph glyph-name="uni01C8" unicode="&#x1c8;" horiz-adv-x="1536" 
d="M358 1360v-1188h729v-172h-923v1360h194zM1225 -74v1078h174v-1076q0 -163 -48.5 -222.5t-193.5 -59.5h-88v147h49q67 0 87 26t20 107zM1225 1360h174v-209h-174v209z" />
    <glyph glyph-name="uni01C9" unicode="&#x1c9;" horiz-adv-x="897" 
d="M311 1360v-1360h-174v1360h174zM586 -74v1078h174v-1076q0 -163 -48.5 -222.5t-193.5 -59.5h-88v147h49q67 0 87 26t20 107zM586 1360h174v-209h-174v209z" />
    <glyph glyph-name="uni01CA" unicode="&#x1ca;" horiz-adv-x="2060" 
d="M1274 0h-285l-631 1157v-1157h-194v1360h285l630 -1155v1155h195v-1360zM1499 0v174h31q44 0 70.5 1.5t47.5 10t30.5 17t15.5 32t7 45.5t1 66v1014h194v-1030q0 -73 -7.5 -126t-26 -90t-42 -59t-62.5 -34.5t-81 -16.5t-104 -4h-74z" />
    <glyph glyph-name="uni01CB" unicode="&#x1cb;" horiz-adv-x="1886" 
d="M1274 0h-285l-631 1157v-1157h-194v1360h285l630 -1155v1155h195v-1360zM1575 -74v1078h174v-1076q0 -163 -48.5 -222.5t-193.5 -59.5h-88v147h49q67 0 87 26t20 107zM1575 1360h174v-209h-174v209z" />
    <glyph glyph-name="uni01CC" unicode="&#x1cc;" horiz-adv-x="1548" 
d="M311 1004v-140q101 156 330 156q199 0 283 -137q55 -89 55 -267v-616h-174v569q0 149 -37 213q-52 86 -186 86q-128 0 -199.5 -85.5t-71.5 -247.5v-535h-174v1004h174zM1237 -74v1078h174v-1076q0 -163 -48.5 -222.5t-193.5 -59.5h-88v147h49q67 0 87 26t20 107z
M1237 1360h174v-209h-174v209z" />
    <glyph glyph-name="uni01F1" unicode="&#x1f1;" horiz-adv-x="2469" 
d="M1073 680q0 98 -19 175.5t-49 130.5t-78.5 91t-96.5 59t-113.5 33t-119 15.5t-124.5 3.5h-115v-1016h115q71 0 124.5 3.5t119 15.5t113.5 33t96.5 59t78.5 91t49 130.5t19 175.5zM164 1360h315q793 0 793 -680t-793 -680h-315v1360zM2384 1360v-172l-811 -1016h842v-172
h-1072v172l814 1016h-750v172h977z" />
    <glyph glyph-name="uni01F2" unicode="&#x1f2;" horiz-adv-x="2260" 
d="M1073 680q0 98 -19 175.5t-49 130.5t-78.5 91t-96.5 59t-113.5 33t-119 15.5t-124.5 3.5h-115v-1016h115q71 0 124.5 3.5t119 15.5t113.5 33t96.5 59t78.5 91t49 130.5t19 175.5zM164 1360h315q793 0 793 -680t-793 -680h-315v1360zM1395 143v-143h805v143h-603l592 717
v144h-755v-144h553z" />
    <glyph glyph-name="uni01F3" unicode="&#x1f3;" horiz-adv-x="2058" 
d="M987 1360v-1360h-168l-6 137q-106 -162 -326 -162q-185 0 -301 141.5t-116 383.5q0 239 121.5 379.5t316.5 140.5q105 0 183.5 -40t121.5 -108v488h174zM532 127q59 0 110 22t92 66t64 117.5t23 167.5q0 185 -80 276.5t-209 91.5q-135 0 -206.5 -96.5t-71.5 -271.5
q0 -177 71 -275t207 -98zM1192 0v143l592 717h-553v144h756v-144l-592 -717h602v-143h-805z" />
    <glyph glyph-name="Aringacute" unicode="&#x1fa;" horiz-adv-x="1255" 
d="M940 1890l-233 -178q39 -21 62.5 -57.5t23.5 -81.5q0 -70 -49.5 -116t-122.5 -46t-122.5 46t-49.5 116q0 63 51 117l194 200h246zM621 1655q-33 0 -57.5 -23.5t-24.5 -58.5q0 -34 24.5 -57t57.5 -23t57 23t24 57q0 35 -24 58.5t-57 23.5zM0 0l512 1360h225l518 -1360
h-213l-108 295h-627l-104 -295h-203zM618 1159l-249 -694h503z" />
    <glyph glyph-name="aringacute" unicode="&#x1fb;" horiz-adv-x="1054" 
d="M776 1569l-184 -195q49 -18 79.5 -58t30.5 -93q0 -70 -49.5 -116t-122.5 -46t-122.5 46t-49.5 116q0 46 31 96l166 250h221zM530 1305q-33 0 -57 -23.5t-24 -58.5q0 -34 24 -57t57 -23t57.5 23t24.5 57q0 35 -24.5 58.5t-57.5 23.5zM115 700l170 -6q8 87 67.5 137
t173.5 50q110 0 171 -46t61 -161v-37l-195 -21q-232 -25 -346 -88q-135 -76 -135 -227q0 -137 93.5 -231.5t260.5 -94.5q237 0 338 166l6 -141h168q-22 242 -20 387l4 254q3 202 -90 291.5t-307 89.5q-175 0 -293 -85.5t-127 -236.5zM770 434q0 -67 -18 -120.5t-47 -87.5
t-69 -57t-81.5 -32.5t-85.5 -9.5q-91 0 -147 45t-56 123q0 82 71.5 123t223.5 55l209 21v-60z" />
    <glyph glyph-name="AEacute" unicode="&#x1fc;" horiz-adv-x="1998" 
d="M1006 1360h925v-172h-731v-402h688v-172h-688v-442h731v-172h-925v295h-578l-215 -295h-213zM1006 1081l-453 -616h453v616zM1798 1645l-282 -215h-173l209 215h246z" />
    <glyph glyph-name="aeacute" unicode="&#x1fd;" horiz-adv-x="1761" 
d="M115 694l172 -8q6 91 65 143t174 52q110 0 171 -46t61 -161v-37l-195 -21q-231 -24 -346 -90q-135 -76 -135 -225q0 -137 94 -231.5t266 -94.5q80 0 154 20t142 68.5t106 120.5q117 -209 385 -209q179 0 297.5 88.5t154.5 219.5l-178 22q-68 -176 -270 -176
q-143 0 -226 87.5t-83 229.5h774q13 162 -39 292t-164 206t-266 76q-225 0 -352 -162q-85 162 -342 162q-176 0 -294.5 -86t-125.5 -240zM469 127q-91 0 -147 45t-56 123q0 82 71.5 123t223.5 55l209 21v-60q0 -67 -18 -120.5t-47 -87.5t-69 -57t-81.5 -32.5t-85.5 -9.5z
M1513 592h-587q7 130 89 205t216 75q128 0 203.5 -84.5t78.5 -195.5zM1139 1360l-248 -242h-146l173 242h221z" />
    <glyph glyph-name="Oslashacute" unicode="&#x1fe;" horiz-adv-x="1474" 
d="M1348 1323l-127 -149q157 -190 157 -494q0 -324 -176.5 -514.5t-466.5 -190.5q-243 0 -413 144l-125 -146l-76 68l129 152q-154 189 -154 487q0 206 80.5 366t227 249t335.5 89q245 0 410 -137l121 142zM1180 680q0 210 -86 344l-654 -764q117 -117 297 -117
q195 0 319 141.5t124 395.5zM295 680q0 -205 82 -338l651 762q-119 113 -291 113q-195 0 -318.5 -141.5t-123.5 -395.5zM1083 1645l-282 -215h-172l209 215h245z" />
    <glyph glyph-name="oslashacute" unicode="&#x1ff;" horiz-adv-x="1085" 
d="M76 43l94 109q-100 133 -100 346q0 130 39 232.5t105.5 164.5t150 93.5t178.5 31.5q172 0 297 -98l88 100l78 -66l-95 -108q105 -140 105 -350q0 -130 -39 -232.5t-105.5 -164.5t-150 -94t-178.5 -32q-179 0 -303 103l-88 -103zM831 498q0 129 -38 213l-445 -510
q74 -74 195 -74q131 0 209.5 91.5t78.5 279.5zM254 498q0 -128 37 -209l442 508q-74 71 -190 71q-131 0 -210 -91.5t-79 -278.5zM856 1360l-248 -242h-145l172 242h221z" />
    <glyph glyph-name="Scommaaccent" unicode="&#x218;" horiz-adv-x="1220" 
d="M106 1012q0 76 30.5 139t81 105.5t116.5 72t134.5 42.5t137.5 13q128 0 234 -38t184 -121t104 -203l-188 -27q-16 61 -52 106t-84.5 69.5t-99 35.5t-106.5 11q-35 0 -71.5 -5.5t-77 -20t-72 -36t-52 -57t-20.5 -80.5q0 -85 59 -132t166 -71l160 -35q53 -12 92.5 -22.5
t91 -28.5t88 -38t75 -50.5t62.5 -66.5t39 -85t15 -106q0 -130 -75 -224.5t-191.5 -139t-257.5 -44.5q-240 0 -390 119.5t-178 317.5l189 26q28 -143 124.5 -219t258.5 -76q151 0 236 60t85 162q0 53 -21.5 92.5t-63.5 67t-92 45t-120 32.5l-172 37q-76 17 -139.5 44
t-119.5 70.5t-88 109.5t-32 149zM518 -238v170h180v-182l-84 -170h-102l74 182h-68z" />
    <glyph glyph-name="scommaaccent" unicode="&#x219;" horiz-adv-x="983" 
d="M903 731l-180 -16q-37 159 -250 159q-89 0 -152 -31.5t-63 -90.5q0 -56 40.5 -86t125.5 -48l121 -24q63 -13 111 -27.5t97.5 -39.5t82 -56t53 -77.5t20.5 -104.5q0 -147 -117 -230.5t-300 -83.5q-97 0 -178 28.5t-134 75.5t-84.5 104t-38.5 118l183 16q44 -196 256 -196
q104 0 170.5 41.5t66.5 107.5q0 115 -219 162l-131 27q-48 10 -87 22.5t-80 35t-69 51.5t-45.5 73.5t-17.5 99.5q0 85 57.5 149.5t149.5 97t201 32.5q165 0 273 -78.5t138 -210.5zM397 -238v170h181v-182l-84 -170h-103l74 182h-68z" />
    <glyph glyph-name="uni021A" unicode="&#x21a;" horiz-adv-x="1091" 
d="M449 0v1188h-449v172h1092v-172h-449v-1188h-194zM455 -238v170h180v-182l-84 -170h-102l73 182h-67z" />
    <glyph glyph-name="uni021B" unicode="&#x21b;" horiz-adv-x="618" 
d="M186 1004v276h174v-276h193v-144h-193v-579q0 -84 17.5 -109t89.5 -25h86v-147h-125q-77 0 -121.5 9.5t-73 39t-38 77t-9.5 130.5v604h-161v144h161zM203 -238v170h180v-182l-84 -170h-102l73 182h-67z" />
    <glyph glyph-name="uni021C" unicode="&#x21c;" horiz-adv-x="1089" 
d="M86 -367l-6 174q122 6 217.5 16.5t186.5 29t156 47t115 68t74.5 95t24.5 125.5q0 135 -94.5 210t-253.5 75q-71 0 -156 -16l-20 161q112 17 194.5 42t150.5 64.5t103 99t35 137.5q0 115 -87 184t-216 69q-268 0 -344 -243l-166 59q47 159 182 251.5t340 92.5
q75 0 144 -14t131.5 -45t108.5 -77t73 -115t27 -154q0 -254 -277 -383q143 -42 231.5 -146.5t88.5 -255.5q0 -527 -963 -551z" />
    <glyph glyph-name="uni021D" unicode="&#x21d;" horiz-adv-x="1017" 
d="M164 682l-164 49q38 132 159 210.5t306 78.5q85 0 160 -19.5t136.5 -59t97.5 -107t36 -154.5q0 -198 -225 -289q118 -29 190 -112.5t72 -208.5q0 -116 -64.5 -203.5t-182.5 -141t-269 -81.5t-338 -33l-6 151q157 7 274.5 25.5t211 53.5t142 93t48.5 138q0 129 -125.5 185
t-313.5 17l-22 146q98 12 170.5 30t132 47t90.5 73t31 102q0 90 -74 143t-180 53q-239 0 -293 -186z" />
    <glyph glyph-name="uni0226" unicode="&#x226;" horiz-adv-x="1255" 
d="M0 0l512 1360h225l518 -1360h-213l-108 295h-627l-104 -295h-203zM618 1159l-249 -694h503zM535 1634h174v-188h-174v188z" />
    <glyph glyph-name="uni0227" unicode="&#x227;" horiz-adv-x="1054" 
d="M115 700l170 -6q8 87 67.5 137t173.5 50q110 0 171 -46t61 -161v-37l-195 -21q-232 -25 -346 -88q-135 -76 -135 -227q0 -137 93.5 -231.5t260.5 -94.5q237 0 338 166l6 -141h168q-22 242 -20 387l4 254q3 202 -90 291.5t-307 89.5q-175 0 -293 -85.5t-127 -236.5z
M770 434q0 -67 -18 -120.5t-47 -87.5t-69 -57t-81.5 -32.5t-85.5 -9.5q-91 0 -147 45t-56 123q0 82 71.5 123t223.5 55l209 21v-60zM451 1333h174v-188h-174v188z" />
    <glyph glyph-name="uni0232" unicode="&#x232;" horiz-adv-x="1187" 
d="M0 1360h213l377 -674l385 674h213l-506 -846v-514h-195v518zM874 1464h-571v144h571v-144z" />
    <glyph glyph-name="uni0233" unicode="&#x233;" horiz-adv-x="901" 
d="M90 -354h90q67 0 117.5 13.5t85 36t63.5 64.5t48 85t43 112l364 1047h-180l-254 -771l-260 771h-193l369 -1004l-6 -20q-15 -51 -31.5 -84.5t-33 -53.5t-41.5 -29.5t-48 -12.5t-61 -3h-72v-151zM748 1167h-572v144h572v-144z" />
    <glyph glyph-name="dotlessj" unicode="&#x237;" horiz-adv-x="448" 
d="M137 -74v1078h174v-1076q0 -163 -48 -222.5t-193 -59.5h-88v147h49q66 0 86 26t20 107z" />
    <glyph glyph-name="uni0254" unicode="&#x254;" horiz-adv-x="1048" 
d="M489 -25q-90 0 -167 29t-128.5 77t-84.5 104t-43 114l174 33q20 -94 90 -148.5t172 -54.5q127 0 210 94.5t83 270.5q0 180 -81 276t-206 96q-106 0 -174 -55.5t-86 -144.5l-176 30q28 135 147.5 229.5t294.5 94.5q146 0 252.5 -68.5t159.5 -186t53 -269.5
q0 -232 -131 -376.5t-359 -144.5z" />
    <glyph glyph-name="uni0259" unicode="&#x259;" horiz-adv-x="1099" 
d="M545 1020q151 0 262.5 -70t167 -187t55.5 -265q0 -234 -136 -378.5t-351 -144.5q-154 0 -266 75t-164 204t-39 291h772q0 139 -84.5 230t-212.5 91q-212 0 -285 -180l-176 31q40 129 159.5 216t297.5 87zM543 123q130 0 212 73.5t89 202.5h-586q3 -111 78.5 -193.5
t206.5 -82.5z" />
    <glyph glyph-name="uni025B" unicode="&#x25b;" horiz-adv-x="993" 
d="M932 150v-150h-469q-211 0 -306.5 75t-95.5 216q0 77 43.5 138.5t116.5 96.5q-52 30 -84.5 91t-32.5 124q0 54 20 98.5t63.5 83t123.5 60t189 21.5h432v-150h-447q-56 0 -99 -11t-73 -40t-30 -74q0 -73 50 -105t144 -32h400v-150h-406q-123 0 -176 -36.5t-53 -110.5
q0 -71 52 -108t169 -37h469z" />
    <glyph glyph-name="uni0272" unicode="&#x272;" horiz-adv-x="1099" 
d="M137 -74v1078h174v-140q101 156 328 156q170 0 255 -103t85 -288v-629h-174v580q0 160 -54 224t-169 64q-128 0 -199.5 -85.5t-71.5 -247.5v-607q0 -163 -48 -222.5t-193 -59.5h-88v147h49q66 0 86 26t20 107z" />
    <glyph glyph-name="uni0275" unicode="&#x275;" horiz-adv-x="1089" 
d="M70 498q0 130 40 232.5t107.5 164.5t151 93.5t176.5 31.5t176.5 -31.5t151 -93.5t107.5 -164.5t40 -232.5t-40 -232.5t-107.5 -164.5t-151 -94t-176.5 -32t-176.5 32t-151 94t-107.5 164.5t-40 232.5zM545 127q120 0 196.5 75t89.5 228h-575q14 -154 91 -228.5t198 -74.5
zM545 868q-120 0 -196.5 -73t-90.5 -222h573q-17 150 -92.5 222.5t-193.5 72.5z" />
    <glyph glyph-name="circumflex" unicode="&#x2c6;" horiz-adv-x="747" 
d="M461 1360l246 -242h-183l-149 123l-152 -123h-182l252 242h168z" />
    <glyph glyph-name="caron" unicode="&#x2c7;" horiz-adv-x="747" 
d="M287 1118l-246 242h182l150 -123l151 123h183l-252 -242h-168z" />
    <glyph glyph-name="breve" unicode="&#x2d8;" horiz-adv-x="686" 
d="M645 1360q-26 -252 -305 -252q-76 0 -133.5 20t-91.5 56t-51.5 79.5t-22.5 96.5h135q13 -137 166 -137q155 0 168 137h135z" />
    <glyph glyph-name="dotaccent" unicode="&#x2d9;" horiz-adv-x="256" 
d="M41 1333h174v-188h-174v188z" />
    <glyph glyph-name="ring" unicode="&#x2da;" horiz-adv-x="425" 
d="M213 1425q72 0 122 -46t50 -115q0 -70 -49.5 -116t-122.5 -46t-122.5 46t-49.5 116q0 69 50 115t122 46zM213 1346q-33 0 -57.5 -23.5t-24.5 -58.5q0 -34 24.5 -57t57.5 -23t57.5 23t24.5 57q0 35 -24.5 58.5t-57.5 23.5z" />
    <glyph glyph-name="ogonek" unicode="&#x2db;" horiz-adv-x="458" 
d="M193 0h174q-77 -38 -122.5 -79.5t-45.5 -82.5t36 -61.5t89 -20.5q52 0 94 17v-115q-54 -23 -131 -23q-61 0 -114.5 17.5t-92.5 59.5t-39 102q0 110 152 186z" />
    <glyph glyph-name="tilde" unicode="&#x2dc;" horiz-adv-x="782" 
d="M516 1260q78 0 90 86h135q-19 -112 -79 -164t-142 -52q-49 0 -96.5 23t-88.5 45.5t-73 22.5q-37 0 -59 -22t-27 -62h-135q18 107 76 160t143 53q50 0 95.5 -22.5t85.5 -45t75 -22.5z" />
    <glyph glyph-name="hungarumlaut" unicode="&#x2dd;" horiz-adv-x="776" 
d="M434 1360l-248 -242h-145l172 242h221zM735 1360l-248 -242h-145l172 242h221z" />
    <glyph glyph-name="uni032C" unicode="&#x32c;" horiz-adv-x="747" 
d="M307 -262l-266 262h192l140 -135l141 135h193l-273 -262h-127z" />
    <glyph glyph-name="pi" unicode="&#x3c0;" horiz-adv-x="1230" 
d="M377 0h-174v840h-142v164h1096v-164h-143v-561q0 -83 18.5 -107.5t91.5 -24.5h45v-147h-84q-77 0 -122 9.5t-74 39t-39 77.5t-10 130v584h-463v-840z" />
    <glyph glyph-name="Wgrave" unicode="&#x1e80;" horiz-adv-x="1755" 
d="M993 1360l273 -1139l256 1139h202l-344 -1360h-235l-266 1114l-263 -1114h-235l-350 1360h213l266 -1139l256 1139h227zM801 1430l-283 215h246l209 -215h-172z" />
    <glyph glyph-name="wgrave" unicode="&#x1e81;" horiz-adv-x="1351" 
d="M586 1004l-203 -738l-197 738h-186l295 -1004h158l219 803l227 -803h158l295 1004h-187l-196 -738l-203 738h-180zM596 1118l-248 242h221l172 -242h-145z" />
    <glyph glyph-name="Wacute" unicode="&#x1e82;" horiz-adv-x="1755" 
d="M993 1360l273 -1139l256 1139h202l-344 -1360h-235l-266 1114l-263 -1114h-235l-350 1360h213l266 -1139l256 1139h227zM1231 1645l-283 -215h-172l209 215h246z" />
    <glyph glyph-name="wacute" unicode="&#x1e83;" horiz-adv-x="1351" 
d="M586 1004l-203 -738l-197 738h-186l295 -1004h158l219 803l227 -803h158l295 1004h-187l-196 -738l-203 738h-180zM993 1360l-248 -242h-145l172 242h221z" />
    <glyph glyph-name="Wdieresis" unicode="&#x1e84;" horiz-adv-x="1755" 
d="M993 1360l273 -1139l256 1139h202l-344 -1360h-235l-266 1114l-263 -1114h-235l-350 1360h213l266 -1139l256 1139h227zM578 1632h174v-188h-174v188zM1014 1632h174v-188h-174v188z" />
    <glyph glyph-name="wdieresis" unicode="&#x1e85;" horiz-adv-x="1351" 
d="M586 1004l-203 -738l-197 738h-186l295 -1004h158l219 803l227 -803h158l295 1004h-187l-196 -738l-203 738h-180zM369 1141v188h174v-188h-174zM805 1329h174v-188h-174v188z" />
    <glyph glyph-name="uni1EA0" unicode="&#x1ea0;" horiz-adv-x="1255" 
d="M0 0l512 1360h225l518 -1360h-213l-108 295h-627l-104 -295h-203zM618 1159l-249 -694h503zM532 -100h175v-189h-175v189z" />
    <glyph glyph-name="uni1EA1" unicode="&#x1ea1;" horiz-adv-x="1054" 
d="M285 694l-170 6q9 151 127 236.5t293 85.5q214 0 307 -89.5t90 -291.5l-4 -254q-2 -145 20 -387h-168l-6 141q-101 -166 -338 -166q-167 0 -260.5 94.5t-93.5 231.5q0 151 135 227q114 63 346 88l195 21v37q0 115 -61 161t-171 46q-114 0 -173.5 -50t-67.5 -137zM770 434
v60l-209 -21q-152 -14 -223.5 -55t-71.5 -123q0 -78 56 -123t147 -45q44 0 85.5 9.5t81.5 32.5t69 57t47 87.5t18 120.5zM438 -100h174v-189h-174v189z" />
    <glyph glyph-name="uni1EB8" unicode="&#x1eb8;" horiz-adv-x="1167" 
d="M164 0v1360h936v-172h-742v-402h699v-172h-699v-442h742v-172h-936zM543 -100h174v-189h-174v189z" />
    <glyph glyph-name="uni1EB9" unicode="&#x1eb9;" 
d="M555 -25q-120 0 -213.5 40t-152.5 111.5t-89 165.5t-30 206q0 233 136 377.5t351 144.5q154 0 266.5 -76t164.5 -206t40 -292h-774q0 -145 83.5 -231t213.5 -86q115 0 182 45t101 131l178 -22q-38 -133 -157.5 -220.5t-299.5 -87.5zM557 872q-132 0 -213.5 -74.5
t-87.5 -205.5h588q-2 52 -21 101t-53.5 89.5t-90 65t-122.5 24.5zM469 -100h174v-189h-174v189z" />
    <glyph glyph-name="uni1ECA" unicode="&#x1eca;" horiz-adv-x="522" 
d="M358 1360v-1360h-194v1360h194zM172 -100h174v-189h-174v189z" />
    <glyph glyph-name="uni1ECB" unicode="&#x1ecb;" horiz-adv-x="448" 
d="M137 1004h174v-1004h-174v1004zM137 1360h174v-209h-174v209zM137 -100h174v-189h-174v189z" />
    <glyph glyph-name="uni1ECC" unicode="&#x1ecc;" horiz-adv-x="1486" 
d="M1192 680q0 253 -126.5 395t-322.5 142t-322 -142t-126 -395t126 -395t322 -142t322.5 142t126.5 395zM1391 680q0 -323 -179.5 -514t-470.5 -191q-195 0 -342 89.5t-225 249t-78 366.5q0 312 181 508t468 196q290 0 468 -190t178 -514zM655 -100h174v-189h-174v189z" />
    <glyph glyph-name="uni1ECD" unicode="&#x1ecd;" horiz-adv-x="1089" 
d="M256 498q0 -188 79 -279.5t210 -91.5t210 91.5t79 279.5q0 187 -79 278.5t-210 91.5t-210 -91.5t-79 -278.5zM72 498q0 130 39 232.5t105.5 164.5t150 93.5t178.5 31.5t178.5 -31.5t150 -93.5t105.5 -164.5t39 -232.5t-39 -232.5t-105.5 -164.5t-150 -94t-178.5 -32
t-178.5 32t-150 94t-105.5 164.5t-39 232.5zM449 -100h174v-189h-174v189z" />
    <glyph glyph-name="uni1EE4" unicode="&#x1ee4;" horiz-adv-x="1392" 
d="M143 1360h195v-819q0 -207 82 -302.5t274 -95.5q193 0 277 103.5t84 314.5v799h194v-782q0 -309 -130 -456t-425 -147q-195 0 -314 57t-178 185.5t-59 343.5v799zM598 -100h174v-189h-174v189z" />
    <glyph glyph-name="uni1EE5" unicode="&#x1ee5;" 
d="M776 0v143q-97 -166 -315 -166q-176 0 -262 117q-70 94 -70 287v623h174v-568q0 -148 33 -213q46 -94 188 -94q119 0 185.5 85.5t66.5 242.5v547h174v-1004h-174zM444 -100h174v-189h-174v189z" />
    <glyph glyph-name="Ygrave" unicode="&#x1ef2;" horiz-adv-x="1187" 
d="M0 1360h213l377 -674l385 674h213l-506 -846v-514h-195v518zM582 1430l-283 215h246l209 -215h-172z" />
    <glyph glyph-name="ygrave" unicode="&#x1ef3;" horiz-adv-x="901" 
d="M90 -354h90q67 0 117.5 13.5t85 36t63.5 64.5t48 85t43 112l364 1047h-180l-254 -771l-260 771h-193l369 -1004l-6 -20q-15 -51 -31.5 -84.5t-33 -53.5t-41.5 -29.5t-48 -12.5t-61 -3h-72v-151zM446 1118l-247 242h221l172 -242h-146z" />
    <glyph glyph-name="endash" unicode="&#x2013;" horiz-adv-x="974" 
d="M903 440h-831v164h831v-164z" />
    <glyph glyph-name="emdash" unicode="&#x2014;" horiz-adv-x="1376" 
d="M1315 440h-1254v164h1254v-164z" />
    <glyph glyph-name="quoteleft" unicode="&#x2018;" horiz-adv-x="464" 
d="M342 1096v-219h-219v233l117 250h110l-100 -264h92z" />
    <glyph glyph-name="quoteright" unicode="&#x2019;" horiz-adv-x="464" 
d="M123 1141v219h219v-234l-117 -249h-110l100 264h-92z" />
    <glyph glyph-name="quotesinglbase" unicode="&#x201a;" horiz-adv-x="464" 
d="M123 0v219h219v-233l-117 -250h-110l100 264h-92z" />
    <glyph glyph-name="quotedblleft" unicode="&#x201c;" horiz-adv-x="784" 
d="M662 1096v-219h-220v233l117 250h111l-101 -264h93zM342 1096v-219h-219v233l117 250h110l-100 -264h92z" />
    <glyph glyph-name="quotedblright" unicode="&#x201d;" horiz-adv-x="784" 
d="M123 1141v219h219v-234l-117 -249h-110l100 264h-92zM442 1141v219h220v-234l-117 -249h-111l101 264h-93z" />
    <glyph glyph-name="quotedblbase" unicode="&#x201e;" horiz-adv-x="802" 
d="M123 0v219h219v-233l-117 -250h-110l100 264h-92zM461 0v219h219v-233l-117 -250h-110l100 264h-92z" />
    <glyph glyph-name="dagger" unicode="&#x2020;" horiz-adv-x="1075" 
d="M625 0h-174v778h-390v164h390v418h174v-418h389v-164h-389v-778z" />
    <glyph glyph-name="daggerdbl" unicode="&#x2021;" horiz-adv-x="1075" 
d="M625 532h389v-163h-389v-369h-174v369h-390v163h390v287h-390v164h390v377h174v-377h389v-164h-389v-287z" />
    <glyph glyph-name="bullet" unicode="&#x2022;" horiz-adv-x="849" 
d="M82 530q0 139 99 238.5t237 99.5q148 0 249 -98.5t101 -239.5q0 -148 -100.5 -248t-249.5 -100q-139 0 -237.5 100.5t-98.5 247.5z" />
    <glyph glyph-name="ellipsis" unicode="&#x2026;" horiz-adv-x="1482" 
d="M123 0v219h219v-219h-219zM633 0v219h219v-219h-219zM1141 0v219h219v-219h-219z" />
    <glyph glyph-name="perthousand" unicode="&#x2030;" horiz-adv-x="2410" 
d="M358 569q-154 0 -233.5 109t-79.5 295q0 187 79.5 294t233.5 107q153 0 232.5 -107t79.5 -294q0 -186 -79.5 -295t-232.5 -109zM358 678q83 0 126.5 75t43.5 220q0 293 -170 293q-172 0 -172 -293q0 -145 43.5 -220t128.5 -75zM274 0h193l952 1360h-192zM1337 -14
q-154 0 -233.5 108.5t-79.5 294.5q0 187 79.5 294.5t233.5 107.5q153 0 232.5 -107.5t79.5 -294.5q0 -186 -79.5 -294.5t-232.5 -108.5zM1337 94q83 0 126.5 75t43.5 220q0 293 -170 293q-172 0 -172 -293q0 -145 43.5 -220t128.5 -75zM2054 -14q-154 0 -233.5 108.5
t-79.5 294.5q0 187 79.5 294.5t233.5 107.5q153 0 232 -107.5t79 -294.5q0 -186 -79 -294.5t-232 -108.5zM2054 94q83 0 126.5 75t43.5 220q0 293 -170 293q-172 0 -172 -293q0 -145 43.5 -220t128.5 -75z" />
    <glyph glyph-name="guilsinglleft" unicode="&#x2039;" horiz-adv-x="530" 
d="M303 63l-303 437l303 434h186l-286 -434l286 -437h-186z" />
    <glyph glyph-name="guilsinglright" unicode="&#x203a;" horiz-adv-x="530" 
d="M530 500l-303 -437h-186l287 437l-287 434h186z" />
    <glyph glyph-name="fraction" unicode="&#x2044;" horiz-adv-x="262" 
d="M-250 0h-192l952 1360h192z" />
    <glyph glyph-name="zero.superior" unicode="&#x2070;" horiz-adv-x="759" 
d="M383 819q-154 0 -233.5 109t-79.5 295q0 187 79.5 294t233.5 107q153 0 232 -107t79 -294q0 -186 -79.5 -295t-231.5 -109zM383 928q83 0 126.5 75t43.5 220q0 293 -170 293q-172 0 -172 -293q0 -145 43.5 -220t128.5 -75z" />
    <glyph glyph-name="four.superior" unicode="&#x2074;" horiz-adv-x="722" 
d="M418 1427l-236 -290h236v290zM692 1137v-123h-137v-180h-137v180h-387v114l389 482h135v-473h137z" />
    <glyph glyph-name="five.superior" unicode="&#x2075;" horiz-adv-x="694" 
d="M346 928q66 0 108 42t42 117q0 79 -45.5 120.5t-108.5 41.5q-50 0 -87 -22t-50 -53l-127 8l51 428h477v-121h-364l-23 -176q61 47 160 47q107 0 182.5 -71.5t75.5 -198.5t-84.5 -199t-208.5 -72q-129 0 -203 72t-84 172l131 14q10 -67 48.5 -108t109.5 -41z" />
    <glyph glyph-name="six.superior" unicode="&#x2076;" horiz-adv-x="696" 
d="M205 1083q0 -70 42 -112.5t107 -42.5q64 0 106 43t42 112t-41.5 112.5t-106.5 43.5t-107 -43.5t-42 -112.5zM360 1516q-76 0 -119.5 -66.5t-45.5 -181.5q62 80 184 80q112 0 188 -72.5t76 -192.5q0 -118 -80 -191t-207 -73q-150 0 -224.5 103t-74.5 278q0 86 17.5 160
t53.5 134.5t98 95t145 34.5q117 0 182 -64t74 -149h-138q-6 49 -41.5 77t-87.5 28z" />
    <glyph glyph-name="seven.superior" unicode="&#x2077;" horiz-adv-x="593" 
d="M20 1489v121h570v-115q-159 -157 -234.5 -305.5t-87.5 -355.5h-153q16 359 329 655h-424z" />
    <glyph glyph-name="eight.superior" unicode="&#x2078;" horiz-adv-x="712" 
d="M356 1624q122 0 195.5 -57t73.5 -144q0 -119 -97 -176q121 -63 121 -192q0 -111 -82 -173.5t-211 -62.5q-128 0 -209 62.5t-81 173.5q0 129 118 192q-46 28 -71 75.5t-25 100.5q0 87 73 144t195 57zM356 1190q-68 0 -108.5 -36t-40.5 -95t40.5 -95t108.5 -36
q69 0 110.5 36t41.5 95t-41.5 95t-110.5 36zM489 1407q0 50 -36 79.5t-97 29.5t-97 -29.5t-36 -79.5t36 -82.5t97 -32.5t97 32.5t36 82.5z" />
    <glyph glyph-name="nine.superior" unicode="&#x2079;" horiz-adv-x="688" 
d="M487 1360q0 70 -42 113t-107 43t-106.5 -42.5t-41.5 -113.5q0 -69 41.5 -112.5t106.5 -43.5t107 43.5t42 112.5zM330 928q78 0 122 66.5t44 181.5q-26 -36 -73.5 -58t-107.5 -22q-114 0 -190 71t-76 191q0 118 78.5 192t206.5 74q153 0 227 -102.5t74 -278.5
q0 -68 -10.5 -129t-34 -115.5t-59 -94t-88.5 -62.5t-119 -23q-117 0 -185 64t-76 147l140 2q6 -49 40.5 -76.5t86.5 -27.5z" />
    <glyph glyph-name="plus.superior" unicode="&#x207a;" horiz-adv-x="712" 
d="M422 834h-129v229h-236v123h236v231h129v-231h233v-123h-233v-229z" />
    <glyph glyph-name="minus.superior" unicode="&#x207b;" horiz-adv-x="698" 
d="M59 1186h582v-123h-582v123z" />
    <glyph glyph-name="equal.superior" unicode="&#x207c;" horiz-adv-x="708" 
d="M629 1176h-549v122h549v-122zM629 948h-549v123h549v-123z" />
    <glyph glyph-name="parenleft.superior" unicode="&#x207d;" horiz-adv-x="327" 
d="M45 1120q0 146 45 273.5t105 216.5h124q-131 -217 -131 -490q0 -272 131 -489h-124q-150 229 -150 489z" />
    <glyph glyph-name="parenright.superior" unicode="&#x207e;" horiz-adv-x="327" 
d="M281 1120q0 -147 -44.5 -274t-105.5 -215h-125q131 217 131 489q0 273 -131 490h125q60 -86 105 -214.5t45 -275.5z" />
    <glyph glyph-name="n.superior" unicode="&#x207f;" horiz-adv-x="684" 
d="M231 1407v-70q51 82 172 82q109 0 160 -69q39 -51 39 -160v-356h-137v323q0 75 -23 111q-26 37 -84 37q-127 0 -127 -177v-294h-139v573h139z" />
    <glyph glyph-name="zero.inferior" unicode="&#x2080;" horiz-adv-x="759" 
d="M383 -260q-154 0 -233.5 108.5t-79.5 294.5q0 187 79.5 294.5t233.5 107.5q153 0 232 -107.5t79 -294.5q0 -186 -79 -294.5t-232 -108.5zM383 -152q83 0 126.5 75t43.5 220q0 293 -170 293q-172 0 -172 -293q0 -145 43.5 -220t128.5 -75z" />
    <glyph glyph-name="one.inferior" unicode="&#x2081;" horiz-adv-x="440" 
d="M334 -246h-137v584h-172v94q95 3 137 20.5t69 77.5h103v-776z" />
    <glyph glyph-name="two.inferior" unicode="&#x2082;" horiz-adv-x="659" 
d="M344 545q119 0 191.5 -56t72.5 -155q0 -33 -11.5 -67t-27 -62.5t-48 -65t-58 -62.5t-74.5 -67t-80 -66t-90 -71h377v-119h-553v113q220 176 279 231q129 120 141 204q2 11 2 22q0 52 -37.5 82t-93.5 30q-60 0 -99.5 -38t-39.5 -122h-138q-1 121 77.5 195t209.5 74z" />
    <glyph glyph-name="three.inferior" unicode="&#x2083;" horiz-adv-x="692" 
d="M342 -152q67 0 110.5 33.5t43.5 91.5q0 129 -203 129h-29v113h23q188 0 188 115q0 51 -37.5 78.5t-93.5 27.5q-67 0 -107 -38.5t-51 -102.5l-133 14q18 109 94.5 172.5t204.5 63.5q69 0 127 -20t97.5 -68.5t39.5 -118.5q0 -56 -30 -101t-80 -71q64 -25 97.5 -76.5
t33.5 -114.5q0 -113 -85 -174t-214 -61q-128 0 -204 70.5t-89 173.5l133 14q11 -67 52 -108.5t112 -41.5z" />
    <glyph glyph-name="four.inferior" unicode="&#x2084;" horiz-adv-x="722" 
d="M418 348l-236 -291h236v291zM692 57v-123h-137v-180h-137v180h-387v115l389 481h135v-473h137z" />
    <glyph glyph-name="five.inferior" unicode="&#x2085;" horiz-adv-x="694" 
d="M346 -152q66 0 108 42t42 118q0 79 -45.5 120.5t-108.5 41.5q-50 0 -87 -22.5t-50 -53.5l-127 8l51 428h477v-120h-364l-23 -177q62 48 160 48q107 0 182.5 -72t75.5 -199t-84 -198.5t-209 -71.5q-129 0 -203 72t-84 172l131 14q10 -67 48.5 -108.5t109.5 -41.5z" />
    <glyph glyph-name="six.inferior" unicode="&#x2086;" horiz-adv-x="696" 
d="M205 4q0 -70 42 -113t107 -43q64 0 106 43t42 113q0 69 -41.5 112.5t-106.5 43.5t-107 -43.5t-42 -112.5zM360 436q-76 0 -119.5 -66.5t-45.5 -181.5q62 80 184 80q112 0 188 -72t76 -192q0 -118 -80 -191t-207 -73q-150 0 -224.5 103t-74.5 278q0 86 17.5 160
t53.5 134.5t98 95t145 34.5q117 0 182 -64t74 -149h-138q-6 49 -41.5 76.5t-87.5 27.5z" />
    <glyph glyph-name="seven.inferior" unicode="&#x2087;" horiz-adv-x="593" 
d="M20 410v120h570v-114q-106 -105 -170.5 -198t-104 -208t-47.5 -256h-153q16 360 329 656h-424z" />
    <glyph glyph-name="eight.inferior" unicode="&#x2088;" horiz-adv-x="712" 
d="M356 545q122 0 195.5 -57t73.5 -144q0 -119 -97 -176q121 -63 121 -193q0 -111 -82 -173t-211 -62q-128 0 -209 62t-81 173q0 130 118 193q-46 28 -71 75.5t-25 100.5q0 87 73 144t195 57zM356 111q-68 0 -108.5 -36t-40.5 -95t40.5 -95.5t108.5 -36.5q69 0 110.5 36.5
t41.5 95.5t-41.5 95t-110.5 36zM489 328q0 50 -36 79t-97 29t-97 -29t-36 -79t36 -82.5t97 -32.5t97 32.5t36 82.5z" />
    <glyph glyph-name="nine.inferior" unicode="&#x2089;" horiz-adv-x="688" 
d="M487 281q0 70 -42 112.5t-107 42.5q-66 0 -107 -42t-41 -113q0 -69 41.5 -112.5t106.5 -43.5t107 43.5t42 112.5zM330 -152q78 0 122 66.5t44 181.5q-26 -36 -73.5 -58t-107.5 -22q-114 0 -190 71.5t-76 191.5q0 118 78.5 192t206.5 74q153 0 227 -102.5t74 -278.5
q0 -68 -10.5 -129t-34 -115.5t-59 -94t-88.5 -62.5t-119 -23q-117 0 -185 64t-76 147l140 2q6 -49 40.5 -77t86.5 -28z" />
    <glyph glyph-name="parenleft.inferior" unicode="&#x208d;" horiz-adv-x="327" 
d="M45 41q0 146 45 273t105 216h124q-131 -217 -131 -489q0 -273 131 -490h-124q-60 92 -105 218t-45 272z" />
    <glyph glyph-name="parenright.inferior" unicode="&#x208e;" horiz-adv-x="327" 
d="M281 41q0 -147 -44.5 -274.5t-105.5 -215.5h-125q131 217 131 490q0 272 -131 489h125q60 -86 105 -214t45 -275z" />
    <glyph glyph-name="Euro" unicode="&#x20ac;" horiz-adv-x="1335" 
d="M668 492h-301q36 -178 137 -271.5t250 -93.5q144 0 242.5 80t119.5 231l180 -6q-16 -139 -91.5 -244t-191 -159t-253.5 -54q-238 0 -388.5 135.5t-193.5 381.5h-207l82 120h113q0 11 -1 36t-1 38q0 30 4 88h-197l82 121h129q47 232 201 360.5t383 128.5q207 0 354.5 -125
t171.5 -331l-180 -6q-20 150 -117 230.5t-241 80.5t-243.5 -86t-137.5 -252h530l-82 -121h-467q-4 -58 -4 -88q0 -51 2 -74h398z" />
    <glyph glyph-name="afii61289" unicode="&#x2113;" horiz-adv-x="854" 
d="M219 324v63l-137 -102l-82 123l219 167v451q0 176 71 267t228 91q126 0 197 -80.5t71 -211.5q0 -89 -23.5 -163t-76.5 -141.5t-112.5 -121.5t-155.5 -127l-25 -19v-209q0 -104 36.5 -144t102.5 -40q92 0 183 80l78 -119q-52 -49 -126 -81t-155 -32q-156 0 -224.5 82
t-68.5 267zM393 1049v-340l17 12q107 81 156.5 166.5t49.5 197.5q0 154 -110 154q-62 0 -87.5 -41t-25.5 -149z" />
    <glyph glyph-name="afii61352" unicode="&#x2116;" horiz-adv-x="2035" 
d="M1274 0h-291l-625 1153v-1153h-194v1360h291l624 -1151v1151h195v-1360zM1966 1038q0 -165 -82.5 -258.5t-222.5 -93.5t-222.5 93.5t-82.5 258.5q0 163 86.5 254.5t218.5 91.5q134 0 219.5 -89t85.5 -257zM1800 1038q0 95 -36 150t-103 55q-70 0 -105.5 -54t-35.5 -151
t35 -153t106 -56q67 0 103 57t36 152zM1366 440h590v164h-590v-164z" />
    <glyph glyph-name="trademark" unicode="&#x2122;" horiz-adv-x="1615" 
d="M248 600v635h-238v125h627v-125h-238v-635h-151zM1204 600h-151l-201 559v-559h-152v760h236l197 -569l190 569h231v-760h-151v559z" />
    <glyph glyph-name="Omega" unicode="&#x2126;" horiz-adv-x="1511" 
d="M756 1384q105 0 203.5 -25t184 -75.5t149.5 -122t100.5 -170t36.5 -213.5q0 -177 -106 -326.5t-273 -201.5v-86h376v-164h-553v354q167 26 269 149.5t102 287.5q0 194 -138 318t-351 124t-351.5 -124t-138.5 -318q0 -164 102 -287.5t269 -149.5v-354h-553v164h377v86
q-167 52 -273 201.5t-106 326.5q0 115 36.5 213.5t100.5 170t149.5 122t184 75.5t203.5 25z" />
    <glyph glyph-name="estimated" unicode="&#x212e;" horiz-adv-x="1103" 
d="M948 281h76q-49 -137 -165 -221.5t-294 -84.5q-124 0 -222.5 41t-161.5 113t-96.5 167t-33.5 206q0 232 138.5 378t365.5 146q116 0 211 -42t156 -114t94 -166t35 -200h-781v-361q45 -46 130 -75t180 -29q133 0 227 63.5t141 178.5zM270 864v-299h559v297
q-44 44 -116.5 72.5t-159.5 28.5q-88 0 -162.5 -26t-120.5 -73z" />
    <glyph glyph-name="onethird" unicode="&#x2153;" horiz-adv-x="1695" 
d="M512 584h-137v583h-172v95q95 3 137.5 20.5t69.5 77.5h102v-776zM467 0h-193l953 1360h192zM1337 94q67 0 110.5 33.5t43.5 91.5q0 129 -203 129h-28v113h22q188 0 188 114q0 51 -37.5 79t-93.5 28q-66 0 -106 -38.5t-51 -102.5l-133 14q18 109 94.5 172.5t204.5 63.5
q69 0 127 -20t97.5 -68.5t39.5 -118.5q0 -56 -30.5 -101t-80.5 -71q64 -25 97.5 -76.5t33.5 -114.5q0 -113 -85 -174t-214 -61q-128 0 -204 70t-89 173l134 15q11 -67 51.5 -108.5t111.5 -41.5z" />
    <glyph glyph-name="twothirds" unicode="&#x2154;" horiz-adv-x="1695" 
d="M373 1374q118 0 191 -56t73 -155q0 -33 -11.5 -67t-27 -62.5t-48 -65t-58 -62.5t-74.5 -67t-80 -66t-90 -71h377v-118h-553v112q220 176 279 231q129 120 141 204q2 11 2 22q0 52 -38 82.5t-94 30.5q-60 0 -99.5 -38t-39.5 -122h-137q-1 121 77.5 194.5t209.5 73.5z
M274 0h193l952 1360h-192zM1337 94q67 0 110.5 33.5t43.5 91.5q0 129 -203 129h-28v113h22q188 0 188 114q0 51 -37.5 79t-93.5 28q-66 0 -106 -38.5t-51 -102.5l-133 14q18 109 94.5 172.5t204.5 63.5q69 0 127 -20t97.5 -68.5t39.5 -118.5q0 -56 -30.5 -101t-80.5 -71
q64 -25 97.5 -76.5t33.5 -114.5q0 -113 -85 -174t-214 -61q-128 0 -204 70t-89 173l134 15q11 -67 51.5 -108.5t111.5 -41.5z" />
    <glyph glyph-name="uni2155" unicode="&#x2155;" horiz-adv-x="1695" 
d="M512 584h-137v583h-172v95q95 3 137.5 20.5t69.5 77.5h102v-776zM467 0h-193l953 1360h192zM1335 94q65 0 107.5 42t42.5 118q0 79 -45.5 120.5t-108.5 41.5q-50 0 -87 -22.5t-50 -53.5l-127 8l51 428h477v-121h-364l-23 -176q61 47 160 47q107 0 182.5 -71.5
t75.5 -198.5t-84 -198.5t-209 -71.5q-129 0 -202.5 71.5t-83.5 171.5l131 15q10 -67 48.5 -108.5t108.5 -41.5z" />
    <glyph glyph-name="uni2156" unicode="&#x2156;" horiz-adv-x="1695" 
d="M373 1374q118 0 191 -56t73 -155q0 -33 -11.5 -67t-27 -62.5t-48 -65t-58 -62.5t-74.5 -67t-80 -66t-90 -71h377v-118h-553v112q220 176 279 231q129 120 141 204q2 11 2 22q0 52 -38 82.5t-94 30.5q-60 0 -99.5 -38t-39.5 -122h-137q-1 121 77.5 194.5t209.5 73.5z
M274 0h193l952 1360h-192zM1335 94q65 0 107.5 42t42.5 118q0 79 -45.5 120.5t-108.5 41.5q-50 0 -87 -22.5t-50 -53.5l-127 8l51 428h477v-121h-364l-23 -176q61 47 160 47q107 0 182.5 -71.5t75.5 -198.5t-84 -198.5t-209 -71.5q-129 0 -202.5 71.5t-83.5 171.5l131 15
q10 -67 48.5 -108.5t108.5 -41.5z" />
    <glyph glyph-name="uni2157" unicode="&#x2157;" horiz-adv-x="1695" 
d="M358 678q67 0 110.5 33.5t43.5 91.5q0 129 -203 129h-28v112h22q189 0 189 115q0 51 -38 79t-94 28q-66 0 -106 -38.5t-51 -103.5l-133 15q18 109 94 172t205 63q69 0 127 -20t97.5 -68.5t39.5 -118.5q0 -56 -30.5 -101t-80.5 -71q64 -25 97.5 -76.5t33.5 -113.5
q0 -113 -85 -174.5t-214 -61.5q-128 0 -204 70.5t-89 173.5l134 14q11 -67 51.5 -108t111.5 -41zM274 0h193l952 1360h-192zM1335 94q65 0 107.5 42t42.5 118q0 79 -45.5 120.5t-108.5 41.5q-50 0 -87 -22.5t-50 -53.5l-127 8l51 428h477v-121h-364l-23 -176q61 47 160 47
q107 0 182.5 -71.5t75.5 -198.5t-84 -198.5t-209 -71.5q-129 0 -202.5 71.5t-83.5 171.5l131 15q10 -67 48.5 -108.5t108.5 -41.5z" />
    <glyph glyph-name="uni2158" unicode="&#x2158;" horiz-adv-x="1695" 
d="M414 1178l-236 -291h236v291zM688 887v-123h-137v-180h-137v180h-387v115l389 481h135v-473h137zM467 0h-193l953 1360h192zM1335 94q65 0 107.5 42t42.5 118q0 79 -45.5 120.5t-108.5 41.5q-50 0 -87 -22.5t-50 -53.5l-127 8l51 428h477v-121h-364l-23 -176
q61 47 160 47q107 0 182.5 -71.5t75.5 -198.5t-84 -198.5t-209 -71.5q-129 0 -202.5 71.5t-83.5 171.5l131 15q10 -67 48.5 -108.5t108.5 -41.5z" />
    <glyph glyph-name="uni2159" unicode="&#x2159;" horiz-adv-x="1695" 
d="M512 584h-137v583h-172v95q95 3 137.5 20.5t69.5 77.5h102v-776zM467 0h-193l953 1360h192zM1192 250q0 -70 42 -113t107 -43q64 0 106 43t42 113q0 69 -41.5 112.5t-106.5 43.5t-107 -43.5t-42 -112.5zM1348 682q-76 0 -120 -66.5t-46 -181.5q62 80 184 80
q112 0 188 -72t76 -192q0 -118 -80 -191t-207 -73q-150 0 -224.5 103t-74.5 278q0 86 17.5 160t53.5 134.5t98 95t145 34.5q117 0 182 -64t74 -149h-137q-6 49 -41.5 76.5t-87.5 27.5z" />
    <glyph glyph-name="uni215A" unicode="&#x215a;" horiz-adv-x="1695" 
d="M356 678q66 0 108 42t42 118q0 79 -45.5 120t-108.5 41q-50 0 -87 -22t-50 -53l-127 8l51 428h477v-121h-364l-23 -176q61 47 160 47q107 0 182.5 -71.5t75.5 -198.5t-84.5 -199t-208.5 -72q-129 0 -202.5 72t-83.5 172l131 14q10 -67 48 -108t109 -41zM274 0h193
l952 1360h-192zM1192 250q0 -70 42 -113t107 -43q64 0 106 43t42 113q0 69 -41.5 112.5t-106.5 43.5t-107 -43.5t-42 -112.5zM1348 682q-76 0 -120 -66.5t-46 -181.5q62 80 184 80q112 0 188 -72t76 -192q0 -118 -80 -191t-207 -73q-150 0 -224.5 103t-74.5 278
q0 86 17.5 160t53.5 134.5t98 95t145 34.5q117 0 182 -64t74 -149h-137q-6 49 -41.5 76.5t-87.5 27.5z" />
    <glyph glyph-name="oneeighth" unicode="&#x215b;" horiz-adv-x="1695" 
d="M512 584h-137v583h-172v95q95 3 137.5 20.5t69.5 77.5h102v-776zM467 0h-193l953 1360h192zM1335 791q122 0 195.5 -57t73.5 -144q0 -119 -97 -176q121 -63 121 -193q0 -111 -82 -173t-211 -62t-210 62t-81 173q0 129 119 193q-46 28 -71 75.5t-25 100.5q0 87 73 144
t195 57zM1335 356q-68 0 -108.5 -36t-40.5 -95t40.5 -95t108.5 -36q69 0 110.5 36t41.5 95t-41.5 95t-110.5 36zM1468 573q0 50 -36 79.5t-97 29.5t-97 -29.5t-36 -79.5t36 -82t97 -32t97 32t36 82z" />
    <glyph glyph-name="threeeighths" unicode="&#x215c;" horiz-adv-x="1695" 
d="M358 678q67 0 110.5 33.5t43.5 91.5q0 129 -203 129h-28v112h22q189 0 189 115q0 51 -38 79t-94 28q-66 0 -106 -38.5t-51 -103.5l-133 15q18 109 94 172t205 63q69 0 127 -20t97.5 -68.5t39.5 -118.5q0 -56 -30.5 -101t-80.5 -71q64 -25 97.5 -76.5t33.5 -113.5
q0 -113 -85 -174.5t-214 -61.5q-128 0 -204 70.5t-89 173.5l134 14q11 -67 51.5 -108t111.5 -41zM274 0h193l952 1360h-192zM1335 791q-122 0 -195 -57t-73 -144q0 -53 25 -100.5t71 -75.5q-119 -64 -119 -193q0 -111 81 -173t210 -62t211 62t82 173q0 130 -121 193
q97 57 97 176q0 87 -73.5 144t-195.5 57zM1335 356q69 0 110.5 -36t41.5 -95t-41.5 -95t-110.5 -36q-68 0 -108.5 36t-40.5 95t40.5 95t108.5 36zM1468 573q0 -50 -36 -82t-97 -32t-97 32t-36 82t36 79.5t97 29.5t97 -29.5t36 -79.5z" />
    <glyph glyph-name="fiveeighths" unicode="&#x215d;" horiz-adv-x="1695" 
d="M356 678q66 0 108 42t42 118q0 79 -45.5 120t-108.5 41q-50 0 -87 -22t-50 -53l-127 8l51 428h477v-121h-364l-23 -176q61 47 160 47q107 0 182.5 -71.5t75.5 -198.5t-84.5 -199t-208.5 -72q-129 0 -202.5 72t-83.5 172l131 14q10 -67 48 -108t109 -41zM274 0h193
l952 1360h-192zM1335 791q-122 0 -195 -57t-73 -144q0 -53 25 -100.5t71 -75.5q-119 -64 -119 -193q0 -111 81 -173t210 -62t211 62t82 173q0 130 -121 193q97 57 97 176q0 87 -73.5 144t-195.5 57zM1335 356q69 0 110.5 -36t41.5 -95t-41.5 -95t-110.5 -36q-68 0 -108.5 36
t-40.5 95t40.5 95t108.5 36zM1468 573q0 -50 -36 -82t-97 -32t-97 32t-36 82t36 79.5t97 29.5t97 -29.5t36 -79.5z" />
    <glyph glyph-name="seveneighths" unicode="&#x215e;" horiz-adv-x="1695" 
d="M74 1239v121h569v-115q-106 -104 -170.5 -197t-103.5 -208t-47 -256h-154q16 358 330 655h-424zM274 0h193l952 1360h-192zM1335 791q-122 0 -195 -57t-73 -144q0 -53 25 -100.5t71 -75.5q-119 -64 -119 -193q0 -111 81 -173t210 -62t211 62t82 173q0 130 -121 193
q97 57 97 176q0 87 -73.5 144t-195.5 57zM1335 356q69 0 110.5 -36t41.5 -95t-41.5 -95t-110.5 -36q-68 0 -108.5 36t-40.5 95t40.5 95t108.5 36zM1468 573q0 -50 -36 -82t-97 -32t-97 32t-36 82t36 79.5t97 29.5t97 -29.5t36 -79.5z" />
    <glyph glyph-name="uni215F" unicode="&#x215f;" horiz-adv-x="978" 
d="M512 584h-137v583h-172v95q95 3 137.5 20.5t69.5 77.5h102v-776zM467 0h-193l953 1360h192z" />
    <glyph glyph-name="uni2190" unicode="&#x2190;" horiz-adv-x="1566" 
d="M41 512l584 584l110 -117l-393 -385h1153v-164h-1153l393 -385l-110 -117z" />
    <glyph glyph-name="uni2191" unicode="&#x2191;" horiz-adv-x="1249" 
d="M625 1401l583 -584l-116 -110l-385 391v-1098h-164v1098l-385 -391l-117 110z" />
    <glyph glyph-name="uni2192" unicode="&#x2192;" horiz-adv-x="1566" 
d="M942 1096l584 -584l-584 -584l-111 117l392 385h-1151v164h1151l-392 385z" />
    <glyph glyph-name="uni2193" unicode="&#x2193;" horiz-adv-x="1249" 
d="M1208 543l-583 -584l-584 584l117 110l385 -393v1100h164v-1100l385 393z" />
    <glyph glyph-name="uni2196" unicode="&#x2196;" horiz-adv-x="1263" 
d="M137 1063h826v-156h-553l813 -815l-115 -115l-815 814v-553h-156v825z" />
    <glyph glyph-name="uni2197" unicode="&#x2197;" horiz-adv-x="1263" 
d="M301 1063h825v-825h-155v553l-815 -814l-115 115l813 815h-553v156z" />
    <glyph glyph-name="uni2198" unicode="&#x2198;" horiz-adv-x="1263" 
d="M1126 825v-825h-825v156h553l-813 815l115 114l815 -813v553h155z" />
    <glyph glyph-name="uni2199" unicode="&#x2199;" horiz-adv-x="1263" 
d="M137 0v825h156v-553l815 813l115 -114l-813 -815h553v-156h-826z" />
    <glyph glyph-name="uni219E" unicode="&#x219e;" horiz-adv-x="1566" 
d="M41 512l584 584l110 -117l-393 -385h223l502 502l111 -117l-394 -385h711v-164h-711l394 -385l-111 -117l-502 502h-223l393 -385l-110 -117z" />
    <glyph glyph-name="uni219F" unicode="&#x219f;" horiz-adv-x="1249" 
d="M625 1401l583 -584l-116 -110l-385 391v-221l501 -502l-116 -111l-385 391v-655h-164v655l-385 -391l-117 111l502 502v221l-385 -391l-117 110z" />
    <glyph glyph-name="uni21A0" unicode="&#x21a0;" horiz-adv-x="1566" 
d="M942 1096l584 -584l-584 -584l-111 117l392 385h-222l-501 -502l-111 117l391 385h-708v164h708l-391 385l111 117l501 -502h222l-392 385z" />
    <glyph glyph-name="uni21A1" unicode="&#x21a1;" horiz-adv-x="1249" 
d="M1208 543l-583 -584l-584 584l117 110l385 -393v223l-502 502l117 111l385 -394v658h164v-658l385 394l116 -111l-501 -502v-223l385 393z" />
    <glyph glyph-name="uni21A2" unicode="&#x21a2;" horiz-adv-x="1847" 
d="M41 512l584 584l110 -117l-393 -385h852l502 502l110 -117l-467 -467l467 -467l-110 -117l-502 502h-852l393 -385l-110 -117z" />
    <glyph glyph-name="uni21A3" unicode="&#x21a3;" horiz-adv-x="1847" 
d="M1223 1096l583 -584l-583 -584l-111 117l391 385h-850l-501 -502l-111 117l467 467l-467 467l111 117l501 -502h850l-391 385z" />
    <glyph glyph-name="uni21A4" unicode="&#x21a4;" horiz-adv-x="1632" 
d="M1495 1004v-1004h-174v430h-979l393 -385l-110 -117l-584 584l584 584l110 -117l-393 -385h979v410h174z" />
    <glyph glyph-name="uni21A5" unicode="&#x21a5;" horiz-adv-x="1249" 
d="M625 1401l583 -584l-116 -110l-385 391v-924h409v-174h-1003v174h430v924l-385 -391l-117 110z" />
    <glyph glyph-name="uni21A6" unicode="&#x21a6;" horiz-adv-x="1632" 
d="M311 430v-430h-174v1004h174v-410h977l-391 385l111 117l583 -584l-583 -584l-111 117l391 385h-977z" />
    <glyph glyph-name="uni21A7" unicode="&#x21a7;" horiz-adv-x="1249" 
d="M1208 543l-583 -584l-584 584l117 110l385 -393v926h-430v174h1003v-174h-409v-926l385 393z" />
    <glyph glyph-name="partialdiff" unicode="&#x2202;" horiz-adv-x="1091" 
d="M821 500q0 185 -80 276.5t-209 91.5q-135 0 -206.5 -96.5t-71.5 -271.5q0 -177 71 -275t207 -98q130 0 209.5 93t79.5 280zM530 -25q-215 0 -337.5 139.5t-122.5 385.5q0 239 121.5 379.5t316.5 140.5q184 0 293 -148l2 2q-57 159 -197.5 262t-312.5 109v154
q207 -10 371 -117.5t255 -288t91 -401.5q0 -304 -129.5 -460.5t-350.5 -156.5z" />
    <glyph glyph-name="Delta" unicode="&#x2206;" horiz-adv-x="1327" 
d="M-10 0l674 1384l673 -1384h-1347zM1069 164l-405 846l-406 -846h811z" />
    <glyph glyph-name="product" unicode="&#x220f;" horiz-adv-x="1267" 
d="M311 -354h-174v1714h993v-1714h-174v1550h-645v-1550z" />
    <glyph glyph-name="summation" unicode="&#x2211;" horiz-adv-x="1118" 
d="M61 -211l514 713l-514 715v143h996v-164h-787l506 -694l-506 -692h787v-164h-996v143z" />
    <glyph glyph-name="minus" unicode="&#x2212;" horiz-adv-x="1177" 
d="M72 594h1034v-164h-1034v164z" />
    <glyph glyph-name="radical" unicode="&#x221a;" horiz-adv-x="970" 
d="M0 432l283 129l278 -659l240 1458h170l-299 -1714h-168l-307 688l-123 -55z" />
    <glyph glyph-name="infinity" unicode="&#x221e;" horiz-adv-x="1499" 
d="M1104 788q146 0 240 -87.5t94 -223.5q0 -139 -91.5 -226t-238.5 -87q-107 0 -192 51t-164 143q-82 -89 -168 -140.5t-191 -51.5q-147 0 -239.5 87t-92.5 224t95 224t247 87q188 0 349 -184q84 96 164 140t188 44zM399 322q69 0 125 35t127 122q-63 75 -119 114.5
t-126 39.5q-76 0 -126.5 -43.5t-50.5 -112.5q0 -65 48.5 -110t121.5 -45zM1090 633q-65 0 -119 -39.5t-119 -114.5q62 -76 121 -116.5t127 -40.5q72 0 121 44.5t49 110.5q0 65 -49.5 110.5t-130.5 45.5z" />
    <glyph glyph-name="integral" unicode="&#x222b;" horiz-adv-x="604" 
d="M213 264v613q0 114 13 201t37 144.5t59.5 94t78 52t95.5 15.5q72 0 121 -31.5t49 -92.5q0 -44 -26.5 -72.5t-70.5 -28.5q-42 0 -68 25t-26 63q0 29 8 49q-34 0 -55 -19t-30.5 -58t-12 -74t-2.5 -90q0 -21 2 -124t2 -183v-637q0 -177 -33.5 -285t-92.5 -151.5t-152 -43.5
q-72 0 -121 30t-49 91q0 44 26.5 72.5t69.5 28.5q42 0 68 -25.5t26 -63.5q0 -29 -8 -49q27 0 46 14.5t28.5 34.5t14.5 57t6 63.5t1 72.5q0 20 -2 123.5t-2 183.5z" />
    <glyph glyph-name="approxequal" unicode="&#x2248;" horiz-adv-x="1097" 
d="M764 721q54 0 90.5 35t40.5 96h162q-8 -126 -87 -204.5t-206 -78.5q-52 0 -114.5 20.5t-110.5 45t-105 45t-100 20.5q-54 0 -90.5 -35t-40.5 -96h-162q8 126 87 204.5t206 78.5q61 0 127 -20.5t112.5 -45t99.5 -45t91 -20.5zM764 365q54 0 90.5 35t40.5 96h162
q-8 -126 -87 -204.5t-206 -78.5q-52 0 -114.5 20.5t-110.5 45t-105 45t-100 20.5q-54 0 -90.5 -35t-40.5 -96h-162q8 126 87 204.5t206 78.5q61 0 127 -20.5t112.5 -45t99.5 -45t91 -20.5z" />
    <glyph glyph-name="notequal" unicode="&#x2260;" horiz-adv-x="1159" 
d="M338 248h-236v164h324l119 221h-443v164h531l155 286l142 -69l-119 -217h246v-164h-334l-119 -221h453v-164h-541l-170 -318l-141 70z" />
    <glyph glyph-name="lessequal" unicode="&#x2264;" horiz-adv-x="1157" 
d="M326 621l739 -232v-184l-977 342v147l977 350v-186zM82 0v164h993v-164h-993z" />
    <glyph glyph-name="greaterequal" unicode="&#x2265;" horiz-adv-x="1157" 
d="M831 621l-739 237v186l977 -350v-147l-977 -342v184zM1075 0h-993v164h993v-164z" />
    <glyph glyph-name="uni25A0" unicode="&#x25a0;" horiz-adv-x="1277" 
d="M137 0v1004h1004v-1004h-1004z" />
    <glyph glyph-name="uni25A1" unicode="&#x25a1;" horiz-adv-x="1277" 
d="M137 0v1004h1004v-1004h-1004zM262 881v-756h756v756h-756z" />
    <glyph glyph-name="lozenge" unicode="&#x25ca;" horiz-adv-x="968" 
d="M492 1135l-279 -486l279 -485l276 485zM20 649l472 801l456 -801l-456 -801z" />
    <glyph glyph-name="uni25CB" unicode="&#x25cb;" horiz-adv-x="1183" 
d="M70 498q0 106 41 203t111 167t167 111t203 41t203 -41t167 -111t111 -167t41 -203q0 -142 -69.5 -262.5t-190 -190.5t-262.5 -70t-262.5 70t-190 190.5t-69.5 262.5zM592 94q166 0 280.5 117t114.5 287t-114.5 286.5t-280.5 116.5t-280.5 -116.5t-114.5 -286.5
q0 -167 115 -285.5t280 -118.5z" />
    <glyph glyph-name="uni25CF" unicode="&#x25cf;" horiz-adv-x="1183" 
d="M70 498q0 106 41 203t111 167t167 111t203 41t203 -41t167 -111t111 -167t41 -203q0 -142 -69.5 -262.5t-190 -190.5t-262.5 -70t-262.5 70t-190 190.5t-69.5 262.5z" />
    <glyph glyph-name="onesuperior" horiz-adv-x="440" 
d="M334 834h-137v583h-172v94q49 2 76.5 5.5t54 13.5t44 29t31.5 51h103v-776z" />
    <glyph glyph-name="threesuperior" horiz-adv-x="692" 
d="M342 928q67 0 110.5 33.5t43.5 91.5q0 129 -203 129h-29v112h23q188 0 188 115q0 51 -37.5 79t-93.5 28q-66 0 -106.5 -39t-51.5 -103l-133 15q18 109 94.5 172t204.5 63q69 0 127 -20t97.5 -68.5t39.5 -118.5q0 -56 -30 -101t-80 -71q64 -25 97.5 -76.5t33.5 -113.5
q0 -113 -85 -174.5t-214 -61.5q-128 0 -204 70.5t-89 173.5l133 14q11 -66 52 -107.5t112 -41.5z" />
    <glyph glyph-name="twosuperior" horiz-adv-x="659" 
d="M344 1624q119 0 191.5 -56t72.5 -155q0 -33 -11.5 -67t-27 -62.5t-48 -65t-58 -62.5t-74.5 -67t-80 -66t-90 -71h377v-118h-553v112q220 176 279 231q129 120 141 204q2 11 2 22q0 52 -37.5 82.5t-93.5 30.5q-60 0 -99.5 -38t-39.5 -122h-138q-1 121 77.5 194.5
t209.5 73.5z" />
    <glyph glyph-name="commaaccent" horiz-adv-x="268" 
d="M47 -238v170h180v-182l-84 -170h-102l74 182h-68z" />
    <glyph glyph-name="a.alt" horiz-adv-x="1124" 
d="M987 1004v-1004h-168l-6 137q-106 -162 -326 -162q-185 0 -301 141.5t-116 383.5q0 239 121.5 379.5t316.5 140.5q105 0 183.5 -40t121.5 -108v132h174zM532 127q59 0 110 22t92 66t64 117.5t23 167.5q0 185 -80 276.5t-209 91.5q-135 0 -206.5 -96.5t-71.5 -271.5
q0 -177 71 -275t207 -98z" />
    <glyph glyph-name="aacute.alt" horiz-adv-x="1124" 
d="M987 0v1004h-174v-132q-43 68 -121.5 108t-183.5 40q-195 0 -316.5 -140.5t-121.5 -379.5q0 -242 116 -383.5t301 -141.5q220 0 326 162l6 -137h168zM532 127q-136 0 -207 98t-71 275q0 175 71.5 271.5t206.5 96.5q129 0 209 -91.5t80 -276.5q0 -94 -23 -167.5
t-64 -117.5t-92 -66t-110 -22zM829 1360l-247 -242h-146l172 242h221z" />
    <glyph glyph-name="abreve.alt" horiz-adv-x="1124" 
d="M987 0v1004h-174v-132q-43 68 -121.5 108t-183.5 40q-195 0 -316.5 -140.5t-121.5 -379.5q0 -242 116 -383.5t301 -141.5q220 0 326 162l6 -137h168zM532 127q-136 0 -207 98t-71 275q0 175 71.5 271.5t206.5 96.5q129 0 209 -91.5t80 -276.5q0 -94 -23 -167.5
t-64 -117.5t-92 -66t-110 -22zM858 1360q-26 -252 -305 -252q-76 0 -133.5 20t-91.5 56t-51.5 79.5t-22.5 96.5h135q13 -137 166 -137q155 0 168 137h135z" />
    <glyph glyph-name="acircumflex.alt" horiz-adv-x="1124" 
d="M987 0v1004h-174v-132q-43 68 -121.5 108t-183.5 40q-195 0 -316.5 -140.5t-121.5 -379.5q0 -242 116 -383.5t301 -141.5q220 0 326 162l6 -137h168zM532 127q-136 0 -207 98t-71 275q0 175 71.5 271.5t206.5 96.5q129 0 209 -91.5t80 -276.5q0 -94 -23 -167.5
t-64 -117.5t-92 -66t-110 -22zM645 1360l246 -242h-182l-150 123l-151 -123h-183l252 242h168z" />
    <glyph glyph-name="adieresis.alt" horiz-adv-x="1124" 
d="M987 0v1004h-174v-132q-43 68 -121.5 108t-183.5 40q-195 0 -316.5 -140.5t-121.5 -379.5q0 -242 116 -383.5t301 -141.5q220 0 326 162l6 -137h168zM532 127q-136 0 -207 98t-71 275q0 175 71.5 271.5t206.5 96.5q129 0 209 -91.5t80 -276.5q0 -94 -23 -167.5
t-64 -117.5t-92 -66t-110 -22zM274 1141v188h175v-188h-175zM711 1329h174v-188h-174v188z" />
    <glyph glyph-name="ae.alt" horiz-adv-x="1820" 
d="M1288 -25q-204 0 -321 117v-92h-148l-6 137q-106 -162 -326 -162q-185 0 -301 141.5t-116 383.5q0 239 121.5 379.5t316.5 140.5q105 0 183.5 -40t121.5 -108v132h174l-4 -97q122 113 307 113q154 0 266.5 -76t164.5 -206t40 -292h-774q0 -145 83.5 -231t213.5 -86
q115 0 182 45t101 131l178 -22q-38 -133 -157.5 -220.5t-299.5 -87.5zM532 127q59 0 110 22t92 66t64 117.5t23 167.5q0 185 -80 276.5t-209 91.5q-135 0 -206.5 -96.5t-71.5 -271.5q0 -177 71 -275t207 -98zM989 592h588q-2 52 -21 101t-53.5 89.5t-90 65t-122.5 24.5
q-132 0 -213.5 -74.5t-87.5 -205.5z" />
    <glyph glyph-name="aeacute.alt" horiz-adv-x="1820" 
d="M1288 -25q180 0 299.5 87.5t157.5 220.5l-178 22q-34 -86 -101 -131t-182 -45q-130 0 -213.5 86t-83.5 231h774q12 162 -40 292t-164.5 206t-266.5 76q-185 0 -307 -113l4 97h-174v-132q-43 68 -121.5 108t-183.5 40q-195 0 -316.5 -140.5t-121.5 -379.5
q0 -242 116 -383.5t301 -141.5q220 0 326 162l6 -137h148v92q117 -117 321 -117zM532 127q-136 0 -207 98t-71 275q0 175 71.5 271.5t206.5 96.5q129 0 209 -91.5t80 -276.5q0 -94 -23 -167.5t-64 -117.5t-92 -66t-110 -22zM1577 592h-588q6 131 87.5 205.5t213.5 74.5
q67 0 122.5 -24.5t90 -65t53.5 -89.5t21 -101zM1219 1360l-248 -242h-146l172 242h222z" />
    <glyph glyph-name="agrave.alt" horiz-adv-x="1124" 
d="M987 0v1004h-174v-132q-43 68 -121.5 108t-183.5 40q-195 0 -316.5 -140.5t-121.5 -379.5q0 -242 116 -383.5t301 -141.5q220 0 326 162l6 -137h168zM532 127q-136 0 -207 98t-71 275q0 175 71.5 271.5t206.5 96.5q129 0 209 -91.5t80 -276.5q0 -94 -23 -167.5
t-64 -117.5t-92 -66t-110 -22zM580 1118l-248 242h221l172 -242h-145z" />
    <glyph glyph-name="amacron.alt" horiz-adv-x="1124" 
d="M987 0v1004h-174v-132q-43 68 -121.5 108t-183.5 40q-195 0 -316.5 -140.5t-121.5 -379.5q0 -242 116 -383.5t301 -141.5q220 0 326 162l6 -137h168zM532 127q-136 0 -207 98t-71 275q0 175 71.5 271.5t206.5 96.5q129 0 209 -91.5t80 -276.5q0 -94 -23 -167.5
t-64 -117.5t-92 -66t-110 -22zM854 1167h-571v144h571v-144z" />
    <glyph glyph-name="aogonek.alt" horiz-adv-x="1124" 
d="M532 127q59 0 110 22t92 66t64 117.5t23 167.5q0 185 -80 276.5t-209 91.5q-135 0 -206.5 -96.5t-71.5 -271.5q0 -177 71 -275t207 -98zM987 1004v-1004q-77 -38 -122.5 -79.5t-45.5 -82.5t36 -61.5t89 -20.5q52 0 94 17v-115q-54 -23 -131 -23q-61 0 -114.5 17.5
t-92 59.5t-38.5 102q0 108 157 186l-6 137q-106 -162 -326 -162q-185 0 -301 141.5t-116 383.5q0 239 121.5 379.5t316.5 140.5q105 0 183.5 -40t121.5 -108v132h174z" />
    <glyph glyph-name="aring.alt" horiz-adv-x="1124" 
d="M987 0v1004h-174v-132q-43 68 -121.5 108t-183.5 40q-195 0 -316.5 -140.5t-121.5 -379.5q0 -242 116 -383.5t301 -141.5q220 0 326 162l6 -137h168zM532 127q-136 0 -207 98t-71 275q0 175 71.5 271.5t206.5 96.5q129 0 209 -91.5t80 -276.5q0 -94 -23 -167.5
t-64 -117.5t-92 -66t-110 -22zM539 1425q72 0 122 -46t50 -115q0 -70 -49.5 -116t-122.5 -46t-122.5 46t-49.5 116q0 69 50 115t122 46zM539 1346q-33 0 -57.5 -23.5t-24.5 -58.5q0 -34 24.5 -57t57.5 -23t57.5 23t24.5 57q0 35 -24.5 58.5t-57.5 23.5z" />
    <glyph glyph-name="aringacute.alt" horiz-adv-x="1124" 
d="M776 1569l-184 -195q49 -18 79.5 -58t30.5 -93q0 -70 -49.5 -116t-122.5 -46t-122.5 46t-49.5 116q0 46 31 96l166 250h221zM530 1305q-33 0 -57 -23.5t-24 -58.5q0 -34 24 -57t57 -23t57.5 23t24.5 57q0 35 -24.5 58.5t-57.5 23.5zM987 0v1004h-174v-132
q-43 68 -121.5 108t-183.5 40q-195 0 -316.5 -140.5t-121.5 -379.5q0 -242 116 -383.5t301 -141.5q220 0 326 162l6 -137h168zM532 127q-136 0 -207 98t-71 275q0 175 71.5 271.5t206.5 96.5q129 0 209 -91.5t80 -276.5q0 -94 -23 -167.5t-64 -117.5t-92 -66t-110 -22z" />
    <glyph glyph-name="atilde.alt" horiz-adv-x="1124" 
d="M987 0v1004h-174v-132q-43 68 -121.5 108t-183.5 40q-195 0 -316.5 -140.5t-121.5 -379.5q0 -242 116 -383.5t301 -141.5q220 0 326 162l6 -137h168zM532 127q-136 0 -207 98t-71 275q0 175 71.5 271.5t206.5 96.5q129 0 209 -91.5t80 -276.5q0 -94 -23 -167.5
t-64 -117.5t-92 -66t-110 -22zM682 1260q78 0 90 86h135q-19 -112 -79 -164t-142 -52q-49 0 -96.5 23t-88.5 45.5t-73 22.5q-37 0 -59 -22t-27 -62h-135q18 107 76 160t143 53q50 0 95.5 -22.5t85.5 -45t75 -22.5z" />
    <glyph glyph-name="uni0227.alt" horiz-adv-x="1124" 
d="M987 0v1004h-174v-132q-43 68 -121.5 108t-183.5 40q-195 0 -316.5 -140.5t-121.5 -379.5q0 -242 116 -383.5t301 -141.5q220 0 326 162l6 -137h168zM532 127q-136 0 -207 98t-71 275q0 175 71.5 271.5t206.5 96.5q129 0 209 -91.5t80 -276.5q0 -94 -23 -167.5
t-64 -117.5t-92 -66t-110 -22zM453 1333h174v-188h-174v188z" />
    <glyph glyph-name="uni1EA1.alt" horiz-adv-x="1124" 
d="M987 1004v-1004h-168l-6 137q-106 -162 -326 -162q-185 0 -301 141.5t-116 383.5q0 239 121.5 379.5t316.5 140.5q105 0 183.5 -40t121.5 -108v132h174zM532 127q59 0 110 22t92 66t64 117.5t23 167.5q0 185 -80 276.5t-209 91.5q-135 0 -206.5 -96.5t-71.5 -271.5
q0 -177 71 -275t207 -98zM438 -100h174v-189h-174v189z" />
    <glyph glyph-name="l.alt" horiz-adv-x="473" 
d="M133 256v1104h174v-1079q0 -84 17.5 -109t89.5 -25h37v-147h-76q-77 0 -121.5 9.5t-73 39t-38 77t-9.5 130.5z" />
    <glyph glyph-name="lacute.alt" horiz-adv-x="473" 
d="M133 256v1104h174v-1079q0 -84 17.5 -109t89.5 -25h37v-147h-76q-77 0 -121.5 9.5t-73 39t-38 77t-9.5 130.5zM594 1645l-283 -215h-172l209 215h246z" />
    <glyph glyph-name="lcaron.alt" horiz-adv-x="530" 
d="M612 1360l-133 -324h-110l57 324h186zM133 256v1104h174v-1079q0 -84 17.5 -109t89.5 -25h37v-147h-76q-77 0 -121.5 9.5t-73 39t-38 77t-9.5 130.5z" />
    <glyph glyph-name="lcommaaccent.alt" horiz-adv-x="473" 
d="M133 256v1104h174v-1079q0 -84 17.5 -109t89.5 -25h37v-147h-76q-77 0 -121.5 9.5t-73 39t-38 77t-9.5 130.5zM137 -238v170h180v-182l-84 -170h-102l74 182h-68z" />
    <glyph glyph-name="ldot.alt" horiz-adv-x="473" 
d="M133 1446v188h174v-188h-174zM133 256v1104h174v-1079q0 -84 17.5 -109t89.5 -25h37v-147h-76q-77 0 -121.5 9.5t-73 39t-38 77t-9.5 130.5z" />
    <glyph glyph-name="lslash.alt" horiz-adv-x="473" 
d="M-4 508v145l137 95v612h174v-494l137 95v-146l-137 -94v-440q0 -84 17.5 -109t89.5 -25h37v-147h-76q-77 0 -121.5 9.5t-73 39t-38 77t-9.5 130.5v346z" />
    <glyph glyph-name="zero.plf" horiz-adv-x="1259" 
d="M629 -25q-180 0 -301.5 89t-178.5 246t-57 376q0 330 134.5 514t402.5 184q180 0 302 -86t179 -240.5t57 -371.5q0 -219 -57 -376t-179 -246t-302 -89zM629 127q167 0 260.5 141t93.5 418q0 275 -93 411t-261 136t-260.5 -136t-92.5 -411q0 -277 93 -418t260 -141z" />
    <glyph glyph-name="zeroslashed.plf" horiz-adv-x="1259" 
d="M629 -25q-180 0 -301.5 89t-178.5 246t-57 376q0 330 134.5 514t402.5 184q180 0 302 -86t179 -240.5t57 -371.5q0 -219 -57 -376t-179 -246t-302 -89zM629 127q167 0 260.5 141t93.5 418q0 41 -2 59l-688 -270q32 -174 118.5 -261t217.5 -87zM276 686v-57l689 268
q-33 169 -119.5 252.5t-216.5 83.5q-168 0 -260.5 -136t-92.5 -411z" />
    <glyph glyph-name="one.plf" horiz-adv-x="700" 
d="M516 0h-174v1059h-319v119q65 2 108.5 6.5t86.5 16t72.5 31.5t56.5 51.5t50 76.5h119v-1360z" />
    <glyph glyph-name="two.plf" horiz-adv-x="1122" 
d="M575 1384q196 0 317.5 -95.5t121.5 -266.5q0 -78 -24 -152.5t-80.5 -152t-108 -136.5t-151 -143.5t-161 -133.5t-184.5 -142h746v-162h-994v156q162 120 269 204t211 176.5t162.5 165t94 149t35.5 148.5q0 108 -68 171t-190 63q-59 0 -109.5 -16.5t-93 -51.5t-68 -96
t-26.5 -143l-178 4q-3 200 129 327t350 127z" />
    <glyph glyph-name="three.plf" horiz-adv-x="1118" 
d="M537 127q140 0 225.5 67t85.5 187q0 258 -397 258h-29v156h22q184 0 275.5 54.5t91.5 172.5q0 100 -76 155.5t-192 55.5q-134 0 -211 -70.5t-88 -189.5l-181 14q15 177 144.5 287t339.5 110q92 0 170 -19t142 -59t100 -108.5t36 -159.5q0 -105 -58.5 -188t-166.5 -125
q262 -84 262 -342q0 -99 -41.5 -178.5t-111.5 -128.5t-158 -75t-186 -26q-117 0 -210 34.5t-151.5 93.5t-91 132t-39.5 156l178 15q16 -131 95 -205t221 -74z" />
    <glyph glyph-name="four.plf" horiz-adv-x="1187" 
d="M719 1122l-494 -618h494v618zM1147 504v-164h-254v-340h-174v340h-686v164l684 856h176v-856h254z" />
    <glyph glyph-name="five.plf" horiz-adv-x="1155" 
d="M578 127q131 0 219 84.5t88 234.5q0 81 -27 144t-72.5 100t-99.5 55.5t-113 18.5q-96 0 -168 -44.5t-98 -101.5l-174 9l90 733h793v-168h-651l-50 -379q108 102 299 102q123 0 225 -53t166 -161t64 -252q0 -113 -40.5 -204.5t-110 -149.5t-157.5 -89t-186 -31
q-93 0 -171 23t-132.5 61.5t-94.5 92t-62.5 112t-30.5 123.5l178 14q44 -274 316 -274z" />
    <glyph glyph-name="six.plf" horiz-adv-x="1171" 
d="M293 436q0 -141 81.5 -225t217.5 -84q134 0 218.5 85t84.5 224q0 138 -84 225t-217 87q-135 0 -218 -87t-83 -225zM610 1233q-157 0 -244.5 -137.5t-95.5 -378.5q51 85 143 136.5t222 51.5q193 0 318.5 -129t125.5 -332q0 -127 -59 -233.5t-171 -171t-255 -64.5
q-254 0 -378 167.5t-124 488.5q0 120 17.5 227t58 205t101 168t153.5 111.5t209 41.5q97 0 175.5 -28t128.5 -76.5t80.5 -107t41.5 -125.5l-189 -3q-17 92 -84.5 140.5t-173.5 48.5z" />
    <glyph glyph-name="seven.plf" horiz-adv-x="976" 
d="M20 1190v170h957v-170q-261 -211 -411.5 -510t-174.5 -680h-209q23 363 175.5 662t416.5 528h-754z" />
    <glyph glyph-name="eight.plf" horiz-adv-x="1191" 
d="M596 1384q209 0 335 -97.5t126 -250.5q0 -91 -47 -175.5t-144 -135.5q65 -27 112 -67t73 -86.5t37.5 -93t11.5 -95.5q0 -190 -142 -299t-362 -109t-362 109t-142 299q0 49 11.5 95.5t37.5 93t73 86.5t112 67q-97 51 -144 135.5t-47 175.5q0 153 126 250.5t335 97.5z
M596 645q-146 0 -233 -71t-87 -191q0 -119 86.5 -187.5t233.5 -68.5t233 68.5t86 187.5q0 120 -86.5 191t-232.5 71zM883 1018q0 100 -78.5 157.5t-208.5 57.5t-208.5 -57.5t-78.5 -157.5q0 -103 79.5 -168.5t207.5 -65.5t207.5 65.5t79.5 168.5z" />
    <glyph glyph-name="nine.plf" horiz-adv-x="1161" 
d="M868 924q0 141 -81.5 225t-217.5 84q-134 0 -218.5 -85t-84.5 -224q0 -138 84 -225t217 -87q135 0 218 87t83 225zM551 127q157 0 244.5 137.5t95.5 378.5q-51 -85 -143 -136.5t-222 -51.5q-193 0 -318.5 128.5t-125.5 331.5q0 127 59 233.5t171 171t255 64.5
q502 0 502 -655q0 -121 -17 -227.5t-56.5 -204.5t-99.5 -168.5t-152.5 -112t-208.5 -41.5q-97 0 -176 28t-130.5 77t-82.5 107.5t-42 125.5l189 2q17 -92 84 -140t174 -48z" />
    <glyph glyph-name="zero.pof" horiz-adv-x="1181" 
d="M590 -23q-252 0 -380 173t-128 475q0 301 127.5 470t380.5 169t381.5 -169.5t128.5 -469.5q0 -301 -129 -474.5t-381 -173.5zM590 129q154 0 241 126t87 370q0 243 -86.5 365t-241.5 122q-153 0 -238.5 -122t-85.5 -365q0 -244 85.5 -370t238.5 -126z" />
    <glyph glyph-name="zeroslashed.pof" horiz-adv-x="1181" 
d="M590 -23q-252 0 -380 173t-128 475q0 301 127.5 470t380.5 169t381.5 -169.5t128.5 -469.5q0 -301 -129 -474.5t-381 -173.5zM590 129q154 0 241 126t87 370q0 23 -3 47l-630 -250q32 -146 110 -219.5t195 -73.5zM266 625v-52l633 248q-32 146 -111 218.5t-198 72.5
q-153 0 -238.5 -122t-85.5 -365z" />
    <glyph glyph-name="one.pof" horiz-adv-x="636" 
d="M473 0h-174v954h-299v125q154 5 228.5 35.5t123.5 128.5h121v-1243z" />
    <glyph glyph-name="two.pof" horiz-adv-x="1056" 
d="M545 1264q185 0 300.5 -88.5t115.5 -245.5q0 -45 -12.5 -91t-29.5 -85.5t-53 -87t-64.5 -82t-84 -85.5t-90 -81.5t-105 -85.5t-107.5 -83t-116 -87h696v-162h-938v156q153 111 251.5 185.5t196 158.5t151.5 148t87 132t33 131q0 94 -61.5 147.5t-173.5 53.5
q-115 0 -193.5 -65t-81.5 -205l-176 2q-3 187 123 303.5t332 116.5z" />
    <glyph glyph-name="three.pof" horiz-adv-x="1056" 
d="M500 129q129 0 207.5 57.5t78.5 161.5q0 61 -28 105.5t-79 70t-115.5 37.5t-145.5 12h-31v156h25q340 0 340 199q0 88 -69.5 136t-176.5 48q-125 0 -197 -63t-84 -170l-176 16q15 166 138 267.5t323 101.5q86 0 160.5 -18.5t135 -55.5t95.5 -100.5t35 -147.5
q0 -95 -54.5 -169t-154.5 -114q244 -75 244 -309q0 -91 -39.5 -163.5t-106 -117.5t-150.5 -68.5t-177 -23.5q-110 0 -198 31.5t-143.5 86t-87 121.5t-38.5 144l176 17q14 -114 88.5 -181t204.5 -67z" />
    <glyph glyph-name="four.pof" horiz-adv-x="1077" 
d="M655 995l-452 -526h452v526zM1067 469v-166h-238v-303h-174v303h-645v162l645 776h174v-772h238z" />
    <glyph glyph-name="five.pof" horiz-adv-x="1073" 
d="M537 129q122 0 203 73.5t81 205.5q0 70 -25 125t-67 87t-92 48t-105 16q-89 0 -156 -38t-91 -89l-170 8l84 676h753v-166h-612l-45 -323q104 84 280 84q86 0 163 -28t136.5 -80.5t94.5 -135t35 -184.5t-38 -185.5t-103.5 -136t-149.5 -81t-178 -28.5q-88 0 -161.5 21
t-125.5 57t-90 85.5t-59 103.5t-29 114l176 17q20 -115 91 -180.5t200 -65.5z" />
    <glyph glyph-name="six.pof" horiz-adv-x="1112" 
d="M291 399q0 -124 75 -197t201 -73q124 0 201.5 74t77.5 196q0 120 -77 195.5t-200 75.5q-124 0 -201 -75.5t-77 -195.5zM584 1112q-145 0 -226.5 -118.5t-87.5 -325.5q48 71 133.5 114t204.5 43q184 0 303 -117t119 -305q0 -183 -127.5 -304.5t-333.5 -121.5
q-240 0 -358.5 157.5t-118.5 445.5q0 109 16.5 206.5t55 186t96 152.5t145 101.5t197.5 37.5q93 0 168 -27.5t123 -74t76.5 -101.5t38.5 -117l-185 -2q-15 81 -77.5 125.5t-161.5 44.5z" />
    <glyph glyph-name="seven.pof" horiz-adv-x="927" 
d="M20 1075v166h908v-162q-251 -213 -388.5 -476t-160.5 -603h-207q41 636 557 1075h-709z" />
    <glyph glyph-name="eight.pof" horiz-adv-x="1118" 
d="M559 1264q198 0 317 -90.5t119 -229.5q0 -85 -43.5 -160t-134.5 -122q117 -50 168 -132.5t51 -179.5q0 -117 -64 -202.5t-170.5 -128t-242.5 -42.5q-209 0 -343 99t-134 274q0 62 18.5 116.5t69 108t129.5 87.5q-89 45 -132.5 121.5t-43.5 160.5q0 139 119 229.5
t317 90.5zM559 582q-134 0 -213.5 -62.5t-79.5 -165.5q0 -104 79 -164.5t214 -60.5q134 0 213.5 60.5t79.5 164.5q0 103 -80 165.5t-213 62.5zM821 924q0 87 -71.5 137.5t-190.5 50.5q-120 0 -192 -50.5t-72 -137.5q0 -88 73 -144.5t191 -56.5t190 56t72 145z" />
    <glyph glyph-name="nine.pof" horiz-adv-x="1110" 
d="M821 842q0 123 -75.5 196.5t-200.5 73.5t-203 -74t-78 -196q0 -120 78 -195.5t201 -75.5q124 0 201 75.5t77 195.5zM526 129q146 0 228 118t88 324q-47 -71 -132.5 -113t-205.5 -42q-184 0 -303 116t-119 304q0 182 127 305t332 123q241 0 359 -157t118 -445
q0 -110 -16 -207.5t-54 -186.5t-95 -152.5t-144 -101t-197 -37.5q-93 0 -168.5 27.5t-124 74t-77.5 101.5t-40 117l187 2q15 -82 77 -126t160 -44z" />
    <glyph glyph-name="zero.tlf" horiz-adv-x="1290" 
d="M643 -25q-180 0 -301.5 89t-178.5 246t-57 376q0 330 134.5 514t402.5 184q269 0 404 -184t135 -514q0 -219 -57.5 -376t-179.5 -246t-302 -89zM643 127q167 0 260.5 141t93.5 418q0 275 -93 411t-261 136t-260 -135.5t-92 -411.5q0 -277 92.5 -418t259.5 -141z" />
    <glyph glyph-name="zeroslashed.tlf" horiz-adv-x="1290" 
d="M643 -25q-180 0 -301.5 89t-178.5 246t-57 376q0 330 134.5 514t402.5 184q269 0 404 -184t135 -514q0 -219 -57.5 -376t-179.5 -246t-302 -89zM643 127q167 0 260.5 141t93.5 418q0 41 -2 59l-688 -270q32 -174 118.5 -261t217.5 -87zM291 686v-57l688 268
q-33 169 -119.5 252.5t-216.5 83.5q-168 0 -260 -135.5t-92 -411.5z" />
    <glyph glyph-name="one.tlf" horiz-adv-x="1290" 
d="M752 160h329v-160h-872v160h369v901h-367v119q177 5 273 40.5t149 141.5h119v-1202z" />
    <glyph glyph-name="two.tlf" horiz-adv-x="1290" 
d="M666 1384q196 0 317 -95.5t121 -266.5q0 -78 -24 -152.5t-80.5 -152t-108 -136.5t-151 -143.5t-161 -133.5t-184.5 -142h746v-162h-994v156q163 120 269.5 204t211 177t163 165t94 148.5t35.5 148.5q0 108 -68 171t-190 63q-59 0 -109.5 -16.5t-93 -51.5t-68 -96
t-26.5 -143l-179 4q-3 200 129.5 327t350.5 127z" />
    <glyph glyph-name="three.tlf" horiz-adv-x="1290" 
d="M643 127q140 0 225.5 67t85.5 187q0 258 -397 258h-29v156h23q184 0 275.5 54.5t91.5 172.5q0 100 -76.5 155.5t-192.5 55.5q-134 0 -211 -70.5t-88 -189.5l-180 14q15 177 144 287t339 110q92 0 170.5 -19t142 -59t100 -108.5t36.5 -159.5q0 -105 -58.5 -188
t-166.5 -125q262 -84 262 -342q0 -99 -41.5 -178.5t-112 -128.5t-158.5 -75t-186 -26q-117 0 -210 34.5t-151 93.5t-90.5 132t-39.5 156l178 15q16 -131 94.5 -205t220.5 -74z" />
    <glyph glyph-name="four.tlf" horiz-adv-x="1290" 
d="M774 1122l-493 -618h493v618zM1202 504v-164h-254v-340h-174v340h-686v164l684 856h176v-856h254z" />
    <glyph glyph-name="five.tlf" horiz-adv-x="1290" 
d="M645 127q131 0 219 84.5t88 234.5q0 81 -27 144t-72 100t-99 55.5t-113 18.5q-96 0 -168 -44.5t-98 -101.5l-174 9l90 733h792v-168h-651l-49 -379q108 102 299 102q123 0 225 -53t166 -161t64 -252q0 -113 -40.5 -204.5t-110 -149.5t-157.5 -89t-186 -31q-93 0 -171 23
t-132.5 61.5t-94.5 92t-62.5 112t-30.5 123.5l178 14q44 -274 315 -274z" />
    <glyph glyph-name="six.tlf" horiz-adv-x="1290" 
d="M352 436q0 -141 81.5 -225t217.5 -84q134 0 218.5 85t84.5 224q0 138 -84 225t-217 87q-135 0 -218 -87t-83 -225zM670 1233q-157 0 -244.5 -137.5t-95.5 -378.5q51 85 142.5 136.5t221.5 51.5q193 0 319 -129t126 -332q0 -127 -59 -233.5t-171.5 -171t-255.5 -64.5
q-501 0 -501 656q0 120 17.5 227t57.5 205t101 168t153.5 111.5t208.5 41.5q97 0 175.5 -28t128.5 -76.5t80.5 -107t41.5 -125.5l-188 -3q-17 92 -84.5 140.5t-173.5 48.5z" />
    <glyph glyph-name="seven.tlf" horiz-adv-x="1290" 
d="M166 1190v170h956v-170q-261 -211 -411 -510t-174 -680h-209q23 363 175.5 662t416.5 528h-754z" />
    <glyph glyph-name="eight.tlf" horiz-adv-x="1290" 
d="M645 1384q209 0 335 -97.5t126 -250.5q0 -91 -47 -175.5t-144 -135.5q65 -27 112 -67t73 -86.5t37.5 -93t11.5 -95.5q0 -190 -142 -299t-362 -109t-362 109t-142 299q0 49 11.5 95.5t37.5 93t73 86.5t112 67q-97 51 -144 135.5t-47 175.5q0 153 126 250.5t335 97.5z
M645 645q-146 0 -232.5 -71t-86.5 -191q0 -119 86 -187.5t233 -68.5t233.5 68.5t86.5 187.5q0 120 -87 191t-233 71zM932 1018q0 100 -78.5 157.5t-208.5 57.5t-208.5 -57.5t-78.5 -157.5q0 -103 79.5 -168.5t207.5 -65.5t207.5 65.5t79.5 168.5z" />
    <glyph glyph-name="nine.tlf" horiz-adv-x="1290" 
d="M938 924q0 141 -81.5 225t-217.5 84q-134 0 -218.5 -85t-84.5 -224q0 -138 84 -225t217 -87q135 0 218 87t83 225zM621 127q157 0 244.5 137.5t95.5 378.5q-51 -85 -143 -136.5t-222 -51.5q-193 0 -318.5 128.5t-125.5 331.5q0 127 59 233.5t171 171t255 64.5
q502 0 502 -655q0 -121 -17 -227.5t-57 -204.5t-100 -168.5t-152.5 -112t-208.5 -41.5q-97 0 -176 28t-130 77t-82 107.5t-42 125.5l188 2q17 -91 84.5 -139.5t174.5 -48.5z" />
    <glyph glyph-name="zeroslashed.superior" horiz-adv-x="759" 
d="M383 819q-154 0 -233.5 109t-79.5 295q0 187 79.5 294t233.5 107q153 0 232 -107t79 -294q0 -186 -79.5 -295t-231.5 -109zM383 1516q-169 0 -172 -279l336 72q-24 207 -164 207zM383 928q78 0 122 68.5t48 199.5l-336 -72q12 -96 54.5 -146t111.5 -50z" />
    <glyph glyph-name="zeroslashed.inferior" horiz-adv-x="759" 
d="M383 -260q-154 0 -233.5 108.5t-79.5 294.5q0 187 79.5 294.5t233.5 107.5q153 0 232 -107.5t79 -294.5q0 -186 -79 -294.5t-232 -108.5zM383 436q-169 0 -172 -278l336 71q-24 207 -164 207zM383 -152q78 0 122 68.5t48 198.5l-336 -72q28 -195 166 -195z" />
    <glyph glyph-name="zero.denominator" horiz-adv-x="759" 
d="M383 -14q-154 0 -233.5 108.5t-79.5 294.5q0 187 79.5 294.5t233.5 107.5q153 0 232 -107.5t79 -294.5q0 -186 -79 -294.5t-232 -108.5zM383 94q83 0 126.5 75t43.5 220q0 293 -170 293q-172 0 -172 -293q0 -145 43.5 -220t128.5 -75z" />
    <glyph glyph-name="zeroslashed.denominator" horiz-adv-x="759" 
d="M383 -14q-154 0 -233.5 108.5t-79.5 294.5q0 187 79.5 294.5t233.5 107.5q153 0 232 -107.5t79 -294.5q0 -186 -79 -294.5t-232 -108.5zM383 682q-169 0 -172 -279l336 72q-24 207 -164 207zM383 94q78 0 122 68t48 198l-336 -71q27 -195 166 -195z" />
    <glyph glyph-name="one.denominator" horiz-adv-x="440" 
d="M334 0h-137v584h-172v94q95 3 137 20.5t69 77.5h103v-776z" />
    <glyph glyph-name="two.denominator" horiz-adv-x="659" 
d="M344 791q119 0 191.5 -56t72.5 -155q0 -33 -11.5 -67t-27 -62.5t-48 -65t-58 -62.5t-74.5 -67t-80 -66t-90 -71h377v-119h-553v113q219 176 276 228q129 119 144 202q2 13 2 26q0 52 -37.5 82.5t-93.5 30.5q-60 0 -99.5 -38t-39.5 -122h-138q-1 121 77.5 195t209.5 74z
" />
    <glyph glyph-name="three.denominator" horiz-adv-x="692" 
d="M342 94q67 0 110.5 33.5t43.5 91.5q0 129 -203 129h-29v113h23q188 0 188 114q0 51 -37.5 79t-93.5 28q-67 0 -107 -38.5t-51 -102.5l-133 14q18 109 94.5 172.5t204.5 63.5q69 0 127 -20t97.5 -68.5t39.5 -118.5q0 -56 -30 -101t-80 -71q64 -25 97.5 -76.5t33.5 -114.5
q0 -113 -85 -174t-214 -61q-128 0 -204 70t-89 173l133 15q11 -67 52 -108.5t112 -41.5z" />
    <glyph glyph-name="four.denominator" horiz-adv-x="722" 
d="M418 594l-236 -291h236v291zM692 303v-123h-137v-180h-137v180h-387v115l389 481h135v-473h137z" />
    <glyph glyph-name="five.denominator" horiz-adv-x="694" 
d="M346 94q66 0 108 42t42 118q0 79 -45.5 120.5t-108.5 41.5q-50 0 -87 -22.5t-50 -53.5l-127 8l51 428h477v-121h-364l-23 -176q61 47 160 47q107 0 182.5 -71.5t75.5 -198.5t-84 -198.5t-209 -71.5q-129 0 -203 71.5t-84 171.5l131 15q10 -67 48.5 -108.5t109.5 -41.5z
" />
    <glyph glyph-name="six.denominator" horiz-adv-x="696" 
d="M205 250q0 -70 42 -113t107 -43q64 0 106 43t42 113q0 69 -41.5 112.5t-106.5 43.5t-107 -43.5t-42 -112.5zM360 682q-76 0 -119.5 -66.5t-45.5 -181.5q62 80 184 80q112 0 188 -72t76 -192q0 -118 -80 -191t-207 -73q-150 0 -224.5 103t-74.5 278q0 86 17.5 160
t53.5 134.5t98 95t145 34.5q117 0 182 -64t74 -149h-138q-6 49 -41.5 76.5t-87.5 27.5z" />
    <glyph glyph-name="seven.denominator" horiz-adv-x="593" 
d="M20 655v121h570v-114q-106 -105 -170.5 -198t-104 -208t-47.5 -256h-153q16 359 329 655h-424z" />
    <glyph glyph-name="eight.denominator" horiz-adv-x="712" 
d="M356 791q122 0 195.5 -57t73.5 -144q0 -119 -97 -176q121 -63 121 -193q0 -111 -82 -173t-211 -62q-128 0 -209 62t-81 173q0 130 118 193q-46 28 -71 75.5t-25 100.5q0 87 73 144t195 57zM356 356q-68 0 -108.5 -36t-40.5 -95t40.5 -95t108.5 -36q69 0 110.5 36t41.5 95
t-41.5 95t-110.5 36zM489 573q0 50 -36 79.5t-97 29.5t-97 -29.5t-36 -79.5t36 -82t97 -32t97 32t36 82z" />
    <glyph glyph-name="nine.denominator" horiz-adv-x="688" 
d="M487 526q0 70 -42 113t-107 43t-106.5 -42.5t-41.5 -113.5q0 -69 41.5 -112t106.5 -43t107 43t42 112zM330 94q78 0 122 66.5t44 181.5q-26 -36 -73.5 -58t-107.5 -22q-114 0 -190 71t-76 191q0 118 78.5 192.5t206.5 74.5q153 0 227 -102.5t74 -278.5q0 -68 -10.5 -129
t-34 -115.5t-59 -94t-88.5 -62.5t-119 -23q-117 0 -185 64t-76 147l140 2q6 -49 40.5 -77t86.5 -28z" />
    <glyph glyph-name="zero.numerator" horiz-adv-x="759" 
d="M383 569q-154 0 -233.5 109t-79.5 295q0 187 79.5 294t233.5 107q153 0 232 -107t79 -294q0 -186 -79.5 -295t-231.5 -109zM383 678q83 0 126.5 75t43.5 220q0 293 -170 293q-172 0 -172 -293q0 -145 43.5 -220t128.5 -75z" />
    <glyph glyph-name="zeroslashed.numerator" horiz-adv-x="759" 
d="M383 569q-154 0 -233.5 109t-79.5 295q0 187 79.5 294t233.5 107q153 0 232 -107t79 -294q0 -186 -79.5 -295t-231.5 -109zM383 1266q-169 0 -172 -279l336 72q-24 207 -164 207zM383 678q78 0 122 68t48 198l-336 -72q27 -194 166 -194z" />
    <glyph glyph-name="one.numerator" horiz-adv-x="440" 
d="M334 584h-137v583h-172v95q95 3 137 20.5t69 77.5h103v-776z" />
    <glyph glyph-name="two.numerator" horiz-adv-x="659" 
d="M344 1374q119 0 191.5 -56t72.5 -155q0 -33 -11.5 -67t-27 -62.5t-48 -65t-58 -62.5t-74.5 -67t-80 -66t-90 -71h377v-118h-553v112q220 176 279 231q129 120 141 204q2 11 2 22q0 52 -37.5 82.5t-93.5 30.5q-60 0 -99.5 -38t-39.5 -122h-138q-1 121 77.5 194.5
t209.5 73.5z" />
    <glyph glyph-name="three.numerator" horiz-adv-x="692" 
d="M342 678q67 0 110.5 33.5t43.5 91.5q0 129 -203 129h-29v112h23q188 0 188 115q0 51 -37.5 79t-93.5 28q-66 0 -106.5 -39t-51.5 -103l-133 15q18 109 94.5 172t204.5 63q69 0 127 -20t97.5 -68.5t39.5 -118.5q0 -56 -30 -101t-80 -71q64 -25 97.5 -76.5t33.5 -113.5
q0 -113 -85 -174.5t-214 -61.5q-128 0 -204 70.5t-89 173.5l133 14q11 -66 52 -107.5t112 -41.5z" />
    <glyph glyph-name="four.numerator" horiz-adv-x="722" 
d="M418 1178l-236 -291h236v291zM692 887v-123h-137v-180h-137v180h-387v115l389 481h135v-473h137z" />
    <glyph glyph-name="five.numerator" horiz-adv-x="694" 
d="M346 678q66 0 108 42t42 118q0 79 -45.5 120t-108.5 41q-50 0 -87 -22t-50 -53l-127 8l51 428h477v-121h-364l-23 -176q61 47 160 47q107 0 182.5 -71.5t75.5 -198.5t-84.5 -199t-208.5 -72q-129 0 -203 72t-84 172l131 14q10 -67 48.5 -108t109.5 -41z" />
    <glyph glyph-name="six.numerator" horiz-adv-x="696" 
d="M205 834q0 -70 42 -113t107 -43q64 0 106 43t42 113q0 69 -41.5 112t-106.5 43t-107 -43t-42 -112zM360 1266q-76 0 -119.5 -66.5t-45.5 -181.5q62 80 184 80q112 0 188 -72t76 -192q0 -118 -80 -191.5t-207 -73.5q-150 0 -224.5 103t-74.5 278q0 86 17.5 160t53.5 134.5
t98 95t145 34.5q117 0 182 -64t74 -149h-138q-6 49 -41.5 77t-87.5 28z" />
    <glyph glyph-name="seven.numerator" horiz-adv-x="593" 
d="M20 1239v121h570v-115q-159 -157 -234.5 -305.5t-87.5 -355.5h-153q16 359 329 655h-424z" />
    <glyph glyph-name="eight.numerator" horiz-adv-x="712" 
d="M356 1374q122 0 195.5 -56.5t73.5 -143.5q0 -120 -97 -177q121 -63 121 -192q0 -111 -82 -173.5t-211 -62.5q-128 0 -209 62.5t-81 173.5q0 129 118 192q-46 28 -71 76t-25 101q0 87 73 143.5t195 56.5zM356 940q-68 0 -108.5 -36t-40.5 -95t40.5 -95t108.5 -36
q69 0 110.5 36t41.5 95t-41.5 95t-110.5 36zM489 1157q0 50 -36 79.5t-97 29.5t-97 -29.5t-36 -79.5t36 -82.5t97 -32.5t97 32.5t36 82.5z" />
    <glyph glyph-name="nine.numerator" horiz-adv-x="688" 
d="M487 1110q0 70 -42 113t-107 43t-106.5 -42.5t-41.5 -113.5q0 -69 41.5 -112.5t106.5 -43.5t107 43.5t42 112.5zM330 678q78 0 122 66.5t44 181.5q-26 -36 -73.5 -58t-107.5 -22q-114 0 -190 71t-76 191q0 118 78.5 192t206.5 74q153 0 227 -102.5t74 -278.5
q0 -68 -10.5 -129t-34 -115.5t-59 -94t-88.5 -62.5t-119 -23q-117 0 -185 64t-76 147l140 2q6 -49 40.5 -76.5t86.5 -27.5z" />
    <glyph glyph-name="a.superior" horiz-adv-x="647" 
d="M205 1229l-131 4q8 86 74 137t180 51q126 0 184 -52.5t57 -166.5q-4 -102 -4 -172q0 -86 13 -196h-129l-5 65q-56 -80 -182 -80q-94 0 -150.5 55.5t-56.5 131.5q0 77 58 122q68 49 213 62l104 12v21q0 53 -27.5 74.5t-80.5 21.5t-83.5 -23t-33.5 -67zM434 1069v35
l-104 -12q-70 -7 -101.5 -28t-31.5 -58q0 -35 26.5 -57.5t69.5 -22.5q60 0 100.5 36t40.5 107z" />
    <glyph glyph-name="b.superior" horiz-adv-x="692" 
d="M92 834v776h139v-267q55 76 162 76q109 0 177.5 -81t68.5 -220q0 -136 -72 -217.5t-184 -81.5q-98 0 -154 70l-2 -55h-135zM365 1309q-64 0 -102 -50.5t-38 -140.5q0 -88 38 -139t102 -51q63 0 98 51.5t35 138.5q0 88 -35 139.5t-98 51.5z" />
    <glyph glyph-name="c.superior" horiz-adv-x="651" 
d="M340 1419q97 0 168 -52t92 -146l-133 -21q-8 48 -41.5 78.5t-89.5 30.5q-62 0 -100.5 -49t-38.5 -140q0 -92 38.5 -142t100.5 -50q51 0 87.5 26.5t47.5 85.5l133 -18q-22 -98 -96.5 -150.5t-173.5 -52.5q-131 0 -206 83t-75 216q0 135 76.5 218t210.5 83z" />
    <glyph glyph-name="d.superior" horiz-adv-x="692" 
d="M602 1610v-776h-135v63q-60 -78 -166 -78q-109 0 -178.5 81.5t-69.5 219.5q0 134 72.5 216.5t183.5 82.5q96 0 154 -69v260h139zM330 928q63 0 100 50.5t37 141.5q0 89 -37 139t-100 50t-98 -51.5t-35 -139.5q0 -87 34.5 -138.5t98.5 -51.5z" />
    <glyph glyph-name="e.superior" horiz-adv-x="669" 
d="M342 819q-136 0 -212.5 85t-76.5 216q0 132 79 215.5t206 83.5q136 0 211 -93.5t67 -248.5h-423q3 -66 43.5 -107.5t103.5 -41.5q106 0 135 88l133 -17q-24 -74 -90.5 -127t-175.5 -53zM340 1315q-59 0 -101.5 -34.5t-45.5 -102.5h284q-3 65 -42.5 101t-94.5 36z" />
    <glyph glyph-name="f.superior" horiz-adv-x="389" 
d="M109 1407v33q0 103 44.5 136.5t157.5 33.5h51v-113h-32q-52 0 -67 -13t-15 -59v-18h114v-107h-114v-466h-139v466h-82v107h82z" />
    <glyph glyph-name="g.superior" horiz-adv-x="686" 
d="M461 866v52q-54 -74 -160 -74q-109 0 -178.5 78t-69.5 208q0 129 73 209t183 80q99 0 154 -69l2 57h135v-514q0 -141 -68 -203q-66 -63 -202 -63q-103 0 -171 44t-81 138l133 6q17 -80 123 -80q58 0 92 27q35 27 35 104zM330 952q63 0 100 45.5t37 132.5q0 83 -37 131
t-100 48t-98 -50t-35 -129q0 -86 34 -132t99 -46z" />
    <glyph glyph-name="h.superior" horiz-adv-x="684" 
d="M231 1610v-273q51 82 172 82q109 0 160 -69q39 -51 39 -160v-356h-137v323q0 75 -23 111q-26 37 -84 37q-127 0 -127 -177v-294h-139v776h139z" />
    <glyph glyph-name="i.superior" horiz-adv-x="321" 
d="M92 1407h139v-573h-139v573zM92 1610h139v-135h-139v135z" />
    <glyph glyph-name="j.superior" horiz-adv-x="323" 
d="M92 821v586h139v-588q0 -114 -36 -151t-142 -37h-41v112h21q40 0 49.5 14t9.5 64zM92 1610h139v-135h-139v135z" />
    <glyph glyph-name="k.superior" horiz-adv-x="634" 
d="M92 1610h139v-426l209 223h166l-207 -217l219 -356h-159l-154 256l-74 -76v-180h-139v776z" />
    <glyph glyph-name="l.superior" horiz-adv-x="321" 
d="M231 1610v-776h-139v776h139z" />
    <glyph glyph-name="m.superior" horiz-adv-x="1030" 
d="M92 834v573h139v-70q51 82 166 82t164 -92q68 92 193 92q99 0 151 -61q43 -55 43 -168v-356h-139v327q0 79 -21 109q-21 35 -79 35q-47 0 -74.5 -25.5t-36 -62t-8.5 -89.5v-294h-139v327q0 81 -21 111q-26 33 -80 33q-119 0 -119 -177v-294h-139z" />
    <glyph glyph-name="o.superior" horiz-adv-x="673" 
d="M197 1118q0 -91 38 -140.5t103 -49.5q64 0 102.5 49.5t38.5 140.5q0 92 -38 141.5t-103 49.5q-66 0 -103.5 -49.5t-37.5 -141.5zM55 1118q0 147 81 224t202 77q119 0 201 -77t82 -224q0 -145 -82 -222t-201 -77q-121 0 -202 76.5t-81 222.5z" />
    <glyph glyph-name="p.superior" horiz-adv-x="692" 
d="M231 889v-258h-139v776h135v-68q56 80 166 80q109 0 177.5 -81t68.5 -220q0 -136 -72 -217.5t-184 -81.5q-96 0 -152 70zM365 1309q-64 0 -102 -50.5t-38 -140.5q0 -88 38 -139t102 -51q63 0 98 51.5t35 138.5q0 88 -35 139.5t-98 51.5z" />
    <glyph glyph-name="q.superior" horiz-adv-x="692" 
d="M465 1350l2 57h135v-776h-139v264q-55 -76 -162 -76q-109 0 -178.5 81.5t-69.5 219.5q0 134 72.5 216.5t183.5 82.5q98 0 156 -69zM330 928q63 0 100 50.5t37 141.5q0 89 -37 139t-100 50t-98 -51.5t-35 -139.5q0 -87 34.5 -138.5t98.5 -51.5z" />
    <glyph glyph-name="r.superior" horiz-adv-x="438" 
d="M416 1403v-133q-40 4 -60 4q-62 0 -93.5 -32.5t-31.5 -113.5v-294h-139v573h137v-94q50 92 156 92q23 0 31 -2z" />
    <glyph glyph-name="s.superior" horiz-adv-x="610" 
d="M561 1245l-127 -18q-9 40 -45 64t-90 24q-45 0 -73.5 -14t-28.5 -41q0 -46 88 -66l67 -14q42 -9 69 -17t57.5 -22t48 -30.5t29 -43t11.5 -59.5q0 -87 -73 -138t-179 -51q-110 0 -181.5 53.5t-80.5 137.5l133 20q6 -47 41.5 -76.5t94.5 -29.5q110 0 110 67q0 31 -26 45
t-78 25l-74 16q-90 19 -138 58t-48 114q0 76 69 123t170 47q95 0 166.5 -45t87.5 -129z" />
    <glyph glyph-name="t.superior" horiz-adv-x="417" 
d="M109 1407v168h139v-168h119v-107h-119v-284q0 -45 15 -59.5t56 -14.5h46v-108h-101q-95 0 -125 32t-30 123v311h-84v107h84z" />
    <glyph glyph-name="u.superior" horiz-adv-x="679" 
d="M451 834v67q-56 -82 -170 -82q-102 0 -154 64q-43 55 -43 166v358h139v-330q0 -77 19 -104q25 -39 84 -39q125 0 125 180v293h137v-573h-137z" />
    <glyph glyph-name="v.superior" horiz-adv-x="591" 
d="M176 1407l125 -397l125 397h145l-213 -573h-120l-215 573h153z" />
    <glyph glyph-name="w.superior" horiz-adv-x="833" 
d="M250 1008l96 399h141l97 -397l78 397h149l-152 -573h-133l-110 409l-111 -409h-131l-151 573h149z" />
    <glyph glyph-name="x.superior" horiz-adv-x="626" 
d="M592 1407l-199 -274l211 -299h-164l-131 184l-133 -184h-151l211 290l-199 283h162l118 -170l123 170h152z" />
    <glyph glyph-name="y.superior" horiz-adv-x="581" 
d="M125 631h-59v117h53q42 0 61.5 13t38.5 62l6 15l-213 569h154l125 -397l129 397h141l-207 -565q-45 -123 -89.5 -167t-139.5 -44z" />
    <glyph glyph-name="z.superior" horiz-adv-x="569" 
d="M37 834v100l299 356h-277v117h457v-102l-299 -355h307v-116h-487z" />
    <glyph glyph-name="a.inferior" horiz-adv-x="647" 
d="M205 150l-131 4q8 86 74 137t180 51q126 0 184 -52.5t57 -166.5q-4 -102 -4 -172q0 -87 13 -197h-129l-5 66q-56 -80 -182 -80q-94 0 -150.5 55t-56.5 131q0 78 58 123q68 49 213 62l104 12v20q0 53 -27.5 75t-80.5 22t-83.5 -23t-33.5 -67zM434 -10v35l-104 -13
q-70 -7 -101.5 -28t-31.5 -58q0 -35 26.5 -57.5t69.5 -22.5q60 0 100.5 36.5t40.5 107.5z" />
    <glyph glyph-name="b.inferior" horiz-adv-x="692" 
d="M92 -246v776h139v-266q55 76 162 76q109 0 177.5 -81t68.5 -220q0 -136 -72 -217.5t-184 -81.5q-98 0 -154 70l-2 -56h-135zM365 229q-64 0 -102 -50.5t-38 -139.5q0 -88 38 -139.5t102 -51.5q63 0 98 52t35 139q0 88 -34.5 139t-98.5 51z" />
    <glyph glyph-name="c.inferior" horiz-adv-x="651" 
d="M340 340q96 0 167.5 -52.5t92.5 -146.5l-133 -20q-8 48 -41.5 78t-89.5 30q-62 0 -100.5 -48.5t-38.5 -139.5q0 -92 38.5 -142.5t100.5 -50.5q113 0 135 113l133 -18q-22 -98 -96.5 -150.5t-173.5 -52.5q-131 0 -206 83t-75 216q0 135 76.5 218t210.5 83z" />
    <glyph glyph-name="d.inferior" horiz-adv-x="692" 
d="M602 530v-776h-135v64q-60 -78 -166 -78q-109 0 -178.5 81.5t-69.5 219.5q0 134 72.5 216.5t183.5 82.5q95 0 154 -70v260h139zM330 -152q62 0 99.5 51t37.5 142q0 89 -37 138.5t-100 49.5q-64 0 -98.5 -51t-34.5 -139q0 -87 34.5 -139t98.5 -52z" />
    <glyph glyph-name="e.inferior" horiz-adv-x="669" 
d="M342 -260q-136 0 -212.5 85t-76.5 216q0 132 79 215.5t206 83.5q136 0 211 -93.5t67 -248.5h-423q3 -66 43.5 -108t103.5 -42q106 0 135 89l133 -17q-24 -74 -90.5 -127t-175.5 -53zM340 236q-58 0 -101 -34.5t-46 -103.5h284q-3 65 -42.5 101.5t-94.5 36.5z" />
    <glyph glyph-name="f.inferior" horiz-adv-x="389" 
d="M109 328v32q0 103 44.5 136.5t157.5 33.5h51v-112h-32q-52 0 -67 -13t-15 -59v-18h114v-107h-114v-467h-139v467h-82v107h82z" />
    <glyph glyph-name="g.inferior" horiz-adv-x="686" 
d="M461 -213v51q-54 -74 -160 -74q-109 0 -178.5 78.5t-69.5 208.5q0 129 73 209t183 80q98 0 154 -70l2 58h135v-514q0 -141 -68 -203q-67 -64 -202 -64q-103 0 -171 44.5t-81 138.5l133 6q17 -80 123 -80q58 0 92 27q35 27 35 104zM330 -127q63 0 100 45.5t37 132.5
q0 83 -37 130.5t-100 47.5t-98 -49.5t-35 -128.5q0 -86 34 -132t99 -46z" />
    <glyph glyph-name="h.inferior" horiz-adv-x="684" 
d="M231 530v-272q51 82 172 82q109 0 160 -70q39 -51 39 -159v-357h-137v324q0 74 -23 110q-26 37 -84 37q-127 0 -127 -176v-295h-139v776h139z" />
    <glyph glyph-name="i.inferior" horiz-adv-x="321" 
d="M92 328h139v-574h-139v574zM92 530h139v-135h-139v135z" />
    <glyph glyph-name="j.inferior" horiz-adv-x="323" 
d="M92 -258v586h139v-588q0 -114 -36 -151.5t-142 -37.5h-41v113h21q40 0 49.5 14t9.5 64zM92 530h139v-135h-139v135z" />
    <glyph glyph-name="k.inferior" horiz-adv-x="634" 
d="M92 530h139v-426l209 224h166l-207 -217l219 -357h-159l-154 256l-74 -76v-180h-139v776z" />
    <glyph glyph-name="l.inferior" horiz-adv-x="321" 
d="M231 530v-776h-139v776h139z" />
    <glyph glyph-name="m.inferior" horiz-adv-x="1030" 
d="M92 -246v574h139v-70q51 82 166 82t164 -92q68 92 193 92q99 0 151 -61q43 -55 43 -168v-357h-139v328q0 78 -21 108q-21 35 -79 35q-68 0 -93.5 -47t-25.5 -129v-295h-139v328q0 81 -21 111q-26 32 -80 32q-46 0 -73.5 -25t-36.5 -61.5t-9 -89.5v-295h-139z" />
    <glyph glyph-name="n.inferior" horiz-adv-x="684" 
d="M231 328v-70q51 82 172 82q109 0 160 -70q39 -51 39 -159v-357h-137v324q0 74 -23 110q-26 37 -84 37q-127 0 -127 -176v-295h-139v574h139z" />
    <glyph glyph-name="o.inferior" horiz-adv-x="673" 
d="M197 39q0 -91 38 -141t103 -50q64 0 102.5 50t38.5 141q0 92 -38 141t-103 49q-66 0 -103.5 -49t-37.5 -141zM55 39q0 147 81 224t202 77q119 0 201 -77t82 -224q0 -145 -82 -222t-201 -77q-121 0 -202 76.5t-81 222.5z" />
    <glyph glyph-name="p.inferior" horiz-adv-x="692" 
d="M231 -190v-259h-139v777h135v-68q56 80 166 80q109 0 177.5 -81t68.5 -220q0 -136 -72 -217.5t-184 -81.5q-96 0 -152 70zM365 229q-64 0 -102 -50.5t-38 -139.5q0 -88 38 -139.5t102 -51.5q63 0 98 52t35 139q0 88 -34.5 139t-98.5 51z" />
    <glyph glyph-name="q.inferior" horiz-adv-x="692" 
d="M465 270l2 58h135v-777h-139v265q-55 -76 -162 -76q-109 0 -178.5 81.5t-69.5 219.5q0 134 72.5 216.5t183.5 82.5q97 0 156 -70zM330 -152q62 0 99.5 51t37.5 142q0 89 -37 138.5t-100 49.5q-64 0 -98.5 -51t-34.5 -139q0 -87 34.5 -139t98.5 -52z" />
    <glyph glyph-name="r.inferior" horiz-adv-x="438" 
d="M416 324v-134q-50 5 -60 5q-62 0 -93.5 -32.5t-31.5 -113.5v-295h-139v574h137v-95q50 93 156 93q23 0 31 -2z" />
    <glyph glyph-name="s.inferior" horiz-adv-x="610" 
d="M561 166l-127 -19q-9 40 -45.5 64.5t-89.5 24.5q-45 0 -73.5 -14.5t-28.5 -41.5q0 -45 88 -65l67 -15q42 -9 69 -17t57.5 -22t48 -30.5t29 -43t11.5 -59.5q0 -87 -73 -137.5t-179 -50.5q-110 0 -181.5 53.5t-80.5 136.5l133 21q6 -47 41.5 -77t94.5 -30q52 0 81 17.5
t29 50.5q0 31 -26 45t-78 25l-74 16q-90 19 -138 58t-48 114q0 76 69 123t170 47q95 0 166.5 -45t87.5 -129z" />
    <glyph glyph-name="t.inferior" horiz-adv-x="417" 
d="M109 328v168h139v-168h119v-107h-119v-284q0 -45 15 -59.5t56 -14.5h46v-109h-101q-95 0 -125 32t-30 124v311h-84v107h84z" />
    <glyph glyph-name="u.inferior" horiz-adv-x="679" 
d="M451 -246v68q-56 -82 -170 -82q-103 0 -154 63q-43 55 -43 166v359h139v-330q0 -77 19 -104q25 -39 84 -39q125 0 125 180v293h137v-574h-137z" />
    <glyph glyph-name="v.inferior" horiz-adv-x="591" 
d="M176 328l125 -398l125 398h145l-213 -574h-120l-215 574h153z" />
    <glyph glyph-name="w.inferior" horiz-adv-x="833" 
d="M250 -72l96 400h141l97 -398l78 398h149l-152 -574h-133l-110 410l-111 -410h-131l-151 574h149z" />
    <glyph glyph-name="x.inferior" horiz-adv-x="626" 
d="M592 328l-199 -275l211 -299h-164l-131 185l-133 -185h-151l211 291l-199 283h162l118 -170l123 170h152z" />
    <glyph glyph-name="y.inferior" horiz-adv-x="581" 
d="M125 -449h-59v117h53q42 0 61.5 13.5t38.5 62.5l6 14l-213 570h154l125 -398l129 398h141l-207 -566q-45 -123 -89.5 -167t-139.5 -44z" />
    <glyph glyph-name="z.inferior" horiz-adv-x="569" 
d="M37 -246v101l299 356h-277v117h457v-103l-299 -354h307v-117h-487z" />
    <glyph glyph-name="a.denominator" horiz-adv-x="647" 
d="M205 395l-131 4q8 86 74 137.5t180 51.5q126 0 184 -52.5t57 -166.5q-4 -102 -4 -172q0 -87 13 -197h-129l-5 66q-56 -80 -182 -80q-94 0 -150.5 55t-56.5 131q0 78 58 123q67 48 213 61l104 13v20q0 53 -27.5 74.5t-80.5 21.5t-83.5 -23t-33.5 -67zM434 236v34l-104 -12
q-70 -7 -101.5 -28t-31.5 -58q0 -35 26.5 -57.5t69.5 -22.5q60 0 100.5 36.5t40.5 107.5z" />
    <glyph glyph-name="b.denominator" horiz-adv-x="692" 
d="M92 0v776h139v-266q55 76 162 76q109 0 177.5 -81t68.5 -220q0 -136 -72 -217.5t-184 -81.5q-99 0 -154 69l-2 -55h-135zM365 475q-64 0 -102 -50.5t-38 -139.5q0 -88 38 -139.5t102 -51.5q63 0 98 52t35 139q0 88 -34.5 139t-98.5 51z" />
    <glyph glyph-name="c.denominator" horiz-adv-x="651" 
d="M340 586q96 0 167.5 -52.5t92.5 -146.5l-133 -20q-8 48 -41.5 78t-89.5 30q-62 0 -100.5 -48.5t-38.5 -139.5q0 -92 38.5 -142.5t100.5 -50.5q113 0 135 113l133 -19q-22 -98 -96.5 -150t-173.5 -52q-131 0 -206 83t-75 216q0 135 76.5 218t210.5 83z" />
    <glyph glyph-name="d.denominator" horiz-adv-x="692" 
d="M602 776v-776h-135v63q-59 -77 -166 -77q-109 0 -178.5 81.5t-69.5 219.5q0 134 72.5 216.5t183.5 82.5q95 0 154 -70v260h139zM330 94q62 0 99.5 51t37.5 142q0 89 -37 138.5t-100 49.5q-64 0 -98.5 -51t-34.5 -139q0 -87 34.5 -139t98.5 -52z" />
    <glyph glyph-name="e.denominator" horiz-adv-x="669" 
d="M342 -14q-136 0 -212.5 85t-76.5 216q0 132 79 215.5t206 83.5q136 0 211 -93.5t67 -248.5h-423q3 -66 43.5 -108t103.5 -42q106 0 135 88l133 -16q-24 -74 -90.5 -127t-175.5 -53zM340 481q-59 0 -101.5 -34.5t-45.5 -102.5h284q-3 65 -42.5 101t-94.5 36z" />
    <glyph glyph-name="f.denominator" horiz-adv-x="389" 
d="M109 573v33q0 103 44.5 136.5t157.5 33.5h51v-112h-32q-52 0 -67 -13t-15 -59v-19h114v-106h-114v-467h-139v467h-82v106h82z" />
    <glyph glyph-name="g.denominator" horiz-adv-x="686" 
d="M461 33v51q-54 -74 -160 -74q-109 0 -178.5 78.5t-69.5 208.5q0 129 73 209t183 80q98 0 154 -70l2 57h135v-514q0 -140 -68 -202q-67 -64 -202 -64q-103 0 -171 44t-81 138l133 7q17 -80 123 -80q59 0 92 26q35 27 35 105zM330 119q63 0 100 45.5t37 132.5
q0 83 -37 130.5t-100 47.5t-98 -49.5t-35 -128.5q0 -86 34 -132t99 -46z" />
    <glyph glyph-name="h.denominator" horiz-adv-x="684" 
d="M231 776v-272q51 82 172 82q109 0 160 -70q39 -51 39 -160v-356h-137v324q0 74 -23 110q-26 37 -84 37q-127 0 -127 -176v-295h-139v776h139z" />
    <glyph glyph-name="i.denominator" horiz-adv-x="321" 
d="M92 573h139v-573h-139v573zM92 776h139v-135h-139v135z" />
    <glyph glyph-name="j.denominator" horiz-adv-x="323" 
d="M92 -12v585h139v-587q0 -114 -36 -151.5t-142 -37.5h-41v113h21q40 0 49.5 14t9.5 64zM92 776h139v-135h-139v135z" />
    <glyph glyph-name="k.denominator" horiz-adv-x="634" 
d="M92 776h139v-426l209 223h166l-207 -217l219 -356h-159l-154 256l-74 -76v-180h-139v776z" />
    <glyph glyph-name="l.denominator" horiz-adv-x="321" 
d="M231 776v-776h-139v776h139z" />
    <glyph glyph-name="m.denominator" horiz-adv-x="1030" 
d="M92 0v573h139v-69q51 82 166 82t164 -92q68 92 193 92q99 0 151 -62q43 -55 43 -168v-356h-139v328q0 78 -21 108q-21 35 -79 35q-68 0 -93.5 -47t-25.5 -129v-295h-139v328q0 80 -21 110q-26 33 -80 33q-46 0 -73.5 -25t-36.5 -61.5t-9 -89.5v-295h-139z" />
    <glyph glyph-name="n.denominator" horiz-adv-x="684" 
d="M231 573v-69q51 82 172 82q109 0 160 -70q39 -51 39 -160v-356h-137v324q0 74 -23 110q-26 37 -84 37q-127 0 -127 -176v-295h-139v573h139z" />
    <glyph glyph-name="o.denominator" horiz-adv-x="673" 
d="M197 285q0 -91 38 -141t103 -50q64 0 102.5 50t38.5 141q0 92 -38 141t-103 49q-66 0 -103.5 -49t-37.5 -141zM55 285q0 147 81 224t202 77q119 0 201 -77t82 -224q0 -145 -82 -222t-201 -77q-121 0 -202 76.5t-81 222.5z" />
    <glyph glyph-name="p.denominator" horiz-adv-x="692" 
d="M231 55v-258h-139v776h135v-67q56 80 166 80q109 0 177.5 -81t68.5 -220q0 -136 -72 -217.5t-184 -81.5q-97 0 -152 69zM365 475q-64 0 -102 -50.5t-38 -139.5q0 -88 38 -139.5t102 -51.5q63 0 98 52t35 139q0 88 -34.5 139t-98.5 51z" />
    <glyph glyph-name="q.denominator" horiz-adv-x="692" 
d="M465 516l2 57h135v-776h-139v264q-54 -75 -162 -75q-109 0 -178.5 81.5t-69.5 219.5q0 134 72.5 216.5t183.5 82.5q97 0 156 -70zM330 94q62 0 99.5 51t37.5 142q0 89 -37 138.5t-100 49.5q-64 0 -98.5 -51t-34.5 -139q0 -87 34.5 -139t98.5 -52z" />
    <glyph glyph-name="r.denominator" horiz-adv-x="438" 
d="M416 569v-133q-40 4 -60 4q-62 0 -93.5 -32t-31.5 -113v-295h-139v573h137v-94q50 92 156 92q23 0 31 -2z" />
    <glyph glyph-name="s.denominator" horiz-adv-x="610" 
d="M561 412l-127 -19q-9 40 -45 64t-90 24q-45 0 -73.5 -14t-28.5 -41q0 -46 88 -66l67 -14q42 -9 69 -17t57.5 -22t48 -30.5t29 -43t11.5 -59.5q0 -87 -73 -137.5t-179 -50.5q-110 0 -181.5 53.5t-80.5 136.5l133 21q6 -47 41.5 -77t94.5 -30q52 0 81 17.5t29 50.5
q0 30 -25.5 44t-78.5 25l-74 17q-90 19 -138 58t-48 114q0 76 69 123t170 47q95 0 166.5 -45t87.5 -129z" />
    <glyph glyph-name="t.denominator" horiz-adv-x="417" 
d="M109 573v168h139v-168h119v-106h-119v-285q0 -44 15 -58.5t56 -14.5h46v-109h-101q-95 0 -125 32t-30 124v311h-84v106h84z" />
    <glyph glyph-name="u.denominator" horiz-adv-x="679" 
d="M451 0v68q-56 -82 -170 -82q-103 0 -154 63q-43 55 -43 166v358h139v-329q0 -78 19 -105q25 -39 84 -39q125 0 125 181v292h137v-573h-137z" />
    <glyph glyph-name="v.denominator" horiz-adv-x="591" 
d="M176 573l125 -397l125 397h145l-213 -573h-120l-215 573h153z" />
    <glyph glyph-name="w.denominator" horiz-adv-x="833" 
d="M250 174l96 399h141l97 -397l78 397h149l-152 -573h-133l-110 410l-111 -410h-131l-151 573h149z" />
    <glyph glyph-name="x.denominator" horiz-adv-x="626" 
d="M592 573l-199 -274l211 -299h-164l-131 184l-133 -184h-151l211 291l-199 282h162l118 -170l123 170h152z" />
    <glyph glyph-name="y.denominator" horiz-adv-x="581" 
d="M125 -203h-59v117h53q42 0 61.5 13.5t38.5 62.5l6 14l-213 569h154l125 -397l129 397h141l-207 -565q-45 -123 -89.5 -167t-139.5 -44z" />
    <glyph glyph-name="z.denominator" horiz-adv-x="569" 
d="M37 0v100l299 357h-277v116h457v-102l-299 -354h307v-117h-487z" />
    <glyph glyph-name="a.numerator" horiz-adv-x="647" 
d="M205 979l-131 4q8 86 74 137t180 51q126 0 184 -52.5t57 -166.5q-4 -102 -4 -172q0 -86 13 -196h-129l-5 65q-56 -80 -182 -80q-94 0 -150.5 55.5t-56.5 131.5q0 78 58 123q67 48 213 61l104 12v21q0 53 -27.5 74.5t-80.5 21.5t-83.5 -23t-33.5 -67zM434 819v35l-104 -12
q-70 -7 -101.5 -28t-31.5 -58q0 -35 26.5 -57.5t69.5 -22.5q60 0 100.5 36t40.5 107z" />
    <glyph glyph-name="b.numerator" horiz-adv-x="692" 
d="M92 584v776h139v-266q54 75 162 75q109 0 177.5 -81t68.5 -220q0 -136 -72 -217.5t-184 -81.5q-98 0 -154 70l-2 -55h-135zM365 1059q-64 0 -102 -50.5t-38 -140.5q0 -88 38 -139t102 -51q63 0 98 51.5t35 138.5q0 88 -35 139.5t-98 51.5z" />
    <glyph glyph-name="c.numerator" horiz-adv-x="651" 
d="M340 1169q97 0 168 -52t92 -146l-133 -21q-8 48 -41.5 78.5t-89.5 30.5q-62 0 -100.5 -49t-38.5 -140q0 -92 38.5 -142t100.5 -50q113 0 135 113l133 -19q-22 -98 -96.5 -150.5t-173.5 -52.5q-131 0 -206 83t-75 216q0 135 76.5 218t210.5 83z" />
    <glyph glyph-name="d.numerator" horiz-adv-x="692" 
d="M602 1360v-776h-135v63q-60 -78 -166 -78q-109 0 -178.5 81.5t-69.5 219.5q0 134 72.5 216.5t183.5 82.5q96 0 154 -69v260h139zM330 678q63 0 100 50.5t37 141.5q0 89 -37 139t-100 50t-98 -51.5t-35 -139.5q0 -87 34.5 -138.5t98.5 -51.5z" />
    <glyph glyph-name="e.numerator" horiz-adv-x="669" 
d="M342 569q-136 0 -212.5 85t-76.5 216q0 132 79 215.5t206 83.5q136 0 211 -93.5t67 -248.5h-423q3 -66 43.5 -107.5t103.5 -41.5q106 0 135 88l133 -16q-24 -74 -91 -127.5t-175 -53.5zM340 1065q-59 0 -101.5 -34.5t-45.5 -102.5h284q-3 65 -42.5 101t-94.5 36z" />
    <glyph glyph-name="f.numerator" horiz-adv-x="389" 
d="M109 1157v33q0 103 44.5 136.5t157.5 33.5h51v-113h-32q-53 0 -67.5 -12.5t-14.5 -58.5v-19h114v-106h-114v-467h-139v467h-82v106h82z" />
    <glyph glyph-name="g.numerator" horiz-adv-x="686" 
d="M461 616v52q-54 -74 -160 -74q-109 0 -178.5 78.5t-69.5 208.5q0 129 73 208.5t183 79.5q99 0 154 -69l2 57h135v-514q0 -141 -68 -203q-66 -63 -202 -63q-103 0 -171 44t-81 138l133 6q17 -80 123 -80q58 0 92 27q35 27 35 104zM330 702q63 0 100 46t37 133
q0 83 -37 130.5t-100 47.5t-98 -49.5t-35 -128.5q0 -86 34 -132.5t99 -46.5z" />
    <glyph glyph-name="h.numerator" horiz-adv-x="684" 
d="M231 1360v-273q51 82 172 82q109 0 160 -69q39 -51 39 -160v-356h-137v323q0 75 -23 111q-26 37 -84 37q-127 0 -127 -176v-295h-139v776h139z" />
    <glyph glyph-name="i.numerator" horiz-adv-x="321" 
d="M92 1157h139v-573h-139v573zM92 1360h139v-135h-139v135z" />
    <glyph glyph-name="j.numerator" horiz-adv-x="323" 
d="M92 571v586h139v-588q0 -114 -36 -151t-142 -37h-41v113h21q40 0 49.5 14t9.5 63zM92 1360h139v-135h-139v135z" />
    <glyph glyph-name="k.numerator" horiz-adv-x="634" 
d="M92 1360h139v-426l209 223h166l-207 -217l219 -356h-159l-154 256l-74 -76v-180h-139v776z" />
    <glyph glyph-name="l.numerator" horiz-adv-x="321" 
d="M231 1360v-776h-139v776h139z" />
    </font>
</defs>
</svg>
