<?xml version="1.0" encoding="utf-8"?>
<!-- Generator: Adobe Illustrator 24.0.1, SVG Export Plug-In . SVG Version: 6.00 Build 0)  -->
<svg version="1.1" id="Layer_1" xmlns="http://www.w3.org/2000/svg" xmlns:xlink="http://www.w3.org/1999/xlink" x="0px" y="0px"
	 viewBox="0 0 228.3 72.7" style="enable-background:new 0 0 228.3 72.7;" xml:space="preserve">
<style type="text/css">
	.st0{fill:#282727;}
</style>
<g>
	<path class="st0" d="M14.7,18.3c0-3.6-3.2-4.7-7.3-4.7H6.9v-2.8h0.4c4.4,0,6.7-1.2,6.7-4.2c0-2.5-2.2-3.9-4.9-3.9
		c-3.4,0-5.2,1.9-5.5,4.7L0.4,7.3C0.7,3,4,0,9.2,0c4.3,0,8.2,1.7,8.2,6.3c0,2.5-1.5,4.7-4.1,5.7c3.7,1.2,4.8,3.7,4.8,6.2
		c0,5-4.4,7.4-9.1,7.4c-5.9,0-8.6-3.7-9-7.6l3.3-0.3C3.6,20.9,5.5,23,9,23C12.3,23,14.7,21.3,14.7,18.3"/>
	<path class="st0" d="M37.6,12.8c0-6.9-2.5-10-6.5-10s-6.4,3.1-6.4,10c0,6.9,2.5,10.2,6.4,10.2S37.6,19.6,37.6,12.8 M21.3,12.8
		C21.3,4.9,24.4,0,31.1,0c6.7,0,9.8,4.9,9.8,12.8c0,7.9-3.1,13-9.8,13C24.4,25.7,21.3,20.6,21.3,12.8"/>
</g>
<polygon class="st0" points="72.7,0.4 66.2,21.1 59.8,0.4 53.8,0.4 53.8,25.3 57.4,25.3 57.4,3.7 64.3,25.3 68.1,25.3 75,3.7 
	75,25.3 78.6,25.3 78.6,0.4 "/>
<g>
	<path class="st0" d="M91.5,23c3,0,5.3-2,5.3-6.8c0-4.8-2.3-6.8-5.3-6.8c-3,0-5.3,2-5.3,6.8C86.2,21,88.5,23,91.5,23 M91.5,6.7
		c4.5,0,8.6,3,8.6,9.5s-4.2,9.5-8.6,9.5c-4.5,0-8.6-3-8.6-9.5S87,6.7,91.5,6.7"/>
	<path class="st0" d="M115.6,22.7c-1,1.7-2.6,3-5.8,3c-2.2,0-3.8-0.8-4.8-2.1c-0.9-1.2-1.3-3-1.3-5.2V7h3.2v10.4
		c0,1.9,0.2,3.1,0.6,3.9c0.6,1.2,1.8,1.7,3.4,1.7c2.9,0,4.6-2.1,4.6-6V7h3.2v18.3h-3.2V22.7z"/>
	<path class="st0" d="M126.9,9.5c1-1.6,2.9-2.8,6-2.8c2.5,0,4.2,0.9,5.2,2.5c0.7,1.2,1,2.7,1,4.9v11.3H136V14.9
		c0-1.9-0.2-3.1-0.7-3.9c-0.7-1.1-1.8-1.6-3.4-1.6c-3.1,0-4.9,2.1-4.9,6.1v9.8h-3.2V7h3.2V9.5z"/>
	<path class="st0" d="M144.7,1.9h3.2v5h3.5v2.6h-3.5v10.6c0,1.9,0.1,2.4,1.9,2.4h1.6v2.7h-2.3c-3.6,0-4.4-0.8-4.4-4.7v-11h-3V7h3
		V1.9z"/>
	<path class="st0" d="M167.4,3.6V12h4.4c3.7,0,6.6-0.3,6.6-4.2s-2.9-4.2-6.6-4.2H167.4z M173.5,15.1c-0.6,0-1.3,0-2,0h-4.2v10.2
		h-3.6V0.4h7.7c6.1,0,10.5,1.2,10.5,7.3c0,4-1.9,5.9-4.9,6.8l5.7,10.8h-4L173.5,15.1z"/>
	<path class="st0" d="M193.7,23c3,0,5.3-2,5.3-6.8c0-4.8-2.3-6.8-5.3-6.8c-3,0-5.3,2-5.3,6.8C188.4,21,190.7,23,193.7,23 M193.7,6.7
		c4.5,0,8.6,3,8.6,9.5s-4.2,9.5-8.6,9.5c-4.5,0-8.6-3-8.6-9.5S189.2,6.7,193.7,6.7"/>
</g>
<polygon class="st0" points="224.9,7 221.3,20.4 217.6,7 214.3,7 210.6,20.4 207,7 203.6,7 209,25.3 211.9,25.3 215.9,10.6 
	220,25.3 222.9,25.3 228.3,7 "/>
<g>
	<path class="st0" d="M30.3,41.7c-3,0.4-3.3,0.6-3.3,4.3v14.4c0,3.7,0.3,3.9,3.3,4.3v0.6H19.8v-0.6c3-0.4,3.3-0.6,3.3-4.3V44.3
		l-8.3,20.1h-0.7L5.4,43.8v16.6c0,3.7,0.3,3.9,3.3,4.3v0.6H0.5v-0.6c3-0.4,3.3-0.6,3.3-4.3V46c0-3.7-0.3-3.9-3.3-4.3v-0.6h8.2
		l7,16.9l6.9-16.9h7.7V41.7z"/>
	<path class="st0" d="M43.3,61.6l0.1-6.2c-5.9,1.8-7,3.5-7,5.1c0,1.9,1.3,2.9,3.2,2.9C41.1,63.5,42.5,62.9,43.3,61.6 M47.8,63.6
		c0.5,0,1-0.3,1.5-0.7l0.4,0.4c-0.9,1.1-1.9,2.4-3.5,2.4c-1.4,0-2.8-0.7-2.8-3.3c-1,1.8-2.7,3.4-5.5,3.4c-2.9,0-5-1.8-5-4
		c0-2.1,1.6-3.5,4.6-5c1.5-0.8,3.5-1.6,6-2.7l0-0.8c0.1-3.5-1.2-4.7-3.4-4.7c-2.8,0-3.7,1.7-3.6,4.5h-3.2c0.1-3,3.5-5.8,7.5-5.8
		c3.1,0,6,1.2,5.9,5.7l-0.2,8.6C46.6,63.2,46.9,63.6,47.8,63.6"/>
	<path class="st0" d="M51.3,70.5c0-1.1,0.8-1.9,1.6-1.9c0.2,0,0.6,0.1,1,0.5l1.7,1.6c0.5-0.9,1-1.9,1.8-3.8l0.6-1.5l-6.5-15.2
		c-0.6-1.5-1-2.1-2.3-2.2v-0.6h8.2V48c-2.6,0.1-2.5,1-1.8,2.6L60,61l3.6-8.7c1.2-2.9,1.2-4-1.2-4.4v-0.6h6.4V48
		c-1.7,0.3-2,0.9-2.9,3.2l-7,16.5c-1.4,3.2-2.2,5-4.6,5C52.4,72.7,51.3,71.8,51.3,70.5"/>
	<path class="st0" d="M78.9,39.9c-1.5,0-5,1.8-2.7,7.4h5.6v1.3h-5.5v11.8c0,3.8,0.2,3.9,4,4.2v0.6H70.1v-0.6
		c2.6-0.3,2.7-0.8,2.7-4.2V48.7h-2.9v-1.3h2.9V47c0-5.1,3.6-8.4,7.7-8.4c2.1,0,3.5,1.3,3.5,2.5c0,1-0.8,1.6-1.8,1.6
		c-0.5,0-1-0.1-1.3-0.6l-1.2-1.7C79.5,40,79.3,39.9,78.9,39.9"/>
	<path class="st0" d="M93,61.6l0.1-6.2c-5.9,1.8-7,3.5-7,5.1c0,1.9,1.3,2.9,3.2,2.9C90.8,63.5,92.1,62.9,93,61.6 M97.5,63.6
		c0.5,0,1-0.3,1.5-0.7l0.4,0.4c-0.9,1.1-1.9,2.4-3.5,2.4c-1.4,0-2.8-0.7-2.8-3.3c-1,1.8-2.7,3.4-5.5,3.4c-2.9,0-5-1.8-5-4
		c0-2.1,1.6-3.5,4.6-5c1.5-0.8,3.5-1.6,6-2.7l0-0.8c0.1-3.5-1.2-4.7-3.4-4.7c-2.8,0-3.7,1.7-3.6,4.5H83c0.1-3,3.5-5.8,7.5-5.8
		c3.1,0,6,1.2,5.9,5.7l-0.2,8.6C96.3,63.2,96.6,63.6,97.5,63.6"/>
	<path class="st0" d="M102.8,40.6c0-1.3,1.1-2.3,2.5-2.3c1.4,0,2.4,1,2.4,2.3c0,1.4-1.1,2.4-2.4,2.4C103.9,43,102.8,42,102.8,40.6
		 M107.2,60.5c0,3.4,0,3.9,2.7,4.2v0.6H101v-0.6c2.6-0.3,2.7-0.8,2.7-4.2v-7.4c0-3.3,0-3.3-2.7-3.4v-0.6l6.3-2.1
		c0,1.8-0.1,3.9-0.1,7.3V60.5z"/>
	<path class="st0" d="M111.6,64.7c2.6-0.3,2.7-0.8,2.7-4.2V53c0-3.3-0.1-3.3-2.7-3.3v-0.6l6.1-2.1l0.1,3.5c1.3-1.6,2.8-3.5,4.9-3.5
		c1.5,0,2.5,0.9,2.5,2.2c0,1.2-0.8,2.1-2.1,2.1c-0.5,0-0.7-0.1-1.1-0.5l-1.1-1c-0.2-0.2-0.4-0.3-0.6-0.3c-0.6,0-1.6,0.8-2.5,2v9
		c0,3.8,0.2,3.9,4,4.2v0.6h-10.2V64.7z"/>
</g>
</svg>
