<?xml version="1.0" encoding="utf-8"?>
<!-- Generator: Adobe Illustrator 24.0.1, SVG Export Plug-In . SVG Version: 6.00 Build 0)  -->
<svg version="1.1" id="Layer_1" xmlns="http://www.w3.org/2000/svg" xmlns:xlink="http://www.w3.org/1999/xlink" x="0px" y="0px"
	 viewBox="0 0 80.4 44.4" style="enable-background:new 0 0 80.4 44.4;" xml:space="preserve">
<style type="text/css">
	.st0{fill:#ffffff;}
</style>
<path class="st0" d="M80.4,37.9v3H0v-3H80.4z M80.4,34.4v3H0v-3H80.4z M21.9,21.6c0-0.1,0-0.1,0-0.2c-0.1-0.1-0.4-0.3-0.4-0.4
	c0,0-0.1,0-0.1,0c-1.2,1.4-2.9,2.2-4.8,2.2c-1.4,0.1-2.7-0.5-3.6-1.6c-1.3-1.5-1.9-3.4-1.9-5.4c0-3,1.4-6,4.7-6
	c1.4,0,2.7,0.5,3.6,1.5c0.7,0.8,1.3,1.7,1.6,2.7c0.1,0.2,0.1,0.3,0.2,0.2l0.4-0.1c0.1,0,0.1-0.1,0.1-0.2c-0.1-0.6-0.5-3.9-0.5-4.4
	c0-0.4,0-0.3-0.3-0.3s-0.3,0-0.3,0.1l-0.2,0.5c0,0.2-0.1,0.2-0.4,0c-1.3-0.7-2.7-1-4.2-1c-2.1-0.1-4,0.8-5.4,2.3
	c-1.4,1.5-2.2,3.5-2.1,5.6c0,2.1,0.8,4.1,2.2,5.6c1.5,1.4,3.5,2.1,5.5,2C18.3,24.7,20.5,23.6,21.9,21.6z M32.3,20
	c0-1.2-0.5-2.4-1.4-3.3c-0.9-0.8-2-1.2-3.2-1.2c-1.1,0-2.1,0.3-3,1C23.7,17.4,23,18.6,23,20c-0.1,1.2,0.3,2.4,1.1,3.2
	c0.8,1,2.1,1.6,3.4,1.5c1.3,0,2.6-0.5,3.5-1.5C31.8,22.4,32.3,21.2,32.3,20L32.3,20z M47.1,12.8c0-0.7-0.6-1.3-1.3-1.3
	c-0.7,0-1.3,0.6-1.3,1.3c0,0.7,0.6,1.3,1.3,1.3h0C46.5,14.1,47.1,13.5,47.1,12.8z M48.6,24.3v-0.4c0-0.1,0-0.1-0.2-0.1h-0.9
	c-0.2,0-0.3-0.2-0.3-0.5c0-0.4,0-1,0-1.8v-5.6c0-0.2,0-0.3-0.2-0.3c-0.2,0-0.3,0.1-0.5,0.1c-0.4,0.1-2.4,0.9-2.7,1
	c-0.1,0-0.1,0.1-0.1,0.2c0,0,0,0,0,0V17c0,0.1,0,0.1,0.2,0.2c1,0.3,1.1,0.7,1.1,1.3v4.8c0,0.3-0.1,0.4-0.3,0.4c-0.3,0-0.7,0-1,0
	c-0.4,0-0.8,0-1.1,0c-0.5,0-0.5-0.3-0.5-0.7v-6.7c0-1.2,0-5.5,0.1-6.6c0-0.3-0.1-0.4-0.2-0.4c-0.2,0-0.3,0.1-0.5,0.1
	c-1,0.5-2,0.9-3.1,1.2c-0.1,0-0.2,0.1-0.2,0.2v0.3c0,0.1,0,0.1,0.1,0.2l0.4,0.1c0.6,0.1,1.1,0.6,1.1,1.3c0,0.5,0.1,2.3,0.1,3.8V23
	c0,0.6-0.3,0.7-0.5,0.7h-1.1c-0.4,0-0.7,0-1.1,0c-0.5,0-0.5-0.3-0.5-0.7v-6.7c0-1.2,0-5.5,0.1-6.6c0-0.3-0.1-0.4-0.2-0.4
	c-0.2,0-0.3,0.1-0.5,0.1c-1,0.5-2,0.9-3.1,1.2c-0.1,0-0.2,0.1-0.2,0.2v0.3c0,0.1,0,0.1,0.1,0.2l0.4,0.1c0.6,0.1,1.1,0.6,1.1,1.3
	c0,0.5,0.1,2.3,0.1,3.8V23c0,0.6-0.3,0.7-0.5,0.7h-0.9c-0.2,0-0.3,0-0.3,0.2v0.4c0,0.1,0,0.2,0.2,0.2h15.6
	C48.5,24.5,48.6,24.4,48.6,24.3L48.6,24.3z M57.2,22.5c0.1-0.3,0.1-0.3,0-0.4l-0.3-0.2c-0.1,0-0.2,0-0.3,0.1
	c-0.6,0.8-1.5,1.3-2.5,1.2c-1.2,0-2.7-1.2-2.7-3.4v-0.6h5c0.4,0,0.6,0,0.6-0.3c0-0.9-0.8-3.3-3.1-3.3c-1.8,0-2.8,0.4-3.6,1.5
	c-0.7,0.9-1.1,2-1,3.1c-0.1,1.3,0.3,2.5,1.2,3.5c0.8,0.8,1.9,1.2,3,1.1C55,24.8,56.5,23.9,57.2,22.5z M65.3,16.4c0-0.6-0.4-1-1-1
	c0,0-0.1,0-0.1,0c-0.9,0-1.7,0.7-2.5,1.9h-0.1l-0.2-1.5c0-0.1-0.1-0.3-0.2-0.3c-0.1,0-0.2,0-0.3,0.1l-2.5,1.2
	c-0.1,0.1-0.2,0.1-0.2,0.2V17c0,0.1,0,0.1,0.2,0.2l0.4,0.2c0.6,0.3,0.8,0.7,0.8,1.6v4.1c0,0.3-0.1,0.5-0.4,0.6c0,0-0.1,0-0.1,0h-0.7
	c-0.1,0-0.2,0-0.2,0.2v0.5c0,0.1,0,0.1,0.1,0.1c0.1,0,1-0.1,2.4-0.1s2.4,0.1,2.6,0.1c0.2,0,0.1,0,0.1-0.1v-0.5c0-0.1,0-0.1-0.2-0.1
	h-1c-0.4,0-0.6-0.2-0.6-0.9v-4c0-0.4,0.1-0.7,0.3-1c0.2-0.3,0.5-0.6,0.9-0.6c0.2,0,0.4,0,0.6,0.2c0.2,0.1,0.5,0.2,0.7,0.2
	C64.8,17.5,65.2,17,65.3,16.4z M72.2,21.7c0-0.6-0.2-1.2-0.6-1.7c-0.6-0.6-1.3-0.9-2.1-1.1c-1.2-0.3-1.9-0.6-1.9-1.4
	c0.1-0.7,0.7-1.2,1.4-1.2h0c0.5,0,1,0.2,1.3,0.6l1,1.1c0,0.1,0.1,0.1,0.2,0.1l0.4-0.2c0-0.1,0-0.2,0-0.2l-0.3-1.4
	c0-0.1-0.1-0.2-0.4-0.4c-0.6-0.3-1.3-0.5-2-0.5c-0.8,0-1.5,0.2-2.2,0.7c-0.7,0.5-1.1,1.3-1.1,2.2c0,1.5,1.1,2.2,2.5,2.6
	c1.4,0.4,2,0.8,2,1.6c0,0.7-0.7,1.3-1.4,1.3c0,0,0,0-0.1,0c-0.8,0-1.5-0.4-1.8-1.1l-0.7-1.2c0-0.1-0.1-0.1-0.2-0.1L66,21.6
	c-0.1,0-0.1,0.1-0.1,0.2l0.3,2.1c0,0.1,0.1,0.2,0.2,0.2c0.7,0.4,1.5,0.6,2.2,0.5C70.7,24.7,72.1,23.4,72.2,21.7L72.2,21.7z
	 M80.4,3.2v30.7H0V3.2C0,1.4,1.5,0,3.2,0l0,0h74C79,0,80.4,1.4,80.4,3.2L80.4,3.2z M0,41.4h80.4c-0.1,1.6-1.4,2.9-3,3H3
	C1.4,44.3,0.1,43,0,41.4z M54.7,18.1c0,0.2-0.3,0.3-0.7,0.3h-2.5c0.3-1.4,0.9-2.2,1.9-2.2C54.5,16.3,54.7,17.5,54.7,18.1z
	 M29.8,19.9c0,2.1-0.7,3.9-2.1,3.9c-0.7,0.1-1.3-0.3-1.6-0.9c-0.5-0.9-0.7-1.9-0.6-2.9c-0.1-1.1,0.2-2.2,0.9-3.1
	c0.3-0.4,0.8-0.6,1.3-0.6C28.5,16.3,29.7,17.7,29.8,19.9L29.8,19.9z"/>
</svg>
