<?xml version="1.0" encoding="UTF-8"?><svg id="b" xmlns="http://www.w3.org/2000/svg" xmlns:xlink="http://www.w3.org/1999/xlink" viewBox="0 0 405.4 518.15"><defs><clipPath id="d"><rect x="52.26" y="384.25" width="353.14" height="133.9" fill="none"/></clipPath><clipPath id="e"><rect x="52.26" y="384.25" width="353.14" height="133.9" fill="none"/></clipPath><clipPath id="f"><rect x="366.94" y="390.88" width="37.31" height="63.59" fill="none"/></clipPath><clipPath id="g"><rect x="52.26" y="384.25" width="353.14" height="133.9" fill="none"/></clipPath><clipPath id="h"><rect x="52.26" y="384.25" width="353.14" height="133.9" fill="none"/></clipPath><clipPath id="i"><rect x="52.26" y="384.25" width="353.14" height="133.9" fill="none"/></clipPath><clipPath id="j"><rect x="52.26" y="384.25" width="353.14" height="133.9" fill="none"/></clipPath><clipPath id="k"><rect x="52.26" y="384.25" width="353.14" height="133.9" fill="none"/></clipPath></defs><g id="c"><g isolation="isolate"><path d="M57.52,15.19h-6.79v-.33c1.6-.22,1.82-.28,1.82-2.36V4.51c0-2.09-.22-2.14-1.82-2.36v-.33h6.51c1.13,0,2.71,0,4.08-.06l.53,4.03h-.33c-1.05-3.28-2.49-3.32-5.87-3.32h-1.07V7.87h2.6c1.05,0,1.72-.52,1.9-2.06h.33v4.94h-.33c-.18-1.54-.85-2.06-1.9-2.06h-2.6v5.01c0,.68,.09,.85,.83,.85h.3c3.53,0,5.15-.31,6.26-3.41h.35l-.71,4.06c-1.38-.01-2.95-.01-4.08-.01Z" fill="#ddddd3"/></g><g isolation="isolate"><path d="M63.91,1.46v-.33l3.35-1.13c-.02,.98-.03,2.14-.03,4.03V12.51c0,1.9,.02,2.15,1.48,2.33v.33h-4.79v-.33c1.45-.16,1.48-.43,1.48-2.33V3.3q0-1.83-1.48-1.83Z" fill="#ddddd3"/></g><g isolation="isolate"><path d="M69.82,10.3c0-2.89,2.05-5.2,4.54-5.2,2.09,0,3.8,1.27,3.99,4h-6.86v.07c0,2.65,1.23,4.64,3.62,4.64,1.35,0,2.34-.59,2.97-1.23l.21,.18c-.61,1.13-1.9,2.65-4.04,2.65-3.02,.01-4.43-2.2-4.43-5.12Zm1.71-1.92h4.6c-.06-1.62-.77-2.62-2.12-2.62-1.18,0-2.25,.74-2.48,2.62Z" fill="#ddddd3"/></g><g isolation="isolate"><path d="M83.61,15.43l-3.6-8.6c-.37-.86-.55-1.18-1.26-1.23v-.33h4.36v.33c-1.42,.07-1.33,.58-.98,1.45l2.24,5.55,1.94-4.55c.77-1.81,.71-2.34-.5-2.45v-.33h3.26v.33c-.83,.07-1.08,.55-1.62,1.82l-3.47,8.01h-.37Z" fill="#ddddd3"/></g><g isolation="isolate"><path d="M97.17,14.23c.3,0,.55-.16,.81-.37l.18,.18c-.48,.61-.98,1.33-1.87,1.33-.76,0-1.54-.39-1.51-1.81-.55,1.04-1.48,1.87-3.04,1.87s-2.77-.98-2.77-2.21c0-1.14,.76-1.91,2.45-2.79,.89-.46,1.99-.94,3.4-1.54l.02-.43c.03-1.96-.67-2.62-1.9-2.62-1.72,0-2.1,1.08-2.01,2.51h-1.69c.02-1.53,1.77-3.23,4.15-3.23,1.73,0,3.26,.67,3.22,3.13l-.09,4.78c-.03,1.01,.15,1.19,.65,1.19Zm-2.41-1.07l.06-3.47c-3.38,1.01-3.93,2.03-3.93,2.93,0,.99,.71,1.62,1.84,1.62,.81,0,1.54-.32,2.03-1.08Z" fill="#ddddd3"/><path d="M99.94,12.61V5.98h-1.62v-.71h1.62v-1.73l1.84-1.23v2.97h2.37v.71h-2.37v6.29c0,1.38,.31,1.94,1.29,1.94,.46,0,.99-.16,1.42-.58l.16,.15c-.46,.83-1.18,1.64-2.45,1.64-1.41,0-2.26-.77-2.26-2.82Z" fill="#ddddd3"/></g><g isolation="isolate"><path d="M108.77,12.53c0,1.9,.02,2.15,1.48,2.33v.33h-4.79v-.33c1.45-.16,1.48-.43,1.48-2.33v-4.15q0-1.82-1.48-1.82v-.33l3.35-1.13c-.02,.98-.03,2.14-.03,4.04v3.39Zm-2.33-10.97c0-.7,.59-1.26,1.31-1.26s1.29,.55,1.29,1.26-.55,1.26-1.29,1.26-1.31-.53-1.31-1.26Z" fill="#ddddd3"/></g><g isolation="isolate"><path d="M121.4,10.24c0,2.89-2.19,5.19-4.91,5.19s-5.04-2.12-5.04-5.16,2.15-5.16,4.91-5.16c2.63-.01,5.04,2.1,5.04,5.14Zm-7.91-.65c0,1.82,.85,5.09,3.23,5.09,1.77,0,2.64-1.38,2.64-3.76,0-1.84-.83-5.09-3.17-5.09-1.81-.01-2.7,1.37-2.7,3.76Z" fill="#ddddd3"/><path d="M122.57,6.22l3.28-1.13,.03,1.66c.67-.8,1.57-1.66,2.93-1.66,1.6,0,2.79,1.07,2.79,3.5v3.93c0,1.9,.02,2.15,1.48,2.33v.33h-4.79v-.33c1.45-.16,1.48-.43,1.48-2.33v-3.56c0-1.75-.58-2.58-1.87-2.58-.76,0-1.6,.25-2.01,.86v5.28c0,1.9,.02,2.15,1.48,2.33v.33h-4.79v-.33c1.45-.16,1.48-.43,1.48-2.33v-4.15q0-1.82-1.48-1.82v-.33h0Z" fill="#ddddd3"/><path d="M143.03,15.43l-3.6-8.6c-.37-.86-.55-1.18-1.26-1.23v-.33h4.36v.33c-1.42,.07-1.33,.58-.98,1.45l2.24,5.55,1.94-4.55c.77-1.81,.71-2.34-.5-2.45v-.33h3.26v.33c-.83,.07-1.08,.55-1.62,1.82l-3.47,8.01h-.37Z" fill="#ddddd3"/></g><g isolation="isolate"><path d="M152.68,12.53c0,1.9,.02,2.15,1.48,2.33v.33h-4.79v-.33c1.45-.16,1.48-.43,1.48-2.33v-4.15q0-1.82-1.48-1.82v-.33l3.35-1.13c-.02,.98-.03,2.14-.03,4.04v3.39Zm-2.32-10.97c0-.7,.59-1.26,1.31-1.26s1.29,.55,1.29,1.26-.55,1.26-1.29,1.26-1.31-.53-1.31-1.26Z" fill="#ddddd3"/></g><g isolation="isolate"><path d="M155.32,10.3c0-2.89,2.05-5.2,4.54-5.2,2.09,0,3.8,1.27,3.99,4h-6.87v.07c0,2.65,1.23,4.64,3.62,4.64,1.35,0,2.34-.59,2.97-1.23l.21,.18c-.61,1.13-1.9,2.65-4.04,2.65-3.01,.01-4.41-2.2-4.41-5.12Zm1.71-1.92h4.6c-.06-1.62-.77-2.62-2.12-2.62-1.18,0-2.25,.74-2.48,2.62Z" fill="#ddddd3"/></g><g isolation="isolate"><path d="M171.48,8.07l-2.52,7.36h-.35l-3.08-8.57c-.33-.89-.53-1.16-1.26-1.26v-.33h4.36v.33c-1.42,.07-1.27,.58-.98,1.48l1.66,5.09,2.36-6.9h.68l2.3,6.9,1.5-4.17c.67-1.82,.68-2.29-.52-2.4v-.33h3.26v.33c-.83,.07-1.13,.5-1.62,1.79l-2.95,8.04h-.37l-2.48-7.36Z" fill="#ddddd3"/></g><g isolation="isolate"><path d="M52.98,368.29c1.6-.22,1.82-.28,1.82-2.36v-7.99c0-2.09-.22-2.14-1.82-2.36v-.33h1.96c1.38,0,2.75-.02,3.63-.02,3.13,0,5.72,.89,5.72,3.9s-2.58,3.9-5.72,3.9h-1.73v2.93c0,1.82,.03,2.18,1.99,2.33v.35h-5.84v-.32h-.01Zm5.45-12.38h-1.59v6.42h1.59c2.28,0,3.62-.59,3.62-3.22-.01-2.62-1.34-3.2-3.62-3.2Z" fill="#ddddd3"/><path d="M65.26,354.9v-.33l3.35-1.13c-.02,.98-.03,2.14-.03,4.03v8.48c0,1.9,.02,2.15,1.48,2.33v.33h-4.79v-.33c1.45-.16,1.48-.43,1.48-2.33v-9.24q0-1.81-1.48-1.81Z" fill="#ddddd3"/><path d="M79.57,367.66c.3,0,.55-.16,.81-.37l.18,.18c-.48,.61-.98,1.33-1.87,1.33-.76,0-1.54-.39-1.51-1.81-.55,1.04-1.48,1.87-3.04,1.87s-2.77-.98-2.77-2.21c0-1.14,.76-1.91,2.45-2.79,.89-.46,1.99-.94,3.4-1.54l.02-.43c.03-1.96-.67-2.62-1.9-2.62-1.72,0-2.1,1.08-2.01,2.51h-1.69c.02-1.53,1.77-3.23,4.15-3.23,1.73,0,3.26,.67,3.22,3.13l-.09,4.78c-.03,1.03,.15,1.19,.65,1.19Zm-2.42-1.06l.06-3.47c-3.38,1.01-3.93,2.03-3.93,2.93,0,.99,.71,1.62,1.84,1.62,.81,0,1.54-.33,2.03-1.08Z" fill="#ddddd3"/><path d="M81.13,359.66l3.28-1.13,.03,1.66c.67-.8,1.57-1.66,2.93-1.66,1.6,0,2.79,1.07,2.79,3.5v3.93c0,1.9,.02,2.15,1.48,2.33v.33h-4.79v-.33c1.45-.16,1.48-.43,1.48-2.33v-3.56c0-1.75-.58-2.58-1.87-2.58-.76,0-1.6,.25-2.01,.86v5.28c0,1.9,.02,2.15,1.48,2.33v.33h-4.79v-.33c1.45-.16,1.48-.43,1.48-2.33v-4.15q0-1.82-1.48-1.82v-.33h0Z" fill="#ddddd3"/><path d="M101.61,368.86l-3.6-8.6c-.37-.86-.55-1.18-1.26-1.23v-.33h4.36v.33c-1.42,.07-1.33,.58-.98,1.45l2.24,5.55,1.94-4.55c.77-1.81,.71-2.34-.5-2.45v-.33h3.26v.33c-.83,.07-1.08,.55-1.62,1.82l-3.47,8.01h-.37Z" fill="#ddddd3"/></g><g isolation="isolate"><path d="M111.26,365.97c0,1.9,.02,2.15,1.48,2.33v.33h-4.79v-.33c1.45-.16,1.48-.43,1.48-2.33v-4.15q0-1.82-1.48-1.82v-.33l3.35-1.13c-.02,.98-.03,2.14-.03,4.04v3.39Zm-2.33-10.97c0-.7,.59-1.26,1.31-1.26s1.29,.55,1.29,1.26-.55,1.26-1.29,1.26-1.31-.54-1.31-1.26Z" fill="#ddddd3"/></g><g isolation="isolate"><path d="M113.9,363.73c0-2.89,2.05-5.2,4.54-5.2,2.09,0,3.8,1.27,3.99,4h-6.86v.07c0,2.65,1.23,4.64,3.62,4.64,1.35,0,2.34-.59,2.97-1.23l.21,.18c-.61,1.13-1.9,2.65-4.04,2.65-3.03,.01-4.43-2.2-4.43-5.12Zm1.69-1.91h4.6c-.06-1.62-.77-2.62-2.12-2.62-1.16,0-2.24,.74-2.48,2.62Z" fill="#ddddd3"/></g><g isolation="isolate"><path d="M130.06,361.51l-2.52,7.36h-.35l-3.08-8.57c-.33-.89-.53-1.16-1.26-1.26v-.33h4.36v.33c-1.42,.07-1.27,.58-.98,1.48l1.66,5.09,2.36-6.9h.68l2.3,6.9,1.5-4.17c.67-1.82,.68-2.29-.52-2.4v-.33h3.26v.33c-.83,.07-1.13,.5-1.62,1.79l-2.95,8.04h-.37l-2.48-7.36Z" fill="#ddddd3"/></g><g isolation="isolate"><path d="M9.17,246.35l-8.34,3.17H9.17v.85H0v-1.38l8.19-3.08L0,242.83v-1.37H9.17v.85H.83l8.34,3.17v.86Z" fill="#deded4"/><path d="M2.29,236.79c0-1.6,1.08-3.12,3.53-3.12s3.53,1.52,3.53,3.12-1.08,3.12-3.53,3.12-3.53-1.52-3.53-3.12Zm6.35,0c0-1.27-.91-2.28-2.82-2.28s-2.82,1.01-2.82,2.28,.91,2.28,2.82,2.28c1.9,0,2.82-1.01,2.82-2.28Z" fill="#deded4"/><path d="M8.07,227.97c.65,.35,1.27,.96,1.27,2.21,0,.76-.22,1.29-.61,1.65-.44,.4-1.13,.58-2.09,.58H2.41v-.81H6.49c.84,0,1.38-.14,1.72-.41,.32-.27,.46-.65,.46-1.13,0-1.18-.98-2.09-2.45-2.09H2.41v-.81h6.78v.81h-1.12Z" fill="#deded4"/><path d="M3.56,224.43c-.67-.35-1.27-1.01-1.27-2.29,0-.83,.27-1.43,.71-1.8,.44-.36,1.07-.53,1.95-.53h4.22v.81H5.16c-.78,0-1.3,.14-1.64,.39-.39,.29-.54,.75-.54,1.34,0,1.19,.99,2.09,2.45,2.09h3.72v.81H2.41v-.81h1.15Z" fill="#deded4"/><path d="M.71,217.77v-.81h1.68v-1.37h.69v1.37H7.38c.9,0,1.08-.02,1.08-.96v-.41h.71v.67c0,1.23-.28,1.51-1.65,1.51H3.1v1.15h-.69v-1.15H.71Z" fill="#deded4"/></g><g isolation="isolate"><path d="M5.19,207.52c.01,.29,.02,.6,.02,.91v1.74h3.96v.85H0v-2.59c0-2.22,.39-3.8,2.56-3.8,1.52,0,2.21,.77,2.49,1.99l4.14-2.13v.96l-4,2.07Zm-4.38,2.65h3.61v-1.86c0-1.53-.18-2.79-1.82-2.79s-1.79,1.26-1.79,2.79v1.86Z" fill="#deded4"/></g><g isolation="isolate"><path d="M2.29,200.52c0-1.6,1.08-3.12,3.53-3.12s3.53,1.52,3.53,3.12-1.08,3.12-3.53,3.12-3.53-1.52-3.53-3.12Zm6.35,0c0-1.27-.91-2.28-2.82-2.28s-2.82,1.01-2.82,2.28,.91,2.28,2.82,2.28,2.82-1.01,2.82-2.28Z" fill="#deded4"/></g><g isolation="isolate"><path d="M2.41,192.86v-.81l5.53-1.77-5.53-1.48v-.89l6.78,2.01v.75l-5.67,1.81,5.67,1.75v.74l-6.78,2.01v-.89l5.52-1.53-5.52-1.69Z" fill="#deded4"/></g><g isolation="isolate"><path d="M369.51,210.52l-2.15,.32c-.2-.69-.85-1.31-2.05-1.31-1.36,0-2.41,.9-2.41,2.86s.98,2.93,2.44,2.93c1.01,0,2.06-.39,2.06-1.57v-.14h-2.24v-1.8h4.44v5.19h-1.67l-.07-1.03c-.61,.81-1.52,1.19-2.85,1.19-2.75,0-4.44-1.81-4.44-4.78s1.92-4.71,4.76-4.71c2.07,.01,3.73,1.05,4.17,2.86Z" fill="#deded4"/></g><g isolation="isolate"><path d="M363.35,258.87h4.46v1.94h-6.66v-9.17h2.2v7.24Z" fill="#deded4"/></g><g isolation="isolate"><path d="M376.54,254.33l-2.15,.32c-.2-.69-.85-1.31-2.04-1.31-1.36,0-2.41,.9-2.41,2.86s.98,2.93,2.44,2.93c1.01,0,2.06-.39,2.06-1.57v-.14h-2.24v-1.8h4.44v5.19h-1.67l-.07-1.03c-.61,.81-1.52,1.19-2.85,1.19-2.75,0-4.44-1.81-4.44-4.78s1.92-4.71,4.76-4.71c2.06,.01,3.72,1.04,4.16,2.86Z" fill="#deded4"/></g><g><polygon points="182.14 78.48 182.14 48.68 92.62 48.68 92.62 78.48 50.37 78.48 50.37 192.97 195.41 192.97 195.41 78.48 182.14 78.48" fill="none" stroke="#dadada" stroke-miterlimit="10" stroke-width="2"/><rect x="50.57" y="192.77" width="119.25" height="39.16" fill="#ddddd3"/><polygon points="313.69 192.63 345.78 192.65 345.78 231.93 50.39 231.93 50.39 192.65 195.22 192.63 214.96 173.91 234.7 192.63 254.44 173.91 274.18 192.63 293.94 173.91 313.69 192.63" fill="none" stroke="#dadada" stroke-miterlimit="10" stroke-width="2"/><rect x="50.39" y="279.59" width="174.61" height="37.46" fill="none" stroke="#dadada" stroke-miterlimit="10" stroke-width="2"/><rect x="50.39" y="231.88" width="295.38" height="47.76" fill="none" stroke="#dadada" stroke-miterlimit="10" stroke-width="2"/><line x1="30.27" y1="232.23" x2="365.93" y2="232.23" fill="none" stroke="#dadada" stroke-miterlimit="10" stroke-width="2"/></g><g><g clip-path="url(#d)"><path d="M221.67,401.65c2.9,0,5.23,.99,5.23,4.51s-2.33,4.51-5.23,4.51h-1.82v-9.02h1.82Zm-.02,.8h-.96v7.44h.96c2.07,0,4.36-.33,4.36-3.72s-2.28-3.72-4.36-3.72Zm6.12,4.93c0-2.14,1.34-3.47,3.17-3.47,1.92,0,3.11,1.51,3,3.63h-5.35c0,1.6,.99,2.59,2.37,2.59,1.06,0,1.83-.55,2.1-1.5l.82,.1c-.31,1.3-1.46,2.1-2.96,2.1-2.01,0-3.15-1.42-3.15-3.46Zm.83-.52h4.48c0-1.15-.78-2.27-2.15-2.27-1.26,0-2.21,.82-2.33,2.27Zm12.08,3.81h-.77v-1.06c-.48,.82-1.3,1.22-2.3,1.22-1.57,0-2.75-1.29-2.75-3.48s1.23-3.45,2.89-3.45c.86,0,1.74,.38,2.15,1.19v-3.43h.78v9.01h0Zm-.74-3.31c0-1.92-1.09-2.75-2.19-2.75-1.24,0-2.1,1.04-2.1,2.75s.83,2.79,2.1,2.79c1.04-.01,2.19-.86,2.19-2.79Zm3.43-5.7v1.24h-.78v-1.24h.78Zm0,2.36v6.65h-.78v-6.66h.78Zm7.23,2.02l-.82,.1c-.24-1.01-1.01-1.52-2.01-1.52-1.16,0-2.2,.93-2.2,2.74s1.04,2.77,2.21,2.77,1.86-.68,2.05-1.52l.82,.1c-.28,1.28-1.37,2.12-2.89,2.12-1.92,0-3.02-1.44-3.02-3.47s1.13-3.47,3.11-3.47c1.53,.02,2.54,1.05,2.74,2.14Zm1.04-.07c.08-1.29,1.12-2.05,2.65-2.05s2.5,.52,2.5,2.26c0,1.21-.01,1.8-.01,2.34,0,.77,.05,1.44,.08,2.18h-.78l-.06-1.04c-.38,.69-1.01,1.2-2.3,1.2-1.5,0-2.3-.92-2.3-2.07,0-.63,.29-1.13,.71-1.43,.63-.44,1.73-.58,2.56-.66l1.34-.14v-.39c0-1.35-.86-1.54-1.8-1.54-1.15,0-1.69,.59-1.75,1.38l-.83-.03Zm4.4,1.26l-1.45,.15c-1.61,.16-2.36,.52-2.36,1.43,0,.82,.66,1.36,1.62,1.36,1.19,0,2.19-.7,2.19-2.52v-.41Zm2.75-4.85h.78v1.66h1.35v.68h-1.35v4.21c0,.89,.02,1.06,.93,1.06h.4v.7h-.66c-1.21,0-1.48-.28-1.48-1.61v-4.36h-1.13v-.68h1.13v-1.66h.01Zm2.96,5.01c0-2.14,1.34-3.47,3.17-3.47,1.92,0,3.11,1.51,3,3.63h-5.35c0,1.6,.99,2.59,2.37,2.59,1.06,0,1.83-.55,2.1-1.5l.82,.1c-.31,1.3-1.46,2.1-2.96,2.1-2.01,0-3.15-1.42-3.15-3.46Zm.83-.52h4.48c0-1.15-.78-2.27-2.15-2.27-1.26,0-2.2,.82-2.33,2.27Zm12.08,3.81h-.77v-1.06c-.48,.82-1.3,1.22-2.3,1.22-1.57,0-2.75-1.29-2.75-3.48s1.23-3.45,2.89-3.45c.86,0,1.74,.38,2.15,1.19v-3.43h.78v9.01h0Zm-.73-3.31c0-1.92-1.09-2.75-2.19-2.75-1.24,0-2.1,1.04-2.1,2.75s.83,2.79,2.1,2.79c1.04-.01,2.19-.86,2.19-2.79Zm6.42,5.66h-.78v-9h.77v1.12c.48-.82,1.3-1.22,2.3-1.22,1.57,0,2.75,1.29,2.75,3.48s-1.23,3.45-2.89,3.45c-.86,0-1.74-.38-2.15-1.19v3.37h0Zm-.06-5.64c0,1.92,1.09,2.75,2.19,2.75,1.24,0,2.1-1.04,2.1-2.75s-.83-2.79-2.1-2.79c-1.04,0-2.19,.86-2.19,2.79Zm7.27,3.28h-.78v-9.02h.78v9.02Zm1.66-4.71c.08-1.29,1.12-2.05,2.65-2.05s2.5,.52,2.5,2.26c0,1.21-.01,1.8-.01,2.34,0,.77,.05,1.44,.08,2.18h-.78l-.06-1.04c-.38,.69-1.01,1.2-2.3,1.2-1.5,0-2.3-.92-2.3-2.07,0-.63,.29-1.13,.71-1.43,.63-.44,1.73-.58,2.56-.66l1.34-.14v-.39c0-1.35-.86-1.54-1.8-1.54-1.15,0-1.69,.59-1.75,1.38l-.83-.03Zm4.4,1.26l-1.45,.15c-1.61,.16-2.36,.52-2.36,1.43,0,.82,.66,1.36,1.62,1.36,1.19,0,2.19-.7,2.19-2.52v-.41Zm3.24-2.05c.33-.66,.99-1.24,2.26-1.24,.82,0,1.39,.25,1.76,.7,.36,.44,.52,1.06,.52,1.91v4.15h-.78v-3.94c0-.77-.14-1.28-.38-1.6-.29-.38-.74-.53-1.31-.53-1.16,0-2.05,.98-2.05,2.42v3.64h-.78v-6.66h.78v1.15h-.01Zm6.55-2.8h.78v1.66h1.35v.68h-1.35v4.21c0,.89,.02,1.06,.93,1.06h.4v.7h-.66c-1.21,0-1.48-.28-1.48-1.61v-4.36h-1.13v-.68h1.13v-1.66h.01Zm10.54,3.49c-.22-.76-.85-1.24-1.82-1.24-.67,0-1.67,.24-1.67,1.07,0,.67,.51,.98,1.22,1.12l.96,.17c1.12,.21,2.29,.54,2.29,1.83s-1.22,2.04-2.67,2.04-2.49-.74-2.71-2.13l.82-.1c.2,.99,.91,1.54,1.96,1.54,.75,0,1.82-.31,1.82-1.22,0-.81-.7-1.04-1.62-1.21l-1.06-.21c-.98-.2-1.8-.71-1.8-1.77s1.05-1.82,2.58-1.82c1.45,0,2.33,.85,2.52,1.83l-.82,.1Zm3.26,3.8c.43,.81,1.29,1.19,2.15,1.19,1.66,0,2.89-1.29,2.89-3.45s-1.2-3.48-2.75-3.48c-1,0-1.82,.4-2.29,1.22v-1.12h-.78v9h.78v-3.37h0Zm4.22-2.27c0,1.73-.84,2.75-2.1,2.75-1.08,0-2.19-.83-2.19-2.75s1.15-2.79,2.19-2.79c1.28,0,2.1,1.05,2.1,2.79Zm1.97-1.43c.08-1.29,1.12-2.05,2.65-2.05s2.5,.52,2.5,2.26c0,1.21-.01,1.8-.01,2.34,0,.77,.05,1.44,.08,2.18h-.78l-.06-1.04c-.38,.69-1.01,1.2-2.3,1.2-1.5,0-2.3-.92-2.3-2.07,0-.63,.29-1.13,.71-1.43,.63-.44,1.73-.58,2.56-.66l1.34-.14v-.39c0-1.35-.86-1.54-1.8-1.54-1.15,0-1.69,.59-1.75,1.38l-.83-.03Zm4.4,1.26l-1.45,.15c-1.61,.16-2.36,.52-2.36,1.43,0,.82,.66,1.36,1.62,1.36,1.19,0,2.19-.7,2.19-2.52v-.41Zm7.77-1.19l-.82,.1c-.24-1.01-1.01-1.52-2.01-1.52-1.16,0-2.2,.93-2.2,2.74s1.04,2.77,2.21,2.77,1.86-.68,2.05-1.52l.82,.1c-.28,1.28-1.37,2.12-2.89,2.12-1.92,0-3.02-1.44-3.02-3.47s1.13-3.47,3.11-3.47c1.53,.02,2.55,1.05,2.74,2.14Zm.82,1.35c0-2.14,1.34-3.47,3.17-3.47,1.92,0,3.11,1.51,3,3.63h-5.35c0,1.6,.99,2.59,2.37,2.59,1.06,0,1.83-.55,2.1-1.5l.82,.1c-.31,1.3-1.46,2.1-2.96,2.1-2.01,0-3.15-1.42-3.15-3.46Zm.83-.52h4.48c0-1.15-.78-2.27-2.15-2.27-1.26,0-2.2,.82-2.33,2.27Z" fill="#ddddd3"/></g><g clip-path="url(#e)"><g clip-path="url(#f)"><path d="M348.32,493.45l65.51-65.51m-65.51,54.53l65.51-65.51m-65.51,54.52l65.51-65.51m-65.51,54.52l65.51-65.51m-65.51,54.52l65.51-65.51m-65.51,54.52l65.51-65.51m-65.51,54.53l65.51-65.51m-65.51,54.52l65.51-65.51" fill="none" stroke="#ddddd3" stroke-width="2"/></g></g><g clip-path="url(#g)"><rect x="53.41" y="390.88" width="141.43" height="70.96" fill="#ddddd3"/></g><g clip-path="url(#h)"><g><g clip-path="url(#i)"><polygon points="366.96 420.99 366.96 454.47 404.27 454.47 404.27 517.02 194.85 517.02 194.85 461.84 53.39 461.84 53.39 390.87 194.85 390.87 194.85 420.99 366.96 420.99" fill="none" stroke="#dadada" stroke-miterlimit="10" stroke-width="2"/></g><g clip-path="url(#j)"><rect x="53.39" y="461.83" width="141.47" height="55.19" fill="none" stroke="#dadada" stroke-miterlimit="10" stroke-width="2"/></g><g clip-path="url(#k)"><polyline points="194.85 390.87 404.27 390.87 404.27 455.3" fill="none" stroke="#dadada" stroke-miterlimit="10" stroke-width="2"/></g></g></g></g></g></svg>