<?xml version="1.0" encoding="utf-8"?>
<!-- Generator: Adobe Illustrator 26.3.1, SVG Export Plug-In . SVG Version: 6.00 Build 0)  -->
<svg version="1.1" id="Layer_2_00000040533224762236696250000013993049982659876798_"
	 xmlns="http://www.w3.org/2000/svg" xmlns:xlink="http://www.w3.org/1999/xlink" x="0px" y="0px" viewBox="0 0 351.8 449.6"
	 style="enable-background:new 0 0 351.8 449.6;" xml:space="preserve">
<style type="text/css">
	.st0{fill:#DEDED4;}
	.st1{opacity:0.97;}
	.st2{clip-path:url(#SVGID_00000027596921290508066020000010924494514605973908_);}
	.st3{fill:#DDDDD3;}
	.st4{fill:none;stroke:#DADADA;stroke-width:2;stroke-miterlimit:10;}
	.st5{clip-path:url(#SVGID_00000176034744218511925110000009700559215458450351_);}
	.st6{fill:none;stroke:#DDDDD3;stroke-width:2;}
	.st7{clip-path:url(#SVGID_00000067958080333122428420000000360770527892850094_);}
	.st8{clip-path:url(#SVGID_00000029016884008751273190000011902687830679987368_);}
	.st9{clip-path:url(#SVGID_00000042696713408557604100000006785150249308693909_);}
	.st10{clip-path:url(#SVGID_00000129179442508031387490000001806083810628269241_);}
</style>
<g id="Layer_1-2">
	<g>
		<path class="st0" d="M8,213.8l-7.2,2.8H8v0.7H0v-1.2l7.1-2.7L0,210.7v-1.2h8v0.7H0.7L8,213V213.8z"/>
		<path class="st0" d="M2,205.5c0-1.4,0.9-2.7,3.1-2.7s3.1,1.3,3.1,2.7s-0.9,2.7-3.1,2.7S2,206.9,2,205.5z M7.5,205.5
			c0-1.1-0.8-2-2.4-2s-2.5,0.9-2.5,2s0.8,2,2.5,2S7.5,206.6,7.5,205.5z"/>
		<path class="st0" d="M7,197.8c0.6,0.3,1.1,0.8,1.1,1.9c0,0.7-0.2,1.1-0.5,1.4c-0.4,0.4-1,0.5-1.8,0.5H2.1V201h3.5
			c0.7,0,1.2-0.1,1.5-0.4c0.3-0.2,0.4-0.6,0.4-1c0-1-0.8-1.8-2.1-1.8H2.1v-0.7H8v0.7H7z"/>
		<path class="st0" d="M3.1,194.8c-0.6-0.3-1.1-0.9-1.1-2c0-0.7,0.2-1.2,0.6-1.6c0.4-0.3,0.9-0.5,1.7-0.5H8v0.7H4.5
			c-0.7,0-1.1,0.1-1.4,0.3c-0.3,0.2-0.5,0.6-0.5,1.2c0,1,0.9,1.8,2.1,1.8H8v0.7H2.1v-0.7L3.1,194.8L3.1,194.8z"/>
		<path class="st0" d="M0.6,189v-0.7h1.5v-1.2h0.6v1.2h3.7c0.8,0,0.9,0,0.9-0.8v-0.4H8v0.6c0,1.1-0.2,1.3-1.4,1.3H2.7v1H2.1v-1H0.6z
			"/>
	</g>
	<g>
		<path class="st0" d="M4.5,180.1c0,0.2,0,0.5,0,0.8v1.5H8v0.7H0v-2.2c0-1.9,0.3-3.3,2.2-3.3c1.3,0,1.9,0.7,2.2,1.7l3.6-1.9v0.8
			L4.5,180.1L4.5,180.1z M0.7,182.4h3.1v-1.6c0-1.3-0.2-2.4-1.6-2.4s-1.5,1.1-1.5,2.4V182.4z"/>
	</g>
	<g>
		<path class="st0" d="M2,174c0-1.4,0.9-2.7,3.1-2.7s3.1,1.3,3.1,2.7s-0.9,2.7-3.1,2.7S2,175.4,2,174z M7.5,174c0-1.1-0.8-2-2.4-2
			s-2.5,0.9-2.5,2s0.8,2,2.5,2S7.5,175.1,7.5,174z"/>
	</g>
	<g>
		<path class="st0" d="M2.1,167.4v-0.7l4.8-1.5l-4.8-1.3v-0.8l5.9,1.7v0.6L3.1,167l4.9,1.5v0.6l-5.9,1.7v-0.8l4.8-1.3L2.1,167.4
			L2.1,167.4z"/>
	</g>
	<g>
		<path class="st0" d="M320.6,182.7l-1.9,0.3c-0.2-0.6-0.7-1.1-1.8-1.1c-1.2,0-2.1,0.8-2.1,2.5s0.9,2.5,2.1,2.5
			c0.9,0,1.8-0.3,1.8-1.4v-0.1h-1.9v-1.6h3.9v4.5h-1.5l-0.1-0.9c-0.5,0.7-1.3,1-2.5,1c-2.4,0-3.9-1.6-3.9-4.1s1.7-4.1,4.1-4.1
			C318.8,180.2,320.3,181.1,320.6,182.7z"/>
	</g>
	<g>
		<path class="st0" d="M315.3,224.6h3.9v1.7h-5.8v-8h1.9V224.6L315.3,224.6z"/>
	</g>
	<g>
		<path class="st0" d="M326.8,220.7l-1.9,0.3c-0.2-0.6-0.7-1.1-1.8-1.1c-1.2,0-2.1,0.8-2.1,2.5s0.9,2.5,2.1,2.5
			c0.9,0,1.8-0.3,1.8-1.4v-0.1H323v-1.6h3.9v4.5h-1.5l-0.1-0.9c-0.5,0.7-1.3,1-2.5,1c-2.4,0-3.9-1.6-3.9-4.1s1.7-4.1,4.1-4.1
			C324.9,218.2,326.4,219.1,326.8,220.7z"/>
	</g>
	<g>
		<g>
			<g class="st1">
				<g>
					<defs>
						<rect id="SVGID_1_" x="139.4" y="145.3" width="167.4" height="56.8"/>
					</defs>
					<clipPath id="SVGID_00000116919035841047259670000014619173052496632724_">
						<use xlink:href="#SVGID_1_"  style="overflow:visible;"/>
					</clipPath>
					<g style="clip-path:url(#SVGID_00000116919035841047259670000014619173052496632724_);">
						<polygon class="st3" points="146.9,201.3 299.4,201.3 299.4,167.3 271.6,167.3 254.5,151.1 237.4,167.3 220.2,151.1 
							203.1,167.3 186,151.1 168.9,167.3 146.9,167.3 						"/>
					</g>
				</g>
			</g>
			<polygon class="st4" points="158.1,68.1 158.1,42.2 80.4,42.2 80.4,68.1 43.7,68.1 43.7,167.4 169.6,167.4 169.6,68.1 			"/>
		</g>
		<polygon class="st4" points="272.2,167.2 300,167.2 300,201.3 43.7,201.3 43.7,167.2 169.4,167.2 186.5,150.9 203.7,167.2 
			220.8,150.9 237.9,167.2 255.1,150.9 		"/>
		<rect x="43.7" y="242.6" class="st4" width="151.5" height="32.5"/>
		<rect x="43.7" y="201.2" class="st4" width="256.3" height="41.4"/>
		<line class="st4" x1="26.3" y1="201.5" x2="317.5" y2="201.5"/>
	</g>
	<g>
		<path class="st3" d="M167.5,346c2.1,0,3.8,0.7,3.8,3.2c0,2.5-1.7,3.2-3.8,3.2h-1.3V346L167.5,346L167.5,346z M167.5,346.6h-0.7
			v5.4h0.7c1.5,0,3.1-0.2,3.1-2.7S169,346.6,167.5,346.6L167.5,346.6z M171.9,350.1c0-1.5,1-2.5,2.3-2.5c1.4,0,2.2,1.1,2.2,2.6h-3.9
			c0,1.2,0.7,1.9,1.7,1.9c0.8,0,1.3-0.4,1.5-1.1l0.6,0.1c-0.2,0.9-1.1,1.5-2.1,1.5C172.8,352.6,171.9,351.6,171.9,350.1L171.9,350.1
			z M172.5,349.7h3.2c0-0.8-0.6-1.6-1.6-1.6C173.3,348.1,172.6,348.7,172.5,349.7z M181.2,352.5h-0.6v-0.8c-0.3,0.6-0.9,0.9-1.7,0.9
			c-1.1,0-2-0.9-2-2.5s0.9-2.5,2.1-2.5c0.6,0,1.3,0.3,1.6,0.9V346h0.6V352.5L181.2,352.5L181.2,352.5z M180.7,350.1
			c0-1.4-0.8-2-1.6-2c-0.9,0-1.5,0.7-1.5,2c0,1.2,0.6,2,1.5,2C179.9,352.1,180.7,351.5,180.7,350.1z M183.2,346v0.9h-0.6V346H183.2z
			 M183.2,347.7v4.8h-0.6v-4.8L183.2,347.7L183.2,347.7z M188.4,349.2l-0.6,0.1c-0.2-0.7-0.7-1.1-1.4-1.1c-0.8,0-1.6,0.7-1.6,2
			s0.7,2,1.6,2c0.8,0,1.3-0.5,1.5-1.1l0.6,0.1c-0.2,0.9-1,1.5-2.1,1.5c-1.4,0-2.2-1-2.2-2.5s0.8-2.5,2.2-2.5
			C187.5,347.6,188.3,348.4,188.4,349.2L188.4,349.2z M189.1,349.1c0.1-0.9,0.8-1.5,1.9-1.5s1.8,0.4,1.8,1.6c0,0.9,0,1.3,0,1.7
			c0,0.6,0,1,0.1,1.6h-0.6l0-0.7c-0.3,0.5-0.7,0.9-1.7,0.9c-1.1,0-1.7-0.7-1.7-1.5c0-0.5,0.2-0.8,0.5-1c0.5-0.3,1.2-0.4,1.8-0.5
			l1-0.1v-0.3c0-1-0.6-1.1-1.3-1.1c-0.8,0-1.2,0.4-1.3,1L189.1,349.1L189.1,349.1z M192.3,350l-1,0.1c-1.2,0.1-1.7,0.4-1.7,1
			c0,0.6,0.5,1,1.2,1c0.9,0,1.6-0.5,1.6-1.8V350z M194.3,346.5h0.6v1.2h1v0.5h-1v3c0,0.6,0,0.8,0.7,0.8h0.3v0.5h-0.5
			c-0.9,0-1.1-0.2-1.1-1.2v-3.1h-0.8v-0.5h0.8L194.3,346.5L194.3,346.5L194.3,346.5z M196.4,350.1c0-1.5,1-2.5,2.3-2.5
			c1.4,0,2.2,1.1,2.2,2.6H197c0,1.2,0.7,1.9,1.7,1.9c0.8,0,1.3-0.4,1.5-1.1l0.6,0.1c-0.2,0.9-1.1,1.5-2.1,1.5
			C197.3,352.6,196.4,351.6,196.4,350.1L196.4,350.1z M197,349.8h3.2c0-0.8-0.6-1.6-1.6-1.6C197.8,348.1,197.1,348.7,197,349.8z
			 M205.8,352.5h-0.6v-0.8c-0.3,0.6-0.9,0.9-1.7,0.9c-1.1,0-2-0.9-2-2.5s0.9-2.5,2.1-2.5c0.6,0,1.3,0.3,1.6,0.9V346h0.6L205.8,352.5
			L205.8,352.5L205.8,352.5z M205.2,350.1c0-1.4-0.8-2-1.6-2c-0.9,0-1.5,0.7-1.5,2c0,1.2,0.6,2,1.5,2
			C204.4,352.1,205.2,351.5,205.2,350.1z M209.9,354.2h-0.6v-6.5h0.6v0.8c0.3-0.6,0.9-0.9,1.7-0.9c1.1,0,2,0.9,2,2.5
			c0,1.6-0.9,2.5-2.1,2.5c-0.6,0-1.3-0.3-1.6-0.9L209.9,354.2L209.9,354.2L209.9,354.2z M209.8,350.1c0,1.4,0.8,2,1.6,2
			c0.9,0,1.5-0.7,1.5-2s-0.6-2-1.5-2C210.7,348.1,209.8,348.7,209.8,350.1z M215.1,352.5h-0.6V346h0.6V352.5z M216.3,349.1
			c0.1-0.9,0.8-1.5,1.9-1.5s1.8,0.4,1.8,1.6c0,0.9,0,1.3,0,1.7c0,0.6,0,1,0.1,1.6h-0.6l0-0.7c-0.3,0.5-0.7,0.9-1.7,0.9
			c-1.1,0-1.7-0.7-1.7-1.5c0-0.5,0.2-0.8,0.5-1c0.5-0.3,1.2-0.4,1.8-0.5l1-0.1v-0.3c0-1-0.6-1.1-1.3-1.1c-0.8,0-1.2,0.4-1.3,1
			L216.3,349.1L216.3,349.1z M219.4,350l-1,0.1c-1.2,0.1-1.7,0.4-1.7,1c0,0.6,0.5,1,1.2,1c0.9,0,1.6-0.5,1.6-1.8V350z M221.8,348.5
			c0.2-0.5,0.7-0.9,1.6-0.9c0.6,0,1,0.2,1.3,0.5c0.3,0.3,0.4,0.8,0.4,1.4v3h-0.6v-2.8c0-0.6-0.1-0.9-0.3-1.2
			c-0.2-0.3-0.5-0.4-0.9-0.4c-0.8,0-1.5,0.7-1.5,1.7v2.6h-0.6v-4.8h0.6L221.8,348.5L221.8,348.5z M226.5,346.5h0.6v1.2h1v0.5h-1v3
			c0,0.6,0,0.8,0.7,0.8h0.3v0.5h-0.5c-0.9,0-1.1-0.2-1.1-1.2v-3.1h-0.8v-0.5h0.8L226.5,346.5L226.5,346.5z M234.1,349
			c-0.2-0.5-0.6-0.9-1.3-0.9c-0.5,0-1.2,0.2-1.2,0.8c0,0.5,0.4,0.7,0.9,0.8l0.7,0.1c0.8,0.1,1.7,0.4,1.7,1.3c0,0.9-0.9,1.5-1.9,1.5
			s-1.8-0.5-2-1.5l0.6-0.1c0.1,0.7,0.7,1.1,1.4,1.1c0.5,0,1.3-0.2,1.3-0.9c0-0.6-0.5-0.7-1.2-0.9l-0.8-0.1c-0.7-0.1-1.3-0.5-1.3-1.3
			c0-0.8,0.8-1.3,1.9-1.3c1,0,1.7,0.6,1.8,1.3L234.1,349L234.1,349z M236.4,351.8c0.3,0.6,0.9,0.9,1.6,0.9c1.2,0,2.1-0.9,2.1-2.5
			c0-1.6-0.9-2.5-2-2.5c-0.7,0-1.3,0.3-1.7,0.9v-0.8h-0.6v6.5h0.6V351.8L236.4,351.8z M239.5,350.1c0,1.2-0.6,2-1.5,2
			c-0.8,0-1.6-0.6-1.6-2c0-1.4,0.8-2,1.6-2C238.9,348.1,239.5,348.9,239.5,350.1z M240.9,349.1c0.1-0.9,0.8-1.5,1.9-1.5
			c1.1,0,1.8,0.4,1.8,1.6c0,0.9,0,1.3,0,1.7c0,0.6,0,1,0.1,1.6h-0.6l0-0.7c-0.3,0.5-0.7,0.9-1.7,0.9c-1.1,0-1.7-0.7-1.7-1.5
			c0-0.5,0.2-0.8,0.5-1c0.5-0.3,1.2-0.4,1.8-0.5l1-0.1v-0.3c0-1-0.6-1.1-1.3-1.1c-0.8,0-1.2,0.4-1.3,1L240.9,349.1L240.9,349.1z
			 M244.1,350l-1,0.1c-1.2,0.1-1.7,0.4-1.7,1c0,0.6,0.5,1,1.2,1c0.9,0,1.6-0.5,1.6-1.8V350z M249.7,349.2l-0.6,0.1
			c-0.2-0.7-0.7-1.1-1.4-1.1c-0.8,0-1.6,0.7-1.6,2s0.7,2,1.6,2s1.3-0.5,1.5-1.1l0.6,0.1c-0.2,0.9-1,1.5-2.1,1.5
			c-1.4,0-2.2-1-2.2-2.5s0.8-2.5,2.2-2.5C248.8,347.6,249.5,348.4,249.7,349.2L249.7,349.2z M250.3,350.1c0-1.5,1-2.5,2.3-2.5
			c1.4,0,2.2,1.1,2.2,2.6h-3.9c0,1.2,0.7,1.9,1.7,1.9c0.8,0,1.3-0.4,1.5-1.1l0.6,0.1c-0.2,0.9-1.1,1.5-2.1,1.5
			C251.1,352.6,250.3,351.6,250.3,350.1L250.3,350.1z M250.9,349.8h3.2c0-0.8-0.6-1.6-1.6-1.6C251.7,348.1,251,348.7,250.9,349.8
			L250.9,349.8z"/>
		<g>
			<defs>
				<rect id="SVGID_00000029004891727383072050000016573564253824243622_" x="272.3" y="338.2" width="26.9" height="45.9"/>
			</defs>
			<clipPath id="SVGID_00000177453577241099117100000001821809282493269906_">
				<use xlink:href="#SVGID_00000029004891727383072050000016573564253824243622_"  style="overflow:visible;"/>
			</clipPath>
			<g style="clip-path:url(#SVGID_00000177453577241099117100000001821809282493269906_);">
				<path class="st6" d="M258.9,412.2l47.3-47.3 M258.9,404.3l47.3-47.3 M258.9,396.4l47.3-47.3 M258.9,388.4l47.3-47.3
					 M258.9,380.5l47.3-47.3 M258.9,372.6l47.3-47.3 M258.9,364.6l47.3-47.3 M258.9,356.7l47.3-47.3"/>
			</g>
		</g>
		<g>
			<g>
				<defs>
					<rect id="SVGID_00000063597951014226918080000016869674842162018197_" x="45.3" y="333.4" width="254.7" height="96.6"/>
				</defs>
				<clipPath id="SVGID_00000090267779986328125530000017955467647161429908_">
					<use xlink:href="#SVGID_00000063597951014226918080000016869674842162018197_"  style="overflow:visible;"/>
				</clipPath>
				<g style="clip-path:url(#SVGID_00000090267779986328125530000017955467647161429908_);">
					<polygon class="st3" points="299.2,429.2 148.2,429.2 148.2,359.8 272.3,359.9 272.3,384.1 299.2,384.1 					"/>
				</g>
			</g>
			<g>
				<defs>
					<rect id="SVGID_00000057834135893972310480000017279850946711315608_" x="45.3" y="333.4" width="254.7" height="96.6"/>
				</defs>
				<clipPath id="SVGID_00000119092461046629731030000012748728069720390833_">
					<use xlink:href="#SVGID_00000057834135893972310480000017279850946711315608_"  style="overflow:visible;"/>
				</clipPath>
				<g style="clip-path:url(#SVGID_00000119092461046629731030000012748728069720390833_);">
					<polygon class="st4" points="272.3,359.9 272.3,384.1 299.2,384.1 299.2,429.2 148.2,429.2 148.2,389.4 46.2,389.4 46.2,338.2 
						148.2,338.2 148.2,359.9 					"/>
				</g>
			</g>
			<g>
				<defs>
					<rect id="SVGID_00000028317676920734081080000011592531891272965263_" x="45.3" y="333.4" width="254.7" height="96.6"/>
				</defs>
				<clipPath id="SVGID_00000121989959125457622600000002677620317926744473_">
					<use xlink:href="#SVGID_00000028317676920734081080000011592531891272965263_"  style="overflow:visible;"/>
				</clipPath>
				<g style="clip-path:url(#SVGID_00000121989959125457622600000002677620317926744473_);">
					<rect x="46.2" y="389.4" class="st4" width="102" height="39.8"/>
				</g>
			</g>
			<g>
				<defs>
					<rect id="SVGID_00000004545075523538742090000008228032111641584269_" x="45.3" y="333.4" width="254.7" height="96.6"/>
				</defs>
				<clipPath id="SVGID_00000147936040261589950330000016932308174866872237_">
					<use xlink:href="#SVGID_00000004545075523538742090000008228032111641584269_"  style="overflow:visible;"/>
				</clipPath>
				<g style="clip-path:url(#SVGID_00000147936040261589950330000016932308174866872237_);">
					<polyline class="st4" points="148.2,338.2 299.2,338.2 299.2,384.7 					"/>
				</g>
			</g>
		</g>
	</g>
	<g>
		<path class="st3" d="M49.9,13.2H44v-0.3c1.4-0.2,1.6-0.2,1.6-2.1V3.9c0-1.8-0.2-1.9-1.6-2V1.6h5.7c1,0,2.3,0,3.5,0L53.7,5h-0.3
			c-0.9-2.8-2.2-2.9-5.1-2.9h-0.9v4.7h2.3c0.9,0,1.5-0.4,1.7-1.8h0.3v4.3h-0.3c-0.2-1.3-0.7-1.8-1.7-1.8h-2.3v4.3
			c0,0.6,0.1,0.7,0.7,0.7h0.3c3.1,0,4.5-0.3,5.4-3h0.3l-0.6,3.5C52.2,13.2,50.9,13.2,49.9,13.2z"/>
	</g>
	<g>
		<path class="st3" d="M55.5,1.3V1l2.9-1c0,0.9,0,1.9,0,3.5v7.4c0,1.6,0,1.9,1.3,2v0.3h-4.2v-0.3c1.3-0.1,1.3-0.4,1.3-2v-8
			C56.7,1.8,56.3,1.3,55.5,1.3z"/>
	</g>
	<g>
		<path class="st3" d="M60.6,8.9c0-2.5,1.8-4.5,3.9-4.5c1.8,0,3.3,1.1,3.5,3.5h-6V8c0,2.3,1.1,4,3.1,4c1.2,0,2-0.5,2.6-1.1l0.2,0.2
			c-0.5,1-1.7,2.3-3.5,2.3C61.8,13.4,60.6,11.5,60.6,8.9z M62.1,7.3h4C66,5.9,65.4,5,64.2,5C63.2,5,62.3,5.6,62.1,7.3z"/>
	</g>
	<g>
		<path class="st3" d="M72.6,13.4l-3.1-7.5c-0.3-0.8-0.5-1-1.1-1.1V4.6h3.8v0.3c-1.2,0.1-1.2,0.5-0.8,1.3l1.9,4.8L74.9,7
			c0.7-1.6,0.6-2-0.4-2.1V4.6h2.8v0.3c-0.7,0.1-0.9,0.5-1.4,1.6l-3,6.9H72.6z"/>
	</g>
	<g>
		<path class="st3" d="M84.3,12.4c0.3,0,0.5-0.1,0.7-0.3l0.2,0.2c-0.4,0.5-0.8,1.1-1.6,1.1c-0.7,0-1.3-0.3-1.3-1.6
			c-0.5,0.9-1.3,1.6-2.6,1.6s-2.4-0.9-2.4-1.9c0-1,0.7-1.7,2.1-2.4c0.8-0.4,1.7-0.8,2.9-1.3l0-0.4c0-1.7-0.6-2.3-1.7-2.3
			c-1.5,0-1.8,0.9-1.7,2.2h-1.5c0-1.3,1.5-2.8,3.6-2.8c1.5,0,2.8,0.6,2.8,2.7l-0.1,4.1C83.7,12.2,83.9,12.3,84.3,12.4L84.3,12.4z
			 M82.2,11.4l0.1-3c-2.9,0.9-3.4,1.8-3.4,2.5c0,0.9,0.6,1.4,1.6,1.4C81.2,12.4,81.8,12.1,82.2,11.4z"/>
		<path class="st3" d="M86.7,10.9V5.2h-1.4V4.6h1.4V3.1L88.3,2v2.6h2.1v0.6h-2.1v5.5c0,1.2,0.3,1.7,1.1,1.7c0.4,0,0.9-0.1,1.2-0.5
			l0.1,0.1c-0.4,0.7-1,1.4-2.1,1.4C87.5,13.4,86.7,12.7,86.7,10.9z"/>
	</g>
	<g>
		<path class="st3" d="M94.4,10.9c0,1.6,0,1.9,1.3,2v0.3h-4.2v-0.3c1.3-0.1,1.3-0.4,1.3-2V7.3c0-1.1-0.4-1.6-1.3-1.6V5.4l2.9-1
			c0,0.8,0,1.9,0,3.5C94.4,7.9,94.4,10.9,94.4,10.9z M92.4,1.3c0-0.6,0.5-1.1,1.1-1.1s1.1,0.5,1.1,1.1s-0.5,1.1-1.1,1.1
			S92.4,2,92.4,1.3z"/>
	</g>
	<g>
		<path class="st3" d="M105.3,8.9c0,2.5-1.9,4.5-4.3,4.5s-4.4-1.8-4.4-4.5s1.9-4.5,4.3-4.5C103.3,4.4,105.3,6.2,105.3,8.9z
			 M98.5,8.3c0,1.6,0.7,4.4,2.8,4.4c1.5,0,2.3-1.2,2.3-3.3c0-1.6-0.7-4.4-2.8-4.4C99.3,5.1,98.5,6.3,98.5,8.3z"/>
		<path class="st3" d="M106.4,5.4l2.8-1l0,1.4c0.6-0.7,1.4-1.4,2.5-1.4c1.4,0,2.4,0.9,2.4,3v3.4c0,1.6,0,1.9,1.3,2v0.3h-4.2v-0.3
			c1.3-0.1,1.3-0.4,1.3-2V7.8c0-1.5-0.5-2.2-1.6-2.2c-0.7,0-1.4,0.2-1.7,0.8v4.6c0,1.6,0,1.9,1.3,2v0.3h-4.2v-0.3
			c1.3-0.1,1.3-0.4,1.3-2V7.3c0-1.1-0.4-1.6-1.3-1.6L106.4,5.4L106.4,5.4L106.4,5.4z"/>
		<path class="st3" d="M124.1,13.4L121,5.9c-0.3-0.8-0.5-1-1.1-1.1V4.6h3.8v0.3c-1.2,0.1-1.2,0.5-0.8,1.3l1.9,4.8l1.7-3.9
			c0.7-1.6,0.6-2-0.4-2.1V4.6h2.8v0.3c-0.7,0.1-0.9,0.5-1.4,1.6l-3,6.9C124.4,13.4,124.1,13.4,124.1,13.4z"/>
	</g>
	<g>
		<path class="st3" d="M132.5,10.9c0,1.6,0,1.9,1.3,2v0.3h-4.2v-0.3c1.3-0.1,1.3-0.4,1.3-2V7.3c0-1.1-0.4-1.6-1.3-1.6V5.4l2.9-1
			c0,0.8,0,1.9,0,3.5C132.5,7.9,132.5,10.9,132.5,10.9z M130.5,1.3c0-0.6,0.5-1.1,1.1-1.1s1.1,0.5,1.1,1.1s-0.5,1.1-1.1,1.1
			S130.5,2,130.5,1.3z"/>
	</g>
	<g>
		<path class="st3" d="M134.8,8.9c0-2.5,1.8-4.5,3.9-4.5c1.8,0,3.3,1.1,3.5,3.5h-6V8c0,2.3,1.1,4,3.1,4c1.2,0,2-0.5,2.6-1.1l0.2,0.2
			c-0.5,1-1.6,2.3-3.5,2.3C136,13.4,134.8,11.5,134.8,8.9z M136.3,7.3h4c-0.1-1.4-0.7-2.3-1.8-2.3C137.4,5,136.5,5.6,136.3,7.3
			L136.3,7.3z"/>
	</g>
	<g>
		<path class="st3" d="M148.8,7l-2.2,6.4h-0.3l-2.7-7.4c-0.3-0.8-0.5-1-1.1-1.1V4.6h3.8v0.3c-1.2,0.1-1.1,0.5-0.9,1.3l1.4,4.4l2.1-6
			h0.6l2,6l1.3-3.6c0.6-1.6,0.6-2-0.4-2.1V4.6h2.8v0.3c-0.7,0.1-1,0.4-1.4,1.6l-2.6,7h-0.3C150.9,13.4,148.8,7,148.8,7z"/>
	</g>
	<g>
		<path class="st3" d="M46,319.6c1.4-0.2,1.6-0.2,1.6-2v-6.9c0-1.8-0.2-1.9-1.6-2v-0.3h1.7c1.2,0,2.4,0,3.2,0c2.7,0,5,0.8,5,3.4
			s-2.2,3.4-5,3.4h-1.5v2.5c0,1.6,0,1.9,1.7,2v0.3H46L46,319.6L46,319.6L46,319.6z M50.7,308.9h-1.4v5.6h1.4c2,0,3.1-0.5,3.1-2.8
			C53.8,309.4,52.7,308.9,50.7,308.9z"/>
		<path class="st3" d="M56.6,308v-0.3l2.9-1c0,0.9,0,1.9,0,3.5v7.4c0,1.6,0,1.9,1.3,2v0.3h-4.2v-0.3c1.3-0.1,1.3-0.4,1.3-2v-8
			C57.9,308.5,57.5,308,56.6,308L56.6,308z"/>
		<path class="st3" d="M69.1,319c0.3,0,0.5-0.1,0.7-0.3l0.2,0.2c-0.4,0.5-0.8,1.1-1.6,1.1c-0.7,0-1.3-0.3-1.3-1.6
			c-0.5,0.9-1.3,1.6-2.6,1.6s-2.4-0.9-2.4-1.9c0-1,0.7-1.7,2.1-2.4c0.8-0.4,1.7-0.8,2.9-1.3l0-0.4c0-1.7-0.6-2.3-1.7-2.3
			c-1.5,0-1.8,0.9-1.7,2.2h-1.5c0-1.3,1.5-2.8,3.6-2.8c1.5,0,2.8,0.6,2.8,2.7l-0.1,4.1C68.5,318.9,68.6,319,69.1,319L69.1,319z
			 M67,318.1l0.1-3c-2.9,0.9-3.4,1.8-3.4,2.5c0,0.9,0.6,1.4,1.6,1.4C65.9,319.1,66.5,318.8,67,318.1z"/>
		<path class="st3" d="M70.4,312.1l2.8-1l0,1.4c0.6-0.7,1.4-1.4,2.5-1.4c1.4,0,2.4,0.9,2.4,3v3.4c0,1.6,0,1.9,1.3,2v0.3h-4.2v-0.3
			c1.3-0.1,1.3-0.4,1.3-2v-3.1c0-1.5-0.5-2.2-1.6-2.2c-0.7,0-1.4,0.2-1.7,0.8v4.6c0,1.6,0,1.9,1.3,2v0.3h-4.2v-0.3
			c1.3-0.1,1.3-0.4,1.3-2V314c0-1.1-0.4-1.6-1.3-1.6L70.4,312.1C70.4,312.1,70.4,312.1,70.4,312.1z"/>
		<path class="st3" d="M88.2,320.1l-3.1-7.5c-0.3-0.8-0.5-1-1.1-1.1v-0.3h3.8v0.3c-1.2,0.1-1.2,0.5-0.8,1.3l1.9,4.8l1.7-4
			c0.7-1.6,0.6-2-0.4-2.1v-0.3h2.8v0.3c-0.7,0.1-0.9,0.5-1.4,1.6l-3,7H88.2z"/>
	</g>
	<g>
		<path class="st3" d="M96.6,317.6c0,1.6,0,1.9,1.3,2v0.3h-4.2v-0.3c1.3-0.1,1.3-0.4,1.3-2V314c0-1.1-0.4-1.6-1.3-1.6v-0.3l2.9-1
			c0,0.9,0,1.9,0,3.5V317.6z M94.5,308.1c0-0.6,0.5-1.1,1.1-1.1s1.1,0.5,1.1,1.1s-0.5,1.1-1.1,1.1S94.5,308.7,94.5,308.1z"/>
	</g>
	<g>
		<path class="st3" d="M98.8,315.6c0-2.5,1.8-4.5,3.9-4.5c1.8,0,3.3,1.1,3.5,3.5h-5.9v0.1c0,2.3,1.1,4,3.1,4c1.2,0,2-0.5,2.6-1.1
			l0.2,0.2c-0.5,1-1.7,2.3-3.5,2.3C100.1,320.1,98.8,318.2,98.8,315.6L98.8,315.6z M100.3,314h4c-0.1-1.4-0.7-2.3-1.8-2.3
			C101.4,311.7,100.5,312.3,100.3,314z"/>
	</g>
	<g>
		<path class="st3" d="M112.9,313.7l-2.2,6.4h-0.3l-2.7-7.4c-0.3-0.8-0.5-1-1.1-1.1v-0.3h3.8v0.3c-1.2,0.1-1.1,0.5-0.8,1.3l1.4,4.4
			l2.1-6h0.6l2,6l1.3-3.6c0.6-1.6,0.6-2-0.4-2.1v-0.3h2.8v0.3c-0.7,0.1-1,0.4-1.4,1.5l-2.6,7H115L112.9,313.7L112.9,313.7z"/>
	</g>
</g>
</svg>
