<?xml version="1.0" standalone="no"?>
<!DOCTYPE svg PUBLIC "-//W3C//DTD SVG 1.1//EN" "http://www.w3.org/Graphics/SVG/1.1/DTD/svg11.dtd" >
<svg xmlns="http://www.w3.org/2000/svg" xmlns:xlink="http://www.w3.org/1999/xlink" version="1.1">
<metadata>
Created by FontForge 20170731 at Sat Jun 11 18:24:16 2022
 By Aleksey,,,
Copyright (c) 2011 by Ian Party, distributed by B&#38;P Foundry Srl, Switzerland, d/b/a b+p swiss typefaces: http://www.swisstypefaces.com. All rights reserved.
</metadata>
<defs>
<font id="SuisseBPIntl-Light" horiz-adv-x="1087" >
  <font-face 
    font-family="Suisse BP Int'l Light"
    font-weight="300"
    font-stretch="normal"
    units-per-em="2048"
    panose-1="0 0 0 0 0 0 0 0 0 0"
    ascent="1536"
    descent="-512"
    x-height="1004"
    cap-height="1360"
    bbox="-449 -455 2396 1888"
    underline-thickness="102"
    underline-position="-307"
    unicode-range="U+0020-FB06"
  />
<missing-glyph horiz-adv-x="450" 
 />
    <glyph glyph-name="f_f" unicode="ff" horiz-adv-x="1048" 
d="M172 1004v126q0 66 9.5 107t36.5 70t72.5 41t119.5 12h84v-109h-60q-97 0 -120 -22t-23 -115v-110h203v-103h-203v-901h-119v901h-141v103h141zM696 1004v126q0 66 9.5 107t36.5 70t72.5 41t119.5 12h84v-109h-60q-97 0 -120 -22t-23 -115v-110h203v-103h-203v-901h-119
v901h-141v103h141z" />
    <glyph glyph-name="fi" unicode="fi" horiz-adv-x="929" 
d="M172 1004v126q0 66 9.5 107t36.5 70t72.5 41t119.5 12h84v-109h-60q-97 0 -120 -22t-23 -115v-110h203v-103h-203v-901h-119v901h-141v103h141zM668 1004h118v-1004h-118v1004zM668 1360h118v-189h-118v189z" />
    <glyph glyph-name="fl" unicode="fl" horiz-adv-x="929" 
d="M172 1004v126q0 66 9.5 107t36.5 70t72.5 41t119.5 12h84v-109h-60q-97 0 -120 -22t-23 -115v-110h203v-103h-203v-901h-119v901h-141v103h141zM786 1360v-1360h-118v1360h118z" />
    <glyph glyph-name="f_f_i" unicode="ffi" horiz-adv-x="1454" 
d="M172 1004v126q0 66 9.5 107t36.5 70t72.5 41t119.5 12h84v-109h-60q-97 0 -120 -22t-23 -115v-110h203v-103h-203v-901h-119v901h-141v103h141zM696 1004v126q0 66 9.5 107t36.5 70t72.5 41t119.5 12h84v-109h-60q-97 0 -120 -22t-23 -115v-110h203v-103h-203v-901h-119
v901h-141v103h141zM1192 1004h119v-1004h-119v1004zM1192 1360h119v-189h-119v189z" />
    <glyph glyph-name="f_f_l" unicode="ffl" horiz-adv-x="1454" 
d="M172 1004v126q0 66 9.5 107t36.5 70t72.5 41t119.5 12h84v-109h-60q-97 0 -120 -22t-23 -115v-110h203v-103h-203v-901h-119v901h-141v103h141zM696 1004v126q0 66 9.5 107t36.5 70t72.5 41t119.5 12h84v-109h-60q-97 0 -120 -22t-23 -115v-110h203v-103h-203v-901h-119
v901h-141v103h141zM1311 1360v-1360h-119v1360h119z" />
    <glyph glyph-name="s_t" unicode="st" horiz-adv-x="1558" 
d="M879 743l-123 -16q-25 88 -96.5 138t-178.5 50q-41 0 -82 -8t-81 -25t-64.5 -50.5t-24.5 -77.5q0 -134 185 -168l143 -27q59 -11 101.5 -22t92 -32.5t80 -49t51.5 -72t21 -100.5q0 -146 -115 -227t-288 -81q-163 0 -273.5 83.5t-134.5 238.5l123 16q22 -112 99 -172.5
t196 -60.5q46 0 91 10t87.5 30.5t69 57.5t26.5 86q0 35 -13 62.5t-33 46t-53.5 33t-66 23t-79.5 17.5l-160 31q-121 24 -195.5 89.5t-74.5 178.5q0 122 108 198.5t281 76.5q156 0 256 -79.5t125 -197.5zM1176 1004v249h118v-249h203v-103h-203v-635q0 -39 1 -58.5t5.5 -41.5
t13 -30.5t25 -17t39 -10.5t58.5 -2h61v-106h-98q-95 0 -140.5 19.5t-64 70t-18.5 154.5v657h-170v103h170z" />
    <glyph glyph-name="f_b" unicode="fb" horiz-adv-x="1611" 
d="M172 1004v126q0 66 9.5 107t36.5 70t72.5 41t119.5 12h84v-109h-60q-97 0 -120 -22t-23 -115v-110h203v-103h-203v-901h-119v901h-141v103h141zM668 1360v-1360h114l4 154q45 -87 134 -133t192 -46q192 0 314 140.5t122 380.5q0 242 -116.5 383t-298.5 141
q-113 0 -203.5 -47t-143.5 -137v524h-118zM1108 915q144 0 229.5 -112t85.5 -307q0 -193 -86 -304.5t-229 -111.5q-64 0 -121.5 25t-105 73.5t-75.5 130.5t-28 187t29.5 187.5t77.5 131.5t105 74.5t118 25.5z" />
    <glyph glyph-name="f_h" unicode="fh" horiz-adv-x="1583" 
d="M172 1004v126q0 66 9.5 107t36.5 70t72.5 41t119.5 12h84v-109h-60q-97 0 -120 -22t-23 -115v-110h203v-103h-203v-901h-119v901h-141v103h141zM786 1360v-529q98 189 340 189q180 0 267 -107q77 -96 77 -288v-625h-118v594q0 165 -58 242q-60 79 -198 79
q-134 0 -222 -101.5t-88 -262.5v-551h-118v1360h118z" />
    <glyph glyph-name="f_k" unicode="fk" horiz-adv-x="1433" 
d="M172 1004v126q0 66 9.5 107t36.5 70t72.5 41t119.5 12h84v-109h-60q-97 0 -120 -22t-23 -115v-110h203v-103h-203v-901h-119v901h-141v103h141zM786 1360h-118v-1360h118v358l148 156l362 -514h138l-422 596l387 408h-146l-467 -492v848z" />
    <glyph glyph-name="f_j" unicode="fj" horiz-adv-x="929" 
d="M172 1004v126q0 66 9.5 107t36.5 70t72.5 41t119.5 12h84v-109h-60q-97 0 -120 -22t-23 -115v-110h203v-103h-203v-901h-119v901h-141v103h141zM668 -84v1088h118v-1090q0 -82 -8 -129.5t-31.5 -80.5t-65 -45.5t-110.5 -12.5h-63v108h22q93 0 115.5 28.5t22.5 133.5z
M668 1360h118v-189h-118v189z" />
    <glyph glyph-name="f_t" unicode="ft" horiz-adv-x="1097" 
d="M172 1004v126q0 66 9.5 107t36.5 70t72.5 41t119.5 12h84v-109h-60q-97 0 -120 -22t-23 -115v-110h203v-103h-203v-901h-119v901h-141v103h141zM715 1004v249h119v-249h202v-103h-202v-635q0 -39 1 -58.5t5.5 -41.5t12.5 -30.5t24.5 -17t39 -10.5t58.5 -2h61v-106h-98
q-95 0 -140.5 19.5t-64 70t-18.5 154.5v657h-170v103h170z" />
    <glyph glyph-name="f_f_j" unicode="ffj" horiz-adv-x="1454" 
d="M172 1004v126q0 66 9.5 107t36.5 70t72.5 41t119.5 12h84v-109h-60q-97 0 -120 -22t-23 -115v-110h203v-103h-203v-901h-119v901h-141v103h141zM696 1004v126q0 66 9.5 107t36.5 70t72.5 41t119.5 12h84v-109h-60q-97 0 -120 -22t-23 -115v-110h203v-103h-203v-901h-119
v901h-141v103h141zM1192 -84v1088h119v-1090q0 -82 -8 -129.5t-31.5 -80.5t-65 -45.5t-110.5 -12.5h-64v108h23q93 0 115 28.5t22 133.5zM1192 1360h119v-189h-119v189z" />
    <glyph glyph-name="f_f_k" unicode="ffk" horiz-adv-x="1957" 
d="M172 1004v126q0 66 9.5 107t36.5 70t72.5 41t119.5 12h84v-109h-60q-97 0 -120 -22t-23 -115v-110h203v-103h-203v-901h-119v901h-141v103h141zM696 1004v126q0 66 9.5 107t36.5 70t72.5 41t119.5 12h84v-109h-60q-97 0 -120 -22t-23 -115v-110h203v-103h-203v-901h-119
v901h-141v103h141zM1311 1360h-119v-1360h119v358l147 156l363 -514h137l-422 596l387 408h-145l-467 -492v848z" />
    <glyph glyph-name="f_f_t" unicode="fft" horiz-adv-x="1622" 
d="M172 1004v126q0 66 9.5 107t36.5 70t72.5 41t119.5 12h84v-109h-60q-97 0 -120 -22t-23 -115v-110h203v-103h-203v-901h-119v901h-141v103h141zM696 1004v126q0 66 9.5 107t36.5 70t72.5 41t119.5 12h84v-109h-60q-97 0 -120 -22t-23 -115v-110h203v-103h-203v-901h-119
v901h-141v103h141zM1239 1004v249h119v-249h203v-103h-203v-635q0 -39 1 -58.5t5.5 -41.5t12.5 -30.5t24.5 -17t39 -10.5t58.5 -2h62v-106h-99q-95 0 -140.5 19.5t-64 70t-18.5 154.5v657h-170v103h170z" />
    <glyph glyph-name="f_f_b" unicode="ffb" horiz-adv-x="2136" 
d="M172 1004v126q0 66 9.5 107t36.5 70t72.5 41t119.5 12h84v-109h-60q-97 0 -120 -22t-23 -115v-110h203v-103h-203v-901h-119v901h-141v103h141zM696 1004v126q0 66 9.5 107t36.5 70t72.5 41t119.5 12h84v-109h-60q-97 0 -120 -22t-23 -115v-110h203v-103h-203v-901h-119
v901h-141v103h141zM1192 1360v-1360h115l4 154q45 -87 133.5 -133t191.5 -46q192 0 314.5 140.5t122.5 380.5q0 242 -117 383t-299 141q-113 0 -203 -46.5t-143 -137.5v524h-119zM1632 915q144 0 230 -112t86 -307q0 -193 -86.5 -304.5t-229.5 -111.5q-64 0 -121 25
t-104.5 73.5t-75.5 130.5t-28 187t29 187.5t77 131.5t105 74.5t118 25.5z" />
    <glyph glyph-name="f_f_h" unicode="ffh" horiz-adv-x="2107" 
d="M172 1004v126q0 66 9.5 107t36.5 70t72.5 41t119.5 12h84v-109h-60q-97 0 -120 -22t-23 -115v-110h203v-103h-203v-901h-119v901h-141v103h141zM696 1004v126q0 66 9.5 107t36.5 70t72.5 41t119.5 12h84v-109h-60q-97 0 -120 -22t-23 -115v-110h203v-103h-203v-901h-119
v901h-141v103h141zM1311 1360v-529q98 189 340 189q179 0 266 -107q78 -97 78 -288v-625h-119v594q0 167 -57 242q-60 79 -199 79q-133 0 -221 -101.5t-88 -262.5v-551h-119v1360h119z" />
    <glyph glyph-name="s_p" unicode="sp" horiz-adv-x="2072" 
d="M879 743l-123 -16q-25 88 -96.5 138t-178.5 50q-41 0 -82 -8t-81 -25t-64.5 -50.5t-24.5 -77.5q0 -134 185 -168l143 -27q59 -11 101.5 -22t92 -32.5t80 -49t51.5 -72t21 -100.5q0 -146 -115 -227t-288 -81q-163 0 -273.5 83.5t-134.5 238.5l123 16q22 -112 99 -172.5
t196 -60.5q46 0 91 10t87.5 30.5t69 57.5t26.5 86q0 35 -13 62.5t-33 46t-53.5 33t-66 23t-79.5 17.5l-160 31q-121 24 -195.5 89.5t-74.5 178.5q0 122 108 198.5t281 76.5q156 0 256 -79.5t125 -197.5zM1247 -354v508q45 -87 134 -133t192 -46q192 0 314 140.5t122 380.5
q0 242 -117 383t-299 141q-238 0 -346 -184l-2 168h-117v-1358h119zM1569 915q144 0 229.5 -112t85.5 -307q0 -193 -86 -304.5t-229 -111.5q-64 0 -121.5 25t-105 73.5t-75.5 130.5t-28 187t29.5 187.5t77.5 131.5t105 74.5t118 25.5z" />
    <glyph glyph-name="c_t" unicode="ct" horiz-adv-x="1568" 
d="M532 1020q165 0 277 -94t137 -226l-123 -16q-27 113 -107 171t-196 58q-140 0 -236 -109t-96 -304q0 -201 96 -309.5t238 -108.5q126 0 206 64t103 165l123 -16q-31 -146 -148.5 -233t-287.5 -87q-214 0 -334.5 144.5t-120.5 378.5q0 235 124.5 378.5t344.5 143.5z
M1186 1004v249h119v-249h202v-103h-202v-635q0 -39 1 -58.5t5.5 -41.5t12.5 -30.5t24.5 -17t39 -10.5t58.5 -2h61v-106h-98q-95 0 -140.5 19.5t-64 70t-18.5 154.5v657h-170v103h170z" />
    <glyph glyph-name="t_t" unicode="tt" horiz-adv-x="1146" 
d="M190 1004v249h119v-249h203v-103h-203v-635q0 -39 1 -58.5t5.5 -41.5t13 -30.5t25 -17t39 -10.5t58.5 -2h61v-106h-98q-71 0 -112 9t-67.5 37t-35.5 73.5t-9 124.5v657h-170v103h170zM764 1004v249h119v-249h202v-103h-202v-635q0 -39 1 -58.5t5.5 -41.5t12.5 -30.5
t24.5 -17t39 -10.5t58.5 -2h61v-106h-98q-95 0 -140.5 19.5t-64 70t-18.5 154.5v657h-170v103h170z" />
    <glyph glyph-name="t_f" unicode="tf" horiz-adv-x="1097" 
d="M190 1004v249h119v-249h203v-103h-203v-635q0 -39 1 -58.5t5.5 -41.5t13 -30.5t25 -17t39 -10.5t58.5 -2h61v-106h-98q-71 0 -112 9t-67.5 37t-35.5 73.5t-9 124.5v657h-170v103h170zM745 1004v126q0 66 9.5 107t36.5 70t72.5 41t119.5 12h84v-109h-59q-97 0 -120.5 -22
t-23.5 -115v-110h203v-103h-203v-901h-119v901h-141v103h141z" />
    <glyph glyph-name=".notdef" horiz-adv-x="450" 
 />
    <glyph glyph-name=".null" horiz-adv-x="0" 
 />
    <glyph glyph-name="nonmarkingreturn" horiz-adv-x="682" 
 />
    <glyph glyph-name="space" unicode=" " horiz-adv-x="450" 
 />
    <glyph glyph-name="exclam" unicode="!" horiz-adv-x="411" 
d="M240 326h-70l-31 624v410h131v-410zM289 0h-166v178h166v-178z" />
    <glyph glyph-name="quotedbl" unicode="&#x22;" horiz-adv-x="587" 
d="M80 1378h137l-39 -456h-59zM387 1378h135l-39 -456h-57z" />
    <glyph glyph-name="numbersign" unicode="#" horiz-adv-x="1187" 
d="M88 981h262l53 379h119l-53 -379h332l53 379h119l-53 -379h258l-17 -113h-258l-47 -327h260l-16 -113h-260l-60 -428h-118l59 428h-332l-59 -428h-119l59 428h-260l17 113h260l47 327h-262zM453 868l-47 -327h331l47 327h-331z" />
    <glyph glyph-name="dollar" unicode="$" horiz-adv-x="1099" 
d="M494 1573h98v-193q183 -15 297 -127t117 -288l-127 -2q-4 147 -83 223.5t-204 89.5v-526l18 -5q47 -14 81.5 -25t81.5 -31t81 -40t70 -50.5t58.5 -64t37 -79t14.5 -97.5q0 -91 -36.5 -164t-99 -118t-140.5 -70t-166 -29v-172h-98v172q-89 8 -164 38t-134 82t-95.5 131
t-43.5 178l127 2q6 -141 87 -227t223 -99v573l-66 21q-344 99 -344 364q0 138 114.5 235t295.5 107v191zM913 340q0 61 -24 108.5t-72 80.5t-99.5 54.5t-125.5 43.5v-545q150 8 235.5 74.5t85.5 183.5zM205 1047q0 -99 65 -159.5t189 -96.5l35 -11v498
q-128 -11 -208.5 -73.5t-80.5 -157.5z" />
    <glyph glyph-name="percent" unicode="%" horiz-adv-x="1638" 
d="M389 569q-152 0 -228.5 107.5t-76.5 298.5q0 189 76 294t229 105q152 0 228.5 -105.5t76.5 -293.5q0 -190 -77 -298t-228 -108zM389 657q95 0 148 80t53 238q0 157 -53 234t-148 77t-148 -77t-53 -234q0 -158 53 -238t148 -80zM279 0h131l952 1360h-131zM1249 -14
q-152 0 -228.5 107.5t-76.5 297.5q0 189 76 294.5t229 105.5q151 0 228 -106t77 -294q0 -190 -77 -297.5t-228 -107.5zM1249 74q95 0 148 80t53 237t-53 234t-148 77t-147.5 -77t-52.5 -234q0 -158 52.5 -237.5t147.5 -79.5z" />
    <glyph glyph-name="ampersand" unicode="&#x26;" horiz-adv-x="1329" 
d="M512 -25q-207 0 -329 109.5t-122 284.5q0 150 92.5 249.5t274.5 159.5q-91 99 -132.5 175t-41.5 153q0 126 99 202t257 76q50 0 97.5 -9.5t91.5 -32t77 -55t52.5 -82.5t19.5 -111q0 -120 -78 -208t-243 -149l348 -368q93 161 112 358h121q-30 -242 -157 -438l276 -289
h-160l-186 195q-197 -220 -469 -220zM510 80q239 0 397 192l-405 428q-316 -91 -316 -331q0 -129 91 -209t233 -80zM379 1110q0 -38 12.5 -74.5t40 -75.5t48.5 -63.5t61 -67.5l12 -14q144 50 210 115t66 162q0 87 -63 137.5t-158 50.5q-97 0 -163 -44t-66 -126z" />
    <glyph glyph-name="quotesingle" unicode="'" horiz-adv-x="296" 
d="M84 1378h137l-39 -456h-59z" />
    <glyph glyph-name="parenleft" unicode="(" horiz-adv-x="423" 
d="M82 504q0 254 72.5 480t173.5 376h96q-225 -397 -225 -856q0 -461 225 -858h-96q-100 150 -173 377t-73 481z" />
    <glyph glyph-name="parenright" unicode=")" horiz-adv-x="423" 
d="M342 504q0 -254 -73 -481t-173 -377h-96q225 397 225 858q0 459 -225 856h96q101 -150 173.5 -376t72.5 -480z" />
    <glyph glyph-name="asterisk" unicode="*" horiz-adv-x="720" 
d="M410 1360v-225l229 73l31 -94l-228 -74l140 -192l-80 -60l-142 193l-139 -190l-82 57l140 190l-226 76l29 96l227 -75v225h101z" />
    <glyph glyph-name="plus" unicode="+" horiz-adv-x="1163" 
d="M641 0h-119v461h-461v112h461v439h119v-439h461v-112h-461v-461z" />
    <glyph glyph-name="comma" unicode="," horiz-adv-x="411" 
d="M123 0v178h166v-192l-94 -248h-89l82 262h-65z" />
    <glyph glyph-name="hyphen" unicode="-" horiz-adv-x="696" 
d="M614 455h-532v133h532v-133z" />
    <glyph glyph-name="period" unicode="." horiz-adv-x="411" 
d="M289 0h-166v178h166v-178z" />
    <glyph glyph-name="slash" unicode="/" horiz-adv-x="671" 
d="M121 0h-121l551 1360h121z" />
    <glyph glyph-name="zero" unicode="0" horiz-adv-x="1265" 
d="M633 -25q-266 0 -398.5 184t-132.5 521q0 336 132.5 520t398.5 184t398 -183.5t132 -520.5t-132 -521t-398 -184zM633 80q192 0 298.5 149t106.5 451t-106.5 451t-298.5 149t-299 -149t-107 -451t107 -451t299 -149z" />
    <glyph glyph-name="one" unicode="1" horiz-adv-x="618" 
d="M434 0h-119v1098h-315v80q78 0 126 4t88.5 15t64.5 33.5t42 55t33 84.5h80v-1370z" />
    <glyph glyph-name="two" unicode="2" horiz-adv-x="1083" 
d="M553 1384q191 0 303.5 -95t112.5 -261q0 -105 -43.5 -206t-140.5 -213.5t-230.5 -228t-333.5 -265.5h791v-115h-955v119q167 127 278 218t215.5 188.5t164 175t94.5 158t35 157.5q0 126 -83.5 195t-207.5 69q-69 0 -126.5 -18t-106 -56.5t-76.5 -107.5t-29 -164l-125 2
q7 215 131.5 331.5t331.5 116.5z" />
    <glyph glyph-name="three" unicode="3" horiz-adv-x="1085" 
d="M516 80q161 0 262 78t101 217q0 293 -420 293h-10v102h10q191 0 287 67t96 193q0 108 -85 179t-231 71q-57 0 -110.5 -15.5t-102.5 -48t-83.5 -89.5t-45.5 -132l-125 11q27 172 151 275t325 103q199 0 315.5 -92.5t116.5 -251.5q0 -107 -57.5 -192.5t-168.5 -122.5
q119 -32 191 -116.5t72 -231.5q0 -98 -39.5 -176t-107.5 -126.5t-154.5 -74t-184.5 -25.5q-200 0 -330.5 113t-154.5 285l125 10q31 -150 128.5 -226.5t229.5 -76.5z" />
    <glyph glyph-name="four" unicode="4" horiz-adv-x="1169" 
d="M762 1196l-600 -719h600v719zM1149 477v-115h-268v-362h-119v362h-742v107l744 891h117v-883h268z" />
    <glyph glyph-name="five" unicode="5" horiz-adv-x="1128" 
d="M565 80q152 0 254.5 96.5t102.5 267.5q0 74 -21 135t-56 102t-82 69t-97.5 40.5t-104.5 12.5q-113 0 -203 -50t-122 -124l-115 12l88 719h780v-115h-678l-59 -463q50 56 143.5 91.5t194.5 35.5q199 0 328 -123t129 -340q0 -112 -39.5 -203t-107 -149t-153.5 -88.5
t-182 -30.5q-200 0 -329.5 113t-153.5 285l125 10q31 -150 128.5 -226.5t229.5 -76.5z" />
    <glyph glyph-name="six" unicode="6" horiz-adv-x="1136" 
d="M225 432q0 -156 98.5 -254t254.5 -98t254 98t98 254q0 166 -96 265.5t-256 99.5t-256.5 -99.5t-96.5 -265.5zM600 1280q-185 0 -291 -154t-106 -442q47 98 150 157.5t237 59.5q205 0 335 -130t130 -333q0 -128 -57.5 -233t-167.5 -167.5t-252 -62.5q-251 0 -373.5 167.5
t-122.5 482.5q0 132 17.5 243t57.5 208t101 164t152.5 105.5t207.5 38.5q177 0 283 -90.5t131 -234.5l-127 -12q-18 117 -98.5 175t-206.5 58z" />
    <glyph glyph-name="seven" unicode="7" horiz-adv-x="962" 
d="M10 1245v115h942v-115q-597 -435 -622 -1245h-131q14 228 64.5 422t132.5 345t183 267t228 211h-797z" />
    <glyph glyph-name="eight" unicode="8" horiz-adv-x="1150" 
d="M575 1384q206 0 329.5 -95t123.5 -245q0 -115 -56.5 -196.5t-150.5 -118.5q248 -103 248 -352q0 -187 -138 -294.5t-356 -107.5q-142 0 -253 46.5t-175.5 138.5t-64.5 217q0 249 248 352q-94 37 -150.5 118.5t-56.5 196.5q0 150 123 245t329 95zM575 678
q-167 0 -267.5 -82t-100.5 -219q0 -136 100 -216.5t268 -80.5t268.5 80.5t100.5 216.5t-101 218.5t-268 82.5zM905 1026q0 119 -89 186.5t-241 67.5t-240.5 -67.5t-88.5 -186.5t88.5 -186.5t240.5 -67.5t241 67.5t89 186.5z" />
    <glyph glyph-name="nine" unicode="9" horiz-adv-x="1112" 
d="M887 928q0 156 -98 254t-254 98t-254.5 -98t-98.5 -254q0 -166 96.5 -265.5t256.5 -99.5t256 99.5t96 265.5zM512 80q185 0 291 154t106 442q-49 -98 -151.5 -157.5t-235.5 -59.5q-205 0 -335 130t-130 333q0 128 58 233t168 167t252 62q251 0 373 -167t122 -482
q0 -166 -28.5 -299.5t-90 -239t-167 -163.5t-250.5 -58q-177 0 -283 91t-131 235l127 12q18 -117 98.5 -175t206.5 -58z" />
    <glyph glyph-name="colon" unicode=":" horiz-adv-x="411" 
d="M123 0v178h166v-178h-166zM123 825v179h166v-179h-166z" />
    <glyph glyph-name="semicolon" unicode=";" horiz-adv-x="411" 
d="M121 825v179h166v-179h-166zM123 0v178h166v-192l-94 -248h-89l82 262h-65z" />
    <glyph glyph-name="less" unicode="&#x3c;" horiz-adv-x="1120" 
d="M61 573l977 449v-129l-839 -377l839 -375v-129l-977 449v112z" />
    <glyph glyph-name="equal" unicode="=" horiz-adv-x="1054" 
d="M973 662h-891v112h891v-112zM973 272h-891v113h891v-113z" />
    <glyph glyph-name="greater" unicode="&#x3e;" horiz-adv-x="1120" 
d="M1059 573v-112l-977 -449v129l840 375l-840 377v129z" />
    <glyph glyph-name="question" unicode="?" horiz-adv-x="901" 
d="M453 1384q85 0 159.5 -20t132.5 -59.5t91.5 -103.5t33.5 -146q0 -64 -20.5 -121t-60 -103t-77.5 -79t-91 -70q-43 -30 -64 -45.5t-48.5 -42t-39 -49.5t-20.5 -57t-9 -76v-86h-121v86q0 55 12 99.5t27.5 75t52 66t62 55.5t80.5 60q38 28 58 43.5t50 44.5t45 54.5t27 62.5
t12 78q0 110 -83 169.5t-220 59.5q-83 0 -146.5 -26.5t-101 -72.5t-56.5 -102.5t-19 -120.5l-123 3q0 105 36 187.5t99.5 133t145 76.5t176.5 26zM299 0v178h166v-178h-166z" />
    <glyph glyph-name="at" unicode="@" horiz-adv-x="1579" 
d="M1188 301q-87 0 -139.5 58t-55.5 149q-44 -92 -122.5 -144.5t-184.5 -52.5q-118 0 -194 82.5t-76 243.5q0 87 28.5 167.5t78.5 142.5t125.5 99t162.5 37q90 0 147 -50t76 -128l21 144h96l-64 -433q-7 -34 -3.5 -72.5t14 -70.5t37 -53t65.5 -21q91 0 152 100t61 271
q0 250 -157.5 383t-415.5 133q-187 0 -333.5 -83.5t-225 -225.5t-78.5 -318q0 -259 153.5 -420t413.5 -161q208 0 379 80l37 -99q-92 -39 -205.5 -61.5t-210.5 -22.5q-202 0 -356.5 88.5t-238 245t-83.5 355.5q0 151 57 284t155.5 228.5t238.5 150.5t299 55q146 0 269 -39
t214 -113t142 -190.5t51 -263.5q0 -111 -28 -202.5t-75 -150t-105.5 -90.5t-121.5 -32zM811 983q-122 0 -201.5 -102t-79.5 -246q0 -112 49.5 -168.5t135.5 -56.5q123 0 200.5 105.5t77.5 250.5q0 104 -47 160.5t-135 56.5z" />
    <glyph glyph-name="A" unicode="A" horiz-adv-x="1193" 
d="M0 0l524 1360h144l526 -1360h-139l-133 346h-654l-131 -346h-137zM592 1202l-279 -737h561z" />
    <glyph glyph-name="B" unicode="B" horiz-adv-x="1241" 
d="M164 0v1360h471q79 0 144 -9t126.5 -33t103 -61.5t66.5 -99t25 -141.5q0 -106 -49 -185t-129 -116q235 -67 235 -324q0 -104 -36.5 -181t-103 -122t-151 -66.5t-188.5 -21.5h-514zM291 647v-528h395q336 0 336 270q0 137 -84 197.5t-264 60.5h-383zM291 1241v-479h368
q149 0 228.5 56t79.5 190q0 233 -303 233h-373z" />
    <glyph glyph-name="C" unicode="C" horiz-adv-x="1314" 
d="M1133 416l133 -19q-45 -196 -195.5 -309t-382.5 -113q-194 0 -333.5 90t-209 248t-69.5 367q0 322 163.5 513t454.5 191q224 0 372.5 -112t193.5 -309l-134 -19q-39 161 -158 240.5t-278 79.5q-212 0 -345.5 -153.5t-133.5 -430.5q0 -271 131.5 -427.5t347.5 -156.5
q182 0 297 90.5t146 229.5z" />
    <glyph glyph-name="D" unicode="D" horiz-adv-x="1302" 
d="M1092 680q0 83 -12.5 153.5t-34 123t-55 95.5t-69.5 72t-84 51t-93 34t-101 19.5t-103.5 10t-105.5 2.5h-143v-1122h143q58 0 105.5 2.5t103.5 10t101 19.5t93 34t84 51t69.5 72t55 95.5t34 123t12.5 153.5zM164 1360h274q138 0 251 -19.5t215 -67.5t172 -124t110.5 -195
t40.5 -274t-40.5 -274t-110.5 -195t-172 -124t-215 -67.5t-251 -19.5h-274v1360z" />
    <glyph glyph-name="E" unicode="E" horiz-adv-x="1116" 
d="M164 0v1360h885v-119h-758v-477h713v-119h-713v-526h758v-119h-885z" />
    <glyph glyph-name="F" unicode="F" horiz-adv-x="1007" 
d="M164 0v1360h844v-119h-717v-477h672v-119h-672v-645h-127z" />
    <glyph glyph-name="G" unicode="G" horiz-adv-x="1417" 
d="M705 1384q221 0 372 -111t197 -310l-133 -19q-20 83 -65.5 146.5t-106.5 100.5t-128.5 55t-140.5 18q-104 0 -193 -38t-155 -110.5t-103.5 -184t-37.5 -251.5q0 -271 131.5 -427.5t347.5 -156.5q67 0 127.5 10.5t123 39.5t108 73.5t74 119.5t28.5 171v51h-387v119h510
v-680h-113l-2 195q-141 -220 -471 -220q-194 0 -333.5 90t-209 248t-69.5 367q0 321 168 512.5t461 191.5z" />
    <glyph glyph-name="H" unicode="H" horiz-adv-x="1394" 
d="M1104 1360h127v-1360h-127v645h-813v-645h-127v1360h127v-596h813v596z" />
    <glyph glyph-name="I" unicode="I" horiz-adv-x="454" 
d="M291 1360v-1360h-127v1360h127z" />
    <glyph glyph-name="J" unicode="J" horiz-adv-x="536" 
d="M61 0v119h17q27 0 45.5 0.5t36.5 3.5t28.5 4.5t21 10.5t15.5 13.5t10 20.5t6.5 25.5t3 34.5t1.5 40.5v51.5v1036h127v-1043q0 -104 -9 -162t-39 -95t-77 -48.5t-131 -11.5h-56z" />
    <glyph glyph-name="K" unicode="K" horiz-adv-x="1171" 
d="M291 1360v-690l696 690h164l-580 -578l603 -782h-158l-535 694l-190 -190v-504h-127v1360h127z" />
    <glyph glyph-name="L" unicode="L" horiz-adv-x="1021" 
d="M291 1360v-1241h731v-119h-858v1360h127z" />
    <glyph glyph-name="M" unicode="M" horiz-adv-x="1648" 
d="M889 0h-129l-469 1237v-1237h-127v1360h205l456 -1215l457 1215h203v-1360h-127v1237z" />
    <glyph glyph-name="N" unicode="N" horiz-adv-x="1394" 
d="M1231 0h-184l-756 1223v-1223h-127v1360h184l756 -1225v1225h127v-1360z" />
    <glyph glyph-name="O" unicode="O" horiz-adv-x="1415" 
d="M1204 680q0 277 -137.5 430.5t-357.5 153.5q-221 0 -359.5 -154t-138.5 -430t138.5 -430t359.5 -154q220 0 357.5 153.5t137.5 430.5zM1339 680q0 -328 -173 -516.5t-459 -188.5q-193 0 -336.5 88.5t-219 248t-75.5 368.5q0 315 175.5 509.5t459.5 194.5
q287 0 457.5 -188t170.5 -516z" />
    <glyph glyph-name="P" unicode="P" horiz-adv-x="1153" 
d="M164 1360h393q104 0 186 -11.5t155 -40.5t121 -75.5t75.5 -120t27.5 -170.5q0 -98 -27.5 -171t-75.5 -118.5t-121.5 -73.5t-154.5 -38.5t-186 -10.5h-266v-530h-127v1360zM573 1241h-282v-592h282q76 0 131.5 5.5t112 23.5t92 49t58 85.5t22.5 129.5t-22 129.5t-58 86.5
t-92 51t-112.5 25.5t-131.5 6.5z" />
    <glyph glyph-name="Q" unicode="Q" horiz-adv-x="1445" 
d="M1339 680q0 -308 -157 -498l182 -180l-84 -82l-182 180q-159 -125 -391 -125q-193 0 -336.5 88.5t-219 248t-75.5 368.5q0 315 175.5 509.5t459.5 194.5q287 0 457.5 -188t170.5 -516zM1204 680q0 276 -138.5 430t-356.5 154q-106 0 -196.5 -38.5t-158 -111t-105.5 -184
t-38 -250.5t38 -250.5t105.5 -184t158 -111t196.5 -38.5q174 0 297 99l-125 127l84 81l122 -124q117 152 117 401z" />
    <glyph glyph-name="R" unicode="R" horiz-adv-x="1202" 
d="M991 0l-307 592q-86 -4 -135 -4h-258v-588h-127v1360h385q89 0 157 -6t135 -20.5t114 -42t84 -69t55 -102t18 -139.5q0 -161 -76 -248.5t-219 -120.5l316 -612h-142zM565 1241h-274v-534h274q64 0 110.5 3t97 12.5t85 28t64 47.5t43.5 74t14 105q0 51 -11.5 91.5
t-30.5 68t-50 47t-63 30.5t-78 17t-86 8t-95 2z" />
    <glyph glyph-name="S" unicode="S" horiz-adv-x="1157" 
d="M88 1024q0 92 43 163.5t114 113t153 62.5t169 21q203 0 340 -96t174 -258l-133 -14q-35 120 -136 184t-257 64q-57 0 -111.5 -12t-106.5 -37t-84 -73t-32 -112q0 -179 264 -237l164 -37q51 -11 89.5 -21.5t90 -28.5t88.5 -37.5t76.5 -49t64 -64t40.5 -81.5t16 -101
q0 -96 -41.5 -173t-113 -125.5t-162.5 -74t-193 -25.5q-125 0 -228.5 34t-172.5 93.5t-110.5 135.5t-53.5 163l133 15q34 -161 144.5 -240.5t281.5 -79.5q50 0 98.5 6.5t101 24.5t91.5 45.5t64.5 74t25.5 105.5q0 49 -19.5 89.5t-51 69.5t-79 53t-96 39.5t-110.5 29.5
l-172 39q-59 13 -108 30.5t-98 46.5t-82 65.5t-54 90.5t-21 119z" />
    <glyph glyph-name="T" unicode="T" horiz-adv-x="1056" 
d="M465 0v1241h-465v119h1057v-119h-465v-1241h-127z" />
    <glyph glyph-name="U" unicode="U" horiz-adv-x="1347" 
d="M143 1360h127v-825q0 -227 93 -333t309 -106q218 0 311.5 114.5t93.5 346.5v803h127v-787q0 -309 -122 -453.5t-410 -144.5q-284 0 -406.5 132t-122.5 450v803z" />
    <glyph glyph-name="V" unicode="V" horiz-adv-x="1159" 
d="M10 1360h142l434 -1202l426 1202h137l-496 -1360h-145z" />
    <glyph glyph-name="W" unicode="W" horiz-adv-x="1728" 
d="M936 1360l311 -1192l344 1192h138l-414 -1360h-146l-305 1137l-303 -1137h-145l-416 1360h141l353 -1192l301 1192h141z" />
    <glyph glyph-name="X" unicode="X" horiz-adv-x="1200" 
d="M10 0l512 700l-475 660h158l397 -551l404 551h151l-479 -655l512 -705h-160l-432 596l-436 -596h-152z" />
    <glyph glyph-name="Y" unicode="Y" horiz-adv-x="1091" 
d="M-20 1360h143l414 -731l428 731h147l-516 -862v-498h-127v502z" />
    <glyph glyph-name="Z" unicode="Z" horiz-adv-x="1175" 
d="M1102 1360v-115l-877 -1126h895v-119h-1048v115l876 1126h-809v119h963z" />
    <glyph glyph-name="bracketleft" unicode="[" horiz-adv-x="471" 
d="M143 1360h328v-113h-209v-1489h209v-112h-328v1714z" />
    <glyph glyph-name="backslash" unicode="\" horiz-adv-x="671" 
d="M121 1360l551 -1360h-121l-551 1360h121z" />
    <glyph glyph-name="bracketright" unicode="]" horiz-adv-x="471" 
d="M0 1360h328v-1714h-328v112h209v1489h-209v113z" />
    <glyph glyph-name="asciicircum" unicode="^" horiz-adv-x="790" 
d="M459 1360l372 -737h-135l-301 587l-301 -587h-135l373 737h127z" />
    <glyph glyph-name="underscore" unicode="_" horiz-adv-x="763" 
d="M743 -121h-723v121h723v-121z" />
    <glyph glyph-name="grave" unicode="`" horiz-adv-x="434" 
d="M289 1118l-248 242h180l172 -242h-104z" />
    <glyph glyph-name="a" unicode="a" horiz-adv-x="995" 
d="M229 707l-123 4q9 145 117 227t283 82q190 0 283.5 -76t93.5 -264q0 -104 -1 -214t-1 -138q0 -106 12 -328h-119l-8 156q-47 -86 -129 -133.5t-219 -47.5q-163 0 -255.5 89t-92.5 225q0 141 108 215q103 71 385 98l201 21v59q0 59 -15.5 102t-39 68t-60.5 39.5t-73 19
t-82 4.5q-126 0 -192.5 -56.5t-72.5 -151.5zM770 461v61l-219 -22q-189 -19 -272.5 -67t-83.5 -148q0 -92 67.5 -148.5t177.5 -56.5q69 0 127 21.5t104.5 65.5t72.5 119.5t26 174.5z" />
    <glyph glyph-name="b" unicode="b" 
d="M143 0v1360h119v-524q53 91 143 137.5t203 46.5q182 0 299 -141t117 -383q0 -240 -122 -380.5t-314 -140.5q-103 0 -192 46t-134 133l-4 -154h-115zM584 915q-61 0 -118 -25.5t-105 -74.5t-77.5 -131.5t-29.5 -187.5t28 -187t75.5 -130.5t105 -73.5t121.5 -25
q143 0 229 111.5t86 304.5q0 195 -85.5 307t-229.5 112z" />
    <glyph glyph-name="c" unicode="c" horiz-adv-x="995" 
d="M532 1020q165 0 277 -94t137 -226l-123 -16q-27 113 -107 171t-196 58q-140 0 -236 -109t-96 -304q0 -201 96 -309.5t238 -108.5q126 0 206 64t103 165l123 -16q-31 -146 -148.5 -233t-287.5 -87q-214 0 -334.5 144.5t-120.5 378.5q0 235 124.5 378.5t344.5 143.5z" />
    <glyph glyph-name="d" unicode="d" 
d="M944 1360v-1360h-117l-2 160q-108 -185 -346 -185q-182 0 -299 141.5t-117 383.5q0 240 122.5 380t314.5 140q103 0 191.5 -45.5t133.5 -132.5v518h119zM504 80q61 0 118 25.5t105 74.5t77.5 132t29.5 188t-28 187t-75.5 130.5t-105 73t-121.5 24.5q-143 0 -229.5 -111
t-86.5 -304q0 -195 86 -307.5t230 -112.5z" />
    <glyph glyph-name="e" unicode="e" horiz-adv-x="1054" 
d="M537 -25q-222 0 -348 144t-126 379q0 239 133.5 380.5t344.5 141.5q216 0 340 -152.5t112 -394.5h-807q0 -179 100 -285t259 -106q120 0 203 59.5t112 165.5l123 -16q-35 -147 -155.5 -231.5t-290.5 -84.5zM539 918q-144 0 -241 -91t-110 -252h676q0 89 -37 166t-113 127
t-175 50z" />
    <glyph glyph-name="f" unicode="f" horiz-adv-x="524" 
d="M172 1004v126q0 66 9.5 107t36.5 70t72.5 41t119.5 12h84v-109h-60q-97 0 -120 -22t-23 -115v-110h203v-103h-203v-901h-119v901h-141v103h141z" />
    <glyph glyph-name="g" unicode="g" horiz-adv-x="1079" 
d="M817 12v189q-112 -185 -334 -185q-181 0 -300.5 138.5t-119.5 365.5q0 225 125 362.5t316 137.5q97 0 181.5 -45t131.5 -133v162h119v-979q0 -206 -121 -306q-107 -88 -297 -88q-161 0 -270.5 79.5t-122.5 213.5l123 8q11 -87 80.5 -142.5t193.5 -55.5q141 0 209 55
q86 70 86 223zM500 121q59 0 115.5 25t104 72.5t76.5 126t29 175.5t-28 175t-74.5 124.5t-103 71t-117.5 24.5q-137 0 -225.5 -108.5t-88.5 -286.5q0 -179 87.5 -289t224.5 -110z" />
    <glyph glyph-name="h" unicode="h" horiz-adv-x="1058" 
d="M262 1360v-529q98 189 340 189q179 0 266 -107q78 -97 78 -288v-625h-119v594q0 167 -57 242q-60 79 -199 79q-133 0 -221 -101.5t-88 -262.5v-551h-119v1360h119z" />
    <glyph glyph-name="i" unicode="i" horiz-adv-x="405" 
d="M143 1004h119v-1004h-119v1004zM143 1360h119v-189h-119v189z" />
    <glyph glyph-name="j" unicode="j" horiz-adv-x="405" 
d="M143 -84v1088h119v-1090q0 -82 -8 -129.5t-31.5 -80.5t-65 -45.5t-110.5 -12.5h-63v108h22q93 0 115 28.5t22 133.5zM143 1360h119v-189h-119v189z" />
    <glyph glyph-name="k" unicode="k" horiz-adv-x="909" 
d="M143 1360h119v-848l467 492h145l-387 -408l422 -596h-137l-362 514l-148 -156v-358h-119v1360z" />
    <glyph glyph-name="l" unicode="l" horiz-adv-x="405" 
d="M262 1360v-1360h-119v1360h119z" />
    <glyph glyph-name="m" unicode="m" horiz-adv-x="1660" 
d="M143 0v1004h119v-173q100 189 320 189q245 0 301 -215q103 215 342 215q163 0 243 -96t80 -297v-627h-118v594q0 185 -64 258q-60 66 -178 66q-121 0 -202 -102t-81 -263v-553h-119v592q0 180 -57 252q-59 74 -184 74q-121 0 -202 -102t-81 -263v-553h-119z" />
    <glyph glyph-name="n" unicode="n" horiz-adv-x="1058" 
d="M262 1004v-173q98 189 340 189q179 0 266 -107q78 -97 78 -288v-625h-119v594q0 167 -57 242q-60 79 -199 79q-133 0 -221 -101.5t-88 -262.5v-551h-119v1004h119z" />
    <glyph glyph-name="o" unicode="o" horiz-adv-x="1052" 
d="M188 498q0 -204 94.5 -311t243.5 -107t243.5 107t94.5 311q0 203 -94.5 310t-243.5 107t-243.5 -107t-94.5 -310zM63 498q0 131 38.5 233.5t104 164t147 93t173.5 31.5t173.5 -31.5t147 -93t104 -164t38.5 -233.5t-38.5 -233.5t-104 -164.5t-147 -93.5t-173.5 -31.5
t-173.5 31.5t-147 93.5t-104 164.5t-38.5 233.5z" />
    <glyph glyph-name="p" unicode="p" 
d="M262 154v-508h-119v1358h117l2 -168q108 184 346 184q182 0 299 -141t117 -383q0 -240 -122 -380.5t-314 -140.5q-103 0 -192 46t-134 133zM584 915q-61 0 -118 -25.5t-105 -74.5t-77.5 -131.5t-29.5 -187.5t28 -187t75.5 -130.5t105 -73.5t121.5 -25q143 0 229 111.5
t86 304.5q0 195 -85.5 307t-229.5 112z" />
    <glyph glyph-name="q" unicode="q" 
d="M825 842l2 162h117v-1358h-119v514q-108 -185 -346 -185q-182 0 -299 141.5t-117 383.5q0 240 122.5 380t314.5 140q103 0 191.5 -45.5t133.5 -132.5zM504 80q61 0 118 25.5t105 74.5t77.5 132t29.5 188t-28 187t-75.5 130.5t-105 73t-121.5 24.5q-143 0 -229.5 -111
t-86.5 -304q0 -195 86 -307.5t230 -112.5z" />
    <glyph glyph-name="r" unicode="r" horiz-adv-x="593" 
d="M573 1010v-127q-18 2 -53 2q-62 0 -108 -18t-75 -49t-46.5 -79t-24 -101t-6.5 -122v-516h-117v1004h113v-173q33 88 110 134.5t173 46.5q22 0 34 -2z" />
    <glyph glyph-name="s" unicode="s" horiz-adv-x="974" 
d="M862 743l-123 -16q-25 88 -96 138t-178 50q-41 0 -82 -8t-81 -25t-64.5 -50.5t-24.5 -77.5q0 -134 184 -168l144 -27q59 -11 101.5 -22t92 -32.5t80 -49t51.5 -72t21 -100.5q0 -146 -115.5 -227t-288.5 -81q-162 0 -272.5 83.5t-134.5 238.5l123 16q22 -112 99 -172.5
t196 -60.5q46 0 91 10t87.5 30.5t69 57.5t26.5 86q0 35 -13 62.5t-33 46t-54 33t-66.5 23t-79.5 17.5l-160 31q-121 24 -195.5 89.5t-74.5 178.5q0 122 108 198.5t281 76.5q156 0 256 -79.5t125 -197.5z" />
    <glyph glyph-name="t" unicode="t" horiz-adv-x="573" 
d="M190 1004v249h119v-249h203v-103h-203v-635q0 -39 1 -58.5t5.5 -41.5t13 -30.5t25 -17t39 -10.5t58.5 -2h61v-106h-98q-71 0 -112 9t-67.5 37t-35.5 73.5t-9 124.5v657h-170v103h170z" />
    <glyph glyph-name="u" unicode="u" horiz-adv-x="1042" 
d="M780 0v164q-100 -189 -327 -189q-159 0 -244 91q-86 96 -86 309v629h119v-605q0 -181 61 -254q56 -67 168 -67q133 0 221 101t88 263v562h119v-1004h-119z" />
    <glyph glyph-name="v" unicode="v" horiz-adv-x="886" 
d="M133 1004l318 -840l309 840h127l-381 -1004h-115l-391 1004h133z" />
    <glyph glyph-name="w" unicode="w" horiz-adv-x="1341" 
d="M358 186l252 818h119l262 -820l219 820h131l-297 -1004h-110l-268 840l-260 -840h-109l-297 1004h131z" />
    <glyph glyph-name="x" unicode="x" horiz-adv-x="911" 
d="M872 1004l-350 -484l379 -520h-139l-309 422l-306 -422h-137l375 516l-354 488h141l283 -392l284 392h133z" />
    <glyph glyph-name="y" unicode="y" horiz-adv-x="886" 
d="M160 -354h-66v104h68q76 0 118 32.5t80 135.5l31 82l-391 1004h133l318 -840l309 840h127l-420 -1106q-41 -106 -74.5 -156t-86.5 -73t-146 -23z" />
    <glyph glyph-name="z" unicode="z" horiz-adv-x="913" 
d="M61 0v102l631 799h-590v103h729v-103l-630 -799h641v-102h-781z" />
    <glyph glyph-name="braceleft" unicode="{" horiz-adv-x="446" 
d="M403 -354q-74 0 -119.5 12t-72 42t-36 73.5t-9.5 115.5v349q0 102 -29 153.5t-117 57.5v110q88 6 117 57.5t29 153.5v346q0 72 9.5 115.5t36 74t72 42.5t119.5 12h43v-109h-18q-95 0 -119 -24.5t-24 -112.5v-348q0 -127 -36.5 -184.5t-115.5 -75.5v-4q79 -18 115.5 -75.5
t36.5 -184.5v-351q0 -88 24 -112.5t119 -24.5h18v-108h-43z" />
    <glyph glyph-name="bar" unicode="|" horiz-adv-x="405" 
d="M143 1360h119v-1528h-119v1528z" />
    <glyph glyph-name="braceright" unicode="}" horiz-adv-x="446" 
d="M0 -354v108h18q95 0 119.5 24.5t24.5 112.5v351q0 127 36 184.5t115 75.5v4q-79 18 -115 75.5t-36 184.5v348q0 88 -24.5 112.5t-119.5 24.5h-18v109h43q143 0 190.5 -52t47.5 -192v-346q0 -102 28.5 -153.5t116.5 -57.5v-110q-88 -6 -116.5 -57.5t-28.5 -153.5v-349
q0 -140 -47.5 -191.5t-190.5 -51.5h-43z" />
    <glyph glyph-name="asciitilde" unicode="~" horiz-adv-x="1015" 
d="M723 494q55 0 91 35t40 104h121q-7 -121 -75.5 -184.5t-176.5 -63.5q-52 0 -114.5 21.5t-110.5 48t-105 48t-100 21.5q-55 0 -91 -35t-40 -104h-121q7 121 75.5 184.5t176.5 63.5q61 0 127 -21.5t112.5 -48t99.5 -48t91 -21.5z" />
    <glyph glyph-name="exclamdown" unicode="&#xa1;" horiz-adv-x="411" 
d="M272 55v-409h-131v409l31 584h70zM123 1004h166v-179h-166v179z" />
    <glyph glyph-name="cent" unicode="&#xa2;" horiz-adv-x="978" 
d="M946 700l-123 -16q-24 99 -91 156.5t-163 68.5v-825q106 12 173.5 74t88.5 153l123 -16q-29 -134 -131.5 -219.5t-253.5 -98.5v-172h-102v175q-192 17 -298 157.5t-106 360.5q0 217 106.5 357t297.5 161v176h102v-174q151 -10 252.5 -102t124.5 -216zM188 500
q0 -181 78.5 -287.5t200.5 -126.5v823q-122 -21 -200.5 -127.5t-78.5 -281.5z" />
    <glyph glyph-name="sterling" unicode="&#xa3;" horiz-adv-x="1140" 
d="M592 1280q-46 0 -89.5 -6t-88.5 -22t-77.5 -41t-53.5 -66.5t-21 -95.5q0 -23 3.5 -46t12 -48.5t15.5 -43.5t22 -47t22.5 -43t26.5 -46.5t25 -43.5h389v-86h-344q41 -94 41 -164q0 -105 -55 -200.5t-133 -143.5l2 -2q83 25 139 25q60 0 176 -39t180 -39q114 0 226 45
l43 -109q-121 -53 -250 -53q-71 0 -207.5 39t-212.5 39q-157 0 -283 -66l-41 95q35 17 68.5 38t75.5 57t73 77t52.5 98t21.5 119q0 84 -49 184h-246v86h203q-3 6 -21 36.5t-22.5 39.5t-19 36.5t-19.5 40l-15 37.5t-13.5 42t-7 40t-3.5 44q0 88 40 155t107.5 105.5t146 57.5
t165.5 19q206 0 332 -118.5t129 -311.5l-127 -2q-4 165 -98.5 246.5t-239.5 81.5z" />
    <glyph glyph-name="currency" unicode="&#xa4;" horiz-adv-x="1210" 
d="M150 659q0 153 86 269l-130 133l87 84l129 -129q122 98 278 98q157 0 285 -100l133 131l86 -84l-135 -135q86 -123 86 -267t-86 -264l135 -137l-86 -84l-135 133q-125 -98 -283 -98q-155 0 -276 94l-131 -129l-87 84l132 133q-88 118 -88 268zM268 659q0 -148 93 -247
t237 -99q149 0 245.5 99t96.5 247q0 151 -96.5 252t-245.5 101q-144 0 -237 -101t-93 -252z" />
    <glyph glyph-name="yen" unicode="&#xa5;" horiz-adv-x="1132" 
d="M930 190h-318v-190h-118v190h-291v113h291v113h-291v112h274l-473 832h133l420 -748l434 748h137l-497 -832h299v-112h-318v-113h318v-113z" />
    <glyph glyph-name="brokenbar" unicode="&#xa6;" horiz-adv-x="405" 
d="M143 1360h119v-582h-119v582zM143 412h119v-582h-119v582z" />
    <glyph glyph-name="section" unicode="&#xa7;" horiz-adv-x="1071" 
d="M532 -262q107 0 174.5 46.5t67.5 127.5q0 67 -45.5 125.5t-161.5 120.5l-254 137q-127 68 -189.5 142t-62.5 181q0 93 67 168t167 121q-127 95 -127 230q0 79 51 136.5t128.5 84t168.5 26.5q163 0 268.5 -80.5t120.5 -228.5l-127 -2q-36 207 -270 207q-100 0 -159.5 -37
t-59.5 -102q0 -59 40 -104t134 -97l272 -147q68 -37 112.5 -67t84.5 -69t59 -84t19 -100q0 -98 -60 -179t-168 -138q115 -97 115 -226q0 -137 -104.5 -217t-262.5 -80q-161 0 -266 83.5t-127 232.5l127 4q37 -215 268 -215zM403 840l-16 8q-39 -17 -71.5 -37.5t-64.5 -48
t-50.5 -63t-18.5 -74.5q0 -67 37 -116t135 -103l273 -148q46 -25 71 -41q187 101 187 232q0 73 -51 129t-166 118z" />
    <glyph glyph-name="dieresis" unicode="&#xa8;" horiz-adv-x="581" 
d="M41 1145v188h119v-188h-119zM422 1333h119v-188h-119v188z" />
    <glyph glyph-name="copyright" unicode="&#xa9;" horiz-adv-x="1570" 
d="M82 678q0 153 55 285t150 223.5t224.5 143.5t274.5 52q144 0 273 -52t224 -143.5t150.5 -223.5t55.5 -285q0 -204 -95 -366t-255 -249.5t-353 -87.5q-195 0 -355 87.5t-254.5 249.5t-94.5 366zM197 678q0 -175 78 -313.5t212 -213.5t299 -75q254 0 421 168t167 434
q0 133 -45 245.5t-123 190.5t-186.5 122t-233.5 44q-124 0 -232 -44t-187 -121.5t-124.5 -191t-45.5 -245.5zM780 395q74 0 136.5 38.5t82.5 111.5l109 -33q-33 -97 -116 -158t-212 -61q-164 0 -256 104t-92 287q0 180 96.5 282.5t259.5 102.5q125 0 205.5 -63.5
t108.5 -165.5l-107 -37q-18 75 -79 118.5t-136 43.5q-97 0 -164 -73.5t-67 -207.5t67.5 -211.5t163.5 -77.5z" />
    <glyph glyph-name="ordfeminine" unicode="&#xaa;" horiz-adv-x="638" 
d="M180 1198l-96 4q4 86 71.5 134t168.5 48q122 0 174 -50t51 -167q0 1 -0.5 -35t-0.5 -72l-1 -36q-2 -74 10 -221h-94l-4 80q-58 -95 -193 -95q-95 0 -147.5 54.5t-52.5 132.5q0 87 75 129q64 36 197 51l111 12v21q0 65 -34.5 91t-97.5 26q-64 0 -98 -29t-39 -78zM457 1051
v32l-119 -10q-86 -8 -127 -32t-41 -70q0 -44 31.5 -69t83.5 -25q70 0 121 42t51 132z" />
    <glyph glyph-name="guillemotleft" unicode="&#xab;" horiz-adv-x="874" 
d="M322 88l-302 430l299 432h125l-284 -430l284 -432h-122zM711 88l-301 430l299 432h125l-285 -430l285 -432h-123z" />
    <glyph glyph-name="logicalnot" unicode="&#xac;" horiz-adv-x="1177" 
d="M915 707h-874v112h993v-633h-119v521z" />
    <glyph glyph-name="registered" unicode="&#xae;" horiz-adv-x="1570" 
d="M82 678q0 153 55 285t150 223.5t224.5 143.5t274.5 52q144 0 273 -52t224 -143.5t150.5 -223.5t55.5 -285q0 -204 -95 -366t-255 -249.5t-353 -87.5q-195 0 -355 87.5t-254.5 249.5t-94.5 366zM197 678q0 -175 78 -313.5t212 -213.5t299 -75q254 0 421 168t167 434
q0 133 -45 245.5t-123 190.5t-186.5 122t-233.5 44q-124 0 -232 -44t-187 -121.5t-124.5 -191t-45.5 -245.5zM1001 328l-153 293q-21 -3 -45 -3h-172v-290h-109v745h223q70 0 120.5 -5t96.5 -19.5t73.5 -39t44 -65t16.5 -96.5q0 -66 -35.5 -119.5t-104.5 -83.5l170 -317
h-125zM979 846q0 66 -48.5 91.5t-139.5 25.5h-160v-238h168q180 0 180 121z" />
    <glyph glyph-name="macron" unicode="&#xaf;" horiz-adv-x="610" 
d="M569 1190h-528v102h528v-102z" />
    <glyph glyph-name="degree" unicode="&#xb0;" horiz-adv-x="641" 
d="M41 1104q0 118 81 199t197 81q117 0 199 -81t82 -199q0 -117 -82 -198t-199 -81q-116 0 -197 81t-81 198zM164 1104q0 -73 42.5 -123.5t112.5 -50.5q72 0 116 50.5t44 123.5q0 74 -44 125t-116 51q-70 0 -112.5 -51t-42.5 -125z" />
    <glyph glyph-name="plusminus" unicode="&#xb1;" horiz-adv-x="1204" 
d="M543 670v342h119v-342h460v-113h-460v-352h-119v352h-461v113h461zM1122 0h-1040v113h1040v-113z" />
    <glyph glyph-name="two.superior" unicode="&#xb2;" horiz-adv-x="679" 
d="M344 1624q112 0 181 -55t69 -152q0 -38 -12.5 -77t-29 -70.5t-52 -72t-60.5 -66.5t-77.5 -69.5t-80 -65.5t-89.5 -70h423v-92h-565v90q116 86 187 144t133.5 119.5t90 113.5t27.5 102q0 62 -38.5 97.5t-108.5 35.5q-71 0 -119 -42t-49 -132l-102 2q-2 115 73 187.5
t199 72.5z" />
    <glyph glyph-name="three.superior" unicode="&#xb3;" horiz-adv-x="673" 
d="M324 907q78 0 127 38.5t49 105.5q0 147 -226 147h-16v88h12q209 0 209 131q0 57 -43 88t-108 31q-77 0 -120.5 -39.5t-49.5 -107.5l-103 8q8 100 82 163.5t193 63.5q110 0 182 -48.5t72 -150.5q0 -60 -33 -106.5t-94 -71.5q149 -47 149 -194q0 -112 -83 -173t-201 -61
q-130 0 -200.5 68.5t-78.5 169.5l102 8q8 -74 53 -116t126 -42z" />
    <glyph glyph-name="acute" unicode="&#xb4;" horiz-adv-x="434" 
d="M393 1360l-248 -242h-104l172 242h180z" />
    <glyph glyph-name="mu" unicode="&#xb5;" horiz-adv-x="1062" 
d="M127 -354q16 82 16 293v1065h119v-535q0 -186 71.5 -288.5t198.5 -102.5t198 102.5t71 288.5v535h119v-1004h-119v164q-76 -189 -269 -189q-194 0 -270 189v-209q0 -201 -18 -309h-117z" />
    <glyph glyph-name="mu" unicode="&#x3bc;" horiz-adv-x="1062" 
d="M127 -354q16 82 16 293v1065h119v-535q0 -186 71.5 -288.5t198.5 -102.5t198 102.5t71 288.5v535h119v-1004h-119v164q-76 -189 -269 -189q-194 0 -270 189v-209q0 -201 -18 -309h-117z" />
    <glyph glyph-name="paragraph" unicode="&#xb6;" horiz-adv-x="935" 
d="M0 1001q0 169 116.5 264t342.5 95h334v-1530h-119v1417h-219v-1417h-119v836q-66 7 -124 30.5t-106.5 63t-77 101.5t-28.5 140z" />
    <glyph glyph-name="periodcentered" unicode="&#xb7;" horiz-adv-x="411" 
d="M123 432v178h166v-178h-166z" />
    <glyph glyph-name="cedilla" unicode="&#xb8;" horiz-adv-x="415" 
d="M41 -344l27 76q46 -17 92 -17t77 14.5t31 45.5q0 28 -23 42.5t-59 14.5q-46 0 -73 -16l-39 28l100 162h80l-61 -98q23 4 49 4q57 0 95 -34.5t38 -92.5q0 -71 -57.5 -109t-137.5 -38q-79 0 -139 18z" />
    <glyph glyph-name="one.superior" unicode="&#xb9;" horiz-adv-x="423" 
d="M309 834h-98v604h-182v69q91 2 136.5 22t76.5 81h67v-776z" />
    <glyph glyph-name="ordmasculine" unicode="&#xba;" horiz-adv-x="655" 
d="M164 1087q0 -107 44.5 -158.5t119.5 -51.5q74 0 119 51.5t45 158.5t-45 159t-119 52q-75 0 -119.5 -52t-44.5 -159zM57 1087q0 145 78 221t193 76q113 0 190.5 -76t77.5 -221q0 -146 -77.5 -222.5t-190.5 -76.5q-54 0 -102 18t-86 53.5t-60.5 94t-22.5 133.5z" />
    <glyph glyph-name="guillemotright" unicode="&#xbb;" horiz-adv-x="874" 
d="M854 518l-301 -430h-123l285 432l-285 430h125zM465 518l-301 -430h-123l285 432l-285 430h125z" />
    <glyph glyph-name="onequarter" unicode="&#xbc;" horiz-adv-x="1638" 
d="M440 584h-98v604h-182v69q91 2 136.5 22t76.5 81h67v-776zM322 0h-132l953 1360h131zM1233 639l-279 -352h279v352zM1477 287v-92h-144v-195h-100v195h-389v92l389 489h100v-489h144z" />
    <glyph glyph-name="onehalf" unicode="&#xbd;" horiz-adv-x="1638" 
d="M457 584h-99v604h-182v69q91 2 136.5 22t76.5 81h68v-776zM338 0h-131l952 1360h131zM1188 791q112 0 181 -55t69 -152q0 -30 -7.5 -60t-18 -56t-33 -57t-39.5 -53t-51 -54.5t-55 -51.5t-64 -54t-64.5 -52t-69.5 -54h424v-92h-565v90q116 86 187 144t133.5 119.5
t90 113.5t27.5 102q0 62 -38.5 97.5t-108.5 35.5q-71 0 -119 -42t-49 -132l-103 2q-2 115 73.5 188t199.5 73z" />
    <glyph glyph-name="threequarters" unicode="&#xbe;" horiz-adv-x="1638" 
d="M371 657q78 0 127 38.5t49 105.5q0 147 -225 147h-17v88h12q209 0 209 131q0 57 -43 88t-108 31q-77 0 -120.5 -39.5t-49.5 -107.5l-103 8q8 100 82 163.5t193 63.5q110 0 182 -48t72 -150q0 -60 -33 -107t-94 -72q149 -47 149 -194q0 -112 -83 -173t-201 -61
q-130 0 -200.5 68.5t-78.5 169.5l103 8q8 -74 52.5 -116t125.5 -42zM262 0h131l953 1360h-132zM1026 287l279 352v-352h-279zM1548 195v92h-143v489h-100l-390 -489v-92h390v-195h100v195h143z" />
    <glyph glyph-name="questiondown" unicode="&#xbf;" horiz-adv-x="901" 
d="M418 -369q-80 0 -153.5 20.5t-133.5 59.5t-95.5 104t-35.5 146q0 52 15 100t37.5 84.5t58 73t66.5 61.5t73 54q43 30 64 46t48 42t39 49t20.5 57t8.5 76v45h121v-45q0 -55 -12 -99.5t-27.5 -75t-52 -66t-62 -55.5t-80.5 -60q-38 -28 -58 -43.5t-50 -44.5t-45 -54.5
t-27 -62.5t-12 -78q0 -110 83 -169.5t220 -59.5q82 0 145 26t99.5 69t55.5 89.5t22 95.5l120 -2q-9 -171 -136.5 -277t-315.5 -106zM571 1004v-179h-165v179h165z" />
    <glyph glyph-name="Agrave" unicode="&#xc0;" horiz-adv-x="1193" 
d="M0 0l524 1360h144l526 -1360h-139l-133 346h-654l-131 -346h-137zM592 1202l-279 -737h561zM662 1430l-291 215h204l209 -215h-122z" />
    <glyph glyph-name="Aacute" unicode="&#xc1;" horiz-adv-x="1193" 
d="M0 0l524 1360h144l526 -1360h-139l-133 346h-654l-131 -346h-137zM592 1202l-279 -737h561zM844 1645l-291 -215h-123l209 215h205z" />
    <glyph glyph-name="Acircumflex" unicode="&#xc2;" horiz-adv-x="1193" 
d="M0 0l524 1360h144l526 -1360h-139l-133 346h-654l-131 -346h-137zM592 1202l-279 -737h561zM676 1645l250 -215h-142l-190 126l-193 -126h-141l256 215h160z" />
    <glyph glyph-name="Atilde" unicode="&#xc3;" horiz-adv-x="1193" 
d="M0 0l524 1360h144l526 -1360h-139l-133 346h-654l-131 -346h-137zM592 1202l-279 -737h561zM717 1546q75 0 94 86h104q-17 -89 -67 -139.5t-123 -50.5q-45 0 -92.5 22t-87.5 44t-66 22q-70 0 -92 -88h-102q12 90 66 140t126 50q44 0 89.5 -21.5t84.5 -43t66 -21.5z" />
    <glyph glyph-name="Adieresis" unicode="&#xc4;" horiz-adv-x="1193" 
d="M0 0l524 1360h144l526 -1360h-139l-133 346h-654l-131 -346h-137zM592 1202l-279 -737h561zM342 1630h127v-188h-127v188zM715 1630h127v-188h-127v188z" />
    <glyph glyph-name="Aring" unicode="&#xc5;" horiz-adv-x="1193" 
d="M0 0l524 1360h144l526 -1360h-139l-133 346h-654l-131 -346h-137zM592 1202l-279 -737h561zM590 1735q72 0 122 -46t50 -116t-49.5 -116t-122.5 -46t-122.5 46t-49.5 116t50 116t122 46zM590 1655q-33 0 -57.5 -23.5t-24.5 -58.5q0 -34 24.5 -57t57.5 -23t57.5 23
t24.5 57q0 35 -24.5 58.5t-57.5 23.5z" />
    <glyph glyph-name="AE" unicode="&#xc6;" horiz-adv-x="1798" 
d="M846 1360h885v-119h-758v-477h713v-119h-713v-526h758v-119h-885v346h-496l-213 -346h-137zM846 1145l-422 -680h422v680z" />
    <glyph glyph-name="Ccedilla" unicode="&#xc7;" horiz-adv-x="1314" 
d="M506 -344l26 76q46 -17 93 -17q46 0 77 14.5t31 45.5q0 28 -23 42.5t-59 14.5q-46 0 -73 -16l-39 28l82 136q-173 14 -297 106.5t-186 244.5t-62 349q0 322 163.5 513t454.5 191q224 0 372.5 -112t193.5 -309l-134 -19q-39 161 -158 240.5t-278 79.5
q-212 0 -345.5 -153.5t-133.5 -430.5q0 -271 131.5 -427.5t347.5 -156.5q182 0 297 90.5t146 229.5l133 -19q-45 -194 -192.5 -306.5t-375.5 -115.5l-41 -67q23 4 50 4q57 0 95 -34.5t38 -92.5q0 -71 -57.5 -109t-137.5 -38q-79 0 -139 18z" />
    <glyph glyph-name="Egrave" unicode="&#xc8;" horiz-adv-x="1116" 
d="M164 0v1360h885v-119h-758v-477h713v-119h-713v-526h758v-119h-885zM618 1430l-290 215h204l209 -215h-123z" />
    <glyph glyph-name="Eacute" unicode="&#xc9;" horiz-adv-x="1116" 
d="M164 0v1360h885v-119h-758v-477h713v-119h-713v-526h758v-119h-885zM866 1645l-291 -215h-122l209 215h204z" />
    <glyph glyph-name="Ecircumflex" unicode="&#xca;" horiz-adv-x="1116" 
d="M164 0v1360h885v-119h-758v-477h713v-119h-713v-526h758v-119h-885zM686 1645l250 -215h-141l-191 126l-192 -126h-142l256 215h160z" />
    <glyph glyph-name="Edieresis" unicode="&#xcb;" horiz-adv-x="1116" 
d="M164 0v1360h885v-119h-758v-477h713v-119h-713v-526h758v-119h-885zM365 1630h127v-188h-127v188zM737 1630h127v-188h-127v188z" />
    <glyph glyph-name="Igrave" unicode="&#xcc;" horiz-adv-x="454" 
d="M291 1360v-1360h-127v1360h127zM168 1430l-291 215h205l209 -215h-123z" />
    <glyph glyph-name="Iacute" unicode="&#xcd;" horiz-adv-x="454" 
d="M291 1360v-1360h-127v1360h127zM580 1645l-291 -215h-123l209 215h205z" />
    <glyph glyph-name="Icircumflex" unicode="&#xce;" horiz-adv-x="454" 
d="M309 1645l189 -215h-142l-129 126l-131 -126h-141l195 215h159zM291 1360v-1360h-127v1360h127z" />
    <glyph glyph-name="Idieresis" unicode="&#xcf;" horiz-adv-x="454" 
d="M0 1630h127v-188h-127v188zM328 1630h127v-188h-127v188zM291 1360v-1360h-127v1360h127z" />
    <glyph glyph-name="Eth" unicode="&#xd0;" horiz-adv-x="1320" 
d="M184 1360h275q138 0 251 -19.5t214.5 -67.5t170.5 -124t109.5 -195t40.5 -274t-40.5 -274t-109.5 -195t-170.5 -124t-214.5 -67.5t-251 -19.5h-275v645h-164v119h164v596zM633 645h-322v-526h144q76 0 135.5 4t130.5 18t124.5 38t106 66.5t86 100t54 143t20.5 191.5
t-20.5 191.5t-54 143t-86 100t-106 66.5t-124.5 38t-130.5 18t-135.5 4h-144v-477h322v-119z" />
    <glyph glyph-name="Ntilde" unicode="&#xd1;" horiz-adv-x="1394" 
d="M1231 0h-184l-756 1223v-1223h-127v1360h184l756 -1225v1225h127v-1360zM852 1546q75 0 94 86h105q-17 -89 -67.5 -139.5t-123.5 -50.5q-45 0 -92.5 22t-87.5 44t-66 22q-70 0 -92 -88h-102q12 90 66 140t126 50q44 0 90 -21.5t84.5 -43t65.5 -21.5z" />
    <glyph glyph-name="Ograve" unicode="&#xd2;" horiz-adv-x="1415" 
d="M1204 680q0 277 -137.5 430.5t-357.5 153.5q-221 0 -359.5 -154t-138.5 -430t138.5 -430t359.5 -154q220 0 357.5 153.5t137.5 430.5zM1339 680q0 -328 -173 -516.5t-459 -188.5q-193 0 -336.5 88.5t-219 248t-75.5 368.5q0 315 175.5 509.5t459.5 194.5
q287 0 457.5 -188t170.5 -516zM743 1430l-290 215h204l209 -215h-123z" />
    <glyph glyph-name="Oacute" unicode="&#xd3;" horiz-adv-x="1415" 
d="M1204 680q0 277 -137.5 430.5t-357.5 153.5q-221 0 -359.5 -154t-138.5 -430t138.5 -430t359.5 -154q220 0 357.5 153.5t137.5 430.5zM1339 680q0 -328 -173 -516.5t-459 -188.5q-193 0 -336.5 88.5t-219 248t-75.5 368.5q0 315 175.5 509.5t459.5 194.5
q287 0 457.5 -188t170.5 -516zM961 1645l-291 -215h-123l209 215h205z" />
    <glyph glyph-name="Ocircumflex" unicode="&#xd4;" horiz-adv-x="1415" 
d="M1204 680q0 277 -137.5 430.5t-357.5 153.5q-221 0 -359.5 -154t-138.5 -430t138.5 -430t359.5 -154q220 0 357.5 153.5t137.5 430.5zM1339 680q0 -328 -173 -516.5t-459 -188.5q-193 0 -336.5 88.5t-219 248t-75.5 368.5q0 315 175.5 509.5t459.5 194.5
q287 0 457.5 -188t170.5 -516zM786 1645l250 -215h-141l-190 126l-193 -126h-141l256 215h159z" />
    <glyph glyph-name="Otilde" unicode="&#xd5;" horiz-adv-x="1415" 
d="M1204 680q0 277 -137.5 430.5t-357.5 153.5q-221 0 -359.5 -154t-138.5 -430t138.5 -430t359.5 -154q220 0 357.5 153.5t137.5 430.5zM1339 680q0 -328 -173 -516.5t-459 -188.5q-193 0 -336.5 88.5t-219 248t-75.5 368.5q0 315 175.5 509.5t459.5 194.5
q287 0 457.5 -188t170.5 -516zM819 1546q75 0 94 86h105q-17 -89 -67.5 -139.5t-123.5 -50.5q-45 0 -92.5 22t-87 44t-65.5 22q-71 0 -93 -88h-102q12 90 66 140t127 50q44 0 89.5 -21.5t84 -43t65.5 -21.5z" />
    <glyph glyph-name="Odieresis" unicode="&#xd6;" horiz-adv-x="1415" 
d="M1204 680q0 277 -137.5 430.5t-357.5 153.5q-221 0 -359.5 -154t-138.5 -430t138.5 -430t359.5 -154q220 0 357.5 153.5t137.5 430.5zM1339 680q0 -328 -173 -516.5t-459 -188.5q-193 0 -336.5 88.5t-219 248t-75.5 368.5q0 315 175.5 509.5t459.5 194.5
q287 0 457.5 -188t170.5 -516zM459 1630h127v-188h-127v188zM831 1630h127v-188h-127v188z" />
    <glyph glyph-name="multiply" unicode="&#xd7;" horiz-adv-x="958" 
d="M918 160l-84 -84l-355 354l-354 -354l-84 84l354 354l-354 354l84 84l354 -354l355 354l84 -84l-355 -354z" />
    <glyph glyph-name="Oslash" unicode="&#xd8;" horiz-adv-x="1423" 
d="M1341 680q0 -326 -172.5 -515.5t-457.5 -189.5q-245 0 -410 146l-125 -148l-76 68l129 152q-147 188 -147 487q0 313 175 508.5t458 195.5q244 0 409 -143l125 148l78 -66l-133 -156q147 -189 147 -487zM1208 680q0 232 -104 383l-719 -844q129 -123 328 -123
q218 0 356.5 154t138.5 430zM215 680q0 -238 102 -383l721 844q-132 123 -325 123q-106 0 -196.5 -38.5t-158 -111t-105.5 -184t-38 -250.5z" />
    <glyph glyph-name="Ugrave" unicode="&#xd9;" horiz-adv-x="1347" 
d="M143 1360h127v-825q0 -227 93 -333t309 -106q218 0 311.5 114.5t93.5 346.5v803h127v-787q0 -309 -122 -453.5t-410 -144.5q-284 0 -406.5 132t-122.5 450v803zM711 1430l-291 215h205l209 -215h-123z" />
    <glyph glyph-name="Uacute" unicode="&#xda;" horiz-adv-x="1347" 
d="M143 1360h127v-825q0 -227 93 -333t309 -106q218 0 311.5 114.5t93.5 346.5v803h127v-787q0 -309 -122 -453.5t-410 -144.5q-284 0 -406.5 132t-122.5 450v803zM934 1645l-291 -215h-123l209 215h205z" />
    <glyph glyph-name="Ucircumflex" unicode="&#xdb;" horiz-adv-x="1347" 
d="M143 1360h127v-825q0 -227 93 -333t309 -106q218 0 311.5 114.5t93.5 346.5v803h127v-787q0 -309 -122 -453.5t-410 -144.5q-284 0 -406.5 132t-122.5 450v803zM754 1645l250 -215h-142l-190 126l-193 -126h-141l256 215h160z" />
    <glyph glyph-name="Udieresis" unicode="&#xdc;" horiz-adv-x="1347" 
d="M143 1360h127v-825q0 -227 93 -333t309 -106q218 0 311.5 114.5t93.5 346.5v803h127v-787q0 -309 -122 -453.5t-410 -144.5q-284 0 -406.5 132t-122.5 450v803zM424 1630h127v-188h-127v188zM797 1630h127v-188h-127v188z" />
    <glyph glyph-name="Yacute" unicode="&#xdd;" horiz-adv-x="1091" 
d="M-20 1360h143l414 -731l428 731h147l-516 -862v-498h-127v502zM782 1645l-290 -215h-123l209 215h204z" />
    <glyph glyph-name="Thorn" unicode="&#xde;" horiz-adv-x="1142" 
d="M291 1106h266q104 0 186 -11.5t155 -40.5t121 -75.5t75.5 -120t27.5 -170.5q0 -98 -27.5 -171t-75.5 -118.5t-121.5 -73.5t-154.5 -38.5t-186 -10.5h-266v-276h-127v1360h127v-254zM573 987h-282v-592h282q76 0 131.5 5.5t112 23.5t92 49t58 85.5t22.5 129.5t-22 129.5
t-58 86.5t-92 51t-112.5 25.5t-131.5 6.5z" />
    <glyph glyph-name="germandbls" unicode="&#xdf;" horiz-adv-x="1165" 
d="M262 0h-119v909q0 223 72 324q106 151 379 151q183 0 295 -86t112 -231q0 -112 -54.5 -189t-149.5 -112q138 -26 221.5 -124t83.5 -255q0 -107 -38 -187.5t-106 -129t-155 -72t-191 -23.5q-106 0 -194 15l20 114q85 -18 185 -18q71 0 131 15t112 47.5t81.5 92.5t29.5 142
q0 159 -112 237t-300 78h-16v113h18q149 0 230.5 65t81.5 175q0 105 -78.5 167t-208.5 62q-97 0 -165 -23t-108 -81q-57 -79 -57 -279v-897z" />
    <glyph glyph-name="agrave" unicode="&#xe0;" horiz-adv-x="995" 
d="M106 711l123 -4q6 95 72.5 151.5t192.5 56.5q46 0 82 -4.5t73 -19t60.5 -39.5t39 -68t15.5 -102v-59l-201 -21q-282 -27 -385 -98q-108 -74 -108 -215q0 -136 92.5 -225t255.5 -89q137 0 219 47.5t129 133.5l8 -156h119q-12 222 -12 328q0 28 1 138t1 214
q0 188 -93.5 264t-283.5 76q-175 0 -283 -82t-117 -227zM770 461q0 -99 -26 -174.5t-72.5 -119.5t-104.5 -65.5t-127 -21.5q-110 0 -177.5 56.5t-67.5 148.5q0 100 83.5 148t272.5 67l219 22v-61zM508 1118l-248 242h180l172 -242h-104z" />
    <glyph glyph-name="aacute" unicode="&#xe1;" horiz-adv-x="995" 
d="M106 711l123 -4q6 95 72.5 151.5t192.5 56.5q46 0 82 -4.5t73 -19t60.5 -39.5t39 -68t15.5 -102v-59l-201 -21q-282 -27 -385 -98q-108 -74 -108 -215q0 -136 92.5 -225t255.5 -89q137 0 219 47.5t129 133.5l8 -156h119q-12 222 -12 328q0 28 1 138t1 214
q0 188 -93.5 264t-283.5 76q-175 0 -283 -82t-117 -227zM770 461q0 -99 -26 -174.5t-72.5 -119.5t-104.5 -65.5t-127 -21.5q-110 0 -177.5 56.5t-67.5 148.5q0 100 83.5 148t272.5 67l219 22v-61zM758 1360l-248 -242h-104l172 242h180z" />
    <glyph glyph-name="acircumflex" unicode="&#xe2;" horiz-adv-x="995" 
d="M106 711l123 -4q6 95 72.5 151.5t192.5 56.5q46 0 82 -4.5t73 -19t60.5 -39.5t39 -68t15.5 -102v-59l-201 -21q-282 -27 -385 -98q-108 -74 -108 -215q0 -136 92.5 -225t255.5 -89q137 0 219 47.5t129 133.5l8 -156h119q-12 222 -12 328q0 28 1 138t1 214
q0 188 -93.5 264t-283.5 76q-175 0 -283 -82t-117 -227zM770 461q0 -99 -26 -174.5t-72.5 -119.5t-104.5 -65.5t-127 -21.5q-110 0 -177.5 56.5t-67.5 148.5q0 100 83.5 148t272.5 67l219 22v-61zM578 1360l235 -242h-121l-184 146l-186 -146h-121l241 242h136z" />
    <glyph glyph-name="atilde" unicode="&#xe3;" horiz-adv-x="995" 
d="M106 711l123 -4q6 95 72.5 151.5t192.5 56.5q46 0 82 -4.5t73 -19t60.5 -39.5t39 -68t15.5 -102v-59l-201 -21q-282 -27 -385 -98q-108 -74 -108 -215q0 -136 92.5 -225t255.5 -89q137 0 219 47.5t129 133.5l8 -156h119q-12 222 -12 328q0 28 1 138t1 214
q0 188 -93.5 264t-283.5 76q-175 0 -283 -82t-117 -227zM770 461q0 -99 -26 -174.5t-72.5 -119.5t-104.5 -65.5t-127 -21.5q-110 0 -177.5 56.5t-67.5 148.5q0 100 83.5 148t272.5 67l219 22v-61zM623 1245q75 0 94 86h104q-17 -89 -67 -139.5t-123 -50.5q-45 0 -92.5 22
t-87.5 44t-66 22q-70 0 -92 -88h-103q12 90 66 140t127 50q44 0 89.5 -21.5t84.5 -43t66 -21.5z" />
    <glyph glyph-name="adieresis" unicode="&#xe4;" horiz-adv-x="995" 
d="M106 711l123 -4q6 95 72.5 151.5t192.5 56.5q46 0 82 -4.5t73 -19t60.5 -39.5t39 -68t15.5 -102v-59l-201 -21q-282 -27 -385 -98q-108 -74 -108 -215q0 -136 92.5 -225t255.5 -89q137 0 219 47.5t129 133.5l8 -156h119q-12 222 -12 328q0 28 1 138t1 214
q0 188 -93.5 264t-283.5 76q-175 0 -283 -82t-117 -227zM770 461q0 -99 -26 -174.5t-72.5 -119.5t-104.5 -65.5t-127 -21.5q-110 0 -177.5 56.5t-67.5 148.5q0 100 83.5 148t272.5 67l219 22v-61zM254 1145v188h119v-188h-119zM635 1333h119v-188h-119v188z" />
    <glyph glyph-name="aring" unicode="&#xe5;" horiz-adv-x="995" 
d="M106 711l123 -4q6 95 72.5 151.5t192.5 56.5q46 0 82 -4.5t73 -19t60.5 -39.5t39 -68t15.5 -102v-59l-201 -21q-282 -27 -385 -98q-108 -74 -108 -215q0 -136 92.5 -225t255.5 -89q137 0 219 47.5t129 133.5l8 -156h119q-12 222 -12 328q0 28 1 138t1 214
q0 188 -93.5 264t-283.5 76q-175 0 -283 -82t-117 -227zM770 461q0 -99 -26 -174.5t-72.5 -119.5t-104.5 -65.5t-127 -21.5q-110 0 -177.5 56.5t-67.5 148.5q0 100 83.5 148t272.5 67l219 22v-61zM500 1425q72 0 122 -46t50 -115q0 -70 -49.5 -116t-122.5 -46t-122.5 46
t-49.5 116q0 69 50 115t122 46zM500 1350q-34 0 -60 -25t-26 -61t25.5 -60t60.5 -24t60.5 24t25.5 60t-26 61t-60 25z" />
    <glyph glyph-name="ae" unicode="&#xe6;" horiz-adv-x="1751" 
d="M233 707l-122 4q14 142 120 225.5t277 83.5q280 0 350 -197q60 94 157.5 145.5t217.5 51.5q220 0 344 -152t113 -395h-807q0 -179 98.5 -285t253.5 -106q123 0 206 57t115 168l123 -16q-38 -151 -159 -233.5t-293 -82.5q-144 0 -247 64.5t-155 181.5
q-55 -121 -160 -183.5t-247 -62.5q-163 0 -255.5 89t-92.5 225q0 137 108 211q106 75 385 102l201 21v53q0 73 -21.5 122.5t-61.5 73.5t-83.5 33.5t-101.5 9.5q-123 0 -187.5 -56.5t-75.5 -151.5zM440 80q69 0 127 21.5t104.5 65.5t72.5 119.5t26 174.5v61l-219 -22
q-189 -19 -272.5 -67t-83.5 -148q0 -92 67.5 -148.5t177.5 -56.5zM885 575h676q0 139 -89.5 241t-242.5 102q-139 0 -235 -91.5t-109 -251.5z" />
    <glyph glyph-name="ccedilla" unicode="&#xe7;" horiz-adv-x="995" 
d="M344 -344l27 76q46 -17 92 -17t77 14.5t31 45.5q0 28 -23 42.5t-59 14.5q-46 0 -73 -16l-39 28l84 136q-126 12 -216.5 81.5t-136 181.5t-45.5 255q0 235 124.5 378.5t344.5 143.5q165 0 277 -94t137 -226l-123 -16q-27 113 -107 171t-196 58q-140 0 -236 -109t-96 -304
q0 -201 96 -309.5t238 -108.5q126 0 206 64t103 165l123 -16q-31 -142 -142.5 -228t-274.5 -92l-41 -67q23 4 49 4q57 0 95 -34.5t38 -92.5q0 -71 -57.5 -109t-137.5 -38q-79 0 -139 18z" />
    <glyph glyph-name="egrave" unicode="&#xe8;" horiz-adv-x="1054" 
d="M537 -25q-222 0 -348 144t-126 379q0 239 133.5 380.5t344.5 141.5q216 0 340 -152.5t112 -394.5h-807q0 -179 100 -285t259 -106q120 0 203 59.5t112 165.5l123 -16q-35 -147 -155.5 -231.5t-290.5 -84.5zM539 918q-144 0 -241 -91t-110 -252h676q0 89 -37 166t-113 127
t-175 50zM514 1118l-248 242h180l172 -242h-104z" />
    <glyph glyph-name="eacute" unicode="&#xe9;" horiz-adv-x="1054" 
d="M537 -25q-222 0 -348 144t-126 379q0 239 133.5 380.5t344.5 141.5q216 0 340 -152.5t112 -394.5h-807q0 -179 100 -285t259 -106q120 0 203 59.5t112 165.5l123 -16q-35 -147 -155.5 -231.5t-290.5 -84.5zM539 918q-144 0 -241 -91t-110 -252h676q0 89 -37 166t-113 127
t-175 50zM782 1360l-247 -242h-105l172 242h180z" />
    <glyph glyph-name="ecircumflex" unicode="&#xea;" horiz-adv-x="1054" 
d="M537 -25q-222 0 -348 144t-126 379q0 239 133.5 380.5t344.5 141.5q216 0 340 -152.5t112 -394.5h-807q0 -179 100 -285t259 -106q120 0 203 59.5t112 165.5l123 -16q-35 -147 -155.5 -231.5t-290.5 -84.5zM539 918q-144 0 -241 -91t-110 -252h676q0 89 -37 166t-113 127
t-175 50zM606 1360l236 -242h-121l-184 146l-187 -146h-121l242 242h135z" />
    <glyph glyph-name="edieresis" unicode="&#xeb;" horiz-adv-x="1054" 
d="M537 -25q-222 0 -348 144t-126 379q0 239 133.5 380.5t344.5 141.5q216 0 340 -152.5t112 -394.5h-807q0 -179 100 -285t259 -106q120 0 203 59.5t112 165.5l123 -16q-35 -147 -155.5 -231.5t-290.5 -84.5zM539 918q-144 0 -241 -91t-110 -252h676q0 89 -37 166t-113 127
t-175 50zM283 1145v188h118v-188h-118zM664 1333h118v-188h-118v188z" />
    <glyph glyph-name="igrave" unicode="&#xec;" horiz-adv-x="403" 
d="M143 1004h117v-1004h-117v1004zM152 1118l-248 242h180l172 -242h-104z" />
    <glyph glyph-name="iacute" unicode="&#xed;" horiz-adv-x="403" 
d="M143 1004h117v-1004h-117v1004zM500 1360l-248 -242h-105l172 242h181z" />
    <glyph glyph-name="icircumflex" unicode="&#xee;" horiz-adv-x="403" 
d="M262 1360l184 -262h-104l-139 155l-142 -155h-104l190 262h115zM143 1004h117v-1004h-117v1004z" />
    <glyph glyph-name="idieresis" unicode="&#xef;" horiz-adv-x="403" 
d="M14 1145v188h119v-188h-119zM272 1145v188h119v-188h-119zM143 1004h117v-1004h-117v1004z" />
    <glyph glyph-name="eth" unicode="&#xf0;" horiz-adv-x="1017" 
d="M561 1290l154 94l88 -49l-164 -100q317 -244 317 -662q0 -152 -34.5 -268.5t-96 -187.5t-142.5 -106.5t-179 -35.5q-199 0 -320 140.5t-121 384.5q0 240 122 380t315 140q96 0 172.5 -37t120.5 -100l2 2q-77 167 -258 286l-164 -100l-86 47l166 105q-38 20 -134 63l52 98
q113 -45 190 -94zM504 80q63 0 119.5 25.5t103.5 75t74.5 132t27.5 187.5t-27.5 187t-74 130.5t-103 73t-120.5 24.5q-143 0 -229.5 -111t-86.5 -304q0 -195 86 -307.5t230 -112.5z" />
    <glyph glyph-name="ntilde" unicode="&#xf1;" horiz-adv-x="1058" 
d="M262 1004v-173q98 189 340 189q179 0 266 -107q78 -97 78 -288v-625h-119v594q0 167 -57 242q-60 79 -199 79q-133 0 -221 -101.5t-88 -262.5v-551h-119v1004h119zM668 1245q75 0 94 86h104q-17 -89 -67 -139.5t-123 -50.5q-45 0 -92.5 22t-87.5 44t-66 22q-70 0 -92 -88
h-102q12 90 66 140t126 50q44 0 90 -21.5t84.5 -43t65.5 -21.5z" />
    <glyph glyph-name="ograve" unicode="&#xf2;" horiz-adv-x="1052" 
d="M188 498q0 -204 94.5 -311t243.5 -107t243.5 107t94.5 311q0 203 -94.5 310t-243.5 107t-243.5 -107t-94.5 -310zM63 498q0 131 38.5 233.5t104 164t147 93t173.5 31.5t173.5 -31.5t147 -93t104 -164t38.5 -233.5t-38.5 -233.5t-104 -164.5t-147 -93.5t-173.5 -31.5
t-173.5 31.5t-147 93.5t-104 164.5t-38.5 233.5zM522 1118l-248 242h181l172 -242h-105z" />
    <glyph glyph-name="oacute" unicode="&#xf3;" horiz-adv-x="1052" 
d="M188 498q0 -204 94.5 -311t243.5 -107t243.5 107t94.5 311q0 203 -94.5 310t-243.5 107t-243.5 -107t-94.5 -310zM63 498q0 131 38.5 233.5t104 164t147 93t173.5 31.5t173.5 -31.5t147 -93t104 -164t38.5 -233.5t-38.5 -233.5t-104 -164.5t-147 -93.5t-173.5 -31.5
t-173.5 31.5t-147 93.5t-104 164.5t-38.5 233.5zM758 1360l-248 -242h-104l172 242h180z" />
    <glyph glyph-name="ocircumflex" unicode="&#xf4;" horiz-adv-x="1052" 
d="M188 498q0 -204 94.5 -311t243.5 -107t243.5 107t94.5 311q0 203 -94.5 310t-243.5 107t-243.5 -107t-94.5 -310zM63 498q0 131 38.5 233.5t104 164t147 93t173.5 31.5t173.5 -31.5t147 -93t104 -164t38.5 -233.5t-38.5 -233.5t-104 -164.5t-147 -93.5t-173.5 -31.5
t-173.5 31.5t-147 93.5t-104 164.5t-38.5 233.5zM598 1360l236 -242h-121l-185 146l-186 -146h-121l242 242h135z" />
    <glyph glyph-name="otilde" unicode="&#xf5;" horiz-adv-x="1052" 
d="M188 498q0 -204 94.5 -311t243.5 -107t243.5 107t94.5 311q0 203 -94.5 310t-243.5 107t-243.5 -107t-94.5 -310zM63 498q0 131 38.5 233.5t104 164t147 93t173.5 31.5t173.5 -31.5t147 -93t104 -164t38.5 -233.5t-38.5 -233.5t-104 -164.5t-147 -93.5t-173.5 -31.5
t-173.5 31.5t-147 93.5t-104 164.5t-38.5 233.5zM637 1245q75 0 94 86h105q-17 -89 -67.5 -139.5t-123.5 -50.5q-45 0 -92.5 22t-87.5 44t-66 22q-70 0 -92 -88h-102q12 90 66 140t126 50q44 0 89.5 -21.5t84.5 -43t66 -21.5z" />
    <glyph glyph-name="odieresis" unicode="&#xf6;" horiz-adv-x="1052" 
d="M188 498q0 -204 94.5 -311t243.5 -107t243.5 107t94.5 311q0 203 -94.5 310t-243.5 107t-243.5 -107t-94.5 -310zM63 498q0 131 38.5 233.5t104 164t147 93t173.5 31.5t173.5 -31.5t147 -93t104 -164t38.5 -233.5t-38.5 -233.5t-104 -164.5t-147 -93.5t-173.5 -31.5
t-173.5 31.5t-147 93.5t-104 164.5t-38.5 233.5zM272 1145v188h119v-188h-119zM653 1333h119v-188h-119v188z" />
    <glyph glyph-name="divide" unicode="&#xf7;" horiz-adv-x="1081" 
d="M461 133v178h166v-178h-166zM461 723v178h166v-178h-166zM61 461h959v112h-959v-112z" />
    <glyph glyph-name="oslash" unicode="&#xf8;" horiz-adv-x="1052" 
d="M985 956l-96 -112q100 -138 100 -346q0 -131 -38.5 -233.5t-104 -164.5t-147 -93.5t-173.5 -31.5q-174 0 -295 103l-88 -103l-75 68l94 109q-99 136 -99 346q0 131 38.5 233.5t104 164t147 93t173.5 31.5q172 0 293 -100l88 102zM864 498q0 153 -55 252l-504 -586
q87 -84 221 -84q149 0 243.5 107t94.5 311zM188 498q0 -150 54 -252l503 588q-87 81 -219 81q-149 0 -243.5 -107t-94.5 -310z" />
    <glyph glyph-name="ugrave" unicode="&#xf9;" horiz-adv-x="1042" 
d="M780 0v164q-100 -189 -327 -189q-159 0 -244 91q-86 96 -86 309v629h119v-605q0 -181 61 -254q56 -67 168 -67q133 0 221 101t88 263v562h119v-1004h-119zM530 1118l-247 242h180l172 -242h-105z" />
    <glyph glyph-name="uacute" unicode="&#xfa;" horiz-adv-x="1042" 
d="M780 0v164q-100 -189 -327 -189q-159 0 -244 91q-86 96 -86 309v629h119v-605q0 -181 61 -254q56 -67 168 -67q133 0 221 101t88 263v562h119v-1004h-119zM758 1360l-248 -242h-104l172 242h180z" />
    <glyph glyph-name="ucircumflex" unicode="&#xfb;" horiz-adv-x="1042" 
d="M780 0v164q-100 -189 -327 -189q-159 0 -244 91q-86 96 -86 309v629h119v-605q0 -181 61 -254q56 -67 168 -67q133 0 221 101t88 263v562h119v-1004h-119zM584 1360l235 -242h-121l-184 146l-186 -146h-121l242 242h135z" />
    <glyph glyph-name="udieresis" unicode="&#xfc;" horiz-adv-x="1042" 
d="M780 0v164q-100 -189 -327 -189q-159 0 -244 91q-86 96 -86 309v629h119v-605q0 -181 61 -254q56 -67 168 -67q133 0 221 101t88 263v562h119v-1004h-119zM258 1145v188h119v-188h-119zM639 1333h119v-188h-119v188z" />
    <glyph glyph-name="yacute" unicode="&#xfd;" horiz-adv-x="886" 
d="M94 -354h66q93 0 146 23t86.5 73t74.5 156l420 1106h-127l-309 -840l-318 840h-133l391 -1004l-31 -82q-38 -103 -80 -135.5t-118 -32.5h-68v-104zM700 1360l-247 -242h-105l172 242h180z" />
    <glyph glyph-name="thorn" unicode="&#xfe;" 
d="M143 -354v1714h119v-524q108 184 346 184q182 0 299 -141t117 -383q0 -240 -122 -380.5t-314 -140.5q-103 0 -192 46t-134 133v-508h-119zM584 915q-61 0 -118 -25.5t-105 -74.5t-77.5 -131.5t-29.5 -187.5t28 -187t75.5 -130.5t105 -73.5t121.5 -25q143 0 229 111.5
t86 304.5q0 195 -85.5 307t-229.5 112z" />
    <glyph glyph-name="ydieresis" unicode="&#xff;" horiz-adv-x="886" 
d="M94 -354h66q93 0 146 23t86.5 73t74.5 156l420 1106h-127l-309 -840l-318 840h-133l391 -1004l-31 -82q-38 -103 -80 -135.5t-118 -32.5h-68v-104zM219 1145v188h119v-188h-119zM600 1333h119v-188h-119v188z" />
    <glyph glyph-name="Amacron" unicode="&#x100;" horiz-adv-x="1193" 
d="M0 0l524 1360h144l526 -1360h-139l-133 346h-654l-131 -346h-137zM592 1202l-279 -737h561zM877 1485h-572v119h572v-119z" />
    <glyph glyph-name="amacron" unicode="&#x101;" horiz-adv-x="995" 
d="M106 711l123 -4q6 95 72.5 151.5t192.5 56.5q46 0 82 -4.5t73 -19t60.5 -39.5t39 -68t15.5 -102v-59l-201 -21q-282 -27 -385 -98q-108 -74 -108 -215q0 -136 92.5 -225t255.5 -89q137 0 219 47.5t129 133.5l8 -156h119q-12 222 -12 328q0 28 1 138t1 214
q0 188 -93.5 264t-283.5 76q-175 0 -283 -82t-117 -227zM770 461q0 -99 -26 -174.5t-72.5 -119.5t-104.5 -65.5t-127 -21.5q-110 0 -177.5 56.5t-67.5 148.5q0 100 83.5 148t272.5 67l219 22v-61zM774 1190h-528v102h528v-102z" />
    <glyph glyph-name="Abreve" unicode="&#x102;" horiz-adv-x="1193" 
d="M0 0l524 1360h144l526 -1360h-139l-133 346h-654l-131 -346h-137zM592 1202l-279 -737h561zM774 1645h113q-9 -100 -89 -163t-208 -63q-124 0 -203 63t-88 163h113q7 -66 57.5 -99t122.5 -33t122.5 34t59.5 98z" />
    <glyph glyph-name="abreve" unicode="&#x103;" horiz-adv-x="995" 
d="M106 711l123 -4q6 95 72.5 151.5t192.5 56.5q46 0 82 -4.5t73 -19t60.5 -39.5t39 -68t15.5 -102v-59l-201 -21q-282 -27 -385 -98q-108 -74 -108 -215q0 -136 92.5 -225t255.5 -89q137 0 219 47.5t129 133.5l8 -156h119q-12 222 -12 328q0 28 1 138t1 214
q0 188 -93.5 264t-283.5 76q-175 0 -283 -82t-117 -227zM770 461q0 -99 -26 -174.5t-72.5 -119.5t-104.5 -65.5t-127 -21.5q-110 0 -177.5 56.5t-67.5 148.5q0 100 83.5 148t272.5 67l219 22v-61zM795 1360q-11 -113 -84 -180.5t-201 -67.5q-124 0 -197 68t-82 180h107
q6 -71 50 -114.5t124 -43.5t125 43.5t51 114.5h107z" />
    <glyph glyph-name="Aogonek" unicode="&#x104;" horiz-adv-x="1193" 
d="M668 1360l526 -1360q-174 -75 -174 -156q0 -35 27 -56t81 -21q34 0 70 8v-92q-50 -15 -102 -15q-85 0 -143 39.5t-58 114.5q0 55 46.5 103t113.5 75l-133 346h-654l-131 -346h-137l524 1360h144zM592 1202l-279 -737h561z" />
    <glyph glyph-name="aogonek" unicode="&#x105;" horiz-adv-x="995" 
d="M770 461v61l-219 -22q-189 -19 -272.5 -67t-83.5 -148q0 -92 67.5 -148.5t177.5 -56.5q69 0 127 21.5t104.5 65.5t72.5 119.5t26 174.5zM774 0l-8 156q-47 -86 -129 -133.5t-219 -47.5q-163 0 -255.5 89t-92.5 225q0 141 108 215q103 71 385 98l201 21v59q0 59 -15.5 102
t-39 68t-60.5 39.5t-73 19t-82 4.5q-126 0 -192.5 -56.5t-72.5 -151.5l-123 4q9 145 117 227t283 82q190 0 283.5 -76t93.5 -264q0 -104 -1 -214t-1 -138q0 -106 12 -328q-174 -75 -174 -156q0 -35 27 -56t81 -21q34 0 70 8v-92q-49 -15 -102 -15q-85 0 -143 39.5t-58 114.5
q0 59 53 106.5t127 71.5z" />
    <glyph glyph-name="Cacute" unicode="&#x106;" horiz-adv-x="1314" 
d="M1133 416l133 -19q-45 -196 -195.5 -309t-382.5 -113q-194 0 -333.5 90t-209 248t-69.5 367q0 322 163.5 513t454.5 191q224 0 372.5 -112t193.5 -309l-134 -19q-39 161 -158 240.5t-278 79.5q-212 0 -345.5 -153.5t-133.5 -430.5q0 -271 131.5 -427.5t347.5 -156.5
q182 0 297 90.5t146 229.5zM969 1645l-291 -215h-123l209 215h205z" />
    <glyph glyph-name="cacute" unicode="&#x107;" horiz-adv-x="995" 
d="M532 1020q165 0 277 -94t137 -226l-123 -16q-27 113 -107 171t-196 58q-140 0 -236 -109t-96 -304q0 -201 96 -309.5t238 -108.5q126 0 206 64t103 165l123 -16q-31 -146 -148.5 -233t-287.5 -87q-214 0 -334.5 144.5t-120.5 378.5q0 235 124.5 378.5t344.5 143.5z
M795 1360l-248 -242h-105l172 242h181z" />
    <glyph glyph-name="Ccircumflex" unicode="&#x108;" horiz-adv-x="1314" 
d="M1133 416l133 -19q-45 -196 -195.5 -309t-382.5 -113q-194 0 -333.5 90t-209 248t-69.5 367q0 322 163.5 513t454.5 191q224 0 372.5 -112t193.5 -309l-134 -19q-39 161 -158 240.5t-278 79.5q-212 0 -345.5 -153.5t-133.5 -430.5q0 -271 131.5 -427.5t347.5 -156.5
q182 0 297 90.5t146 229.5zM782 1645l250 -215h-141l-191 126l-192 -126h-141l256 215h159z" />
    <glyph glyph-name="ccircumflex" unicode="&#x109;" horiz-adv-x="995" 
d="M532 1020q165 0 277 -94t137 -226l-123 -16q-27 113 -107 171t-196 58q-140 0 -236 -109t-96 -304q0 -201 96 -309.5t238 -108.5q126 0 206 64t103 165l123 -16q-31 -146 -148.5 -233t-287.5 -87q-214 0 -334.5 144.5t-120.5 378.5q0 235 124.5 378.5t344.5 143.5z
M598 1360l236 -242h-121l-185 146l-186 -146h-121l242 242h135z" />
    <glyph glyph-name="Cdotaccent" unicode="&#x10a;" horiz-adv-x="1314" 
d="M1133 416l133 -19q-45 -196 -195.5 -309t-382.5 -113q-194 0 -333.5 90t-209 248t-69.5 367q0 322 163.5 513t454.5 191q224 0 372.5 -112t193.5 -309l-134 -19q-39 161 -158 240.5t-278 79.5q-212 0 -345.5 -153.5t-133.5 -430.5q0 -271 131.5 -427.5t347.5 -156.5
q182 0 297 90.5t146 229.5zM618 1630h127v-188h-127v188z" />
    <glyph glyph-name="cdotaccent" unicode="&#x10b;" horiz-adv-x="995" 
d="M532 1020q165 0 277 -94t137 -226l-123 -16q-27 113 -107 171t-196 58q-140 0 -236 -109t-96 -304q0 -201 96 -309.5t238 -108.5q126 0 206 64t103 165l123 -16q-31 -146 -148.5 -233t-287.5 -87q-214 0 -334.5 144.5t-120.5 378.5q0 235 124.5 378.5t344.5 143.5z
M469 1333h119v-188h-119v188z" />
    <glyph glyph-name="Ccaron" unicode="&#x10c;" horiz-adv-x="1314" 
d="M1133 416l133 -19q-45 -196 -195.5 -309t-382.5 -113q-194 0 -333.5 90t-209 248t-69.5 367q0 322 163.5 513t454.5 191q224 0 372.5 -112t193.5 -309l-134 -19q-39 161 -158 240.5t-278 79.5q-212 0 -345.5 -153.5t-133.5 -430.5q0 -271 131.5 -427.5t347.5 -156.5
q182 0 297 90.5t146 229.5zM612 1430l-250 215h142l190 -127l193 127h141l-256 -215h-160z" />
    <glyph glyph-name="ccaron" unicode="&#x10d;" horiz-adv-x="995" 
d="M532 1020q165 0 277 -94t137 -226l-123 -16q-27 113 -107 171t-196 58q-140 0 -236 -109t-96 -304q0 -201 96 -309.5t238 -108.5q126 0 206 64t103 165l123 -16q-31 -146 -148.5 -233t-287.5 -87q-214 0 -334.5 144.5t-120.5 378.5q0 235 124.5 378.5t344.5 143.5z
M463 1118l-236 242h121l184 -146l187 146h121l-242 -242h-135z" />
    <glyph glyph-name="Dcaron" unicode="&#x10e;" horiz-adv-x="1302" 
d="M1092 680q0 83 -12.5 153.5t-34 123t-55 95.5t-69.5 72t-84 51t-93 34t-101 19.5t-103.5 10t-105.5 2.5h-143v-1122h143q58 0 105.5 2.5t103.5 10t101 19.5t93 34t84 51t69.5 72t55 95.5t34 123t12.5 153.5zM164 1360h274q138 0 251 -19.5t215 -67.5t172 -124t110.5 -195
t40.5 -274t-40.5 -274t-110.5 -195t-172 -124t-215 -67.5t-251 -19.5h-274v1360zM483 1430l-250 215h142l190 -127l193 127h141l-256 -215h-160z" />
    <glyph glyph-name="dcaron" unicode="&#x10f;" horiz-adv-x="1124" 
d="M1206 1360l-133 -324h-69l57 324h145zM944 0v1360h-119v-518q-45 87 -133.5 132.5t-191.5 45.5q-192 0 -314.5 -140t-122.5 -380q0 -242 117 -383.5t299 -141.5q238 0 346 185l2 -160h117zM504 80q-144 0 -230 112.5t-86 307.5q0 193 86.5 304t229.5 111
q64 0 121.5 -24.5t105 -73t75.5 -130.5t28 -187t-29.5 -188t-77.5 -132t-105 -74.5t-118 -25.5z" />
    <glyph glyph-name="Dcroat" unicode="&#x110;" horiz-adv-x="1320" 
d="M20 764h164v596h275q138 0 251 -19.5t214.5 -67.5t170.5 -124t109.5 -195t40.5 -274t-40.5 -274t-109.5 -195t-170.5 -124t-214.5 -67.5t-251 -19.5h-275v645h-164v119zM1112 680q0 106 -20.5 191.5t-54 143t-86 100t-106 66.5t-124.5 38t-130.5 18t-135.5 4h-144v-477
h322v-119h-322v-526h144q76 0 135.5 4t130.5 18t124.5 38t106 66.5t86 100t54 143t20.5 191.5z" />
    <glyph glyph-name="dcroat" unicode="&#x111;" 
d="M944 1108v-1108h-117l-2 160q-108 -185 -346 -185q-182 0 -299 141.5t-117 383.5q0 240 122.5 380t314.5 140q103 0 191.5 -45.5t133.5 -132.5v266h-258v102h258v150h119v-150h143v-102h-143zM504 80q61 0 118 25.5t105 74.5t77.5 132t29.5 188t-28 187t-75.5 130.5
t-105 73t-121.5 24.5q-143 0 -229.5 -111t-86.5 -304q0 -195 86 -307.5t230 -112.5z" />
    <glyph glyph-name="Emacron" unicode="&#x112;" horiz-adv-x="1116" 
d="M164 0v1360h885v-119h-758v-477h713v-119h-713v-526h758v-119h-885zM885 1485h-572v119h572v-119z" />
    <glyph glyph-name="emacron" unicode="&#x113;" horiz-adv-x="1054" 
d="M537 -25q-222 0 -348 144t-126 379q0 239 133.5 380.5t344.5 141.5q216 0 340 -152.5t112 -394.5h-807q0 -179 100 -285t259 -106q120 0 203 59.5t112 165.5l123 -16q-35 -147 -155.5 -231.5t-290.5 -84.5zM539 918q-144 0 -241 -91t-110 -252h676q0 89 -37 166t-113 127
t-175 50zM795 1190h-529v102h529v-102z" />
    <glyph glyph-name="Ebreve" unicode="&#x114;" horiz-adv-x="1116" 
d="M164 0v1360h885v-119h-758v-477h713v-119h-713v-526h758v-119h-885zM786 1645h113q-9 -100 -89 -163t-208 -63q-124 0 -203 63t-88 163h113q7 -66 57.5 -99t122.5 -33t122.5 34t59.5 98z" />
    <glyph glyph-name="ebreve" unicode="&#x115;" horiz-adv-x="1054" 
d="M537 -25q-222 0 -348 144t-126 379q0 239 133.5 380.5t344.5 141.5q216 0 340 -152.5t112 -394.5h-807q0 -179 100 -285t259 -106q120 0 203 59.5t112 165.5l123 -16q-35 -147 -155.5 -231.5t-290.5 -84.5zM539 918q-144 0 -241 -91t-110 -252h676q0 89 -37 166t-113 127
t-175 50zM819 1360q-11 -113 -83.5 -180.5t-200.5 -67.5q-124 0 -197 68t-82 180h106q6 -71 50.5 -114.5t124.5 -43.5t125 43.5t51 114.5h106z" />
    <glyph glyph-name="Edotaccent" unicode="&#x116;" horiz-adv-x="1116" 
d="M164 0v1360h885v-119h-758v-477h713v-119h-713v-526h758v-119h-885zM551 1630h127v-188h-127v188z" />
    <glyph glyph-name="edotaccent" unicode="&#x117;" horiz-adv-x="1054" 
d="M537 -25q-222 0 -348 144t-126 379q0 239 133.5 380.5t344.5 141.5q216 0 340 -152.5t112 -394.5h-807q0 -179 100 -285t259 -106q120 0 203 59.5t112 165.5l123 -16q-35 -147 -155.5 -231.5t-290.5 -84.5zM539 918q-144 0 -241 -91t-110 -252h676q0 89 -37 166t-113 127
t-175 50zM477 1333h119v-188h-119v188z" />
    <glyph glyph-name="Eogonek" unicode="&#x118;" horiz-adv-x="1116" 
d="M164 0v1360h885v-119h-758v-477h713v-119h-713v-526h758v-119q-175 -76 -175 -156q0 -77 101 -77q33 0 69 8v-92q-50 -15 -102 -15q-85 0 -143 39.5t-58 114.5q0 59 53 106.5t128 71.5h-758z" />
    <glyph glyph-name="eogonek" unicode="&#x119;" horiz-adv-x="1054" 
d="M983 291q-50 -211 -278 -293q-87 -32 -134 -72.5t-47 -83.5q0 -35 27.5 -56.5t81.5 -21.5q29 0 69 9v-92q-50 -15 -102 -15q-85 0 -143 39.5t-58 114.5q0 49 34.5 89t90.5 66q-217 4 -339 147.5t-122 375.5q0 239 133.5 380.5t344.5 141.5q216 0 340 -152.5t112 -394.5
h-807q0 -179 100 -285t259 -106q120 0 203 59.5t112 165.5zM539 918q-144 0 -241 -91t-110 -252h676q0 89 -37 166t-113 127t-175 50z" />
    <glyph glyph-name="Ecaron" unicode="&#x11a;" horiz-adv-x="1116" 
d="M164 0v1360h885v-119h-758v-477h713v-119h-713v-526h758v-119h-885zM522 1430l-250 215h142l190 -127l193 127h141l-256 -215h-160z" />
    <glyph glyph-name="ecaron" unicode="&#x11b;" horiz-adv-x="1054" 
d="M537 -25q-222 0 -348 144t-126 379q0 239 133.5 380.5t344.5 141.5q216 0 340 -152.5t112 -394.5h-807q0 -179 100 -285t259 -106q120 0 203 59.5t112 165.5l123 -16q-35 -147 -155.5 -231.5t-290.5 -84.5zM539 918q-144 0 -241 -91t-110 -252h676q0 89 -37 166t-113 127
t-175 50zM461 1118l-236 242h121l184 -146l187 146h121l-242 -242h-135z" />
    <glyph glyph-name="Gcircumflex" unicode="&#x11c;" horiz-adv-x="1417" 
d="M705 1384q221 0 372 -111t197 -310l-133 -19q-20 83 -65.5 146.5t-106.5 100.5t-128.5 55t-140.5 18q-104 0 -193 -38t-155 -110.5t-103.5 -184t-37.5 -251.5q0 -271 131.5 -427.5t347.5 -156.5q67 0 127.5 10.5t123 39.5t108 73.5t74 119.5t28.5 171v51h-387v119h510
v-680h-113l-2 195q-141 -220 -471 -220q-194 0 -333.5 90t-209 248t-69.5 367q0 321 168 512.5t461 191.5zM776 1645l250 -215h-141l-191 126l-192 -126h-142l256 215h160z" />
    <glyph glyph-name="gcircumflex" unicode="&#x11d;" horiz-adv-x="1079" 
d="M817 201v-189q0 -153 -86 -223q-68 -55 -209 -55q-124 0 -193.5 55.5t-80.5 142.5l-123 -8q13 -134 122.5 -213.5t270.5 -79.5q190 0 297 88q121 100 121 306v979h-119v-162q-47 88 -131.5 133t-181.5 45q-191 0 -316 -137.5t-125 -362.5q0 -227 119.5 -365.5
t300.5 -138.5q222 0 334 185zM500 121q-137 0 -224.5 110t-87.5 289q0 178 88.5 286.5t225.5 108.5q61 0 117.5 -24.5t103 -71t74.5 -124.5t28 -175t-29 -175.5t-76.5 -126t-104 -72.5t-115.5 -25zM598 1360l236 -242h-121l-185 146l-186 -146h-121l242 242h135z" />
    <glyph glyph-name="Gbreve" unicode="&#x11e;" horiz-adv-x="1417" 
d="M705 1384q221 0 372 -111t197 -310l-133 -19q-20 83 -65.5 146.5t-106.5 100.5t-128.5 55t-140.5 18q-104 0 -193 -38t-155 -110.5t-103.5 -184t-37.5 -251.5q0 -271 131.5 -427.5t347.5 -156.5q67 0 127.5 10.5t123 39.5t108 73.5t74 119.5t28.5 171v51h-387v119h510
v-680h-113l-2 195q-141 -220 -471 -220q-194 0 -333.5 90t-209 248t-69.5 367q0 321 168 512.5t461 191.5zM872 1645h113q-9 -100 -89 -163t-208 -63q-124 0 -203 63t-88 163h113q7 -66 57.5 -99t122.5 -33t122.5 34t59.5 98z" />
    <glyph glyph-name="gbreve" unicode="&#x11f;" horiz-adv-x="1079" 
d="M817 201v-189q0 -153 -86 -223q-68 -55 -209 -55q-124 0 -193.5 55.5t-80.5 142.5l-123 -8q13 -134 122.5 -213.5t270.5 -79.5q190 0 297 88q121 100 121 306v979h-119v-162q-47 88 -131.5 133t-181.5 45q-191 0 -316 -137.5t-125 -362.5q0 -227 119.5 -365.5
t300.5 -138.5q222 0 334 185zM500 121q-137 0 -224.5 110t-87.5 289q0 178 88.5 286.5t225.5 108.5q61 0 117.5 -24.5t103 -71t74.5 -124.5t28 -175t-29 -175.5t-76.5 -126t-104 -72.5t-115.5 -25zM805 1360q-11 -113 -84 -180.5t-201 -67.5q-124 0 -196.5 68t-81.5 180h106
q6 -71 50 -114.5t124 -43.5t125 43.5t51 114.5h107z" />
    <glyph glyph-name="Gdotaccent" unicode="&#x120;" horiz-adv-x="1417" 
d="M705 1384q221 0 372 -111t197 -310l-133 -19q-20 83 -65.5 146.5t-106.5 100.5t-128.5 55t-140.5 18q-104 0 -193 -38t-155 -110.5t-103.5 -184t-37.5 -251.5q0 -271 131.5 -427.5t347.5 -156.5q67 0 127.5 10.5t123 39.5t108 73.5t74 119.5t28.5 171v51h-387v119h510
v-680h-113l-2 195q-141 -220 -471 -220q-194 0 -333.5 90t-209 248t-69.5 367q0 321 168 512.5t461 191.5zM629 1630h127v-188h-127v188z" />
    <glyph glyph-name="gdotaccent" unicode="&#x121;" horiz-adv-x="1079" 
d="M817 201v-189q0 -153 -86 -223q-68 -55 -209 -55q-124 0 -193.5 55.5t-80.5 142.5l-123 -8q13 -134 122.5 -213.5t270.5 -79.5q190 0 297 88q121 100 121 306v979h-119v-162q-47 88 -131.5 133t-181.5 45q-191 0 -316 -137.5t-125 -362.5q0 -227 119.5 -365.5
t300.5 -138.5q222 0 334 185zM500 121q-137 0 -224.5 110t-87.5 289q0 178 88.5 286.5t225.5 108.5q61 0 117.5 -24.5t103 -71t74.5 -124.5t28 -175t-29 -175.5t-76.5 -126t-104 -72.5t-115.5 -25zM459 1333h119v-188h-119v188z" />
    <glyph glyph-name="Gcommaaccent" unicode="&#x122;" horiz-adv-x="1417" 
d="M705 1384q221 0 372 -111t197 -310l-133 -19q-20 83 -65.5 146.5t-106.5 100.5t-128.5 55t-140.5 18q-104 0 -193 -38t-155 -110.5t-103.5 -184t-37.5 -251.5q0 -271 131.5 -427.5t347.5 -156.5q67 0 127.5 10.5t123 39.5t108 73.5t74 119.5t28.5 171v51h-387v119h510
v-680h-113l-2 195q-141 -220 -471 -220q-194 0 -333.5 90t-209 248t-69.5 367q0 321 168 512.5t461 191.5zM614 -238v170h160v-182l-84 -170h-82l74 182h-68z" />
    <glyph glyph-name="gcommaaccent" unicode="&#x123;" horiz-adv-x="1079" 
d="M582 1268v-170h-160v182l84 170h82l-74 -182h68zM817 201v-189q0 -153 -86 -223q-68 -55 -209 -55q-124 0 -193.5 55.5t-80.5 142.5l-123 -8q13 -134 122.5 -213.5t270.5 -79.5q190 0 297 88q121 100 121 306v979h-119v-162q-47 88 -131.5 133t-181.5 45
q-191 0 -316 -137.5t-125 -362.5q0 -227 119.5 -365.5t300.5 -138.5q222 0 334 185zM500 121q-137 0 -224.5 110t-87.5 289q0 178 88.5 286.5t225.5 108.5q61 0 117.5 -24.5t103 -71t74.5 -124.5t28 -175t-29 -175.5t-76.5 -126t-104 -72.5t-115.5 -25z" />
    <glyph glyph-name="Hcircumflex" unicode="&#x124;" horiz-adv-x="1394" 
d="M1104 1360h127v-1360h-127v645h-813v-645h-127v1360h127v-596h813v596zM776 1645l250 -215h-141l-191 126l-192 -126h-142l256 215h160z" />
    <glyph glyph-name="hcircumflex" unicode="&#x125;" horiz-adv-x="1058" 
d="M664 1360l245 -262h-104l-201 155l-203 -155h-104l252 262h115zM262 1360v-529q98 189 340 189q179 0 266 -107q78 -97 78 -288v-625h-119v594q0 167 -57 242q-60 79 -199 79q-133 0 -221 -101.5t-88 -262.5v-551h-119v1360h119z" />
    <glyph glyph-name="Hbar" unicode="&#x126;" horiz-adv-x="1394" 
d="M1104 1360h127v-1360h-127v645h-813v-645h-127v1360h127v-246h813v246zM291 764h813v231h-813v-231z" />
    <glyph glyph-name="hbar" unicode="&#x127;" horiz-adv-x="1058" 
d="M262 1360v-150h258v-102h-258v-277q98 189 340 189q179 0 266 -107q78 -97 78 -288v-625h-119v594q0 167 -57 242q-60 79 -199 79q-133 0 -221 -101.5t-88 -262.5v-551h-119v1108h-143v102h143v150h119z" />
    <glyph glyph-name="Itilde" unicode="&#x128;" horiz-adv-x="454" 
d="M317 1546q61 0 74 86h84q-14 -89 -53.5 -139.5t-97.5 -50.5q-36 0 -74 22t-70 44t-53 22q-56 0 -72 -88h-82q9 90 52.5 140t101.5 50q35 0 71 -21.5t67 -43t52 -21.5zM291 1360v-1360h-127v1360h127z" />
    <glyph glyph-name="itilde" unicode="&#x129;" horiz-adv-x="403" 
d="M301 1245q64 0 80 86h88q-14 -90 -56.5 -141t-105.5 -51q-38 0 -78.5 22t-74.5 44t-56 22q-59 0 -78 -88h-86q10 92 55.5 142t108.5 50q37 0 75.5 -21.5t71.5 -43t56 -21.5zM143 1004h117v-1004h-117v1004z" />
    <glyph glyph-name="Imacron" unicode="&#x12a;" horiz-adv-x="454" 
d="M455 1485h-455v119h455v-119zM291 1360v-1360h-127v1360h127z" />
    <glyph glyph-name="imacron" unicode="&#x12b;" horiz-adv-x="403" 
d="M406 1176h-406v102h406v-102zM143 1004h117v-1004h-117v1004z" />
    <glyph glyph-name="Ibreve" unicode="&#x12c;" horiz-adv-x="454" 
d="M231 1419q-228 0 -249 226h112q8 -70 40 -101t99 -31t100 31.5t42 100.5h112q-21 -226 -256 -226zM291 1360v-1360h-127v1360h127z" />
    <glyph glyph-name="ibreve" unicode="&#x12d;" horiz-adv-x="403" 
d="M442 1360q-23 -268 -243 -268q-110 0 -169.5 70t-68.5 198h107q6 -88 37 -133t96 -45t97 45.5t38 132.5h106zM143 1004h117v-1004h-117v1004z" />
    <glyph glyph-name="Iogonek" unicode="&#x12e;" horiz-adv-x="454" 
d="M164 0v1360h127v-1360q-174 -75 -174 -156q0 -77 100 -77q34 0 70 8v-92q-49 -15 -103 -15q-84 0 -142 39.5t-58 114.5q0 59 53 106.5t127 71.5z" />
    <glyph glyph-name="iogonek" unicode="&#x12f;" horiz-adv-x="405" 
d="M143 0v1004h119v-1004q-174 -75 -174 -156q0 -35 27.5 -56t81.5 -21q33 0 69 8v-92q-50 -15 -102 -15q-85 0 -143 39.5t-58 114.5q0 59 53 106.5t127 71.5zM143 1360h119v-189h-119v189z" />
    <glyph glyph-name="Idotaccent" unicode="&#x130;" horiz-adv-x="454" 
d="M164 1630h127v-188h-127v188zM291 1360v-1360h-127v1360h127z" />
    <glyph glyph-name="dotlessi" unicode="&#x131;" horiz-adv-x="403" 
d="M143 1004h117v-1004h-117v1004z" />
    <glyph glyph-name="IJ" unicode="&#x132;" horiz-adv-x="991" 
d="M291 1360v-1360h-127v1360h127zM516 0v119h16q27 0 45.5 0.5t36.5 3.5t28.5 4.5t21 10.5t15.5 13.5t10 20.5t6.5 25.5t3 34.5t1.5 40.5v51.5v1036h127v-1043q0 -104 -9 -162t-39 -95t-77 -48.5t-131 -11.5h-55z" />
    <glyph glyph-name="ij" unicode="&#x133;" horiz-adv-x="811" 
d="M143 1004h119v-1004h-119v1004zM143 1360h119v-189h-119v189zM549 -84v1088h119v-1090q0 -82 -8 -129.5t-31.5 -80.5t-65 -45.5t-110.5 -12.5h-64v108h23q33 0 54.5 2t37.5 10t24.5 18t13.5 30.5t6 42t1 59.5zM549 1360h119v-189h-119v189z" />
    <glyph glyph-name="Jcircumflex" unicode="&#x134;" horiz-adv-x="536" 
d="M395 1645l189 -215h-142l-129 126l-131 -126h-141l195 215h159zM61 0v119h17q27 0 45.5 0.5t36.5 3.5t28.5 4.5t21 10.5t15.5 13.5t10 20.5t6.5 25.5t3 34.5t1.5 40.5v51.5v1036h127v-1043q0 -104 -9 -162t-39 -95t-77 -48.5t-131 -11.5h-56z" />
    <glyph glyph-name="jcircumflex" unicode="&#x135;" horiz-adv-x="409" 
d="M147 -84v1088h119v-1086q0 -81 -8.5 -129.5t-33 -82.5t-66.5 -47t-111 -13h-63v108h22q91 0 116 29.5t25 132.5zM262 1360l184 -262h-104l-139 155l-142 -155h-104l190 262h115z" />
    <glyph glyph-name="Kcommaaccent" unicode="&#x136;" horiz-adv-x="1171" 
d="M291 1360v-690l696 690h164l-580 -578l603 -782h-158l-535 694l-190 -190v-504h-127v1360h127zM528 -238v170h160v-182l-84 -170h-82l74 182h-68z" />
    <glyph glyph-name="kcommaaccent" unicode="&#x137;" horiz-adv-x="909" 
d="M143 1360h119v-848l467 492h145l-387 -408l422 -596h-137l-362 514l-148 -156v-358h-119v1360zM383 -238v170h160v-182l-84 -170h-82l74 182h-68z" />
    <glyph glyph-name="kgreenlandic" unicode="&#x138;" horiz-adv-x="888" 
d="M143 1004h119v-490l447 490h145l-385 -420l420 -584h-137l-361 500l-129 -142v-358h-119v1004z" />
    <glyph glyph-name="Lacute" unicode="&#x139;" horiz-adv-x="1021" 
d="M291 1360v-1241h731v-119h-858v1360h127zM586 1645l-291 -215h-123l209 215h205z" />
    <glyph glyph-name="lacute" unicode="&#x13a;" horiz-adv-x="405" 
d="M262 1360v-1360h-119v1360h119zM559 1645l-291 -215h-123l209 215h205z" />
    <glyph glyph-name="Lcommaaccent" unicode="&#x13b;" horiz-adv-x="1021" 
d="M291 1360v-1241h731v-119h-858v1360h127zM522 -238v170h160v-182l-84 -170h-82l74 182h-68z" />
    <glyph glyph-name="lcommaaccent" unicode="&#x13c;" horiz-adv-x="405" 
d="M262 1360v-1360h-119v1360h119zM125 -238v170h160v-182l-84 -170h-82l74 182h-68z" />
    <glyph glyph-name="Lcaron" unicode="&#x13d;" horiz-adv-x="1021" 
d="M674 1360l-133 -324h-70l57 324h146zM291 1360v-1241h731v-119h-858v1360h127z" />
    <glyph glyph-name="lcaron" unicode="&#x13e;" horiz-adv-x="442" 
d="M524 1360l-133 -324h-69l57 324h145zM262 1360v-1360h-119v1360h119z" />
    <glyph glyph-name="Ldot" unicode="&#x13f;" horiz-adv-x="1021" 
d="M164 1630h127v-188h-127v188zM291 1360v-1241h731v-119h-858v1360h127z" />
    <glyph glyph-name="ldot" unicode="&#x140;" horiz-adv-x="405" 
d="M143 1442v188h119v-188h-119zM262 1360v-1360h-119v1360h119z" />
    <glyph glyph-name="Lslash" unicode="&#x141;" horiz-adv-x="1042" 
d="M20 385v145l164 113v717h127v-631l426 293v-145l-426 -293v-465h731v-119h-858v498z" />
    <glyph glyph-name="lslash" unicode="&#x142;" horiz-adv-x="405" 
d="M0 522v123l143 105v610h119v-524l144 104v-123l-144 -104v-713h-119v627z" />
    <glyph glyph-name="Nacute" unicode="&#x143;" horiz-adv-x="1394" 
d="M1231 0h-184l-756 1223v-1223h-127v1360h184l756 -1225v1225h127v-1360zM993 1645l-291 -215h-122l208 215h205z" />
    <glyph glyph-name="nacute" unicode="&#x144;" horiz-adv-x="1058" 
d="M262 1004v-173q98 189 340 189q179 0 266 -107q78 -97 78 -288v-625h-119v594q0 167 -57 242q-60 79 -199 79q-133 0 -221 -101.5t-88 -262.5v-551h-119v1004h119zM834 1360l-248 -242h-105l172 242h181z" />
    <glyph glyph-name="Ncommaaccent" unicode="&#x145;" horiz-adv-x="1394" 
d="M1231 0h-184l-756 1223v-1223h-127v1360h184l756 -1225v1225h127v-1360zM629 -238v170h159v-182l-83 -170h-82l73 182h-67z" />
    <glyph glyph-name="ncommaaccent" unicode="&#x146;" horiz-adv-x="1058" 
d="M262 1004v-173q98 189 340 189q179 0 266 -107q78 -97 78 -288v-625h-119v594q0 167 -57 242q-60 79 -199 79q-133 0 -221 -101.5t-88 -262.5v-551h-119v1004h119zM469 -238v170h160v-182l-84 -170h-82l74 182h-68z" />
    <glyph glyph-name="Ncaron" unicode="&#x147;" horiz-adv-x="1394" 
d="M1231 0h-184l-756 1223v-1223h-127v1360h184l756 -1225v1225h127v-1360zM637 1430l-250 215h141l191 -127l192 127h142l-256 -215h-160z" />
    <glyph glyph-name="ncaron" unicode="&#x148;" horiz-adv-x="1058" 
d="M262 1004v-173q98 189 340 189q179 0 266 -107q78 -97 78 -288v-625h-119v594q0 167 -57 242q-60 79 -199 79q-133 0 -221 -101.5t-88 -262.5v-551h-119v1004h119zM502 1118l-236 242h121l184 -146l187 146h121l-242 -242h-135z" />
    <glyph glyph-name="napostrophe" unicode="&#x149;" horiz-adv-x="1058" 
d="M262 1004v-173q98 189 340 189q179 0 266 -107q78 -97 78 -288v-625h-119v594q0 167 -57 242q-60 79 -199 79q-133 0 -221 -101.5t-88 -262.5v-551h-119v1004h119zM143 1280v170h160v-182l-84 -170h-82l74 182h-68z" />
    <glyph glyph-name="Eng" unicode="&#x14a;" horiz-adv-x="1394" 
d="M1104 0l-813 1223v-1223h-127v1360h184l756 -1143v1143h127v-1397q0 -98 -14.5 -159t-51 -96.5t-88.5 -48.5t-137 -13h-47v118h10q124 0 162.5 40t38.5 165v31z" />
    <glyph glyph-name="eng" unicode="&#x14b;" horiz-adv-x="1058" 
d="M827 -84v686q0 168 -63.5 240.5t-192.5 72.5q-133 0 -221 -101.5t-88 -262.5v-551h-119v1004h119v-173q98 189 340 189q344 0 344 -383v-719q0 -81 -8.5 -129.5t-33 -82.5t-66.5 -47t-111 -13h-63v108h22q91 0 116 29.5t25 132.5z" />
    <glyph glyph-name="Omacron" unicode="&#x14c;" horiz-adv-x="1415" 
d="M1204 680q0 277 -137.5 430.5t-357.5 153.5q-221 0 -359.5 -154t-138.5 -430t138.5 -430t359.5 -154q220 0 357.5 153.5t137.5 430.5zM1339 680q0 -328 -173 -516.5t-459 -188.5q-193 0 -336.5 88.5t-219 248t-75.5 368.5q0 315 175.5 509.5t459.5 194.5
q287 0 457.5 -188t170.5 -516zM993 1485h-571v119h571v-119z" />
    <glyph glyph-name="omacron" unicode="&#x14d;" horiz-adv-x="1052" 
d="M188 498q0 -204 94.5 -311t243.5 -107t243.5 107t94.5 311q0 203 -94.5 310t-243.5 107t-243.5 -107t-94.5 -310zM63 498q0 131 38.5 233.5t104 164t147 93t173.5 31.5t173.5 -31.5t147 -93t104 -164t38.5 -233.5t-38.5 -233.5t-104 -164.5t-147 -93.5t-173.5 -31.5
t-173.5 31.5t-147 93.5t-104 164.5t-38.5 233.5zM791 1190h-529v102h529v-102z" />
    <glyph glyph-name="Obreve" unicode="&#x14e;" horiz-adv-x="1415" 
d="M1204 680q0 277 -137.5 430.5t-357.5 153.5q-221 0 -359.5 -154t-138.5 -430t138.5 -430t359.5 -154q220 0 357.5 153.5t137.5 430.5zM1339 680q0 -328 -173 -516.5t-459 -188.5q-193 0 -336.5 88.5t-219 248t-75.5 368.5q0 315 175.5 509.5t459.5 194.5
q287 0 457.5 -188t170.5 -516zM893 1645h113q-9 -100 -89 -163t-208 -63q-124 0 -203 63t-88 163h112q7 -65 57.5 -98.5t123.5 -33.5q72 0 122.5 34t59.5 98z" />
    <glyph glyph-name="obreve" unicode="&#x14f;" horiz-adv-x="1052" 
d="M188 498q0 -204 94.5 -311t243.5 -107t243.5 107t94.5 311q0 203 -94.5 310t-243.5 107t-243.5 -107t-94.5 -310zM63 498q0 131 38.5 233.5t104 164t147 93t173.5 31.5t173.5 -31.5t147 -93t104 -164t38.5 -233.5t-38.5 -233.5t-104 -164.5t-147 -93.5t-173.5 -31.5
t-173.5 31.5t-147 93.5t-104 164.5t-38.5 233.5zM807 1360q-11 -113 -84 -180.5t-201 -67.5q-124 0 -196.5 68t-81.5 180h106q6 -71 50 -114.5t124 -43.5t125 43.5t51 114.5h107z" />
    <glyph glyph-name="Ohungarumlaut" unicode="&#x150;" horiz-adv-x="1415" 
d="M1204 680q0 277 -137.5 430.5t-357.5 153.5q-221 0 -359.5 -154t-138.5 -430t138.5 -430t359.5 -154q220 0 357.5 153.5t137.5 430.5zM1339 680q0 -328 -173 -516.5t-459 -188.5q-193 0 -336.5 88.5t-219 248t-75.5 368.5q0 315 175.5 509.5t459.5 194.5
q287 0 457.5 -188t170.5 -516zM856 1645l-291 -215h-123l209 215h205zM1167 1645l-290 -215h-123l209 215h204z" />
    <glyph glyph-name="ohungarumlaut" unicode="&#x151;" horiz-adv-x="1052" 
d="M188 498q0 -204 94.5 -311t243.5 -107t243.5 107t94.5 311q0 203 -94.5 310t-243.5 107t-243.5 -107t-94.5 -310zM63 498q0 131 38.5 233.5t104 164t147 93t173.5 31.5t173.5 -31.5t147 -93t104 -164t38.5 -233.5t-38.5 -233.5t-104 -164.5t-147 -93.5t-173.5 -31.5
t-173.5 31.5t-147 93.5t-104 164.5t-38.5 233.5zM631 1360l-248 -242h-104l172 242h180zM948 1360l-248 -242h-104l172 242h180z" />
    <glyph glyph-name="OE" unicode="&#x152;" horiz-adv-x="2136" 
d="M702 1384q324 0 482 -235v211h884v-119h-757v-477h712v-119h-712v-526h757v-119h-884v215q-162 -240 -492 -240q-281 0 -448.5 195t-167.5 510q0 206 78 366t221 249t327 89zM1202 680q0 276 -138.5 430t-356.5 154q-106 0 -196.5 -38.5t-158 -111t-105.5 -184
t-38 -250.5t38 -250.5t105.5 -184t158 -111t196.5 -38.5q218 0 356.5 154t138.5 430z" />
    <glyph glyph-name="oe" unicode="&#x153;" horiz-adv-x="1845" 
d="M63 498q0 131 38.5 233.5t104 164t147 93t173.5 31.5q130 0 235.5 -63.5t160.5 -188.5q57 120 163 186t242 66q220 0 344 -152t113 -395h-807q0 -179 98.5 -285t257.5 -106q121 0 204 59t114 166l123 -16q-39 -152 -160 -234t-293 -82q-146 0 -247.5 63.5t-153.5 180.5
q-38 -82 -100.5 -137.5t-136 -81t-157.5 -25.5q-92 0 -173.5 31.5t-147 93.5t-104 164.5t-38.5 233.5zM188 498q0 -204 94.5 -311t243.5 -107t243.5 107t94.5 311q0 203 -94.5 310t-243.5 107t-243.5 -107t-94.5 -310zM1323 918q-139 0 -235 -91.5t-109 -251.5h676
q0 139 -89.5 241t-242.5 102z" />
    <glyph glyph-name="Racute" unicode="&#x154;" horiz-adv-x="1202" 
d="M991 0l-307 592q-86 -4 -135 -4h-258v-588h-127v1360h385q89 0 157 -6t135 -20.5t114 -42t84 -69t55 -102t18 -139.5q0 -161 -76 -248.5t-219 -120.5l316 -612h-142zM565 1241h-274v-534h274q64 0 110.5 3t97 12.5t85 28t64 47.5t43.5 74t14 105q0 51 -11.5 91.5
t-30.5 68t-50 47t-63 30.5t-78 17t-86 8t-95 2zM844 1645l-291 -215h-123l209 215h205z" />
    <glyph glyph-name="racute" unicode="&#x155;" horiz-adv-x="593" 
d="M573 1010v-127q-18 2 -53 2q-62 0 -108 -18t-75 -49t-46.5 -79t-24 -101t-6.5 -122v-516h-117v1004h113v-173q33 88 110 134.5t173 46.5q22 0 34 -2zM539 1360l-248 -242h-105l172 242h181z" />
    <glyph glyph-name="Rcommaaccent" unicode="&#x156;" horiz-adv-x="1202" 
d="M991 0l-307 592q-86 -4 -135 -4h-258v-588h-127v1360h385q89 0 157 -6t135 -20.5t114 -42t84 -69t55 -102t18 -139.5q0 -161 -76 -248.5t-219 -120.5l316 -612h-142zM565 1241h-274v-534h274q64 0 110.5 3t97 12.5t85 28t64 47.5t43.5 74t14 105q0 51 -11.5 91.5
t-30.5 68t-50 47t-63 30.5t-78 17t-86 8t-95 2zM549 -238v170h160v-182l-84 -170h-82l73 182h-67z" />
    <glyph glyph-name="rcommaaccent" unicode="&#x157;" horiz-adv-x="593" 
d="M573 1010v-127q-18 2 -53 2q-62 0 -108 -18t-75 -49t-46.5 -79t-24 -101t-6.5 -122v-516h-117v1004h113v-173q33 88 110 134.5t173 46.5q22 0 34 -2zM125 -238v170h160v-182l-84 -170h-82l74 182h-68z" />
    <glyph glyph-name="Rcaron" unicode="&#x158;" horiz-adv-x="1202" 
d="M991 0l-307 592q-86 -4 -135 -4h-258v-588h-127v1360h385q89 0 157 -6t135 -20.5t114 -42t84 -69t55 -102t18 -139.5q0 -161 -76 -248.5t-219 -120.5l316 -612h-142zM565 1241h-274v-534h274q64 0 110.5 3t97 12.5t85 28t64 47.5t43.5 74t14 105q0 51 -11.5 91.5
t-30.5 68t-50 47t-63 30.5t-78 17t-86 8t-95 2zM473 1430l-250 215h142l190 -127l193 127h141l-256 -215h-160z" />
    <glyph glyph-name="rcaron" unicode="&#x159;" horiz-adv-x="593" 
d="M573 1010v-127q-18 2 -53 2q-62 0 -108 -18t-75 -49t-46.5 -79t-24 -101t-6.5 -122v-516h-117v1004h113v-173q33 88 110 134.5t173 46.5q22 0 34 -2zM291 1118l-236 242h121l184 -146l187 146h121l-242 -242h-135z" />
    <glyph glyph-name="Sacute" unicode="&#x15a;" horiz-adv-x="1157" 
d="M88 1024q0 92 43 163.5t114 113t153 62.5t169 21q203 0 340 -96t174 -258l-133 -14q-35 120 -136 184t-257 64q-57 0 -111.5 -12t-106.5 -37t-84 -73t-32 -112q0 -179 264 -237l164 -37q51 -11 89.5 -21.5t90 -28.5t88.5 -37.5t76.5 -49t64 -64t40.5 -81.5t16 -101
q0 -96 -41.5 -173t-113 -125.5t-162.5 -74t-193 -25.5q-125 0 -228.5 34t-172.5 93.5t-110.5 135.5t-53.5 163l133 15q34 -161 144.5 -240.5t281.5 -79.5q50 0 98.5 6.5t101 24.5t91.5 45.5t64.5 74t25.5 105.5q0 49 -19.5 89.5t-51 69.5t-79 53t-96 39.5t-110.5 29.5
l-172 39q-59 13 -108 30.5t-98 46.5t-82 65.5t-54 90.5t-21 119zM877 1645l-291 -215h-123l209 215h205z" />
    <glyph glyph-name="sacute" unicode="&#x15b;" horiz-adv-x="974" 
d="M862 743l-123 -16q-25 88 -96 138t-178 50q-41 0 -82 -8t-81 -25t-64.5 -50.5t-24.5 -77.5q0 -134 184 -168l144 -27q59 -11 101.5 -22t92 -32.5t80 -49t51.5 -72t21 -100.5q0 -146 -115.5 -227t-288.5 -81q-162 0 -272.5 83.5t-134.5 238.5l123 16q22 -112 99 -172.5
t196 -60.5q46 0 91 10t87.5 30.5t69 57.5t26.5 86q0 35 -13 62.5t-33 46t-54 33t-66.5 23t-79.5 17.5l-160 31q-121 24 -195.5 89.5t-74.5 178.5q0 122 108 198.5t281 76.5q156 0 256 -79.5t125 -197.5zM729 1360l-248 -242h-104l172 242h180z" />
    <glyph glyph-name="Scircumflex" unicode="&#x15c;" horiz-adv-x="1157" 
d="M88 1024q0 92 43 163.5t114 113t153 62.5t169 21q203 0 340 -96t174 -258l-133 -14q-35 120 -136 184t-257 64q-57 0 -111.5 -12t-106.5 -37t-84 -73t-32 -112q0 -179 264 -237l164 -37q51 -11 89.5 -21.5t90 -28.5t88.5 -37.5t76.5 -49t64 -64t40.5 -81.5t16 -101
q0 -96 -41.5 -173t-113 -125.5t-162.5 -74t-193 -25.5q-125 0 -228.5 34t-172.5 93.5t-110.5 135.5t-53.5 163l133 15q34 -161 144.5 -240.5t281.5 -79.5q50 0 98.5 6.5t101 24.5t91.5 45.5t64.5 74t25.5 105.5q0 49 -19.5 89.5t-51 69.5t-79 53t-96 39.5t-110.5 29.5
l-172 39q-59 13 -108 30.5t-98 46.5t-82 65.5t-54 90.5t-21 119zM657 1645l250 -215h-141l-191 126l-192 -126h-141l256 215h159z" />
    <glyph glyph-name="scircumflex" unicode="&#x15d;" horiz-adv-x="974" 
d="M862 743l-123 -16q-25 88 -96 138t-178 50q-41 0 -82 -8t-81 -25t-64.5 -50.5t-24.5 -77.5q0 -134 184 -168l144 -27q59 -11 101.5 -22t92 -32.5t80 -49t51.5 -72t21 -100.5q0 -146 -115.5 -227t-288.5 -81q-162 0 -272.5 83.5t-134.5 238.5l123 16q22 -112 99 -172.5
t196 -60.5q46 0 91 10t87.5 30.5t69 57.5t26.5 86q0 35 -13 62.5t-33 46t-54 33t-66.5 23t-79.5 17.5l-160 31q-121 24 -195.5 89.5t-74.5 178.5q0 122 108 198.5t281 76.5q156 0 256 -79.5t125 -197.5zM549 1360l235 -242h-120l-185 146l-186 -146h-121l242 242h135z" />
    <glyph glyph-name="Scedilla" unicode="&#x15e;" horiz-adv-x="1157" 
d="M406 -344l26 76q46 -17 92 -17q47 0 78 14.5t31 45.5q0 28 -23 42.5t-59 14.5q-47 0 -74 -16l-39 28l84 136q-211 21 -335.5 137.5t-147.5 283.5l133 15q34 -161 144.5 -240.5t281.5 -79.5q50 0 98.5 6.5t101 24.5t91.5 45.5t64.5 74t25.5 105.5q0 49 -19.5 89.5
t-51 69.5t-79 53t-96 39.5t-110.5 29.5l-172 39q-59 13 -108 30.5t-98 46.5t-82 65.5t-54 90.5t-21 119q0 92 43 163.5t114 113t153 62.5t169 21q203 0 340 -96t174 -258l-133 -14q-35 120 -136 184t-257 64q-57 0 -111.5 -12t-106.5 -37t-84 -73t-32 -112q0 -179 264 -237
l164 -37q51 -11 89.5 -21.5t90 -28.5t88.5 -37.5t76.5 -49t64 -64t40.5 -81.5t16 -101q0 -96 -41.5 -173t-113 -125.5t-162.5 -74t-193 -25.5h-6l-41 -67q23 4 49 4q57 0 95 -34.5t38 -92.5q0 -71 -57 -109t-137 -38q-79 0 -139 18z" />
    <glyph glyph-name="scedilla" unicode="&#x15f;" horiz-adv-x="974" 
d="M307 -344l27 76q46 -17 92 -17q47 0 78 14.5t31 45.5q0 28 -23 42.5t-59 14.5q-47 0 -74 -16l-39 28l82 136q-139 14 -232 96t-114 221l123 16q22 -112 99 -172.5t196 -60.5q46 0 91 10t87.5 30.5t69 57.5t26.5 86q0 35 -13 62.5t-33 46t-54 33t-66.5 23t-79.5 17.5
l-160 31q-121 24 -195.5 89.5t-74.5 178.5q0 122 108 198.5t281 76.5q156 0 256 -79.5t125 -197.5l-123 -16q-25 88 -96 138t-178 50q-41 0 -82 -8t-81 -25t-64.5 -50.5t-24.5 -77.5q0 -134 184 -168l144 -27q59 -11 101.5 -22t92 -32.5t80 -49t51.5 -72t21 -100.5
q0 -143 -110 -223t-277 -85l-41 -67q23 4 49 4q57 0 95 -34.5t38 -92.5q0 -71 -57.5 -109t-137.5 -38q-79 0 -139 18z" />
    <glyph glyph-name="Scaron" unicode="&#x160;" horiz-adv-x="1157" 
d="M88 1024q0 92 43 163.5t114 113t153 62.5t169 21q203 0 340 -96t174 -258l-133 -14q-35 120 -136 184t-257 64q-57 0 -111.5 -12t-106.5 -37t-84 -73t-32 -112q0 -179 264 -237l164 -37q51 -11 89.5 -21.5t90 -28.5t88.5 -37.5t76.5 -49t64 -64t40.5 -81.5t16 -101
q0 -96 -41.5 -173t-113 -125.5t-162.5 -74t-193 -25.5q-125 0 -228.5 34t-172.5 93.5t-110.5 135.5t-53.5 163l133 15q34 -161 144.5 -240.5t281.5 -79.5q50 0 98.5 6.5t101 24.5t91.5 45.5t64.5 74t25.5 105.5q0 49 -19.5 89.5t-51 69.5t-79 53t-96 39.5t-110.5 29.5
l-172 39q-59 13 -108 30.5t-98 46.5t-82 65.5t-54 90.5t-21 119zM487 1430l-249 215h141l190 -127l193 127h141l-256 -215h-160z" />
    <glyph glyph-name="scaron" unicode="&#x161;" horiz-adv-x="974" 
d="M862 743l-123 -16q-25 88 -96 138t-178 50q-41 0 -82 -8t-81 -25t-64.5 -50.5t-24.5 -77.5q0 -134 184 -168l144 -27q59 -11 101.5 -22t92 -32.5t80 -49t51.5 -72t21 -100.5q0 -146 -115.5 -227t-288.5 -81q-162 0 -272.5 83.5t-134.5 238.5l123 16q22 -112 99 -172.5
t196 -60.5q46 0 91 10t87.5 30.5t69 57.5t26.5 86q0 35 -13 62.5t-33 46t-54 33t-66.5 23t-79.5 17.5l-160 31q-121 24 -195.5 89.5t-74.5 178.5q0 122 108 198.5t281 76.5q156 0 256 -79.5t125 -197.5zM426 1118l-236 242h121l185 -146l186 146h121l-242 -242h-135z" />
    <glyph glyph-name="Tcommaaccent" unicode="&#x162;" horiz-adv-x="1056" 
d="M465 0v1241h-465v119h1057v-119h-465v-1241h-23l-57 -92q23 4 49 4q57 0 95 -34.5t38 -92.5q0 -71 -57 -109t-137 -38t-140 18l27 76q46 -17 92 -17q47 0 78 14.5t31 45.5q0 28 -23 42.5t-59 14.5q-47 0 -74 -16l-39 28l96 156h-24z" />
    <glyph glyph-name="tcommaaccent" unicode="&#x163;" horiz-adv-x="573" 
d="M184 -344l27 76q46 -17 92 -17q47 0 78 14.5t31 45.5q0 28 -23 42.5t-59 14.5q-47 0 -74 -16l-39 28l100 162q-74 12 -100.5 63.5t-26.5 174.5v657h-170v103h170v249h119v-249h203v-103h-203v-635q0 -39 1 -58.5t5.5 -41.5t13 -30.5t25 -17t39 -10.5t58.5 -2h61v-106h-98
h-21l-57 -92q23 4 49 4q57 0 95 -34.5t38 -92.5q0 -71 -57 -109t-137 -38t-140 18z" />
    <glyph glyph-name="Tcaron" unicode="&#x164;" horiz-adv-x="1056" 
d="M465 0v1241h-465v119h1057v-119h-465v-1241h-127zM444 1430l-249 215h141l190 -127l193 127h141l-256 -215h-160z" />
    <glyph glyph-name="tcaron" unicode="&#x165;" horiz-adv-x="581" 
d="M664 1360l-134 -324h-69l57 324h146zM190 1004v249h119v-249h203v-103h-203v-635q0 -39 1 -58.5t5.5 -41.5t13 -30.5t25 -17t39 -10.5t58.5 -2h61v-106h-98q-71 0 -112 9t-67.5 37t-35.5 73.5t-9 124.5v657h-170v103h170z" />
    <glyph glyph-name="Tbar" unicode="&#x166;" horiz-adv-x="1056" 
d="M465 0v645h-287v119h287v477h-465v119h1057v-119h-465v-477h287v-119h-287v-645h-127z" />
    <glyph glyph-name="tbar" unicode="&#x167;" horiz-adv-x="573" 
d="M190 1004v249h119v-249h203v-103h-203v-205h203v-102h-203v-328q0 -39 1 -58.5t5.5 -41.5t13 -30.5t25 -17t39 -10.5t58.5 -2h61v-106h-98q-71 0 -112 9t-67.5 37t-35.5 73.5t-9 124.5v350h-170v102h170v205h-170v103h170z" />
    <glyph glyph-name="Utilde" unicode="&#x168;" horiz-adv-x="1347" 
d="M143 1360h127v-825q0 -227 93 -333t309 -106q218 0 311.5 114.5t93.5 346.5v803h127v-787q0 -309 -122 -453.5t-410 -144.5q-284 0 -406.5 132t-122.5 450v803zM799 1546q75 0 94 86h104q-17 -89 -67 -139.5t-123 -50.5q-45 0 -92.5 22t-87.5 44t-66 22q-70 0 -92 -88
h-102q12 90 66 140t126 50q44 0 89.5 -21.5t84.5 -43t66 -21.5z" />
    <glyph glyph-name="utilde" unicode="&#x169;" horiz-adv-x="1042" 
d="M780 0v164q-100 -189 -327 -189q-159 0 -244 91q-86 96 -86 309v629h119v-605q0 -181 61 -254q56 -67 168 -67q133 0 221 101t88 263v562h119v-1004h-119zM637 1245q75 0 94 86h105q-17 -89 -67.5 -139.5t-123.5 -50.5q-45 0 -92.5 22t-87.5 44t-66 22q-70 0 -92 -88
h-102q12 90 66 140t126 50q44 0 89.5 -21.5t84.5 -43t66 -21.5z" />
    <glyph glyph-name="Umacron" unicode="&#x16a;" horiz-adv-x="1347" 
d="M143 1360h127v-825q0 -227 93 -333t309 -106q218 0 311.5 114.5t93.5 346.5v803h127v-787q0 -309 -122 -453.5t-410 -144.5q-284 0 -406.5 132t-122.5 450v803zM956 1485h-571v119h571v-119z" />
    <glyph glyph-name="umacron" unicode="&#x16b;" horiz-adv-x="1042" 
d="M780 0v164q-100 -189 -327 -189q-159 0 -244 91q-86 96 -86 309v629h119v-605q0 -181 61 -254q56 -67 168 -67q133 0 221 101t88 263v562h119v-1004h-119zM784 1190h-528v102h528v-102z" />
    <glyph glyph-name="Ubreve" unicode="&#x16c;" horiz-adv-x="1347" 
d="M143 1360h127v-825q0 -227 93 -333t309 -106q218 0 311.5 114.5t93.5 346.5v803h127v-787q0 -309 -122 -453.5t-410 -144.5q-284 0 -406.5 132t-122.5 450v803zM848 1645h113q-9 -100 -89 -163t-208 -63q-124 0 -203 63t-88 163h112q7 -65 57.5 -98.5t123.5 -33.5
q72 0 122.5 34t59.5 98z" />
    <glyph glyph-name="ubreve" unicode="&#x16d;" horiz-adv-x="1042" 
d="M780 0v164q-100 -189 -327 -189q-159 0 -244 91q-86 96 -86 309v629h119v-605q0 -181 61 -254q56 -67 168 -67q133 0 221 101t88 263v562h119v-1004h-119zM797 1360q-11 -113 -84 -180.5t-201 -67.5q-124 0 -197 68t-82 180h107q6 -71 50 -114.5t124 -43.5t125 43.5
t51 114.5h107z" />
    <glyph glyph-name="Uring" unicode="&#x16e;" horiz-adv-x="1347" 
d="M143 1360h127v-825q0 -227 93 -333t309 -106q218 0 311.5 114.5t93.5 346.5v803h127v-787q0 -309 -122 -453.5t-410 -144.5q-284 0 -406.5 132t-122.5 450v803zM674 1735q72 0 122 -46t50 -116t-49.5 -116t-122.5 -46t-122.5 46t-49.5 116t50 116t122 46zM674 1655
q-33 0 -57.5 -23.5t-24.5 -58.5q0 -34 24.5 -57t57.5 -23t57.5 23t24.5 57q0 35 -24.5 58.5t-57.5 23.5z" />
    <glyph glyph-name="uring" unicode="&#x16f;" horiz-adv-x="1042" 
d="M780 0v164q-100 -189 -327 -189q-159 0 -244 91q-86 96 -86 309v629h119v-605q0 -181 61 -254q56 -67 168 -67q133 0 221 101t88 263v562h119v-1004h-119zM512 1425q72 0 122 -46t50 -115q0 -70 -49.5 -116t-122.5 -46t-122.5 46t-49.5 116q0 69 50 115t122 46zM512 1350
q-34 0 -60 -25t-26 -61t25.5 -60t60.5 -24t60.5 24t25.5 60t-26 61t-60 25z" />
    <glyph glyph-name="Uhungarumlaut" unicode="&#x170;" horiz-adv-x="1347" 
d="M143 1360h127v-825q0 -227 93 -333t309 -106q218 0 311.5 114.5t93.5 346.5v803h127v-787q0 -309 -122 -453.5t-410 -144.5q-284 0 -406.5 132t-122.5 450v803zM829 1645l-290 -215h-123l209 215h204zM1141 1645l-291 -215h-123l209 215h205z" />
    <glyph glyph-name="uhungarumlaut" unicode="&#x171;" horiz-adv-x="1042" 
d="M780 0v164q-100 -189 -327 -189q-159 0 -244 91q-86 96 -86 309v629h119v-605q0 -181 61 -254q56 -67 168 -67q133 0 221 101t88 263v562h119v-1004h-119zM606 1360l-248 -242h-104l172 242h180zM924 1360l-248 -242h-105l172 242h181z" />
    <glyph glyph-name="Uogonek" unicode="&#x172;" horiz-adv-x="1347" 
d="M143 1360h127v-825q0 -227 93 -333t309 -106q218 0 311.5 114.5t93.5 346.5v803h127v-787q0 -291 -108 -435t-359 -161q-125 -63 -125 -133q0 -77 101 -77q33 0 69 8v-92q-50 -15 -102 -15q-85 0 -143 39.5t-58 114.5q0 49 34.5 89t90.5 66q-246 14 -353.5 147.5
t-107.5 432.5v803z" />
    <glyph glyph-name="uogonek" unicode="&#x173;" horiz-adv-x="1042" 
d="M780 0v164q-100 -189 -327 -189q-159 0 -244 91q-86 96 -86 309v629h119v-605q0 -181 61 -254q56 -67 168 -67q133 0 221 101t88 263v562h119v-1004q-174 -75 -174 -156q0 -35 27.5 -56t81.5 -21q33 0 69 8v-92q-49 -15 -102 -15q-85 0 -143 39.5t-58 114.5
q0 59 53 106.5t127 71.5z" />
    <glyph glyph-name="Wcircumflex" unicode="&#x174;" horiz-adv-x="1728" 
d="M936 1360l311 -1192l344 1192h138l-414 -1360h-146l-305 1137l-303 -1137h-145l-416 1360h141l353 -1192l301 1192h141zM944 1645l250 -215h-141l-191 126l-192 -126h-142l256 215h160z" />
    <glyph glyph-name="wcircumflex" unicode="&#x175;" horiz-adv-x="1341" 
d="M610 1004l-252 -818l-227 818h-131l297 -1004h109l260 840l268 -840h110l297 1004h-131l-219 -820l-262 820h-119zM731 1360l236 -242h-121l-184 146l-187 -146h-121l242 242h135z" />
    <glyph glyph-name="Ycircumflex" unicode="&#x176;" horiz-adv-x="1091" 
d="M-20 1360h143l414 -731l428 731h147l-516 -862v-498h-127v502zM618 1645l250 -215h-141l-190 126l-193 -126h-141l256 215h159z" />
    <glyph glyph-name="ycircumflex" unicode="&#x177;" horiz-adv-x="886" 
d="M94 -354h66q93 0 146 23t86.5 73t74.5 156l420 1106h-127l-309 -840l-318 840h-133l391 -1004l-31 -82q-38 -103 -80 -135.5t-118 -32.5h-68v-104zM510 1360l235 -242h-120l-185 146l-186 -146h-121l242 242h135z" />
    <glyph glyph-name="Ydieresis" unicode="&#x178;" horiz-adv-x="1091" 
d="M-20 1360h143l414 -731l428 731h147l-516 -862v-498h-127v502zM287 1630h127v-188h-127v188zM659 1630h127v-188h-127v188z" />
    <glyph glyph-name="Zacute" unicode="&#x179;" horiz-adv-x="1175" 
d="M1102 1360v-115l-877 -1126h895v-119h-1048v115l876 1126h-809v119h963zM889 1645l-291 -215h-123l209 215h205z" />
    <glyph glyph-name="zacute" unicode="&#x17a;" horiz-adv-x="985" 
d="M61 102v-102h781v102h-641l630 799v103h-729v-103h590zM719 1360l-248 -242h-104l172 242h180z" />
    <glyph glyph-name="Zdotaccent" unicode="&#x17b;" horiz-adv-x="1175" 
d="M1102 1360v-115l-877 -1126h895v-119h-1048v115l876 1126h-809v119h963zM557 1630h127v-188h-127v188z" />
    <glyph glyph-name="zdotaccent" unicode="&#x17c;" horiz-adv-x="985" 
d="M61 102v-102h781v102h-641l630 799v103h-729v-103h590zM403 1333h119v-188h-119v188z" />
    <glyph glyph-name="Zcaron" unicode="&#x17d;" horiz-adv-x="1175" 
d="M1102 1360v-115l-877 -1126h895v-119h-1048v115l876 1126h-809v119h963zM541 1430l-250 215h141l191 -127l192 127h141l-256 -215h-159z" />
    <glyph glyph-name="zcaron" unicode="&#x17e;" horiz-adv-x="985" 
d="M61 102v-102h781v102h-641l630 799v103h-729v-103h590zM414 1118l-236 242h121l184 -146l187 146h121l-242 -242h-135z" />
    <glyph glyph-name="uni0186" unicode="&#x186;" horiz-adv-x="1335" 
d="M203 963l-131 22q63 178 209 288.5t368 110.5q194 0 333 -89.5t208.5 -247.5t69.5 -367q0 -322 -163.5 -513.5t-453.5 -191.5q-218 0 -367.5 112t-195.5 306l131 23q26 -108 96 -182.5t156 -106t184 -31.5q217 0 348 152.5t131 431.5q0 271 -131.5 427.5t-347.5 156.5
q-347 0 -444 -301z" />
    <glyph glyph-name="uni018F" unicode="&#x18f;" horiz-adv-x="1400" 
d="M78 690h1114q-3 270 -142.5 422t-353.5 152q-160 0 -278.5 -65t-173.5 -200l-125 48q65 163 219.5 250t359.5 87q287 0 457 -188.5t170 -515.5q0 -326 -173 -515.5t-458 -189.5q-293 0 -460 194.5t-156 520.5zM696 96q196 0 330 126.5t160 355.5h-963q4 -115 42.5 -207.5
t102.5 -152t148 -91t180 -31.5z" />
    <glyph glyph-name="uni0190" unicode="&#x190;" horiz-adv-x="1120" 
d="M1026 119v-119h-463q-104 0 -188 21.5t-150 66.5t-102.5 122t-36.5 181q0 254 238 322q-91 44 -136 130t-45 191q0 326 463 326h406v-119h-434q-304 0 -304 -233q0 -134 79.5 -190t228.5 -56h399v-115h-414q-180 0 -264 -60.5t-84 -197.5q0 -270 336 -270h471z" />
    <glyph glyph-name="uni019D" unicode="&#x19d;" horiz-adv-x="1394" 
d="M0 -354v118h23q93 0 117 25.5t24 126.5v1444h184l756 -1225v1225h127v-1360h-184l-756 1223v-1305q0 -156 -47 -214t-181 -58h-63z" />
    <glyph glyph-name="uni019F" unicode="&#x19f;" horiz-adv-x="1423" 
d="M1341 680q0 -326 -172.5 -515.5t-457.5 -189.5q-192 0 -335.5 89.5t-218.5 248.5t-75 367q0 313 175 508.5t458 195.5q286 0 456 -189t170 -515zM713 96q208 0 344.5 141.5t148.5 395.5h-991q7 -128 48 -230.5t107.5 -169t154 -102t188.5 -35.5zM713 1264
q-203 0 -339.5 -134.5t-156.5 -377.5h989q-20 243 -155.5 377.5t-337.5 134.5z" />
    <glyph glyph-name="Ohorn" unicode="&#x1a0;" horiz-adv-x="1415" 
d="M1339 680q0 -328 -173 -516.5t-459 -188.5q-193 0 -336.5 88.5t-219 248t-75.5 368.5q0 315 175.5 509.5t459.5 194.5q213 0 381 -114q71 -49 131 -49q38 0 61 24t23 68q0 52 -41 104l110 41q47 -71 47 -147q0 -91 -50.5 -143.5t-143.5 -53.5q110 -178 110 -434z
M1204 680q0 277 -137.5 430.5t-357.5 153.5q-221 0 -359.5 -154t-138.5 -430t138.5 -430t359.5 -154q220 0 357.5 153.5t137.5 430.5z" />
    <glyph glyph-name="ohorn" unicode="&#x1a1;" horiz-adv-x="1052" 
d="M63 498q0 131 38.5 233.5t104 164t147 93t173.5 31.5q118 0 224 -53q76 -37 124 -37q42 0 65.5 23.5t23.5 62.5q0 46 -27 98l94 35q39 -66 39 -137q0 -78 -45 -123.5t-127 -57.5q92 -132 92 -333q0 -131 -38.5 -233.5t-104 -164.5t-147 -93.5t-173.5 -31.5t-173.5 31.5
t-147 93.5t-104 164.5t-38.5 233.5zM188 498q0 -204 94.5 -311t243.5 -107t243.5 107t94.5 311q0 203 -94.5 310t-243.5 107t-243.5 -107t-94.5 -310z" />
    <glyph glyph-name="Uhorn" unicode="&#x1af;" horiz-adv-x="1347" 
d="M143 1360h127v-825q0 -227 93 -333t309 -106q218 0 311.5 114.5t93.5 346.5v803h86q51 0 77 25t26 67q0 56 -35 100l106 45q5 -6 13 -17.5t21 -50.5t13 -83q0 -89 -53.5 -135t-126.5 -49v-689q0 -309 -122 -453.5t-410 -144.5q-284 0 -406.5 132t-122.5 450v803z" />
    <glyph glyph-name="uhorn" unicode="&#x1b0;" horiz-adv-x="1042" 
d="M780 0v164q-100 -189 -327 -189q-159 0 -244 91q-86 96 -86 309v629h119v-605q0 -181 61 -254q56 -67 168 -67q133 0 221 101t88 263v562h60q44 0 68 26t24 66q0 56 -35 100l107 45q5 -6 13 -17.5t21 -50.5t13 -83q0 -80 -44 -125.5t-108 -57.5v-907h-119z" />
    <glyph glyph-name="uni01C4" unicode="&#x1c4;" horiz-adv-x="2451" 
d="M1092 680q0 83 -12.5 153.5t-34 123t-55 95.5t-69.5 72t-84 51t-93 34t-101 19.5t-103.5 10t-105.5 2.5h-143v-1122h143q58 0 105.5 2.5t103.5 10t101 19.5t93 34t84 51t69.5 72t55 95.5t34 123t12.5 153.5zM164 1360h274q138 0 251 -19.5t215 -67.5t172 -124t110.5 -195
t40.5 -274t-40.5 -274t-110.5 -195t-172 -124t-215 -67.5t-251 -19.5h-274v1360zM2378 1360v-115l-877 -1126h895v-119h-1048v115l876 1126h-809v119h963zM1835 1430l-250 215h141l191 -127l192 127h142l-256 -215h-160z" />
    <glyph glyph-name="uni01C5" unicode="&#x1c5;" horiz-adv-x="2209" 
d="M1092 680q0 83 -12.5 153.5t-34 123t-55 95.5t-69.5 72t-84 51t-93 34t-101 19.5t-103.5 10t-105.5 2.5h-143v-1122h143q58 0 105.5 2.5t103.5 10t101 19.5t93 34t84 51t69.5 72t55 95.5t34 123t12.5 153.5zM164 1360h274q138 0 251 -19.5t215 -67.5t172 -124t110.5 -195
t40.5 -274t-40.5 -274t-110.5 -195t-172 -124t-215 -67.5t-251 -19.5h-274v1360zM1368 102v-102h780v102h-641l631 799v103h-729v-103h590zM1712 1118l-235 242h120l185 -146l186 146h121l-242 -242h-135z" />
    <glyph glyph-name="uni01C6" unicode="&#x1c6;" horiz-adv-x="1990" 
d="M944 1360v-1360h-117l-2 160q-108 -185 -346 -185q-182 0 -299 141.5t-117 383.5q0 240 122.5 380t314.5 140q103 0 191.5 -45.5t133.5 -132.5v518h119zM504 80q61 0 118 25.5t105 74.5t77.5 132t29.5 188t-28 187t-75.5 130.5t-105 73t-121.5 24.5q-143 0 -229.5 -111
t-86.5 -304q0 -195 86 -307.5t230 -112.5zM1149 0v102l631 799h-590v103h729v-103l-631 -799h641v-102h-780zM1493 1118l-236 242h121l185 -146l186 146h121l-242 -242h-135z" />
    <glyph glyph-name="uni01C7" unicode="&#x1c7;" horiz-adv-x="1558" 
d="M291 1360v-1241h731v-119h-858v1360h127zM1083 0v119h17q27 0 45.5 0.5t36.5 3.5t28.5 4.5t21 10.5t15.5 13.5t10 20.5t6.5 25.5t3 34.5t1.5 40.5v51.5v1036h127v-1043q0 -104 -9 -162t-39 -95t-77 -48.5t-131 -11.5h-56z" />
    <glyph glyph-name="uni01C8" unicode="&#x1c8;" horiz-adv-x="1427" 
d="M291 1360v-1241h731v-119h-858v1360h127zM1165 -84v1088h119v-1090q0 -82 -8 -129.5t-31.5 -80.5t-65 -45.5t-110.5 -12.5h-63v108h22q33 0 54.5 2t37.5 10t24.5 18t13.5 30.5t6 42t1 59.5zM1165 1360h119v-189h-119v189z" />
    <glyph glyph-name="uni01C9" unicode="&#x1c9;" horiz-adv-x="811" 
d="M262 1360v-1360h-119v1360h119zM549 -84v1088h119v-1090q0 -82 -8 -129.5t-31.5 -80.5t-65 -45.5t-110.5 -12.5h-64v108h23q33 0 54.5 2t37.5 10t24.5 18t13.5 30.5t6 42t1 59.5zM549 1360h119v-189h-119v189z" />
    <glyph glyph-name="uni01CA" unicode="&#x1ca;" horiz-adv-x="1931" 
d="M1231 0h-184l-756 1223v-1223h-127v1360h184l756 -1225v1225h127v-1360zM1456 0v119h17q27 0 45.5 0.5t36 3.5t28.5 4.5t21 10t15.5 13t10 20.5t6 25t3 34t1.5 40.5v50.5v3v1036h127v-1043q0 -104 -9 -162t-39 -95t-77 -48.5t-131 -11.5h-55z" />
    <glyph glyph-name="uni01CB" unicode="&#x1cb;" horiz-adv-x="1800" 
d="M1231 0h-184l-756 1223v-1223h-127v1360h184l756 -1225v1225h127v-1360zM1538 -84v1088h119v-1090q0 -82 -8 -129.5t-31.5 -80.5t-65 -45.5t-110.5 -12.5h-64v108h23q93 0 115 28.5t22 133.5zM1538 1360h119v-189h-119v189z" />
    <glyph glyph-name="uni01CC" unicode="&#x1cc;" horiz-adv-x="1464" 
d="M262 1004v-173q98 189 340 189q179 0 266 -107q78 -97 78 -288v-625h-119v594q0 167 -57 242q-60 79 -199 79q-133 0 -221 -101.5t-88 -262.5v-551h-119v1004h119zM1202 -84v1088h119v-1090q0 -82 -8 -129.5t-31.5 -80.5t-65 -45.5t-110.5 -12.5h-64v108h23
q93 0 115 28.5t22 133.5zM1202 1360h119v-189h-119v189z" />
    <glyph glyph-name="uni01F1" unicode="&#x1f1;" horiz-adv-x="2375" 
d="M1092 680q0 83 -12.5 153.5t-34 123t-55 95.5t-69.5 72t-84 51t-93 34t-101 19.5t-103.5 10t-105.5 2.5h-143v-1122h143q58 0 105.5 2.5t103.5 10t101 19.5t93 34t84 51t69.5 72t55 95.5t34 123t12.5 153.5zM164 1360h274q138 0 251 -19.5t215 -67.5t172 -124t110.5 -195
t40.5 -274t-40.5 -274t-110.5 -195t-172 -124t-215 -67.5t-251 -19.5h-274v1360zM2302 1360v-115l-877 -1126h895v-119h-1048v115l876 1126h-809v119h963z" />
    <glyph glyph-name="uni01F2" unicode="&#x1f2;" horiz-adv-x="2287" 
d="M1092 680q0 83 -12.5 153.5t-34 123t-55 95.5t-69.5 72t-84 51t-93 34t-101 19.5t-103.5 10t-105.5 2.5h-143v-1122h143q58 0 105.5 2.5t103.5 10t101 19.5t93 34t84 51t69.5 72t55 95.5t34 123t12.5 153.5zM164 1360h274q138 0 251 -19.5t215 -67.5t172 -124t110.5 -195
t40.5 -274t-40.5 -274t-110.5 -195t-172 -124t-215 -67.5t-251 -19.5h-274v1360zM1364 102v-102h780v102h-641l631 799v103h-729v-103h590z" />
    <glyph glyph-name="uni01F3" unicode="&#x1f3;" horiz-adv-x="2072" 
d="M944 1360v-1360h-117l-2 160q-108 -185 -346 -185q-182 0 -299 141.5t-117 383.5q0 240 122.5 380t314.5 140q103 0 191.5 -45.5t133.5 -132.5v518h119zM504 80q61 0 118 25.5t105 74.5t77.5 132t29.5 188t-28 187t-75.5 130.5t-105 73t-121.5 24.5q-143 0 -229.5 -111
t-86.5 -304q0 -195 86 -307.5t230 -112.5zM1149 0v102l631 799h-590v103h729v-103l-631 -799h641v-102h-780z" />
    <glyph glyph-name="Aringacute" unicode="&#x1fa;" horiz-adv-x="1193" 
d="M870 1888l-221 -164q52 -15 84.5 -56t32.5 -95q0 -70 -49.5 -116t-122.5 -46t-122.5 46t-49.5 116q0 35 15 67t67 84l162 164h204zM594 1655q-33 0 -57.5 -23.5t-24.5 -58.5q0 -34 24.5 -57t57.5 -23t57.5 23t24.5 57q0 35 -24.5 58.5t-57.5 23.5zM0 0l524 1360h144
l526 -1360h-139l-133 346h-654l-131 -346h-137zM592 1202l-279 -737h561z" />
    <glyph glyph-name="aringacute" unicode="&#x1fb;" horiz-adv-x="995" 
d="M698 1561l-170 -179q63 -9 103.5 -53t40.5 -106q0 -70 -49.5 -116t-122.5 -46t-122.5 46t-49.5 116q0 62 75 170l115 168h180zM500 1309q-34 0 -60 -25t-26 -61t25.5 -60t60.5 -24t60.5 24t25.5 60t-26 61t-60 25zM106 711l123 -4q6 95 72.5 151.5t192.5 56.5
q46 0 82 -4.5t73 -19t60.5 -39.5t39 -68t15.5 -102v-59l-201 -21q-282 -27 -385 -98q-108 -74 -108 -215q0 -136 92.5 -225t255.5 -89q137 0 219 47.5t129 133.5l8 -156h119q-12 222 -12 328q0 28 1 138t1 214q0 188 -93.5 264t-283.5 76q-175 0 -283 -82t-117 -227z
M770 461q0 -99 -26 -174.5t-72.5 -119.5t-104.5 -65.5t-127 -21.5q-110 0 -177.5 56.5t-67.5 148.5q0 100 83.5 148t272.5 67l219 22v-61z" />
    <glyph glyph-name="AEacute" unicode="&#x1fc;" horiz-adv-x="1798" 
d="M846 1360h885v-119h-758v-477h713v-119h-713v-526h758v-119h-885v346h-496l-213 -346h-137zM846 1145l-422 -680h422v680zM1561 1645l-291 -215h-123l209 215h205z" />
    <glyph glyph-name="aeacute" unicode="&#x1fd;" horiz-adv-x="1751" 
d="M111 711l122 -4q11 95 75.5 151.5t187.5 56.5q58 0 101.5 -9.5t83.5 -33.5t61.5 -73.5t21.5 -122.5v-53l-201 -21q-279 -27 -385 -102q-108 -74 -108 -211q0 -136 92.5 -225t255.5 -89q142 0 247 62.5t160 183.5q52 -117 155 -181.5t247 -64.5q172 0 293 82.5t159 233.5
l-123 16q-32 -111 -115 -168t-206 -57q-155 0 -253.5 106t-98.5 285h807q11 243 -113 395t-344 152q-120 0 -217.5 -51.5t-157.5 -145.5q-70 197 -350 197q-171 0 -277 -83.5t-120 -225.5zM440 80q-110 0 -177.5 56.5t-67.5 148.5q0 100 83.5 148t272.5 67l219 22v-61
q0 -99 -26 -174.5t-72.5 -119.5t-104.5 -65.5t-127 -21.5zM1561 575h-676q13 160 109 251.5t235 91.5q153 0 242.5 -102t89.5 -241zM1163 1360l-248 -242h-104l172 242h180z" />
    <glyph glyph-name="Oslashacute" unicode="&#x1fe;" horiz-adv-x="1411" 
d="M1323 1323l-135 -158q147 -186 147 -485q0 -326 -172.5 -515.5t-457.5 -189.5q-242 0 -408 144l-125 -146l-76 68l129 152q-149 187 -149 487q0 313 175 508.5t458 195.5q247 0 409 -143l127 148zM209 680q0 -234 104 -385l719 846q-132 123 -325 123
q-106 0 -196.5 -38.5t-158 -111t-105.5 -184t-38 -250.5zM1202 680q0 229 -102 381l-721 -844q133 -121 328 -121q218 0 356.5 154t138.5 430zM1020 1645l-291 -215h-123l209 215h205z" />
    <glyph glyph-name="oslashacute" unicode="&#x1ff;" horiz-adv-x="1052" 
d="M63 498q0 131 38.5 233.5t104 164t147 93t173.5 31.5q172 0 293 -100l88 102l78 -66l-96 -112q100 -138 100 -346q0 -131 -38.5 -233.5t-104 -164.5t-147 -93.5t-173.5 -31.5q-174 0 -295 103l-88 -103l-75 68l94 109q-99 136 -99 346zM864 498q0 153 -55 252l-504 -586
q87 -84 221 -84q149 0 243.5 107t94.5 311zM188 498q0 -150 54 -252l503 588q-87 81 -219 81q-149 0 -243.5 -107t-94.5 -310zM799 1360l-248 -242h-105l172 242h181z" />
    <glyph glyph-name="Scommaaccent" unicode="&#x218;" horiz-adv-x="1157" 
d="M88 1024q0 92 43 163.5t114 113t153 62.5t169 21q203 0 340 -96t174 -258l-133 -14q-35 120 -136 184t-257 64q-57 0 -111.5 -12t-106.5 -37t-84 -73t-32 -112q0 -179 264 -237l164 -37q51 -11 89.5 -21.5t90 -28.5t88.5 -37.5t76.5 -49t64 -64t40.5 -81.5t16 -101
q0 -96 -41.5 -173t-113 -125.5t-162.5 -74t-193 -25.5q-125 0 -228.5 34t-172.5 93.5t-110.5 135.5t-53.5 163l133 15q34 -161 144.5 -240.5t281.5 -79.5q50 0 98.5 6.5t101 24.5t91.5 45.5t64.5 74t25.5 105.5q0 49 -19.5 89.5t-51 69.5t-79 53t-96 39.5t-110.5 29.5
l-172 39q-59 13 -108 30.5t-98 46.5t-82 65.5t-54 90.5t-21 119zM530 -238v170h160v-182l-84 -170h-82l74 182h-68z" />
    <glyph glyph-name="scommaaccent" unicode="&#x219;" horiz-adv-x="974" 
d="M862 743l-123 -16q-25 88 -96 138t-178 50q-41 0 -82 -8t-81 -25t-64.5 -50.5t-24.5 -77.5q0 -134 184 -168l144 -27q59 -11 101.5 -22t92 -32.5t80 -49t51.5 -72t21 -100.5q0 -146 -115.5 -227t-288.5 -81q-162 0 -272.5 83.5t-134.5 238.5l123 16q22 -112 99 -172.5
t196 -60.5q46 0 91 10t87.5 30.5t69 57.5t26.5 86q0 35 -13 62.5t-33 46t-54 33t-66.5 23t-79.5 17.5l-160 31q-121 24 -195.5 89.5t-74.5 178.5q0 122 108 198.5t281 76.5q156 0 256 -79.5t125 -197.5zM408 -238v170h159v-182l-84 -170h-82l74 182h-67z" />
    <glyph glyph-name="uni021A" unicode="&#x21a;" horiz-adv-x="1056" 
d="M465 0v1241h-465v119h1057v-119h-465v-1241h-127zM449 -238v170h159v-182l-84 -170h-82l74 182h-67z" />
    <glyph glyph-name="uni021B" unicode="&#x21b;" horiz-adv-x="573" 
d="M190 1004v249h119v-249h203v-103h-203v-635q0 -39 1 -58.5t5.5 -41.5t13 -30.5t25 -17t39 -10.5t58.5 -2h61v-106h-98q-71 0 -112 9t-67.5 37t-35.5 73.5t-9 124.5v657h-170v103h170zM201 -238v170h159v-182l-84 -170h-81l73 182h-67z" />
    <glyph glyph-name="uni021C" unicode="&#x21c;" horiz-adv-x="1069" 
d="M-4 -369v129q157 4 285 21t239 52t186 87.5t117.5 130t42.5 176.5q0 130 -88.5 214.5t-249.5 84.5q-66 0 -135 -14l-20 111q85 23 145 43.5t122 51.5t99.5 66.5t61.5 86.5t24 114q0 120 -87.5 199.5t-233.5 79.5q-144 0 -248.5 -76t-142.5 -232l-129 29q21 84 62 153.5
t103 126t153 88t202 31.5q204 0 330.5 -103.5t126.5 -272.5q0 -144 -82.5 -242t-216.5 -148q158 -32 248.5 -132t90.5 -259q0 -568 -1005 -596z" />
    <glyph glyph-name="uni021D" unicode="&#x21d;" horiz-adv-x="954" 
d="M33 -389l-2 108q151 5 282 28.5t240 68t172 118.5t63 170q0 78 -46 135.5t-138 83t-229 -0.5l-17 98q74 18 126 33.5t106.5 40t87 52t53.5 67t21 87.5q0 92 -77 153.5t-208 61.5q-129 0 -220.5 -59t-123.5 -182l-123 22q19 69 54.5 125.5t90.5 102t137 71t185 25.5
q186 0 298 -84.5t112 -216.5q0 -217 -254 -307q134 -24 212 -102.5t78 -205.5q0 -216 -230 -348.5t-650 -144.5z" />
    <glyph glyph-name="uni0226" unicode="&#x226;" horiz-adv-x="1193" 
d="M0 0l524 1360h144l526 -1360h-139l-133 346h-654l-131 -346h-137zM592 1202l-279 -737h561zM528 1630h127v-188h-127v188z" />
    <glyph glyph-name="uni0227" unicode="&#x227;" horiz-adv-x="995" 
d="M106 711l123 -4q6 95 72.5 151.5t192.5 56.5q46 0 82 -4.5t73 -19t60.5 -39.5t39 -68t15.5 -102v-59l-201 -21q-282 -27 -385 -98q-108 -74 -108 -215q0 -136 92.5 -225t255.5 -89q137 0 219 47.5t129 133.5l8 -156h119q-12 222 -12 328q0 28 1 138t1 214
q0 188 -93.5 264t-283.5 76q-175 0 -283 -82t-117 -227zM770 461q0 -99 -26 -174.5t-72.5 -119.5t-104.5 -65.5t-127 -21.5q-110 0 -177.5 56.5t-67.5 148.5q0 100 83.5 148t272.5 67l219 22v-61zM436 1333h119v-188h-119v188z" />
    <glyph glyph-name="uni0232" unicode="&#x232;" horiz-adv-x="1091" 
d="M-20 1360h143l414 -731l428 731h147l-516 -862v-498h-127v502zM821 1485h-571v119h571v-119z" />
    <glyph glyph-name="uni0233" unicode="&#x233;" horiz-adv-x="886" 
d="M94 -354h66q93 0 146 23t86.5 73t74.5 156l420 1106h-127l-309 -840l-318 840h-133l391 -1004l-31 -82q-38 -103 -80 -135.5t-118 -32.5h-68v-104zM719 1190h-529v102h529v-102z" />
    <glyph glyph-name="dotlessj" unicode="&#x237;" horiz-adv-x="409" 
d="M147 -84v1088h119v-1086q0 -81 -8.5 -129.5t-33 -82.5t-66.5 -47t-111 -13h-63v108h22q91 0 116 29.5t25 132.5z" />
    <glyph glyph-name="uni0254" unicode="&#x254;" horiz-adv-x="978" 
d="M483 -25q-84 0 -156.5 26.5t-123 70.5t-83.5 98.5t-46 114.5l119 24q27 -111 107.5 -169t195.5 -58q142 0 236.5 108t94.5 304q0 201 -95.5 310t-237.5 109q-128 0 -208.5 -62.5t-103.5 -164.5l-119 25q33 135 150.5 222t284.5 87q214 0 334 -145t120 -379
q0 -233 -126.5 -377t-342.5 -144z" />
    <glyph glyph-name="uni0259" unicode="&#x259;" horiz-adv-x="1054" 
d="M518 1020q222 0 347.5 -143.5t125.5 -378.5q0 -238 -133 -380.5t-338 -142.5q-145 0 -252.5 71.5t-159.5 195t-45 280.5h805q-1 179 -100 285t-258 106q-120 0 -201.5 -59t-115.5 -166l-119 25q38 143 156.5 225t287.5 82zM524 78q138 0 232.5 90.5t109.5 251.5h-673
q0 -139 89 -240.5t242 -101.5z" />
    <glyph glyph-name="uni025B" unicode="&#x25b;" horiz-adv-x="980" 
d="M909 102v-102h-411q-207 0 -313.5 74t-106.5 209q0 91 51.5 154t149.5 89q-72 32 -111 94.5t-39 127.5q0 256 418 256h356v-103h-383q-268 0 -268 -158q0 -172 260 -172h348v-102h-348q-159 0 -234 -43t-75 -139q0 -86 77.5 -135.5t221.5 -49.5h407z" />
    <glyph glyph-name="uni0272" unicode="&#x272;" horiz-adv-x="1058" 
d="M143 -84v1088h119v-173q98 189 340 189q344 0 344 -383v-637h-119v602q0 168 -63.5 240.5t-192.5 72.5q-133 0 -221 -101.5t-88 -262.5v-633q0 -81 -8.5 -129.5t-33 -82.5t-66.5 -47t-111 -13h-63v108h22q91 0 116 29.5t25 132.5z" />
    <glyph glyph-name="uni0275" unicode="&#x275;" horiz-adv-x="1052" 
d="M63 498q0 131 38.5 233.5t104 164t147 93t173.5 31.5t173.5 -31.5t147 -93t104 -164t38.5 -233.5t-38.5 -233.5t-104 -164.5t-147 -93.5t-173.5 -31.5t-173.5 31.5t-147 93.5t-104 164.5t-38.5 233.5zM526 915q-138 0 -230.5 -93t-105.5 -269h672q-13 176 -105.5 269
t-230.5 93zM526 80q137 0 229.5 92t106.5 268h-672q13 -176 105.5 -268t230.5 -92z" />
    <glyph glyph-name="circumflex" unicode="&#x2c6;" horiz-adv-x="694" 
d="M418 1360l235 -242h-121l-184 146l-186 -146h-121l242 242h135z" />
    <glyph glyph-name="caron" unicode="&#x2c7;" horiz-adv-x="694" 
d="M276 1118l-235 242h121l184 -146l186 146h121l-241 -242h-136z" />
    <glyph glyph-name="breve" unicode="&#x2d8;" horiz-adv-x="645" 
d="M604 1360q-11 -113 -84 -180.5t-201 -67.5q-124 0 -196.5 68t-81.5 180h106q6 -71 50.5 -114.5t124.5 -43.5t125 43.5t51 114.5h106z" />
    <glyph glyph-name="dotaccent" unicode="&#x2d9;" horiz-adv-x="200" 
d="M41 1333h119v-188h-119v188z" />
    <glyph glyph-name="ring" unicode="&#x2da;" horiz-adv-x="425" 
d="M213 1425q72 0 122 -46t50 -115q0 -70 -49.5 -116t-122.5 -46t-122.5 46t-49.5 116q0 69 50 115t122 46zM213 1350q-34 0 -60 -25t-26 -61t25.5 -60t60.5 -24t60.5 24t25.5 60t-26 61t-60 25z" />
    <glyph glyph-name="ogonek" unicode="&#x2db;" horiz-adv-x="385" 
d="M221 0h119q-174 -75 -174 -156q0 -35 27 -56t81 -21q34 0 70 8v-92q-50 -15 -102 -15q-85 0 -143 39.5t-58 114.5q0 59 53 106.5t127 71.5z" />
    <glyph glyph-name="tilde" unicode="&#x2dc;" horiz-adv-x="753" 
d="M494 1245q75 0 94 86h104q-17 -89 -67 -139.5t-123 -50.5q-45 0 -92.5 22t-87.5 44t-66 22q-70 0 -92 -88h-103q12 90 66 140t127 50q44 0 90 -21.5t84.5 -43t65.5 -21.5z" />
    <glyph glyph-name="hungarumlaut" unicode="&#x2dd;" horiz-adv-x="751" 
d="M393 1360l-248 -242h-104l172 242h180zM711 1360l-248 -242h-105l172 242h181z" />
    <glyph glyph-name="uni032C" unicode="&#x32c;" horiz-adv-x="694" 
d="M287 -262l-246 262h104l201 -156l203 156h104l-252 -262h-114z" />
    <glyph glyph-name="pi" unicode="&#x3c0;" horiz-adv-x="1157" 
d="M301 0h-119v891h-141v113h1075v-113h-143v-625v-45.5t2 -35t5 -29t9 -19.5t15 -15.5t23 -8.5t31 -6t42 -1h16v-106h-53q-67 0 -105.5 9t-63 37.5t-32.5 73.5t-8 124v647h-553v-891z" />
    <glyph glyph-name="Wgrave" unicode="&#x1e80;" horiz-adv-x="1728" 
d="M936 1360l311 -1192l344 1192h138l-414 -1360h-146l-305 1137l-303 -1137h-145l-416 1360h141l353 -1192l301 1192h141zM807 1430l-291 215h205l209 -215h-123z" />
    <glyph glyph-name="wgrave" unicode="&#x1e81;" horiz-adv-x="1341" 
d="M610 1004l-252 -818l-227 818h-131l297 -1004h109l260 840l268 -840h110l297 1004h-131l-219 -820l-262 820h-119zM573 1118l-247 242h180l172 -242h-105z" />
    <glyph glyph-name="Wacute" unicode="&#x1e82;" horiz-adv-x="1728" 
d="M936 1360l311 -1192l344 1192h138l-414 -1360h-146l-305 1137l-303 -1137h-145l-416 1360h141l353 -1192l301 1192h141zM1188 1645l-291 -215h-123l209 215h205z" />
    <glyph glyph-name="wacute" unicode="&#x1e83;" horiz-adv-x="1341" 
d="M610 1004l-252 -818l-227 818h-131l297 -1004h109l260 840l268 -840h110l297 1004h-131l-219 -820l-262 820h-119zM956 1360l-247 -242h-105l172 242h180z" />
    <glyph glyph-name="Wdieresis" unicode="&#x1e84;" horiz-adv-x="1728" 
d="M936 1360l311 -1192l344 1192h138l-414 -1360h-146l-305 1137l-303 -1137h-145l-416 1360h141l353 -1192l301 1192h141zM616 1630h127v-188h-127v188zM989 1630h127v-188h-127v188z" />
    <glyph glyph-name="wdieresis" unicode="&#x1e85;" horiz-adv-x="1341" 
d="M610 1004l-252 -818l-227 818h-131l297 -1004h109l260 840l268 -840h110l297 1004h-131l-219 -820l-262 820h-119zM410 1145v188h118v-188h-118zM791 1333h118v-188h-118v188z" />
    <glyph glyph-name="uni1EA0" unicode="&#x1ea0;" horiz-adv-x="1193" 
d="M0 0l524 1360h144l526 -1360h-139l-133 346h-654l-131 -346h-137zM592 1202l-279 -737h561zM532 -92h119v-189h-119v189z" />
    <glyph glyph-name="uni1EA1" unicode="&#x1ea1;" horiz-adv-x="995" 
d="M229 707l-123 4q9 145 117 227t283 82q190 0 283.5 -76t93.5 -264q0 -104 -1 -214t-1 -138q0 -106 12 -328h-119l-8 156q-47 -86 -129 -133.5t-219 -47.5q-163 0 -255.5 89t-92.5 225q0 141 108 215q103 71 385 98l201 21v59q0 59 -15.5 102t-39 68t-60.5 39.5t-73 19
t-82 4.5q-126 0 -192.5 -56.5t-72.5 -151.5zM770 461v61l-219 -22q-189 -19 -272.5 -67t-83.5 -148q0 -92 67.5 -148.5t177.5 -56.5q69 0 127 21.5t104.5 65.5t72.5 119.5t26 174.5zM436 -92h119v-189h-119v189z" />
    <glyph glyph-name="uni1EB8" unicode="&#x1eb8;" horiz-adv-x="1116" 
d="M164 0v1360h885v-119h-758v-477h713v-119h-713v-526h758v-119h-885zM557 -92h119v-189h-119v189z" />
    <glyph glyph-name="uni1EB9" unicode="&#x1eb9;" horiz-adv-x="1044" 
d="M537 -25q-222 0 -348 144t-126 379q0 239 133.5 380.5t344.5 141.5q216 0 340 -152.5t112 -394.5h-807q0 -179 100 -285t259 -106q120 0 203 59.5t112 165.5l123 -16q-35 -147 -155.5 -231.5t-290.5 -84.5zM539 918q-144 0 -241 -91t-110 -252h676q0 89 -37 166t-113 127
t-175 50zM471 -92h119v-189h-119v189z" />
    <glyph glyph-name="uni1ECA" unicode="&#x1eca;" horiz-adv-x="454" 
d="M291 1360v-1360h-127v1360h127zM168 -92h119v-189h-119v189z" />
    <glyph glyph-name="uni1ECB" unicode="&#x1ecb;" horiz-adv-x="405" 
d="M143 1004h119v-1004h-119v1004zM143 1360h119v-189h-119v189zM145 -92h119v-189h-119v189z" />
    <glyph glyph-name="uni1ECC" unicode="&#x1ecc;" horiz-adv-x="1415" 
d="M1204 680q0 277 -137.5 430.5t-357.5 153.5q-221 0 -359.5 -154t-138.5 -430t138.5 -430t359.5 -154q220 0 357.5 153.5t137.5 430.5zM1339 680q0 -328 -173 -516.5t-459 -188.5q-193 0 -336.5 88.5t-219 248t-75.5 368.5q0 315 175.5 509.5t459.5 194.5
q287 0 457.5 -188t170.5 -516zM651 -92h119v-189h-119v189z" />
    <glyph glyph-name="uni1ECD" unicode="&#x1ecd;" horiz-adv-x="1052" 
d="M188 498q0 -204 94.5 -311t243.5 -107t243.5 107t94.5 311q0 203 -94.5 310t-243.5 107t-243.5 -107t-94.5 -310zM63 498q0 131 38.5 233.5t104 164t147 93t173.5 31.5t173.5 -31.5t147 -93t104 -164t38.5 -233.5t-38.5 -233.5t-104 -164.5t-147 -93.5t-173.5 -31.5
t-173.5 31.5t-147 93.5t-104 164.5t-38.5 233.5zM461 -92h119v-189h-119v189z" />
    <glyph glyph-name="uni1EE4" unicode="&#x1ee4;" horiz-adv-x="1347" 
d="M143 1360h127v-825q0 -227 93 -333t309 -106q218 0 311.5 114.5t93.5 346.5v803h127v-787q0 -309 -122 -453.5t-410 -144.5q-284 0 -406.5 132t-122.5 450v803zM604 -92h119v-189h-119v189z" />
    <glyph glyph-name="uni1EE5" unicode="&#x1ee5;" horiz-adv-x="1042" 
d="M780 0v164q-100 -189 -327 -189q-159 0 -244 91q-86 96 -86 309v629h119v-605q0 -181 61 -254q56 -67 168 -67q133 0 221 101t88 263v562h119v-1004h-119zM430 -92h119v-189h-119v189z" />
    <glyph glyph-name="Ygrave" unicode="&#x1ef2;" horiz-adv-x="1091" 
d="M-20 1360h143l414 -731l428 731h147l-516 -862v-498h-127v502zM553 1430l-291 215h205l209 -215h-123z" />
    <glyph glyph-name="ygrave" unicode="&#x1ef3;" horiz-adv-x="886" 
d="M94 -354h66q93 0 146 23t86.5 73t74.5 156l420 1106h-127l-309 -840l-318 840h-133l391 -1004l-31 -82q-38 -103 -80 -135.5t-118 -32.5h-68v-104zM442 1118l-247 242h180l172 -242h-105z" />
    <glyph glyph-name="endash" unicode="&#x2013;" horiz-adv-x="886" 
d="M825 461h-764v112h764v-112z" />
    <glyph glyph-name="emdash" unicode="&#x2014;" horiz-adv-x="1314" 
d="M1253 461h-1192v112h1192v-112z" />
    <glyph glyph-name="quoteleft" unicode="&#x2018;" horiz-adv-x="411" 
d="M289 1098v-178h-166v192l94 248h88l-82 -262h66z" />
    <glyph glyph-name="quoteright" unicode="&#x2019;" horiz-adv-x="411" 
d="M123 1182v178h166v-193l-94 -247h-89l82 262h-65z" />
    <glyph glyph-name="quotesinglbase" unicode="&#x201a;" horiz-adv-x="411" 
d="M123 0v178h166v-192l-94 -248h-89l82 262h-65z" />
    <glyph glyph-name="quotedblleft" unicode="&#x201c;" horiz-adv-x="694" 
d="M571 1098v-178h-165v192l94 248h88l-82 -262h65zM289 1098v-178h-166v192l94 248h88l-82 -262h66z" />
    <glyph glyph-name="quotedblright" unicode="&#x201d;" horiz-adv-x="694" 
d="M123 1182v178h166v-193l-94 -247h-89l82 262h-65zM406 1182v178h165v-193l-94 -247h-88l82 262h-65z" />
    <glyph glyph-name="quotedblbase" unicode="&#x201e;" horiz-adv-x="716" 
d="M123 0v178h166v-192l-94 -248h-89l82 262h-65zM428 0v178h166v-192l-94 -248h-88l82 262h-66z" />
    <glyph glyph-name="dagger" unicode="&#x2020;" horiz-adv-x="978" 
d="M549 0h-119v809h-389v113h389v438h119v-438h389v-113h-389v-809z" />
    <glyph glyph-name="daggerdbl" unicode="&#x2021;" horiz-adv-x="978" 
d="M549 498h389v-113h-389v-385h-119v385h-389v113h389v338h-389v112h389v412h119v-412h389v-112h-389v-338z" />
    <glyph glyph-name="bullet" unicode="&#x2022;" horiz-adv-x="849" 
d="M82 530q0 139 99 238.5t237 99.5q148 0 249 -98.5t101 -239.5q0 -148 -100.5 -248t-249.5 -100q-139 0 -237.5 100.5t-98.5 247.5z" />
    <glyph glyph-name="ellipsis" unicode="&#x2026;" horiz-adv-x="1435" 
d="M123 0v178h166v-178h-166zM637 0v178h166v-178h-166zM1147 0v178h166v-178h-166z" />
    <glyph glyph-name="perthousand" unicode="&#x2030;" horiz-adv-x="2334" 
d="M389 569q-152 0 -228.5 107.5t-76.5 298.5q0 189 76 294t229 105q152 0 228.5 -105.5t76.5 -293.5q0 -190 -77 -298t-228 -108zM389 657q95 0 148 80t53 238q0 157 -53 234t-148 77t-148 -77t-53 -234q0 -158 53 -238t148 -80zM279 0h131l952 1360h-131zM1249 -14
q-152 0 -228.5 107.5t-76.5 297.5q0 189 76 294.5t229 105.5q151 0 228 -106t77 -294q0 -190 -77 -297.5t-228 -107.5zM1249 74q95 0 148 80t53 237t-53 234t-148 77t-147.5 -77t-52.5 -234q0 -158 52.5 -237.5t147.5 -79.5zM1946 -14q-153 0 -229.5 107.5t-76.5 297.5
q0 189 76.5 294.5t229.5 105.5q151 0 228 -106t77 -294q0 -190 -77 -297.5t-228 -107.5zM1946 74q95 0 147.5 79.5t52.5 237.5q0 157 -52.5 234t-147.5 77t-148 -77t-53 -234t53 -237t148 -80z" />
    <glyph glyph-name="guilsinglleft" unicode="&#x2039;" horiz-adv-x="485" 
d="M322 88l-302 430l299 432h125l-284 -430l284 -432h-122z" />
    <glyph glyph-name="guilsinglright" unicode="&#x203a;" horiz-adv-x="485" 
d="M465 518l-301 -430h-123l285 432l-285 430h125z" />
    <glyph glyph-name="fraction" unicode="&#x2044;" horiz-adv-x="184" 
d="M-317 0h-132l953 1360h131z" />
    <glyph glyph-name="zero.superior" unicode="&#x2070;" horiz-adv-x="774" 
d="M387 819q-152 0 -228.5 107.5t-76.5 298.5q0 189 76 294t229 105q152 0 228.5 -105.5t76.5 -293.5q0 -190 -77 -298t-228 -108zM387 907q95 0 148 80t53 238q0 157 -53 234t-148 77t-148 -77t-53 -234q0 -158 53 -238t148 -80z" />
    <glyph glyph-name="four.superior" unicode="&#x2074;" horiz-adv-x="714" 
d="M426 1473l-279 -353h279v353zM670 1120v-92h-144v-194h-100v194h-389v92l389 490h100v-490h144z" />
    <glyph glyph-name="five.superior" unicode="&#x2075;" horiz-adv-x="696" 
d="M346 907q74 0 124 47t50 133q0 90 -52 136.5t-124 46.5q-54 0 -95 -25.5t-54 -58.5l-101 6l51 418h451v-97h-371l-26 -215q61 58 170 58q108 0 183 -71.5t75 -194.5q0 -127 -82.5 -199t-198.5 -72q-127 0 -197 68t-83 168l102 8q23 -156 178 -156z" />
    <glyph glyph-name="six.superior" unicode="&#x2076;" horiz-adv-x="706" 
d="M190 1083q0 -81 46.5 -128.5t123.5 -47.5t124.5 48.5t47.5 127.5q0 78 -47.5 127.5t-122.5 49.5q-76 0 -124 -49.5t-48 -127.5zM371 1536q-89 0 -138.5 -78.5t-54.5 -214.5q67 107 207 107q110 0 182 -73.5t72 -189.5q0 -112 -77 -190t-200 -78q-284 0 -284 375
q0 68 9.5 129t32.5 117t57.5 96t87 64t118.5 24q107 0 168 -55.5t74 -136.5l-107 -2q-9 52 -47.5 79t-99.5 27z" />
    <glyph glyph-name="seven.superior" unicode="&#x2077;" horiz-adv-x="581" 
d="M25 1513v97h544v-94q-304 -247 -331 -682h-121q26 409 336 679h-428z" />
    <glyph glyph-name="eight.superior" unicode="&#x2078;" horiz-adv-x="751" 
d="M375 1624q120 0 191 -55.5t71 -143.5q0 -52 -27 -100.5t-82 -77.5q71 -30 102.5 -82.5t31.5 -111.5q0 -109 -80.5 -171.5t-206.5 -62.5t-206.5 62.5t-80.5 171.5q0 60 31 112t102 82q-55 29 -81.5 77.5t-26.5 100.5q0 87 72 143t190 56zM375 1202q-83 0 -131.5 -40.5
t-48.5 -108.5q0 -69 48 -107.5t132 -38.5t133 39t49 107t-49.5 108.5t-132.5 40.5zM539 1415q0 56 -45 88.5t-119 32.5q-73 0 -117.5 -32.5t-44.5 -88.5q0 -60 45 -96.5t117 -36.5q74 0 119 36.5t45 96.5z" />
    <glyph glyph-name="nine.superior" unicode="&#x2079;" horiz-adv-x="688" 
d="M504 1360q0 82 -46 129t-124 47q-76 0 -124 -48.5t-48 -127.5q0 -78 48 -127t124 -49q75 0 122.5 49t47.5 127zM324 907q89 0 138 77.5t54 215.5q-61 -106 -207 -106q-110 0 -181 73t-71 189q0 112 77 190t200 78q284 0 284 -375q0 -87 -16 -161t-50.5 -136t-95 -97.5
t-141.5 -35.5q-109 0 -170.5 55.5t-74.5 137.5l108 2q9 -52 47 -79.5t99 -27.5z" />
    <glyph glyph-name="plus.superior" unicode="&#x207a;" horiz-adv-x="696" 
d="M397 834h-100v245h-244v95h244v237h100v-237h244v-95h-244v-245z" />
    <glyph glyph-name="minus.superior" unicode="&#x207b;" horiz-adv-x="720" 
d="M66 1174h587v-95h-587v95z" />
    <glyph glyph-name="equal.superior" unicode="&#x207c;" horiz-adv-x="698" 
d="M621 1194h-543v94h543v-94zM621 975h-543v94h543v-94z" />
    <glyph glyph-name="parenleft.superior" unicode="&#x207d;" horiz-adv-x="305" 
d="M53 1120q0 150 44.5 276.5t105.5 213.5h82q-129 -210 -129 -490q0 -279 129 -489h-82q-61 86 -105.5 213t-44.5 276z" />
    <glyph glyph-name="parenright.superior" unicode="&#x207e;" horiz-adv-x="305" 
d="M250 1120q0 -149 -44.5 -276t-105.5 -213h-82q129 210 129 489q0 280 -129 490h82q61 -87 105.5 -213.5t44.5 -276.5z" />
    <glyph glyph-name="n.superior" unicode="&#x207f;" horiz-adv-x="663" 
d="M197 1407v-80q56 88 186 88q113 0 162 -78q30 -55 30 -151v-352h-100v325q0 85 -20 121q-28 49 -107 49q-71 0 -111 -48.5t-40 -141.5v-305h-101v573h101z" />
    <glyph glyph-name="zero.inferior" unicode="&#x2080;" horiz-adv-x="774" 
d="M387 -260q-152 0 -228.5 107.5t-76.5 297.5q0 189 76 294.5t229 105.5q151 0 228 -106t77 -294q0 -190 -77 -297.5t-228 -107.5zM387 -172q95 0 148 80t53 237t-53 234.5t-148 77.5t-148 -77.5t-53 -234.5t53 -237t148 -80z" />
    <glyph glyph-name="one.inferior" unicode="&#x2081;" horiz-adv-x="423" 
d="M309 -246h-98v604h-182v70q91 2 136.5 21.5t76.5 80.5h67v-776z" />
    <glyph glyph-name="two.inferior" unicode="&#x2082;" horiz-adv-x="679" 
d="M344 545q112 0 181 -55t69 -152q0 -33 -7.5 -65.5t-26.5 -66t-36.5 -60.5t-52.5 -62t-58.5 -58t-70 -61t-71.5 -58t-78 -61h423v-92h-565v90q232 172 335 278t103 202q0 62 -38.5 97.5t-108.5 35.5q-71 0 -119 -42t-49 -132l-102 2q-2 115 73 187.5t199 72.5z" />
    <glyph glyph-name="three.inferior" unicode="&#x2083;" horiz-adv-x="673" 
d="M324 -172q79 0 127.5 38t48.5 105q0 148 -226 148h-16v88h12q209 0 209 131q0 57 -43 88t-108 31q-77 0 -120.5 -40t-49.5 -108l-103 8q8 101 82 164.5t193 63.5q110 0 182 -48.5t72 -150.5q0 -60 -33 -106.5t-94 -71.5q149 -47 149 -195q0 -112 -83 -172.5t-201 -60.5
q-130 0 -200.5 68t-78.5 169l102 9q8 -74 53 -116t126 -42z" />
    <glyph glyph-name="four.inferior" unicode="&#x2084;" horiz-adv-x="714" 
d="M426 393l-279 -352h279v352zM670 41v-92h-144v-195h-100v195h-389v92l389 489h100v-489h144z" />
    <glyph glyph-name="five.inferior" unicode="&#x2085;" horiz-adv-x="696" 
d="M346 -172q74 0 124 47t50 133q0 90 -52 136t-124 46q-54 0 -95 -25.5t-54 -58.5l-101 7l51 417h451v-96h-371l-26 -215q60 57 170 57q108 0 183 -71.5t75 -194.5q0 -127 -82.5 -198.5t-198.5 -71.5q-127 0 -197 67.5t-83 167.5l102 9q23 -156 178 -156z" />
    <glyph glyph-name="six.inferior" unicode="&#x2086;" horiz-adv-x="706" 
d="M190 4q0 -81 46.5 -128.5t123.5 -47.5t124.5 48.5t47.5 127.5q0 78 -47.5 127t-122.5 49q-76 0 -124 -49t-48 -127zM371 457q-89 0 -138.5 -78.5t-54.5 -214.5q66 106 207 106q110 0 182 -73t72 -189q0 -112 -77 -190t-200 -78q-284 0 -284 375q0 68 9.5 129t32.5 117
t57.5 96t87 64t118.5 24q107 0 167.5 -56t74.5 -137l-107 -2q-9 52 -47.5 79.5t-99.5 27.5z" />
    <glyph glyph-name="seven.inferior" unicode="&#x2087;" horiz-adv-x="581" 
d="M25 434v96h544v-94q-304 -247 -331 -682h-121q26 410 336 680h-428z" />
    <glyph glyph-name="eight.inferior" unicode="&#x2088;" horiz-adv-x="751" 
d="M375 545q120 0 191 -55.5t71 -143.5q0 -52 -27 -100.5t-82 -77.5q71 -30 102.5 -82.5t31.5 -112.5q0 -109 -80.5 -171t-206.5 -62t-206.5 62t-80.5 171q0 60 31 112.5t102 82.5q-55 29 -81.5 77.5t-26.5 100.5q0 87 72 143t190 56zM375 123q-83 0 -131.5 -41t-48.5 -109
q0 -69 48 -107t132 -38t133 38.5t49 106.5t-49.5 109t-132.5 41zM539 336q0 56 -45 88.5t-119 32.5q-73 0 -117.5 -32.5t-44.5 -88.5q0 -60 45 -96.5t117 -36.5q74 0 119 36.5t45 96.5z" />
    <glyph glyph-name="nine.inferior" unicode="&#x2089;" horiz-adv-x="688" 
d="M504 281q0 82 -46 129t-124 47q-76 0 -124 -48.5t-48 -127.5q0 -78 48 -127.5t124 -49.5q75 0 122.5 49.5t47.5 127.5zM324 -172q89 0 138 77.5t54 215.5q-61 -107 -207 -107q-110 0 -181 73t-71 189q0 112 77 190.5t200 78.5q284 0 284 -375q0 -87 -16 -161t-50.5 -136
t-95 -97.5t-141.5 -35.5q-109 0 -170.5 55t-74.5 137l108 2q9 -52 47 -79t99 -27z" />
    <glyph glyph-name="parenleft.inferior" unicode="&#x208d;" horiz-adv-x="305" 
d="M53 41q0 150 44.5 276t105.5 213h82q-129 -210 -129 -489q0 -280 129 -490h-82q-60 86 -105 213.5t-45 276.5z" />
    <glyph glyph-name="parenright.inferior" unicode="&#x208e;" horiz-adv-x="305" 
d="M250 41q0 -149 -45 -276.5t-105 -213.5h-82q129 210 129 490q0 279 -129 489h82q61 -87 105.5 -213t44.5 -276z" />
    <glyph glyph-name="Euro" unicode="&#x20ac;" horiz-adv-x="1384" 
d="M793 489h-394q35 -194 144 -300.5t274 -106.5q152 0 264.5 87t135.5 234l124 -4q-18 -129 -91.5 -226t-185 -147.5t-245.5 -50.5q-229 0 -368 136t-177 378h-274l86 111h176q-2 27 -2 82q0 63 2 94h-262l86 111h190q42 233 182.5 365t368.5 132q129 0 239 -50.5
t183.5 -147.5t91.5 -225l-124 -5q-24 150 -138 236t-262 86q-158 0 -267.5 -101t-148.5 -290h652l-86 -111h-580q-4 -62 -4 -94q0 -55 2 -82h494z" />
    <glyph glyph-name="afii61289" unicode="&#x2113;" horiz-adv-x="761" 
d="M215 264v146l-154 -117l-61 90l215 164v489q0 177 58.5 262.5t193.5 85.5q113 0 173 -80t60 -212q0 -313 -342 -574l-24 -18v-236q0 -100 26.5 -142t98.5 -42q59 0 98.5 21t77.5 57l63 -80q-111 -103 -247 -103q-132 0 -184 70t-52 219zM334 1034v-395l37 29
q102 77 154.5 187.5t52.5 229.5q0 195 -123 195q-66 0 -93.5 -55.5t-27.5 -190.5z" />
    <glyph glyph-name="afii61352" unicode="&#x2116;" horiz-adv-x="1953" 
d="M1231 0h-184l-756 1223v-1223h-127v1360h184l756 -1225v1225h127v-1360zM1892 1044q0 -159 -86.5 -249t-212.5 -90t-212.5 90t-86.5 249t86.5 249.5t212.5 90.5t212.5 -90.5t86.5 -249.5zM1774 1044q0 112 -46.5 174t-134.5 62t-134 -62t-46 -174t46 -173.5t134 -61.5
t134.5 61.5t46.5 173.5zM1305 537h577v112h-577v-112z" />
    <glyph glyph-name="trademark" unicode="&#x2122;" horiz-adv-x="1609" 
d="M289 598v649h-248v113h608v-113h-248v-649h-112zM1219 598h-136l-237 662v-662h-113v762h203l219 -627l213 627h201v-762h-113v662z" />
    <glyph glyph-name="Omega" unicode="&#x2126;" horiz-adv-x="1454" 
d="M727 1384q100 0 195.5 -23.5t181 -72.5t149.5 -117.5t102 -166t38 -211.5q0 -91 -25 -173.5t-65 -142.5t-93 -108t-107.5 -77t-109.5 -44v-135h350v-113h-479v326q186 33 295 156.5t109 310.5q0 151 -74.5 263t-195.5 168t-271 56t-271 -56t-195.5 -168t-74.5 -263
q0 -187 109 -310.5t295 -156.5v-326h-479v113h350v135q-55 15 -109.5 44t-107.5 77t-93 108t-65 142.5t-25 173.5q0 114 38 211.5t102 166t149.5 117.5t181 72.5t195.5 23.5z" />
    <glyph glyph-name="estimated" unicode="&#x212e;" horiz-adv-x="1103" 
d="M948 281h76q-49 -137 -165 -221.5t-294 -84.5q-124 0 -222.5 41t-161.5 113t-96.5 167t-33.5 206q0 232 138.5 378t365.5 146q116 0 211 -42t156 -114t94 -166t35 -200h-781v-361q45 -46 130 -75t180 -29q133 0 227 63.5t141 178.5zM270 864v-299h559v297
q-44 44 -116.5 72.5t-159.5 28.5q-88 0 -162.5 -26t-120.5 -73z" />
    <glyph glyph-name="onethird" unicode="&#x2153;" horiz-adv-x="1638" 
d="M459 584h-99v604h-182v69q91 2 136.5 22t76.5 81h68v-776zM340 0h-131l952 1360h131zM1178 74q79 0 127.5 38t48.5 105q0 148 -226 148h-16v88h12q209 0 209 131q0 57 -43 87.5t-108 30.5q-77 0 -120.5 -39.5t-49.5 -107.5l-103 8q8 101 82 164.5t193 63.5
q110 0 182 -48.5t72 -150.5q0 -60 -33 -106.5t-94 -71.5q149 -47 149 -195q0 -112 -83 -172.5t-201 -60.5q-130 0 -200.5 68t-78.5 169l102 8q8 -74 53 -115.5t126 -41.5z" />
    <glyph glyph-name="twothirds" unicode="&#x2154;" horiz-adv-x="1638" 
d="M399 1374q112 0 181 -55t69 -152q0 -38 -12.5 -77t-29 -70.5t-52 -72t-60.5 -66.5t-77.5 -69.5t-80 -65.5t-89.5 -70h401v-92h-543v90q234 173 336.5 278.5t102.5 200.5q0 62 -39 97.5t-109 35.5q-71 0 -119 -42t-49 -132l-102 2q-2 115 73 187.5t199 72.5zM279 0h131
l952 1360h-131zM1247 74q79 0 127.5 38t48.5 105q0 148 -225 148h-16v88h12q209 0 209 131q0 57 -43.5 87.5t-108.5 30.5q-77 0 -120.5 -39.5t-49.5 -107.5l-102 8q8 101 81.5 164.5t192.5 63.5q110 0 182 -48.5t72 -150.5q0 -60 -33 -106.5t-94 -71.5q150 -47 150 -195
q0 -112 -83.5 -172.5t-201.5 -60.5q-130 0 -200 68t-78 169l102 8q8 -74 52.5 -115.5t125.5 -41.5z" />
    <glyph glyph-name="uni2155" unicode="&#x2155;" horiz-adv-x="1638" 
d="M459 584h-99v604h-182v69q91 2 136.5 22t76.5 81h68v-776zM340 0h-131l952 1360h131zM1180 74q74 0 124 47t50 133q0 90 -52 136t-124 46q-55 0 -96 -25.5t-54 -58.5l-100 6l51 418h451v-96h-371l-27 -215q60 57 170 57q108 0 183 -71.5t75 -194.5q0 -127 -82 -198.5
t-198 -71.5q-127 0 -197.5 67.5t-83.5 167.5l102 8q23 -155 179 -155z" />
    <glyph glyph-name="uni2156" unicode="&#x2156;" horiz-adv-x="1638" 
d="M399 1374q112 0 181 -55t69 -152q0 -38 -12.5 -77t-29 -70.5t-52 -72t-60.5 -66.5t-77.5 -69.5t-80 -65.5t-89.5 -70h401v-92h-543v90q234 173 336.5 278.5t102.5 200.5q0 62 -39 97.5t-109 35.5q-71 0 -119 -42t-49 -132l-102 2q-2 115 73 187.5t199 72.5zM279 0h131
l952 1360h-131zM1249 74q74 0 124 47t50 133q0 90 -52 136t-124 46q-54 0 -95 -25.5t-54 -58.5l-101 6l52 418h450v-96h-371l-26 -215q60 57 170 57q108 0 183 -71.5t75 -194.5q0 -127 -82.5 -198.5t-198.5 -71.5q-127 0 -197 67.5t-83 167.5l102 8q23 -155 178 -155z" />
    <glyph glyph-name="uni2157" unicode="&#x2157;" horiz-adv-x="1638" 
d="M387 657q78 0 127 38.5t49 105.5q0 147 -225 147h-16v88h12q209 0 209 131q0 57 -43.5 88t-108.5 31q-77 0 -120.5 -39.5t-49.5 -107.5l-102 8q8 100 81.5 163.5t192.5 63.5q110 0 182 -48t72 -150q0 -60 -33 -107t-94 -72q150 -47 150 -194q0 -112 -83.5 -173
t-201.5 -61q-130 0 -200.5 68.5t-78.5 169.5l103 8q8 -74 52.5 -116t125.5 -42zM279 0h131l952 1360h-131zM1249 74q74 0 124 47t50 133q0 90 -52 136t-124 46q-54 0 -95 -25.5t-54 -58.5l-101 6l52 418h450v-96h-371l-26 -215q60 57 170 57q108 0 183 -71.5t75 -194.5
q0 -127 -82.5 -198.5t-198.5 -71.5q-127 0 -197 67.5t-83 167.5l102 8q23 -155 178 -155z" />
    <glyph glyph-name="uni2158" unicode="&#x2158;" horiz-adv-x="1638" 
d="M479 1223l-278 -353h278v353zM723 870v-92h-143v-194h-101v194h-389v92l389 490h101v-490h143zM428 0h-131l952 1360h131zM1268 74q74 0 124 47t50 133q0 90 -52 136t-124 46q-55 0 -96 -25.5t-54 -58.5l-100 6l51 418h451v-96h-371l-27 -215q60 57 170 57
q108 0 183 -71.5t75 -194.5q0 -127 -82 -198.5t-198 -71.5q-127 0 -197.5 67.5t-83.5 167.5l103 8q23 -155 178 -155z" />
    <glyph glyph-name="uni2159" unicode="&#x2159;" horiz-adv-x="1638" 
d="M459 584h-99v604h-182v69q91 2 136.5 22t76.5 81h68v-776zM340 0h-131l952 1360h131zM1012 250q0 -81 46.5 -128.5t123.5 -47.5t124.5 48.5t47.5 127.5q0 78 -47.5 127t-122.5 49q-76 0 -124 -49t-48 -127zM1192 702q-89 0 -138.5 -78t-54.5 -214q66 106 207 106
q110 0 182 -73t72 -189q0 -112 -76.5 -190t-199.5 -78q-285 0 -285 374q0 86 16.5 160.5t50.5 136.5t95 98t143 36q107 0 167.5 -56t74.5 -137l-107 -2q-9 52 -47.5 79t-99.5 27z" />
    <glyph glyph-name="uni215A" unicode="&#x215a;" horiz-adv-x="1638" 
d="M389 657q74 0 124 47.5t50 133.5q0 90 -52 136t-124 46q-54 0 -95 -25.5t-54 -58.5l-101 6l51 418h451v-96h-371l-26 -215q60 57 170 57q108 0 183 -71.5t75 -194.5q0 -127 -82.5 -199t-198.5 -72q-127 0 -197 68t-83 168l102 8q23 -156 178 -156zM279 0h131l952 1360
h-131zM1081 250q0 -81 46.5 -128.5t123.5 -47.5t124.5 48.5t47.5 127.5q0 78 -47.5 127t-122.5 49q-76 0 -124 -49t-48 -127zM1262 702q-89 0 -138.5 -78t-54.5 -214q66 106 207 106q110 0 182 -73t72 -189q0 -112 -77 -190t-200 -78q-284 0 -284 374q0 86 16.5 160.5
t50.5 136.5t95 98t143 36q107 0 167.5 -56t74.5 -137l-107 -2q-9 52 -47.5 79t-99.5 27z" />
    <glyph glyph-name="oneeighth" unicode="&#x215b;" horiz-adv-x="1638" 
d="M455 584h-99v604h-182v69q91 2 136.5 22t76.5 81h68v-776zM336 0h-131l952 1360h131zM1176 791q120 0 191 -55.5t71 -143.5q0 -52 -27 -100.5t-82 -77.5q71 -30 102 -82.5t31 -112.5q0 -109 -80 -171t-206 -62t-206.5 62t-80.5 171q0 60 31 112.5t102 82.5
q-55 29 -82 77.5t-27 100.5q0 87 72 143t191 56zM1176 369q-83 0 -132 -41t-49 -109t48.5 -106.5t132.5 -38.5t133 38.5t49 106.5t-49.5 109t-132.5 41zM1339 582q0 56 -44.5 88t-118.5 32q-73 0 -117.5 -32t-44.5 -88q0 -60 45 -96.5t117 -36.5q74 0 118.5 36.5t44.5 96.5z
" />
    <glyph glyph-name="threeeighths" unicode="&#x215c;" horiz-adv-x="1638" 
d="M385 657q78 0 127 38.5t49 105.5q0 147 -225 147h-17v88h13q209 0 209 131q0 57 -43.5 88t-108.5 31q-77 0 -120.5 -39.5t-49.5 -107.5l-102 8q8 100 81.5 163.5t192.5 63.5q110 0 182 -48t72 -150q0 -60 -33 -107t-94 -72q150 -47 150 -194q0 -112 -83.5 -173
t-201.5 -61q-130 0 -200.5 68.5t-78.5 169.5l103 8q8 -74 52.5 -116t125.5 -42zM276 0h132l952 1360h-131zM1247 791q-118 0 -190 -56t-72 -143q0 -52 27 -100.5t82 -77.5q-71 -30 -102 -82.5t-31 -112.5q0 -109 80 -171t206 -62t206.5 62t80.5 171q0 60 -31 112.5
t-102 82.5q55 29 81.5 77.5t26.5 100.5q0 88 -71 143.5t-191 55.5zM1247 369q83 0 133 -41t50 -109t-49.5 -106.5t-133.5 -38.5t-132 38t-48 107q0 68 48.5 109t131.5 41zM1411 582q0 -60 -45 -96.5t-119 -36.5q-72 0 -117 36.5t-45 96.5q0 56 44.5 88t117.5 32
q75 0 119.5 -32t44.5 -88z" />
    <glyph glyph-name="fiveeighths" unicode="&#x215d;" horiz-adv-x="1638" 
d="M385 657q74 0 124 47.5t50 133.5q0 90 -52 136t-124 46q-55 0 -96 -25.5t-54 -58.5l-100 6l51 418h451v-96h-371l-26 -215q60 57 170 57q108 0 183 -71.5t75 -194.5q0 -127 -82.5 -199t-198.5 -72q-127 0 -197.5 68t-83.5 168l103 8q23 -156 178 -156zM274 0h132
l952 1360h-131zM1245 791q-118 0 -190 -56t-72 -143q0 -52 27 -100.5t82 -77.5q-71 -30 -102.5 -82.5t-31.5 -112.5q0 -109 80.5 -171t206.5 -62t206.5 62t80.5 171q0 60 -31 112.5t-102 82.5q55 29 81.5 77.5t26.5 100.5q0 88 -71 143.5t-191 55.5zM1245 369
q83 0 132.5 -41t49.5 -109t-49 -106.5t-133 -38.5t-132 38t-48 107q0 68 48.5 109t131.5 41zM1409 582q0 -60 -45 -96.5t-119 -36.5q-72 0 -117 36.5t-45 96.5q0 56 44.5 88t117.5 32q75 0 119.5 -32t44.5 -88z" />
    <glyph glyph-name="seveneighths" unicode="&#x215e;" horiz-adv-x="1638" 
d="M109 1264v96h544v-94q-304 -247 -331 -682h-121q26 410 336 680h-428zM270 0h131l953 1360h-131zM1241 791q-118 0 -190 -56t-72 -143q0 -52 26.5 -100.5t81.5 -77.5q-71 -30 -102 -82.5t-31 -112.5q0 -109 80.5 -171t206.5 -62t206.5 62t80.5 171q0 60 -31 112.5
t-102 82.5q55 29 81.5 77.5t26.5 100.5q0 88 -71 143.5t-191 55.5zM1241 369q83 0 132.5 -41t49.5 -109t-49 -106.5t-133 -38.5t-132 38t-48 107q0 68 48.5 109t131.5 41zM1405 582q0 -60 -45 -96.5t-119 -36.5q-72 0 -117 36.5t-45 96.5q0 56 44.5 88t117.5 32
q75 0 119.5 -32t44.5 -88z" />
    <glyph glyph-name="uni215F" unicode="&#x215f;" horiz-adv-x="1638" 
d="M543 584h-99v604h-182v69q91 2 136.5 22t76.5 81h68v-776zM424 0h-131l952 1360h131z" />
    <glyph glyph-name="uni2190" unicode="&#x2190;" horiz-adv-x="1570" 
d="M41 512l575 575l74 -79l-442 -435h1261v-112h-1271l452 -445l-74 -79z" />
    <glyph glyph-name="uni2191" unicode="&#x2191;" horiz-adv-x="1232" 
d="M616 1391l576 -576l-80 -74l-438 445v-1186h-113v1188l-440 -447l-80 74z" />
    <glyph glyph-name="uni2192" unicode="&#x2192;" horiz-adv-x="1570" 
d="M954 1087l576 -575l-576 -575l-73 79l450 445h-1270v112h1260l-440 435z" />
    <glyph glyph-name="uni2193" unicode="&#x2193;" horiz-adv-x="1232" 
d="M1192 545l-576 -576l-575 576l80 73l440 -448v1190h113v-1188l438 446z" />
    <glyph glyph-name="uni2196" unicode="&#x2196;" horiz-adv-x="1261" 
d="M143 1067h815v-104h-630l893 -895l-78 -78l-895 893v-631h-105v815z" />
    <glyph glyph-name="uni2197" unicode="&#x2197;" horiz-adv-x="1261" 
d="M303 1067h815v-815h-104v631l-895 -893l-78 78l893 895h-631v104z" />
    <glyph glyph-name="uni2198" unicode="&#x2198;" horiz-adv-x="1261" 
d="M1118 815v-815h-815v104h631l-893 895l78 78l895 -893v631h104z" />
    <glyph glyph-name="uni2199" unicode="&#x2199;" horiz-adv-x="1261" 
d="M143 0v815h105v-631l895 893l78 -78l-893 -895h630v-104h-815z" />
    <glyph glyph-name="uni219E" unicode="&#x219e;" horiz-adv-x="1570" 
d="M41 512l575 575l74 -79l-442 -435h323l514 514l74 -79l-442 -435h792v-112h-802l452 -445l-74 -79l-524 524h-323l452 -445l-74 -79zM186 512l2 -2v4z" />
    <glyph glyph-name="uni219F" unicode="&#x219f;" horiz-adv-x="1232" 
d="M616 1391l576 -576l-80 -74l-438 445v-322l518 -518l-80 -74l-438 445v-717h-113v719l-440 -447l-80 74l520 520v322l-440 -447l-80 74zM616 1245l-2 -2h4z" />
    <glyph glyph-name="uni21A0" unicode="&#x21a0;" horiz-adv-x="1570" 
d="M954 1087l576 -575l-576 -575l-73 79l450 445h-321l-525 -524l-73 79l450 445h-801v112h791l-440 435l73 79l514 -514h322l-440 435zM1382 510l2 2l-2 2v-4z" />
    <glyph glyph-name="uni21A1" unicode="&#x21a1;" horiz-adv-x="1232" 
d="M1192 545l-576 -576l-575 576l80 73l440 -448v324l-520 520l80 73l440 -448v721h113v-719l438 446l80 -73l-518 -518v-324l438 446zM614 117l2 -2l2 2h-4z" />
    <glyph glyph-name="uni21A2" unicode="&#x21a2;" horiz-adv-x="1867" 
d="M41 512l575 575l74 -79l-442 -435h989l516 514l74 -79l-496 -496l496 -496l-74 -79l-526 524h-989l452 -445l-74 -79z" />
    <glyph glyph-name="uni21A3" unicode="&#x21a3;" horiz-adv-x="1867" 
d="M1251 1087l576 -575l-576 -575l-73 79l450 445h-987l-526 -524l-74 79l496 496l-496 496l74 79l516 -514h987l-440 435z" />
    <glyph glyph-name="uni21A4" unicode="&#x21a4;" horiz-adv-x="1652" 
d="M1509 1004v-1004h-125v461h-1146l452 -445l-74 -79l-575 575l575 575l74 -79l-442 -435h1136v431h125zM186 512l2 -2v4z" />
    <glyph glyph-name="uni21A5" unicode="&#x21a5;" horiz-adv-x="1232" 
d="M616 1391l576 -576l-80 -74l-438 445v-1073h434v-113h-1004v113h457v1075l-440 -447l-80 74z" />
    <glyph glyph-name="uni21A6" unicode="&#x21a6;" horiz-adv-x="1652" 
d="M143 0v1004h125v-431h1135l-440 435l73 79l576 -575l-576 -575l-73 79l450 445h-1145v-461h-125zM1464 510l2 2l-2 2v-4z" />
    <glyph glyph-name="uni21A7" unicode="&#x21a7;" horiz-adv-x="1232" 
d="M1192 545l-576 -576l-575 576l80 73l440 -448v1077h-457v113h1004v-113h-434v-1075l438 446z" />
    <glyph glyph-name="partialdiff" unicode="&#x2202;" horiz-adv-x="1021" 
d="M834 500q0 105 -28 187t-75.5 130.5t-105 73t-121.5 24.5q-143 0 -229.5 -111t-86.5 -304q0 -195 86 -307.5t230 -112.5q63 0 120.5 25.5t105 75t76 132t28.5 187.5zM504 -25q-198 0 -319.5 140.5t-121.5 384.5q0 240 122.5 380t314.5 140q96 0 174.5 -37t122.5 -100l2 2
q-53 157 -199 264.5t-319 116.5v118q312 -25 496 -244t184 -567q0 -152 -34.5 -268t-97 -187.5t-144.5 -107t-181 -35.5z" />
    <glyph glyph-name="Delta" unicode="&#x2206;" horiz-adv-x="1314" 
d="M0 0l657 1346l658 -1346h-1315zM1128 113l-471 981l-471 -981h942z" />
    <glyph glyph-name="product" unicode="&#x220f;" horiz-adv-x="1259" 
d="M262 -354h-119v1714h973v-1714h-119v1601h-735v-1601z" />
    <glyph glyph-name="summation" unicode="&#x2211;" horiz-adv-x="1077" 
d="M41 -244l551 746l-551 747v111h995v-113h-856l551 -745l-551 -744h856v-112h-995v110z" />
    <glyph glyph-name="minus" unicode="&#x2212;" horiz-adv-x="1081" 
d="M61 573h959v-112h-959v112z" />
    <glyph glyph-name="radical" unicode="&#x221a;" horiz-adv-x="952" 
d="M0 416l246 110l321 -739l269 1573h116l-295 -1714h-157l-318 719l-133 -60z" />
    <glyph glyph-name="infinity" unicode="&#x221e;" horiz-adv-x="1474" 
d="M1106 780q146 0 237 -84.5t91 -220.5q0 -137 -87 -220t-229 -83q-202 0 -383 217q-184 -217 -370 -217q-146 0 -235 83t-89 220t90.5 221t235.5 84q190 0 372 -211q96 114 181 162.5t186 48.5zM367 276q46 0 86.5 14t78 44t66.5 61t68 80q-88 107 -156.5 154t-151.5 47
q-82 0 -137 -54.5t-55 -146.5q0 -84 56.5 -141.5t144.5 -57.5zM1102 676q-76 0 -144 -47.5t-149 -147.5q89 -110 158 -157.5t149 -47.5q82 0 137.5 55t55.5 144q0 86 -57.5 143.5t-149.5 57.5z" />
    <glyph glyph-name="integral" unicode="&#x222b;" horiz-adv-x="442" 
d="M172 279v667q0 232 63 330t183 98q57 0 92 -27.5t35 -74.5q0 -36 -20.5 -58t-53.5 -22q-29 0 -47 18t-18 45q0 36 24 60q-82 0 -113.5 -63.5t-31.5 -202.5q0 -60 3 -164t3 -156v-668q0 -232 -63 -330t-183 -98q-57 0 -92 28t-35 75q0 34 22 57t52 23q31 0 48 -18t17 -46
q0 -35 -24 -59q82 0 113.5 63.5t31.5 202.5q0 60 -3 164t-3 156z" />
    <glyph glyph-name="approxequal" unicode="&#x2248;" horiz-adv-x="1097" 
d="M723 690q55 0 91 35t40 104h121q-7 -121 -75.5 -184t-176.5 -63q-52 0 -114.5 21.5t-110.5 48t-105 48t-100 21.5q-55 0 -91 -35t-40 -104h-121q7 121 75.5 184t176.5 63q61 0 127 -21.5t112.5 -48t99.5 -48t91 -21.5zM723 348q55 0 91 35t40 104h121q-7 -121 -75.5 -184
t-176.5 -63q-52 0 -114.5 21.5t-110.5 48t-105 48t-100 21.5q-55 0 -91 -35t-40 -104h-121q7 121 75.5 184t176.5 63q61 0 127 -21.5t112.5 -48t99.5 -48t91 -21.5z" />
    <glyph glyph-name="notequal" unicode="&#x2260;" horiz-adv-x="1013" 
d="M293 272h-232v113h301l173 277h-474v112h543l156 248l96 -57l-119 -191h215v-112h-284l-172 -277h456v-113h-526l-184 -299l-95 64z" />
    <glyph glyph-name="lessequal" unicode="&#x2264;" horiz-adv-x="1204" 
d="M233 627l889 -277v-121l-1040 340v113l1040 340v-121zM82 0v113h1040v-113h-1040z" />
    <glyph glyph-name="greaterequal" unicode="&#x2265;" horiz-adv-x="1204" 
d="M971 627l-889 274v121l1040 -340v-113l-1040 -340v121zM1122 0h-1040v113h1040v-113z" />
    <glyph glyph-name="uni25A0" unicode="&#x25a0;" horiz-adv-x="1277" 
d="M137 0v1004h1004v-1004h-1004z" />
    <glyph glyph-name="uni25A1" unicode="&#x25a1;" horiz-adv-x="1277" 
d="M137 0v1004h1004v-1004h-1004zM258 885v-764h764v764h-764z" />
    <glyph glyph-name="lozenge" unicode="&#x25ca;" horiz-adv-x="929" 
d="M465 1225l-332 -568l332 -567l332 567zM0 657l465 789l465 -789l-465 -788z" />
    <glyph glyph-name="uni25CB" unicode="&#x25cb;" horiz-adv-x="1183" 
d="M70 498q0 106 41 203t111 167t167 111t203 41t203 -41t167 -111t111 -167t41 -203q0 -142 -69.5 -262.5t-190 -190.5t-262.5 -70t-262.5 70t-190 190.5t-69.5 262.5zM592 90q167 0 283 117t116 291q0 173 -116 290t-283 117t-283 -117t-116 -290q0 -170 116.5 -289
t282.5 -119z" />
    <glyph glyph-name="uni25CF" unicode="&#x25cf;" horiz-adv-x="1183" 
d="M70 498q0 106 41 203t111 167t167 111t203 41t203 -41t167 -111t111 -167t41 -203q0 -142 -69.5 -262.5t-190 -190.5t-262.5 -70t-262.5 70t-190 190.5t-69.5 262.5z" />
    <glyph glyph-name="onesuperior" horiz-adv-x="423" 
d="M309 834h-98v604h-182v69q91 2 136.5 22t76.5 81h67v-776z" />
    <glyph glyph-name="threesuperior" horiz-adv-x="673" 
d="M324 907q78 0 127 38.5t49 105.5q0 147 -226 147h-16v88h12q209 0 209 131q0 57 -43 88t-108 31q-77 0 -120.5 -39.5t-49.5 -107.5l-103 8q8 100 82 163.5t193 63.5q110 0 182 -48.5t72 -150.5q0 -60 -33 -106.5t-94 -71.5q149 -47 149 -194q0 -112 -83 -173t-201 -61
q-130 0 -200.5 68.5t-78.5 169.5l102 8q8 -74 53 -116t126 -42z" />
    <glyph glyph-name="twosuperior" horiz-adv-x="679" 
d="M344 1624q112 0 181 -55t69 -152q0 -38 -12.5 -77t-29 -70.5t-52 -72t-60.5 -66.5t-77.5 -69.5t-80 -65.5t-89.5 -70h423v-92h-565v90q116 86 187 144t133.5 119.5t90 113.5t27.5 102q0 62 -38.5 97.5t-108.5 35.5q-71 0 -119 -42t-49 -132l-102 2q-2 115 73 187.5
t199 72.5z" />
    <glyph glyph-name="commaaccent" horiz-adv-x="247" 
d="M47 -238v170h160v-182l-84 -170h-82l74 182h-68z" />
    <glyph glyph-name="a.alt" 
d="M944 1004v-1004h-117l-2 160q-108 -185 -346 -185q-182 0 -299 141.5t-117 383.5q0 240 122.5 380t314.5 140q103 0 191.5 -45.5t133.5 -132.5v162h119zM504 80q61 0 118 25.5t105 74.5t77.5 132t29.5 188t-28 187t-75.5 130.5t-105 73t-121.5 24.5q-143 0 -229.5 -111
t-86.5 -304q0 -195 86 -307.5t230 -112.5z" />
    <glyph glyph-name="aacute.alt" 
d="M944 0v1004h-119v-162q-45 87 -133.5 132.5t-191.5 45.5q-192 0 -314.5 -140t-122.5 -380q0 -242 117 -383.5t299 -141.5q238 0 346 185l2 -160h117zM504 80q-144 0 -230 112.5t-86 307.5q0 193 86.5 304t229.5 111q64 0 121.5 -24.5t105 -73t75.5 -130.5t28 -187
t-29.5 -188t-77.5 -132t-105 -74.5t-118 -25.5zM795 1360l-248 -242h-105l172 242h181z" />
    <glyph glyph-name="abreve.alt" 
d="M944 0v1004h-119v-162q-45 87 -133.5 132.5t-191.5 45.5q-192 0 -314.5 -140t-122.5 -380q0 -242 117 -383.5t299 -141.5q238 0 346 185l2 -160h117zM504 80q-144 0 -230 112.5t-86 307.5q0 193 86.5 304t229.5 111q64 0 121.5 -24.5t105 -73t75.5 -130.5t28 -187
t-29.5 -188t-77.5 -132t-105 -74.5t-118 -25.5zM831 1360q-11 -113 -83.5 -180.5t-200.5 -67.5q-124 0 -197 68t-82 180h107q6 -71 50 -114.5t124 -43.5t125 43.5t51 114.5h106z" />
    <glyph glyph-name="acircumflex.alt" 
d="M944 0v1004h-119v-162q-45 87 -133.5 132.5t-191.5 45.5q-192 0 -314.5 -140t-122.5 -380q0 -242 117 -383.5t299 -141.5q238 0 346 185l2 -160h117zM504 80q-144 0 -230 112.5t-86 307.5q0 193 86.5 304t229.5 111q64 0 121.5 -24.5t105 -73t75.5 -130.5t28 -187
t-29.5 -188t-77.5 -132t-105 -74.5t-118 -25.5zM618 1360l236 -242h-121l-184 146l-187 -146h-120l241 242h135z" />
    <glyph glyph-name="adieresis.alt" 
d="M944 0v1004h-119v-162q-45 87 -133.5 132.5t-191.5 45.5q-192 0 -314.5 -140t-122.5 -380q0 -242 117 -383.5t299 -141.5q238 0 346 185l2 -160h117zM504 80q-144 0 -230 112.5t-86 307.5q0 193 86.5 304t229.5 111q64 0 121.5 -24.5t105 -73t75.5 -130.5t28 -187
t-29.5 -188t-77.5 -132t-105 -74.5t-118 -25.5zM295 1145v188h119v-188h-119zM676 1333h119v-188h-119v188z" />
    <glyph glyph-name="ae.alt" horiz-adv-x="1812" 
d="M1294 -25q-230 0 -350 158v-133h-117l-2 160q-108 -185 -346 -185q-182 0 -299 141.5t-117 383.5q0 240 122.5 380t314.5 140q103 0 191.5 -45.5t133.5 -132.5v162h119v-150q125 166 354 166q216 0 340.5 -153t112.5 -394h-807q0 -179 100 -285t259 -106q120 0 203 59.5
t112 165.5l123 -16q-35 -147 -156 -231.5t-291 -84.5zM504 80q61 0 118 25.5t105 74.5t77.5 132t29.5 188t-28 187t-75.5 130.5t-105 73t-121.5 24.5q-143 0 -229.5 -111t-86.5 -304q0 -195 86 -307.5t230 -112.5zM946 575h676q0 89 -37.5 166t-113.5 127t-175 50
q-144 0 -240.5 -91t-109.5 -252z" />
    <glyph glyph-name="aeacute.alt" horiz-adv-x="1812" 
d="M1294 -25q170 0 291 84.5t156 231.5l-123 16q-29 -106 -112 -165.5t-203 -59.5q-152 0 -251 97.5t-108 262.5v31h807q12 241 -112.5 394t-340.5 153q-229 0 -354 -166v150h-119v-162q-45 87 -133.5 132.5t-191.5 45.5q-192 0 -314.5 -140t-122.5 -380q0 -242 117 -383.5
t299 -141.5q238 0 346 185l2 -160h117v133q120 -158 350 -158zM504 80q-144 0 -230 112.5t-86 307.5q0 193 86.5 304t229.5 111q64 0 121.5 -24.5t105 -73t75.5 -130.5t28 -187t-29.5 -188t-77.5 -132t-105 -74.5t-118 -25.5zM1622 575h-676q13 161 109.5 252t240.5 91
q99 0 175 -50t113.5 -127t37.5 -166zM1184 1360l-248 -242h-105l173 242h180z" />
    <glyph glyph-name="agrave.alt" 
d="M944 0v1004h-119v-162q-45 87 -133.5 132.5t-191.5 45.5q-192 0 -314.5 -140t-122.5 -380q0 -242 117 -383.5t299 -141.5q238 0 346 185l2 -160h117zM504 80q-144 0 -230 112.5t-86 307.5q0 193 86.5 304t229.5 111q64 0 121.5 -24.5t105 -73t75.5 -130.5t28 -187
t-29.5 -188t-77.5 -132t-105 -74.5t-118 -25.5zM586 1118l-248 242h180l172 -242h-104z" />
    <glyph glyph-name="amacron.alt" 
d="M944 0v1004h-119v-162q-45 87 -133.5 132.5t-191.5 45.5q-192 0 -314.5 -140t-122.5 -380q0 -242 117 -383.5t299 -141.5q238 0 346 185l2 -160h117zM504 80q-144 0 -230 112.5t-86 307.5q0 193 86.5 304t229.5 111q64 0 121.5 -24.5t105 -73t75.5 -130.5t28 -187
t-29.5 -188t-77.5 -132t-105 -74.5t-118 -25.5zM817 1190h-528v102h528v-102z" />
    <glyph glyph-name="aogonek.alt" 
d="M504 80q61 0 118 25.5t105 74.5t77.5 132t29.5 188t-28 187t-75.5 130.5t-105 73t-121.5 24.5q-143 0 -229.5 -111t-86.5 -304q0 -195 86 -307.5t230 -112.5zM944 1004v-1004q-174 -75 -174 -156q0 -35 27.5 -56t81.5 -21q33 0 69 8v-92q-50 -15 -102 -15
q-85 0 -143 39.5t-58 114.5q0 59 54 108.5t128 73.5l-2 156q-108 -185 -346 -185q-182 0 -299 141.5t-117 383.5q0 240 122.5 380t314.5 140q103 0 191.5 -45.5t133.5 -132.5v162h119z" />
    <glyph glyph-name="aring.alt" 
d="M944 0v1004h-119v-162q-45 87 -133.5 132.5t-191.5 45.5q-192 0 -314.5 -140t-122.5 -380q0 -242 117 -383.5t299 -141.5q238 0 346 185l2 -160h117zM504 80q-144 0 -230 112.5t-86 307.5q0 193 86.5 304t229.5 111q64 0 121.5 -24.5t105 -73t75.5 -130.5t28 -187
t-29.5 -188t-77.5 -132t-105 -74.5t-118 -25.5zM547 1425q72 0 122 -46t50 -115q0 -70 -49.5 -116t-122.5 -46t-122.5 46t-49.5 116q0 69 50 115t122 46zM547 1350q-34 0 -60 -25t-26 -61t25.5 -60t60.5 -24t60.5 24t25.5 60t-26 61t-60 25z" />
    <glyph glyph-name="aringacute.alt" 
d="M717 1561l-170 -179q62 -9 102.5 -53t40.5 -106q0 -70 -49.5 -116t-122.5 -46t-122.5 46t-49.5 116q0 60 76 170l115 168h180zM518 1309q-34 0 -60 -25t-26 -61t25.5 -60t60.5 -24t60.5 24t25.5 60t-26 61t-60 25zM944 0v1004h-119v-162q-45 87 -133.5 132.5t-191.5 45.5
q-192 0 -314.5 -140t-122.5 -380q0 -242 117 -383.5t299 -141.5q238 0 346 185l2 -160h117zM504 80q-144 0 -230 112.5t-86 307.5q0 193 86.5 304t229.5 111q64 0 121.5 -24.5t105 -73t75.5 -130.5t28 -187t-29.5 -188t-77.5 -132t-105 -74.5t-118 -25.5z" />
    <glyph glyph-name="atilde.alt" 
d="M944 0v1004h-119v-162q-45 87 -133.5 132.5t-191.5 45.5q-192 0 -314.5 -140t-122.5 -380q0 -242 117 -383.5t299 -141.5q238 0 346 185l2 -160h117zM504 80q-144 0 -230 112.5t-86 307.5q0 193 86.5 304t229.5 111q64 0 121.5 -24.5t105 -73t75.5 -130.5t28 -187
t-29.5 -188t-77.5 -132t-105 -74.5t-118 -25.5zM659 1245q76 0 95 86h104q-17 -89 -67 -139.5t-123 -50.5q-45 0 -92.5 22t-87.5 44t-66 22q-70 0 -92 -88h-103q12 90 66 140t127 50q44 0 89.5 -21.5t84 -43t65.5 -21.5z" />
    <glyph glyph-name="uni0227.alt" 
d="M944 0v1004h-119v-162q-45 87 -133.5 132.5t-191.5 45.5q-192 0 -314.5 -140t-122.5 -380q0 -242 117 -383.5t299 -141.5q238 0 346 185l2 -160h117zM504 80q-144 0 -230 112.5t-86 307.5q0 193 86.5 304t229.5 111q64 0 121.5 -24.5t105 -73t75.5 -130.5t28 -187
t-29.5 -188t-77.5 -132t-105 -74.5t-118 -25.5zM504 1333h119v-188h-119v188z" />
    <glyph glyph-name="uni1EA1.alt" 
d="M944 1004v-1004h-117l-2 160q-108 -185 -346 -185q-182 0 -299 141.5t-117 383.5q0 240 122.5 380t314.5 140q103 0 191.5 -45.5t133.5 -132.5v162h119zM504 80q61 0 118 25.5t105 74.5t77.5 132t29.5 188t-28 187t-75.5 130.5t-105 73t-121.5 24.5q-143 0 -229.5 -111
t-86.5 -304q0 -195 86 -307.5t230 -112.5zM453 -92h118v-189h-118v189z" />
    <glyph glyph-name="l.alt" horiz-adv-x="444" 
d="M133 244v1116h119v-1094q0 -39 1 -58.5t5.5 -41.5t12.5 -30.5t24.5 -17t39 -10.5t58.5 -2h21v-106h-58q-95 0 -140.5 19.5t-64 70t-18.5 154.5z" />
    <glyph glyph-name="lacute.alt" horiz-adv-x="444" 
d="M133 244v1116h119v-1094q0 -39 1 -58.5t5.5 -41.5t12.5 -30.5t24.5 -17t39 -10.5t58.5 -2h21v-106h-58q-95 0 -140.5 19.5t-64 70t-18.5 154.5zM547 1645l-291 -215h-123l209 215h205z" />
    <glyph glyph-name="lcaron.alt" horiz-adv-x="432" 
d="M514 1360l-133 -324h-70l58 324h145zM133 244v1116h119v-1094q0 -39 1 -58.5t5.5 -41.5t12.5 -30.5t24.5 -17t39 -10.5t58.5 -2h21v-106h-58q-95 0 -140.5 19.5t-64 70t-18.5 154.5z" />
    <glyph glyph-name="lcommaaccent.alt" horiz-adv-x="444" 
d="M133 244v1116h119v-1094q0 -39 1 -58.5t5.5 -41.5t12.5 -30.5t24.5 -17t39 -10.5t58.5 -2h21v-106h-58q-95 0 -140.5 19.5t-64 70t-18.5 154.5zM135 -238v170h160v-182l-84 -170h-82l74 182h-68z" />
    <glyph glyph-name="ldot.alt" horiz-adv-x="444" 
d="M133 1442v188h119v-188h-119zM133 244v1116h119v-1094q0 -39 1 -58.5t5.5 -41.5t12.5 -30.5t24.5 -17t39 -10.5t58.5 -2h21v-106h-58q-95 0 -140.5 19.5t-64 70t-18.5 154.5z" />
    <glyph glyph-name="lslash.alt" horiz-adv-x="444" 
d="M0 522v123l133 96v619h119v-533l154 113v-123l-154 -112v-439q0 -39 1 -58.5t5.5 -41.5t12.5 -30.5t24.5 -17t39 -10.5t58.5 -2h21v-106h-58q-95 0 -140.5 19.5t-64 70t-18.5 154.5v374z" />
    <glyph glyph-name="zero.plf" horiz-adv-x="1265" 
d="M633 -25q-266 0 -398.5 184t-132.5 521q0 336 132.5 520t398.5 184t398 -183.5t132 -520.5t-132 -521t-398 -184zM633 80q192 0 298.5 149t106.5 451t-106.5 451t-298.5 149t-299 -149t-107 -451t107 -451t299 -149z" />
    <glyph glyph-name="zeroslashed.plf" horiz-adv-x="1265" 
d="M633 -25q-266 0 -398.5 184t-132.5 521q0 336 132.5 520t398.5 184t398 -183.5t132 -520.5t-132 -521t-398 -184zM633 80q192 0 298.5 149t106.5 451q0 38 -4 104l-796 -276q29 -216 131 -322t264 -106zM227 680v-55l793 274q-36 191 -135.5 286t-251.5 95
q-192 0 -299 -149t-107 -451z" />
    <glyph glyph-name="one.plf" horiz-adv-x="618" 
d="M434 0h-119v1098h-315v80q78 0 126 4t88.5 15t64.5 33.5t42 55t33 84.5h80v-1370z" />
    <glyph glyph-name="two.plf" horiz-adv-x="1083" 
d="M553 1384q191 0 303.5 -95t112.5 -261q0 -105 -43.5 -206t-140.5 -213.5t-230.5 -228t-333.5 -265.5h791v-115h-955v119q167 127 278 218t215.5 188.5t164 175t94.5 158t35 157.5q0 126 -83.5 195t-207.5 69q-69 0 -126.5 -18t-106 -56.5t-76.5 -107.5t-29 -164l-125 2
q7 215 131.5 331.5t331.5 116.5z" />
    <glyph glyph-name="three.plf" horiz-adv-x="1085" 
d="M516 80q161 0 262 78t101 217q0 293 -420 293h-10v102h10q191 0 287 67t96 193q0 108 -85 179t-231 71q-57 0 -110.5 -15.5t-102.5 -48t-83.5 -89.5t-45.5 -132l-125 11q27 172 151 275t325 103q199 0 315.5 -92.5t116.5 -251.5q0 -107 -57.5 -192.5t-168.5 -122.5
q119 -32 191 -116.5t72 -231.5q0 -98 -39.5 -176t-107.5 -126.5t-154.5 -74t-184.5 -25.5q-200 0 -330.5 113t-154.5 285l125 10q31 -150 128.5 -226.5t229.5 -76.5z" />
    <glyph glyph-name="four.plf" horiz-adv-x="1169" 
d="M762 1196l-600 -719h600v719zM1149 477v-115h-268v-362h-119v362h-742v107l744 891h117v-883h268z" />
    <glyph glyph-name="five.plf" horiz-adv-x="1128" 
d="M565 80q152 0 254.5 96.5t102.5 267.5q0 74 -21 135t-56 102t-82 69t-97.5 40.5t-104.5 12.5q-113 0 -203 -50t-122 -124l-115 12l88 719h780v-115h-678l-59 -463q50 56 143.5 91.5t194.5 35.5q199 0 328 -123t129 -340q0 -112 -39.5 -203t-107 -149t-153.5 -88.5
t-182 -30.5q-200 0 -329.5 113t-153.5 285l125 10q31 -150 128.5 -226.5t229.5 -76.5z" />
    <glyph glyph-name="six.plf" horiz-adv-x="1136" 
d="M225 432q0 -156 98.5 -254t254.5 -98t254 98t98 254q0 166 -96 265.5t-256 99.5t-256.5 -99.5t-96.5 -265.5zM600 1280q-185 0 -291 -154t-106 -442q47 98 150 157.5t237 59.5q205 0 335 -130t130 -333q0 -128 -57.5 -233t-167.5 -167.5t-252 -62.5q-251 0 -373.5 167.5
t-122.5 482.5q0 132 17.5 243t57.5 208t101 164t152.5 105.5t207.5 38.5q177 0 283 -90.5t131 -234.5l-127 -12q-18 117 -98.5 175t-206.5 58z" />
    <glyph glyph-name="seven.plf" horiz-adv-x="962" 
d="M10 1245v115h942v-115q-597 -435 -622 -1245h-131q14 228 64.5 422t132.5 345t183 267t228 211h-797z" />
    <glyph glyph-name="eight.plf" horiz-adv-x="1150" 
d="M575 1384q206 0 329.5 -95t123.5 -245q0 -115 -56.5 -196.5t-150.5 -118.5q248 -103 248 -352q0 -187 -138 -294.5t-356 -107.5q-142 0 -253 46.5t-175.5 138.5t-64.5 217q0 249 248 352q-94 37 -150.5 118.5t-56.5 196.5q0 150 123 245t329 95zM575 678
q-167 0 -267.5 -82t-100.5 -219q0 -136 100 -216.5t268 -80.5t268.5 80.5t100.5 216.5t-101 218.5t-268 82.5zM905 1026q0 119 -89 186.5t-241 67.5t-240.5 -67.5t-88.5 -186.5t88.5 -186.5t240.5 -67.5t241 67.5t89 186.5z" />
    <glyph glyph-name="nine.plf" horiz-adv-x="1112" 
d="M887 928q0 156 -98 254t-254 98t-254.5 -98t-98.5 -254q0 -166 96.5 -265.5t256.5 -99.5t256 99.5t96 265.5zM512 80q185 0 291 154t106 442q-49 -98 -151.5 -157.5t-235.5 -59.5q-205 0 -335 130t-130 333q0 128 58 233t168 167t252 62q251 0 373 -167t122 -482
q0 -166 -28.5 -299.5t-90 -239t-167 -163.5t-250.5 -58q-177 0 -283 91t-131 235l127 12q18 -117 98.5 -175t206.5 -58z" />
    <glyph glyph-name="zero.pof" horiz-adv-x="1167" 
d="M584 -23q-251 0 -376.5 169t-125.5 475q0 307 125.5 475t376.5 168t376 -168t125 -475q0 -306 -125 -475t-376 -169zM584 82q178 0 277.5 134.5t99.5 404.5t-99.5 404t-277.5 134q-177 0 -276 -133.5t-99 -404.5t99 -405t276 -134z" />
    <glyph glyph-name="zeroslashed.pof" horiz-adv-x="1167" 
d="M584 -23q-251 0 -376.5 169t-125.5 475q0 307 125.5 475t376.5 168t376 -168t125 -475q0 -306 -125 -475t-376 -169zM584 82q178 0 277.5 134.5t99.5 404.5q0 13 -1.5 36.5t-1.5 34.5l-735 -256q30 -179 123 -266.5t238 -87.5zM209 621q0 -47 2 -70l733 256
q-32 176 -124.5 264t-235.5 88q-177 0 -276 -133.5t-99 -404.5z" />
    <glyph glyph-name="one.pof" horiz-adv-x="581" 
d="M418 0h-119v995h-299v80q172 0 236.5 31t101.5 141h80v-1247z" />
    <glyph glyph-name="two.pof" horiz-adv-x="1007" 
d="M508 1264q180 0 286.5 -87t106.5 -241q0 -97 -42 -190.5t-133.5 -195t-214 -203t-306.5 -232.5h741v-115h-905v115q194 142 318 242.5t225 203t146.5 190t45.5 173.5q0 111 -76 173t-194 62q-63 0 -116.5 -16t-98 -50.5t-71 -96.5t-27.5 -146l-123 2q4 193 122.5 302.5
t315.5 109.5z" />
    <glyph glyph-name="three.pof" horiz-adv-x="1019" 
d="M487 82q150 0 243 68.5t93 191.5q0 262 -393 262h-12v103h12q358 0 358 231q0 97 -78 159t-212 62q-75 0 -140 -25.5t-115 -85t-63 -145.5l-125 10q24 158 141.5 254.5t307.5 96.5q187 0 298 -83.5t111 -232.5q0 -97 -54 -174.5t-159 -111.5q115 -33 181.5 -111.5
t66.5 -206.5q0 -89 -37.5 -160.5t-101.5 -116t-146 -67.5t-174 -23q-192 0 -314.5 104.5t-143.5 262.5l125 10q27 -133 116.5 -202.5t214.5 -69.5z" />
    <glyph glyph-name="four.pof" horiz-adv-x="1103" 
d="M713 1077l-553 -637h553v637zM1083 440v-114h-252v-326h-118v326h-693v108l695 807h116v-801h252z" />
    <glyph glyph-name="five.pof" horiz-adv-x="1044" 
d="M518 82q140 0 235 86t95 238q0 82 -29 145t-77.5 100t-106.5 55.5t-121 18.5q-103 0 -186.5 -45t-112.5 -109l-117 11l84 659h738v-117h-635l-56 -405q47 50 133 80t181 30q122 0 218 -47.5t154 -144.5t58 -229q0 -136 -65 -236t-166.5 -147.5t-223.5 -47.5
q-192 0 -313 104t-144 261l125 10q28 -132 117.5 -201t214.5 -69z" />
    <glyph glyph-name="six.pof" horiz-adv-x="1062" 
d="M223 395q0 -139 91.5 -226t234.5 -87q145 0 235 87t90 226q0 146 -88.5 234t-236.5 88t-237 -88t-89 -234zM569 1159q-169 0 -267 -137.5t-99 -390.5q44 86 140 139t222 53q192 0 314 -118.5t122 -303.5q0 -179 -125 -301.5t-327 -122.5q-237 0 -352 152.5t-115 441.5
q0 118 16.5 218.5t54 189.5t95 151t144 98t196.5 36q168 0 268 -84.5t123 -216.5l-127 -9q-17 102 -91.5 153.5t-191.5 51.5z" />
    <glyph glyph-name="seven.pof" horiz-adv-x="868" 
d="M0 1124v117h889v-111q-557 -403 -582 -1130h-133q47 732 571 1124h-745z" />
    <glyph glyph-name="eight.pof" horiz-adv-x="1097" 
d="M549 1264q194 0 311 -88.5t117 -225.5q0 -99 -53 -174.5t-140 -111.5q232 -94 232 -320q0 -171 -131 -269t-336 -98t-336 98t-131 269q0 226 231 320q-88 36 -140 111.5t-52 174.5q0 137 116.5 225.5t311.5 88.5zM549 612q-156 0 -249 -72.5t-93 -195.5q0 -121 93 -191.5
t249 -70.5t249 70.5t93 191.5q0 123 -93 195.5t-249 72.5zM854 934q0 105 -82.5 165t-222.5 60t-222.5 -60t-82.5 -165t82.5 -166t222.5 -61t222.5 61t82.5 166z" />
    <glyph glyph-name="nine.pof" horiz-adv-x="1058" 
d="M836 846q0 139 -90.5 226t-235.5 87t-235.5 -87t-90.5 -226q0 -146 89 -235t237 -89t237 89t89 235zM489 82q170 0 268.5 137.5t98.5 390.5q-46 -87 -141 -139.5t-221 -52.5q-192 0 -314.5 118t-122.5 304q0 179 126 301.5t327 122.5q237 0 352 -153t115 -441
q0 -118 -16.5 -218.5t-54 -189.5t-95 -151t-144 -98t-196.5 -36q-168 0 -268 84t-123 215l127 11q17 -102 91 -153.5t191 -51.5z" />
    <glyph glyph-name="zero.tlf" horiz-adv-x="1290" 
d="M645 -25q-266 0 -398 184t-132 521t132 520.5t398 183.5t398.5 -184t132.5 -520q0 -337 -132.5 -521t-398.5 -184zM645 80q192 0 299 149t107 451t-107 451t-299 149t-298.5 -149t-106.5 -451t106.5 -451t298.5 -149z" />
    <glyph glyph-name="zeroslashed.tlf" horiz-adv-x="1290" 
d="M645 -25q-266 0 -398 184t-132 521t132 520.5t398 183.5t398.5 -184t132.5 -520q0 -337 -132.5 -521t-398.5 -184zM645 80q192 0 299 149t107 451q0 38 -4 104l-797 -276q29 -216 131 -322t264 -106zM240 680v-55l792 274q-36 191 -135.5 286t-251.5 95
q-192 0 -298.5 -149t-106.5 -451z" />
    <glyph glyph-name="one.tlf" horiz-adv-x="1290" 
d="M717 113h311v-113h-766v113h336v985h-336v80q98 0 155 6.5t103.5 27t72 57.5t44.5 101h80v-1257z" />
    <glyph glyph-name="two.tlf" horiz-adv-x="1290" 
d="M664 1384q190 0 302.5 -95t112.5 -261q0 -139 -83.5 -279.5t-239.5 -286.5t-424 -347h790v-115h-954v119q166 127 277.5 218t216 188.5t163.5 175t94 158t35 157.5q0 126 -83 195t-207 69q-69 0 -126.5 -18t-106 -56.5t-76.5 -107.5t-29 -164l-125 2q7 215 131.5 331.5
t331.5 116.5z" />
    <glyph glyph-name="three.tlf" horiz-adv-x="1290" 
d="M643 80q161 0 262 78t101 217q0 293 -420 293h-11v102h11q191 0 287 67t96 193q0 108 -85 179t-231 71q-57 0 -110.5 -15.5t-102.5 -48t-83.5 -89.5t-45.5 -132l-125 11q27 172 151 275t325 103q199 0 315.5 -92.5t116.5 -251.5q0 -107 -57.5 -192.5t-168.5 -122.5
q119 -32 190.5 -116.5t71.5 -231.5q0 -98 -39.5 -176t-107.5 -126.5t-154 -74t-184 -25.5q-200 0 -330.5 113t-154.5 285l125 10q31 -150 128.5 -226.5t229.5 -76.5z" />
    <glyph glyph-name="four.tlf" horiz-adv-x="1290" 
d="M821 1196l-600 -719h600v719zM1208 477v-115h-268v-362h-119v362h-741v107l743 891h117v-883h268z" />
    <glyph glyph-name="five.tlf" horiz-adv-x="1290" 
d="M645 80q152 0 254 96t102 268q0 92 -31.5 163.5t-84 113t-114.5 62t-130 20.5q-113 0 -203.5 -50t-122.5 -124l-114 12l88 719h780v-115h-678l-59 -463q50 56 143.5 91.5t194.5 35.5q199 0 327.5 -123t128.5 -340q0 -112 -39.5 -203t-106.5 -149t-153 -88.5t-182 -30.5
q-200 0 -329.5 113t-153.5 285l125 10q31 -150 128.5 -226.5t229.5 -76.5z" />
    <glyph glyph-name="six.tlf" horiz-adv-x="1290" 
d="M301 432q0 -156 98 -254t254 -98t254.5 98t98.5 254q0 166 -96.5 265.5t-256.5 99.5t-256 -99.5t-96 -265.5zM676 1280q-185 0 -291 -154t-106 -442q47 98 150 157.5t237 59.5q205 0 334.5 -130t129.5 -333q0 -128 -57.5 -233t-167.5 -167.5t-252 -62.5
q-251 0 -373 167.5t-122 482.5q0 132 17.5 243t57.5 208t101 164t152.5 105.5t207.5 38.5q177 0 283 -90.5t131 -234.5l-127 -12q-18 117 -98.5 175t-206.5 58z" />
    <glyph glyph-name="seven.tlf" horiz-adv-x="1290" 
d="M174 1245v115h942v-115q-597 -435 -622 -1245h-132q14 228 64.5 422t133 345t183.5 267t228 211h-797z" />
    <glyph glyph-name="eight.tlf" horiz-adv-x="1290" 
d="M645 1384q206 0 329.5 -95t123.5 -245q0 -115 -56.5 -196.5t-150.5 -118.5q248 -103 248 -352q0 -187 -138 -294.5t-356 -107.5q-142 0 -253 46.5t-175.5 138.5t-64.5 217q0 250 247 352q-93 37 -149.5 118t-56.5 197q0 150 123 245t329 95zM645 678q-167 0 -268 -82.5
t-101 -218.5t100.5 -216.5t268.5 -80.5t268.5 80.5t100.5 216.5t-101 218.5t-268 82.5zM975 1026q0 119 -89 186.5t-241 67.5t-241 -67.5t-89 -186.5t89 -186.5t241 -67.5t241 67.5t89 186.5z" />
    <glyph glyph-name="nine.tlf" horiz-adv-x="1290" 
d="M987 928q0 156 -98 254t-254 98t-254 -98t-98 -254q0 -166 96 -265.5t256 -99.5t256 99.5t96 265.5zM612 80q185 0 291.5 154t106.5 442q-49 -98 -151.5 -157.5t-235.5 -59.5q-205 0 -335 130t-130 333q0 96 34 180.5t95 147t151 98.5t197 36q251 0 373 -167t122 -482
q0 -166 -28.5 -299.5t-90 -239t-167 -163.5t-250.5 -58q-177 0 -283 91t-131 235l127 12q18 -117 98.5 -175t206.5 -58z" />
    <glyph glyph-name="zeroslashed.superior" horiz-adv-x="774" 
d="M387 819q-152 0 -228.5 107.5t-76.5 298.5q0 189 76 294t229 105q152 0 228.5 -105.5t76.5 -293.5q0 -190 -77 -298t-228 -108zM387 1536q-95 0 -148 -77t-53 -232l396 84q-13 114 -63.5 169.5t-131.5 55.5zM387 907q93 0 146.5 77t54.5 230l-395 -84
q15 -112 64.5 -167.5t129.5 -55.5z" />
    <glyph glyph-name="zeroslashed.inferior" horiz-adv-x="774" 
d="M387 -260q-152 0 -228.5 107.5t-76.5 297.5q0 189 76 294.5t229 105.5q151 0 228 -106t77 -294q0 -190 -77 -297.5t-228 -107.5zM387 457q-95 0 -148 -77t-53 -233l396 84q-13 114 -64 170t-131 56zM387 -172q93 0 146.5 77.5t54.5 229.5l-395 -84q15 -111 65 -167
t129 -56z" />
    <glyph glyph-name="zero.denominator" horiz-adv-x="774" 
d="M387 -14q-152 0 -228.5 107.5t-76.5 297.5q0 189 76 294.5t229 105.5q151 0 228 -106t77 -294q0 -190 -77 -297.5t-228 -107.5zM387 74q95 0 148 80t53 237t-53 234t-148 77t-148 -77t-53 -234t53 -237t148 -80z" />
    <glyph glyph-name="zeroslashed.denominator" horiz-adv-x="774" 
d="M387 -14q-152 0 -228.5 107.5t-76.5 297.5q0 189 76 294.5t229 105.5q151 0 228 -106t77 -294q0 -190 -77 -297.5t-228 -107.5zM387 702q-95 0 -148 -77t-53 -232l396 84q-13 114 -63.5 169.5t-131.5 55.5zM387 74q93 0 146.5 77t54.5 230l-395 -84q15 -112 64.5 -167.5
t129.5 -55.5z" />
    <glyph glyph-name="one.denominator" horiz-adv-x="423" 
d="M309 0h-98v604h-182v70q91 2 136.5 21.5t76.5 80.5h67v-776z" />
    <glyph glyph-name="two.denominator" horiz-adv-x="679" 
d="M344 791q112 0 181 -55t69 -152q0 -33 -7.5 -65.5t-26.5 -66t-36.5 -60.5t-52.5 -62t-58.5 -58t-70 -61t-71.5 -58t-78 -61h423v-92h-565v90q116 86 187 144t133.5 119.5t90 113.5t27.5 102q0 62 -38.5 97.5t-108.5 35.5q-71 0 -119 -42t-49 -132l-102 2q-2 115 73 188
t199 73z" />
    <glyph glyph-name="three.denominator" horiz-adv-x="673" 
d="M324 74q79 0 127.5 38t48.5 105q0 148 -226 148h-16v88h12q209 0 209 131q0 57 -43 87.5t-108 30.5q-77 0 -120.5 -39.5t-49.5 -107.5l-103 8q8 101 82 164.5t193 63.5q110 0 182 -48.5t72 -150.5q0 -60 -33 -106.5t-94 -71.5q149 -47 149 -195q0 -112 -83 -172.5
t-201 -60.5q-130 0 -200.5 68t-78.5 169l102 8q8 -74 53 -115.5t126 -41.5z" />
    <glyph glyph-name="four.denominator" horiz-adv-x="714" 
d="M426 639l-279 -352h279v352zM670 287v-92h-144v-195h-100v195h-389v92l389 489h100v-489h144z" />
    <glyph glyph-name="five.denominator" horiz-adv-x="696" 
d="M346 74q74 0 124 47t50 133q0 90 -52 136t-124 46q-54 0 -95 -25.5t-54 -58.5l-101 6l51 418h451v-96h-371l-26 -215q60 57 170 57q108 0 183 -71.5t75 -194.5q0 -127 -82.5 -198.5t-198.5 -71.5q-127 0 -197 67.5t-83 167.5l102 8q23 -155 178 -155z" />
    <glyph glyph-name="six.denominator" horiz-adv-x="706" 
d="M190 250q0 -81 46.5 -128.5t123.5 -47.5t124.5 48.5t47.5 127.5q0 78 -47.5 127t-122.5 49q-76 0 -124 -49t-48 -127zM371 702q-89 0 -138.5 -78t-54.5 -214q66 106 207 106q110 0 182 -73t72 -189q0 -112 -77 -190t-200 -78q-284 0 -284 374q0 86 16.5 160.5t50.5 136.5
t95 98t143 36q107 0 167.5 -56t74.5 -137l-107 -2q-9 52 -47.5 79t-99.5 27z" />
    <glyph glyph-name="seven.denominator" horiz-adv-x="581" 
d="M25 680v96h544v-94q-304 -247 -331 -682h-121q26 410 336 680h-428z" />
    <glyph glyph-name="eight.denominator" horiz-adv-x="751" 
d="M375 791q120 0 191 -55.5t71 -143.5q0 -52 -27 -100.5t-82 -77.5q71 -30 102.5 -82.5t31.5 -112.5q0 -109 -80.5 -171t-206.5 -62t-206.5 62t-80.5 171q0 60 31 112.5t102 82.5q-55 29 -81.5 77.5t-26.5 100.5q0 87 72 143t190 56zM375 369q-83 0 -131.5 -41t-48.5 -109
q0 -69 48 -107t132 -38t133 38.5t49 106.5t-49.5 109t-132.5 41zM539 582q0 56 -44.5 88t-119.5 32q-73 0 -117.5 -32t-44.5 -88q0 -60 45 -96.5t117 -36.5q74 0 119 36.5t45 96.5z" />
    <glyph glyph-name="nine.denominator" horiz-adv-x="688" 
d="M504 526q0 82 -46 129t-124 47q-76 0 -124 -48.5t-48 -127.5q0 -78 48 -127t124 -49q75 0 122.5 49t47.5 127zM324 74q89 0 138 77.5t54 215.5q-61 -107 -207 -107q-110 0 -181 73t-71 189q0 112 77 190.5t200 78.5q284 0 284 -375q0 -87 -16 -161t-50.5 -136t-95 -97.5
t-141.5 -35.5q-109 0 -170.5 55t-74.5 137l108 2q9 -52 47 -79t99 -27z" />
    <glyph glyph-name="zero.numerator" horiz-adv-x="776" 
d="M397 569q-152 0 -228.5 107.5t-76.5 298.5q0 189 76 294t229 105q152 0 228.5 -105.5t76.5 -293.5q0 -190 -77 -298t-228 -108zM397 657q95 0 148 80t53 238q0 157 -53 234t-148 77t-147.5 -77t-52.5 -234q0 -158 52.5 -238t147.5 -80z" />
    <glyph glyph-name="zeroslashed.numerator" horiz-adv-x="774" 
d="M387 569q-152 0 -228.5 107.5t-76.5 298.5q0 189 76 294t229 105q152 0 228.5 -105.5t76.5 -293.5q0 -190 -77 -298t-228 -108zM387 1286q-95 0 -148 -77t-53 -232l396 84q-13 114 -63.5 169.5t-131.5 55.5zM387 657q93 0 146.5 77.5t54.5 230.5l-395 -84
q15 -112 65 -168t129 -56z" />
    <glyph glyph-name="one.numerator" horiz-adv-x="444" 
d="M362 584h-98v604h-182v69q91 2 136.5 22t76.5 81h67v-776z" />
    <glyph glyph-name="two.numerator" horiz-adv-x="679" 
d="M344 1374q112 0 181 -55t69 -152q0 -38 -12.5 -77t-29 -70.5t-52 -72t-60.5 -66.5t-77.5 -69.5t-80 -65.5t-89.5 -70h423v-92h-565v90q116 86 187 144t133.5 119.5t90 113.5t27.5 102q0 62 -38.5 97.5t-108.5 35.5q-71 0 -119 -42t-49 -132l-102 2q-2 115 73 187.5
t199 72.5z" />
    <glyph glyph-name="three.numerator" horiz-adv-x="673" 
d="M324 657q78 0 127 38.5t49 105.5q0 147 -226 147h-16v88h12q209 0 209 131q0 57 -43 88t-108 31q-77 0 -120.5 -39.5t-49.5 -107.5l-103 8q8 100 82 163.5t193 63.5q110 0 182 -48t72 -150q0 -60 -33 -107t-94 -72q149 -47 149 -194q0 -112 -83 -173t-201 -61
q-130 0 -200.5 68.5t-78.5 169.5l102 8q8 -74 53 -116t126 -42z" />
    <glyph glyph-name="four.numerator" horiz-adv-x="714" 
d="M426 1223l-279 -353h279v353zM670 870v-92h-144v-194h-100v194h-389v92l389 490h100v-490h144z" />
    <glyph glyph-name="five.numerator" horiz-adv-x="696" 
d="M346 657q74 0 124 47.5t50 133.5q0 90 -52 136t-124 46q-54 0 -95 -25.5t-54 -58.5l-101 6l51 418h451v-96h-371l-26 -215q60 57 170 57q108 0 183 -71.5t75 -194.5q0 -127 -82.5 -199t-198.5 -72q-127 0 -197 68t-83 168l102 8q23 -156 178 -156z" />
    <glyph glyph-name="six.numerator" horiz-adv-x="706" 
d="M190 834q0 -81 46.5 -129t123.5 -48t124.5 49t47.5 128q0 78 -47.5 127t-122.5 49q-76 0 -124 -49t-48 -127zM371 1286q-89 0 -138.5 -78.5t-54.5 -214.5q67 107 207 107q110 0 182 -73t72 -189q0 -112 -77 -190.5t-200 -78.5q-284 0 -284 375q0 68 9.5 129t32.5 117
t57.5 96t87 64t118.5 24q107 0 168 -55.5t74 -136.5l-107 -2q-9 52 -47.5 79t-99.5 27z" />
    <glyph glyph-name="seven.numerator" horiz-adv-x="581" 
d="M25 1264v96h544v-94q-304 -247 -331 -682h-121q26 410 336 680h-428z" />
    <glyph glyph-name="eight.numerator" horiz-adv-x="751" 
d="M375 1374q120 0 191 -55t71 -143q0 -52 -27 -101t-82 -78q71 -30 102.5 -82.5t31.5 -111.5q0 -109 -80.5 -171.5t-206.5 -62.5t-206.5 62.5t-80.5 171.5q0 60 31 112t102 82q-55 29 -81.5 78t-26.5 101q0 87 71.5 142.5t190.5 55.5zM375 952q-83 0 -131.5 -40.5
t-48.5 -108.5q0 -69 48 -107.5t132 -38.5t133 39t49 107t-49.5 108.5t-132.5 40.5zM539 1165q0 56 -45 88.5t-119 32.5q-73 0 -117.5 -32.5t-44.5 -88.5q0 -60 45 -96.5t117 -36.5q74 0 119 36.5t45 96.5z" />
    <glyph glyph-name="nine.numerator" horiz-adv-x="688" 
d="M504 1110q0 82 -46 129t-124 47q-76 0 -124 -48.5t-48 -127.5q0 -78 48 -127t124 -49q75 0 122.5 49t47.5 127zM324 657q89 0 138 77.5t54 215.5q-61 -106 -207 -106q-110 0 -181 73t-71 189q0 112 77 190t200 78q284 0 284 -375q0 -87 -16 -161t-50.5 -136t-95 -97.5
t-141.5 -35.5q-109 0 -170.5 55.5t-74.5 137.5l108 2q9 -52 47 -79.5t99 -27.5z" />
    <glyph glyph-name="a.superior" horiz-adv-x="638" 
d="M180 1229l-96 4q4 86 71.5 134t168.5 48q122 0 174 -50t51 -167q0 1 -0.5 -35t-0.5 -72l-1 -36q-2 -74 10 -221h-94l-4 79q-58 -94 -193 -94q-95 0 -147.5 54.5t-52.5 132.5q0 87 75 129q64 36 197 51l111 12v21q0 65 -34.5 90.5t-97.5 25.5q-64 0 -98 -28.5t-39 -77.5z
M457 1081v33l-119 -10q-86 -8 -127 -32t-41 -71q0 -44 31.5 -69t83.5 -25q70 0 121 42t51 132z" />
    <glyph glyph-name="b.superior" horiz-adv-x="677" 
d="M96 834v776h101v-287q59 92 184 92q105 0 171 -81t66 -218q0 -136 -69.5 -216.5t-179.5 -80.5q-119 0 -172 84l-7 -69h-94zM354 1329q-70 0 -117 -54.5t-47 -158.5q0 -105 46 -157t118 -52q77 0 117.5 55t40.5 154q0 101 -40.5 157t-117.5 56z" />
    <glyph glyph-name="c.superior" horiz-adv-x="634" 
d="M336 1415q99 0 164 -57.5t75 -130.5l-100 -15q-11 53 -50 84t-97 31q-71 0 -117.5 -53.5t-46.5 -153.5q0 -102 47 -157.5t117 -55.5q60 0 100 32.5t51 82.5l103 -12q-14 -78 -85.5 -134.5t-170.5 -56.5q-125 0 -197 83.5t-72 215.5q0 130 75 213.5t204 83.5z" />
    <glyph glyph-name="d.superior" horiz-adv-x="677" 
d="M580 1610v-776h-97l-2 77q-62 -92 -186 -92q-105 0 -171.5 81t-66.5 218q0 136 69.5 216.5t180.5 80.5q117 0 174 -84v279h99zM322 907q70 0 116.5 53.5t46.5 157.5q0 107 -45 159t-118 52q-77 0 -117.5 -55t-40.5 -156t40.5 -156t117.5 -55z" />
    <glyph glyph-name="e.superior" horiz-adv-x="657" 
d="M334 819q-128 0 -202.5 84.5t-74.5 214.5q0 133 78.5 215t200.5 82q131 0 204 -91.5t62 -233.5h-438q0 -79 48 -131t120 -52q116 0 160 103l102 -13q-22 -76 -90 -127t-170 -51zM336 1331q-75 0 -121.5 -42t-50.5 -115h334q-2 63 -45 110t-117 47z" />
    <glyph glyph-name="f.superior" horiz-adv-x="378" 
d="M121 1407v41q0 94 31 128t127 34h51v-84h-49q-37 0 -48.5 -15.5t-11.5 -60.5v-43h109v-84h-109v-489h-100v489h-80v84h80z" />
    <glyph glyph-name="g.superior" horiz-adv-x="673" 
d="M475 885v51q-29 -45 -70.5 -68.5t-109.5 -23.5q-105 0 -171.5 76.5t-66.5 209.5q0 132 69.5 208.5t180.5 76.5q115 0 168 -84l2 76h98v-500q0 -86 -12.5 -131.5t-38.5 -73.5q-68 -77 -200 -77q-101 0 -164 45.5t-76 130.5l104 2q25 -92 138 -92q76 0 116 43
q18 20 25.5 47t7.5 84zM322 930q71 0 115 49t44 151t-43.5 150.5t-115.5 48.5q-77 0 -117.5 -51.5t-40.5 -147.5q0 -97 40 -148.5t118 -51.5z" />
    <glyph glyph-name="h.superior" horiz-adv-x="663" 
d="M197 1610v-283q56 88 186 88q113 0 162 -78q30 -55 30 -151v-352h-100v325q0 85 -20 121q-28 49 -107 49q-71 0 -111 -48.5t-40 -141.5v-305h-101v776h101z" />
    <glyph glyph-name="i.superior" horiz-adv-x="294" 
d="M96 1407h101v-573h-101v573zM96 1610h101v-119h-101v119z" />
    <glyph glyph-name="j.superior" horiz-adv-x="294" 
d="M96 791v616h101v-614q0 -93 -28.5 -127.5t-111.5 -34.5h-49v86h29q36 0 47.5 14.5t11.5 59.5zM96 1610h101v-119h-101v119z" />
    <glyph glyph-name="k.superior" horiz-adv-x="585" 
d="M96 1610h101v-447l233 244h121l-205 -211l223 -362h-114l-179 290l-79 -84v-206h-101v776z" />
    <glyph glyph-name="l.superior" horiz-adv-x="294" 
d="M197 1610v-776h-101v776h101z" />
    <glyph glyph-name="m.superior" horiz-adv-x="1011" 
d="M96 834v573h101v-80q50 88 176 88q117 0 162 -98q64 98 200 98q84 0 137 -53q50 -53 50 -176v-352h-99v323q0 104 -32 139q-29 33 -93 33q-65 0 -102 -48.5t-37 -137.5v-309h-100v323q0 106 -33 139q-29 33 -90 33q-65 0 -102 -48.5t-37 -137.5v-309h-101z" />
    <glyph glyph-name="o.superior" horiz-adv-x="655" 
d="M164 1118q0 -107 44.5 -159t119.5 -52q74 0 119 52t45 159t-45 159t-119 52q-75 0 -119.5 -52t-44.5 -159zM57 1118q0 145 78 221t193 76q113 0 190.5 -76t77.5 -221q0 -146 -77.5 -222.5t-190.5 -76.5q-54 0 -102 18t-86 53.5t-60.5 94t-22.5 133.5z" />
    <glyph glyph-name="p.superior" horiz-adv-x="677" 
d="M197 903v-272h-101v776h97l4 -84q59 92 184 92q105 0 171 -81t66 -218q0 -136 -69.5 -216.5t-179.5 -80.5q-119 0 -172 84zM354 1329q-70 0 -117 -54.5t-47 -158.5q0 -105 46 -157t118 -52q77 0 117.5 55t40.5 154q0 101 -40.5 157t-117.5 56z" />
    <glyph glyph-name="q.superior" horiz-adv-x="677" 
d="M481 1331v76h99v-776h-99v280q-62 -92 -186 -92q-105 0 -171.5 81t-66.5 218q0 136 69.5 216.5t180.5 80.5q117 0 174 -84zM322 907q70 0 116.5 53.5t46.5 157.5q0 107 -45 159t-118 52q-77 0 -117.5 -55t-40.5 -156t40.5 -156t117.5 -55z" />
    <glyph glyph-name="r.superior" horiz-adv-x="423" 
d="M387 1409v-106q-40 4 -55 4q-69 0 -102 -42t-33 -137v-294h-101v573h97v-102q47 101 165 104h29z" />
    <glyph glyph-name="s.superior" horiz-adv-x="606" 
d="M543 1251l-101 -14q-23 94 -141 94q-52 0 -87.5 -17.5t-35.5 -51.5q0 -31 23 -48t71 -28l68 -12q98 -21 153.5 -58.5t55.5 -111.5q0 -87 -67.5 -136t-170.5 -49q-108 0 -174 56.5t-74 130.5l105 14q23 -117 145 -117q60 0 98 23.5t38 60.5q0 69 -125 92l-74 17
q-77 15 -124.5 50.5t-47.5 110.5q0 72 68 115t165 43q93 0 153.5 -44.5t78.5 -119.5z" />
    <glyph glyph-name="t.superior" horiz-adv-x="389" 
d="M123 1407v158h98v-158h109v-84h-109v-330q0 -47 10 -61t50 -14h49v-84h-70q-85 0 -111 27.5t-26 117.5v344h-92v84h92z" />
    <glyph glyph-name="u.superior" horiz-adv-x="653" 
d="M457 834v81q-59 -94 -181 -94q-99 0 -149 66q-39 56 -39 164v356h100v-324q0 -85 19 -122q26 -54 106 -54q68 0 106 49t38 138v313h98v-573h-98z" />
    <glyph glyph-name="v.superior" horiz-adv-x="565" 
d="M129 1407l158 -436l155 436h105l-221 -573h-88l-220 573h111z" />
    <glyph glyph-name="w.superior" horiz-adv-x="806" 
d="M236 985l114 422h105l114 -422l111 422h106l-168 -573h-90l-129 458l-123 -458h-90l-168 573h107z" />
    <glyph glyph-name="x.superior" horiz-adv-x="604" 
d="M557 1407l-199 -274l217 -299h-118l-158 217l-156 -217h-112l213 294l-201 279h119l141 -197l143 197h111z" />
    <glyph glyph-name="y.superior" horiz-adv-x="550" 
d="M121 631h-51v88h41q49 0 75 21t47 83l3 11l-209 573h110l146 -438l145 438h102l-217 -598q-11 -29 -14.5 -38.5t-15 -34.5t-19.5 -35t-23.5 -27t-31 -24t-38.5 -13t-50 -6z" />
    <glyph glyph-name="z.superior" horiz-adv-x="569" 
d="M57 834v81l334 406h-311v86h428v-84l-334 -405h340v-84h-457z" />
    <glyph glyph-name="a.inferior" horiz-adv-x="638" 
d="M180 150l-96 4q4 86 71.5 134t168.5 48q122 0 174 -50t51 -167q0 1 -0.5 -35t-0.5 -72l-1 -37q-2 -74 10 -221h-94l-4 80q-58 -94 -193 -94q-95 0 -147.5 54t-52.5 132q0 87 75 129q64 36 197 51l111 13v20q0 65 -34.5 91t-97.5 26q-64 0 -98 -28.5t-39 -77.5zM457 2v33
l-119 -10q-86 -8 -127 -32t-41 -71q0 -44 31.5 -69t83.5 -25q70 0 121 42t51 132z" />
    <glyph glyph-name="b.inferior" horiz-adv-x="677" 
d="M96 -246v776h101v-286q59 92 184 92q105 0 171 -81t66 -218q0 -136 -69.5 -216.5t-179.5 -80.5q-119 0 -172 84l-7 -70h-94zM354 250q-70 0 -117 -54.5t-47 -158.5q0 -105 46 -157t118 -52q77 0 117.5 55t40.5 154q0 101 -40.5 157t-117.5 56z" />
    <glyph glyph-name="c.inferior" horiz-adv-x="634" 
d="M336 336q99 0 164 -58t75 -131l-100 -14q-11 53 -50 84t-97 31q-71 0 -117.5 -53.5t-46.5 -153.5q0 -102 47 -157.5t117 -55.5q60 0 100 32.5t51 82.5l103 -13q-14 -78 -85.5 -134t-170.5 -56q-125 0 -197 83.5t-72 215.5q0 130 75 213.5t204 83.5z" />
    <glyph glyph-name="d.inferior" horiz-adv-x="677" 
d="M580 530v-776h-97l-2 78q-62 -92 -186 -92q-105 0 -171.5 81t-66.5 218q0 136 69.5 216.5t180.5 80.5q117 0 174 -84v278h99zM322 -172q70 0 116.5 53.5t46.5 157.5q0 107 -45 159t-118 52q-77 0 -117.5 -55t-40.5 -156t40.5 -156t117.5 -55z" />
    <glyph glyph-name="e.inferior" horiz-adv-x="657" 
d="M334 -260q-128 0 -202.5 84.5t-74.5 214.5q0 133 78.5 215t200.5 82q131 0 204 -92t62 -234h-438q0 -78 48 -130t120 -52q117 0 160 102l102 -12q-22 -76 -90 -127t-170 -51zM336 252q-75 0 -121.5 -42.5t-50.5 -115.5h334q-2 63 -45 110.5t-117 47.5z" />
    <glyph glyph-name="f.inferior" horiz-adv-x="378" 
d="M121 328v41q0 93 31 127t127 34h51v-84h-49q-37 0 -48.5 -15t-11.5 -60v-43h109v-84h-109v-490h-100v490h-80v84h80z" />
    <glyph glyph-name="g.inferior" horiz-adv-x="673" 
d="M475 -195v52q-59 -93 -180 -93q-105 0 -171.5 76.5t-66.5 210.5q0 132 69.5 208.5t180.5 76.5q115 0 168 -84l2 76h98v-500q0 -86 -12.5 -131.5t-38.5 -73.5q-68 -78 -200 -78q-101 0 -164 45.5t-76 130.5l104 3q12 -44 43 -68.5t95 -24.5q76 0 116 43q18 20 25.5 47
t7.5 84zM322 -150q71 0 115 49.5t44 151.5t-43.5 150.5t-115.5 48.5q-77 0 -117.5 -51.5t-40.5 -147.5q0 -97 40 -149t118 -52z" />
    <glyph glyph-name="h.inferior" horiz-adv-x="663" 
d="M197 530v-282q56 88 186 88q113 0 162 -78q30 -55 30 -152v-352h-100v326q0 85 -20 121q-28 49 -107 49q-71 0 -111 -49t-40 -142v-305h-101v776h101z" />
    <glyph glyph-name="i.inferior" horiz-adv-x="294" 
d="M96 328h101v-574h-101v574zM96 530h101v-118h-101v118z" />
    <glyph glyph-name="j.inferior" horiz-adv-x="294" 
d="M96 -289v617h101v-615q0 -93 -28.5 -127.5t-111.5 -34.5h-49v87h29q36 0 47.5 14t11.5 59zM96 530h101v-118h-101v118z" />
    <glyph glyph-name="k.inferior" horiz-adv-x="585" 
d="M96 530h101v-446l233 244h121l-205 -211l223 -363h-114l-179 291l-79 -82v-209h-101v776z" />
    <glyph glyph-name="l.inferior" horiz-adv-x="294" 
d="M197 530v-776h-101v776h101z" />
    <glyph glyph-name="m.inferior" horiz-adv-x="1011" 
d="M96 -246v574h101v-80q50 88 176 88q117 0 162 -98q64 98 200 98q84 0 137 -53q50 -53 50 -177v-352h-99v324q0 104 -32 139q-29 33 -93 33q-65 0 -102 -49t-37 -138v-309h-100v324q0 106 -33 139q-29 33 -90 33q-65 0 -102 -49t-37 -138v-309h-101z" />
    <glyph glyph-name="n.inferior" horiz-adv-x="663" 
d="M197 328v-80q56 88 186 88q113 0 162 -78q30 -55 30 -152v-352h-100v326q0 85 -20 121q-28 49 -107 49q-71 0 -111 -49t-40 -142v-305h-101v574h101z" />
    <glyph glyph-name="o.inferior" horiz-adv-x="655" 
d="M164 39q0 -107 44.5 -159t119.5 -52q74 0 119 52t45 159t-45 159t-119 52q-75 0 -119.5 -52t-44.5 -159zM57 39q0 145 78 221t193 76q113 0 190.5 -76t77.5 -221q0 -146 -77.5 -222.5t-190.5 -76.5q-54 0 -102 18t-86 53.5t-60.5 94t-22.5 133.5z" />
    <glyph glyph-name="p.inferior" horiz-adv-x="677" 
d="M197 -176v-273h-101v777h97l4 -84q59 92 184 92q105 0 171 -81t66 -218q0 -136 -69.5 -216.5t-179.5 -80.5q-119 0 -172 84zM354 250q-70 0 -117 -54.5t-47 -158.5q0 -105 46 -157t118 -52q77 0 117.5 55t40.5 154q0 101 -40.5 157t-117.5 56z" />
    <glyph glyph-name="q.inferior" horiz-adv-x="677" 
d="M481 252v76h99v-777h-99v281q-62 -92 -186 -92q-105 0 -171.5 81t-66.5 218q0 136 69.5 216.5t180.5 80.5q117 0 174 -84zM322 -172q70 0 116.5 53.5t46.5 157.5q0 107 -45 159t-118 52q-77 0 -117.5 -55t-40.5 -156t40.5 -156t117.5 -55z" />
    <glyph glyph-name="r.inferior" horiz-adv-x="423" 
d="M387 330v-107q-40 4 -55 4q-69 0 -102 -41.5t-33 -136.5v-295h-101v574h97v-103q48 102 165 105h29z" />
    <glyph glyph-name="s.inferior" horiz-adv-x="606" 
d="M543 172l-101 -14q-23 94 -141 94q-52 0 -87.5 -17.5t-35.5 -52.5q0 -31 23 -48t71 -28l68 -12q98 -21 153.5 -58.5t55.5 -111.5q0 -86 -67 -135t-171 -49q-108 0 -174 56t-74 130l105 15q23 -117 145 -117q60 0 98 23.5t38 60.5q0 69 -125 92l-74 16q-77 15 -124.5 51
t-47.5 111q0 72 68 115t165 43q93 0 153.5 -44.5t78.5 -119.5z" />
    <glyph glyph-name="t.inferior" horiz-adv-x="389" 
d="M123 328v157h98v-157h109v-84h-109v-330q0 -47 10 -61.5t50 -14.5h49v-84h-70q-85 0 -111 27.5t-26 118.5v344h-92v84h92z" />
    <glyph glyph-name="u.inferior" horiz-adv-x="653" 
d="M457 -246v82q-59 -94 -181 -94q-100 0 -149 65q-39 56 -39 164v357h100v-324q0 -86 19 -123q26 -53 106 -53q68 0 106 48.5t38 137.5v314h98v-574h-98z" />
    <glyph glyph-name="v.inferior" horiz-adv-x="565" 
d="M129 328l158 -437l155 437h105l-221 -574h-88l-220 574h111z" />
    <glyph glyph-name="w.inferior" horiz-adv-x="806" 
d="M236 -94l114 422h105l114 -422l111 422h106l-168 -574h-90l-129 459l-123 -459h-90l-168 574h107z" />
    <glyph glyph-name="x.inferior" horiz-adv-x="604" 
d="M557 328l-199 -275l217 -299h-118l-158 217l-156 -217h-112l213 295l-201 279h119l141 -197l143 197h111z" />
    <glyph glyph-name="y.inferior" horiz-adv-x="550" 
d="M121 -449h-51v89h41q49 0 75 21t47 83l3 10l-209 574h110l146 -439l145 439h102l-217 -598q-15 -39 -21 -54t-23.5 -45.5t-34.5 -43.5t-46.5 -24.5t-66.5 -11.5z" />
    <glyph glyph-name="z.inferior" horiz-adv-x="569" 
d="M57 -246v82l334 406h-311v86h428v-84l-334 -406h340v-84h-457z" />
    <glyph glyph-name="a.denominator" horiz-adv-x="638" 
d="M180 395l-96 4q4 86 71.5 134.5t168.5 48.5q122 0 174 -50t51 -167q0 1 -0.5 -35t-0.5 -72l-1 -37q-2 -74 10 -221h-94l-4 80q-58 -94 -193 -94q-95 0 -147.5 54t-52.5 132q0 87 75 129q64 36 197 51l111 13v20q0 65 -34.5 91t-97.5 26q-64 0 -98 -29t-39 -78zM457 248
v33l-119 -11q-86 -8 -127 -32t-41 -70q0 -44 31.5 -69t83.5 -25q70 0 121 42t51 132z" />
    <glyph glyph-name="b.denominator" horiz-adv-x="677" 
d="M96 0v776h101v-287q59 93 184 93q105 0 171 -81t66 -218q0 -136 -69.5 -216.5t-179.5 -80.5q-119 0 -172 84l-7 -70h-94zM354 496q-70 0 -117 -54.5t-47 -158.5q0 -105 46 -157t118 -52q77 0 117.5 55t40.5 154q0 101 -40.5 157t-117.5 56z" />
    <glyph glyph-name="c.denominator" horiz-adv-x="634" 
d="M336 582q99 0 164 -58t75 -131l-100 -14q-11 53 -50 84t-97 31q-71 0 -117.5 -53.5t-46.5 -153.5q0 -102 47 -157.5t117 -55.5q60 0 100 32t51 82l103 -12q-14 -78 -85.5 -134t-170.5 -56q-125 0 -197 83.5t-72 215.5q0 130 75 213.5t204 83.5z" />
    <glyph glyph-name="d.denominator" horiz-adv-x="677" 
d="M580 776v-776h-97l-2 78q-62 -92 -186 -92q-105 0 -171.5 81t-66.5 218q0 136 69.5 216.5t180.5 80.5q117 0 174 -84v278h99zM322 74q70 0 116.5 53.5t46.5 157.5q0 107 -45 159t-118 52q-77 0 -117.5 -55t-40.5 -156t40.5 -156t117.5 -55z" />
    <glyph glyph-name="e.denominator" horiz-adv-x="657" 
d="M334 -14q-128 0 -202.5 84.5t-74.5 214.5q0 133 78.5 215t200.5 82q131 0 204 -92t62 -234h-438q0 -79 48 -130.5t120 -51.5q117 0 160 102l102 -12q-22 -76 -90 -127t-170 -51zM336 498q-75 0 -121.5 -42.5t-50.5 -115.5h334q-2 63 -45 110.5t-117 47.5z" />
    <glyph glyph-name="f.denominator" horiz-adv-x="378" 
d="M121 573v41q0 94 31 128t127 34h51v-84h-49q-37 0 -48.5 -15.5t-11.5 -60.5v-43h109v-84h-109v-489h-100v489h-80v84h80z" />
    <glyph glyph-name="g.denominator" horiz-adv-x="673" 
d="M475 51v51q-29 -45 -70.5 -68.5t-109.5 -23.5q-105 0 -171.5 76.5t-66.5 210.5q0 132 69.5 208.5t180.5 76.5q115 0 168 -84l2 75h98v-499q0 -86 -12.5 -131.5t-38.5 -73.5q-68 -78 -200 -78q-101 0 -164 45.5t-76 130.5l104 2q25 -92 138 -92q76 0 116 43q18 20 25.5 47
t7.5 84zM322 96q71 0 115 49.5t44 151.5t-43.5 150.5t-115.5 48.5q-77 0 -117.5 -51.5t-40.5 -147.5q0 -97 40 -149t118 -52z" />
    <glyph glyph-name="h.denominator" horiz-adv-x="663" 
d="M197 776v-282q56 88 186 88q113 0 162 -78q30 -55 30 -152v-352h-100v326q0 84 -20 120q-29 50 -107 50q-71 0 -111 -49t-40 -142v-305h-101v776h101z" />
    <glyph glyph-name="i.denominator" horiz-adv-x="294" 
d="M96 573h101v-573h-101v573zM96 776h101v-119h-101v119z" />
    <glyph glyph-name="j.denominator" horiz-adv-x="294" 
d="M96 -43v616h101v-614q0 -93 -28.5 -127.5t-111.5 -34.5h-49v86h29q36 0 47.5 14.5t11.5 59.5zM96 776h101v-119h-101v119z" />
    <glyph glyph-name="k.denominator" horiz-adv-x="585" 
d="M96 776h101v-446l233 243h121l-205 -211l223 -362h-114l-179 291l-79 -84v-207h-101v776z" />
    <glyph glyph-name="l.denominator" horiz-adv-x="294" 
d="M197 776v-776h-101v776h101z" />
    <glyph glyph-name="m.denominator" horiz-adv-x="1011" 
d="M96 0v573h101v-79q50 88 176 88q117 0 162 -99q65 99 200 99q83 0 137 -54q50 -53 50 -176v-352h-99v324q0 104 -32 139q-29 33 -93 33q-65 0 -102 -49t-37 -138v-309h-100v324q0 106 -33 139q-29 33 -90 33q-65 0 -102 -49t-37 -138v-309h-101z" />
    <glyph glyph-name="n.denominator" horiz-adv-x="663" 
d="M197 573v-79q56 88 186 88q113 0 162 -78q30 -55 30 -152v-352h-100v326q0 84 -20 120q-29 50 -107 50q-71 0 -111 -49t-40 -142v-305h-101v573h101z" />
    <glyph glyph-name="o.denominator" horiz-adv-x="655" 
d="M164 285q0 -107 44.5 -159t119.5 -52q74 0 119 52t45 159t-45 159t-119 52q-75 0 -119.5 -52t-44.5 -159zM57 285q0 145 78 221t193 76q113 0 190.5 -76t77.5 -221q0 -146 -77.5 -222.5t-190.5 -76.5q-54 0 -102 18t-86 53.5t-60.5 94t-22.5 133.5z" />
    <glyph glyph-name="p.denominator" horiz-adv-x="677" 
d="M197 70v-273h-101v776h97l4 -84q59 93 184 93q105 0 171 -81t66 -218q0 -136 -69.5 -216.5t-179.5 -80.5q-119 0 -172 84zM354 496q-70 0 -117 -54.5t-47 -158.5q0 -105 46 -157t118 -52q77 0 117.5 55t40.5 154q0 101 -40.5 157t-117.5 56z" />
    <glyph glyph-name="q.denominator" horiz-adv-x="677" 
d="M481 498v75h99v-776h-99v281q-62 -92 -186 -92q-105 0 -171.5 81t-66.5 218q0 136 69.5 216.5t180.5 80.5q117 0 174 -84zM322 74q70 0 116.5 53.5t46.5 157.5q0 107 -45 159t-118 52q-77 0 -117.5 -55t-40.5 -156t40.5 -156t117.5 -55z" />
    <glyph glyph-name="r.denominator" horiz-adv-x="423" 
d="M387 575v-106q-40 4 -55 4q-69 0 -102 -41.5t-33 -136.5v-295h-101v573h97v-102q47 101 165 104h29z" />
    <glyph glyph-name="s.denominator" horiz-adv-x="606" 
d="M543 418l-101 -15q-23 95 -141 95q-52 0 -87.5 -17.5t-35.5 -52.5q0 -31 23 -48t71 -28l68 -12q98 -21 153.5 -58.5t55.5 -111.5q0 -86 -67 -135t-171 -49q-108 0 -174 56t-74 130l105 14q23 -116 145 -116q60 0 98 23.5t38 60.5q0 69 -125 92l-74 16q-77 15 -124.5 51
t-47.5 111q0 72 68 115t165 43q93 0 153.5 -44.5t78.5 -119.5z" />
    <glyph glyph-name="t.denominator" horiz-adv-x="389" 
d="M123 573v158h98v-158h109v-84h-109v-329q0 -47 10 -61.5t50 -14.5h49v-84h-70q-85 0 -111 27.5t-26 117.5v344h-92v84h92z" />
    <glyph glyph-name="u.denominator" horiz-adv-x="653" 
d="M457 0v82q-59 -94 -181 -94q-100 0 -149 65q-39 56 -39 164v356h100v-323q0 -86 19 -123q26 -53 106 -53q68 0 106 48.5t38 137.5v313h98v-573h-98z" />
    <glyph glyph-name="v.denominator" horiz-adv-x="565" 
d="M129 573l158 -436l155 436h105l-221 -573h-88l-220 573h111z" />
    <glyph glyph-name="w.denominator" horiz-adv-x="806" 
d="M236 152l114 421h105l114 -421l111 421h106l-168 -573h-90l-129 459l-123 -459h-90l-168 573h107z" />
    <glyph glyph-name="x.denominator" horiz-adv-x="604" 
d="M557 573l-199 -274l217 -299h-118l-158 217l-156 -217h-112l213 295l-201 278h119l141 -196l143 196h111z" />
    <glyph glyph-name="y.denominator" horiz-adv-x="550" 
d="M121 -203h-51v88h41q49 0 75 21t47 84l3 10l-209 573h110l146 -438l145 438h102l-217 -598q-11 -29 -14.5 -38.5t-15 -34.5t-19.5 -35t-23.5 -27t-31 -24t-38.5 -13t-50 -6z" />
    <glyph glyph-name="z.denominator" horiz-adv-x="569" 
d="M57 0v82l334 405h-311v86h428v-84l-334 -405h340v-84h-457z" />
    </font>
</defs>
</svg>
