<?xml version="1.0" standalone="no"?>
<!DOCTYPE svg PUBLIC "-//W3C//DTD SVG 1.1//EN" "http://www.w3.org/Graphics/SVG/1.1/DTD/svg11.dtd" >
<svg xmlns="http://www.w3.org/2000/svg" xmlns:xlink="http://www.w3.org/1999/xlink" version="1.1">
<metadata>
Created by FontForge 20170731 at Tue May 31 12:25:25 2022
 By Aleksey,,,
Copyright (c) 2013 Swiss Typefaces Sa`rl. All rights reserved.
</metadata>
<defs>
<font id="SuisseWorks-Italic" horiz-adv-x="1388" >
  <font-face 
    font-family="Suisse Works Italic"
    font-weight="400"
    font-style="italic"
    font-stretch="normal"
    units-per-em="2048"
    panose-1="2 2 5 4 6 0 0 0 0 0"
    ascent="1585"
    descent="-463"
    x-height="1102"
    cap-height="1485"
    bbox="-334 -637 2851 2019"
    underline-thickness="122"
    underline-position="-347"
    slope="-14"
    unicode-range="U+0020-FB02"
  />
<missing-glyph horiz-adv-x="1024" 
d="M0 0v1485h1024v-1485h-1024zM489 741l-450 684v-1366zM532 741l453 -682v1366zM512 709l-444 -670h886zM68 1446l444 -672l442 672h-886z" />
    <glyph glyph-name=".notdef" horiz-adv-x="1024" 
d="M0 0v1485h1024v-1485h-1024zM489 741l-450 684v-1366zM532 741l453 -682v1366zM512 709l-444 -670h886zM68 1446l444 -672l442 672h-886z" />
    <glyph glyph-name=".null" horiz-adv-x="0" 
 />
    <glyph glyph-name="nonmarkingreturn" horiz-adv-x="682" 
 />
    <glyph glyph-name="space" unicode=" " horiz-adv-x="430" 
 />
    <glyph glyph-name="exclam" unicode="!" horiz-adv-x="733" 
d="M459 1485q10 41 84 53q73 13 119 -11q30 -16 24 -42l-115 -457l-239 -594h-41l53 596zM260 -27q-60 0 -103.5 44t-43.5 104t43.5 103.5t103.5 43.5t104 -43.5t44 -103.5t-44 -104t-104 -44z" />
    <glyph glyph-name="quotedbl" unicode="&#x22;" horiz-adv-x="718" 
d="M627 1485h233l-74 -520h-84zM283 1485h233l-74 -520h-84z" />
    <glyph glyph-name="numbersign" unicode="#" horiz-adv-x="1331" 
d="M127 1079h291l57 406h137l-57 -406h350l58 406h137l-58 -406h283l-18 -131h-283l-49 -350h282l-20 -133h-281l-63 -465h-141l65 465h-348l-63 -465h-140l66 465h-289l18 133h289l49 350h-288zM537 948l-50 -350h349l51 350h-350z" />
    <glyph glyph-name="dollar" unicode="$" horiz-adv-x="1353" 
d="M422 -209l49 199q-182 36 -291 144.5t-112 268.5h208q0 -124 56.5 -209t159.5 -122l155 626l-82 33q-73 29 -129.5 65t-101.5 84.5t-68.5 112.5t-23.5 142q0 163 150 274t388 111q22 0 72 -4l53 215h96l-57 -228q169 -38 274 -145.5t109 -263.5h-209q0 123 -50 206.5
t-144 118.5l-142 -565l35 -12q79 -32 132.5 -58.5t111.5 -65.5t92.5 -80.5t57 -100t22.5 -127.5q0 -103 -49.5 -187t-133 -138t-190.5 -83t-225 -29q-24 0 -74 4l-45 -186h-94zM1030 360q0 60 -23.5 108.5t-68.5 84.5t-92.5 61t-112.5 50l-153 -613q23 -4 69 -4
q164 0 272.5 84t108.5 229zM434 1169q0 -175 219 -264l41 -16l140 553q-40 4 -66 4q-142 0 -238 -74.5t-96 -202.5z" />
    <glyph glyph-name="percent" unicode="%" horiz-adv-x="2101" 
d="M375 676q60 0 117.5 71t95.5 172t61 207.5t23 182.5q0 71 -23.5 113t-73.5 42q-62 0 -119 -69.5t-94 -170.5t-59 -206.5t-22 -183.5q0 -158 94 -158zM125 934q0 98 39.5 201t103 184.5t150 133.5t172.5 52q113 0 175 -84t62 -211q0 -132 -66 -266t-175.5 -221.5
t-223.5 -87.5t-175.5 84.5t-61.5 214.5zM608 0h-155l1040 1485h156zM1612 27q60 0 117.5 70.5t95.5 172t61 207.5t23 182q0 71 -23.5 113.5t-73.5 42.5q-62 0 -119 -70t-94 -170.5t-59 -206.5t-22 -184q0 -157 94 -157zM1362 285q0 98 39.5 201t103 184.5t150 133.5
t172.5 52q113 0 175 -84t62 -211q0 -132 -66 -266t-175.5 -221.5t-223.5 -87.5t-175.5 84.5t-61.5 214.5z" />
    <glyph glyph-name="ampersand" unicode="&#x26;" horiz-adv-x="1523" 
d="M98 362q0 84 30.5 158t80 129t118 100.5t140 75.5t151.5 52q-75 150 -75 286q0 88 37.5 158t100 112.5t137 64.5t153.5 22q128 0 218.5 -65.5t90.5 -170.5q0 -246 -440 -397l295 -473q153 211 204 497h150q-82 -302 -313 -561l165 -266l-170 -107l-127 205
q-222 -209 -481 -209q-210 0 -337.5 112.5t-127.5 276.5zM676 776l-33 53q-152 -58 -229.5 -179.5t-77.5 -276.5q0 -146 71 -226.5t205 -80.5q204 0 394 178zM1149 1280q0 75 -51.5 120.5t-132.5 45.5q-116 0 -177 -64.5t-61 -183.5q0 -112 86 -264q336 117 336 346z" />
    <glyph glyph-name="quotesingle" unicode="'" horiz-adv-x="411" 
d="M283 1485h233l-74 -520h-84z" />
    <glyph glyph-name="parenleft" unicode="(" horiz-adv-x="675" 
d="M887 1645l20 -37q-118 -96 -221.5 -243.5t-176 -308.5t-125 -333.5t-78 -328.5t-25.5 -283q0 -248 20.5 -374t85.5 -216l-39 -33q-105 121 -167 312t-62 419q0 198 48 397.5t141 388t241.5 355.5t337.5 285z" />
    <glyph glyph-name="parenright" unicode=")" horiz-adv-x="675" 
d="M-197 -512l-22 35q118 96 222 243.5t177 309t126 334.5t78.5 329t25.5 283q0 245 -22 371t-87 217l39 35q106 -122 167.5 -313.5t61.5 -420.5q0 -198 -48 -397.5t-140.5 -387t-241 -354.5t-336.5 -284z" />
    <glyph glyph-name="asterisk" unicode="*" horiz-adv-x="780" 
d="M526 1487v-246l246 82l39 -106l-246 -80l150 -209l-90 -68l-154 211l-149 -209l-95 66l150 207l-242 82l33 108l244 -84v246h114z" />
    <glyph glyph-name="plus" unicode="+" 
d="M721 0h-143v496h-496v135h496v471h143v-471h496v-135h-496v-496z" />
    <glyph glyph-name="comma" unicode="," horiz-adv-x="733" 
d="M272 -27q-62 2 -104.5 42.5t-42.5 103.5q0 62 42.5 105.5t106.5 43.5q68 0 108 -46.5t40 -121.5q0 -137 -124 -284t-300 -219l-14 24q110 64 199 162t89 190z" />
    <glyph glyph-name="hyphen" unicode="-" horiz-adv-x="798" 
d="M104 477l48 180h575l-47 -180h-576z" />
    <glyph glyph-name="period" unicode="." horiz-adv-x="733" 
d="M322 -27q-60 0 -104 44t-44 104t44 103.5t104 43.5t103.5 -43.5t43.5 -103.5t-43.5 -104t-103.5 -44z" />
    <glyph glyph-name="slash" unicode="/" horiz-adv-x="913" 
d="M-10 -147h-137l1140 1757h135z" />
    <glyph glyph-name="zero" unicode="0" horiz-adv-x="1495" 
d="M606 47q85 0 161 40t133 107t105 156t80.5 185.5t55 197.5t33 190t10.5 164q0 169 -60.5 264t-191.5 95q-86 0 -162.5 -40t-133.5 -106.5t-105 -155.5t-80 -185.5t-54.5 -197t-32.5 -189.5t-10 -164q0 -170 61 -265.5t191 -95.5zM143 510q0 112 24 229.5t69.5 230.5
t115 212.5t154.5 174.5t195 119t231 44q115 0 204.5 -41t145.5 -113.5t84.5 -168.5t28.5 -210q0 -113 -24 -231t-69 -231.5t-114.5 -213t-155 -175t-196 -119.5t-232.5 -44q-114 0 -203 41.5t-144.5 115t-84.5 170t-29 210.5z" />
    <glyph glyph-name="one" unicode="1" horiz-adv-x="1062" 
d="M877 1501l-299 -1204q-12 -48 -17.5 -72t-10.5 -55t-4 -44t6 -30.5t15.5 -24t29 -15t41 -12t56.5 -7.5l-8 -37h-608l10 41q47 5 76 9t58 12.5t44 14t32 22.5t24.5 29t19 43t17.5 54t18 72l235 946h-290l12 51q195 18 304 67t193 140h46z" />
    <glyph glyph-name="two" unicode="2" horiz-adv-x="1204" 
d="M-70 0l9 33q379 313 585 511t294.5 336.5t88.5 258.5q0 57 -22 101.5t-59.5 70.5t-81.5 39.5t-93 13.5q-290 0 -362 -264h-60q29 138 110 234.5t191 141t240 44.5q161 0 270 -85t109 -227q0 -66 -33 -140t-79.5 -136.5t-128 -143.5t-144 -135.5t-162.5 -138.5l-381 -319
h721l-49 -195h-963z" />
    <glyph glyph-name="three" unicode="3" horiz-adv-x="1175" 
d="M360 -27q-112 0 -221.5 20t-154.5 44l71 293h41q6 -144 70.5 -209.5t212.5 -65.5q164 0 281.5 104t117.5 269q0 113 -83.5 204t-237.5 128l12 45l51 20q385 142 385 359q0 87 -61.5 133.5t-175.5 46.5q-129 0 -231.5 -66.5t-143.5 -197.5h-60q59 218 201 319t340 101
q154 0 257.5 -70t103.5 -186q0 -56 -25 -107.5t-62 -90t-94.5 -77t-105 -63.5t-111.5 -54l-2 -6q131 -60 204 -156t73 -208q0 -98 -41 -184.5t-108.5 -148t-152.5 -107t-175 -67.5t-175 -22z" />
    <glyph glyph-name="four" unicode="4" horiz-adv-x="1304" 
d="M799 0h-201l102 412h-733l4 22l1035 1051h161l-225 -905h248l-39 -168h-250zM741 580l174 694l-684 -694h510z" />
    <glyph glyph-name="five" unicode="5" horiz-adv-x="1153" 
d="M213 870l375 615h649l-115 -195h-563l-149 -239q282 -78 419.5 -223t137.5 -322q0 -109 -40.5 -199.5t-107 -151t-154 -102.5t-180 -61t-186.5 -19q-104 0 -212.5 22t-154.5 52l78 311h41q0 -87 21 -148t60.5 -94t87.5 -47t112 -14q77 0 145.5 18t128.5 56t95.5 107.5
t35.5 162.5q0 55 -13.5 105t-50 105t-93.5 101t-151 88.5t-216 71.5z" />
    <glyph glyph-name="six" unicode="6" horiz-adv-x="1312" 
d="M1194 623q0 -172 -91 -322.5t-247 -240t-338 -89.5q-197 0 -310.5 120t-113.5 339q0 165 69.5 320t188 280t280 232.5t342.5 184.5t378 128l22 -59q-317 -83 -571.5 -275.5t-380.5 -454.5q105 102 200.5 151.5t211.5 49.5q158 0 259 -104t101 -260zM711 866
q-176 0 -310 -125q-82 -190 -82 -397q0 -299 211 -299q73 0 140 32.5t117.5 87t89 124t58 147t19.5 152.5q0 123 -59 200.5t-184 77.5z" />
    <glyph glyph-name="seven" unicode="7" horiz-adv-x="1159" 
d="M98 0q22 148 73.5 285t116.5 245t156 212t176.5 180t196 154t195 129t190.5 110h-977l43 170h1053l-41 -170q-103 -73 -186 -137.5t-177.5 -148t-167.5 -164t-145.5 -181t-123.5 -203.5t-89 -226t-53 -255h-240z" />
    <glyph glyph-name="eight" unicode="8" horiz-adv-x="1386" 
d="M84 336q0 81 42 154t113 126.5t151 92.5t169 65q-90 71 -141 152.5t-51 187.5q0 101 46 181t122.5 128t168 72.5t189.5 24.5q113 0 208.5 -34t156.5 -103t61 -160q0 -249 -442 -389l24 -17q39 -28 53.5 -38.5t49 -37t49.5 -40t42 -39.5t39.5 -44t30.5 -45t25.5 -50.5
t13.5 -53.5t6 -61q0 -94 -39.5 -170t-102.5 -124.5t-147 -81t-169 -46t-172 -13.5q-128 0 -240 43t-184 127.5t-72 192.5zM262 354q0 -142 86.5 -224.5t249.5 -82.5q73 0 142.5 17t129 50t95.5 89.5t36 128.5q0 37 -13 70.5t-31 59.5t-59 61.5t-73 59t-98 70.5l-115 82
q-162 -57 -256 -153t-94 -228zM1149 1223q0 105 -75.5 164t-190.5 59q-146 0 -242 -66.5t-96 -177.5q0 -28 7.5 -55t16 -46.5t30.5 -45t33 -38t44 -39t43 -34t49 -35.5l57 -41q73 28 127.5 59t101 73.5t71 98.5t24.5 124z" />
    <glyph glyph-name="nine" unicode="9" horiz-adv-x="1271" 
d="M156 868q0 129 54 249t144 208.5t215.5 141.5t261.5 53q197 0 310.5 -120t113.5 -339q0 -138 -48 -269t-135 -242.5t-204 -210.5t-258.5 -178.5t-295 -141t-316.5 -103.5l-23 59q316 83 571 275.5t382 454.5q-105 -102 -200.5 -151.5t-211.5 -49.5q-158 0 -259 104
t-101 260zM639 625q173 0 309 123q82 201 82 399q0 299 -211 299q-73 0 -140 -32.5t-117.5 -87t-89 -124t-58 -147t-19.5 -152.5q0 -58 13.5 -107t41.5 -88t76 -61t113 -22z" />
    <glyph glyph-name="colon" unicode=":" horiz-adv-x="733" 
d="M535 819q-60 0 -104 44t-44 104t44 103.5t104 43.5t103.5 -43.5t43.5 -103.5t-43.5 -104t-103.5 -44zM322 -27q-60 0 -104 44t-44 104t44 103.5t104 43.5t103.5 -43.5t43.5 -103.5t-43.5 -104t-103.5 -44z" />
    <glyph glyph-name="semicolon" unicode=";" horiz-adv-x="733" 
d="M535 819q-60 0 -104 44t-44 104t44 103.5t104 43.5t103.5 -43.5t43.5 -103.5t-43.5 -104t-103.5 -44zM322 -27q-62 2 -105 42.5t-43 103.5q0 62 43 105.5t107 43.5q68 0 107.5 -46.5t39.5 -121.5q0 -137 -124 -284t-300 -219l-14 24q110 64 199.5 162t89.5 190z" />
    <glyph glyph-name="less" unicode="&#x3c;" 
d="M35 629l1067 485v-156l-897 -397l897 -393v-154l-1067 482v133z" />
    <glyph glyph-name="equal" unicode="=" 
d="M1163 715h-989v135h989v-135zM1163 291h-989v137h989v-137z" />
    <glyph glyph-name="greater" unicode="&#x3e;" 
d="M1264 629v-133l-1067 -482v154l899 393l-899 397v156z" />
    <glyph glyph-name="question" unicode="?" horiz-adv-x="1132" 
d="M1206 1270q0 -63 -20 -117t-55 -95.5t-81 -78t-98.5 -71t-106.5 -69t-107.5 -76.5t-98.5 -89t-81.5 -112t-55.5 -140l-6 -25h-60l4 19q24 108 66.5 199.5t90.5 152.5t100.5 114.5t100 97t86 87t61 97t22.5 116.5q0 89 -52 138.5t-151 49.5q-138 0 -231.5 -80.5
t-159.5 -257.5h-41l86 349q70 24 175.5 42.5t201.5 18.5q191 0 301 -74t110 -196zM436 -27q-60 0 -103.5 44t-43.5 104t43.5 103.5t103.5 43.5t104 -43.5t44 -103.5t-44 -104t-104 -44z" />
    <glyph glyph-name="at" unicode="@" horiz-adv-x="1732" 
d="M1673 848q0 -122 -31 -223t-83 -165t-116.5 -99t-133.5 -35q-93 0 -150.5 60.5t-62.5 156.5q-47 -97 -131.5 -152t-198.5 -55q-130 0 -214.5 91t-84.5 269q0 126 52 237t152 181t226 70q95 0 158 -53.5t86 -135.5l20 150h113l-66 -467q-4 -36 -4 -64q0 -45 10 -81.5
t38.5 -63.5t72.5 -27q96 0 160.5 108t64.5 292q0 135 -46 241.5t-129 174t-195 102.5t-248 35q-201 0 -358 -89.5t-241.5 -242.5t-84.5 -342q0 -182 72.5 -323.5t211.5 -221.5t324 -80q104 0 213.5 22.5t198.5 65.5l43 -116q-100 -45 -224.5 -70t-230.5 -25
q-218 0 -386.5 97t-259.5 267.5t-91 387.5q0 164 62 309.5t169.5 249.5t259.5 164.5t326 60.5q158 0 291.5 -42t233.5 -123t156 -208t56 -288zM1094 831q0 110 -51.5 171t-143.5 61q-129 0 -212 -108.5t-83 -262.5q0 -118 52.5 -177.5t144.5 -59.5q86 0 154 52.5t103.5 138
t35.5 185.5z" />
    <glyph glyph-name="A" unicode="A" horiz-adv-x="1564" 
d="M-119 0l8 37q31 2 52 5t44 12.5t37.5 17.5t37 31.5t37.5 41.5t43.5 61t50.5 77.5t63 101.5l680 1094q73 7 117 63h8l192 -1323q7 -44 11 -66.5t12.5 -46t17 -32.5t27 -18t39.5 -12.5t57 -6.5l-8 -37h-567l10 37q64 7 94 12.5t57 20t33.5 39t1.5 65.5l-43 309h-573
l-17 -28q-93 -151 -133.5 -226t-41 -119.5t26.5 -55t99 -17.5l-8 -37h-465zM889 1239l-393 -635h481z" />
    <glyph glyph-name="B" unicode="B" horiz-adv-x="1384" 
d="M297 1485h244q91 0 189 2t120 2q520 0 520 -275q0 -157 -112 -263t-289 -154v-4q128 -23 212.5 -102.5t84.5 -203.5q0 -105 -49 -190.5t-127.5 -140.5t-181.5 -92t-206.5 -52.5t-207.5 -15.5q-22 0 -122 2t-204 2h-240l9 37q42 6 62.5 9t48.5 10t40 14t30 21t26 30
t20.5 43t21 58t19.5 77l221 887q11 46 18 76.5t8.5 58t1 43.5t-11 30.5t-19 21t-33 13.5t-43.5 10t-58 9zM537 731l-148 -590q-12 -46 5.5 -58.5t86.5 -12.5q88 0 164 13t146 44.5t120 79.5t79.5 123.5t29.5 171.5q0 229 -326 229h-157zM707 1411l-152 -608h154
q185 0 306.5 107t121.5 292q0 107 -81 158t-263 51h-86z" />
    <glyph glyph-name="C" unicode="C" horiz-adv-x="1419" 
d="M1343 997q3 171 -31 269t-106 139t-196 41q-102 0 -195 -42.5t-164 -114.5t-129 -165.5t-95 -197t-57 -207t-20 -197.5q0 -105 20.5 -185.5t64.5 -141t118.5 -92t177.5 -31.5q98 0 187.5 31.5t156 84.5t115 111t80.5 121l47 -27q-29 -67 -69.5 -126.5t-97.5 -114
t-124 -94t-153 -62.5t-181 -23q-170 0 -302 66t-210 200t-78 320q0 194 77.5 373t205 307t298 204.5t351.5 76.5q99 0 215 -28t207 -83l-74 -412h-39z" />
    <glyph glyph-name="D" unicode="D" horiz-adv-x="1613" 
d="M299 1485h469q364 0 576 -158t212 -436q0 -175 -53 -319.5t-150.5 -250t-237 -178t-312.5 -108t-375 -35.5h-498l9 37q42 6 62.5 9t48.5 10t40 14t30 21t26 30t20.5 43t21 58t19.5 77l221 887q11 46 18 76.5t8.5 58t1 43.5t-11 30.5t-19 21t-33 13.5t-43.5 10t-58 9z
M375 74h59q423 0 649 218.5t226 610.5q0 263 -133.5 385.5t-407.5 122.5h-59z" />
    <glyph glyph-name="E" unicode="E" horiz-adv-x="1372" 
d="M297 1485h664q300 0 454 6l-51 -449h-39q-4 56 -10 99t-19 79.5t-23 62.5t-35.5 46.5t-43 34t-58 23t-68 14t-85.5 7t-98.5 3t-118.5 0.5h-57l-150 -600h336l170 229h33l-137 -555h-33l-56 236h-337l-140 -557q-16 -51 -2.5 -72.5t74.5 -21.5q94 0 154.5 2.5t127 10.5
t112 24.5t95 43.5t90.5 68.5t84.5 97t90.5 132.5h39l-195 -451q-154 2 -453 2h-684l9 37q42 6 62.5 9t48.5 10t40 14t30 21t26 30t20.5 43t21 58t19.5 77l221 887q11 46 18 76.5t8.5 58t1 43.5t-11 30.5t-19 21t-33 13.5t-43.5 10t-58 9z" />
    <glyph glyph-name="F" unicode="F" horiz-adv-x="1267" 
d="M-72 0l11 37q42 6 62.5 9t48.5 10t40 14t30 21t26 30t20.5 43t21 58t19.5 77l221 887q11 46 18 76.5t8.5 58t1 43.5t-11 30.5t-19 21t-33 13.5t-43.5 10t-58 9l8 37h686q301 0 432 6l-51 -449h-39q-4 56 -10 99t-19 79.5t-23 62.5t-35.5 46.5t-43 34t-58 23t-68 14
t-85.5 7t-98.5 3t-118.5 0.5h-57l-150 -600h336l170 229h33l-139 -555h-33l-54 236h-337l-107 -428q-44 -152 -20 -197t178 -57l-10 -39h-650z" />
    <glyph glyph-name="G" unicode="G" horiz-adv-x="1562" 
d="M739 -27q-300 0 -468.5 161.5t-168.5 447.5q0 117 34 234t94.5 220.5t148.5 192.5t192.5 153.5t231 101t258.5 36.5q120 0 255 -35t206 -78l-74 -412h-37q3 132 -19.5 220.5t-72 139t-117.5 71t-166 20.5q-122 0 -233 -58t-191.5 -152.5t-141 -212.5t-90.5 -242t-30 -236
q0 -104 25.5 -192.5t75.5 -156.5t129.5 -106.5t181.5 -38.5q73 0 137.5 17.5t120 64.5t74.5 119l30 121q12 43 18.5 72t9.5 56t2 43.5t-8.5 32t-19.5 23.5t-32.5 14.5t-44.5 10t-60 6.5l10 41h560l-11 -41q-92 -12 -124.5 -56.5t-71.5 -201.5l-60 -242
q-118 -75 -267.5 -116.5t-285.5 -41.5z" />
    <glyph glyph-name="H" unicode="H" horiz-adv-x="1751" 
d="M1579 1186l-221 -887q-11 -46 -18 -76.5t-8.5 -58t-1 -43.5t11 -30.5t19 -21t33 -13.5t43.5 -10t58 -9l-8 -37h-631l8 37q56 8 81 12t57 16t45 25.5t31 43.5t29 67t26 98l104 422h-700l-105 -422q-11 -46 -18 -76.5t-8.5 -58t-1 -43.5t11 -30.5t19 -21t33 -13.5t43.5 -10
t58 -9l-8 -37h-631l9 37q42 6 62.5 9t48.5 10t40 14t30 21t26 30t20.5 43t21 58t19.5 77l221 887q11 46 18 76.5t8.5 58t1 43.5t-11 30.5t-19 21t-33 13.5t-43.5 10t-58 9l8 37h631l-8 -37q-56 -8 -81 -12t-57 -16t-45 -25.5t-31 -43.5t-29 -67t-26 -98l-94 -375h701l94 375
q11 46 18 76.5t8.5 58t1 43.5t-11 30.5t-19 21t-33 13.5t-43.5 10t-58 9l8 37h630l-8 -37q-42 -6 -62.5 -9t-48.5 -10t-40 -14t-30 -21t-26 -30t-20.5 -43t-21 -58t-19.5 -77z" />
    <glyph glyph-name="I" unicode="I" horiz-adv-x="825" 
d="M653 1186l-221 -887q-11 -46 -18 -76.5t-8.5 -58t-1 -43.5t11 -30.5t19 -21t33 -13.5t43.5 -10t58 -9l-8 -37h-631l9 37q42 6 62.5 9t48.5 10t40 14t30 21t26 30t20.5 43t21 58t19.5 77l221 887q11 46 18 76.5t8.5 58t1 43.5t-11 30.5t-19 21t-33 13.5t-43.5 10t-58 9
l8 37h631l-8 -37q-56 -8 -81 -12t-57 -16t-45 -25.5t-31 -43.5t-29 -67t-26 -98z" />
    <glyph glyph-name="J" unicode="J" horiz-adv-x="925" 
d="M797 1186l-174 -707q-29 -119 -73 -210t-93 -146t-108 -89.5t-113 -47.5t-113 -13q-56 0 -126 8.5t-108 20.5l70 274h23q23 -111 68.5 -170t109.5 -59q19 0 33.5 4t34 17t37.5 41t38.5 72.5t43 116.5t46.5 167l178 721q11 46 18 76.5t8.5 58t1 43.5t-11 30.5t-19 21
t-33 13.5t-43.5 10t-58 9l8 37h631l-8 -37q-42 -6 -62.5 -9t-48.5 -10t-40 -14t-30 -21t-26 -30t-20.5 -43t-21 -58t-19.5 -77z" />
    <glyph glyph-name="K" unicode="K" horiz-adv-x="1560" 
d="M653 1186l-221 -887q-11 -46 -18 -76.5t-8.5 -58t-1 -43.5t11 -30.5t19 -21t33 -13.5t43.5 -10t58 -9l-8 -37h-631l9 37q42 6 62.5 9t48.5 10t40 14t30 21t26 30t20.5 43t21 58t19.5 77l221 887q11 46 18 76.5t8.5 58t1 43.5t-11 30.5t-19 21t-33 13.5t-43.5 10t-58 9
l8 37h631l-8 -37q-56 -8 -81 -12t-57 -16t-45 -25.5t-31 -43.5t-29 -67t-26 -98zM549 764l522 410q195 153 219 208q19 42 -43 57q-25 6 -65 9l8 37h477l-6 -37q-99 -13 -170 -55t-305 -222l-432 -329l385 -613q29 -45 40 -62.5t32 -45t34.5 -36.5t36 -22t47.5 -17.5
t60 -8.5l-7 -37h-561l6 37q103 7 116.5 34t-40.5 115z" />
    <glyph glyph-name="L" unicode="L" horiz-adv-x="1269" 
d="M653 1186l-258 -1022q-12 -52 3 -73t69 -21q76 0 127 1.5t108.5 7.5t97.5 17.5t85.5 30.5t80.5 46.5t75 67t77 90.5t78 118h39l-193 -451q-154 2 -452 2h-660l9 37q42 6 62.5 9t48.5 10t40 14t30 21t26 30t20.5 43t21 58t19.5 77l221 887q11 46 18 76.5t8.5 58t1 43.5
t-11 30.5t-19 21t-33 13.5t-43.5 10t-58 9l8 37h631l-8 -37q-56 -8 -81 -12t-56.5 -16t-44.5 -25.5t-31 -43.5t-29 -67t-27 -98z" />
    <glyph glyph-name="M" unicode="M" horiz-adv-x="1980" 
d="M2107 1485l-8 -37q-42 -6 -62.5 -9t-48.5 -10t-40 -14t-30 -21t-26 -30t-20.5 -43t-21 -58t-19.5 -77l-221 -887q-11 -46 -18 -76.5t-8.5 -58t-1 -43.5t11 -30.5t19 -21t33 -13.5t43.5 -10t58 -9l-8 -37h-631l8 37q42 6 62.5 9t48.5 10t40 14t30 21t26 30t20.5 43t21 58
t19.5 77l246 989l-815 -1233h-39l-221 1264l-254 -1020q-11 -46 -18 -76.5t-8.5 -58t-1 -43.5t11 -30.5t19 -21t33 -13.5t43.5 -10t58 -9l-8 -37h-500l9 37q42 6 62.5 9t48.5 10t40 14t30 21t26 30t20.5 43t21 58t19.5 77l221 887q11 46 18 76.5t8.5 58t1 43.5t-11 30.5
t-19 21t-33 13.5t-43.5 10t-58 9l8 37h459l188 -1073l703 1073h458z" />
    <glyph glyph-name="N" unicode="N" horiz-adv-x="1667" 
d="M1427 1186q11 46 18 76.5t8.5 58t1 43.5t-11 30.5t-19 21t-33 13.5t-43.5 10t-58 9l10 37h500l-10 -37q-42 -6 -62.5 -9t-48.5 -10t-40 -14t-30 -21t-26 -30t-20.5 -43t-21 -58t-19.5 -77l-301 -1206h-84l-627 1177l-213 -858q-11 -46 -18 -76.5t-8.5 -58t-1 -43.5
t11 -30.5t19 -21t33 -13.5t43.5 -10t58 -9l-8 -37h-500l8 37q56 8 81 12t57 16t45 25.5t31 43.5t29 67t26 98l243 975v2q-37 76 -63.5 115.5t-63.5 60.5l9 33h264l620 -1163z" />
    <glyph glyph-name="O" unicode="O" horiz-adv-x="1634" 
d="M102 559q0 143 40 283t118 261.5t183.5 215t246.5 147.5t297 54q170 0 302.5 -66t211 -200.5t78.5 -319.5q0 -178 -64.5 -350.5t-177.5 -308t-282 -219t-363 -83.5q-170 0 -302 66t-210 200t-78 320zM350 522q0 -105 20.5 -189.5t63 -149.5t115 -100.5t170.5 -35.5
q100 0 188.5 42.5t154 115t117.5 166t84 197.5t49 206.5t17 196.5q0 105 -20.5 189.5t-63 149.5t-114.5 100.5t-170 35.5q-100 0 -188.5 -42.5t-154 -115t-118 -165.5t-84.5 -197t-49 -206.5t-17 -197.5z" />
    <glyph glyph-name="P" unicode="P" horiz-adv-x="1318" 
d="M297 1485h217q84 0 192 1t150 1q118 0 215 -21t171.5 -63.5t115.5 -112.5t41 -162q0 -100 -40.5 -187t-109 -148.5t-158 -105.5t-189 -65.5t-200.5 -21.5q-115 0 -194 8l-78 -309q-11 -46 -18 -76.5t-8.5 -58t-1 -43.5t11 -30.5t19 -21t33 -13.5t43.5 -10t58 -9l-8 -37
h-631l9 37q42 6 62.5 9t48.5 10t40 14t30 21t26 30t20.5 43t21 58t19.5 77l221 887q11 46 18 76.5t8.5 58t1 43.5t-11 30.5t-19 21t-33 13.5t-43.5 10t-58 9zM707 1411l-191 -764h19q614 6 614 496q0 134 -84.5 201t-241.5 67h-116z" />
    <glyph glyph-name="Q" unicode="Q" horiz-adv-x="1634" 
d="M102 559q0 143 40 283t118 261.5t183.5 215t246.5 147.5t297 54q170 0 302.5 -66t211 -200.5t78.5 -319.5q0 -167 -56.5 -329.5t-157 -294t-250.5 -221t-324 -109.5l-101 -66l-76 -45l2 -4q68 26 179 26q61 0 111 -16t85 -41.5t65.5 -56t59 -61t58 -56t69.5 -41.5t88 -16
q82 0 117 14l12 -37l-24 -8q-24 -9 -50.5 -16.5t-75.5 -14t-102 -6.5q-90 0 -160.5 22.5t-111.5 55.5t-79 72.5t-65.5 72.5t-68.5 55.5t-90 22.5q-17 0 -32.5 -3t-26.5 -6t-28.5 -12.5t-25.5 -14.5t-31.5 -20.5t-33.5 -21.5l-23 39l275 176h-15q-170 0 -302 66t-210 200
t-78 320zM350 522q0 -105 20.5 -189.5t63 -149.5t115 -100.5t170.5 -35.5q100 0 188.5 42.5t154 115t117.5 166t84 197.5t49 206.5t17 196.5q0 105 -20.5 189.5t-63 149.5t-114.5 100.5t-170 35.5q-100 0 -188.5 -42.5t-154 -115t-118 -165.5t-84.5 -197t-49 -206.5
t-17 -197.5z" />
    <glyph glyph-name="R" unicode="R" horiz-adv-x="1503" 
d="M299 1485h242q73 0 163.5 2t126.5 2q124 0 222.5 -16t177.5 -50.5t121.5 -95.5t42.5 -145q0 -320 -445 -439q40 -43 97 -186l129 -338q21 -56 40 -90t45.5 -53t53.5 -26.5t74 -12.5l-9 -37h-393q-22 119 -88 291l-162 418h-202l-103 -410q-11 -46 -18 -76.5t-8 -58
t-0.5 -43.5t12.5 -30.5t21.5 -21t37 -13.5t48.5 -10t65 -9l-8 -37h-652l9 37q42 6 62.5 9t48.5 10t40 14t30 21t26 30t20.5 43t21 58t19.5 77l221 887q11 46 18 76.5t8.5 58t1 43.5t-11 30.5t-19 21t-33 13.5t-43.5 10t-58 9zM782 1411h-73l-156 -629h74q123 0 214.5 19.5
t161 64t105 121t35.5 184.5q0 122 -90 181t-271 59z" />
    <glyph glyph-name="S" unicode="S" horiz-adv-x="1234" 
d="M1069 412q0 -86 -33 -158.5t-89.5 -123.5t-132.5 -87t-162.5 -53t-178.5 -17q-133 0 -267 33t-210 78l121 504h41q-18 -100 -20 -179.5t8.5 -135.5t35 -97t54.5 -65.5t73 -39t84.5 -19.5t95.5 -5t105.5 10t99.5 32.5t84 55.5t58 81.5t22 107.5q0 79 -56 152t-155 155
l-147 123q-66 54 -103.5 89t-78 83.5t-58.5 98.5t-18 108q0 72 35 138.5t101.5 120.5t174 86t240.5 32q104 0 238 -31.5t196 -75.5l-105 -418h-39q22 105 12.5 182t-35 128.5t-73 83t-100 44.5t-117.5 13q-62 0 -116.5 -12t-102 -36.5t-75 -69t-27.5 -103.5q0 -135 161 -258
l185 -150q41 -35 51 -43.5t47 -41.5t48.5 -47t39 -45t38 -52.5t25.5 -52t20 -60.5t5 -63z" />
    <glyph glyph-name="T" unicode="T" horiz-adv-x="1406" 
d="M498 299l280 1122q-96 0 -157.5 -7t-125 -28t-113.5 -63t-103.5 -110t-114.5 -171h-39l172 449q150 -6 451 -6h317q299 0 453 6l-52 -449h-36q-9 89 -20 147t-33.5 103t-49 68.5t-76.5 38t-105 18.5t-145 4l-278 -1122q-14 -57 -20.5 -91.5t-5 -65t11 -46t34 -28.5
t56 -18.5t84.5 -10.5l-11 -39h-675l10 39q66 6 105 14.5t70 23.5t50.5 45.5t34 69.5t31.5 107z" />
    <glyph glyph-name="U" unicode="U" horiz-adv-x="1624" 
d="M1499 1186l-145 -574q-83 -327 -248.5 -483t-448.5 -156q-122 0 -212 28.5t-143 79.5t-78 125t-22 161.5t29 191.5l156 625q11 46 18 77t8.5 58.5t1 43.5t-10.5 30.5t-19.5 21t-33 14t-43 10.5l-58.5 9l8 37h631l-8 -37q-56 -8 -81 -12t-57 -16t-45 -25.5t-31 -43.5
t-29 -67t-26 -98l-151 -606q-39 -163 -28.5 -276t82 -172.5t204.5 -59.5q407 0 541 538l145 576q12 46 19 77t8.5 58t1 43t-11 30t-19.5 21t-33.5 14t-43.5 10t-58 9l8 37h500l-9 -37q-42 -6 -62.5 -9t-48.5 -10t-40 -13.5t-29.5 -21t-25.5 -30.5t-20.5 -43.5t-21 -58
t-20.5 -76.5z" />
    <glyph glyph-name="V" unicode="V" horiz-adv-x="1564" 
d="M571 -27l-168 1278q-6 45 -10 68.5t-12 48.5t-17.5 36t-27.5 21.5t-40.5 15t-57.5 7.5l8 37h577l-8 -37q-61 -7 -92.5 -14t-58 -22.5t-33.5 -43t-2 -72.5l123 -1007l448 741q147 244 169 315q20 63 -19 83q-26 13 -101 20l8 37h469l-8 -37q-41 -3 -67 -8t-55 -20.5
t-49 -34.5t-52.5 -62.5t-62 -91t-80.5 -131.5l-684 -1127h-97z" />
    <glyph glyph-name="W" unicode="W" horiz-adv-x="2187" 
d="M2349 1485l-10 -37q-64 -5 -98.5 -15t-77.5 -47t-84 -101.5t-107 -184.5l-616 -1127h-88l-88 1074l-580 -1074h-90l-107 1278q-6 65 -12.5 97t-25 55.5t-46.5 31.5t-81 13l8 37h577l-8 -37q-114 -12 -153 -41.5t-33 -110.5l76 -936l456 859l-4 47q-4 42 -7.5 67
t-11.5 46.5t-17 31.5t-29 18.5t-41 12t-58 6.5l8 37h578l-8 -37q-112 -11 -138 -20q-46 -17 -51 -70q-2 -19 0 -47l78 -951l379 695q132 242 147 309q13 55 -25 70q-21 9 -87 14l10 37h465z" />
    <glyph glyph-name="X" unicode="X" horiz-adv-x="1695" 
d="M991 193l-184 460l-330 -329q-180 -181 -187 -236q-5 -31 41 -42q20 -5 70 -9l-8 -37h-528l8 37q50 3 95.5 16t110.5 48t149.5 106t191.5 178l352 354l-203 508q-39 98 -106 148.5t-139 52.5l8 37h612l-8 -37q-81 -3 -119 -22.5t-39.5 -53t17.5 -80.5l151 -379l248 248
q180 181 187 236q5 31 -41 42q-20 5 -70 9l8 37h528l-8 -37q-50 -3 -95.5 -16t-110.5 -48t-149.5 -106t-191.5 -178l-272 -273l238 -589q38 -98 104.5 -148.5t140.5 -52.5l-8 -37h-612l8 37q80 3 118 22.5t39.5 53t-16.5 80.5z" />
    <glyph glyph-name="Y" unicode="Y" horiz-adv-x="1435" 
d="M709 299q-14 -57 -20.5 -92t-5 -65t11.5 -45.5t34 -28.5t55.5 -18.5t83.5 -10.5l-8 -39h-676l9 39q55 5 90 10.5t65.5 18.5t47.5 28.5t34 46t28 65t25 91.5l72 285l-199 665q-32 109 -65 148t-103 51l9 37h573l-8 -37q-111 -12 -153.5 -47t-22.5 -107l176 -592l366 459
q139 174 132 233q-5 42 -87 52l-16 2l8 37h459l-8 -37q-91 -14 -162 -61.5t-158 -159.5l-514 -635z" />
    <glyph glyph-name="Z" unicode="Z" horiz-adv-x="1400" 
d="M248 74h186q88 0 132.5 1t112 5.5t103 14t86.5 27t83.5 44t74 65t77.5 90.5t75 121h39l-175 -448q-150 6 -448 6h-657l4 23l1218 1388h-84q-116 0 -173.5 -2t-138 -12.5t-125 -33t-102.5 -63.5t-105 -104t-99 -154h-37l172 449q150 -6 448 -6h570l-6 -21z" />
    <glyph glyph-name="bracketleft" unicode="[" horiz-adv-x="706" 
d="M-35 -442l502 2023h385l-16 -78h-189l-463 -1868h185l-19 -77h-385z" />
    <glyph glyph-name="backslash" unicode="\" horiz-adv-x="913" 
d="M1128 -147h-135l-1140 1757h137z" />
    <glyph glyph-name="bracketright" unicode="]" horiz-adv-x="706" 
d="M772 1581l-502 -2023h-385l19 77h184l465 1868h-184l18 78h385z" />
    <glyph glyph-name="asciicircum" unicode="^" horiz-adv-x="890" 
d="M555 1485l412 -805h-162l-322 627l-321 -627h-162l412 805h143z" />
    <glyph glyph-name="underscore" unicode="_" horiz-adv-x="1011" 
d="M-51 -145l31 145h905l-31 -145h-905z" />
    <glyph glyph-name="grave" unicode="`" horiz-adv-x="462" 
d="M92 1581h238l76 -346h-39z" />
    <glyph glyph-name="a" unicode="a" horiz-adv-x="1247" 
d="M295 -27q-113 0 -176.5 84t-63.5 234q0 137 62 287t157.5 268.5t220.5 196t242 77.5q40 0 85.5 -10.5t72.5 -30.5l215 41l-115 -448l-110 -443q-9 -36 -12 -54t-2.5 -39.5t11.5 -30.5t33 -9q44 0 118 57t136 160l33 -20q-83 -152 -189.5 -236t-199.5 -84q-102 0 -133 77
t10 222l53 191q-88 -218 -206 -354t-242 -136zM403 123q57 0 123.5 72t126 186.5t110.5 251.5t85 272l18 76q-18 27 -54.5 46.5t-76.5 19.5q-81 0 -154 -47.5t-124.5 -124.5t-89 -171.5t-56 -189.5t-18.5 -178q0 -213 110 -213z" />
    <glyph glyph-name="b" unicode="b" horiz-adv-x="1157" 
d="M373 1249q33 137 31 172q-3 43 -46 54q-29 8 -92 8l10 37l404 125l-115 -449l-145 -565q88 218 206 353.5t242 135.5q113 0 176.5 -83.5t63.5 -233.5q0 -110 -39.5 -230.5t-108.5 -225.5t-154.5 -190t-185.5 -134.5t-194 -49.5q-97 0 -185.5 39.5t-150.5 89.5zM315 188
l-20 -75q15 -28 52.5 -47t80.5 -19q100 0 186.5 72.5t140.5 182t84.5 230.5t30.5 226q0 213 -112 213q-74 0 -163.5 -124t-161.5 -300.5t-118 -358.5z" />
    <glyph glyph-name="c" unicode="c" horiz-adv-x="976" 
d="M55 295q0 140 60 290t154 267t218 192.5t244 75.5q272 0 227 -319l-198 -13q6 29 10 50t7.5 50t3 49.5t-5.5 42.5t-16 35.5t-30 22.5t-45 9q-80 0 -156.5 -71.5t-128 -178.5t-83 -229t-31.5 -226t39 -162.5t116 -58.5q106 0 209.5 82.5t173.5 232.5l35 -22
q-96 -215 -227 -328t-287 -113q-135 0 -212 84t-77 238z" />
    <glyph glyph-name="d" unicode="d" horiz-adv-x="1247" 
d="M934 1249q12 47 17 69t10.5 52.5t4.5 42.5t-5.5 28.5t-14 21.5t-26.5 11.5t-39 7.5t-54 1l11 37l403 125l-115 -449l-241 -967q-9 -36 -12 -54t-2.5 -39.5t11.5 -30.5t33 -9q44 0 118 57t136 160l33 -20q-83 -152 -189.5 -236t-199.5 -84q-204 0 -123 299l53 193
q-88 -219 -206.5 -355.5t-241.5 -136.5q-113 0 -176.5 84.5t-63.5 235.5q0 92 28.5 191.5t76.5 190t115 172.5t141.5 142t158 95.5t162.5 35.5q36 0 80.5 -10.5t73.5 -28.5zM403 123q57 0 123.5 71.5t126 186t110.5 251t85 271.5l18 78q-16 26 -53 46t-78 20
q-81 0 -154 -47.5t-124.5 -124t-89 -170.5t-56 -189t-18.5 -178q0 -215 110 -215z" />
    <glyph glyph-name="e" unicode="e" horiz-adv-x="991" 
d="M55 295q0 141 59 290t153 266.5t220 193t250 75.5q30 0 62 -5.5t66.5 -20t61 -35.5t43.5 -55.5t17 -77.5q0 -67 -32.5 -121t-94 -92.5t-137.5 -66t-176 -48.5l-238 -49q-24 -108 -24 -207q0 -104 39 -162.5t116 -58.5q106 0 209.5 81t173.5 230l35 -22
q-95 -214 -226 -325.5t-288 -111.5q-135 0 -212 84t-77 238zM680 1047q-76 0 -148 -64t-122.5 -160t-83.5 -213l108 21q168 29 257 106.5t89 188.5q0 51 -24 86t-76 35z" />
    <glyph glyph-name="f" unicode="f" horiz-adv-x="894" 
d="M115 0l254 1022h-181l21 80h180l2 6q53 212 224.5 343.5t400.5 131.5q41 0 61 -2l-63 -248h-23q-67 135 -174 135q-37 0 -71.5 -13t-69.5 -43.5t-58 -93t-26 -149.5l-4 -67h348l-21 -80h-340l-251 -1022h-209z" />
    <glyph glyph-name="g" unicode="g" horiz-adv-x="1196" 
d="M201 688q0 125 76 226.5t185.5 153.5t221.5 52q68 0 123 -18h422l-21 -80h-266q80 -83 80 -193q0 -125 -76 -226.5t-185.5 -153.5t-221.5 -52q-75 0 -136 21q-118 -75 -118 -131q0 -28 27.5 -39.5t86.5 -14.5l197 -12q165 -8 247.5 -55.5t82.5 -142.5q0 -86 -41.5 -163.5
t-109.5 -133.5t-154 -97.5t-177.5 -62.5t-177.5 -21q-180 0 -269 61.5t-89 157.5q0 183 350 269q-75 13 -118.5 53.5t-43.5 93.5q0 27 9.5 52.5t20.5 44.5t37 40.5t41 33.5t52 32t50.5 26.5t53.5 26.5q-73 37 -116 103.5t-43 148.5zM508 16l-191 11h-2q-87 -32 -151 -99
t-64 -147q0 -154 201 -154q73 0 149 18.5t142 52t108.5 88.5t42.5 120q0 54 -58 79t-177 31zM829 872q0 179 -151 179q-60 0 -110 -30t-81.5 -75t-53.5 -101.5t-31 -107t-9 -92.5q0 -178 152 -178q60 0 110 29.5t81.5 75t53 101.5t30.5 106.5t9 92.5z" />
    <glyph glyph-name="h" unicode="h" horiz-adv-x="1222" 
d="M416 584q138 281 248 408.5t225 127.5q105 0 144.5 -94.5t-7.5 -271.5l-152 -525q-21 -55 -16 -94t47 -39q44 0 118 57t136 160l33 -20q-83 -152 -189.5 -236t-199.5 -84q-103 0 -134.5 77t11.5 222l127 433q24 79 34.5 130.5t8.5 82.5t-14 43t-37 12q-71 0 -173.5 -138
t-187 -320.5t-121.5 -328.5l-47 -186h-202l311 1249q12 47 17 69t10.5 52.5t4.5 42.5t-5.5 28.5t-14 21.5t-26.5 11.5t-39 7.5t-54 1l11 37l403 125l-115 -449z" />
    <glyph glyph-name="i" unicode="i" horiz-adv-x="681" 
d="M236 725q33 136 31 171q-3 42 -45 54q-28 8 -93 8l10 37l406 125q-95 -358 -117 -448l-109 -443q-18 -57 -14 -95t45 -38q44 0 118 57t136 160l33 -20q-83 -152 -189.5 -236t-199.5 -84q-103 0 -132 76.5t9 222.5zM637 1452q0 -60 -41.5 -99.5t-101.5 -39.5
q-61 0 -103.5 40t-42.5 99q0 58 43 98.5t103 40.5t101.5 -40.5t41.5 -98.5z" />
    <glyph glyph-name="j" unicode="j" horiz-adv-x="643" 
d="M281 725q9 38 14 56.5t10.5 45.5t6.5 38.5t0.5 29t-4.5 23.5t-11 16t-17.5 12.5t-26.5 6.5t-34.5 4.5t-44.5 0.5l10 37l406 125q-80 -301 -117 -448l-119 -475q-22 -89 -47 -157t-68 -143t-100 -136t-142.5 -122.5t-197.5 -115.5l-8 20q82 70 141 142t98 153t62.5 151.5
t48.5 174.5zM684 1452q0 -60 -41.5 -99.5t-101.5 -39.5q-61 0 -103.5 40t-42.5 99q0 58 43 98.5t103 40.5t101.5 -40.5t41.5 -98.5z" />
    <glyph glyph-name="k" unicode="k" horiz-adv-x="1175" 
d="M379 1249q12 47 17 69t10.5 52.5t4.5 42.5t-5.5 28.5t-14 21.5t-26.5 11.5t-39 7.5t-54 1l11 37l403 125l-115 -449l-301 -1196h-202zM571 166l-149 426l350 295q46 39 71.5 67.5t33.5 53.5t-16 40.5t-79 20.5l9 33h417l-10 -33q-75 -5 -127.5 -35t-160.5 -116
q-24 -20 -38 -31l-270 -228l158 -426q32 -85 59.5 -111t71.5 -26q83 0 174 144l31 -21q-131 -246 -314 -246q-47 0 -83.5 16.5t-60.5 47.5t-38.5 60t-28.5 69z" />
    <glyph glyph-name="l" unicode="l" horiz-adv-x="692" 
d="M379 1249q12 47 17 69t10.5 52.5t4.5 42.5t-5.5 28.5t-14 21.5t-26.5 11.5t-39 7.5t-54 1l11 37l403 125l-115 -449l-239 -967q-9 -36 -12 -54t-2.5 -39.5t11.5 -30.5t33 -9q44 0 118 57t136 160l33 -20q-83 -152 -189.5 -236t-199.5 -84q-104 0 -133 76.5t10 222.5z" />
    <glyph glyph-name="m" unicode="m" horiz-adv-x="1787" 
d="M1356 -27q-103 0 -134.5 77t11.5 222l127 433q24 79 34.5 130.5t8.5 82.5t-14 43t-37 12q-67 0 -163 -122t-182.5 -304t-134.5 -359l-51 -188h-200l186 705q22 82 32 132t9 81.5t-13 43t-36 11.5q-71 0 -173.5 -138t-187 -320.5t-121.5 -328.5l-47 -186h-202l182 725
q9 38 14 56.5t10.5 45.5t6.5 38.5t0.5 29t-4.5 23.5t-11 16t-17.5 12.5t-26.5 6.5t-34.5 4.5t-44.5 0.5l11 37l397 123l-135 -534q138 281 248 408.5t225 127.5q104 0 142.5 -94.5t-5.5 -271.5l-33 -121q129 255 234 371t215 116q105 0 144.5 -94.5t-7.5 -271.5l-152 -525
q-21 -55 -16 -94t47 -39q44 0 118 57t136 160l33 -20q-83 -152 -189.5 -236t-199.5 -84z" />
    <glyph glyph-name="n" unicode="n" horiz-adv-x="1236" 
d="M551 1118l-135 -534q138 281 248 408.5t225 127.5q105 0 144.5 -94.5t-7.5 -271.5l-152 -525q-21 -55 -16 -94t47 -39q44 0 118 57t136 160l33 -20q-83 -152 -189.5 -236t-199.5 -84q-103 0 -134.5 77t11.5 222l127 433q24 79 34.5 130.5t8.5 82.5t-14 43t-37 12
q-71 0 -173.5 -138t-187 -320.5t-121.5 -328.5l-47 -186h-202l182 725q9 38 14 56.5t10.5 45.5t6.5 38.5t0.5 29t-4.5 23.5t-11 16t-17.5 12.5t-26.5 6.5t-34.5 4.5t-44.5 0.5l11 37z" />
    <glyph glyph-name="o" unicode="o" horiz-adv-x="1130" 
d="M829 729q0 62 -9 115t-28.5 100.5t-57 75t-89.5 27.5q-73 0 -133.5 -51t-98.5 -127.5t-64 -171.5t-37 -178t-11 -152q0 -62 9 -115.5t28.5 -101.5t57 -75.5t89.5 -27.5q73 0 133.5 51t98.5 128t64 172t37 178.5t11 152.5zM68 436q0 150 54 281.5t139 217.5t188 135.5
t204 49.5q174 0 292 -132t118 -329q0 -121 -35 -230.5t-94.5 -191t-135 -142t-158.5 -91.5t-163 -31q-174 0 -291.5 132.5t-117.5 330.5z" />
    <glyph glyph-name="p" unicode="p" horiz-adv-x="1163" 
d="M553 1118l-127 -487q89 218 208 353.5t243 135.5q113 0 175 -83t62 -234q0 -138 -61.5 -288t-157.5 -269t-220.5 -196t-242.5 -77q-96 0 -153 35l-109 -450h-209l291 1167q9 38 14 56.5t10.5 45.5t6.5 38.5t0.5 29t-4.5 23.5t-11 16t-17.5 12.5t-26.5 6.5t-34.5 4.5
t-44.5 0.5l11 37zM324 188l-19 -77q15 -27 51 -45.5t78 -18.5q101 0 188 72.5t141.5 182t85 230.5t30.5 226q0 213 -113 213q-74 0 -163.5 -124t-162 -300.5t-116.5 -358.5z" />
    <glyph glyph-name="q" unicode="q" horiz-adv-x="1136" 
d="M514 -442l229 905q-88 -218 -206 -354t-242 -136q-113 0 -176.5 84t-63.5 234q0 137 62 287t157.5 268.5t220.5 196t242 77.5q40 0 85.5 -10.5t72.5 -30.5l215 41q-7 -29 -50 -192t-65 -256l-274 -1114h-207zM403 123q57 0 123.5 72t126 186.5t110.5 251.5t85 272l18 84
q-20 24 -56.5 41t-74.5 17q-81 0 -154 -47.5t-124.5 -124.5t-89 -171.5t-56 -189.5t-18.5 -178q0 -213 110 -213z" />
    <glyph glyph-name="r" unicode="r" horiz-adv-x="872" 
d="M549 1118l-49 -200q196 202 401 202q5 0 16.5 -1t16.5 -1l-66 -258h-20q-71 64 -182 64q-114 0 -179 -52l-211 -872h-208l180 725q9 38 14 56.5t10.5 45.5t6.5 38.5t0.5 29t-4.5 23.5t-11 16t-17.5 12.5t-26.5 6.5t-34.5 4.5t-44.5 0.5l11 37z" />
    <glyph glyph-name="s" unicode="s" horiz-adv-x="966" 
d="M750 297q0 -102 -65.5 -177.5t-162 -111t-205.5 -35.5q-97 0 -179 20.5t-132 53.5l117 387h39q-32 -203 5 -295t169 -92q79 0 145 49.5t66 139.5q0 87 -64 172l-98 129q-31 41 -49 66t-41 65t-34 78t-11 77q0 71 38 129t99 94t132.5 55t142.5 19q156 0 266 -67l-109 -342
h-41q39 185 0.5 260.5t-155.5 75.5q-70 0 -124.5 -40t-54.5 -118q0 -40 20 -79.5t58 -92.5l94 -129q72 -100 103 -162.5t31 -128.5z" />
    <glyph glyph-name="t" unicode="t" horiz-adv-x="817" 
d="M141 272l183 750h-181l21 80h180l51 198l240 138l-84 -336h309l-18 -80h-312l-194 -793q-18 -57 -14 -95t45 -38q51 0 131.5 57t142.5 160l33 -20q-81 -150 -195.5 -235t-214.5 -85q-103 0 -132 76.5t9 222.5z" />
    <glyph glyph-name="u" unicode="u" horiz-adv-x="1236" 
d="M233 725q11 38 17 61t11.5 49t5.5 40t-1 29.5t-8.5 23t-17.5 14.5t-27 10t-37 4.5t-49 1.5l10 37l406 125l-203 -733q-23 -81 -32.5 -131t-7.5 -81t15 -42.5t39 -11.5q68 0 169 137.5t185 320t121 328.5l50 195h208l-225 -873q-19 -57 -15 -95t46 -38q44 0 118 57
t136 160l33 -20q-83 -152 -189.5 -236t-199.5 -84q-103 0 -129 75.5t12 223.5l57 242q-136 -280 -246.5 -410.5t-218.5 -130.5q-109 0 -150 99.5t5 265.5z" />
    <glyph glyph-name="v" unicode="v" horiz-adv-x="1134" 
d="M317 -27l-145 969q-10 71 -27 92t-71 33l6 35h450l-8 -35q-74 -13 -103.5 -28t-34.5 -44t7 -77l88 -631l352 524q37 55 57.5 88.5t32.5 62.5t12.5 44t-12 28t-32 19.5t-55.5 13.5l8 35h360l-6 -35q-76 -15 -112.5 -46t-110.5 -140l-615 -908h-41z" />
    <glyph glyph-name="w" unicode="w" horiz-adv-x="1613" 
d="M854 -27l-74 818l-481 -818h-39l-88 969q-4 50 -14.5 74t-27 33t-56.5 18l6 35h440l-6 -35q-36 -7 -56 -11.5t-38 -13t-25 -16.5t-11.5 -25t-4 -34.5t3.5 -48.5l45 -582l451 766h75l68 -766l289 475q35 58 54.5 92t31 63.5t11.5 43.5t-12.5 26.5t-30 17.5t-52.5 13l6 35
h362l-6 -35q-81 -15 -119 -46.5t-104 -139.5l-557 -908h-41z" />
    <glyph glyph-name="x" unicode="x" horiz-adv-x="1271" 
d="M928 160q27 -67 56.5 -91t88.5 -32l-8 -37h-487l8 37q36 4 56.5 7.5t36.5 11.5t21 16t4 25t-7.5 35.5t-20.5 51.5l-111 271l-170 -172q-133 -136 -148 -182q-14 -42 44 -56q19 -5 49 -8l-8 -37h-436l8 37q95 12 176.5 65.5t222.5 196.5l229 236l-163 407q-27 67 -57 91
t-89 32l8 37h488l-8 -37q-37 -4 -56.5 -7.5t-35.5 -11.5t-20.5 -15t-3.5 -25t7 -35.5t19 -52.5l84 -209l108 110q136 136 150 184q11 42 -50 55l-45 7l9 37h436l-8 -37q-95 -12 -177 -65.5t-223 -196.5l-170 -172z" />
    <glyph glyph-name="y" unicode="y" horiz-adv-x="1218" 
d="M395 -104q-136 -201 -242.5 -275t-228.5 -74q-53 0 -137 15l57 227h17q60 -51 153 -51q90 0 158 39.5t133 140.5l51 76l-141 948q-11 74 -27 95t-71 28l6 37h452l-6 -37q-38 -8 -60 -13.5t-39.5 -14.5t-24.5 -16.5t-10.5 -24.5t-2.5 -32t4 -46l94 -676l373 569
q38 57 56.5 91.5t27.5 63t-2 45.5t-34 29.5t-66 24.5l6 37h395l-8 -37q-61 -15 -90.5 -31t-54.5 -45.5t-78 -107.5z" />
    <glyph glyph-name="z" unicode="z" horiz-adv-x="1116" 
d="M496 0h-514l4 18l839 996h-137q-125 0 -202 -27t-131 -92t-101 -188h-43l135 399q113 -4 326 -4h450l-6 -21l-837 -993h200q186 0 276.5 63.5t157.5 243.5h41l-131 -399q-113 4 -327 4z" />
    <glyph glyph-name="braceleft" unicode="{" horiz-adv-x="737" 
d="M379 -442h-90q-250 0 -250 176q0 34 10 76l121 489q18 70 18 119q0 121 -120 121l18 67q42 0 76 15t56.5 37t40.5 56t28.5 64t19.5 68l121 483q26 104 62.5 155.5t106 74t196.5 22.5h90l-19 -78h-26q-55 0 -89.5 -8.5t-57.5 -31t-36.5 -51.5t-27.5 -81l-115 -465
q-35 -144 -105 -208.5t-194 -82.5v-6q74 -23 119 -67.5t45 -130.5q0 -39 -12 -92l-115 -472q-17 -63 -17 -92q0 -43 31 -61.5t107 -18.5h26z" />
    <glyph glyph-name="bar" unicode="|" horiz-adv-x="495" 
d="M340 -184h-147v1669h147v-1669z" />
    <glyph glyph-name="braceright" unicode="}" horiz-adv-x="708" 
d="M365 1581h88q249 0 249 -176q0 -34 -10 -76l-121 -491q-18 -70 -18 -117q0 -121 121 -121l-17 -68q-42 0 -76 -14.5t-56.5 -37t-40.5 -56t-28.5 -63.5t-19.5 -68l-121 -483q-26 -104 -62.5 -155.5t-105.5 -74t-196 -22.5h-90l18 77h27q104 0 143.5 35.5t65.5 136.5
l114 465q35 143 106 208t193 83v4q-163 52 -163 199q0 40 12 92l117 473q14 65 14 92q0 43 -30 61.5t-105 18.5h-27z" />
    <glyph glyph-name="asciitilde" unicode="~" horiz-adv-x="1122" 
d="M57 422q7 134 85 207t202 73q66 0 138.5 -23.5t123.5 -52t108.5 -52t98.5 -23.5q60 0 99.5 38.5t43.5 112.5h142q-9 -134 -86 -207t-199 -73q-57 0 -125 23.5t-120.5 52t-114.5 52t-109 23.5q-60 0 -99.5 -38t-43.5 -113h-144z" />
    <glyph glyph-name="uni00A0" unicode="&#xa0;" horiz-adv-x="430" 
 />
    <glyph glyph-name="exclamdown" unicode="&#xa1;" horiz-adv-x="733" 
d="M279 -397q-10 -40 -84 -53t-120 11q-30 16 -24 42l115 456l240 594h40l-53 -596zM477 825q-60 0 -103.5 44t-43.5 104t43.5 103.5t103.5 43.5t104 -43.5t44 -103.5t-44 -104t-104 -44z" />
    <glyph glyph-name="cent" unicode="&#xa2;" horiz-adv-x="1187" 
d="M416 -209l47 193q-170 29 -266.5 153t-96.5 309q0 131 43 251.5t119 213t191 148t249 55.5q29 0 41 -2l45 180h97l-49 -194q139 -32 220 -126.5t93 -228.5h-199q0 220 -133 277l-242 -973q123 0 209 75t113 224h199q-50 -173 -196.5 -273t-332.5 -100h-10l-45 -182h-96z
M313 412q0 -139 42 -230t126 -121l244 977q-8 2 -25 2q-85 0 -154 -46t-111 -115t-70.5 -156.5t-40 -165t-11.5 -145.5z" />
    <glyph glyph-name="sterling" unicode="&#xa3;" horiz-adv-x="1359" 
d="M528 1071q0 -16 1 -33.5t2.5 -30t5 -32.5t5 -29t7 -31t7 -27.5t8 -30.5t7.5 -28h426l-20 -92h-383q12 -74 12 -108q0 -264 -332 -428l2 -4q88 36 168 36q81 0 198 -46t198 -46q104 0 256 62l55 -164q-56 -27 -155 -48.5t-181 -21.5q-89 0 -223.5 41t-212.5 41
q-46 0 -104 -13.5t-100 -28.5t-116 -44l-53 150q176 61 285.5 192.5t109.5 306.5q0 51 -14 123h-246l19 92h202q-1 5 -8 32t-9.5 36t-8 32t-7.5 36t-5 33t-4 37.5t-1 35.5q0 208 153.5 328.5t410.5 120.5q227 0 366.5 -114.5t143.5 -311.5h-209q0 170 -78.5 261t-231.5 91
q-174 0 -260 -101t-86 -274z" />
    <glyph glyph-name="currency" unicode="&#xa4;" horiz-adv-x="1320" 
d="M672 227q-169 0 -303 105l-142 -142l-94 93l143 145q-96 129 -96 293q0 162 94 293l-141 145l94 90l140 -139q132 107 305 107q177 0 313 -111l143 143l95 -90l-148 -149q94 -131 94 -289t-96 -291l150 -147l-95 -93l-147 144q-132 -107 -309 -107zM670 1096
q-152 0 -251.5 -107.5t-99.5 -267.5q0 -158 99.5 -264.5t251.5 -106.5q160 0 262 106t102 265q0 160 -102.5 267.5t-261.5 107.5z" />
    <glyph glyph-name="yen" unicode="&#xa5;" horiz-adv-x="1509" 
d="M1137 291h-412q-13 -55 -19 -88t-4.5 -62.5t11.5 -45t33.5 -29t55 -20t83.5 -13.5l-6 -33h-654l6 33q83 10 125.5 21t76.5 41t51.5 72t39.5 124h-377l23 92h377l37 154h-373l20 90h353l-168 639q-28 106 -59.5 140t-104.5 46l8 33h539l-8 -33q-40 -4 -63.5 -8t-46 -11
t-33 -16t-17 -23.5t-5.5 -34.5t7 -48l151 -606l310 374q187 228 199 302q8 49 -49 63l-46 8l6 33h414l-6 -33q-89 -13 -162.5 -77.5t-239.5 -274.5l-379 -473h390l-23 -90h-412l-38 -154h411z" />
    <glyph glyph-name="brokenbar" unicode="&#xa6;" horiz-adv-x="495" 
d="M193 1485h147v-625h-147v625zM193 440h147v-624h-147v624z" />
    <glyph glyph-name="section" unicode="&#xa7;" horiz-adv-x="1239" 
d="M1004 1178q0 110 -72 189t-193 79q-101 0 -165 -52t-64 -145q0 -60 40.5 -120t113.5 -105l274 -172q102 -64 159.5 -136t57.5 -163q0 -271 -369 -371q123 -120 123 -254q0 -120 -62.5 -208.5t-161 -130.5t-216.5 -42q-123 0 -225 44t-167 135t-69 215h195q2 -142 73 -229
t197 -87q101 0 173.5 66t72.5 174q0 79 -41.5 141.5t-132.5 118.5l-236 147q-101 64 -159 140t-58 180q0 251 365 344q-133 111 -133 270q0 58 27.5 113t79 100.5t135 73t186.5 27.5q117 0 212.5 -38t158 -117t69.5 -187h-188zM676 268q57 -40 61 -43q101 36 165.5 99
t64.5 153q0 74 -47.5 132t-141.5 118l-235 147l-37 23q-101 -28 -166.5 -94.5t-65.5 -161.5q0 -126 154 -219z" />
    <glyph glyph-name="dieresis" unicode="&#xa8;" horiz-adv-x="763" 
d="M41 1454q0 54 36 90.5t91 36.5q53 0 89 -36.5t36 -90.5q0 -56 -36 -92.5t-89 -36.5q-56 0 -91.5 36t-35.5 93zM487 1454q0 54 37 90.5t92 36.5q52 0 88.5 -36.5t36.5 -90.5q0 -56 -36.5 -92.5t-88.5 -36.5q-56 0 -92.5 36t-36.5 93z" />
    <glyph glyph-name="copyright" unicode="&#xa9;" horiz-adv-x="1714" 
d="M877 -27q-213 0 -388.5 95.5t-279 272t-103.5 398.5q0 223 103.5 400t279 273.5t388.5 96.5q157 0 297.5 -57t243.5 -157t163.5 -244.5t60.5 -311.5t-60.5 -311t-163.5 -243t-243.5 -155.5t-297.5 -56.5zM877 1391q-178 0 -323.5 -81t-230.5 -231t-85 -340
q0 -189 85 -338t230.5 -230t323.5 -81q134 0 251 47.5t201.5 132t133 206t48.5 263.5q0 191 -83.5 340.5t-227.5 230.5t-323 81zM625 750q0 -145 70.5 -228.5t172.5 -83.5q81 0 146.5 40.5t87.5 121.5l127 -37q-37 -106 -127.5 -173.5t-233.5 -67.5q-179 0 -279 114
t-100 314q0 196 105.5 307.5t284.5 111.5q138 0 225.5 -68.5t118.5 -182.5l-125 -41q-20 83 -83.5 128.5t-146.5 45.5q-103 0 -173 -78t-70 -223z" />
    <glyph glyph-name="ordfeminine" unicode="&#xaa;" horiz-adv-x="759" 
d="M506 1122q-38 -98 -93.5 -156.5t-119.5 -58.5q-63 0 -100 49t-37 136q0 101 51.5 204.5t138 172.5t178.5 69q56 0 88 -22l154 22q-4 -13 -68 -250l-57 -235q-8 -28 -8 -41q0 -31 26 -31q27 0 64 32.5t70 84.5l18 -11q-48 -89 -105 -134.5t-112 -45.5q-50 0 -77.5 30
t-27.5 83q0 26 17 102zM373 999q42 0 97 103.5t95 267.5l23 98q-19 31 -58 31q-58 0 -106 -70.5t-72 -163t-24 -173.5q0 -93 45 -93z" />
    <glyph glyph-name="guillemotleft" unicode="&#xab;" horiz-adv-x="1161" 
d="M805 78l-301 481l534 479h107l-397 -479l151 -481h-94zM385 78l-301 481l534 479h107l-397 -479l151 -481h-94z" />
    <glyph glyph-name="logicalnot" unicode="&#xac;" 
d="M1030 760h-940v135h1086v-692h-146v557z" />
    <glyph glyph-name="uni00AD" unicode="&#xad;" horiz-adv-x="798" 
d="M104 477l48 180h575l-47 -180h-576z" />
    <glyph glyph-name="registered" unicode="&#xae;" horiz-adv-x="1714" 
d="M877 -27q-213 0 -388.5 95.5t-279 272t-103.5 398.5q0 223 103.5 400t279 273.5t388.5 96.5q157 0 297.5 -57t243.5 -157t163.5 -244.5t60.5 -311.5t-60.5 -311t-163.5 -243t-243.5 -155.5t-297.5 -56.5zM877 1391q-178 0 -323.5 -81t-230.5 -231t-85 -340
q0 -189 85 -338t230.5 -230t323.5 -81q134 0 251 47.5t201.5 132t133 206t48.5 263.5q0 191 -83.5 340.5t-227.5 230.5t-323 81zM1100 358l-168 320q-14 -2 -45 -2h-172v-318h-129v813h245q77 0 131.5 -5.5t104.5 -21t80 -42t47.5 -70.5t17.5 -106q0 -72 -37.5 -130
t-111.5 -89l184 -349h-147zM883 795q101 0 147.5 31.5t46.5 97.5q0 70 -53 97.5t-150 27.5h-159v-254h168z" />
    <glyph glyph-name="macron" unicode="&#xaf;" horiz-adv-x="655" 
d="M614 1362h-606l33 139h606z" />
    <glyph glyph-name="degree" unicode="&#xb0;" horiz-adv-x="700" 
d="M367 901q-125 0 -214.5 89t-89.5 216q0 128 89.5 216.5t214.5 88.5q128 0 217.5 -88.5t89.5 -216.5q0 -127 -89.5 -216t-217.5 -89zM367 1391q-73 0 -118.5 -53.5t-45.5 -131.5t45.5 -131t118.5 -53q76 0 123 53t47 131q0 79 -47 132t-123 53z" />
    <glyph glyph-name="plusminus" unicode="&#xb1;" 
d="M551 743v361h141v-361h492v-135h-492v-372h-141v372h-492v135h492zM1184 0h-1125v135h1125v-135z" />
    <glyph glyph-name="twosuperior" unicode="&#xb2;" horiz-adv-x="649" 
d="M16 897l7 14q181 130 301 231t178 172t79 117.5t21 90.5q0 62 -38 94.5t-95 32.5q-71 0 -124.5 -32.5t-78.5 -100.5h-35q27 107 119 172t211 65q85 0 149 -46t64 -122q0 -36 -5 -59t-20 -53t-49.5 -65.5t-88 -83.5t-140.5 -120q-11 -9 -211 -164h404l-37 -143h-611z" />
    <glyph glyph-name="threesuperior" unicode="&#xb3;" horiz-adv-x="686" 
d="M305 883q-106 0 -190 39l55 215h20q0 -96 43 -151.5t107 -55.5q85 0 149 60.5t64 137.5q0 158 -176 181l8 26l29 11q85 35 143.5 94.5t58.5 118.5q0 90 -122 90q-65 0 -120 -34.5t-77 -98.5h-37q30 106 123.5 171.5t204.5 65.5q84 0 142 -39.5t58 -99.5q0 -122 -229 -215
l-2 -4q69 -23 115.5 -79t46.5 -126q0 -88 -63.5 -160t-158 -109.5t-192.5 -37.5z" />
    <glyph glyph-name="acute" unicode="&#xb4;" horiz-adv-x="466" 
d="M496 1581l-459 -346h-35l225 346h269z" />
    <glyph glyph-name="mu" unicode="&#xb5;" horiz-adv-x="1167" 
d="M66 -397h-138q43 105 95 323l290 1170h144l-148 -594q-24 -99 -24 -174q0 -113 52.5 -172.5t151.5 -59.5q139 0 240.5 107.5t151.5 304.5l147 588h143l-270 -1096h-143l43 172q-134 -199 -328 -199q-203 0 -248 189l-55 -217q-48 -206 -104 -342z" />
    <glyph glyph-name="mu" unicode="&#x3bc;" horiz-adv-x="1167" 
d="M66 -397h-138q43 105 95 323l290 1170h144l-148 -594q-24 -99 -24 -174q0 -113 52.5 -172.5t151.5 -59.5q139 0 240.5 107.5t151.5 304.5l147 588h143l-270 -1096h-143l43 172q-134 -199 -328 -199q-203 0 -248 189l-55 -217q-48 -206 -104 -342z" />
    <glyph glyph-name="paragraph" unicode="&#xb6;" horiz-adv-x="1030" 
d="M109 1049v18q3 91 38.5 164t91.5 119.5t132 77.5t155 44t166 13h383l-356 -1671h-139l327 1542h-237l-328 -1542h-137l196 923q-122 15 -207 97t-85 215z" />
    <glyph glyph-name="periodcentered" unicode="&#xb7;" horiz-adv-x="733" 
d="M385 422q-60 0 -103.5 43.5t-43.5 103.5t43.5 104t103.5 44t103.5 -44t43.5 -104t-43.5 -103.5t-103.5 -43.5z" />
    <glyph glyph-name="cedilla" unicode="&#xb8;" horiz-adv-x="512" 
d="M123 -244l211 250h76l-164 -192q40 18 100 18q150 0 150 -121q0 -59 -42.5 -105t-106.5 -68.5t-134 -22.5q-110 0 -186 51l24 41q52 -25 121 -25q68 0 121 27.5t53 81.5q0 35 -35 55.5t-84 20.5q-44 0 -88 -21z" />
    <glyph glyph-name="onesuperior" unicode="&#xb9;" horiz-adv-x="595" 
d="M627 1747l-170 -682q-25 -87 -13 -112t93 -35l-7 -21h-409l6 23q70 5 99 17t42.5 36.5t30.5 91.5l135 541h-158l7 24q204 21 317 117h27z" />
    <glyph glyph-name="ordmasculine" unicode="&#xba;" horiz-adv-x="706" 
d="M582 1356q0 65 -19.5 104t-58.5 39q-44 0 -79.5 -39t-57 -100.5t-32.5 -130t-11 -135.5q0 -146 77 -146q58 0 101 67.5t61.5 158t18.5 182.5zM160 1159q0 154 106.5 266.5t249.5 112.5q100 0 164.5 -68.5t64.5 -179.5q0 -156 -106.5 -269.5t-249.5 -113.5
q-100 0 -164.5 69.5t-64.5 182.5z" />
    <glyph glyph-name="guillemotright" unicode="&#xbb;" horiz-adv-x="1159" 
d="M813 1038l297 -479l-528 -481h-111l395 481l-149 479h96zM395 1038l297 -479l-528 -481h-111l396 481l-150 479h96z" />
    <glyph glyph-name="onequarter" unicode="&#xbc;" horiz-adv-x="1832" 
d="M573 1499l-170 -682q-25 -87 -13 -112t93 -35l-6 -21h-409l6 23q70 5 99 17t42.5 36.5t30.5 91.5l135 541h-158l6 24q205 21 318 117h26zM418 0h-156l1041 1485h155zM1561 0h-158l49 205h-354l22 88l512 543h135l-122 -500h141l-33 -131h-141zM1485 336l94 379l-356 -379
h262z" />
    <glyph glyph-name="onehalf" unicode="&#xbd;" horiz-adv-x="1773" 
d="M573 1499l-170 -682q-25 -87 -13 -112t93 -35l-6 -21h-409l6 23q70 5 99 17t42.5 36.5t30.5 91.5l135 541h-158l6 24q205 21 318 117h26zM418 0h-156l1041 1485h155zM1010 0l6 14q181 130 301 231t178 172t79 117.5t21 90.5q0 62 -38 94.5t-95 32.5q-153 0 -202 -134h-35
q27 108 119 173t210 65q85 0 149 -46t64 -122q0 -36 -5 -59t-20 -53t-49.5 -65.5t-88 -83.5t-140.5 -120q-11 -9 -211 -164h404l-37 -143h-610z" />
    <glyph glyph-name="threequarters" unicode="&#xbe;" horiz-adv-x="1923" 
d="M252 635q-107 0 -191 39l56 215h20q0 -96 43 -151.5t107 -55.5q85 0 149 61t64 138q0 32 -6.5 57.5t-24 52t-54.5 45t-91 25.5l8 26l28 11q85 35 144 94.5t59 118.5q0 90 -123 90q-65 0 -119.5 -34t-76.5 -99h-37q30 106 123.5 171.5t204.5 65.5q84 0 142 -39.5t58 -99.5
q0 -122 -229 -215l-2 -4q69 -23 115.5 -79t46.5 -126q0 -88 -63.5 -160t-158 -109.5t-192.5 -37.5zM508 0h-156l1041 1485h155zM1651 0h-158l49 205h-354l22 88l512 543h136l-123 -500h141l-33 -131h-141zM1575 336l94 379l-356 -379h262z" />
    <glyph glyph-name="questiondown" unicode="&#xbf;" horiz-adv-x="1132" 
d="M129 -184q0 80 32.5 146t86.5 114.5t120.5 93t138 93t135 102.5t116 133t76.5 174l6 24h59l-4 -18q-24 -108 -66.5 -200t-90 -154t-100 -116t-100 -98.5t-86 -89t-61 -98.5t-22.5 -117q0 -89 52 -138.5t150 -49.5q138 0 232.5 80.5t159.5 257.5h41l-86 -348
q-71 -24 -176.5 -43t-200.5 -19q-191 0 -301.5 74.5t-110.5 196.5zM899 825q-60 0 -103.5 44t-43.5 104t43.5 103.5t103.5 43.5t104 -43.5t44 -103.5t-44 -104t-104 -44z" />
    <glyph glyph-name="Agrave" unicode="&#xc0;" horiz-adv-x="1564" 
d="M-119 0l8 37q31 2 52 5t44 12.5t37.5 17.5t37 31.5t37.5 41.5t43.5 61t50.5 77.5t63 101.5l680 1094q73 7 117 63h8l192 -1323q7 -44 11 -66.5t12.5 -46t17 -32.5t27 -18t39.5 -12.5t57 -6.5l-8 -37h-567l10 37q64 7 94 12.5t57 20t33.5 39t1.5 65.5l-43 309h-573
l-17 -28q-93 -151 -133.5 -226t-41 -119.5t26.5 -55t99 -17.5l-8 -37h-465zM889 1239l-393 -635h481zM563 1888h322l104 -264h-43z" />
    <glyph glyph-name="Aacute" unicode="&#xc1;" horiz-adv-x="1564" 
d="M1524 1888l-514 -264h-43l235 264h322zM-119 0l8 37q31 2 52 5t44 12.5t37.5 17.5t37 31.5t37.5 41.5t43.5 61t50.5 77.5t63 101.5l680 1094q73 7 117 63h8l192 -1323q7 -44 11 -66.5t12.5 -46t17 -32.5t27 -18t39.5 -12.5t57 -6.5l-8 -37h-567l10 37q64 7 94 12.5t57 20
t33.5 39t1.5 65.5l-43 309h-573l-17 -28q-93 -151 -133.5 -226t-41 -119.5t26.5 -55t99 -17.5l-8 -37h-465zM889 1239l-393 -635h481z" />
    <glyph glyph-name="Acircumflex" unicode="&#xc2;" horiz-adv-x="1564" 
d="M1047 1909h32l228 -285h-41l-238 121l-301 -121h-47zM-119 0l8 37q31 2 52 5t44 12.5t37.5 17.5t37 31.5t37.5 41.5t43.5 61t50.5 77.5t63 101.5l680 1094q73 7 117 63h8l192 -1323q7 -44 11 -66.5t12.5 -46t17 -32.5t27 -18t39.5 -12.5t57 -6.5l-8 -37h-567l10 37
q64 7 94 12.5t57 20t33.5 39t1.5 65.5l-43 309h-573l-17 -28q-93 -151 -133.5 -226t-41 -119.5t26.5 -55t99 -17.5l-8 -37h-465zM889 1239l-393 -635h481z" />
    <glyph glyph-name="Atilde" unicode="&#xc3;" horiz-adv-x="1564" 
d="M1210 1769q106 0 125 103h33q0 -69 -19.5 -126.5t-63.5 -95.5t-107 -38q-46 0 -92 19.5t-78.5 43t-77 43t-86.5 19.5q-108 0 -127 -103h-33q0 69 19.5 126.5t63.5 95.5t107 38q44 0 91.5 -19.5t81 -43t78.5 -43t85 -19.5zM-119 0l8 37q31 2 52 5t44 12.5t37.5 17.5
t37 31.5t37.5 41.5t43.5 61t50.5 77.5t63 101.5l680 1094q73 7 117 63h8l192 -1323q7 -44 11 -66.5t12.5 -46t17 -32.5t27 -18t39.5 -12.5t57 -6.5l-8 -37h-567l10 37q64 7 94 12.5t57 20t33.5 39t1.5 65.5l-43 309h-573l-17 -28q-93 -151 -133.5 -226t-41 -119.5t26.5 -55
t99 -17.5l-8 -37h-465zM889 1239l-393 -635h481z" />
    <glyph glyph-name="Adieresis" unicode="&#xc4;" horiz-adv-x="1564" 
d="M-119 0l8 37q31 2 52 5t44 12.5t37.5 17.5t37 31.5t37.5 41.5t43.5 61t50.5 77.5t63 101.5l680 1094q73 7 117 63h8l192 -1323q7 -44 11 -66.5t12.5 -46t17 -32.5t27 -18t39.5 -12.5t57 -6.5l-8 -37h-567l10 37q64 7 94 12.5t57 20t33.5 39t1.5 65.5l-43 309h-573
l-17 -28q-93 -151 -133.5 -226t-41 -119.5t26.5 -55t99 -17.5l-8 -37h-465zM889 1239l-393 -635h481zM1108 1759q0 55 36 92t91 37q53 0 90 -37.5t37 -91.5q0 -56 -37 -92.5t-90 -36.5q-56 0 -91.5 36t-35.5 93zM641 1759q0 55 36 92t91 37q52 0 88.5 -37.5t36.5 -91.5
q0 -56 -36 -92.5t-89 -36.5q-56 0 -91.5 36t-35.5 93z" />
    <glyph glyph-name="Aring" unicode="&#xc5;" horiz-adv-x="1564" 
d="M-119 0l8 37q31 2 52 5t44 12.5t37.5 17.5t37 31.5t37.5 41.5t43.5 61t50.5 77.5t63 101.5l680 1094q73 7 117 63h8l192 -1323q7 -44 11 -66.5t12.5 -46t17 -32.5t27 -18t39.5 -12.5t57 -6.5l-8 -37h-567l10 37q64 7 94 12.5t57 20t33.5 39t1.5 65.5l-43 309h-573
l-17 -28q-93 -151 -133.5 -226t-41 -119.5t26.5 -55t99 -17.5l-8 -37h-465zM889 1239l-393 -635h481zM846 1827q0 81 55 136.5t135 55.5t136.5 -55.5t56.5 -136.5q0 -78 -57 -134.5t-136 -56.5t-134.5 56.5t-55.5 134.5zM926 1827q0 -51 30 -82t80 -31q48 0 79.5 31.5
t31.5 81.5q0 51 -31.5 84t-79.5 33q-49 0 -79.5 -33t-30.5 -84z" />
    <glyph glyph-name="AE" unicode="&#xc6;" horiz-adv-x="2238" 
d="M1370 1485h459q298 0 452 6l-51 -449h-37q-5 70 -13 121t-28 90.5t-36 65.5t-56.5 44t-70 27.5t-96 14t-114.5 5.5t-145 1h-59l-150 -600h336l170 229h33l-135 -555h-35l-55 236h-336l-137 -557q-16 -62 -4 -78t71 -16q94 0 154.5 2.5t127 10.5t112 24.5t95 43.5
t90.5 68.5t84.5 97t90.5 132.5h39l-195 -451q-152 2 -452 2h-682l8 37q59 8 93 17t63 24.5t47 45t32.5 68.5t32.5 107l45 184h-543l-24 -28q-211 -233 -255 -304t-8 -94q21 -14 81 -20l-11 -37h-493l8 37q116 9 219 80.5t281 267.5zM1331 1321l-647 -717h465z" />
    <glyph glyph-name="Ccedilla" unicode="&#xc7;" horiz-adv-x="1419" 
d="M403 -244l189 224q-221 29 -355.5 179.5t-134.5 399.5q0 194 77.5 373t205 307t298 204.5t351.5 76.5q99 0 215 -28t207 -83l-74 -412h-39q3 171 -31 269t-106 139t-196 41q-102 0 -195 -42.5t-164 -114.5t-129 -165.5t-95 -197t-57 -207t-20 -197.5q0 -105 20.5 -185.5
t64.5 -141t118.5 -92t177.5 -31.5q98 0 187.5 31.5t156 84.5t115 111t80.5 121l47 -27q-29 -67 -69.5 -126.5t-97.5 -114t-124 -94t-153 -62.5t-181 -23h-30l-136 -159q40 18 101 18q149 0 149 -121q0 -59 -42.5 -105t-106 -68.5t-133.5 -22.5q-111 0 -187 51l25 41
q52 -25 121 -25q68 0 121 27.5t53 81.5q0 35 -35 55.5t-84 20.5q-44 0 -88 -21z" />
    <glyph glyph-name="Egrave" unicode="&#xc8;" horiz-adv-x="1374" 
d="M297 1485h664q300 0 454 6l-51 -449h-39q-4 56 -10 99t-19 79.5t-23 62.5t-35.5 46.5t-43 34t-58 23t-68 14t-85.5 7t-98.5 3t-118.5 0.5h-57l-150 -600h336l170 229h33l-137 -555h-33l-56 236h-337l-140 -557q-16 -51 -2.5 -72.5t74.5 -21.5q94 0 154.5 2.5t127 10.5
t112 24.5t95 43.5t90.5 68.5t84.5 97t90.5 132.5h39l-195 -451q-154 2 -453 2h-684l9 37q42 6 62.5 9t48.5 10t40 14t30 21t26 30t20.5 43t21 58t19.5 77l221 887q11 46 18 76.5t8.5 58t1 43.5t-11 30.5t-19 21t-33 13.5t-43.5 10t-58 9zM571 1888h322l104 -264h-43z" />
    <glyph glyph-name="Eacute" unicode="&#xc9;" horiz-adv-x="1374" 
d="M297 1485h664q300 0 454 6l-51 -449h-39q-4 56 -10 99t-19 79.5t-23 62.5t-35.5 46.5t-43 34t-58 23t-68 14t-85.5 7t-98.5 3t-118.5 0.5h-57l-150 -600h336l170 229h33l-137 -555h-33l-56 236h-337l-140 -557q-16 -51 -2.5 -72.5t74.5 -21.5q94 0 154.5 2.5t127 10.5
t112 24.5t95 43.5t90.5 68.5t84.5 97t90.5 132.5h39l-195 -451q-154 2 -453 2h-684l9 37q42 6 62.5 9t48.5 10t40 14t30 21t26 30t20.5 43t21 58t19.5 77l221 887q11 46 18 76.5t8.5 58t1 43.5t-11 30.5t-19 21t-33 13.5t-43.5 10t-58 9zM1419 1888l-514 -264h-43l236 264
h321z" />
    <glyph glyph-name="Ecircumflex" unicode="&#xca;" horiz-adv-x="1374" 
d="M297 1485h664q300 0 454 6l-51 -449h-39q-4 56 -10 99t-19 79.5t-23 62.5t-35.5 46.5t-43 34t-58 23t-68 14t-85.5 7t-98.5 3t-118.5 0.5h-57l-150 -600h336l170 229h33l-137 -555h-33l-56 236h-337l-140 -557q-16 -51 -2.5 -72.5t74.5 -21.5q94 0 154.5 2.5t127 10.5
t112 24.5t95 43.5t90.5 68.5t84.5 97t90.5 132.5h39l-195 -451q-154 2 -453 2h-684l9 37q42 6 62.5 9t48.5 10t40 14t30 21t26 30t20.5 43t21 58t19.5 77l221 887q11 46 18 76.5t8.5 58t1 43.5t-11 30.5t-19 21t-33 13.5t-43.5 10t-58 9zM997 1909h33l227 -285h-40l-238 121
l-301 -121h-47z" />
    <glyph glyph-name="Edieresis" unicode="&#xcb;" horiz-adv-x="1374" 
d="M297 1485h664q300 0 454 6l-51 -449h-39q-4 56 -10 99t-19 79.5t-23 62.5t-35.5 46.5t-43 34t-58 23t-68 14t-85.5 7t-98.5 3t-118.5 0.5h-57l-150 -600h336l170 229h33l-137 -555h-33l-56 236h-337l-140 -557q-16 -51 -2.5 -72.5t74.5 -21.5q94 0 154.5 2.5t127 10.5
t112 24.5t95 43.5t90.5 68.5t84.5 97t90.5 132.5h39l-195 -451q-154 2 -453 2h-684l9 37q42 6 62.5 9t48.5 10t40 14t30 21t26 30t20.5 43t21 58t19.5 77l221 887q11 46 18 76.5t8.5 58t1 43.5t-11 30.5t-19 21t-33 13.5t-43.5 10t-58 9zM1047 1759q0 55 36 92t91 37
q53 0 89.5 -37.5t36.5 -91.5q0 -56 -36.5 -92.5t-89.5 -36.5q-56 0 -91.5 36t-35.5 93zM580 1759q0 55 36 92t91 37q52 0 88 -37.5t36 -91.5q0 -56 -35.5 -92.5t-88.5 -36.5q-56 0 -91.5 36t-35.5 93z" />
    <glyph glyph-name="Igrave" unicode="&#xcc;" horiz-adv-x="825" 
d="M653 1186l-221 -887q-11 -46 -18 -76.5t-8.5 -58t-1 -43.5t11 -30.5t19 -21t33 -13.5t43.5 -10t58 -9l-8 -37h-631l9 37q42 6 62.5 9t48.5 10t40 14t30 21t26 30t20.5 43t21 58t19.5 77l221 887q11 46 18 76.5t8.5 58t1 43.5t-11 30.5t-19 21t-33 13.5t-43.5 10t-58 9
l8 37h631l-8 -37q-56 -8 -81 -12t-57 -16t-45 -25.5t-31 -43.5t-29 -67t-26 -98zM283 1888h321l105 -264h-43z" />
    <glyph glyph-name="Iacute" unicode="&#xcd;" horiz-adv-x="825" 
d="M653 1186l-221 -887q-11 -46 -18 -76.5t-8.5 -58t-1 -43.5t11 -30.5t19 -21t33 -13.5t43.5 -10t58 -9l-8 -37h-631l9 37q42 6 62.5 9t48.5 10t40 14t30 21t26 30t20.5 43t21 58t19.5 77l221 887q11 46 18 76.5t8.5 58t1 43.5t-11 30.5t-19 21t-33 13.5t-43.5 10t-58 9
l8 37h631l-8 -37q-56 -8 -81 -12t-57 -16t-45 -25.5t-31 -43.5t-29 -67t-26 -98zM1090 1888l-515 -264h-43l236 264h322z" />
    <glyph glyph-name="Icircumflex" unicode="&#xce;" horiz-adv-x="825" 
d="M653 1186l-221 -887q-11 -46 -18 -76.5t-8.5 -58t-1 -43.5t11 -30.5t19 -21t33 -13.5t43.5 -10t58 -9l-8 -37h-631l9 37q42 6 62.5 9t48.5 10t40 14t30 21t26 30t20.5 43t21 58t19.5 77l221 887q11 46 18 76.5t8.5 58t1 43.5t-11 30.5t-19 21t-33 13.5t-43.5 10t-58 9
l8 37h631l-8 -37q-56 -8 -81 -12t-57 -16t-45 -25.5t-31 -43.5t-29 -67t-26 -98zM692 1909h33l227 -285h-41l-237 121l-301 -121h-47z" />
    <glyph glyph-name="Idieresis" unicode="&#xcf;" horiz-adv-x="825" 
d="M653 1186l-221 -887q-11 -46 -18 -76.5t-8.5 -58t-1 -43.5t11 -30.5t19 -21t33 -13.5t43.5 -10t58 -9l-8 -37h-631l9 37q42 6 62.5 9t48.5 10t40 14t30 21t26 30t20.5 43t21 58t19.5 77l221 887q11 46 18 76.5t8.5 58t1 43.5t-11 30.5t-19 21t-33 13.5t-43.5 10t-58 9
l8 37h631l-8 -37q-56 -8 -81 -12t-57 -16t-45 -25.5t-31 -43.5t-29 -67t-26 -98zM754 1759q0 55 36 92t91 37q53 0 90 -37.5t37 -91.5q0 -56 -37 -92.5t-90 -36.5q-56 0 -91.5 36t-35.5 93zM287 1759q0 55 36 92t91 37q52 0 88.5 -37.5t36.5 -91.5q0 -56 -36 -92.5
t-89 -36.5q-56 0 -91.5 36t-35.5 93z" />
    <glyph glyph-name="Eth" unicode="&#xd0;" horiz-adv-x="1632" 
d="M330 1485h469q364 0 576 -158t212 -436q0 -175 -53 -319.5t-150.5 -250t-237 -178t-312.5 -108t-375 -35.5h-498l8 37q56 8 81 12t57 16t45 25.5t31 43.5t29 67t26 98l104 422h-231l24 90h230l94 375q11 46 18 76.5t8.5 58t1 43.5t-11 30.5t-19 21t-33 13.5t-43.5 10
t-58 9zM406 74h59q423 0 648.5 218t225.5 611q0 263 -133 385.5t-407 122.5h-60l-149 -600h293l-25 -90h-291z" />
    <glyph glyph-name="Ntilde" unicode="&#xd1;" horiz-adv-x="1667" 
d="M1427 1186q11 46 18 76.5t8.5 58t1 43.5t-11 30.5t-19 21t-33 13.5t-43.5 10t-58 9l10 37h500l-10 -37q-42 -6 -62.5 -9t-48.5 -10t-40 -14t-30 -21t-26 -30t-20.5 -43t-21 -58t-19.5 -77l-301 -1206h-84l-627 1177l-213 -858q-11 -46 -18 -76.5t-8.5 -58t-1 -43.5
t11 -30.5t19 -21t33 -13.5t43.5 -10t58 -9l-8 -37h-500l8 37q56 8 81 12t57 16t45 25.5t31 43.5t29 67t26 98l243 975v2q-37 76 -63.5 115.5t-63.5 60.5l9 33h264l620 -1163zM1264 1769q106 0 125 103h32q0 -69 -19.5 -126.5t-63.5 -95.5t-107 -38q-46 0 -92 19.5t-78.5 43
t-77 43t-86.5 19.5q-108 0 -127 -103h-33q0 108 49 184t142 76q44 0 91.5 -19.5t81 -43t78.5 -43t85 -19.5z" />
    <glyph glyph-name="Ograve" unicode="&#xd2;" horiz-adv-x="1634" 
d="M102 559q0 143 40 283t118 261.5t183.5 215t246.5 147.5t297 54q170 0 302.5 -66t211 -200.5t78.5 -319.5q0 -178 -64.5 -350.5t-177.5 -308t-282 -219t-363 -83.5q-170 0 -302 66t-210 200t-78 320zM350 522q0 -105 20.5 -189.5t63 -149.5t115 -100.5t170.5 -35.5
q100 0 188.5 42.5t154 115t117.5 166t84 197.5t49 206.5t17 196.5q0 105 -20.5 189.5t-63 149.5t-114.5 100.5t-170 35.5q-100 0 -188.5 -42.5t-154 -115t-118 -165.5t-84.5 -197t-49 -206.5t-17 -197.5zM633 1888h321l105 -264h-43z" />
    <glyph glyph-name="Oacute" unicode="&#xd3;" horiz-adv-x="1634" 
d="M102 559q0 143 40 283t118 261.5t183.5 215t246.5 147.5t297 54q170 0 302.5 -66t211 -200.5t78.5 -319.5q0 -178 -64.5 -350.5t-177.5 -308t-282 -219t-363 -83.5q-170 0 -302 66t-210 200t-78 320zM350 522q0 -105 20.5 -189.5t63 -149.5t115 -100.5t170.5 -35.5
q100 0 188.5 42.5t154 115t117.5 166t84 197.5t49 206.5t17 196.5q0 105 -20.5 189.5t-63 149.5t-114.5 100.5t-170 35.5q-100 0 -188.5 -42.5t-154 -115t-118 -165.5t-84.5 -197t-49 -206.5t-17 -197.5zM1489 1888l-514 -264h-43l235 264h322z" />
    <glyph glyph-name="Ocircumflex" unicode="&#xd4;" horiz-adv-x="1634" 
d="M102 559q0 143 40 283t118 261.5t183.5 215t246.5 147.5t297 54q170 0 302.5 -66t211 -200.5t78.5 -319.5q0 -178 -64.5 -350.5t-177.5 -308t-282 -219t-363 -83.5q-170 0 -302 66t-210 200t-78 320zM350 522q0 -105 20.5 -189.5t63 -149.5t115 -100.5t170.5 -35.5
q100 0 188.5 42.5t154 115t117.5 166t84 197.5t49 206.5t17 196.5q0 105 -20.5 189.5t-63 149.5t-114.5 100.5t-170 35.5q-100 0 -188.5 -42.5t-154 -115t-118 -165.5t-84.5 -197t-49 -206.5t-17 -197.5zM1079 1909h33l227 -285h-41l-237 121l-301 -121h-47z" />
    <glyph glyph-name="Otilde" unicode="&#xd5;" horiz-adv-x="1634" 
d="M102 559q0 143 40 283t118 261.5t183.5 215t246.5 147.5t297 54q170 0 302.5 -66t211 -200.5t78.5 -319.5q0 -178 -64.5 -350.5t-177.5 -308t-282 -219t-363 -83.5q-170 0 -302 66t-210 200t-78 320zM350 522q0 -105 20.5 -189.5t63 -149.5t115 -100.5t170.5 -35.5
q100 0 188.5 42.5t154 115t117.5 166t84 197.5t49 206.5t17 196.5q0 105 -20.5 189.5t-63 149.5t-114.5 100.5t-170 35.5q-100 0 -188.5 -42.5t-154 -115t-118 -165.5t-84.5 -197t-49 -206.5t-17 -197.5zM1249 1769q106 0 125 103h33q0 -69 -19.5 -126.5t-63.5 -95.5
t-107 -38q-46 0 -92 19.5t-78.5 43t-77 43t-86.5 19.5q-108 0 -127 -103h-33q0 69 19.5 126.5t63.5 95.5t107 38q44 0 91.5 -19.5t81 -43t78.5 -43t85 -19.5z" />
    <glyph glyph-name="Odieresis" unicode="&#xd6;" horiz-adv-x="1634" 
d="M102 559q0 143 40 283t118 261.5t183.5 215t246.5 147.5t297 54q170 0 302.5 -66t211 -200.5t78.5 -319.5q0 -178 -64.5 -350.5t-177.5 -308t-282 -219t-363 -83.5q-170 0 -302 66t-210 200t-78 320zM350 522q0 -105 20.5 -189.5t63 -149.5t115 -100.5t170.5 -35.5
q100 0 188.5 42.5t154 115t117.5 166t84 197.5t49 206.5t17 196.5q0 105 -20.5 189.5t-63 149.5t-114.5 100.5t-170 35.5q-100 0 -188.5 -42.5t-154 -115t-118 -165.5t-84.5 -197t-49 -206.5t-17 -197.5zM1143 1759q0 55 36 92t91 37q53 0 90 -37.5t37 -91.5
q0 -56 -37 -92.5t-90 -36.5q-56 0 -91.5 36t-35.5 93zM676 1759q0 55 36 92t91 37q52 0 88.5 -37.5t36.5 -91.5q0 -56 -36 -92.5t-89 -36.5q-56 0 -91.5 36t-35.5 93z" />
    <glyph glyph-name="multiply" unicode="&#xd7;" 
d="M1128 178l-102 -100l-381 381l-379 -379l-100 100l379 381l-379 379l100 100l379 -378l379 378l100 -100l-376 -379z" />
    <glyph glyph-name="Oslash" unicode="&#xd8;" horiz-adv-x="1634" 
d="M102 559q0 143 40 283t118 261.5t183.5 215t246.5 147.5t297 54q216 0 369 -107l200 217l60 -47l-203 -219q166 -159 166 -430q0 -178 -64.5 -350.5t-177.5 -308t-282 -219t-363 -83.5q-263 0 -424 152l-207 -223l-57 47l213 231q-115 149 -115 379zM1329 971
q0 153 -41 258l-895 -969q83 -213 326 -213q100 0 188.5 42.5t154 115t117.5 166t84 197.5t49 206.5t17 196.5zM350 522q0 -102 17 -180l884 958q-92 146 -290 146q-100 0 -188.5 -42.5t-154 -115t-118 -165.5t-84.5 -197t-49 -206.5t-17 -197.5z" />
    <glyph glyph-name="Ugrave" unicode="&#xd9;" horiz-adv-x="1624" 
d="M1499 1186l-145 -574q-83 -327 -248.5 -483t-448.5 -156q-122 0 -212 28.5t-143 79.5t-78 125t-22 161.5t29 191.5l156 625q11 46 18 77t8.5 58.5t1 43.5t-10.5 30.5t-19.5 21t-33 14t-43 10.5l-58.5 9l8 37h631l-8 -37q-56 -8 -81 -12t-57 -16t-45 -25.5t-31 -43.5
t-29 -67t-26 -98l-151 -606q-39 -163 -28.5 -276t82 -172.5t204.5 -59.5q407 0 541 538l145 576q12 46 19 77t8.5 58t1 43t-11 30t-19.5 21t-33.5 14t-43.5 10t-58 9l8 37h500l-9 -37q-42 -6 -62.5 -9t-48.5 -10t-40 -13.5t-29.5 -21t-25.5 -30.5t-20.5 -43.5t-21 -58
t-20.5 -76.5zM745 1888h322l104 -264h-43z" />
    <glyph glyph-name="Uacute" unicode="&#xda;" horiz-adv-x="1624" 
d="M1499 1186l-145 -574q-83 -327 -248.5 -483t-448.5 -156q-122 0 -212 28.5t-143 79.5t-78 125t-22 161.5t29 191.5l156 625q11 46 18 77t8.5 58.5t1 43.5t-10.5 30.5t-19.5 21t-33 14t-43 10.5l-58.5 9l8 37h631l-8 -37q-56 -8 -81 -12t-57 -16t-45 -25.5t-31 -43.5
t-29 -67t-26 -98l-151 -606q-39 -163 -28.5 -276t82 -172.5t204.5 -59.5q407 0 541 538l145 576q12 46 19 77t8.5 58t1 43t-11 30t-19.5 21t-33.5 14t-43.5 10t-58 9l8 37h500l-9 -37q-42 -6 -62.5 -9t-48.5 -10t-40 -13.5t-29.5 -21t-25.5 -30.5t-20.5 -43.5t-21 -58
t-20.5 -76.5zM1581 1888l-514 -264h-43l236 264h321z" />
    <glyph glyph-name="Ucircumflex" unicode="&#xdb;" horiz-adv-x="1624" 
d="M1499 1186l-145 -574q-83 -327 -248.5 -483t-448.5 -156q-122 0 -212 28.5t-143 79.5t-78 125t-22 161.5t29 191.5l156 625q11 46 18 77t8.5 58.5t1 43.5t-10.5 30.5t-19.5 21t-33 14t-43 10.5l-58.5 9l8 37h631l-8 -37q-56 -8 -81 -12t-57 -16t-45 -25.5t-31 -43.5
t-29 -67t-26 -98l-151 -606q-39 -163 -28.5 -276t82 -172.5t204.5 -59.5q407 0 541 538l145 576q12 46 19 77t8.5 58t1 43t-11 30t-19.5 21t-33.5 14t-43.5 10t-58 9l8 37h500l-9 -37q-42 -6 -62.5 -9t-48.5 -10t-40 -13.5t-29.5 -21t-25.5 -30.5t-20.5 -43.5t-21 -58
t-20.5 -76.5zM1163 1909h33l227 -285h-41l-237 121l-301 -121h-47z" />
    <glyph glyph-name="Udieresis" unicode="&#xdc;" horiz-adv-x="1624" 
d="M1499 1186l-145 -574q-83 -327 -248.5 -483t-448.5 -156q-122 0 -212 28.5t-143 79.5t-78 125t-22 161.5t29 191.5l156 625q11 46 18 77t8.5 58.5t1 43.5t-10.5 30.5t-19.5 21t-33 14t-43 10.5l-58.5 9l8 37h631l-8 -37q-56 -8 -81 -12t-57 -16t-45 -25.5t-31 -43.5
t-29 -67t-26 -98l-151 -606q-39 -163 -28.5 -276t82 -172.5t204.5 -59.5q407 0 541 538l145 576q12 46 19 77t8.5 58t1 43t-11 30t-19.5 21t-33.5 14t-43.5 10t-58 9l8 37h500l-9 -37q-42 -6 -62.5 -9t-48.5 -10t-40 -13.5t-29.5 -21t-25.5 -30.5t-20.5 -43.5t-21 -58
t-20.5 -76.5zM1214 1759q0 55 36 92t91 37q53 0 90 -37.5t37 -91.5q0 -56 -37 -92.5t-90 -36.5q-56 0 -91.5 36t-35.5 93zM748 1759q0 55 35.5 92t90.5 37q52 0 88.5 -37.5t36.5 -91.5q0 -56 -36 -92.5t-89 -36.5q-56 0 -91 36t-35 93z" />
    <glyph glyph-name="Yacute" unicode="&#xdd;" horiz-adv-x="1435" 
d="M709 299q-14 -57 -20.5 -92t-5 -65t11.5 -45.5t34 -28.5t55.5 -18.5t83.5 -10.5l-8 -39h-676l9 39q55 5 90 10.5t65.5 18.5t47.5 28.5t34 46t28 65t25 91.5l72 285l-199 665q-32 109 -65 148t-103 51l9 37h573l-8 -37q-111 -12 -153.5 -47t-22.5 -107l176 -592l366 459
q139 174 132 233q-5 42 -87 52l-16 2l8 37h459l-8 -37q-91 -14 -162 -61.5t-158 -159.5l-514 -635zM1518 1888l-514 -264h-43l235 264h322z" />
    <glyph glyph-name="Thorn" unicode="&#xde;" horiz-adv-x="1259" 
d="M299 1485h428l-63 -254h131q159 0 278 -36t192.5 -118t73.5 -203q0 -101 -40.5 -188t-108.5 -148.5t-158 -106t-189.5 -66t-201.5 -21.5q-121 0 -197 10l-14 -57q-15 -61 -22.5 -98t-4 -66.5t9 -43t32.5 -25t49 -15.5t75 -12l-8 -37h-631l9 37q42 6 62.5 9t48.5 10t40 14
t30 21t26 30t20.5 43t21 58t19.5 77l221 887q11 46 18 76.5t8.5 58t1 43.5t-11 30.5t-19 21t-33 13.5t-43.5 10t-58 9zM645 1155l-190 -764h26q606 10 606 496q0 268 -325 268h-117z" />
    <glyph glyph-name="germandbls" unicode="&#xdf;" horiz-adv-x="1314" 
d="M250 0h-209l260 989q71 274 239.5 434t411.5 160q172 0 277.5 -70t105.5 -176q0 -69 -38 -134.5t-100 -115t-128 -85.5t-135 -60v-6q129 -53 201.5 -157t72.5 -224q0 -118 -53.5 -227.5t-140 -186.5t-197 -122.5t-221.5 -45.5q-148 0 -254 29l37 141h4q92 -96 227 -96
q108 0 194.5 61t132.5 157t46 204q0 129 -76.5 229t-234.5 129l10 45l53 21q101 38 179.5 92t124 112.5t68.5 115t23 108.5q0 92 -58.5 140t-143.5 48q-84 0 -150 -33t-115 -99t-84.5 -151t-66.5 -204z" />
    <glyph glyph-name="agrave" unicode="&#xe0;" horiz-adv-x="1247" 
d="M295 -27q-113 0 -176.5 84t-63.5 234q0 137 62 287t157.5 268.5t220.5 196t242 77.5q40 0 85.5 -10.5t72.5 -30.5l215 41l-115 -448l-110 -443q-9 -36 -12 -54t-2.5 -39.5t11.5 -30.5t33 -9q44 0 118 57t136 160l33 -20q-83 -152 -189.5 -236t-199.5 -84q-102 0 -133 77
t10 222l53 191q-88 -218 -206 -354t-242 -136zM403 123q57 0 123.5 72t126 186.5t110.5 251.5t85 272l18 76q-18 27 -54.5 46.5t-76.5 19.5q-81 0 -154 -47.5t-124.5 -124.5t-89 -171.5t-56 -189.5t-18.5 -178q0 -213 110 -213zM487 1581h238l76 -346h-39z" />
    <glyph glyph-name="aacute" unicode="&#xe1;" horiz-adv-x="1247" 
d="M1225 1581l-459 -346h-35l225 346h269zM295 -27q-113 0 -176.5 84t-63.5 234q0 137 62 287t157.5 268.5t220.5 196t242 77.5q40 0 85.5 -10.5t72.5 -30.5l215 41l-115 -448l-110 -443q-9 -36 -12 -54t-2.5 -39.5t11.5 -30.5t33 -9q44 0 118 57t136 160l33 -20
q-83 -152 -189.5 -236t-199.5 -84q-102 0 -133 77t10 222l53 191q-88 -218 -206 -354t-242 -136zM403 123q57 0 123.5 72t126 186.5t110.5 251.5t85 272l18 76q-18 27 -54.5 46.5t-76.5 19.5q-81 0 -154 -47.5t-124.5 -124.5t-89 -171.5t-56 -189.5t-18.5 -178
q0 -213 110 -213z" />
    <glyph glyph-name="acircumflex" unicode="&#xe2;" horiz-adv-x="1247" 
d="M295 -27q-113 0 -176.5 84t-63.5 234q0 137 62 287t157.5 268.5t220.5 196t242 77.5q40 0 85.5 -10.5t72.5 -30.5l215 41l-115 -448l-110 -443q-9 -36 -12 -54t-2.5 -39.5t11.5 -30.5t33 -9q44 0 118 57t136 160l33 -20q-83 -152 -189.5 -236t-199.5 -84q-102 0 -133 77
t10 222l53 191q-88 -218 -206 -354t-242 -136zM403 123q57 0 123.5 72t126 186.5t110.5 251.5t85 272l18 76q-18 27 -54.5 46.5t-76.5 19.5q-81 0 -154 -47.5t-124.5 -124.5t-89 -171.5t-56 -189.5t-18.5 -178q0 -213 110 -213zM907 1581l238 -346h-37l-250 170l-346 -170
h-41l410 346h26z" />
    <glyph glyph-name="atilde" unicode="&#xe3;" horiz-adv-x="1247" 
d="M295 -27q-113 0 -176.5 84t-63.5 234q0 137 62 287t157.5 268.5t220.5 196t242 77.5q40 0 85.5 -10.5t72.5 -30.5l215 41l-115 -448l-110 -443q-9 -36 -12 -54t-2.5 -39.5t11.5 -30.5t33 -9q44 0 118 57t136 160l33 -20q-83 -152 -189.5 -236t-199.5 -84q-102 0 -133 77
t10 222l53 191q-88 -218 -206 -354t-242 -136zM403 123q57 0 123.5 72t126 186.5t110.5 251.5t85 272l18 76q-18 27 -54.5 46.5t-76.5 19.5q-81 0 -154 -47.5t-124.5 -124.5t-89 -171.5t-56 -189.5t-18.5 -178q0 -213 110 -213zM553 1300h-39q0 67 18.5 128t64 106t110.5 45
q39 0 84.5 -20t79.5 -44.5t74.5 -44.5t70.5 -20q56 0 82.5 28.5t29.5 94.5h39q-2 -268 -176 -268q-46 0 -93 20t-79 44.5t-73.5 44.5t-77.5 20q-50 0 -80.5 -35.5t-34.5 -98.5z" />
    <glyph glyph-name="adieresis" unicode="&#xe4;" horiz-adv-x="1247" 
d="M295 -27q-113 0 -176.5 84t-63.5 234q0 137 62 287t157.5 268.5t220.5 196t242 77.5q40 0 85.5 -10.5t72.5 -30.5l215 41l-115 -448l-110 -443q-9 -36 -12 -54t-2.5 -39.5t11.5 -30.5t33 -9q44 0 118 57t136 160l33 -20q-83 -152 -189.5 -236t-199.5 -84q-102 0 -133 77
t10 222l53 191q-88 -218 -206 -354t-242 -136zM403 123q57 0 123.5 72t126 186.5t110.5 251.5t85 272l18 76q-18 27 -54.5 46.5t-76.5 19.5q-81 0 -154 -47.5t-124.5 -124.5t-89 -171.5t-56 -189.5t-18.5 -178q0 -213 110 -213zM467 1454q0 54 36 90.5t91 36.5
q53 0 89 -36.5t36 -90.5q0 -56 -36 -92.5t-89 -36.5q-56 0 -91.5 36t-35.5 93zM913 1454q0 54 37 90.5t92 36.5q52 0 88.5 -36.5t36.5 -90.5q0 -56 -36.5 -92.5t-88.5 -36.5q-56 0 -92.5 36t-36.5 93z" />
    <glyph glyph-name="aring" unicode="&#xe5;" horiz-adv-x="1247" 
d="M295 -27q-113 0 -176.5 84t-63.5 234q0 137 62 287t157.5 268.5t220.5 196t242 77.5q40 0 85.5 -10.5t72.5 -30.5l215 41l-115 -448l-110 -443q-9 -36 -12 -54t-2.5 -39.5t11.5 -30.5t33 -9q44 0 118 57t136 160l33 -20q-83 -152 -189.5 -236t-199.5 -84q-102 0 -133 77
t10 222l53 191q-88 -218 -206 -354t-242 -136zM403 123q57 0 123.5 72t126 186.5t110.5 251.5t85 272l18 76q-18 27 -54.5 46.5t-76.5 19.5q-81 0 -154 -47.5t-124.5 -124.5t-89 -171.5t-56 -189.5t-18.5 -178q0 -213 110 -213zM651 1438q0 81 55.5 136.5t135.5 55.5
t136 -55.5t56 -136.5q0 -78 -56.5 -134.5t-135.5 -56.5t-135 56.5t-56 134.5zM731 1438q0 -51 30.5 -82t80.5 -31q48 0 79 31.5t31 81.5q0 51 -31 83.5t-79 32.5q-49 0 -80 -32.5t-31 -83.5z" />
    <glyph glyph-name="ae" unicode="&#xe6;" horiz-adv-x="1624" 
d="M1028 973q171 141 342 141q39 0 79.5 -9.5t80.5 -30t65 -60t25 -92.5q0 -67 -32.5 -121t-94 -92.5t-137.5 -66t-176 -48.5l-238 -49q-24 -123 -24 -207q0 -104 38.5 -160.5t116.5 -56.5q106 0 209.5 81t173.5 230l35 -22q-95 -214 -226 -325.5t-288 -111.5
q-142 0 -213.5 89.5t-71.5 230.5q0 37 2 57q-85 -173 -189 -275t-210 -102q-113 0 -176.5 83t-63.5 233q0 92 28.5 191.5t76.5 189.5t115 172t141.5 141.5t158 95t162.5 35.5q38 0 83 -11t73 -30l174 41zM293 334q0 -211 110 -211q75 0 164.5 121.5t162.5 296.5t118 358
l16 76q-19 27 -54.5 46t-74.5 19q-68 0 -130.5 -33.5t-110 -89.5t-86.5 -128t-63.5 -151t-38 -157t-13.5 -147zM1413 922q0 50 -23.5 84t-76.5 34q-47 0 -92 -24t-83 -65t-72.5 -97t-61 -118t-46.5 -130l109 21q168 29 257 106.5t89 188.5z" />
    <glyph glyph-name="ccedilla" unicode="&#xe7;" horiz-adv-x="976" 
d="M55 295q0 140 60 290t154 267t218 192.5t244 75.5q272 0 227 -319l-198 -13q6 29 10 50t7.5 50t3 49.5t-5.5 42.5t-16 35.5t-30 22.5t-45 9q-80 0 -156.5 -71.5t-128 -178.5t-83 -229t-31.5 -226t39 -162.5t116 -58.5q106 0 209.5 82.5t173.5 232.5l35 -22
q-95 -213 -225 -325.5t-285 -115.5l-135 -159q40 18 100 18q150 0 150 -121q0 -59 -42.5 -105t-106.5 -68.5t-134 -22.5q-110 0 -186 51l24 41q52 -25 121 -25q68 0 121 27.5t53 81.5q0 35 -34.5 55.5t-83.5 20.5q-45 0 -89 -21l-16 10l189 224q-106 19 -165 100.5
t-59 214.5z" />
    <glyph glyph-name="egrave" unicode="&#xe8;" horiz-adv-x="991" 
d="M55 295q0 141 59 290t153 266.5t220 193t250 75.5q30 0 62 -5.5t66.5 -20t61 -35.5t43.5 -55.5t17 -77.5q0 -67 -32.5 -121t-94 -92.5t-137.5 -66t-176 -48.5l-238 -49q-24 -108 -24 -207q0 -104 39 -162.5t116 -58.5q106 0 209.5 81t173.5 230l35 -22
q-95 -214 -226 -325.5t-288 -111.5q-135 0 -212 84t-77 238zM680 1047q-76 0 -148 -64t-122.5 -160t-83.5 -213l108 21q168 29 257 106.5t89 188.5q0 51 -24 86t-76 35zM449 1581h237l76 -346h-39z" />
    <glyph glyph-name="eacute" unicode="&#xe9;" horiz-adv-x="991" 
d="M55 295q0 141 59 290t153 266.5t220 193t250 75.5q30 0 62 -5.5t66.5 -20t61 -35.5t43.5 -55.5t17 -77.5q0 -67 -32.5 -121t-94 -92.5t-137.5 -66t-176 -48.5l-238 -49q-24 -108 -24 -207q0 -104 39 -162.5t116 -58.5q106 0 209.5 81t173.5 230l35 -22
q-95 -214 -226 -325.5t-288 -111.5q-135 0 -212 84t-77 238zM680 1047q-76 0 -148 -64t-122.5 -160t-83.5 -213l108 21q168 29 257 106.5t89 188.5q0 51 -24 86t-76 35zM1139 1581l-459 -346h-35l225 346h269z" />
    <glyph glyph-name="ecircumflex" unicode="&#xea;" horiz-adv-x="991" 
d="M55 295q0 141 59 290t153 266.5t220 193t250 75.5q30 0 62 -5.5t66.5 -20t61 -35.5t43.5 -55.5t17 -77.5q0 -67 -32.5 -121t-94 -92.5t-137.5 -66t-176 -48.5l-238 -49q-24 -108 -24 -207q0 -104 39 -162.5t116 -58.5q106 0 209.5 81t173.5 230l35 -22
q-95 -214 -226 -325.5t-288 -111.5q-135 0 -212 84t-77 238zM680 1047q-76 0 -148 -64t-122.5 -160t-83.5 -213l108 21q168 29 257 106.5t89 188.5q0 51 -24 86t-76 35zM848 1581l237 -346h-36l-250 170l-346 -170h-41l409 346h27z" />
    <glyph glyph-name="edieresis" unicode="&#xeb;" horiz-adv-x="991" 
d="M55 295q0 141 59 290t153 266.5t220 193t250 75.5q30 0 62 -5.5t66.5 -20t61 -35.5t43.5 -55.5t17 -77.5q0 -67 -32.5 -121t-94 -92.5t-137.5 -66t-176 -48.5l-238 -49q-24 -108 -24 -207q0 -104 39 -162.5t116 -58.5q106 0 209.5 81t173.5 230l35 -22
q-95 -214 -226 -325.5t-288 -111.5q-135 0 -212 84t-77 238zM680 1047q-76 0 -148 -64t-122.5 -160t-83.5 -213l108 21q168 29 257 106.5t89 188.5q0 51 -24 86t-76 35zM395 1454q0 54 36 90.5t91 36.5q53 0 89 -36.5t36 -90.5q0 -56 -36 -92.5t-89 -36.5q-56 0 -91.5 36
t-35.5 93zM842 1454q0 54 37 90.5t92 36.5q51 0 88 -36.5t37 -90.5q0 -56 -36.5 -92.5t-88.5 -36.5q-56 0 -92.5 36t-36.5 93z" />
    <glyph glyph-name="igrave" unicode="&#xec;" horiz-adv-x="681" 
d="M236 725q33 136 31 171q-3 42 -45 54q-28 8 -93 8l10 37l406 125q-95 -358 -117 -448l-109 -443q-18 -57 -14 -95t45 -38q44 0 118 57t136 160l33 -20q-83 -152 -189.5 -236t-199.5 -84q-103 0 -132 76.5t9 222.5zM225 1581h238l76 -346h-39z" />
    <glyph glyph-name="iacute" unicode="&#xed;" horiz-adv-x="681" 
d="M236 725q33 136 31 171q-3 42 -45 54q-28 8 -93 8l10 37l406 125q-95 -358 -117 -448l-109 -443q-18 -57 -14 -95t45 -38q44 0 118 57t136 160l33 -20q-83 -152 -189.5 -236t-199.5 -84q-103 0 -132 76.5t9 222.5zM852 1581l-459 -346h-35l226 346h268z" />
    <glyph glyph-name="icircumflex" unicode="&#xee;" horiz-adv-x="681" 
d="M236 725q33 136 31 171q-3 42 -45 54q-28 8 -93 8l10 37l406 125q-95 -358 -117 -448l-109 -443q-18 -57 -14 -95t45 -38q44 0 118 57t136 160l33 -20q-83 -152 -189.5 -236t-199.5 -84q-103 0 -132 76.5t9 222.5zM543 1581l237 -346h-37l-249 170l-347 -170h-41l410 346
h27z" />
    <glyph glyph-name="idieresis" unicode="&#xef;" horiz-adv-x="681" 
d="M236 725q33 136 31 171q-3 42 -45 54q-28 8 -93 8l10 37l406 125q-95 -358 -117 -448l-109 -443q-18 -57 -14 -95t45 -38q44 0 118 57t136 160l33 -20q-83 -152 -189.5 -236t-199.5 -84q-103 0 -132 76.5t9 222.5zM92 1454q0 54 36 90.5t91 36.5q53 0 89 -36.5t36 -90.5
q0 -56 -36 -92.5t-89 -36.5q-56 0 -91.5 36t-35.5 93zM539 1454q0 54 37 90.5t92 36.5q52 0 88.5 -36.5t36.5 -90.5q0 -56 -36.5 -92.5t-88.5 -36.5q-56 0 -92.5 36t-36.5 93z" />
    <glyph glyph-name="eth" unicode="&#xf0;" horiz-adv-x="1134" 
d="M371 1282l166 143q-78 41 -193 80l18 49q132 -19 246 -67l170 145l45 -49l-149 -127q187 -96 299 -258t112 -375q0 -113 -36 -233.5t-103 -229.5t-154 -196.5t-197 -139t-224 -51.5q-152 0 -234 84.5t-82 243.5q0 89 28.5 186t76.5 186t115.5 170t141.5 140.5t158 95
t162 35.5q52 0 101 -14q-54 179 -238 291l-186 -160zM860 928q0 41 -2 61q-47 51 -123 51q-74 0 -139.5 -40t-113 -105.5t-85.5 -147.5t-61 -170t-35 -168t-12 -145q0 -217 139 -217q106 0 207 128t163 333.5t62 419.5z" />
    <glyph glyph-name="ntilde" unicode="&#xf1;" horiz-adv-x="1236" 
d="M551 1118l-135 -534q138 281 248 408.5t225 127.5q105 0 144.5 -94.5t-7.5 -271.5l-152 -525q-21 -55 -16 -94t47 -39q44 0 118 57t136 160l33 -20q-83 -152 -189.5 -236t-199.5 -84q-103 0 -134.5 77t11.5 222l127 433q24 79 34.5 130.5t8.5 82.5t-14 43t-37 12
q-71 0 -173.5 -138t-187 -320.5t-121.5 -328.5l-47 -186h-202l182 725q9 38 14 56.5t10.5 45.5t6.5 38.5t0.5 29t-4.5 23.5t-11 16t-17.5 12.5t-26.5 6.5t-34.5 4.5t-44.5 0.5l11 37zM479 1300h-39q0 67 18.5 128t64 106t110.5 45q39 0 84.5 -20t79.5 -44.5t74.5 -44.5
t70.5 -20q56 0 83 29t30 94h39q-2 -268 -176 -268q-46 0 -93 20t-79.5 44.5t-74 44.5t-77.5 20q-50 0 -80.5 -35.5t-34.5 -98.5z" />
    <glyph glyph-name="ograve" unicode="&#xf2;" horiz-adv-x="1130" 
d="M829 729q0 62 -9 115t-28.5 100.5t-57 75t-89.5 27.5q-73 0 -133.5 -51t-98.5 -127.5t-64 -171.5t-37 -178t-11 -152q0 -62 9 -115.5t28.5 -101.5t57 -75.5t89.5 -27.5q73 0 133.5 51t98.5 128t64 172t37 178.5t11 152.5zM68 436q0 150 54 281.5t139 217.5t188 135.5
t204 49.5q174 0 292 -132t118 -329q0 -121 -35 -230.5t-94.5 -191t-135 -142t-158.5 -91.5t-163 -31q-174 0 -291.5 132.5t-117.5 330.5zM451 1581h237l76 -346h-39z" />
    <glyph glyph-name="oacute" unicode="&#xf3;" horiz-adv-x="1130" 
d="M829 729q0 62 -9 115t-28.5 100.5t-57 75t-89.5 27.5q-73 0 -133.5 -51t-98.5 -127.5t-64 -171.5t-37 -178t-11 -152q0 -62 9 -115.5t28.5 -101.5t57 -75.5t89.5 -27.5q73 0 133.5 51t98.5 128t64 172t37 178.5t11 152.5zM68 436q0 150 54 281.5t139 217.5t188 135.5
t204 49.5q174 0 292 -132t118 -329q0 -121 -35 -230.5t-94.5 -191t-135 -142t-158.5 -91.5t-163 -31q-174 0 -291.5 132.5t-117.5 330.5zM1116 1581l-459 -346h-34l225 346h268z" />
    <glyph glyph-name="ocircumflex" unicode="&#xf4;" horiz-adv-x="1130" 
d="M829 729q0 62 -9 115t-28.5 100.5t-57 75t-89.5 27.5q-73 0 -133.5 -51t-98.5 -127.5t-64 -171.5t-37 -178t-11 -152q0 -62 9 -115.5t28.5 -101.5t57 -75.5t89.5 -27.5q73 0 133.5 51t98.5 128t64 172t37 178.5t11 152.5zM68 436q0 150 54 281.5t139 217.5t188 135.5
t204 49.5q174 0 292 -132t118 -329q0 -121 -35 -230.5t-94.5 -191t-135 -142t-158.5 -91.5t-163 -31q-174 0 -291.5 132.5t-117.5 330.5zM788 1581l238 -346h-37l-250 170l-346 -170h-41l410 346h26z" />
    <glyph glyph-name="otilde" unicode="&#xf5;" horiz-adv-x="1130" 
d="M829 729q0 62 -9 115t-28.5 100.5t-57 75t-89.5 27.5q-73 0 -133.5 -51t-98.5 -127.5t-64 -171.5t-37 -178t-11 -152q0 -62 9 -115.5t28.5 -101.5t57 -75.5t89.5 -27.5q73 0 133.5 51t98.5 128t64 172t37 178.5t11 152.5zM68 436q0 150 54 281.5t139 217.5t188 135.5
t204 49.5q174 0 292 -132t118 -329q0 -121 -35 -230.5t-94.5 -191t-135 -142t-158.5 -91.5t-163 -31q-174 0 -291.5 132.5t-117.5 330.5zM420 1300h-39q0 49 11 96.5t33 89.5t60.5 67.5t87.5 25.5t107.5 -32.5t112 -64.5t90.5 -32q56 0 82.5 28.5t29.5 94.5h39
q-2 -268 -176 -268q-46 0 -93 20t-79 44.5t-73.5 44.5t-77.5 20q-50 0 -80.5 -35.5t-34.5 -98.5z" />
    <glyph glyph-name="odieresis" unicode="&#xf6;" horiz-adv-x="1130" 
d="M829 729q0 62 -9 115t-28.5 100.5t-57 75t-89.5 27.5q-73 0 -133.5 -51t-98.5 -127.5t-64 -171.5t-37 -178t-11 -152q0 -62 9 -115.5t28.5 -101.5t57 -75.5t89.5 -27.5q73 0 133.5 51t98.5 128t64 172t37 178.5t11 152.5zM68 436q0 150 54 281.5t139 217.5t188 135.5
t204 49.5q174 0 292 -132t118 -329q0 -121 -35 -230.5t-94.5 -191t-135 -142t-158.5 -91.5t-163 -31q-174 0 -291.5 132.5t-117.5 330.5zM358 1454q0 54 36 90.5t91 36.5q53 0 89 -36.5t36 -90.5q0 -56 -36 -92.5t-89 -36.5q-56 0 -91.5 36t-35.5 93zM805 1454q0 54 37 90.5
t92 36.5q52 0 88.5 -36.5t36.5 -90.5q0 -56 -36.5 -92.5t-88.5 -36.5q-56 0 -92.5 36t-36.5 93z" />
    <glyph glyph-name="divide" unicode="&#xf7;" 
d="M573 127v207h195v-207h-195zM573 788v207h195v-207h-195zM1194 492h-1055v135h1055v-135z" />
    <glyph glyph-name="oslash" unicode="&#xf8;" horiz-adv-x="1130" 
d="M68 436q0 150 54 281.5t139 217.5t188 135.5t204 49.5q173 0 287 -127l139 150l60 -47l-152 -164q76 -123 76 -273q0 -121 -35 -230.5t-94.5 -191t-135 -142t-158.5 -91.5t-163 -31q-161 0 -276 115l-152 -162l-57 47l162 174q-86 122 -86 289zM301 367q0 -40 2 -60
l514 555q-36 185 -172 185q-73 0 -133.5 -51t-98.5 -127.5t-64 -171.5t-37 -178t-11 -152zM829 729v35l-514 -551q41 -166 170 -166q73 0 133.5 51t98.5 128t64 172t37 178.5t11 152.5z" />
    <glyph glyph-name="ugrave" unicode="&#xf9;" horiz-adv-x="1236" 
d="M233 725q11 38 17 61t11.5 49t5.5 40t-1 29.5t-8.5 23t-17.5 14.5t-27 10t-37 4.5t-49 1.5l10 37l406 125l-203 -733q-23 -81 -32.5 -131t-7.5 -81t15 -42.5t39 -11.5q68 0 169 137.5t185 320t121 328.5l50 195h208l-225 -873q-19 -57 -15 -95t46 -38q44 0 118 57
t136 160l33 -20q-83 -152 -189.5 -236t-199.5 -84q-103 0 -129 75.5t12 223.5l57 242q-136 -280 -246.5 -410.5t-218.5 -130.5q-109 0 -150 99.5t5 265.5zM479 1581h238l76 -346h-39z" />
    <glyph glyph-name="uacute" unicode="&#xfa;" horiz-adv-x="1236" 
d="M233 725q11 38 17 61t11.5 49t5.5 40t-1 29.5t-8.5 23t-17.5 14.5t-27 10t-37 4.5t-49 1.5l10 37l406 125l-203 -733q-23 -81 -32.5 -131t-7.5 -81t15 -42.5t39 -11.5q68 0 169 137.5t185 320t121 328.5l50 195h208l-225 -873q-19 -57 -15 -95t46 -38q44 0 118 57
t136 160l33 -20q-83 -152 -189.5 -236t-199.5 -84q-103 0 -129 75.5t12 223.5l57 242q-136 -280 -246.5 -410.5t-218.5 -130.5q-109 0 -150 99.5t5 265.5zM1174 1581l-459 -346h-35l225 346h269z" />
    <glyph glyph-name="ucircumflex" unicode="&#xfb;" horiz-adv-x="1236" 
d="M233 725q11 38 17 61t11.5 49t5.5 40t-1 29.5t-8.5 23t-17.5 14.5t-27 10t-37 4.5t-49 1.5l10 37l406 125l-203 -733q-23 -81 -32.5 -131t-7.5 -81t15 -42.5t39 -11.5q68 0 169 137.5t185 320t121 328.5l50 195h208l-225 -873q-19 -57 -15 -95t46 -38q44 0 118 57
t136 160l33 -20q-83 -152 -189.5 -236t-199.5 -84q-103 0 -129 75.5t12 223.5l57 242q-136 -280 -246.5 -410.5t-218.5 -130.5q-109 0 -150 99.5t5 265.5zM834 1581l237 -346h-37l-250 170l-346 -170h-41l410 346h27z" />
    <glyph glyph-name="udieresis" unicode="&#xfc;" horiz-adv-x="1236" 
d="M233 725q11 38 17 61t11.5 49t5.5 40t-1 29.5t-8.5 23t-17.5 14.5t-27 10t-37 4.5t-49 1.5l10 37l406 125l-203 -733q-23 -81 -32.5 -131t-7.5 -81t15 -42.5t39 -11.5q68 0 169 137.5t185 320t121 328.5l50 195h208l-225 -873q-19 -57 -15 -95t46 -38q44 0 118 57
t136 160l33 -20q-83 -152 -189.5 -236t-199.5 -84q-103 0 -129 75.5t12 223.5l57 242q-136 -280 -246.5 -410.5t-218.5 -130.5q-109 0 -150 99.5t5 265.5zM422 1454q0 54 36 90.5t91 36.5q53 0 89 -36.5t36 -90.5q0 -56 -36 -92.5t-89 -36.5q-56 0 -91.5 36t-35.5 93z
M868 1454q0 54 37 90.5t92 36.5q51 0 88 -36.5t37 -90.5q0 -56 -36.5 -92.5t-88.5 -36.5q-56 0 -92.5 36t-36.5 93z" />
    <glyph glyph-name="yacute" unicode="&#xfd;" horiz-adv-x="1218" 
d="M395 -104q-136 -201 -242.5 -275t-228.5 -74q-53 0 -137 15l57 227h17q60 -51 153 -51q90 0 158 39.5t133 140.5l51 76l-141 948q-11 74 -27 95t-71 28l6 37h452l-6 -37q-38 -8 -60 -13.5t-39.5 -14.5t-24.5 -16.5t-10.5 -24.5t-2.5 -32t4 -46l94 -676l373 569
q38 57 56.5 91.5t27.5 63t-2 45.5t-34 29.5t-66 24.5l6 37h395l-8 -37q-61 -15 -90.5 -31t-54.5 -45.5t-78 -107.5zM1198 1581l-459 -346h-34l225 346h268z" />
    <glyph glyph-name="thorn" unicode="&#xfe;" horiz-adv-x="1163" 
d="M383 1249q12 47 17 69t10.5 52.5t4.5 42.5t-5.5 28.5t-14 21.5t-26.5 11.5t-39 7.5t-54 1l11 37l403 125q-14 -52 -50.5 -196t-64.5 -253l-149 -569q89 218 208 352.5t243 134.5q113 0 175 -82.5t62 -232.5q0 -138 -61.5 -287.5t-157.5 -267.5t-220.5 -194.5
t-242.5 -76.5q-96 0 -153 35l-109 -450h-209zM324 188l-19 -77q15 -27 51 -45.5t78 -18.5q81 0 154.5 47.5t125 123.5t90 169.5t57 188.5t18.5 178q0 211 -113 211q-74 0 -163.5 -122.5t-162 -298t-116.5 -356.5z" />
    <glyph glyph-name="ydieresis" unicode="&#xff;" horiz-adv-x="1218" 
d="M395 -104q-136 -201 -242.5 -275t-228.5 -74q-53 0 -137 15l57 227h17q60 -51 153 -51q90 0 158 39.5t133 140.5l51 76l-141 948q-11 74 -27 95t-71 28l6 37h452l-6 -37q-38 -8 -60 -13.5t-39.5 -14.5t-24.5 -16.5t-10.5 -24.5t-2.5 -32t4 -46l94 -676l373 569
q38 57 56.5 91.5t27.5 63t-2 45.5t-34 29.5t-66 24.5l6 37h395l-8 -37q-61 -15 -90.5 -31t-54.5 -45.5t-78 -107.5zM438 1454q0 54 36 90.5t91 36.5q53 0 89 -36.5t36 -90.5q0 -56 -36 -92.5t-89 -36.5q-56 0 -91.5 36t-35.5 93zM885 1454q0 54 37 90.5t92 36.5
q52 0 88.5 -36.5t36.5 -90.5q0 -56 -36.5 -92.5t-88.5 -36.5q-56 0 -92.5 36t-36.5 93z" />
    <glyph glyph-name="Amacron" unicode="&#x100;" horiz-adv-x="1564" 
d="M-119 0l8 37q31 2 52 5t44 12.5t37.5 17.5t37 31.5t37.5 41.5t43.5 61t50.5 77.5t63 101.5l680 1094q73 7 117 63h8l192 -1323q7 -44 11 -66.5t12.5 -46t17 -32.5t27 -18t39.5 -12.5t57 -6.5l-8 -37h-567l10 37q64 7 94 12.5t57 20t33.5 39t1.5 65.5l-43 309h-573
l-17 -28q-93 -151 -133.5 -226t-41 -119.5t26.5 -55t99 -17.5l-8 -37h-465zM889 1239l-393 -635h481zM1300 1675h-606l33 140h606z" />
    <glyph glyph-name="amacron" unicode="&#x101;" horiz-adv-x="1247" 
d="M295 -27q-113 0 -176.5 84t-63.5 234q0 137 62 287t157.5 268.5t220.5 196t242 77.5q40 0 85.5 -10.5t72.5 -30.5l215 41l-115 -448l-110 -443q-9 -36 -12 -54t-2.5 -39.5t11.5 -30.5t33 -9q44 0 118 57t136 160l33 -20q-83 -152 -189.5 -236t-199.5 -84q-102 0 -133 77
t10 222l53 191q-88 -218 -206 -354t-242 -136zM403 123q57 0 123.5 72t126 186.5t110.5 251.5t85 272l18 76q-18 27 -54.5 46.5t-76.5 19.5q-81 0 -154 -47.5t-124.5 -124.5t-89 -171.5t-56 -189.5t-18.5 -178q0 -213 110 -213zM1153 1362h-606l33 139h606z" />
    <glyph glyph-name="Abreve" unicode="&#x102;" horiz-adv-x="1564" 
d="M-119 0l8 37q31 2 52 5t44 12.5t37.5 17.5t37 31.5t37.5 41.5t43.5 61t50.5 77.5t63 101.5l680 1094q73 7 117 63h8l192 -1323q7 -44 11 -66.5t12.5 -46t17 -32.5t27 -18t39.5 -12.5t57 -6.5l-8 -37h-567l10 37q64 7 94 12.5t57 20t33.5 39t1.5 65.5l-43 309h-573
l-17 -28q-93 -151 -133.5 -226t-41 -119.5t26.5 -55t99 -17.5l-8 -37h-465zM889 1239l-393 -635h481zM1008 1612q-92 0 -151 40t-77.5 100t-3.5 130h96q-21 -95 17.5 -142.5t126.5 -47.5q166 0 215 190h98q-11 -52 -35 -98t-62 -85.5t-96 -63t-128 -23.5z" />
    <glyph glyph-name="abreve" unicode="&#x103;" horiz-adv-x="1247" 
d="M295 -27q-113 0 -176.5 84t-63.5 234q0 137 62 287t157.5 268.5t220.5 196t242 77.5q40 0 85.5 -10.5t72.5 -30.5l215 41l-115 -448l-110 -443q-9 -36 -12 -54t-2.5 -39.5t11.5 -30.5t33 -9q44 0 118 57t136 160l33 -20q-83 -152 -189.5 -236t-199.5 -84q-102 0 -133 77
t10 222l53 191q-88 -218 -206 -354t-242 -136zM403 123q57 0 123.5 72t126 186.5t110.5 251.5t85 272l18 76q-18 27 -54.5 46.5t-76.5 19.5q-81 0 -154 -47.5t-124.5 -124.5t-89 -171.5t-56 -189.5t-18.5 -178q0 -213 110 -213zM858 1356q91 0 150.5 54t83.5 151h106
q-13 -56 -41 -106t-70.5 -92t-106 -66.5t-138.5 -24.5q-60 0 -107 16.5t-75 44t-45.5 65t-18.5 79t6 84.5h98q-18 -109 22 -157t136 -48z" />
    <glyph glyph-name="Aogonek" unicode="&#x104;" horiz-adv-x="1564" 
d="M1292 -317l15 -23q-47 -47 -108 -74.5t-118 -27.5q-75 0 -129.5 42t-54.5 124q0 75 75 149.5t175 126.5h-307l10 37q64 7 94 12.5t57 20t33.5 39t1.5 65.5l-43 309h-573l-17 -28q-93 -151 -133.5 -226t-41 -119.5t26.5 -55t99 -17.5l-8 -37h-465l8 37q31 2 52 5t44 12.5
t37.5 17.5t37 31.5t37.5 41.5t43.5 61t50.5 77.5t63 101.5l680 1094q73 7 117 63h8l192 -1323q7 -44 11 -66.5t12.5 -46t17 -32.5t27 -18t39.5 -12.5t57 -6.5l-8 -37h-211q-66 -45 -105.5 -104.5t-39.5 -118.5q0 -58 34.5 -92.5t85.5 -34.5q62 0 121 33zM889 1239l-393 -635
h481z" />
    <glyph glyph-name="aogonek" unicode="&#x105;" horiz-adv-x="1247" 
d="M942 -317l14 -23q-47 -47 -107.5 -74.5t-117.5 -27.5q-75 0 -129.5 42t-54.5 124q0 68 62 136t151 120q-142 38 -70 292l53 191q-88 -218 -206 -354t-242 -136q-113 0 -176.5 84t-63.5 234q0 137 62 287t157.5 268.5t220.5 196t242 77.5q40 0 85.5 -10.5t72.5 -30.5
l215 41l-115 -448l-110 -443q-9 -36 -12 -54t-2.5 -39.5t11.5 -30.5t33 -9q44 0 118 57t136 160l33 -20q-83 -152 -189.5 -236t-199.5 -84q-52 -42 -82.5 -93.5t-30.5 -102.5q0 -58 35 -92.5t86 -34.5q62 0 121 33zM403 123q57 0 123.5 72t126 186.5t110.5 251.5t85 272
l18 76q-18 27 -54.5 46.5t-76.5 19.5q-81 0 -154 -47.5t-124.5 -124.5t-89 -171.5t-56 -189.5t-18.5 -178q0 -213 110 -213z" />
    <glyph glyph-name="Cacute" unicode="&#x106;" horiz-adv-x="1421" 
d="M1343 997q3 171 -31 269t-106 139t-196 41q-102 0 -195 -42.5t-164 -114.5t-129 -165.5t-95 -197t-57 -207t-20 -197.5q0 -105 20.5 -185.5t64.5 -141t118.5 -92t177.5 -31.5q98 0 187.5 31.5t156 84.5t115 111t80.5 121l47 -27q-29 -67 -69.5 -126.5t-97.5 -114
t-124 -94t-153 -62.5t-181 -23q-170 0 -302 66t-210 200t-78 320q0 194 77.5 373t205 307t298 204.5t351.5 76.5q99 0 215 -28t207 -83l-74 -412h-39zM1520 1888l-514 -264h-43l235 264h322z" />
    <glyph glyph-name="cacute" unicode="&#x107;" horiz-adv-x="976" 
d="M1176 1581l-459 -346h-35l225 346h269zM55 295q0 140 60 290t154 267t218 192.5t244 75.5q272 0 227 -319l-198 -13q6 29 10 50t7.5 50t3 49.5t-5.5 42.5t-16 35.5t-30 22.5t-45 9q-80 0 -156.5 -71.5t-128 -178.5t-83 -229t-31.5 -226t39 -162.5t116 -58.5
q106 0 209.5 82.5t173.5 232.5l35 -22q-96 -215 -227 -328t-287 -113q-135 0 -212 84t-77 238z" />
    <glyph glyph-name="Ccircumflex" unicode="&#x108;" horiz-adv-x="1419" 
d="M1343 997q3 171 -31 269t-106 139t-196 41q-102 0 -195 -42.5t-164 -114.5t-129 -165.5t-95 -197t-57 -207t-20 -197.5q0 -105 20.5 -185.5t64.5 -141t118.5 -92t177.5 -31.5q98 0 187.5 31.5t156 84.5t115 111t80.5 121l47 -27q-29 -67 -69.5 -126.5t-97.5 -114
t-124 -94t-153 -62.5t-181 -23q-170 0 -302 66t-210 200t-78 320q0 194 77.5 373t205 307t298 204.5t351.5 76.5q99 0 215 -28t207 -83l-74 -412h-39zM1108 1909h33l227 -285h-41l-237 121l-302 -121h-47z" />
    <glyph glyph-name="ccircumflex" unicode="&#x109;" horiz-adv-x="976" 
d="M862 1581l238 -346h-37l-250 170l-346 -170h-41l410 346h26zM55 295q0 140 60 290t154 267t218 192.5t244 75.5q272 0 227 -319l-198 -13q6 29 10 50t7.5 50t3 49.5t-5.5 42.5t-16 35.5t-30 22.5t-45 9q-80 0 -156.5 -71.5t-128 -178.5t-83 -229t-31.5 -226t39 -162.5
t116 -58.5q106 0 209.5 82.5t173.5 232.5l35 -22q-96 -215 -227 -328t-287 -113q-135 0 -212 84t-77 238z" />
    <glyph glyph-name="Cdotaccent" unicode="&#x10a;" horiz-adv-x="1419" 
d="M1343 997q3 171 -31 269t-106 139t-196 41q-102 0 -195 -42.5t-164 -114.5t-129 -165.5t-95 -197t-57 -207t-20 -197.5q0 -105 20.5 -185.5t64.5 -141t118.5 -92t177.5 -31.5q98 0 187.5 31.5t156 84.5t115 111t80.5 121l47 -27q-29 -67 -69.5 -126.5t-97.5 -114
t-124 -94t-153 -62.5t-181 -23q-170 0 -302 66t-210 200t-78 320q0 194 77.5 373t205 307t298 204.5t351.5 76.5q99 0 215 -28t207 -83l-74 -412h-39zM954 1759q0 55 36 92t91 37q52 0 88.5 -37.5t36.5 -91.5q0 -56 -36 -92.5t-89 -36.5q-56 0 -91.5 36t-35.5 93z" />
    <glyph glyph-name="cdotaccent" unicode="&#x10b;" horiz-adv-x="976" 
d="M55 295q0 140 60 290t154 267t218 192.5t244 75.5q272 0 227 -319l-198 -13q6 29 10 50t7.5 50t3 49.5t-5.5 42.5t-16 35.5t-30 22.5t-45 9q-80 0 -156.5 -71.5t-128 -178.5t-83 -229t-31.5 -226t39 -162.5t116 -58.5q106 0 209.5 82.5t173.5 232.5l35 -22
q-96 -215 -227 -328t-287 -113q-135 0 -212 84t-77 238zM682 1454q0 54 36 90.5t91 36.5q53 0 89 -36.5t36 -90.5q0 -56 -36 -92.5t-89 -36.5q-56 0 -91.5 36t-35.5 93z" />
    <glyph glyph-name="Ccaron" unicode="&#x10c;" horiz-adv-x="1419" 
d="M1343 997q3 171 -31 269t-106 139t-196 41q-102 0 -195 -42.5t-164 -114.5t-129 -165.5t-95 -197t-57 -207t-20 -197.5q0 -105 20.5 -185.5t64.5 -141t118.5 -92t177.5 -31.5q98 0 187.5 31.5t156 84.5t115 111t80.5 121l47 -27q-29 -67 -69.5 -126.5t-97.5 -114
t-124 -94t-153 -62.5t-181 -23q-170 0 -302 66t-210 200t-78 320q0 194 77.5 373t205 307t298 204.5t351.5 76.5q99 0 215 -28t207 -83l-74 -412h-39zM1090 1624h-33l-228 285h41l238 -121l301 121h47z" />
    <glyph glyph-name="ccaron" unicode="&#x10d;" horiz-adv-x="976" 
d="M735 1235l-237 346h37l249 -170l346 170h41l-409 -346h-27zM55 295q0 140 60 290t154 267t218 192.5t244 75.5q272 0 227 -319l-198 -13q6 29 10 50t7.5 50t3 49.5t-5.5 42.5t-16 35.5t-30 22.5t-45 9q-80 0 -156.5 -71.5t-128 -178.5t-83 -229t-31.5 -226t39 -162.5
t116 -58.5q106 0 209.5 82.5t173.5 232.5l35 -22q-96 -215 -227 -328t-287 -113q-135 0 -212 84t-77 238z" />
    <glyph glyph-name="Dcaron" unicode="&#x10e;" horiz-adv-x="1601" 
d="M299 1485h469q364 0 576 -158t212 -436q0 -175 -53 -319.5t-150.5 -250t-237 -178t-312.5 -108t-375 -35.5h-498l9 37q42 6 62.5 9t48.5 10t40 14t30 21t26 30t20.5 43t21 58t19.5 77l221 887q11 46 18 76.5t8.5 58t1 43.5t-11 30.5t-19 21t-33 13.5t-43.5 10t-58 9z
M375 74h59q423 0 649 218.5t226 610.5q0 263 -133.5 385.5t-407.5 122.5h-59zM956 1624h-32l-228 285h41l238 -121l301 121h47z" />
    <glyph glyph-name="dcaron" unicode="&#x10f;" horiz-adv-x="1441" 
d="M934 1249q12 47 17 69t10.5 52.5t4.5 42.5t-5.5 28.5t-14 21.5t-26.5 11.5t-39 7.5t-54 1l11 37l403 125l-115 -449l-241 -967q-9 -36 -12 -54t-2.5 -39.5t11.5 -30.5t33 -9q44 0 118 57t136 160l33 -20q-83 -152 -189.5 -236t-199.5 -84q-204 0 -123 299l53 193
q-88 -219 -206.5 -355.5t-241.5 -136.5q-113 0 -176.5 84.5t-63.5 235.5q0 92 28.5 191.5t76.5 190t115 172.5t141.5 142t158 95.5t162.5 35.5q36 0 80.5 -10.5t73.5 -28.5zM403 123q57 0 123.5 71.5t126 186t110.5 251t85 271.5l18 78q-16 26 -53 46t-78 20
q-81 0 -154 -47.5t-124.5 -124t-89 -170.5t-56 -189t-18.5 -178q0 -215 110 -215zM1464 1380q-49 3 -86 36.5t-37 82.5q0 51 35.5 87t89.5 36q55 0 88 -38t33 -99q0 -109 -99.5 -220t-236.5 -167l-10 20q93 52 158 119.5t65 142.5z" />
    <glyph glyph-name="Dcroat" unicode="&#x110;" horiz-adv-x="1632" 
d="M330 1485h469q364 0 576 -158t212 -436q0 -175 -53 -319.5t-150.5 -250t-237 -178t-312.5 -108t-375 -35.5h-498l8 37q56 8 81 12t57 16t45 25.5t31 43.5t29 67t26 98l104 422h-231l24 90h230l94 375q11 46 18 76.5t8.5 58t1 43.5t-11 30.5t-19 21t-33 13.5t-43.5 10
t-58 9zM406 74h59q423 0 648.5 218t225.5 611q0 263 -133 385.5t-407 122.5h-60l-149 -600h293l-25 -90h-291z" />
    <glyph glyph-name="dcroat" unicode="&#x111;" horiz-adv-x="1234" 
d="M666 1305h282q29 114 8.5 146t-129.5 32l11 37l403 125l-88 -340h205l-21 -80h-204l-248 -996q-9 -36 -12 -54t-2.5 -39.5t11.5 -30.5t33 -9q44 0 118 57t136 160l33 -20q-83 -152 -189.5 -236t-199.5 -84q-204 0 -123 299l53 193q-88 -219 -206.5 -355.5t-241.5 -136.5
q-113 0 -176.5 84.5t-63.5 235.5q0 92 28.5 191.5t76.5 190t115 172.5t141.5 142t158 95.5t162.5 35.5q36 0 80.5 -10.5t73.5 -28.5l37 144h-283zM403 123q57 0 123.5 71.5t126 186t110.5 251t85 271.5l18 78q-16 26 -53 46t-78 20q-81 0 -154 -47.5t-124.5 -124t-89 -170.5
t-56 -189t-18.5 -178q0 -215 110 -215z" />
    <glyph glyph-name="Emacron" unicode="&#x112;" horiz-adv-x="1374" 
d="M297 1485h664q300 0 454 6l-51 -449h-39q-4 56 -10 99t-19 79.5t-23 62.5t-35.5 46.5t-43 34t-58 23t-68 14t-85.5 7t-98.5 3t-118.5 0.5h-57l-150 -600h336l170 229h33l-137 -555h-33l-56 236h-337l-140 -557q-16 -51 -2.5 -72.5t74.5 -21.5q94 0 154.5 2.5t127 10.5
t112 24.5t95 43.5t90.5 68.5t84.5 97t90.5 132.5h39l-195 -451q-154 2 -453 2h-684l9 37q42 6 62.5 9t48.5 10t40 14t30 21t26 30t20.5 43t21 58t19.5 77l221 887q11 46 18 76.5t8.5 58t1 43.5t-11 30.5t-19 21t-33 13.5t-43.5 10t-58 9zM1239 1675h-606l33 140h606z" />
    <glyph glyph-name="emacron" unicode="&#x113;" horiz-adv-x="991" 
d="M55 295q0 141 59 290t153 266.5t220 193t250 75.5q30 0 62 -5.5t66.5 -20t61 -35.5t43.5 -55.5t17 -77.5q0 -67 -32.5 -121t-94 -92.5t-137.5 -66t-176 -48.5l-238 -49q-24 -108 -24 -207q0 -104 39 -162.5t116 -58.5q106 0 209.5 81t173.5 230l35 -22
q-95 -214 -226 -325.5t-288 -111.5q-135 0 -212 84t-77 238zM680 1047q-76 0 -148 -64t-122.5 -160t-83.5 -213l108 21q168 29 257 106.5t89 188.5q0 51 -24 86t-76 35zM1049 1362h-607l33 139h606z" />
    <glyph glyph-name="Ebreve" unicode="&#x114;" horiz-adv-x="1374" 
d="M297 1485h664q300 0 454 6l-51 -449h-39q-4 56 -10 99t-19 79.5t-23 62.5t-35.5 46.5t-43 34t-58 23t-68 14t-85.5 7t-98.5 3t-118.5 0.5h-57l-150 -600h336l170 229h33l-137 -555h-33l-56 236h-337l-140 -557q-16 -51 -2.5 -72.5t74.5 -21.5q94 0 154.5 2.5t127 10.5
t112 24.5t95 43.5t90.5 68.5t84.5 97t90.5 132.5h39l-195 -451q-154 2 -453 2h-684l9 37q42 6 62.5 9t48.5 10t40 14t30 21t26 30t20.5 43t21 58t19.5 77l221 887q11 46 18 76.5t8.5 58t1 43.5t-11 30.5t-19 21t-33 13.5t-43.5 10t-58 9zM956 1612q-92 0 -151 40t-77 100
t-3 130h96q-21 -95 17.5 -142.5t126.5 -47.5q166 0 215 190h98q-23 -111 -105 -190.5t-217 -79.5z" />
    <glyph glyph-name="ebreve" unicode="&#x115;" horiz-adv-x="991" 
d="M55 295q0 141 59 290t153 266.5t220 193t250 75.5q30 0 62 -5.5t66.5 -20t61 -35.5t43.5 -55.5t17 -77.5q0 -67 -32.5 -121t-94 -92.5t-137.5 -66t-176 -48.5l-238 -49q-24 -108 -24 -207q0 -104 39 -162.5t116 -58.5q106 0 209.5 81t173.5 230l35 -22
q-95 -214 -226 -325.5t-288 -111.5q-135 0 -212 84t-77 238zM680 1047q-76 0 -148 -64t-122.5 -160t-83.5 -213l108 21q168 29 257 106.5t89 188.5q0 51 -24 86t-76 35zM776 1356q91 0 150.5 54t83.5 151h106q-13 -56 -41 -106t-70.5 -92t-106 -66.5t-138.5 -24.5
q-60 0 -107 16.5t-75 44t-45.5 65t-18.5 79t6 84.5h98q-18 -109 22 -157t136 -48z" />
    <glyph glyph-name="Edotaccent" unicode="&#x116;" horiz-adv-x="1374" 
d="M297 1485h664q300 0 454 6l-51 -449h-39q-4 56 -10 99t-19 79.5t-23 62.5t-35.5 46.5t-43 34t-58 23t-68 14t-85.5 7t-98.5 3t-118.5 0.5h-57l-150 -600h336l170 229h33l-137 -555h-33l-56 236h-337l-140 -557q-16 -51 -2.5 -72.5t74.5 -21.5q94 0 154.5 2.5t127 10.5
t112 24.5t95 43.5t90.5 68.5t84.5 97t90.5 132.5h39l-195 -451q-154 2 -453 2h-684l9 37q42 6 62.5 9t48.5 10t40 14t30 21t26 30t20.5 43t21 58t19.5 77l221 887q11 46 18 76.5t8.5 58t1 43.5t-11 30.5t-19 21t-33 13.5t-43.5 10t-58 9zM852 1759q0 55 36 92t91 37
q52 0 88.5 -37.5t36.5 -91.5q0 -56 -36 -92.5t-89 -36.5q-56 0 -91.5 36t-35.5 93z" />
    <glyph glyph-name="edotaccent" unicode="&#x117;" horiz-adv-x="991" 
d="M55 295q0 141 59 290t153 266.5t220 193t250 75.5q30 0 62 -5.5t66.5 -20t61 -35.5t43.5 -55.5t17 -77.5q0 -67 -32.5 -121t-94 -92.5t-137.5 -66t-176 -48.5l-238 -49q-24 -108 -24 -207q0 -104 39 -162.5t116 -58.5q106 0 209.5 81t173.5 230l35 -22
q-95 -214 -226 -325.5t-288 -111.5q-135 0 -212 84t-77 238zM680 1047q-76 0 -148 -64t-122.5 -160t-83.5 -213l108 21q168 29 257 106.5t89 188.5q0 51 -24 86t-76 35zM698 1454q0 54 36 90.5t91 36.5q53 0 89 -36.5t36 -90.5q0 -56 -36 -92.5t-89 -36.5q-56 0 -91.5 36
t-35.5 93z" />
    <glyph glyph-name="Eogonek" unicode="&#x118;" horiz-adv-x="1374" 
d="M1012 -317l14 -23q-47 -47 -107.5 -74.5t-117.5 -27.5q-75 0 -130 42t-55 124q0 75 75 149.5t175 126.5h-254h-684l9 37q42 6 62.5 9t48.5 10t40 14t30 21t26 30t20.5 43t21 58t19.5 77l221 887q11 46 18 76.5t8.5 58t1 43.5t-11 30.5t-19 21t-33 13.5t-43.5 10t-58 9
l8 37h664q300 0 454 6l-51 -449h-39q-4 56 -10 99t-19 79.5t-23 62.5t-35.5 46.5t-43 34t-58 23t-68 14t-85.5 7t-98.5 3t-118.5 0.5h-57l-150 -600h336l170 229h33l-137 -555h-33l-56 236h-337l-140 -557q-16 -51 -2.5 -72.5t74.5 -21.5q94 0 154.5 2.5t127 10.5t112 24.5
t95 43.5t90.5 68.5t84.5 97t90.5 132.5h39l-195 -451q-49 2 -150 2q-66 -45 -105.5 -104.5t-39.5 -118.5q0 -58 35 -92.5t86 -34.5q62 0 121 33z" />
    <glyph glyph-name="eogonek" unicode="&#x119;" horiz-adv-x="991" 
d="M592 -317l14 -23q-47 -47 -107.5 -74.5t-117.5 -27.5q-75 0 -129.5 42t-54.5 124q0 67 61.5 134t149.5 119q-40 -4 -64 -4q-135 0 -212 84t-77 238q0 141 59 290t153 266.5t220 193t250 75.5q30 0 62 -5.5t66.5 -20t61 -35.5t43.5 -55.5t17 -77.5q0 -67 -32.5 -121
t-94 -92.5t-137.5 -66t-176 -48.5l-238 -49q-24 -108 -24 -207q0 -104 39 -162.5t116 -58.5q106 0 209.5 81t173.5 230l35 -22q-142 -320 -356 -406h2q-69 -45 -111.5 -106t-42.5 -121q0 -58 35 -92.5t86 -34.5q62 0 121 33zM680 1047q-76 0 -148 -64t-122.5 -160
t-83.5 -213l108 21q168 29 257 106.5t89 188.5q0 51 -24 86t-76 35z" />
    <glyph glyph-name="Ecaron" unicode="&#x11a;" horiz-adv-x="1374" 
d="M297 1485h664q300 0 454 6l-51 -449h-39q-4 56 -10 99t-19 79.5t-23 62.5t-35.5 46.5t-43 34t-58 23t-68 14t-85.5 7t-98.5 3t-118.5 0.5h-57l-150 -600h336l170 229h33l-137 -555h-33l-56 236h-337l-140 -557q-16 -51 -2.5 -72.5t74.5 -21.5q94 0 154.5 2.5t127 10.5
t112 24.5t95 43.5t90.5 68.5t84.5 97t90.5 132.5h39l-195 -451q-154 2 -453 2h-684l9 37q42 6 62.5 9t48.5 10t40 14t30 21t26 30t20.5 43t21 58t19.5 77l221 887q11 46 18 76.5t8.5 58t1 43.5t-11 30.5t-19 21t-33 13.5t-43.5 10t-58 9zM981 1624h-33l-227 285h41l237 -121
l301 121h48z" />
    <glyph glyph-name="ecaron" unicode="&#x11b;" horiz-adv-x="991" 
d="M55 295q0 141 59 290t153 266.5t220 193t250 75.5q30 0 62 -5.5t66.5 -20t61 -35.5t43.5 -55.5t17 -77.5q0 -67 -32.5 -121t-94 -92.5t-137.5 -66t-176 -48.5l-238 -49q-24 -108 -24 -207q0 -104 39 -162.5t116 -58.5q106 0 209.5 81t173.5 230l35 -22
q-95 -214 -226 -325.5t-288 -111.5q-135 0 -212 84t-77 238zM680 1047q-76 0 -148 -64t-122.5 -160t-83.5 -213l108 21q168 29 257 106.5t89 188.5q0 51 -24 86t-76 35zM743 1235l-237 346h37l250 -170l346 170h41l-410 -346h-27z" />
    <glyph glyph-name="Gcircumflex" unicode="&#x11c;" horiz-adv-x="1562" 
d="M739 -27q-300 0 -468.5 161.5t-168.5 447.5q0 117 34 234t94.5 220.5t148.5 192.5t192.5 153.5t231 101t258.5 36.5q120 0 255 -35t206 -78l-74 -412h-37q3 132 -19.5 220.5t-72 139t-117.5 71t-166 20.5q-122 0 -233 -58t-191.5 -152.5t-141 -212.5t-90.5 -242t-30 -236
q0 -104 25.5 -192.5t75.5 -156.5t129.5 -106.5t181.5 -38.5q73 0 137.5 17.5t120 64.5t74.5 119l30 121q12 43 18.5 72t9.5 56t2 43.5t-8.5 32t-19.5 23.5t-32.5 14.5t-44.5 10t-60 6.5l10 41h560l-11 -41q-92 -12 -124.5 -56.5t-71.5 -201.5l-60 -242
q-118 -75 -267.5 -116.5t-285.5 -41.5zM1116 1909h33l227 -285h-41l-237 121l-301 -121h-47z" />
    <glyph glyph-name="gcircumflex" unicode="&#x11d;" horiz-adv-x="1196" 
d="M201 688q0 125 76 226.5t185.5 153.5t221.5 52q68 0 123 -18h422l-21 -80h-266q80 -83 80 -193q0 -125 -76 -226.5t-185.5 -153.5t-221.5 -52q-75 0 -136 21q-118 -75 -118 -131q0 -28 27.5 -39.5t86.5 -14.5l197 -12q165 -8 247.5 -55.5t82.5 -142.5q0 -86 -41.5 -163.5
t-109.5 -133.5t-154 -97.5t-177.5 -62.5t-177.5 -21q-180 0 -269 61.5t-89 157.5q0 183 350 269q-75 13 -118.5 53.5t-43.5 93.5q0 27 9.5 52.5t20.5 44.5t37 40.5t41 33.5t52 32t50.5 26.5t53.5 26.5q-73 37 -116 103.5t-43 148.5zM508 16l-191 11h-2q-87 -32 -151 -99
t-64 -147q0 -154 201 -154q73 0 149 18.5t142 52t108.5 88.5t42.5 120q0 54 -58 79t-177 31zM829 872q0 179 -151 179q-60 0 -110 -30t-81.5 -75t-53.5 -101.5t-31 -107t-9 -92.5q0 -178 152 -178q60 0 110 29.5t81.5 75t53 101.5t30.5 106.5t9 92.5zM836 1581l237 -346h-37
l-250 170l-346 -170h-41l410 346h27z" />
    <glyph glyph-name="Gbreve" unicode="&#x11e;" horiz-adv-x="1562" 
d="M739 -27q-300 0 -468.5 161.5t-168.5 447.5q0 117 34 234t94.5 220.5t148.5 192.5t192.5 153.5t231 101t258.5 36.5q120 0 255 -35t206 -78l-74 -412h-37q3 132 -19.5 220.5t-72 139t-117.5 71t-166 20.5q-122 0 -233 -58t-191.5 -152.5t-141 -212.5t-90.5 -242t-30 -236
q0 -104 25.5 -192.5t75.5 -156.5t129.5 -106.5t181.5 -38.5q73 0 137.5 17.5t120 64.5t74.5 119l30 121q12 43 18.5 72t9.5 56t2 43.5t-8.5 32t-19.5 23.5t-32.5 14.5t-44.5 10t-60 6.5l10 41h560l-11 -41q-92 -12 -124.5 -56.5t-71.5 -201.5l-60 -242
q-118 -75 -267.5 -116.5t-285.5 -41.5zM1051 1612q-92 0 -151 40t-77.5 100t-3.5 130h96q-21 -95 17.5 -142.5t126.5 -47.5q166 0 215 190h98q-11 -52 -35 -98t-62 -85.5t-96 -63t-128 -23.5z" />
    <glyph glyph-name="gbreve" unicode="&#x11f;" horiz-adv-x="1196" 
d="M201 688q0 125 76 226.5t185.5 153.5t221.5 52q68 0 123 -18h422l-21 -80h-266q80 -83 80 -193q0 -125 -76 -226.5t-185.5 -153.5t-221.5 -52q-75 0 -136 21q-118 -75 -118 -131q0 -28 27.5 -39.5t86.5 -14.5l197 -12q165 -8 247.5 -55.5t82.5 -142.5q0 -86 -41.5 -163.5
t-109.5 -133.5t-154 -97.5t-177.5 -62.5t-177.5 -21q-180 0 -269 61.5t-89 157.5q0 183 350 269q-75 13 -118.5 53.5t-43.5 93.5q0 27 9.5 52.5t20.5 44.5t37 40.5t41 33.5t52 32t50.5 26.5t53.5 26.5q-73 37 -116 103.5t-43 148.5zM508 16l-191 11h-2q-87 -32 -151 -99
t-64 -147q0 -154 201 -154q73 0 149 18.5t142 52t108.5 88.5t42.5 120q0 54 -58 79t-177 31zM829 872q0 179 -151 179q-60 0 -110 -30t-81.5 -75t-53.5 -101.5t-31 -107t-9 -92.5q0 -178 152 -178q60 0 110 29.5t81.5 75t53 101.5t30.5 106.5t9 92.5zM768 1356q91 0 150 54
t83 151h107q-13 -56 -41 -106t-70.5 -92t-106 -66.5t-138.5 -24.5q-60 0 -107 16.5t-75 44t-45.5 65t-18.5 79t6 84.5h98q-18 -109 22 -157t136 -48z" />
    <glyph glyph-name="Gdotaccent" unicode="&#x120;" horiz-adv-x="1562" 
d="M739 -27q-300 0 -468.5 161.5t-168.5 447.5q0 117 34 234t94.5 220.5t148.5 192.5t192.5 153.5t231 101t258.5 36.5q120 0 255 -35t206 -78l-74 -412h-37q3 132 -19.5 220.5t-72 139t-117.5 71t-166 20.5q-122 0 -233 -58t-191.5 -152.5t-141 -212.5t-90.5 -242t-30 -236
q0 -104 25.5 -192.5t75.5 -156.5t129.5 -106.5t181.5 -38.5q73 0 137.5 17.5t120 64.5t74.5 119l30 121q12 43 18.5 72t9.5 56t2 43.5t-8.5 32t-19.5 23.5t-32.5 14.5t-44.5 10t-60 6.5l10 41h560l-11 -41q-92 -12 -124.5 -56.5t-71.5 -201.5l-60 -242
q-118 -75 -267.5 -116.5t-285.5 -41.5zM973 1759q0 55 36 92t91 37q52 0 88.5 -37.5t36.5 -91.5q0 -56 -36 -92.5t-89 -36.5q-56 0 -91.5 36t-35.5 93z" />
    <glyph glyph-name="gdotaccent" unicode="&#x121;" horiz-adv-x="1196" 
d="M201 688q0 125 76 226.5t185.5 153.5t221.5 52q68 0 123 -18h422l-21 -80h-266q80 -83 80 -193q0 -125 -76 -226.5t-185.5 -153.5t-221.5 -52q-75 0 -136 21q-118 -75 -118 -131q0 -28 27.5 -39.5t86.5 -14.5l197 -12q165 -8 247.5 -55.5t82.5 -142.5q0 -86 -41.5 -163.5
t-109.5 -133.5t-154 -97.5t-177.5 -62.5t-177.5 -21q-180 0 -269 61.5t-89 157.5q0 183 350 269q-75 13 -118.5 53.5t-43.5 93.5q0 27 9.5 52.5t20.5 44.5t37 40.5t41 33.5t52 32t50.5 26.5t53.5 26.5q-73 37 -116 103.5t-43 148.5zM508 16l-191 11h-2q-87 -32 -151 -99
t-64 -147q0 -154 201 -154q73 0 149 18.5t142 52t108.5 88.5t42.5 120q0 54 -58 79t-177 31zM829 872q0 179 -151 179q-60 0 -110 -30t-81.5 -75t-53.5 -101.5t-31 -107t-9 -92.5q0 -178 152 -178q60 0 110 29.5t81.5 75t53 101.5t30.5 106.5t9 92.5zM662 1454
q0 54 35.5 90.5t90.5 36.5q53 0 89 -36.5t36 -90.5q0 -56 -36 -92.5t-89 -36.5q-56 0 -91 36t-35 93z" />
    <glyph glyph-name="Gcommaaccent" unicode="&#x122;" horiz-adv-x="1562" 
d="M739 -27q-300 0 -468.5 161.5t-168.5 447.5q0 117 34 234t94.5 220.5t148.5 192.5t192.5 153.5t231 101t258.5 36.5q120 0 255 -35t206 -78l-74 -412h-37q3 132 -19.5 220.5t-72 139t-117.5 71t-166 20.5q-122 0 -233 -58t-191.5 -152.5t-141 -212.5t-90.5 -242t-30 -236
q0 -104 25.5 -192.5t75.5 -156.5t129.5 -106.5t181.5 -38.5q73 0 137.5 17.5t120 64.5t74.5 119l30 121q12 43 18.5 72t9.5 56t2 43.5t-8.5 32t-19.5 23.5t-32.5 14.5t-44.5 10t-60 6.5l10 41h560l-11 -41q-92 -12 -124.5 -56.5t-71.5 -201.5l-60 -242
q-118 -75 -267.5 -116.5t-285.5 -41.5zM612 -354q-50 3 -86.5 36t-36.5 82q0 52 35.5 87.5t89.5 35.5q55 0 88 -38t33 -99q0 -109 -99.5 -220t-236.5 -167l-10 21q93 52 158 119.5t65 142.5z" />
    <glyph glyph-name="gcommaaccent" unicode="&#x123;" horiz-adv-x="1196" 
d="M797 1526q51 -2 88 -35t37 -84t-36.5 -87t-90.5 -36q-55 0 -88 38t-33 99q0 110 100 220.5t236 166.5l12 -20q-59 -32 -105.5 -68.5t-83 -89t-36.5 -104.5zM201 688q0 125 76 226.5t185.5 153.5t221.5 52q68 0 123 -18h422l-21 -80h-266q80 -83 80 -193
q0 -125 -76 -226.5t-185.5 -153.5t-221.5 -52q-75 0 -136 21q-118 -75 -118 -131q0 -28 27.5 -39.5t86.5 -14.5l197 -12q165 -8 247.5 -55.5t82.5 -142.5q0 -86 -41.5 -163.5t-109.5 -133.5t-154 -97.5t-177.5 -62.5t-177.5 -21q-180 0 -269 61.5t-89 157.5q0 183 350 269
q-75 13 -118.5 53.5t-43.5 93.5q0 27 9.5 52.5t20.5 44.5t37 40.5t41 33.5t52 32t50.5 26.5t53.5 26.5q-73 37 -116 103.5t-43 148.5zM508 16l-191 11h-2q-87 -32 -151 -99t-64 -147q0 -154 201 -154q73 0 149 18.5t142 52t108.5 88.5t42.5 120q0 54 -58 79t-177 31z
M829 872q0 179 -151 179q-60 0 -110 -30t-81.5 -75t-53.5 -101.5t-31 -107t-9 -92.5q0 -178 152 -178q60 0 110 29.5t81.5 75t53 101.5t30.5 106.5t9 92.5z" />
    <glyph glyph-name="Hcircumflex" unicode="&#x124;" horiz-adv-x="1751" 
d="M1579 1186l-221 -887q-11 -46 -18 -76.5t-8.5 -58t-1 -43.5t11 -30.5t19 -21t33 -13.5t43.5 -10t58 -9l-8 -37h-631l8 37q56 8 81 12t57 16t45 25.5t31 43.5t29 67t26 98l104 422h-700l-105 -422q-11 -46 -18 -76.5t-8.5 -58t-1 -43.5t11 -30.5t19 -21t33 -13.5t43.5 -10
t58 -9l-8 -37h-631l9 37q42 6 62.5 9t48.5 10t40 14t30 21t26 30t20.5 43t21 58t19.5 77l221 887q11 46 18 76.5t8.5 58t1 43.5t-11 30.5t-19 21t-33 13.5t-43.5 10t-58 9l8 37h631l-8 -37q-56 -8 -81 -12t-57 -16t-45 -25.5t-31 -43.5t-29 -67t-26 -98l-94 -375h701l94 375
q11 46 18 76.5t8.5 58t1 43.5t-11 30.5t-19 21t-33 13.5t-43.5 10t-58 9l8 37h630l-8 -37q-42 -6 -62.5 -9t-48.5 -10t-40 -14t-30 -21t-26 -30t-20.5 -43t-21 -58t-19.5 -77zM1167 1909h33l227 -285h-41l-237 121l-301 -121h-47z" />
    <glyph glyph-name="hcircumflex" unicode="&#x125;" horiz-adv-x="1222" 
d="M416 584q138 281 248 408.5t225 127.5q105 0 144.5 -94.5t-7.5 -271.5l-152 -525q-21 -55 -16 -94t47 -39q44 0 118 57t136 160l33 -20q-83 -152 -189.5 -236t-199.5 -84q-103 0 -134.5 77t11.5 222l127 433q24 79 34.5 130.5t8.5 82.5t-14 43t-37 12q-71 0 -173.5 -138
t-187 -320.5t-121.5 -328.5l-47 -186h-202l311 1249q12 47 17 69t10.5 52.5t4.5 42.5t-5.5 28.5t-14 21.5t-26.5 11.5t-39 7.5t-54 1l11 37l403 125l-115 -449zM627 1909h32l228 -285h-41l-238 121l-301 -121h-47z" />
    <glyph glyph-name="Hbar" unicode="&#x126;" horiz-adv-x="1751" 
d="M1579 1186l-6 -21h207l-25 -92h-205l-192 -774q-11 -46 -18 -76.5t-8.5 -58t-1 -43.5t11 -30.5t19 -21t33 -13.5t43.5 -10t58 -9l-8 -37h-631l8 37q56 8 81 12t57 16t45 25.5t31 43.5t29 67t26 98l104 422h-700l-105 -422q-11 -46 -18 -76.5t-8.5 -58t-1 -43.5t11 -30.5
t19 -21t33 -13.5t43.5 -10t58 -9l-8 -37h-631l9 37q42 6 62.5 9t48.5 10t40 14t30 21t26 30t20.5 43t21 58t19.5 77l192 774h-200l24 92h199l6 21q11 46 18 76.5t8.5 58t1 43.5t-11 30.5t-19 21t-33 13.5t-43.5 10t-58 9l8 37h631l-8 -37q-56 -8 -81 -12t-57 -16t-45 -25.5
t-31 -43.5t-29 -67t-26 -98l-6 -21h701l6 21q11 46 18 76.5t8.5 58t1 43.5t-11 30.5t-19 21t-33 13.5t-43.5 10t-58 9l8 37h630l-8 -37q-42 -6 -62.5 -9t-48.5 -10t-40 -14t-30 -21t-26 -30t-20.5 -43t-21 -58t-19.5 -77zM559 811h701l65 262h-700z" />
    <glyph glyph-name="hbar" unicode="&#x127;" horiz-adv-x="1222" 
d="M416 584q138 281 248 408.5t225 127.5q105 0 144.5 -94.5t-7.5 -271.5l-152 -525q-21 -55 -16 -94t47 -39q44 0 118 57t136 160l33 -20q-83 -152 -189.5 -236t-199.5 -84q-103 0 -134.5 77t11.5 222l127 433q24 79 34.5 130.5t8.5 82.5t-14 43t-37 12q-71 0 -173.5 -138
t-187 -320.5t-121.5 -328.5l-47 -186h-202l305 1225h-156l21 80h155q29 114 8.5 146t-129.5 32l11 37l403 125l-88 -340h332l-21 -80h-331l-7 -29z" />
    <glyph glyph-name="Itilde" unicode="&#x128;" horiz-adv-x="825" 
d="M653 1186l-221 -887q-11 -46 -18 -76.5t-8.5 -58t-1 -43.5t11 -30.5t19 -21t33 -13.5t43.5 -10t58 -9l-8 -37h-631l9 37q42 6 62.5 9t48.5 10t40 14t30 21t26 30t20.5 43t21 58t19.5 77l221 887q11 46 18 76.5t8.5 58t1 43.5t-11 30.5t-19 21t-33 13.5t-43.5 10t-58 9
l8 37h631l-8 -37q-56 -8 -81 -12t-57 -16t-45 -25.5t-31 -43.5t-29 -67t-26 -98zM821 1769q106 0 125 103h33q0 -108 -49 -184t-142 -76q-46 0 -92 19.5t-78 43t-76.5 43t-86.5 19.5q-108 0 -127 -103h-33q0 69 19.5 126.5t63.5 95.5t107 38q44 0 91.5 -19.5t81 -43
t78.5 -43t85 -19.5z" />
    <glyph glyph-name="itilde" unicode="&#x129;" horiz-adv-x="681" 
d="M236 725q33 136 31 171q-3 42 -45 54q-28 8 -93 8l10 37l406 125q-95 -358 -117 -448l-109 -443q-18 -57 -14 -95t45 -38q44 0 118 57t136 160l33 -20q-83 -152 -189.5 -236t-199.5 -84q-103 0 -132 76.5t9 222.5zM184 1300h-39q0 67 18.5 128t64 106t110.5 45
q39 0 84.5 -20t79.5 -44.5t74.5 -44.5t70.5 -20q56 0 83 29t30 94h39q-2 -268 -176 -268q-46 0 -93 20t-79.5 44.5t-74 44.5t-77.5 20q-50 0 -80.5 -35.5t-34.5 -98.5z" />
    <glyph glyph-name="Imacron" unicode="&#x12a;" horiz-adv-x="825" 
d="M653 1186l-221 -887q-11 -46 -18 -76.5t-8.5 -58t-1 -43.5t11 -30.5t19 -21t33 -13.5t43.5 -10t58 -9l-8 -37h-631l9 37q42 6 62.5 9t48.5 10t40 14t30 21t26 30t20.5 43t21 58t19.5 77l221 887q11 46 18 76.5t8.5 58t1 43.5t-11 30.5t-19 21t-33 13.5t-43.5 10t-58 9
l8 37h631l-8 -37q-56 -8 -81 -12t-57 -16t-45 -25.5t-31 -43.5t-29 -67t-26 -98zM946 1675h-606l33 140h606z" />
    <glyph glyph-name="imacron" unicode="&#x12b;" horiz-adv-x="681" 
d="M236 725q33 136 31 171q-3 42 -45 54q-28 8 -93 8l10 37l406 125q-95 -358 -117 -448l-109 -443q-18 -57 -14 -95t45 -38q44 0 118 57t136 160l33 -20q-83 -152 -189.5 -236t-199.5 -84q-103 0 -132 76.5t9 222.5zM737 1362h-606l33 139h606z" />
    <glyph glyph-name="Ibreve" unicode="&#x12c;" horiz-adv-x="825" 
d="M653 1186l-221 -887q-11 -46 -18 -76.5t-8.5 -58t-1 -43.5t11 -30.5t19 -21t33 -13.5t43.5 -10t58 -9l-8 -37h-631l9 37q42 6 62.5 9t48.5 10t40 14t30 21t26 30t20.5 43t21 58t19.5 77l221 887q11 46 18 76.5t8.5 58t1 43.5t-11 30.5t-19 21t-33 13.5t-43.5 10t-58 9
l8 37h631l-8 -37q-56 -8 -81 -12t-57 -16t-45 -25.5t-31 -43.5t-29 -67t-26 -98zM664 1612q-92 0 -151 40t-77.5 100t-3.5 130h96q-21 -95 17.5 -142.5t126.5 -47.5q166 0 215 190h98q-11 -52 -35 -98t-62 -85.5t-96 -63t-128 -23.5z" />
    <glyph glyph-name="ibreve" unicode="&#x12d;" horiz-adv-x="681" 
d="M236 725q33 136 31 171q-3 42 -45 54q-28 8 -93 8l10 37l406 125q-95 -358 -117 -448l-109 -443q-18 -57 -14 -95t45 -38q44 0 118 57t136 160l33 -20q-83 -152 -189.5 -236t-199.5 -84q-103 0 -132 76.5t9 222.5zM473 1356q91 0 150.5 54t83.5 151h106q-13 -56 -41 -106
t-70.5 -92t-106 -66.5t-138.5 -24.5q-60 0 -107 16.5t-75 44t-45.5 65t-18.5 79t6 84.5h98q-18 -109 22 -157t136 -48z" />
    <glyph glyph-name="Iogonek" unicode="&#x12e;" horiz-adv-x="825" 
d="M401 -317l15 -23q-47 -47 -108 -74.5t-118 -27.5q-75 0 -129.5 42t-54.5 124q0 75 75 149.5t175 126.5h-326l9 37q42 6 62.5 9t48.5 10t40 14t30 21t26 30t20.5 43t21 58t19.5 77l221 887q11 46 18 76.5t8.5 58t1 43.5t-11 30.5t-19 21t-33 13.5t-43.5 10t-58 9l8 37h631
l-8 -37q-56 -8 -81 -12t-57 -16t-45 -25.5t-31 -43.5t-29 -67t-26 -98l-221 -887q-11 -46 -18 -76.5t-8.5 -58t-1 -43.5t11 -30.5t19 -21t33 -13.5t43.5 -10t58 -9l-8 -37h-256q-66 -45 -105.5 -104.5t-39.5 -118.5q0 -58 35 -92.5t86 -34.5q61 0 120 33z" />
    <glyph glyph-name="iogonek" unicode="&#x12f;" horiz-adv-x="681" 
d="M236 725q33 136 31 171q-3 42 -45 54q-28 8 -93 8l10 37l406 125q-95 -358 -117 -448l-109 -443q-18 -57 -14 -95t45 -38q44 0 118 57t136 160l33 -20q-83 -152 -189.5 -236t-199.5 -84h-10q-52 -42 -82.5 -93.5t-30.5 -102.5q0 -58 35 -92.5t86 -34.5q62 0 121 33
l14 -23q-47 -47 -107.5 -74.5t-117.5 -27.5q-75 0 -130 42t-55 124q0 68 63.5 137t153.5 121q-66 20 -80.5 93.5t17.5 196.5zM637 1452q0 -60 -41.5 -99.5t-101.5 -39.5q-61 0 -103.5 40t-42.5 99q0 58 43 98.5t103 40.5t101.5 -40.5t41.5 -98.5z" />
    <glyph glyph-name="Idotaccent" unicode="&#x130;" horiz-adv-x="825" 
d="M653 1186l-221 -887q-11 -46 -18 -76.5t-8.5 -58t-1 -43.5t11 -30.5t19 -21t33 -13.5t43.5 -10t58 -9l-8 -37h-631l9 37q42 6 62.5 9t48.5 10t40 14t30 21t26 30t20.5 43t21 58t19.5 77l221 887q11 46 18 76.5t8.5 58t1 43.5t-11 30.5t-19 21t-33 13.5t-43.5 10t-58 9
l8 37h631l-8 -37q-56 -8 -81 -12t-57 -16t-45 -25.5t-31 -43.5t-29 -67t-26 -98zM532 1759q0 55 36 92t91 37q52 0 88.5 -37.5t36.5 -91.5q0 -56 -36 -92.5t-89 -36.5q-56 0 -91.5 36t-35.5 93z" />
    <glyph glyph-name="dotlessi" unicode="&#x131;" horiz-adv-x="681" 
d="M236 725q33 136 31 171q-3 42 -45 54q-28 8 -93 8l10 37l406 125q-95 -358 -117 -448l-109 -443q-18 -57 -14 -95t45 -38q44 0 118 57t136 160l33 -20q-83 -152 -189.5 -236t-199.5 -84q-103 0 -132 76.5t9 222.5z" />
    <glyph glyph-name="Jcircumflex" unicode="&#x134;" horiz-adv-x="925" 
d="M797 1186l-174 -707q-29 -119 -73 -210t-93 -146t-108 -89.5t-113 -47.5t-113 -13q-56 0 -126 8.5t-108 20.5l70 274h23q23 -111 68.5 -170t109.5 -59q19 0 33.5 4t34 17t37.5 41t38.5 72.5t43 116.5t46.5 167l178 721q11 46 18 76.5t8.5 58t1 43.5t-11 30.5t-19 21
t-33 13.5t-43.5 10t-58 9l8 37h631l-8 -37q-42 -6 -62.5 -9t-48.5 -10t-40 -14t-30 -21t-26 -30t-20.5 -43t-21 -58t-19.5 -77zM831 1909h33l228 -285h-41l-238 121l-301 -121h-47z" />
    <glyph glyph-name="jcircumflex" unicode="&#x135;" horiz-adv-x="643" 
d="M580 1581l237 -346h-37l-250 170l-346 -170h-41l410 346h27zM281 725q9 38 14 56.5t10.5 45.5t6.5 38.5t0.5 29t-4.5 23.5t-11 16t-17.5 12.5t-26.5 6.5t-34.5 4.5t-44.5 0.5l10 37l406 125q-80 -301 -117 -448l-119 -475q-22 -89 -47 -157t-68 -143t-100 -136
t-142.5 -122.5t-197.5 -115.5l-8 20q82 70 141 142t98 153t62.5 151.5t48.5 174.5z" />
    <glyph glyph-name="Kcommaaccent" unicode="&#x136;" horiz-adv-x="1562" 
d="M653 1186l-221 -887q-11 -46 -18 -76.5t-8.5 -58t-1 -43.5t11 -30.5t19 -21t33 -13.5t43.5 -10t58 -9l-8 -37h-631l9 37q42 6 62.5 9t48.5 10t40 14t30 21t26 30t20.5 43t21 58t19.5 77l221 887q11 46 18 76.5t8.5 58t1 43.5t-11 30.5t-19 21t-33 13.5t-43.5 10t-58 9
l8 37h631l-8 -37q-56 -8 -81 -12t-57 -16t-45 -25.5t-31 -43.5t-29 -67t-26 -98zM549 764l522 410q195 153 219 208q19 42 -43 57q-25 6 -65 9l8 37h477l-6 -37q-99 -13 -170 -55t-305 -222l-432 -329l385 -613q29 -45 40 -62.5t32 -45t34.5 -36.5t36 -22t47.5 -17.5
t60 -8.5l-7 -37h-561l6 37q103 7 116.5 34t-40.5 115zM608 -354q-50 3 -86.5 36t-36.5 82q0 52 35.5 87.5t89.5 35.5q55 0 88 -38t33 -99q0 -109 -99.5 -220t-236.5 -167l-10 21q93 52 158 119.5t65 142.5z" />
    <glyph glyph-name="kcommaaccent" unicode="&#x137;" horiz-adv-x="1175" 
d="M379 1249q12 47 17 69t10.5 52.5t4.5 42.5t-5.5 28.5t-14 21.5t-26.5 11.5t-39 7.5t-54 1l11 37l403 125l-115 -449l-301 -1196h-202zM571 166l-149 426l350 295q46 39 71.5 67.5t33.5 53.5t-16 40.5t-79 20.5l9 33h417l-10 -33q-75 -5 -127.5 -35t-160.5 -116
q-24 -20 -38 -31l-270 -228l158 -426q32 -85 59.5 -111t71.5 -26q83 0 174 144l31 -21q-131 -246 -314 -246q-47 0 -83.5 16.5t-60.5 47.5t-38.5 60t-28.5 69zM428 -354q-50 3 -86.5 36t-36.5 82q0 52 35.5 87.5t89.5 35.5q55 0 88 -38t33 -99q0 -109 -99.5 -220
t-236.5 -167l-10 21q93 52 158 119.5t65 142.5z" />
    <glyph glyph-name="Lacute" unicode="&#x139;" horiz-adv-x="1271" 
d="M653 1186l-258 -1022q-12 -52 3 -73t69 -21q76 0 127 1.5t108.5 7.5t97.5 17.5t85.5 30.5t80.5 46.5t75 67t77 90.5t78 118h39l-193 -451q-154 2 -452 2h-660l9 37q42 6 62.5 9t48.5 10t40 14t30 21t26 30t20.5 43t21 58t19.5 77l221 887q11 46 18 76.5t8.5 58t1 43.5
t-11 30.5t-19 21t-33 13.5t-43.5 10t-58 9l8 37h631l-8 -37q-56 -8 -81 -12t-56.5 -16t-44.5 -25.5t-31 -43.5t-29 -67t-27 -98zM1087 1888l-514 -264h-43l236 264h321z" />
    <glyph glyph-name="lacute" unicode="&#x13a;" horiz-adv-x="692" 
d="M379 1249q12 47 17 69t10.5 52.5t4.5 42.5t-5.5 28.5t-14 21.5t-26.5 11.5t-39 7.5t-54 1l11 37l403 125l-115 -449l-239 -967q-9 -36 -12 -54t-2.5 -39.5t11.5 -30.5t33 -9q44 0 118 57t136 160l33 -20q-83 -152 -189.5 -236t-199.5 -84q-104 0 -133 76.5t10 222.5z
M981 1888l-514 -264h-43l235 264h322z" />
    <glyph glyph-name="Lcommaaccent" unicode="&#x13b;" horiz-adv-x="1271" 
d="M653 1186l-258 -1022q-12 -52 3 -73t69 -21q76 0 127 1.5t108.5 7.5t97.5 17.5t85.5 30.5t80.5 46.5t75 67t77 90.5t78 118h39l-193 -451q-154 2 -452 2h-660l9 37q42 6 62.5 9t48.5 10t40 14t30 21t26 30t20.5 43t21 58t19.5 77l221 887q11 46 18 76.5t8.5 58t1 43.5
t-11 30.5t-19 21t-33 13.5t-43.5 10t-58 9l8 37h631l-8 -37q-56 -8 -81 -12t-56.5 -16t-44.5 -25.5t-31 -43.5t-29 -67t-27 -98zM494 -354q-50 3 -86.5 36t-36.5 82q0 52 35.5 87.5t89.5 35.5q55 0 87.5 -38t32.5 -99q0 -109 -99.5 -220t-235.5 -167l-11 21
q93 52 158.5 119.5t65.5 142.5z" />
    <glyph glyph-name="lcommaaccent" unicode="&#x13c;" horiz-adv-x="692" 
d="M379 1249q12 47 17 69t10.5 52.5t4.5 42.5t-5.5 28.5t-14 21.5t-26.5 11.5t-39 7.5t-54 1l11 37l403 125l-115 -449l-239 -967q-9 -36 -12 -54t-2.5 -39.5t11.5 -30.5t33 -9q44 0 118 57t136 160l33 -20q-83 -152 -189.5 -236t-199.5 -84q-104 0 -133 76.5t10 222.5z
M168 -354q-50 3 -86.5 36t-36.5 82q0 52 35.5 87.5t89.5 35.5q55 0 88 -38t33 -99q0 -109 -99.5 -220t-236.5 -167l-10 21q93 52 158 119.5t65 142.5z" />
    <glyph glyph-name="Lcaron" unicode="&#x13d;" horiz-adv-x="1271" 
d="M1182 1278q-49 3 -86 36.5t-37 82.5q0 51 35.5 87t89.5 36q55 0 88 -38.5t33 -99.5q0 -109 -99.5 -220t-236.5 -167l-11 21q93 52 158.5 119.5t65.5 142.5zM653 1186l-258 -1022q-12 -52 3 -73t69 -21q76 0 127 1.5t108.5 7.5t97.5 17.5t85.5 30.5t80.5 46.5t75 67
t77 90.5t78 118h39l-193 -451q-154 2 -452 2h-660l9 37q42 6 62.5 9t48.5 10t40 14t30 21t26 30t20.5 43t21 58t19.5 77l221 887q11 46 18 76.5t8.5 58t1 43.5t-11 30.5t-19 21t-33 13.5t-43.5 10t-58 9l8 37h631l-8 -37q-56 -8 -81 -12t-56.5 -16t-44.5 -25.5t-31 -43.5
t-29 -67t-27 -98z" />
    <glyph glyph-name="lcaron" unicode="&#x13e;" horiz-adv-x="886" 
d="M909 1380q-49 3 -86 36.5t-37 82.5q0 51 36 87t89 36q55 0 88 -38t33 -99q0 -109 -99.5 -220t-236.5 -167l-10 20q93 52 158 119.5t65 142.5zM379 1249q12 47 17 69t10.5 52.5t4.5 42.5t-5.5 28.5t-14 21.5t-26.5 11.5t-39 7.5t-54 1l11 37l403 125l-115 -449l-239 -967
q-9 -36 -12 -54t-2.5 -39.5t11.5 -30.5t33 -9q44 0 118 57t136 160l33 -20q-83 -152 -189.5 -236t-199.5 -84q-104 0 -133 76.5t10 222.5z" />
    <glyph glyph-name="Ldot" unicode="&#x13f;" horiz-adv-x="1271" 
d="M653 1186l-258 -1022q-12 -52 3 -73t69 -21q76 0 127 1.5t108.5 7.5t97.5 17.5t85.5 30.5t80.5 46.5t75 67t77 90.5t78 118h39l-193 -451q-154 2 -452 2h-660l9 37q42 6 62.5 9t48.5 10t40 14t30 21t26 30t20.5 43t21 58t19.5 77l221 887q11 46 18 76.5t8.5 58t1 43.5
t-11 30.5t-19 21t-33 13.5t-43.5 10t-58 9l8 37h631l-8 -37q-56 -8 -81 -12t-56.5 -16t-44.5 -25.5t-31 -43.5t-29 -67t-27 -98zM879 909q0 55 36 92t91 37q52 0 88 -37.5t36 -91.5q0 -56 -35.5 -92.5t-88.5 -36.5q-56 0 -91.5 36t-35.5 93z" />
    <glyph glyph-name="ldot" unicode="&#x140;" horiz-adv-x="878" 
d="M379 1249q12 47 17 69t10.5 52.5t4.5 42.5t-5.5 28.5t-14 21.5t-26.5 11.5t-39 7.5t-54 1l11 37l403 125l-115 -449l-239 -967q-9 -36 -12 -54t-2.5 -39.5t11.5 -30.5t33 -9q44 0 118 57t136 160l33 -20q-83 -152 -189.5 -236t-199.5 -84q-104 0 -133 76.5t10 222.5z
M707 909q0 55 36 92t91 37q52 0 88 -37.5t36 -91.5q0 -56 -35.5 -92.5t-88.5 -36.5q-56 0 -91.5 36t-35.5 93z" />
    <glyph glyph-name="Lslash" unicode="&#x141;" horiz-adv-x="1259" 
d="M653 1186l-69 -277l168 82l36 -82l-233 -112l-160 -633q-12 -52 3 -73t69 -21q76 0 127 1.5t108.5 7.5t97.5 17.5t85.5 30.5t80.5 46.5t75 67t77 90.5t78 118h39l-193 -451q-154 2 -452 2h-660l9 37q42 6 62.5 9t48.5 10t40 14t30 21t26 30t20.5 43t21 58t19.5 77l92 375
l-174 -84l-37 78l240 116l100 402q11 46 18 76.5t8.5 58t1 43.5t-11 30.5t-19 21t-33 13.5t-43.5 10t-58 9l8 37h631l-8 -37q-56 -8 -81 -12t-56.5 -16t-44.5 -25.5t-31 -43.5t-29 -67t-27 -98z" />
    <glyph glyph-name="lslash" unicode="&#x142;" horiz-adv-x="692" 
d="M379 1249q12 47 17 69t10.5 52.5t4.5 42.5t-5.5 28.5t-14 21.5t-26.5 11.5t-39 7.5t-54 1l11 37l403 125l-115 -449l-73 -297l186 92l37 -82l-252 -121l-137 -559q-9 -36 -12 -54t-2.5 -39.5t11.5 -30.5t33 -9q44 0 118 57t136 160l33 -20q-83 -152 -189.5 -236
t-199.5 -84q-104 0 -133 76.5t10 222.5l99 404l-177 -86l-39 78l244 118z" />
    <glyph glyph-name="Nacute" unicode="&#x143;" horiz-adv-x="1667" 
d="M1427 1186q11 46 18 76.5t8.5 58t1 43.5t-11 30.5t-19 21t-33 13.5t-43.5 10t-58 9l10 37h500l-10 -37q-42 -6 -62.5 -9t-48.5 -10t-40 -14t-30 -21t-26 -30t-20.5 -43t-21 -58t-19.5 -77l-301 -1206h-84l-627 1177l-213 -858q-11 -46 -18 -76.5t-8.5 -58t-1 -43.5
t11 -30.5t19 -21t33 -13.5t43.5 -10t58 -9l-8 -37h-500l8 37q56 8 81 12t57 16t45 25.5t31 43.5t29 67t26 98l243 975v2q-37 76 -63.5 115.5t-63.5 60.5l9 33h264l620 -1163zM1485 1888l-514 -264h-43l235 264h322z" />
    <glyph glyph-name="nacute" unicode="&#x144;" horiz-adv-x="1236" 
d="M551 1118l-135 -534q138 281 248 408.5t225 127.5q105 0 144.5 -94.5t-7.5 -271.5l-152 -525q-21 -55 -16 -94t47 -39q44 0 118 57t136 160l33 -20q-83 -152 -189.5 -236t-199.5 -84q-103 0 -134.5 77t11.5 222l127 433q24 79 34.5 130.5t8.5 82.5t-14 43t-37 12
q-71 0 -173.5 -138t-187 -320.5t-121.5 -328.5l-47 -186h-202l182 725q9 38 14 56.5t10.5 45.5t6.5 38.5t0.5 29t-4.5 23.5t-11 16t-17.5 12.5t-26.5 6.5t-34.5 4.5t-44.5 0.5l11 37zM1194 1581l-459 -346h-35l226 346h268z" />
    <glyph glyph-name="Ncommaaccent" unicode="&#x145;" horiz-adv-x="1667" 
d="M1427 1186q11 46 18 76.5t8.5 58t1 43.5t-11 30.5t-19 21t-33 13.5t-43.5 10t-58 9l10 37h500l-10 -37q-42 -6 -62.5 -9t-48.5 -10t-40 -14t-30 -21t-26 -30t-20.5 -43t-21 -58t-19.5 -77l-301 -1206h-84l-627 1177l-213 -858q-11 -46 -18 -76.5t-8.5 -58t-1 -43.5
t11 -30.5t19 -21t33 -13.5t43.5 -10t58 -9l-8 -37h-500l8 37q56 8 81 12t57 16t45 25.5t31 43.5t29 67t26 98l243 975v2q-37 76 -63.5 115.5t-63.5 60.5l9 33h264l620 -1163zM676 -354q-50 3 -86.5 36t-36.5 82q0 52 35.5 87.5t89.5 35.5q55 0 88 -38t33 -99
q0 -109 -99.5 -220t-236.5 -167l-10 21q93 52 158 119.5t65 142.5z" />
    <glyph glyph-name="ncommaaccent" unicode="&#x146;" horiz-adv-x="1236" 
d="M551 1118l-135 -534q138 281 248 408.5t225 127.5q105 0 144.5 -94.5t-7.5 -271.5l-152 -525q-21 -55 -16 -94t47 -39q44 0 118 57t136 160l33 -20q-83 -152 -189.5 -236t-199.5 -84q-103 0 -134.5 77t11.5 222l127 433q24 79 34.5 130.5t8.5 82.5t-14 43t-37 12
q-71 0 -173.5 -138t-187 -320.5t-121.5 -328.5l-47 -186h-202l182 725q9 38 14 56.5t10.5 45.5t6.5 38.5t0.5 29t-4.5 23.5t-11 16t-17.5 12.5t-26.5 6.5t-34.5 4.5t-44.5 0.5l11 37zM442 -354q-50 3 -86.5 36t-36.5 82q0 52 35.5 87.5t89.5 35.5q55 0 88 -38t33 -99
q0 -109 -99.5 -220t-236.5 -167l-10 21q93 52 158 119.5t65 142.5z" />
    <glyph glyph-name="Ncaron" unicode="&#x147;" horiz-adv-x="1667" 
d="M1427 1186q11 46 18 76.5t8.5 58t1 43.5t-11 30.5t-19 21t-33 13.5t-43.5 10t-58 9l10 37h500l-10 -37q-42 -6 -62.5 -9t-48.5 -10t-40 -14t-30 -21t-26 -30t-20.5 -43t-21 -58t-19.5 -77l-301 -1206h-84l-627 1177l-213 -858q-11 -46 -18 -76.5t-8.5 -58t-1 -43.5
t11 -30.5t19 -21t33 -13.5t43.5 -10t58 -9l-8 -37h-500l8 37q56 8 81 12t57 16t45 25.5t31 43.5t29 67t26 98l243 975v2q-37 76 -63.5 115.5t-63.5 60.5l9 33h264l620 -1163zM1067 1624h-33l-227 285h41l237 -121l301 121h48z" />
    <glyph glyph-name="ncaron" unicode="&#x148;" horiz-adv-x="1236" 
d="M551 1118l-135 -534q138 281 248 408.5t225 127.5q105 0 144.5 -94.5t-7.5 -271.5l-152 -525q-21 -55 -16 -94t47 -39q44 0 118 57t136 160l33 -20q-83 -152 -189.5 -236t-199.5 -84q-103 0 -134.5 77t11.5 222l127 433q24 79 34.5 130.5t8.5 82.5t-14 43t-37 12
q-71 0 -173.5 -138t-187 -320.5t-121.5 -328.5l-47 -186h-202l182 725q9 38 14 56.5t10.5 45.5t6.5 38.5t0.5 29t-4.5 23.5t-11 16t-17.5 12.5t-26.5 6.5t-34.5 4.5t-44.5 0.5l11 37zM725 1235l-238 346h37l250 -170l346 170h41l-409 -346h-27z" />
    <glyph glyph-name="Eng" unicode="&#x14a;" horiz-adv-x="1667" 
d="M1051 145l-541 1014l-213 -860q-11 -46 -18 -76.5t-8.5 -58t-1 -43.5t11 -30.5t19 -21t33 -13.5t43.5 -10t58 -9l-8 -37h-500l8 37q56 8 81 12t57 16t45 25.5t31 43.5t29 67t26 98l243 979l-86 164q-2 4 -5 11l-13 23l1 -3q4 -28 -9 -27q-6 1 -15 6l9 33h264l620 -1163
l215 864q11 46 18 76.5t8.5 58t1 43.5t-11 30.5t-19 21t-33 13.5t-43.5 10t-58 9l10 37h500l-10 -37q-42 -6 -62.5 -9t-48.5 -10t-40 -14t-30 -21t-26 -30t-20.5 -43t-21 -58t-19.5 -77l-248 -989q-22 -89 -47 -157t-68 -143t-99.5 -136t-142 -122.5t-196.5 -115.5l-10 20
q52 46 93.5 92t74.5 98.5t55 93.5t45.5 104t36 101t35.5 113z" />
    <glyph glyph-name="eng" unicode="&#x14b;" horiz-adv-x="1095" 
d="M649 166l158 539q23 80 33.5 131t9 82t-14 43t-36.5 12q-71 0 -173.5 -138t-187 -320.5t-121.5 -328.5l-47 -186h-202l182 725q9 38 14 56.5t10.5 45.5t6.5 38.5t0.5 29t-4.5 23.5t-11 16t-17.5 12.5t-26.5 6.5t-34.5 4.5t-44.5 0.5l11 37l397 123l-135 -534
q138 281 248 408.5t225 127.5q105 0 144.5 -94.5t-7.5 -271.5l-160 -557q-22 -76 -42 -131.5t-51 -120.5t-71 -117.5t-94.5 -107t-129 -103.5t-167.5 -94l-8 20q64 56 114 118t81.5 113t62 127t46 124.5t42.5 140.5z" />
    <glyph glyph-name="Omacron" unicode="&#x14c;" horiz-adv-x="1634" 
d="M102 559q0 143 40 283t118 261.5t183.5 215t246.5 147.5t297 54q170 0 302.5 -66t211 -200.5t78.5 -319.5q0 -178 -64.5 -350.5t-177.5 -308t-282 -219t-363 -83.5q-170 0 -302 66t-210 200t-78 320zM350 522q0 -105 20.5 -189.5t63 -149.5t115 -100.5t170.5 -35.5
q100 0 188.5 42.5t154 115t117.5 166t84 197.5t49 206.5t17 196.5q0 105 -20.5 189.5t-63 149.5t-114.5 100.5t-170 35.5q-100 0 -188.5 -42.5t-154 -115t-118 -165.5t-84.5 -197t-49 -206.5t-17 -197.5zM1358 1675h-606l32 140h607z" />
    <glyph glyph-name="omacron" unicode="&#x14d;" horiz-adv-x="1130" 
d="M829 729q0 62 -9 115t-28.5 100.5t-57 75t-89.5 27.5q-73 0 -133.5 -51t-98.5 -127.5t-64 -171.5t-37 -178t-11 -152q0 -62 9 -115.5t28.5 -101.5t57 -75.5t89.5 -27.5q73 0 133.5 51t98.5 128t64 172t37 178.5t11 152.5zM68 436q0 150 54 281.5t139 217.5t188 135.5
t204 49.5q174 0 292 -132t118 -329q0 -121 -35 -230.5t-94.5 -191t-135 -142t-158.5 -91.5t-163 -31q-174 0 -291.5 132.5t-117.5 330.5zM1018 1362h-606l32 139h607z" />
    <glyph glyph-name="Obreve" unicode="&#x14e;" horiz-adv-x="1634" 
d="M102 559q0 143 40 283t118 261.5t183.5 215t246.5 147.5t297 54q170 0 302.5 -66t211 -200.5t78.5 -319.5q0 -178 -64.5 -350.5t-177.5 -308t-282 -219t-363 -83.5q-170 0 -302 66t-210 200t-78 320zM350 522q0 -105 20.5 -189.5t63 -149.5t115 -100.5t170.5 -35.5
q100 0 188.5 42.5t154 115t117.5 166t84 197.5t49 206.5t17 196.5q0 105 -20.5 189.5t-63 149.5t-114.5 100.5t-170 35.5q-100 0 -188.5 -42.5t-154 -115t-118 -165.5t-84.5 -197t-49 -206.5t-17 -197.5zM1081 1612q-92 0 -151 40t-77 100t-3 130h96q-21 -95 17.5 -142.5
t126.5 -47.5q166 0 215 190h98q-23 -111 -105 -190.5t-217 -79.5z" />
    <glyph glyph-name="obreve" unicode="&#x14f;" horiz-adv-x="1130" 
d="M829 729q0 62 -9 115t-28.5 100.5t-57 75t-89.5 27.5q-73 0 -133.5 -51t-98.5 -127.5t-64 -171.5t-37 -178t-11 -152q0 -62 9 -115.5t28.5 -101.5t57 -75.5t89.5 -27.5q73 0 133.5 51t98.5 128t64 172t37 178.5t11 152.5zM68 436q0 150 54 281.5t139 217.5t188 135.5
t204 49.5q174 0 292 -132t118 -329q0 -121 -35 -230.5t-94.5 -191t-135 -142t-158.5 -91.5t-163 -31q-174 0 -291.5 132.5t-117.5 330.5zM711 1356q91 0 150 54t83 151h107q-13 -56 -41 -106t-71 -92t-106.5 -66.5t-138.5 -24.5q-99 0 -159.5 43.5t-77.5 107t-2 138.5h98
q-18 -109 22 -157t136 -48z" />
    <glyph glyph-name="Ohungarumlaut" unicode="&#x150;" horiz-adv-x="1634" 
d="M102 559q0 143 40 283t118 261.5t183.5 215t246.5 147.5t297 54q170 0 302.5 -66t211 -200.5t78.5 -319.5q0 -178 -64.5 -350.5t-177.5 -308t-282 -219t-363 -83.5q-170 0 -302 66t-210 200t-78 320zM350 522q0 -105 20.5 -189.5t63 -149.5t115 -100.5t170.5 -35.5
q100 0 188.5 42.5t154 115t117.5 166t84 197.5t49 206.5t17 196.5q0 105 -20.5 189.5t-63 149.5t-114.5 100.5t-170 35.5q-100 0 -188.5 -42.5t-154 -115t-118 -165.5t-84.5 -197t-49 -206.5t-17 -197.5zM1714 1888l-514 -264h-43l236 264h321zM1321 1888l-514 -264h-43
l235 264h322z" />
    <glyph glyph-name="ohungarumlaut" unicode="&#x151;" horiz-adv-x="1130" 
d="M829 729q0 62 -9 115t-28.5 100.5t-57 75t-89.5 27.5q-73 0 -133.5 -51t-98.5 -127.5t-64 -171.5t-37 -178t-11 -152q0 -62 9 -115.5t28.5 -101.5t57 -75.5t89.5 -27.5q73 0 133.5 51t98.5 128t64 172t37 178.5t11 152.5zM68 436q0 150 54 281.5t139 217.5t188 135.5
t204 49.5q174 0 292 -132t118 -329q0 -121 -35 -230.5t-94.5 -191t-135 -142t-158.5 -91.5t-163 -31q-174 0 -291.5 132.5t-117.5 330.5zM1001 1581h269l-457 -367h-37zM659 1581h269l-459 -367h-35z" />
    <glyph glyph-name="OE" unicode="&#x152;" horiz-adv-x="2338" 
d="M1468 1485h459q299 0 455 6l-51 -449h-39q-5 70 -13 121t-28 90.5t-36 65.5t-56.5 44t-70 27.5t-96 14t-114.5 5.5t-145 1h-58l-151 -600h336l170 229h34l-137 -555h-33l-57 236h-334l-139 -557q-17 -62 -4.5 -78t74.5 -16q94 0 154.5 2.5t127 10.5t111.5 24.5t94.5 43.5
t90.5 68.5t84.5 97t90.5 132.5h37l-194 -451q-152 2 -451 2h-481l26 109q-186 -136 -432 -136q-170 0 -302 66t-210 200t-78 320q0 143 40 283t118 261.5t183.5 215t246.5 147.5t297 54q310 0 430 -234zM350 522q0 -105 20.5 -189.5t63 -149.5t115 -100.5t170.5 -35.5
q100 0 188.5 42.5t154 115t117.5 166t84 197.5t49 206.5t17 196.5q0 105 -20.5 189.5t-63 149.5t-114.5 100.5t-170 35.5q-100 0 -188.5 -42.5t-154 -115t-118 -165.5t-84.5 -197t-49 -206.5t-17 -197.5z" />
    <glyph glyph-name="oe" unicode="&#x153;" horiz-adv-x="1705" 
d="M68 432q0 150 54 281t139 217t188 135t204 49q126 0 213 -73t125 -199q96 125 216 198.5t245 73.5q39 0 79.5 -9.5t80.5 -30t65 -60t25 -92.5q0 -67 -32.5 -121t-94.5 -92.5t-138 -66t-175 -48.5l-238 -49q-25 -113 -25 -207q0 -104 39 -160.5t117 -56.5
q106 0 208.5 80.5t172.5 230.5l37 -22q-95 -214 -226 -325.5t-288 -111.5q-185 0 -242 154q-72 -74 -160.5 -114t-179.5 -40q-174 0 -291.5 131t-117.5 328zM829 725q0 62 -8.5 115t-28.5 99.5t-57.5 73.5t-89.5 27q-73 0 -133.5 -50.5t-98.5 -127t-64 -171t-37 -177.5
t-11 -152q0 -62 8.5 -115t28.5 -99.5t57.5 -73.5t89.5 -27q73 0 133.5 50.5t98.5 127t64 171t37 177.5t11 152zM1393 1040q-76 0 -148 -64t-122 -159t-83 -211l107 21q169 29 258.5 106.5t89.5 188.5q0 51 -24 84.5t-78 33.5z" />
    <glyph glyph-name="Racute" unicode="&#x154;" horiz-adv-x="1505" 
d="M299 1485h242q73 0 163.5 2t126.5 2q124 0 222.5 -16t177.5 -50.5t121.5 -95.5t42.5 -145q0 -320 -445 -439q40 -43 97 -186l129 -338q21 -56 40 -90t45.5 -53t53.5 -26.5t74 -12.5l-9 -37h-393q-22 119 -88 291l-162 418h-202l-103 -410q-11 -46 -18 -76.5t-8 -58
t-0.5 -43.5t12.5 -30.5t21.5 -21t37 -13.5t48.5 -10t65 -9l-8 -37h-652l9 37q42 6 62.5 9t48.5 10t40 14t30 21t26 30t20.5 43t21 58t19.5 77l221 887q11 46 18 76.5t8.5 58t1 43.5t-11 30.5t-19 21t-33 13.5t-43.5 10t-58 9zM782 1411h-73l-156 -629h74q123 0 214.5 19.5
t161 64t105 121t35.5 184.5q0 122 -90 181t-271 59zM1329 1888l-514 -264h-43l236 264h321z" />
    <glyph glyph-name="racute" unicode="&#x155;" horiz-adv-x="872" 
d="M549 1118l-49 -200q196 202 401 202q5 0 16.5 -1t16.5 -1l-66 -258h-20q-71 64 -182 64q-114 0 -179 -52l-211 -872h-208l180 725q9 38 14 56.5t10.5 45.5t6.5 38.5t0.5 29t-4.5 23.5t-11 16t-17.5 12.5t-26.5 6.5t-34.5 4.5t-44.5 0.5l11 37zM1059 1581l-459 -346h-35
l226 346h268z" />
    <glyph glyph-name="Rcommaaccent" unicode="&#x156;" horiz-adv-x="1505" 
d="M299 1485h242q73 0 163.5 2t126.5 2q124 0 222.5 -16t177.5 -50.5t121.5 -95.5t42.5 -145q0 -320 -445 -439q40 -43 97 -186l129 -338q21 -56 40 -90t45.5 -53t53.5 -26.5t74 -12.5l-9 -37h-393q-22 119 -88 291l-162 418h-202l-103 -410q-11 -46 -18 -76.5t-8 -58
t-0.5 -43.5t12.5 -30.5t21.5 -21t37 -13.5t48.5 -10t65 -9l-8 -37h-652l9 37q42 6 62.5 9t48.5 10t40 14t30 21t26 30t20.5 43t21 58t19.5 77l221 887q11 46 18 76.5t8.5 58t1 43.5t-11 30.5t-19 21t-33 13.5t-43.5 10t-58 9zM782 1411h-73l-156 -629h74q123 0 214.5 19.5
t161 64t105 121t35.5 184.5q0 122 -90 181t-271 59zM635 -354q-50 3 -86.5 36t-36.5 82q0 52 36 87.5t89 35.5q55 0 88 -38t33 -99q0 -109 -99.5 -220t-236.5 -167l-10 21q93 52 158 119.5t65 142.5z" />
    <glyph glyph-name="rcommaaccent" unicode="&#x157;" horiz-adv-x="872" 
d="M549 1118l-49 -200q196 202 401 202q5 0 16.5 -1t16.5 -1l-66 -258h-20q-71 64 -182 64q-114 0 -179 -52l-211 -872h-208l180 725q9 38 14 56.5t10.5 45.5t6.5 38.5t0.5 29t-4.5 23.5t-11 16t-17.5 12.5t-26.5 6.5t-34.5 4.5t-44.5 0.5l11 37zM117 -354q-50 3 -86.5 36
t-36.5 82q0 52 36 87.5t89 35.5q55 0 88 -38t33 -99q0 -109 -99.5 -220t-236.5 -167l-10 21q93 52 158 119.5t65 142.5z" />
    <glyph glyph-name="Rcaron" unicode="&#x158;" horiz-adv-x="1505" 
d="M299 1485h242q73 0 163.5 2t126.5 2q124 0 222.5 -16t177.5 -50.5t121.5 -95.5t42.5 -145q0 -320 -445 -439q40 -43 97 -186l129 -338q21 -56 40 -90t45.5 -53t53.5 -26.5t74 -12.5l-9 -37h-393q-22 119 -88 291l-162 418h-202l-103 -410q-11 -46 -18 -76.5t-8 -58
t-0.5 -43.5t12.5 -30.5t21.5 -21t37 -13.5t48.5 -10t65 -9l-8 -37h-652l9 37q42 6 62.5 9t48.5 10t40 14t30 21t26 30t20.5 43t21 58t19.5 77l221 887q11 46 18 76.5t8.5 58t1 43.5t-11 30.5t-19 21t-33 13.5t-43.5 10t-58 9zM782 1411h-73l-156 -629h74q123 0 214.5 19.5
t161 64t105 121t35.5 184.5q0 122 -90 181t-271 59zM901 1624h-33l-227 285h41l238 -121l301 121h47z" />
    <glyph glyph-name="rcaron" unicode="&#x159;" horiz-adv-x="872" 
d="M549 1118l-49 -200q196 202 401 202q5 0 16.5 -1t16.5 -1l-66 -258h-20q-71 64 -182 64q-114 0 -179 -52l-211 -872h-208l180 725q9 38 14 56.5t10.5 45.5t6.5 38.5t0.5 29t-4.5 23.5t-11 16t-17.5 12.5t-26.5 6.5t-34.5 4.5t-44.5 0.5l11 37zM612 1235l-237 346h37
l250 -170l346 170h41l-410 -346h-27z" />
    <glyph glyph-name="Sacute" unicode="&#x15a;" horiz-adv-x="1234" 
d="M1290 1888l-514 -264h-43l236 264h321zM1069 412q0 -86 -33 -158.5t-89.5 -123.5t-132.5 -87t-162.5 -53t-178.5 -17q-133 0 -267 33t-210 78l121 504h41q-18 -100 -20 -179.5t8.5 -135.5t35 -97t54.5 -65.5t73 -39t84.5 -19.5t95.5 -5t105.5 10t99.5 32.5t84 55.5
t58 81.5t22 107.5q0 79 -56 152t-155 155l-147 123q-66 54 -103.5 89t-78 83.5t-58.5 98.5t-18 108q0 72 35 138.5t101.5 120.5t174 86t240.5 32q104 0 238 -31.5t196 -75.5l-105 -418h-39q22 105 12.5 182t-35 128.5t-73 83t-100 44.5t-117.5 13q-62 0 -116.5 -12
t-102 -36.5t-75 -69t-27.5 -103.5q0 -135 161 -258l185 -150q41 -35 51 -43.5t47 -41.5t48.5 -47t39 -45t38 -52.5t25.5 -52t20 -60.5t5 -63z" />
    <glyph glyph-name="sacute" unicode="&#x15b;" horiz-adv-x="966" 
d="M1104 1581l-459 -346h-35l226 346h268zM750 297q0 -102 -65.5 -177.5t-162 -111t-205.5 -35.5q-97 0 -179 20.5t-132 53.5l117 387h39q-32 -203 5 -295t169 -92q79 0 145 49.5t66 139.5q0 87 -64 172l-98 129q-31 41 -49 66t-41 65t-34 78t-11 77q0 71 38 129t99 94
t132.5 55t142.5 19q156 0 266 -67l-109 -342h-41q39 185 0.5 260.5t-155.5 75.5q-70 0 -124.5 -40t-54.5 -118q0 -40 20 -79.5t58 -92.5l94 -129q72 -100 103 -162.5t31 -128.5z" />
    <glyph glyph-name="Scircumflex" unicode="&#x15c;" horiz-adv-x="1234" 
d="M1069 412q0 -86 -33 -158.5t-89.5 -123.5t-132.5 -87t-162.5 -53t-178.5 -17q-133 0 -267 33t-210 78l121 504h41q-18 -100 -20 -179.5t8.5 -135.5t35 -97t54.5 -65.5t73 -39t84.5 -19.5t95.5 -5t105.5 10t99.5 32.5t84 55.5t58 81.5t22 107.5q0 79 -56 152t-155 155
l-147 123q-66 54 -103.5 89t-78 83.5t-58.5 98.5t-18 108q0 72 35 138.5t101.5 120.5t174 86t240.5 32q104 0 238 -31.5t196 -75.5l-105 -418h-39q22 105 12.5 182t-35 128.5t-73 83t-100 44.5t-117.5 13q-62 0 -116.5 -12t-102 -36.5t-75 -69t-27.5 -103.5q0 -135 161 -258
l185 -150q41 -35 51 -43.5t47 -41.5t48.5 -47t39 -45t38 -52.5t25.5 -52t20 -60.5t5 -63zM903 1909h33l227 -285h-41l-237 121l-301 -121h-47z" />
    <glyph glyph-name="scircumflex" unicode="&#x15d;" horiz-adv-x="966" 
d="M766 1581l238 -346h-37l-250 170l-346 -170h-41l409 346h27zM750 297q0 -102 -65.5 -177.5t-162 -111t-205.5 -35.5q-97 0 -179 20.5t-132 53.5l117 387h39q-32 -203 5 -295t169 -92q79 0 145 49.5t66 139.5q0 87 -64 172l-98 129q-31 41 -49 66t-41 65t-34 78t-11 77
q0 71 38 129t99 94t132.5 55t142.5 19q156 0 266 -67l-109 -342h-41q39 185 0.5 260.5t-155.5 75.5q-70 0 -124.5 -40t-54.5 -118q0 -40 20 -79.5t58 -92.5l94 -129q72 -100 103 -162.5t31 -128.5z" />
    <glyph glyph-name="Scedilla" unicode="&#x15e;" horiz-adv-x="1234" 
d="M207 -244l184 221q-115 9 -223 39.5t-172 67.5l121 504h41q-18 -100 -20 -179.5t8.5 -135.5t35 -97t54.5 -65.5t73 -39t84.5 -19.5t95.5 -5t105.5 10t99.5 32.5t84 55.5t58 81.5t22 107.5q0 79 -56 152t-155 155l-147 123q-66 54 -103.5 89t-78 83.5t-58.5 98.5t-18 108
q0 72 35 138.5t101.5 120.5t174 86t240.5 32q104 0 238 -31.5t196 -75.5l-105 -418h-39q22 105 12.5 182t-35 128.5t-73 83t-100 44.5t-117.5 13q-62 0 -116.5 -12t-102 -36.5t-75 -69t-27.5 -103.5q0 -135 161 -258l185 -150q41 -35 51 -43.5t47 -41.5t48.5 -47t39 -45
t38 -52.5t25.5 -52t20 -60.5t5 -63q0 -86 -33 -158.5t-89.5 -123.5t-132.5 -87t-162.5 -53t-178.5 -17h-8l-135 -159q40 18 100 18q150 0 150 -121q0 -59 -42.5 -105t-106.5 -68.5t-134 -22.5q-110 0 -186 51l24 41q52 -25 121 -25q68 0 121 27.5t53 81.5q0 35 -35 55.5
t-84 20.5q-44 0 -88 -21z" />
    <glyph glyph-name="scedilla" unicode="&#x15f;" horiz-adv-x="966" 
d="M117 -244l182 217q-190 6 -293 74l117 387h39q-32 -203 5 -295t169 -92q79 0 145 49.5t66 139.5q0 87 -64 172l-98 129q-31 41 -49 66t-41 65t-34 78t-11 77q0 71 38 129t99 94t132.5 55t142.5 19q156 0 266 -67l-109 -342h-41q39 185 0.5 260.5t-155.5 75.5
q-70 0 -124.5 -40t-54.5 -118q0 -40 20 -79.5t58 -92.5l94 -129q72 -100 103 -162.5t31 -128.5q0 -92 -54.5 -163.5t-137 -109.5t-181.5 -47l-137 -163q40 18 100 18q149 0 149 -121q0 -59 -42.5 -105t-106 -68.5t-133.5 -22.5q-111 0 -187 51l25 41q52 -25 121 -25
q68 0 121 27.5t53 81.5q0 35 -35 55.5t-84 20.5q-44 0 -88 -21z" />
    <glyph glyph-name="Scaron" unicode="&#x160;" horiz-adv-x="1234" 
d="M1069 412q0 -86 -33 -158.5t-89.5 -123.5t-132.5 -87t-162.5 -53t-178.5 -17q-133 0 -267 33t-210 78l121 504h41q-18 -100 -20 -179.5t8.5 -135.5t35 -97t54.5 -65.5t73 -39t84.5 -19.5t95.5 -5t105.5 10t99.5 32.5t84 55.5t58 81.5t22 107.5q0 79 -56 152t-155 155
l-147 123q-66 54 -103.5 89t-78 83.5t-58.5 98.5t-18 108q0 72 35 138.5t101.5 120.5t174 86t240.5 32q104 0 238 -31.5t196 -75.5l-105 -418h-39q22 105 12.5 182t-35 128.5t-73 83t-100 44.5t-117.5 13q-62 0 -116.5 -12t-102 -36.5t-75 -69t-27.5 -103.5q0 -135 161 -258
l185 -150q41 -35 51 -43.5t47 -41.5t48.5 -47t39 -45t38 -52.5t25.5 -52t20 -60.5t5 -63zM844 1624h-33l-227 285h41l237 -121l301 121h47z" />
    <glyph glyph-name="scaron" unicode="&#x161;" horiz-adv-x="966" 
d="M664 1235l-238 346h37l250 -170l346 170h41l-410 -346h-26zM750 297q0 -102 -65.5 -177.5t-162 -111t-205.5 -35.5q-97 0 -179 20.5t-132 53.5l117 387h39q-32 -203 5 -295t169 -92q79 0 145 49.5t66 139.5q0 87 -64 172l-98 129q-31 41 -49 66t-41 65t-34 78t-11 77
q0 71 38 129t99 94t132.5 55t142.5 19q156 0 266 -67l-109 -342h-41q39 185 0.5 260.5t-155.5 75.5q-70 0 -124.5 -40t-54.5 -118q0 -40 20 -79.5t58 -92.5l94 -129q72 -100 103 -162.5t31 -128.5z" />
    <glyph glyph-name="uni0162" unicode="&#x162;" horiz-adv-x="1406" 
d="M498 299l280 1122q-96 0 -157.5 -7t-125 -28t-113.5 -63t-103.5 -110t-114.5 -171h-39l172 449q150 -6 451 -6h317q299 0 453 6l-52 -449h-36q-9 89 -20 147t-33.5 103t-49 68.5t-76.5 38t-105 18.5t-145 4l-278 -1122q-14 -57 -20.5 -91.5t-5 -65t11 -46t34 -28.5
t56 -18.5t84.5 -10.5l-11 -39h-675l10 39q66 6 105 14.5t70 23.5t50.5 45.5t34 69.5t31.5 107zM492 -354q-50 3 -86.5 36t-36.5 82q0 52 35.5 87.5t89.5 35.5q55 0 87.5 -38t32.5 -99q0 -109 -99.5 -220t-235.5 -167l-11 21q93 52 158.5 119.5t65.5 142.5z" />
    <glyph glyph-name="uni0163" unicode="&#x163;" horiz-adv-x="802" 
d="M168 -354q-50 3 -86.5 36t-36.5 82q0 52 35.5 87.5t89.5 35.5q55 0 88 -38t33 -99q0 -109 -99.5 -220t-236.5 -167l-10 21q93 52 158 119.5t65 142.5zM127 272l182 750h-180l21 80h180l51 198l240 138l-84 -336h309l-19 -80h-311l-194 -793q-9 -36 -12 -54t-2.5 -39.5
t11.5 -30.5t33 -9q51 0 132.5 57.5t142.5 159.5l32 -20q-81 -150 -195 -235t-214 -85q-103 0 -132 76.5t9 222.5z" />
    <glyph glyph-name="Tcaron" unicode="&#x164;" horiz-adv-x="1406" 
d="M498 299l280 1122q-96 0 -157.5 -7t-125 -28t-113.5 -63t-103.5 -110t-114.5 -171h-39l172 449q150 -6 451 -6h317q299 0 453 6l-52 -449h-36q-9 89 -20 147t-33.5 103t-49 68.5t-76.5 38t-105 18.5t-145 4l-278 -1122q-14 -57 -20.5 -91.5t-5 -65t11 -46t34 -28.5
t56 -18.5t84.5 -10.5l-11 -39h-675l10 39q66 6 105 14.5t70 23.5t50.5 45.5t34 69.5t31.5 107zM938 1624h-33l-227 285h41l237 -121l301 121h48z" />
    <glyph glyph-name="tcaron" unicode="&#x165;" horiz-adv-x="1103" 
d="M1126 1380q-49 3 -85.5 36.5t-36.5 82.5q0 52 35.5 87.5t88.5 35.5q55 0 88 -38t33 -99q0 -109 -99.5 -220t-236.5 -167l-10 20q93 52 158 119.5t65 142.5zM141 272l183 750h-181l21 80h180l51 198l240 138l-84 -336h309l-18 -80h-312l-194 -793q-18 -57 -14 -95t45 -38
q51 0 131.5 57t142.5 160l33 -20q-81 -150 -195.5 -235t-214.5 -85q-103 0 -132 76.5t9 222.5z" />
    <glyph glyph-name="Tbar" unicode="&#x166;" horiz-adv-x="1406" 
d="M498 299l104 422h-258l25 90h256l153 610q-96 0 -157.5 -7t-125 -28t-113.5 -63t-103.5 -110t-114.5 -171h-39l172 449q150 -6 451 -6h317q299 0 453 6l-52 -449h-36q-9 89 -20 147t-33.5 103t-49 68.5t-76.5 38t-105 18.5t-145 4l-151 -610h266l-24 -90h-265l-104 -422
q-14 -57 -20.5 -91.5t-5 -65t11 -46t34 -28.5t56 -18.5t84.5 -10.5l-11 -39h-675l10 39q66 6 105 14.5t70 23.5t50.5 45.5t34 69.5t31.5 107z" />
    <glyph glyph-name="tbar" unicode="&#x167;" horiz-adv-x="817" 
d="M141 272l99 410h-148l21 80h147l64 260h-181l21 80h180l51 198l240 138l-84 -336h309l-18 -80h-312l-63 -260h326l-21 -80h-326l-110 -453q-18 -57 -14 -95t45 -38q51 0 131.5 57t142.5 160l33 -20q-81 -150 -195.5 -235t-214.5 -85q-103 0 -132 76.5t9 222.5z" />
    <glyph glyph-name="Utilde" unicode="&#x168;" horiz-adv-x="1624" 
d="M1499 1186l-145 -574q-83 -327 -248.5 -483t-448.5 -156q-122 0 -212 28.5t-143 79.5t-78 125t-22 161.5t29 191.5l156 625q11 46 18 77t8.5 58.5t1 43.5t-10.5 30.5t-19.5 21t-33 14t-43 10.5l-58.5 9l8 37h631l-8 -37q-56 -8 -81 -12t-57 -16t-45 -25.5t-31 -43.5
t-29 -67t-26 -98l-151 -606q-39 -163 -28.5 -276t82 -172.5t204.5 -59.5q407 0 541 538l145 576q12 46 19 77t8.5 58t1 43t-11 30t-19.5 21t-33.5 14t-43.5 10t-58 9l8 37h500l-9 -37q-42 -6 -62.5 -9t-48.5 -10t-40 -13.5t-29.5 -21t-25.5 -30.5t-20.5 -43.5t-21 -58
t-20.5 -76.5zM1294 1769q106 0 125 103h33q0 -69 -19.5 -126.5t-63.5 -95.5t-107 -38q-46 0 -92 19.5t-78.5 43t-77 43t-86.5 19.5q-108 0 -127 -103h-33q0 69 19.5 126.5t63.5 95.5t107 38q44 0 91.5 -19.5t81 -43t78.5 -43t85 -19.5z" />
    <glyph glyph-name="utilde" unicode="&#x169;" horiz-adv-x="1236" 
d="M233 725q11 38 17 61t11.5 49t5.5 40t-1 29.5t-8.5 23t-17.5 14.5t-27 10t-37 4.5t-49 1.5l10 37l406 125l-203 -733q-23 -81 -32.5 -131t-7.5 -81t15 -42.5t39 -11.5q68 0 169 137.5t185 320t121 328.5l50 195h208l-225 -873q-19 -57 -15 -95t46 -38q44 0 118 57
t136 160l33 -20q-83 -152 -189.5 -236t-199.5 -84q-103 0 -129 75.5t12 223.5l57 242q-136 -280 -246.5 -410.5t-218.5 -130.5q-109 0 -150 99.5t5 265.5zM479 1300h-39q0 67 18.5 128t64 106t110.5 45q39 0 84.5 -20t79.5 -44.5t74.5 -44.5t70.5 -20q56 0 83 29t30 94h39
q-2 -268 -176 -268q-46 0 -93 20t-79.5 44.5t-74 44.5t-77.5 20q-50 0 -80.5 -35.5t-34.5 -98.5z" />
    <glyph glyph-name="Umacron" unicode="&#x16a;" horiz-adv-x="1624" 
d="M1499 1186l-145 -574q-83 -327 -248.5 -483t-448.5 -156q-122 0 -212 28.5t-143 79.5t-78 125t-22 161.5t29 191.5l156 625q11 46 18 77t8.5 58.5t1 43.5t-10.5 30.5t-19.5 21t-33 14t-43 10.5l-58.5 9l8 37h631l-8 -37q-56 -8 -81 -12t-57 -16t-45 -25.5t-31 -43.5
t-29 -67t-26 -98l-151 -606q-39 -163 -28.5 -276t82 -172.5t204.5 -59.5q407 0 541 538l145 576q12 46 19 77t8.5 58t1 43t-11 30t-19.5 21t-33.5 14t-43.5 10t-58 9l8 37h500l-9 -37q-42 -6 -62.5 -9t-48.5 -10t-40 -13.5t-29.5 -21t-25.5 -30.5t-20.5 -43.5t-21 -58
t-20.5 -76.5zM1397 1675h-606l32 140h607z" />
    <glyph glyph-name="umacron" unicode="&#x16b;" horiz-adv-x="1236" 
d="M233 725q11 38 17 61t11.5 49t5.5 40t-1 29.5t-8.5 23t-17.5 14.5t-27 10t-37 4.5t-49 1.5l10 37l406 125l-203 -733q-23 -81 -32.5 -131t-7.5 -81t15 -42.5t39 -11.5q68 0 169 137.5t185 320t121 328.5l50 195h208l-225 -873q-19 -57 -15 -95t46 -38q44 0 118 57
t136 160l33 -20q-83 -152 -189.5 -236t-199.5 -84q-103 0 -129 75.5t12 223.5l57 242q-136 -280 -246.5 -410.5t-218.5 -130.5q-109 0 -150 99.5t5 265.5zM1061 1362h-606l32 139h607z" />
    <glyph glyph-name="Ubreve" unicode="&#x16c;" horiz-adv-x="1624" 
d="M1499 1186l-145 -574q-83 -327 -248.5 -483t-448.5 -156q-122 0 -212 28.5t-143 79.5t-78 125t-22 161.5t29 191.5l156 625q11 46 18 77t8.5 58.5t1 43.5t-10.5 30.5t-19.5 21t-33 14t-43 10.5l-58.5 9l8 37h631l-8 -37q-56 -8 -81 -12t-57 -16t-45 -25.5t-31 -43.5
t-29 -67t-26 -98l-151 -606q-39 -163 -28.5 -276t82 -172.5t204.5 -59.5q407 0 541 538l145 576q12 46 19 77t8.5 58t1 43t-11 30t-19.5 21t-33.5 14t-43.5 10t-58 9l8 37h500l-9 -37q-42 -6 -62.5 -9t-48.5 -10t-40 -13.5t-29.5 -21t-25.5 -30.5t-20.5 -43.5t-21 -58
t-20.5 -76.5zM1120 1612q-92 0 -151 40t-77 100t-3 130h96q-21 -95 17 -142.5t126 -47.5q166 0 215 190h99q-23 -111 -105 -190.5t-217 -79.5z" />
    <glyph glyph-name="ubreve" unicode="&#x16d;" horiz-adv-x="1236" 
d="M233 725q11 38 17 61t11.5 49t5.5 40t-1 29.5t-8.5 23t-17.5 14.5t-27 10t-37 4.5t-49 1.5l10 37l406 125l-203 -733q-23 -81 -32.5 -131t-7.5 -81t15 -42.5t39 -11.5q68 0 169 137.5t185 320t121 328.5l50 195h208l-225 -873q-19 -57 -15 -95t46 -38q44 0 118 57
t136 160l33 -20q-83 -152 -189.5 -236t-199.5 -84q-103 0 -129 75.5t12 223.5l57 242q-136 -280 -246.5 -410.5t-218.5 -130.5q-109 0 -150 99.5t5 265.5zM762 1356q91 0 150 54t83 151h107q-13 -56 -41 -106t-71 -92t-106.5 -66.5t-138.5 -24.5q-99 0 -159.5 43.5
t-77.5 107t-2 138.5h98q-18 -109 22 -157t136 -48z" />
    <glyph glyph-name="Uring" unicode="&#x16e;" horiz-adv-x="1624" 
d="M1499 1186l-145 -574q-83 -327 -248.5 -483t-448.5 -156q-122 0 -212 28.5t-143 79.5t-78 125t-22 161.5t29 191.5l156 625q11 46 18 77t8.5 58.5t1 43.5t-10.5 30.5t-19.5 21t-33 14t-43 10.5l-58.5 9l8 37h631l-8 -37q-56 -8 -81 -12t-57 -16t-45 -25.5t-31 -43.5
t-29 -67t-26 -98l-151 -606q-39 -163 -28.5 -276t82 -172.5t204.5 -59.5q407 0 541 538l145 576q12 46 19 77t8.5 58t1 43t-11 30t-19.5 21t-33.5 14t-43.5 10t-58 9l8 37h500l-9 -37q-42 -6 -62.5 -9t-48.5 -10t-40 -13.5t-29.5 -21t-25.5 -30.5t-20.5 -43.5t-21 -58
t-20.5 -76.5zM911 1827q0 81 55.5 136.5t135.5 55.5t136 -55.5t56 -136.5q0 -78 -56.5 -134.5t-135.5 -56.5t-135 56.5t-56 134.5zM991 1827q0 -51 30.5 -82t80.5 -31q48 0 79 31.5t31 81.5q0 51 -31.5 84t-78.5 33q-49 0 -80 -33t-31 -84z" />
    <glyph glyph-name="uring" unicode="&#x16f;" horiz-adv-x="1236" 
d="M233 725q11 38 17 61t11.5 49t5.5 40t-1 29.5t-8.5 23t-17.5 14.5t-27 10t-37 4.5t-49 1.5l10 37l406 125l-203 -733q-23 -81 -32.5 -131t-7.5 -81t15 -42.5t39 -11.5q68 0 169 137.5t185 320t121 328.5l50 195h208l-225 -873q-19 -57 -15 -95t46 -38q44 0 118 57
t136 160l33 -20q-83 -152 -189.5 -236t-199.5 -84q-103 0 -129 75.5t12 223.5l57 242q-136 -280 -246.5 -410.5t-218.5 -130.5q-109 0 -150 99.5t5 265.5zM567 1438q0 81 55.5 136.5t135.5 55.5t136 -55.5t56 -136.5q0 -78 -56.5 -134.5t-135.5 -56.5t-135 56.5t-56 134.5z
M647 1438q0 -51 30.5 -82t80.5 -31q48 0 79 31.5t31 81.5q0 51 -31 83.5t-79 32.5q-49 0 -80 -32.5t-31 -83.5z" />
    <glyph glyph-name="Uhungarumlaut" unicode="&#x170;" horiz-adv-x="1624" 
d="M1499 1186l-145 -574q-83 -327 -248.5 -483t-448.5 -156q-122 0 -212 28.5t-143 79.5t-78 125t-22 161.5t29 191.5l156 625q11 46 18 77t8.5 58.5t1 43.5t-10.5 30.5t-19.5 21t-33 14t-43 10.5l-58.5 9l8 37h631l-8 -37q-56 -8 -81 -12t-57 -16t-45 -25.5t-31 -43.5
t-29 -67t-26 -98l-151 -606q-39 -163 -28.5 -276t82 -172.5t204.5 -59.5q407 0 541 538l145 576q12 46 19 77t8.5 58t1 43t-11 30t-19.5 21t-33.5 14t-43.5 10t-58 9l8 37h500l-9 -37q-42 -6 -62.5 -9t-48.5 -10t-40 -13.5t-29.5 -21t-25.5 -30.5t-20.5 -43.5t-21 -58
t-20.5 -76.5zM1782 1888l-514 -264h-43l235 264h322zM1389 1888l-515 -264h-43l236 264h322z" />
    <glyph glyph-name="uhungarumlaut" unicode="&#x171;" horiz-adv-x="1236" 
d="M1094 1581h268l-457 -367h-37zM752 1581h268l-459 -367h-35zM233 725q11 38 17 61t11.5 49t5.5 40t-1 29.5t-8.5 23t-17.5 14.5t-27 10t-37 4.5t-49 1.5l10 37l406 125l-203 -733q-23 -81 -32.5 -131t-7.5 -81t15 -42.5t39 -11.5q68 0 169 137.5t185 320t121 328.5
l50 195h208l-225 -873q-19 -57 -15 -95t46 -38q44 0 118 57t136 160l33 -20q-83 -152 -189.5 -236t-199.5 -84q-103 0 -129 75.5t12 223.5l57 242q-136 -280 -246.5 -410.5t-218.5 -130.5q-109 0 -150 99.5t5 265.5z" />
    <glyph glyph-name="Uogonek" unicode="&#x172;" horiz-adv-x="1624" 
d="M842 -317l14 -23q-47 -47 -107.5 -74.5t-117.5 -27.5q-75 0 -130 42t-55 124q0 66 58.5 132t144.5 117q-121 1 -209 30t-140.5 80.5t-76.5 125t-21 160t29 190.5l156 625q11 46 18 77t8.5 58.5t1 43.5t-10.5 30.5t-19.5 21t-33 14t-43 10.5l-58.5 9l8 37h631l-8 -37
q-56 -8 -81 -12t-57 -16t-45 -25.5t-31 -43.5t-29 -67t-26 -98l-151 -606q-39 -163 -28.5 -276t82 -172.5t204.5 -59.5q407 0 541 538l145 576q12 46 19 77t8.5 58t1 43t-11 30t-19.5 21t-33.5 14t-43.5 10t-58 9l8 37h500l-9 -37q-42 -6 -62.5 -9t-48.5 -10t-40 -13.5
t-29.5 -21t-25.5 -30.5t-20.5 -43.5t-21 -58t-20.5 -76.5l-145 -574q-79 -312 -231.5 -467t-409.5 -170q-52 -42 -82.5 -94.5t-30.5 -103.5q0 -58 35 -92.5t86 -34.5q62 0 121 33z" />
    <glyph glyph-name="uogonek" unicode="&#x173;" horiz-adv-x="1236" 
d="M922 -317l14 -23q-47 -47 -107.5 -74.5t-117.5 -27.5q-75 0 -130 42t-55 124q0 67 62.5 135.5t150.5 120.5q-69 18 -83.5 91.5t18.5 200.5l57 242q-136 -280 -246.5 -410.5t-218.5 -130.5q-109 0 -150 99.5t5 265.5l112 387q11 38 17 61t11.5 49t5.5 40t-1 29.5t-8.5 23
t-17.5 14.5t-27 10t-37 4.5t-49 1.5l10 37l406 125l-203 -733q-23 -81 -32.5 -131t-7.5 -81t15 -42.5t39 -11.5q68 0 169 137.5t185 320t121 328.5l50 195h208l-225 -873q-19 -57 -15 -95t46 -38q44 0 118 57t136 160l33 -20q-83 -151 -188.5 -234.5t-198.5 -85.5
q-52 -42 -82.5 -93.5t-30.5 -102.5q0 -58 35 -92.5t86 -34.5q62 0 121 33z" />
    <glyph glyph-name="Wcircumflex" unicode="&#x174;" horiz-adv-x="2187" 
d="M2349 1485l-10 -37q-64 -5 -98.5 -15t-77.5 -47t-84 -101.5t-107 -184.5l-616 -1127h-88l-88 1074l-580 -1074h-90l-107 1278q-6 65 -12.5 97t-25 55.5t-46.5 31.5t-81 13l8 37h577l-8 -37q-114 -12 -153 -41.5t-33 -110.5l76 -936l456 859l-4 47q-4 42 -7.5 67
t-11.5 46.5t-17 31.5t-29 18.5t-41 12t-58 6.5l8 37h578l-8 -37q-112 -11 -138 -20q-46 -17 -51 -70q-2 -19 0 -47l78 -951l379 695q132 242 147 309q13 55 -25 70q-21 9 -87 14l10 37h465zM1358 1909h33l227 -285h-41l-238 121l-301 -121h-47z" />
    <glyph glyph-name="wcircumflex" unicode="&#x175;" horiz-adv-x="1613" 
d="M854 -27l-74 818l-481 -818h-39l-88 969q-4 50 -14.5 74t-27 33t-56.5 18l6 35h440l-6 -35q-36 -7 -56 -11.5t-38 -13t-25 -16.5t-11.5 -25t-4 -34.5t3.5 -48.5l45 -582l451 766h75l68 -766l289 475q35 58 54.5 92t31 63.5t11.5 43.5t-12.5 26.5t-30 17.5t-52.5 13l6 35
h362l-6 -35q-81 -15 -119 -46.5t-104 -139.5l-557 -908h-41zM1051 1581l237 -346h-37l-250 170l-346 -170h-41l410 346h27z" />
    <glyph glyph-name="Ycircumflex" unicode="&#x176;" horiz-adv-x="1435" 
d="M709 299q-14 -57 -20.5 -92t-5 -65t11.5 -45.5t34 -28.5t55.5 -18.5t83.5 -10.5l-8 -39h-676l9 39q55 5 90 10.5t65.5 18.5t47.5 28.5t34 46t28 65t25 91.5l72 285l-199 665q-32 109 -65 148t-103 51l9 37h573l-8 -37q-111 -12 -153.5 -47t-22.5 -107l176 -592l366 459
q139 174 132 233q-5 42 -87 52l-16 2l8 37h459l-8 -37q-91 -14 -162 -61.5t-158 -159.5l-514 -635zM1042 1909h33l228 -285h-41l-238 121l-301 -121h-47z" />
    <glyph glyph-name="ycircumflex" unicode="&#x177;" horiz-adv-x="1218" 
d="M395 -104q-136 -201 -242.5 -275t-228.5 -74q-53 0 -137 15l57 227h17q60 -51 153 -51q90 0 158 39.5t133 140.5l51 76l-141 948q-11 74 -27 95t-71 28l6 37h452l-6 -37q-38 -8 -60 -13.5t-39.5 -14.5t-24.5 -16.5t-10.5 -24.5t-2.5 -32t4 -46l94 -676l373 569
q38 57 56.5 91.5t27.5 63t-2 45.5t-34 29.5t-66 24.5l6 37h395l-8 -37q-61 -15 -90.5 -31t-54.5 -45.5t-78 -107.5zM840 1581l237 -346h-37l-249 170l-347 -170h-41l410 346h27z" />
    <glyph glyph-name="Ydieresis" unicode="&#x178;" horiz-adv-x="1435" 
d="M709 299q-14 -57 -20.5 -92t-5 -65t11.5 -45.5t34 -28.5t55.5 -18.5t83.5 -10.5l-8 -39h-676l9 39q55 5 90 10.5t65.5 18.5t47.5 28.5t34 46t28 65t25 91.5l72 285l-199 665q-32 109 -65 148t-103 51l9 37h573l-8 -37q-111 -12 -153.5 -47t-22.5 -107l176 -592l366 459
q139 174 132 233q-5 42 -87 52l-16 2l8 37h459l-8 -37q-91 -14 -162 -61.5t-158 -159.5l-514 -635zM1104 1759q0 55 36 92t91 37q53 0 90 -37.5t37 -91.5q0 -56 -37 -92.5t-90 -36.5q-56 0 -91.5 36t-35.5 93zM637 1759q0 55 36 92t91 37q52 0 88.5 -37.5t36.5 -91.5
q0 -56 -36 -92.5t-89 -36.5q-56 0 -91.5 36t-35.5 93z" />
    <glyph glyph-name="Zacute" unicode="&#x179;" horiz-adv-x="1400" 
d="M248 74h186q88 0 132.5 1t112 5.5t103 14t86.5 27t83.5 44t74 65t77.5 90.5t75 121h39l-175 -448q-150 6 -448 6h-657l4 23l1218 1388h-84q-116 0 -173.5 -2t-138 -12.5t-125 -33t-102.5 -63.5t-105 -104t-99 -154h-37l172 449q150 -6 448 -6h570l-6 -21zM1430 1888
l-515 -264h-43l236 264h322z" />
    <glyph glyph-name="zacute" unicode="&#x17a;" horiz-adv-x="1116" 
d="M1174 1581l-459 -346h-35l225 346h269zM496 0h-514l4 18l839 996h-137q-125 0 -202 -27t-131 -92t-101 -188h-43l135 399q113 -4 326 -4h450l-6 -21l-837 -993h200q186 0 276.5 63.5t157.5 243.5h41l-131 -399q-113 4 -327 4z" />
    <glyph glyph-name="Zdotaccent" unicode="&#x17b;" horiz-adv-x="1400" 
d="M248 74h186q88 0 132.5 1t112 5.5t103 14t86.5 27t83.5 44t74 65t77.5 90.5t75 121h39l-175 -448q-150 6 -448 6h-657l4 23l1218 1388h-84q-116 0 -173.5 -2t-138 -12.5t-125 -33t-102.5 -63.5t-105 -104t-99 -154h-37l172 449q150 -6 448 -6h570l-6 -21zM889 1759
q0 55 36 92t91 37q52 0 88.5 -37.5t36.5 -91.5q0 -56 -36 -92.5t-89 -36.5q-56 0 -91.5 36t-35.5 93z" />
    <glyph glyph-name="zdotaccent" unicode="&#x17c;" horiz-adv-x="1116" 
d="M496 0h-514l4 18l839 996h-137q-125 0 -202 -27t-131 -92t-101 -188h-43l135 399q113 -4 326 -4h450l-6 -21l-837 -993h200q186 0 276.5 63.5t157.5 243.5h41l-131 -399q-113 4 -327 4zM676 1454q0 54 36 90.5t91 36.5q53 0 89 -36.5t36 -90.5q0 -56 -36 -92.5t-89 -36.5
q-56 0 -91.5 36t-35.5 93z" />
    <glyph glyph-name="Zcaron" unicode="&#x17d;" horiz-adv-x="1400" 
d="M248 74h186q88 0 132.5 1t112 5.5t103 14t86.5 27t83.5 44t74 65t77.5 90.5t75 121h39l-175 -448q-150 6 -448 6h-657l4 23l1218 1388h-84q-116 0 -173.5 -2t-138 -12.5t-125 -33t-102.5 -63.5t-105 -104t-99 -154h-37l172 449q150 -6 448 -6h570l-6 -21zM1010 1624h-33
l-227 285h41l237 -121l301 121h47z" />
    <glyph glyph-name="zcaron" unicode="&#x17e;" horiz-adv-x="1116" 
d="M756 1235l-238 346h37l250 -170l346 170h41l-410 -346h-26zM496 0h-514l4 18l839 996h-137q-125 0 -202 -27t-131 -92t-101 -188h-43l135 399q113 -4 326 -4h450l-6 -21l-837 -993h200q186 0 276.5 63.5t157.5 243.5h41l-131 -399q-113 4 -327 4z" />
    <glyph glyph-name="uni018F" unicode="&#x18f;" horiz-adv-x="1533" 
d="M899 1520q170 0 299.5 -65.5t205 -199t75.5 -319.5q0 -142 -39 -281.5t-116 -262t-182 -216.5t-246.5 -148.5t-299.5 -54.5q-222 0 -358 133.5t-136 360.5q0 107 35 235h1071q27 120 27 228q0 86 -25 158t-75.5 127.5t-134 86.5t-193.5 31q-183 0 -313 -75.5t-195 -200.5
l-33 18q33 79 89.5 154t135 142t185 108t223.5 41zM612 47q108 0 203.5 47.5t165.5 129.5t120.5 178.5t82.5 207.5h-819q-31 -108 -31 -215q0 -72 15.5 -133t47.5 -110t87 -77t128 -28z" />
    <glyph glyph-name="Scommaaccent" unicode="&#x218;" horiz-adv-x="1234" 
d="M1069 412q0 -86 -33 -158.5t-89.5 -123.5t-132.5 -87t-162.5 -53t-178.5 -17q-133 0 -267 33t-210 78l121 504h41q-18 -100 -20 -179.5t8.5 -135.5t35 -97t54.5 -65.5t73 -39t84.5 -19.5t95.5 -5t105.5 10t99.5 32.5t84 55.5t58 81.5t22 107.5q0 79 -56 152t-155 155
l-147 123q-66 54 -103.5 89t-78 83.5t-58.5 98.5t-18 108q0 72 35 138.5t101.5 120.5t174 86t240.5 32q104 0 238 -31.5t196 -75.5l-105 -418h-39q22 105 12.5 182t-35 128.5t-73 83t-100 44.5t-117.5 13q-62 0 -116.5 -12t-102 -36.5t-75 -69t-27.5 -103.5q0 -135 161 -258
l185 -150q41 -35 51 -43.5t47 -41.5t48.5 -47t39 -45t38 -52.5t25.5 -52t20 -60.5t5 -63zM408 -354q-50 3 -86.5 36t-36.5 82q0 52 35.5 87.5t89.5 35.5q55 0 87.5 -38t32.5 -99q0 -109 -99.5 -220t-235.5 -167l-11 21q93 52 158.5 119.5t65.5 142.5z" />
    <glyph glyph-name="scommaaccent" unicode="&#x219;" horiz-adv-x="966" 
d="M750 297q0 -102 -65.5 -177.5t-162 -111t-205.5 -35.5q-97 0 -179 20.5t-132 53.5l117 387h39q-32 -203 5 -295t169 -92q79 0 145 49.5t66 139.5q0 87 -64 172l-98 129q-31 41 -49 66t-41 65t-34 78t-11 77q0 71 38 129t99 94t132.5 55t142.5 19q156 0 266 -67l-109 -342
h-41q39 185 0.5 260.5t-155.5 75.5q-70 0 -124.5 -40t-54.5 -118q0 -40 20 -79.5t58 -92.5l94 -129q72 -100 103 -162.5t31 -128.5zM262 -354q-50 3 -86.5 36t-36.5 82q0 52 35.5 87.5t89.5 35.5q55 0 88 -38t33 -99q0 -109 -99.5 -220t-236.5 -167l-10 21q93 52 158 119.5
t65 142.5z" />
    <glyph glyph-name="Tcommaaccent" unicode="&#x21a;" horiz-adv-x="1406" 
d="M498 299l280 1122q-96 0 -157.5 -7t-125 -28t-113.5 -63t-103.5 -110t-114.5 -171h-39l172 449q150 -6 451 -6h317q299 0 453 6l-52 -449h-36q-9 89 -20 147t-33.5 103t-49 68.5t-76.5 38t-105 18.5t-145 4l-278 -1122q-14 -57 -20.5 -91.5t-5 -65t11 -46t34 -28.5
t56 -18.5t84.5 -10.5l-11 -39h-675l10 39q66 6 105 14.5t70 23.5t50.5 45.5t34 69.5t31.5 107zM492 -354q-50 3 -86.5 36t-36.5 82q0 52 35.5 87.5t89.5 35.5q55 0 87.5 -38t32.5 -99q0 -109 -99.5 -220t-235.5 -167l-11 21q93 52 158.5 119.5t65.5 142.5z" />
    <glyph glyph-name="tcommaaccent" unicode="&#x21b;" horiz-adv-x="802" 
d="M168 -354q-50 3 -86.5 36t-36.5 82q0 52 35.5 87.5t89.5 35.5q55 0 88 -38t33 -99q0 -109 -99.5 -220t-236.5 -167l-10 21q93 52 158 119.5t65 142.5zM127 272l182 750h-180l21 80h180l51 198l240 138l-84 -336h309l-19 -80h-311l-194 -793q-9 -36 -12 -54t-2.5 -39.5
t11.5 -30.5t33 -9q51 0 132.5 57.5t142.5 159.5l32 -20q-81 -150 -195 -235t-214 -85q-103 0 -132 76.5t9 222.5z" />
    <glyph glyph-name="uni0232" unicode="&#x232;" horiz-adv-x="1435" 
d="M709 299q-14 -57 -20.5 -92t-5 -65t11.5 -45.5t34 -28.5t55.5 -18.5t83.5 -10.5l-8 -39h-676l9 39q55 5 90 10.5t65.5 18.5t47.5 28.5t34 46t28 65t25 91.5l72 285l-199 665q-32 109 -65 148t-103 51l9 37h573l-8 -37q-111 -12 -153.5 -47t-22.5 -107l176 -592l366 459
q139 174 132 233q-5 42 -87 52l-16 2l8 37h459l-8 -37q-91 -14 -162 -61.5t-158 -159.5l-514 -635zM1329 1675h-606l33 140h606z" />
    <glyph glyph-name="uni0233" unicode="&#x233;" horiz-adv-x="1218" 
d="M395 -104q-136 -201 -242.5 -275t-228.5 -74q-53 0 -137 15l57 227h17q60 -51 153 -51q90 0 158 39.5t133 140.5l51 76l-141 948q-11 74 -27 95t-71 28l6 37h452l-6 -37q-38 -8 -60 -13.5t-39.5 -14.5t-24.5 -16.5t-10.5 -24.5t-2.5 -32t4 -46l94 -676l373 569
q38 57 56.5 91.5t27.5 63t-2 45.5t-34 29.5t-66 24.5l6 37h395l-8 -37q-61 -15 -90.5 -31t-54.5 -45.5t-78 -107.5zM1085 1362h-606l33 139h606z" />
    <glyph glyph-name="dotlessj" unicode="&#x237;" horiz-adv-x="643" 
d="M281 725q9 38 14 56.5t10.5 45.5t6.5 38.5t0.5 29t-4.5 23.5t-11 16t-17.5 12.5t-26.5 6.5t-34.5 4.5t-44.5 0.5l10 37l406 125q-80 -301 -117 -448l-119 -475q-22 -89 -47 -157t-68 -143t-100 -136t-142.5 -122.5t-197.5 -115.5l-8 20q82 70 141 142t98 153t62.5 151.5
t48.5 174.5z" />
    <glyph glyph-name="uni0259" unicode="&#x259;" horiz-adv-x="995" 
d="M940 803q0 -141 -59.5 -291t-153.5 -268t-220.5 -194.5t-250.5 -76.5q-39 0 -79.5 10t-81 31t-66 61t-25.5 93q0 239 442 328l236 47q27 125 27 213q0 104 -39 160.5t-117 56.5q-106 0 -209.5 -81t-173.5 -230l-35 22q95 214 226.5 325t289.5 111q135 0 212 -82t77 -235z
M313 47q58 0 113.5 36.5t100.5 98.5t81 138.5t60 162.5l-107 -18q-169 -30 -258.5 -108t-89.5 -189q0 -51 24 -86t76 -35z" />
    <glyph glyph-name="circumflex" unicode="&#x2c6;" horiz-adv-x="743" 
d="M453 1581l237 -346h-37l-250 170l-346 -170h-41l410 346h27z" />
    <glyph glyph-name="caron" unicode="&#x2c7;" horiz-adv-x="743" 
d="M324 1235l-238 346h37l250 -170l346 170h41l-410 -346h-26z" />
    <glyph glyph-name="breve" unicode="&#x2d8;" horiz-adv-x="686" 
d="M354 1356q91 0 150.5 54t83.5 151h106q-13 -56 -41 -106t-70.5 -92t-106 -66.5t-138.5 -24.5q-60 0 -107 16.5t-75 44t-45.5 65t-18.5 79t6 84.5h99q-18 -109 21.5 -157t135.5 -48z" />
    <glyph glyph-name="dotaccent" unicode="&#x2d9;" horiz-adv-x="342" 
d="M41 1454q0 54 36 90.5t91 36.5q53 0 89 -36.5t36 -90.5q0 -56 -36 -92.5t-89 -36.5q-56 0 -91.5 36t-35.5 93z" />
    <glyph glyph-name="ring" unicode="&#x2da;" horiz-adv-x="464" 
d="M41 1438q0 81 55 136.5t135 55.5t136.5 -55.5t56.5 -136.5q0 -78 -57 -134.5t-136 -56.5t-134.5 56.5t-55.5 134.5zM121 1438q0 -51 30 -82t80 -31q48 0 79.5 31.5t31.5 81.5q0 51 -31.5 83.5t-79.5 32.5q-49 0 -79.5 -32.5t-30.5 -83.5z" />
    <glyph glyph-name="ogonek" unicode="&#x2db;" horiz-adv-x="499" 
d="M459 -317l14 -23q-47 -47 -107.5 -74.5t-117.5 -27.5q-75 0 -130 42t-55 124q0 76 78.5 151.5t180.5 128.5h49q-69 -45 -111.5 -106t-42.5 -121q0 -58 35 -92.5t86 -34.5q62 0 121 33z" />
    <glyph glyph-name="tilde" unicode="&#x2dc;" horiz-adv-x="765" 
d="M94 1300h-39q0 67 18.5 128t64 106t110.5 45q39 0 84.5 -20t79.5 -44.5t74.5 -44.5t70.5 -20q56 0 83 29t30 94h39q-2 -268 -177 -268q-46 0 -93 20t-79 44.5t-73.5 44.5t-77.5 20q-50 0 -80.5 -35.5t-34.5 -98.5z" />
    <glyph glyph-name="hungarumlaut" unicode="&#x2dd;" horiz-adv-x="843" 
d="M569 1581h269l-457 -367h-37zM227 1581h269l-459 -367h-35z" />
    <glyph glyph-name="uni032C" unicode="&#x32c;" horiz-adv-x="745" 
d="M371 -367h-60l-205 367h44l225 -188l342 188h41z" />
    <glyph glyph-name="Delta" unicode="&#x394;" horiz-adv-x="1486" 
d="M41 0l723 1479l719 -1479h-1442zM1262 135l-498 1039l-500 -1039h998z" />
    <glyph glyph-name="Delta" unicode="&#x2206;" horiz-adv-x="1486" 
d="M41 0l723 1479l719 -1479h-1442zM1262 135l-498 1039l-500 -1039h998z" />
    <glyph glyph-name="Omega" unicode="&#x3a9;" horiz-adv-x="1619" 
d="M453 137l30 148q-69 26 -130 74t-111 116.5t-79.5 163.5t-29.5 203q0 155 60.5 283t163.5 211.5t238.5 129t287.5 45.5q202 0 362.5 -74.5t254 -216.5t93.5 -327q0 -125 -42 -235.5t-114 -190.5t-164.5 -135t-195.5 -78l-26 -117h397l-31 -137h-545l74 358
q226 23 361 170.5t135 362.5q0 98 -31 180t-84.5 139.5t-126 97.5t-154 59t-169.5 19q-272 0 -432 -151t-160 -391q0 -182 96 -310.5t272 -164.5l-75 -369h-533l27 137h381z" />
    <glyph glyph-name="Omega" unicode="&#x2126;" horiz-adv-x="1619" 
d="M453 137l30 148q-69 26 -130 74t-111 116.5t-79.5 163.5t-29.5 203q0 155 60.5 283t163.5 211.5t238.5 129t287.5 45.5q202 0 362.5 -74.5t254 -216.5t93.5 -327q0 -125 -42 -235.5t-114 -190.5t-164.5 -135t-195.5 -78l-26 -117h397l-31 -137h-545l74 358
q226 23 361 170.5t135 362.5q0 98 -31 180t-84.5 139.5t-126 97.5t-154 59t-169.5 19q-272 0 -432 -151t-160 -391q0 -182 96 -310.5t272 -164.5l-75 -369h-533l27 137h381z" />
    <glyph glyph-name="pi" unicode="&#x3c0;" horiz-adv-x="1296" 
d="M219 0h-143l239 958h-155l35 138h1177l-33 -138h-157l-164 -663q-23 -87 -23 -115q0 -33 23.5 -43t89.5 -10h25l-31 -127h-64q-105 0 -147.5 27.5t-42.5 97.5q0 49 22 145l170 688h-581z" />
    <glyph glyph-name="Wgrave" unicode="&#x1e80;" horiz-adv-x="2187" 
d="M2349 1485l-10 -37q-64 -5 -98.5 -15t-77.5 -47t-84 -101.5t-107 -184.5l-616 -1127h-88l-88 1074l-580 -1074h-90l-107 1278q-6 65 -12.5 97t-25 55.5t-46.5 31.5t-81 13l8 37h577l-8 -37q-114 -12 -153 -41.5t-33 -110.5l76 -936l456 859l-4 47q-4 42 -7.5 67
t-11.5 46.5t-17 31.5t-29 18.5t-41 12t-58 6.5l8 37h578l-8 -37q-112 -11 -138 -20q-46 -17 -51 -70q-2 -19 0 -47l78 -951l379 695q132 242 147 309q13 55 -25 70q-21 9 -87 14l10 37h465zM913 1888h322l104 -264h-43z" />
    <glyph glyph-name="wgrave" unicode="&#x1e81;" horiz-adv-x="1613" 
d="M854 -27l-74 818l-481 -818h-39l-88 969q-4 50 -14.5 74t-27 33t-56.5 18l6 35h440l-6 -35q-36 -7 -56 -11.5t-38 -13t-25 -16.5t-11.5 -25t-4 -34.5t3.5 -48.5l45 -582l451 766h75l68 -766l289 475q35 58 54.5 92t31 63.5t11.5 43.5t-12.5 26.5t-30 17.5t-52.5 13l6 35
h362l-6 -35q-81 -15 -119 -46.5t-104 -139.5l-557 -908h-41zM651 1581h238l76 -346h-39z" />
    <glyph glyph-name="Wacute" unicode="&#x1e82;" horiz-adv-x="2187" 
d="M2349 1485l-10 -37q-64 -5 -98.5 -15t-77.5 -47t-84 -101.5t-107 -184.5l-616 -1127h-88l-88 1074l-580 -1074h-90l-107 1278q-6 65 -12.5 97t-25 55.5t-46.5 31.5t-81 13l8 37h577l-8 -37q-114 -12 -153 -41.5t-33 -110.5l76 -936l456 859l-4 47q-4 42 -7.5 67
t-11.5 46.5t-17 31.5t-29 18.5t-41 12t-58 6.5l8 37h578l-8 -37q-112 -11 -138 -20q-46 -17 -51 -70q-2 -19 0 -47l78 -951l379 695q132 242 147 309q13 55 -25 70q-21 9 -87 14l10 37h465zM1815 1888l-515 -264h-43l236 264h322z" />
    <glyph glyph-name="wacute" unicode="&#x1e83;" horiz-adv-x="1613" 
d="M854 -27l-74 818l-481 -818h-39l-88 969q-4 50 -14.5 74t-27 33t-56.5 18l6 35h440l-6 -35q-36 -7 -56 -11.5t-38 -13t-25 -16.5t-11.5 -25t-4 -34.5t3.5 -48.5l45 -582l451 766h75l68 -766l289 475q35 58 54.5 92t31 63.5t11.5 43.5t-12.5 26.5t-30 17.5t-52.5 13l6 35
h362l-6 -35q-81 -15 -119 -46.5t-104 -139.5l-557 -908h-41zM1395 1581l-459 -346h-35l225 346h269z" />
    <glyph glyph-name="Wdieresis" unicode="&#x1e84;" horiz-adv-x="2187" 
d="M2349 1485l-10 -37q-64 -5 -98.5 -15t-77.5 -47t-84 -101.5t-107 -184.5l-616 -1127h-88l-88 1074l-580 -1074h-90l-107 1278q-6 65 -12.5 97t-25 55.5t-46.5 31.5t-81 13l8 37h577l-8 -37q-114 -12 -153 -41.5t-33 -110.5l76 -936l456 859l-4 47q-4 42 -7.5 67
t-11.5 46.5t-17 31.5t-29 18.5t-41 12t-58 6.5l8 37h578l-8 -37q-112 -11 -138 -20q-46 -17 -51 -70q-2 -19 0 -47l78 -951l379 695q132 242 147 309q13 55 -25 70q-21 9 -87 14l10 37h465zM1417 1759q0 55 36 92t91 37q53 0 90 -37.5t37 -91.5q0 -56 -37 -92.5t-90 -36.5
q-56 0 -91.5 36t-35.5 93zM950 1759q0 55 36 92t91 37q52 0 88.5 -37.5t36.5 -91.5q0 -56 -36 -92.5t-89 -36.5q-56 0 -91.5 36t-35.5 93z" />
    <glyph glyph-name="wdieresis" unicode="&#x1e85;" horiz-adv-x="1613" 
d="M854 -27l-74 818l-481 -818h-39l-88 969q-4 50 -14.5 74t-27 33t-56.5 18l6 35h440l-6 -35q-36 -7 -56 -11.5t-38 -13t-25 -16.5t-11.5 -25t-4 -34.5t3.5 -48.5l45 -582l451 766h75l68 -766l289 475q35 58 54.5 92t31 63.5t11.5 43.5t-12.5 26.5t-30 17.5t-52.5 13l6 35
h362l-6 -35q-81 -15 -119 -46.5t-104 -139.5l-557 -908h-41zM596 1454q0 54 36 90.5t91 36.5q53 0 89 -36.5t36 -90.5q0 -56 -36 -92.5t-89 -36.5q-56 0 -91.5 36t-35.5 93zM1042 1454q0 54 37 90.5t92 36.5q51 0 88 -36.5t37 -90.5q0 -56 -36.5 -92.5t-88.5 -36.5
q-56 0 -92.5 36t-36.5 93z" />
    <glyph glyph-name="uni1ECA" unicode="&#x1eca;" horiz-adv-x="825" 
d="M653 1186l-221 -887q-11 -46 -18 -76.5t-8.5 -58t-1 -43.5t11 -30.5t19 -21t33 -13.5t43.5 -10t58 -9l-8 -37h-631l9 37q42 6 62.5 9t48.5 10t40 14t30 21t26 30t20.5 43t21 58t19.5 77l221 887q11 46 18 76.5t8.5 58t1 43.5t-11 30.5t-19 21t-33 13.5t-43.5 10t-58 9
l8 37h631l-8 -37q-56 -8 -81 -12t-57 -16t-45 -25.5t-31 -43.5t-29 -67t-26 -98zM39 -326q0 54 36 90.5t91 36.5q53 0 89 -36.5t36 -90.5q0 -56 -36 -92.5t-89 -36.5q-56 0 -91.5 36t-35.5 93z" />
    <glyph glyph-name="uni1ECB" unicode="&#x1ecb;" horiz-adv-x="681" 
d="M10 -326q0 54 36 90.5t91 36.5q53 0 89 -36.5t36 -90.5q0 -56 -36 -92.5t-89 -36.5q-56 0 -91.5 36t-35.5 93zM236 725q33 136 31 171q-3 42 -45 54q-28 8 -93 8l10 37l406 125q-95 -358 -117 -448l-109 -443q-18 -57 -14 -95t45 -38q44 0 118 57t136 160l33 -20
q-83 -152 -189.5 -236t-199.5 -84q-103 0 -132 76.5t9 222.5zM637 1452q0 -60 -41.5 -99.5t-101.5 -39.5q-61 0 -103.5 40t-42.5 99q0 58 43 98.5t103 40.5t101.5 -40.5t41.5 -98.5z" />
    <glyph glyph-name="uni1ECC" unicode="&#x1ecc;" horiz-adv-x="1634" 
d="M102 559q0 143 40 283t118 261.5t183.5 215t246.5 147.5t297 54q170 0 302.5 -66t211 -200.5t78.5 -319.5q0 -178 -64.5 -350.5t-177.5 -308t-282 -219t-363 -83.5q-170 0 -302 66t-210 200t-78 320zM350 522q0 -105 20.5 -189.5t63 -149.5t115 -100.5t170.5 -35.5
q100 0 188.5 42.5t154 115t117.5 166t84 197.5t49 206.5t17 196.5q0 105 -20.5 189.5t-63 149.5t-114.5 100.5t-170 35.5q-100 0 -188.5 -42.5t-154 -115t-118 -165.5t-84.5 -197t-49 -206.5t-17 -197.5zM418 -326q0 54 36 90.5t91 36.5q53 0 89 -36.5t36 -90.5
q0 -56 -36 -92.5t-89 -36.5q-56 0 -91.5 36t-35.5 93z" />
    <glyph glyph-name="uni1ECD" unicode="&#x1ecd;" horiz-adv-x="1130" 
d="M829 729q0 62 -9 115t-28.5 100.5t-57 75t-89.5 27.5q-73 0 -133.5 -51t-98.5 -127.5t-64 -171.5t-37 -178t-11 -152q0 -62 9 -115.5t28.5 -101.5t57 -75.5t89.5 -27.5q73 0 133.5 51t98.5 128t64 172t37 178.5t11 152.5zM68 436q0 150 54 281.5t139 217.5t188 135.5
t204 49.5q174 0 292 -132t118 -329q0 -121 -35 -230.5t-94.5 -191t-135 -142t-158.5 -91.5t-163 -31q-174 0 -291.5 132.5t-117.5 330.5zM238 -326q0 54 36 90.5t91 36.5q53 0 88.5 -36.5t35.5 -90.5q0 -56 -35.5 -92.5t-88.5 -36.5q-56 0 -91.5 36t-35.5 93z" />
    <glyph glyph-name="uni1EE4" unicode="&#x1ee4;" horiz-adv-x="1624" 
d="M1499 1186l-145 -574q-83 -327 -248.5 -483t-448.5 -156q-122 0 -212 28.5t-143 79.5t-78 125t-22 161.5t29 191.5l156 625q11 46 18 77t8.5 58.5t1 43.5t-10.5 30.5t-19.5 21t-33 14t-43 10.5l-58.5 9l8 37h631l-8 -37q-56 -8 -81 -12t-57 -16t-45 -25.5t-31 -43.5
t-29 -67t-26 -98l-151 -606q-39 -163 -28.5 -276t82 -172.5t204.5 -59.5q407 0 541 538l145 576q12 46 19 77t8.5 58t1 43t-11 30t-19.5 21t-33.5 14t-43.5 10t-58 9l8 37h500l-9 -37q-42 -6 -62.5 -9t-48.5 -10t-40 -13.5t-29.5 -21t-25.5 -30.5t-20.5 -43.5t-21 -58
t-20.5 -76.5zM483 -326q0 54 36 90.5t91 36.5q53 0 89 -36.5t36 -90.5q0 -56 -36 -92.5t-89 -36.5q-56 0 -91.5 36t-35.5 93z" />
    <glyph glyph-name="uni1EE5" unicode="&#x1ee5;" horiz-adv-x="1236" 
d="M233 725q11 38 17 61t11.5 49t5.5 40t-1 29.5t-8.5 23t-17.5 14.5t-27 10t-37 4.5t-49 1.5l10 37l406 125l-203 -733q-23 -81 -32.5 -131t-7.5 -81t15 -42.5t39 -11.5q68 0 169 137.5t185 320t121 328.5l50 195h208l-225 -873q-19 -57 -15 -95t46 -38q44 0 118 57
t136 160l33 -20q-83 -152 -189.5 -236t-199.5 -84q-103 0 -129 75.5t12 223.5l57 242q-136 -280 -246.5 -410.5t-218.5 -130.5q-109 0 -150 99.5t5 265.5zM223 -326q0 54 36 90.5t91 36.5q53 0 89 -36.5t36 -90.5q0 -56 -36 -92.5t-89 -36.5q-56 0 -91.5 36t-35.5 93z" />
    <glyph glyph-name="Ygrave" unicode="&#x1ef2;" horiz-adv-x="1435" 
d="M709 299q-14 -57 -20.5 -92t-5 -65t11.5 -45.5t34 -28.5t55.5 -18.5t83.5 -10.5l-8 -39h-676l9 39q55 5 90 10.5t65.5 18.5t47.5 28.5t34 46t28 65t25 91.5l72 285l-199 665q-32 109 -65 148t-103 51l9 37h573l-8 -37q-111 -12 -153.5 -47t-22.5 -107l176 -592l366 459
q139 174 132 233q-5 42 -87 52l-16 2l8 37h459l-8 -37q-91 -14 -162 -61.5t-158 -159.5l-514 -635zM600 1888h322l104 -264h-43z" />
    <glyph glyph-name="ygrave" unicode="&#x1ef3;" horiz-adv-x="1218" 
d="M395 -104q-136 -201 -242.5 -275t-228.5 -74q-53 0 -137 15l57 227h17q60 -51 153 -51q90 0 158 39.5t133 140.5l51 76l-141 948q-11 74 -27 95t-71 28l6 37h452l-6 -37q-38 -8 -60 -13.5t-39.5 -14.5t-24.5 -16.5t-10.5 -24.5t-2.5 -32t4 -46l94 -676l373 569
q38 57 56.5 91.5t27.5 63t-2 45.5t-34 29.5t-66 24.5l6 37h395l-8 -37q-61 -15 -90.5 -31t-54.5 -45.5t-78 -107.5zM465 1581h237l76 -346h-39z" />
    <glyph glyph-name="endash" unicode="&#x2013;" horiz-adv-x="991" 
d="M924 498h-852l28 135h850z" />
    <glyph glyph-name="emdash" unicode="&#x2014;" horiz-adv-x="1447" 
d="M1386 498h-1316l28 135h1315z" />
    <glyph glyph-name="quoteleft" unicode="&#x2018;" horiz-adv-x="634" 
d="M381 1239q57 -2 97 -39.5t40 -95.5t-40 -97.5t-99 -39.5q-64 0 -100.5 42.5t-36.5 112.5q0 124 104.5 253t241.5 186l14 -23q-92 -55 -156.5 -133t-64.5 -166z" />
    <glyph glyph-name="quoteright" unicode="&#x2019;" horiz-adv-x="634" 
d="M446 1288q-57 2 -98 39t-41 94q0 59 41 99.5t101 40.5q63 0 100 -43.5t37 -112.5q0 -124 -104.5 -252.5t-241.5 -185.5l-15 22q91 55 156 133.5t65 165.5z" />
    <glyph glyph-name="quotesinglbase" unicode="&#x201a;" horiz-adv-x="624" 
d="M270 -27q-62 2 -104.5 42.5t-42.5 103.5q0 62 42.5 105.5t106.5 43.5q68 0 108 -46.5t40 -121.5q0 -137 -124 -284t-300 -219l-14 24q110 64 199 162t89 190z" />
    <glyph glyph-name="quotedblleft" unicode="&#x201c;" horiz-adv-x="1030" 
d="M776 1239q57 -2 97 -39.5t40 -95.5t-39.5 -97.5t-99.5 -39.5q-64 0 -100.5 42.5t-36.5 112.5q0 124 104.5 253t241.5 186l14 -23q-92 -55 -156.5 -133t-64.5 -166zM381 1239q57 -2 97 -39.5t40 -95.5t-40 -97.5t-99 -39.5q-64 0 -100.5 42.5t-36.5 112.5q0 124 104.5 253
t241.5 186l14 -23q-92 -55 -156.5 -133t-64.5 -166z" />
    <glyph glyph-name="quotedblright" unicode="&#x201d;" horiz-adv-x="1030" 
d="M844 1288q-57 2 -98 39t-41 94q0 59 40.5 99.5t100.5 40.5q63 0 100 -43.5t37 -112.5q0 -124 -104.5 -252.5t-241.5 -185.5l-14 22q91 55 156 133.5t65 165.5zM446 1288q-57 2 -98 39t-41 94q0 59 41 99.5t101 40.5q63 0 100 -43.5t37 -112.5q0 -124 -104.5 -252.5
t-241.5 -185.5l-15 22q91 55 156 133.5t65 165.5z" />
    <glyph glyph-name="quotedblbase" unicode="&#x201e;" horiz-adv-x="1073" 
d="M270 -27q-62 2 -104.5 42.5t-42.5 103.5q0 62 42.5 105.5t106.5 43.5q68 0 108 -46.5t40 -121.5q0 -137 -124 -284t-300 -219l-14 24q110 64 199 162t89 190zM719 -27q-62 2 -105 42.5t-43 103.5q0 62 43.5 105.5t106.5 43.5q68 0 107.5 -46.5t39.5 -121.5
q0 -138 -123.5 -284.5t-300.5 -218.5l-14 24q50 29 98.5 67t92.5 84.5t71 99.5t27 101z" />
    <glyph glyph-name="dagger" unicode="&#x2020;" horiz-adv-x="1091" 
d="M635 0h-143v877h-424v135h424v473h143v-473h426v-135h-426v-877z" />
    <glyph glyph-name="daggerdbl" unicode="&#x2021;" horiz-adv-x="1099" 
d="M592 553h424l-37 -137h-426l-100 -416h-144l103 416h-420l31 137h426l86 354h-424l30 137h426l109 441h143l-110 -441h426l-33 -137h-426z" />
    <glyph glyph-name="bullet" unicode="&#x2022;" horiz-adv-x="927" 
d="M473 199q-152 0 -259.5 110.5t-107.5 270.5q0 152 108 260t259 108q162 0 272.5 -107.5t110.5 -260.5q0 -161 -110 -271t-273 -110z" />
    <glyph glyph-name="ellipsis" unicode="&#x2026;" horiz-adv-x="2199" 
d="M1788 -27q-60 0 -104 44t-44 104t44 103.5t104 43.5t103.5 -43.5t43.5 -103.5t-43.5 -104t-103.5 -44zM1055 -27q-60 0 -104 44t-44 104t44 103.5t104 43.5t103.5 -43.5t43.5 -103.5t-43.5 -104t-103.5 -44zM322 -27q-60 0 -104 44t-44 104t44 103.5t104 43.5
t103.5 -43.5t43.5 -103.5t-43.5 -104t-103.5 -44z" />
    <glyph glyph-name="perthousand" unicode="&#x2030;" horiz-adv-x="2887" 
d="M375 676q60 0 117.5 71t95.5 172t61 207.5t23 182.5q0 71 -23.5 113t-73.5 42q-62 0 -119 -69.5t-94 -170.5t-59 -206.5t-22 -183.5q0 -158 94 -158zM125 934q0 98 39.5 201t103 184.5t150 133.5t172.5 52q113 0 175 -84t62 -211q0 -132 -66 -266t-175.5 -221.5
t-223.5 -87.5t-175.5 84.5t-61.5 214.5zM608 0h-155l1040 1485h156zM1612 27q60 0 117.5 70.5t95.5 172t61 207.5t23 182q0 71 -23.5 113.5t-73.5 42.5q-62 0 -119 -70t-94 -170.5t-59 -206.5t-22 -184q0 -157 94 -157zM1362 285q0 98 39.5 201t103 184.5t150 133.5
t172.5 52q113 0 175 -84t62 -211q0 -132 -66 -266t-175.5 -221.5t-223.5 -87.5t-175.5 84.5t-61.5 214.5zM2398 27q60 0 117.5 70.5t95.5 172t61 207.5t23 182q0 156 -96 156q-62 0 -119 -70t-94.5 -170.5t-59.5 -206.5t-22 -184q0 -157 94 -157zM2148 285q0 98 39.5 201
t103 184.5t150 133.5t172.5 52q113 0 175.5 -84t62.5 -211q0 -132 -66 -266t-175.5 -221.5t-223.5 -87.5t-176 85t-62 214z" />
    <glyph glyph-name="guilsinglleft" unicode="&#x2039;" horiz-adv-x="739" 
d="M385 78l-301 481l534 479h107l-397 -479l151 -481h-94z" />
    <glyph glyph-name="guilsinglright" unicode="&#x203a;" horiz-adv-x="741" 
d="M395 1038l297 -479l-528 -481h-111l396 481l-150 479h96z" />
    <glyph glyph-name="fraction" unicode="&#x2044;" horiz-adv-x="528" 
d="M-178 0h-156l1041 1485h155z" />
    <glyph glyph-name="zero.superior" unicode="&#x2070;" horiz-adv-x="786" 
d="M428 924q60 0 117.5 70.5t95.5 172t61 207.5t23 182q0 156 -96 156q-62 0 -119 -70t-94.5 -170.5t-59.5 -206.5t-22 -184q0 -157 94 -157zM178 1182q0 98 39.5 201t103 184.5t150 133.5t172.5 52q113 0 175.5 -84t62.5 -211q0 -132 -66 -266t-175.5 -221.5t-223.5 -87.5
t-176 85t-62 214z" />
    <glyph glyph-name="four.superior" unicode="&#x2074;" horiz-adv-x="708" 
d="M567 897h-157l49 205h-355l23 88l512 543h135l-123 -500h142l-33 -131h-142zM492 1233l94 379l-357 -379h263z" />
    <glyph glyph-name="five.superior" unicode="&#x2075;" horiz-adv-x="651" 
d="M236 1356l227 377h373l-80 -142h-330l-66 -110q159 -22 241.5 -103t82.5 -186q0 -88 -60 -160.5t-150.5 -110.5t-186.5 -38q-109 0 -193 37l53 210h23q0 -92 39.5 -146t107.5 -54q87 0 146 57t59 141q0 35 -14.5 69.5t-45.5 68.5t-89.5 58.5t-136.5 31.5z" />
    <glyph glyph-name="six.superior" unicode="&#x2076;" horiz-adv-x="768" 
d="M821 1251q0 -100 -54 -185.5t-142.5 -134t-188.5 -48.5q-118 0 -187 72.5t-69 201.5q0 78 28 149.5t79 129.5t114 108t140 90.5t149 71t150 55.5l6 -28q-150 -51 -267 -151t-180 -230q95 106 232 106q86 0 138 -56.5t52 -150.5zM537 1378q-89 0 -152 -61
q-45 -102 -45 -225q0 -166 104 -166q85 0 148 92.5t63 204.5q0 26 -5 50.5t-17 49.5t-36.5 40t-59.5 15z" />
    <glyph glyph-name="seven.superior" unicode="&#x2077;" horiz-adv-x="620" 
d="M117 897q26 81 66.5 155.5t94 138t106.5 115.5t124 105t125.5 89.5t130.5 84.5h-535l35 148h580l-37 -148q-104 -84 -177.5 -153t-141 -152.5t-113 -177.5t-74.5 -205h-184z" />
    <glyph glyph-name="eight.superior" unicode="&#x2078;" horiz-adv-x="763" 
d="M154 1083q0 47 23.5 88t63.5 71t82.5 51t90.5 36q-113 94 -113 199q0 102 90.5 163.5t220.5 61.5q105 0 175.5 -45.5t70.5 -122.5q0 -34 -16 -64.5t-38.5 -51.5t-57.5 -41t-62 -31.5t-63 -24.5h2q47 -35 70.5 -54.5t55.5 -52t46 -65.5t14 -70q0 -66 -35 -116.5
t-91.5 -77.5t-119 -40t-127.5 -13q-116 0 -199 55t-83 145zM262 1085q0 -73 46.5 -116t137.5 -43q40 0 76.5 7.5t69 23t51.5 45t19 69.5q0 20 -8 39.5t-17 33t-32.5 35t-36 31.5t-46.5 37l-71 53q-2 0 -7 5q-83 -34 -132.5 -90t-49.5 -130zM754 1583q0 61 -40.5 94
t-105.5 33q-76 0 -125 -31.5t-49 -89.5q0 -45 27.5 -79t83.5 -76l47 -39q78 37 120 80t42 108z" />
    <glyph glyph-name="nine.superior" unicode="&#x2079;" horiz-adv-x="778" 
d="M221 1384q0 152 115.5 261.5t269.5 109.5q118 0 187 -72.5t69 -201.5q0 -93 -41.5 -179.5t-107 -152t-155 -123.5t-176 -97t-179.5 -69l-6 29q150 51 268 157t180 244q-94 -110 -233 -110q-87 0 -139 55.5t-52 148.5zM504 1257q91 0 155 64q43 115 43 223q0 166 -106 166
q-84 0 -146.5 -91.5t-62.5 -203.5q0 -27 5 -52t17 -50t36.5 -40.5t58.5 -15.5z" />
    <glyph glyph-name="plus.superior" unicode="&#x207a;" horiz-adv-x="782" 
d="M575 897h-96v270h-270v90h270v263h96v-263h269v-90h-269v-270z" />
    <glyph glyph-name="minus.superior" unicode="&#x207b;" horiz-adv-x="782" 
d="M217 1257h621v-90h-621v90z" />
    <glyph glyph-name="equal.superior" unicode="&#x207c;" horiz-adv-x="782" 
d="M815 1292h-575v90h575v-90zM815 1055h-575v90h575v-90z" />
    <glyph glyph-name="parenleft.superior" unicode="&#x207d;" horiz-adv-x="360" 
d="M629 1823l10 -21q-84 -76 -152 -192t-107.5 -237t-60 -233.5t-20.5 -201.5q0 -131 10.5 -199.5t38.5 -111.5l-24 -19q-148 201 -148 428q0 233 118 439t335 348z" />
    <glyph glyph-name="parenright.superior" unicode="&#x207e;" horiz-adv-x="389" 
d="M31 608l-13 21q85 76 153 192t107 237.5t59.5 234t20.5 200.5q0 132 -10.5 201t-38.5 110l25 19q63 -82 105 -191.5t42 -234.5q0 -235 -116.5 -441t-333.5 -348z" />
    <glyph glyph-name="n.superior" unicode="&#x207f;" horiz-adv-x="714" 
d="M471 1528l-68 -268q62 135 115.5 201.5t120.5 66.5q70 0 98 -58.5t-4 -181.5l-76 -258q-21 -76 19 -76q35 0 76.5 34.5t74.5 88.5l17 -14q-47 -88 -112 -134t-126 -46q-69 0 -93.5 46.5t1.5 147.5l61 213q41 146 -10 146q-44 0 -117.5 -142.5t-109.5 -289.5l-27 -107
h-151l100 408q21 78 10.5 100t-71.5 25l4 18z" />
    <glyph glyph-name="zero.inferior" unicode="&#x2080;" horiz-adv-x="786" 
d="M201 -238q60 0 117.5 71t95.5 172t61 207.5t23 182.5q0 71 -23.5 113.5t-73.5 42.5q-62 0 -119 -70t-94.5 -170.5t-59.5 -206.5t-22 -184q0 -158 95 -158zM-49 20q0 98 39.5 201.5t103 184.5t150 133.5t172.5 52.5q113 0 175 -84t62 -211q0 -99 -40 -203t-103.5 -186
t-149.5 -134.5t-172 -52.5q-114 0 -175.5 84.5t-61.5 214.5z" />
    <glyph glyph-name="one.inferior" unicode="&#x2081;" horiz-adv-x="595" 
d="M399 586l-170 -682q-25 -87 -13 -112.5t93 -35.5l-6 -20h-409l6 22q43 3 66.5 8t41.5 12t29 26t17.5 38.5t17.5 61.5l135 540h-158l6 25q205 21 318 117h26z" />
    <glyph glyph-name="two.inferior" unicode="&#x2082;" horiz-adv-x="649" 
d="M-211 -264l6 14q181 130 301 231t178.5 171.5t79.5 117t21 90.5q0 62 -38 94.5t-95 32.5q-71 0 -124.5 -32.5t-78.5 -100.5h-35q27 107 119.5 172.5t210.5 65.5q85 0 149 -46t64 -122q0 -36 -5 -59t-20 -53t-49.5 -65.5t-88 -83.5t-140.5 -120q-11 -9 -211 -164h403
l-37 -143h-610z" />
    <glyph glyph-name="three.inferior" unicode="&#x2083;" horiz-adv-x="686" 
d="M78 -279q-107 0 -191 39l56 215h20q0 -96 43 -151t107 -55q85 0 149 60.5t64 137.5q0 32 -6.5 57.5t-24 52t-54.5 45t-91 25.5l8 27l28 10q85 35 144 94.5t59 118.5q0 90 -123 90q-65 0 -119.5 -34t-76.5 -99h-37q30 107 123 172.5t204 65.5q84 0 142.5 -40t58.5 -99
q0 -122 -229 -215l-2 -5q69 -23 115.5 -78.5t46.5 -125.5q0 -66 -37.5 -125t-97 -98.5t-133 -62t-146.5 -22.5z" />
    <glyph glyph-name="four.inferior" unicode="&#x2084;" horiz-adv-x="708" 
d="M340 -264h-158l49 205h-354l23 88l512 542h135l-123 -499h141l-33 -131h-141zM264 72l94 379l-356 -379h262z" />
    <glyph glyph-name="five.inferior" unicode="&#x2085;" horiz-adv-x="651" 
d="M8 195l228 376h372l-80 -141h-329l-66 -111q159 -22 241.5 -102.5t82.5 -185.5q0 -67 -35.5 -126t-92.5 -98.5t-128 -62.5t-142 -23q-108 0 -192 37l53 211h23q0 -92 39.5 -146t107.5 -54q87 0 146 57t59 141q0 35 -14.5 69.5t-46 68.5t-90 58.5t-136.5 31.5z" />
    <glyph glyph-name="six.inferior" unicode="&#x2086;" horiz-adv-x="768" 
d="M594 90q0 -100 -54 -185.5t-142.5 -134.5t-188.5 -49q-118 0 -187 73t-69 202q0 93 41.5 177.5t106.5 147.5t155 118.5t175.5 92.5t180.5 68l6 -29q-149 -51 -266 -151t-180 -230q96 107 231 107q86 0 138.5 -56.5t52.5 -150.5zM309 217q-88 0 -151 -61
q-45 -102 -45 -226q0 -166 104 -166q85 0 148 92.5t63 204.5q0 26 -5 50.5t-17.5 49.5t-37 40.5t-59.5 15.5z" />
    <glyph glyph-name="seven.inferior" unicode="&#x2087;" horiz-adv-x="620" 
d="M-111 -264q26 81 66.5 155.5t94.5 138t106.5 115.5t124 105t125.5 89.5t131 84.5h-535l35 147h579l-36 -147q-104 -84 -177.5 -153t-141 -152.5t-113 -177.5t-74.5 -205h-185z" />
    <glyph glyph-name="eight.inferior" unicode="&#x2088;" horiz-adv-x="763" 
d="M-74 -78q0 47 23.5 88t63.5 71t82.5 51t90.5 36q-112 94 -112 199q0 102 90.5 163.5t220.5 61.5q105 0 175.5 -45.5t70.5 -122.5q0 -42 -22 -77.5t-62 -61.5t-74 -42t-80 -32h2q48 -36 71 -54.5t55.5 -51.5t46.5 -66t14 -70q0 -66 -35 -116.5t-91.5 -78t-119 -40.5
t-127.5 -13q-116 0 -199.5 55.5t-83.5 145.5zM35 -76q0 -73 46.5 -116.5t137.5 -43.5q55 0 101 12.5t80 47t34 86.5q0 32 -21 64t-43.5 51.5t-74.5 60.5l-72 53q-2 0 -6 4q-83 -34 -132.5 -89.5t-49.5 -129.5zM526 422q0 61 -40 94t-105 33q-76 0 -125 -31.5t-49 -89.5
q0 -45 27.5 -80t82.5 -76l48 -39q78 36 119.5 80t41.5 109z" />
    <glyph glyph-name="nine.inferior" unicode="&#x2089;" horiz-adv-x="778" 
d="M-6 223q0 152 115.5 261.5t269.5 109.5q118 0 187 -73t69 -202q0 -93 -41.5 -179.5t-107.5 -152t-155.5 -123t-176 -96.5t-179.5 -69l-6 29q150 51 268.5 157.5t180.5 243.5q-95 -111 -234 -111q-86 0 -138 55.5t-52 149.5zM276 96q92 0 156 64q43 115 43 223
q0 166 -106 166q-84 0 -146.5 -91.5t-62.5 -203.5q0 -27 5 -52t16.5 -50t36 -40.5t58.5 -15.5z" />
    <glyph glyph-name="parenleft.inferior" unicode="&#x208d;" horiz-adv-x="360" 
d="M401 662l11 -21q-84 -76 -152 -192t-107.5 -237t-60 -233.5t-20.5 -201.5q0 -131 10.5 -200.5t38.5 -111.5l-25 -18q-147 200 -147 428q0 233 117.5 439t334.5 348z" />
    <glyph glyph-name="parenright.inferior" unicode="&#x208e;" horiz-adv-x="389" 
d="M-197 -553l-12 21q85 76 153 192t107 237.5t59.5 234t20.5 200.5q0 132 -10.5 201t-38.5 110l24 19q64 -82 106 -192t42 -234q0 -235 -117 -441t-334 -348z" />
    <glyph glyph-name="Euro" unicode="&#x20ac;" horiz-adv-x="1617" 
d="M762 545h-297q3 -107 28.5 -196.5t71.5 -157.5t118 -106t163 -38q168 0 288 105.5t154 310.5h201q-27 -98 -78 -179.5t-116 -138.5t-143 -96t-158.5 -57.5t-162.5 -18.5q-263 0 -416.5 156.5t-164.5 415.5h-270l106 127h166q9 88 31 182h-238l107 125h170
q95 244 290 392.5t447 148.5q244 0 388 -133.5t146 -356.5h-200q6 199 -73 307.5t-265 108.5q-97 0 -181.5 -36.5t-149 -101.5t-113 -147.5t-81.5 -181.5h576l-109 -125h-501q-21 -91 -27 -182h405z" />
    <glyph glyph-name="afii61289" unicode="&#x2113;" horiz-adv-x="831" 
d="M254 289v157l-168 -127l-68 99l236 180v532q0 194 63.5 287.5t210.5 93.5q124 0 189 -87t65 -232q0 -342 -372 -627l-27 -20v-256q0 -110 29 -155.5t108 -45.5q107 0 191 84l69 -88q-59 -54 -122.5 -82.5t-147.5 -28.5q-144 0 -200 76t-56 240zM383 1128v-432l41 33
q111 85 168 206t57 251q0 211 -135 211q-72 0 -101.5 -60.5t-29.5 -208.5z" />
    <glyph glyph-name="afii61352" unicode="&#x2116;" horiz-adv-x="2363" 
d="M1217 322l215 864q26 107 26 151q0 56 -35.5 79t-128.5 36l6 33h502l-6 -33q-75 -10 -114 -21.5t-70.5 -42.5t-48.5 -74t-39 -128l-299 -1206h-82l-629 1177l-213 -858q-25 -103 -25 -152q0 -56 35 -78.5t129 -35.5l-10 -33h-498l9 33q49 7 79.5 13.5t58.5 20t44.5 29.5
t32.5 46t26.5 65.5t24.5 91.5l244 975v2q-40 77 -66 116t-61 60l6 33h266zM1829 1159q0 154 106.5 266.5t249.5 112.5q100 0 165 -68.5t65 -179.5q0 -156 -107 -269.5t-250 -113.5q-100 0 -164.5 69.5t-64.5 182.5zM2251 1356q0 65 -19.5 104t-58.5 39q-44 0 -79.5 -39
t-57 -100.5t-32.5 -130t-11 -135.5q0 -146 78 -146q58 0 100.5 67.5t61 158t18.5 182.5zM2310 725h-581l28 111h582z" />
    <glyph glyph-name="uni2117" unicode="&#x2117;" horiz-adv-x="1714" 
d="M877 -27q-213 0 -388.5 95.5t-279 272t-103.5 398.5q0 223 103.5 400t279 273.5t388.5 96.5q157 0 297.5 -57t243.5 -157t163.5 -244.5t60.5 -311.5t-60.5 -311t-163.5 -243t-243.5 -155.5t-297.5 -56.5zM877 1391q-178 0 -323.5 -81t-230.5 -231t-85 -340
q0 -189 85 -338t230.5 -230t323.5 -81q134 0 251 47.5t201.5 132t133 206t48.5 263.5q0 191 -83.5 340.5t-227.5 230.5t-323 81zM922 676h-172v-318h-129v813h245q77 0 131.5 -5.5t104.5 -21t80 -42t47.5 -70.5t17.5 -106q0 -107 -82.5 -178.5t-242.5 -71.5zM918 795
q101 0 147.5 31.5t46.5 97.5q0 70 -53 97.5t-150 27.5h-159v-254h168z" />
    <glyph glyph-name="trademark" unicode="&#x2122;" horiz-adv-x="1761" 
d="M322 653v707h-267v125h668v-125h-268v-707h-133zM1343 653h-149l-252 697v-697h-131v832h227l236 -672l225 672h227v-832h-133v697z" />
    <glyph glyph-name="estimated" unicode="&#x212e;" horiz-adv-x="1206" 
d="M1053 307h84q-55 -150 -181.5 -242t-320.5 -92q-135 0 -243 44.5t-176.5 123t-105 182.5t-36.5 226q0 253 151.5 412t399.5 159q127 0 230 -46t169.5 -124.5t102.5 -180.5t38 -218h-852v-395q48 -50 141.5 -81.5t196.5 -31.5q145 0 247.5 69t154.5 195zM313 944v-328h611
v326q-49 48 -128 78.5t-173 30.5q-206 0 -310 -107z" />
    <glyph glyph-name="onethird" unicode="&#x2153;" horiz-adv-x="1810" 
d="M573 1499l-170 -682q-25 -87 -13 -112t93 -35l-6 -21h-409l6 23q70 5 99 17t42.5 36.5t30.5 91.5l135 541h-158l6 24q205 21 318 117h26zM418 0h-156l1041 1485h155zM1298 -14q-106 0 -190 39l55 215h21q0 -96 42.5 -151.5t106.5 -55.5q85 0 149 60.5t64 137.5
q0 158 -176 181l8 26l29 11q85 35 144 94.5t59 118.5q0 90 -123 90q-65 0 -120 -34.5t-77 -99.5h-37q30 107 123.5 172.5t204.5 65.5q84 0 142.5 -40t58.5 -99q0 -122 -230 -215l-2 -4q69 -23 115.5 -79t46.5 -126q0 -88 -63.5 -160t-158 -109.5t-192.5 -37.5z" />
    <glyph glyph-name="twothirds" unicode="&#x2154;" horiz-adv-x="1863" 
d="M-37 649l6 15q181 130 301 231t178.5 171.5t79.5 117t21 90.5q0 62 -38 94.5t-95 32.5q-71 0 -124.5 -32.5t-78.5 -100.5h-35q27 107 119 172t211 65q85 0 149 -46t64 -122q0 -36 -5 -59t-20 -53t-49.5 -65.5t-88 -83.5t-140.5 -120q-41 -34 -71 -56.5t-66.5 -50
t-73.5 -56.5h403l-37 -144h-610zM471 0h-156l1041 1485h155zM1352 -14q-107 0 -191 39l56 215h20q0 -96 42.5 -151.5t106.5 -55.5q85 0 149 60.5t64 137.5q0 158 -176 181l9 26l28 11q85 35 144 94.5t59 118.5q0 90 -123 90q-65 0 -120 -34.5t-77 -99.5h-36
q30 107 123 172.5t204 65.5q84 0 142.5 -40t58.5 -99q0 -122 -229 -215l-2 -4q69 -23 115 -79t46 -126q0 -88 -63.5 -160t-157.5 -109.5t-192 -37.5z" />
    <glyph glyph-name="uni2155" unicode="&#x2155;" horiz-adv-x="1775" 
d="M573 1499l-170 -682q-25 -87 -13 -112t93 -35l-6 -21h-409l6 23q70 5 99 17t42.5 36.5t30.5 91.5l135 541h-158l6 24q205 21 318 117h26zM418 0h-156l1041 1485h155zM1229 459l227 377h373l-80 -142h-330l-65 -110q159 -22 241 -103t82 -186q0 -88 -60 -160.5
t-150.5 -110.5t-186.5 -38q-109 0 -193 37l54 210h22q0 -92 40 -146t108 -54q87 0 146 57t59 141q0 35 -14.5 69.5t-46 68.5t-90 58.5t-136.5 31.5z" />
    <glyph glyph-name="uni2156" unicode="&#x2156;" horiz-adv-x="1828" 
d="M-37 649l6 15q181 130 301 231t178.5 171.5t79.5 117t21 90.5q0 62 -38 94.5t-95 32.5q-71 0 -124.5 -32.5t-78.5 -100.5h-35q27 107 119 172t211 65q85 0 149 -46t64 -122q0 -36 -5 -59t-20 -53t-49.5 -65.5t-88 -83.5t-140.5 -120q-41 -34 -71 -56.5t-66.5 -50
t-73.5 -56.5h403l-37 -144h-610zM471 0h-156l1041 1485h155zM1282 459l227 377h373l-80 -142h-329l-66 -110q159 -22 241.5 -103t82.5 -186q0 -88 -60.5 -160.5t-151 -110.5t-186.5 -38q-108 0 -192 37l53 210h23q0 -92 39.5 -146t107.5 -54q87 0 146 57t59 141
q0 35 -14.5 69.5t-46 68.5t-90 58.5t-136.5 31.5z" />
    <glyph glyph-name="uni2157" unicode="&#x2157;" horiz-adv-x="1865" 
d="M252 635q-107 0 -191 39l56 215h20q0 -96 43 -151.5t107 -55.5q85 0 149 61t64 138q0 32 -6.5 57.5t-24 52t-54.5 45t-91 25.5l8 26l28 11q85 35 144 94.5t59 118.5q0 90 -123 90q-65 0 -119.5 -34t-76.5 -99h-37q30 106 123.5 171.5t204.5 65.5q84 0 142 -39.5t58 -99.5
q0 -122 -229 -215l-2 -4q69 -23 115.5 -79t46.5 -126q0 -88 -63.5 -160t-158 -109.5t-192.5 -37.5zM508 0h-156l1041 1485h155zM1319 459l227 377h373l-80 -142h-330l-65 -110q159 -22 241 -103t82 -186q0 -88 -60 -160.5t-150.5 -110.5t-186.5 -38q-108 0 -192 37l53 210
h22q0 -92 40 -146t108 -54q87 0 146 57t59 141q0 35 -14.5 69.5t-46 68.5t-90 58.5t-136.5 31.5z" />
    <glyph glyph-name="uni2158" unicode="&#x2158;" horiz-adv-x="1888" 
d="M514 649h-158l50 205h-355l23 88l512 543h135l-123 -500h141l-32 -131h-142zM438 985l94 379l-356 -379h262zM530 0h-155l1040 1485h156zM1341 459l228 377h373l-80 -142h-330l-66 -110q159 -22 241.5 -103t82.5 -186q0 -88 -60 -160.5t-150.5 -110.5t-186.5 -38
q-109 0 -193 37l53 210h23q0 -92 39.5 -146t107.5 -54q87 0 146 57t59 141q0 35 -14.5 69.5t-46 68.5t-90 58.5t-136.5 31.5z" />
    <glyph glyph-name="uni2159" unicode="&#x2159;" horiz-adv-x="1892" 
d="M573 1499l-170 -682q-25 -87 -13 -112t93 -35l-6 -21h-409l6 23q70 5 99 17t42.5 36.5t30.5 91.5l135 541h-158l6 24q205 21 318 117h26zM418 0h-156l1041 1485h155zM1815 354q0 -100 -54 -185.5t-142.5 -134t-188.5 -48.5q-118 0 -187 72.5t-69 201.5q0 93 41.5 177.5
t106.5 147.5t155 118.5t175.5 92.5t180.5 68l6 -28q-149 -51 -266 -151t-180 -230q95 106 231 106q86 0 138.5 -56.5t52.5 -150.5zM1530 481q-89 0 -152 -61q-45 -102 -45 -225q0 -166 105 -166q85 0 148 92.5t63 204.5q0 26 -5 50.5t-17.5 49.5t-37 40t-59.5 15z" />
    <glyph glyph-name="uni215A" unicode="&#x215a;" horiz-adv-x="1947" 
d="M182 1108l228 377h372l-80 -142h-329l-66 -110q159 -22 241.5 -103t82.5 -186q0 -88 -60.5 -160.5t-151 -110.5t-186.5 -38q-108 0 -192 37l53 211h23q0 -92 40 -146.5t107 -54.5q86 0 145.5 57t59.5 142q0 35 -14.5 69.5t-46 68.5t-90 58t-136.5 31zM473 0h-156
l1041 1485h155zM1870 354q0 -100 -54 -185.5t-142.5 -134t-188.5 -48.5q-118 0 -187 72.5t-69 201.5q0 93 41.5 177.5t106.5 147.5t155 118.5t175.5 92.5t180.5 68l6 -28q-149 -51 -266 -151t-180 -230q95 106 231 106q86 0 138.5 -56.5t52.5 -150.5zM1585 481
q-88 0 -151 -61q-45 -102 -45 -225q0 -166 104 -166q85 0 148 92.5t63 204.5q0 26 -5 50.5t-17.5 49.5t-37 40t-59.5 15z" />
    <glyph glyph-name="oneeighth" unicode="&#x215b;" horiz-adv-x="1888" 
d="M573 1499l-170 -682q-25 -87 -13 -112t93 -35l-6 -21h-409l6 23q70 5 99 17t42.5 36.5t30.5 91.5l135 541h-158l6 24q205 21 318 117h26zM418 0h-156l1041 1485h155zM1147 186q0 47 23.5 88t63.5 71t82.5 51t90.5 36q-113 94 -113 199q0 102 91 163.5t221 61.5
q105 0 175 -45.5t70 -122.5q0 -34 -16 -64.5t-38.5 -51.5t-57.5 -41t-62 -31.5t-63 -24.5h2q47 -35 70.5 -54.5t55.5 -52t46 -65.5t14 -70q0 -54 -23.5 -97t-60.5 -70.5t-87 -46t-100 -26t-101 -7.5q-116 0 -199.5 55t-83.5 145zM1255 188q0 -73 47 -116t138 -43
q55 0 101 12.5t80 46.5t34 86q0 32 -21 64t-43.5 51.5t-74.5 60.5l-72 53q-1 0 -6 5q-83 -35 -133 -90.5t-50 -129.5zM1747 686q0 61 -40 94t-105 33q-76 0 -125.5 -31.5t-49.5 -89.5q0 -45 27.5 -79t83.5 -76l47 -39q78 37 120 80t42 108z" />
    <glyph glyph-name="threeeighths" unicode="&#x215c;" horiz-adv-x="1978" 
d="M252 635q-107 0 -191 39l56 215h20q0 -96 43 -151.5t107 -55.5q85 0 149 61t64 138q0 32 -6.5 57.5t-24 52t-54.5 45t-91 25.5l8 26l28 11q85 35 144 94.5t59 118.5q0 90 -123 90q-65 0 -119.5 -34t-76.5 -99h-37q30 106 123.5 171.5t204.5 65.5q84 0 142 -39.5t58 -99.5
q0 -122 -229 -215l-2 -4q69 -23 115.5 -79t46.5 -126q0 -88 -63.5 -160t-158 -109.5t-192.5 -37.5zM508 0h-156l1041 1485h155zM1237 186q0 47 23.5 88t63.5 71t82.5 51t90.5 36q-113 94 -113 199q0 102 91 163.5t221 61.5q105 0 175.5 -45.5t70.5 -122.5q0 -42 -22 -77.5
t-62 -61.5t-74 -42t-80 -32h2q47 -35 70.5 -54.5t55.5 -52t46 -65.5t14 -70q0 -54 -23.5 -97t-60.5 -70.5t-87 -46t-100 -26t-101 -7.5q-116 0 -199.5 55t-83.5 145zM1346 188q0 -73 46.5 -116t137.5 -43q55 0 101 12.5t80 46.5t34 86q0 32 -21 64t-43.5 51.5t-74.5 60.5
l-72 53q-1 0 -6 5q-83 -34 -132.5 -90t-49.5 -130zM1837 686q0 61 -40 94t-105 33q-76 0 -125 -31.5t-49 -89.5q0 -45 27 -79.5t83 -75.5l47 -39q78 37 120 80t42 108z" />
    <glyph glyph-name="fiveeighths" unicode="&#x215d;" horiz-adv-x="1943" 
d="M182 1108l228 377h372l-80 -142h-329l-66 -110q159 -22 241.5 -103t82.5 -186q0 -88 -60.5 -160.5t-151 -110.5t-186.5 -38q-108 0 -192 37l53 211h23q0 -92 40 -146.5t107 -54.5q86 0 145.5 57t59.5 142q0 35 -14.5 69.5t-46 68.5t-90 58t-136.5 31zM473 0h-156
l1041 1485h155zM1202 186q0 47 23.5 88t63.5 71t82.5 51t90.5 36q-112 94 -112 199q0 102 90.5 163.5t220.5 61.5q105 0 175.5 -45.5t70.5 -122.5q0 -42 -22 -77.5t-62 -61.5t-74 -42t-80 -32h2q48 -36 71 -54.5t55.5 -51.5t46.5 -66t14 -70q0 -66 -35 -116.5t-91.5 -77.5
t-119 -40t-127.5 -13q-116 0 -199.5 55t-83.5 145zM1311 188q0 -73 46.5 -116t137.5 -43q55 0 101 12.5t80 46.5t34 86q0 32 -21 64t-43.5 51.5t-74.5 60.5l-72 53q-1 0 -6 5q-83 -34 -132.5 -90t-49.5 -130zM1802 686q0 61 -40 94t-105 33q-76 0 -125 -31.5t-49 -89.5
q0 -45 27 -79.5t83 -75.5l47 -39q78 37 120 80t42 108z" />
    <glyph glyph-name="seveneighths" unicode="&#x215e;" horiz-adv-x="1912" 
d="M63 649q26 81 66.5 155.5t94.5 138t106.5 115.5t124 105t125.5 89.5t131 84.5h-535l35 148h580l-37 -148q-104 -84 -177.5 -153t-141 -152.5t-113 -177.5t-74.5 -205h-185zM442 0h-155l1040 1485h156zM1171 186q0 47 23.5 88t64 71t83 51t90.5 36q-113 94 -113 199
q0 102 90.5 163.5t220.5 61.5q105 0 175.5 -45.5t70.5 -122.5q0 -42 -22 -77.5t-62 -61.5t-74 -42t-80 -32h2q48 -36 71 -54.5t55.5 -51.5t46.5 -66t14 -70q0 -66 -35 -116.5t-91.5 -77.5t-119 -40t-127.5 -13q-116 0 -199.5 55t-83.5 145zM1280 188q0 -73 46.5 -116
t137.5 -43q55 0 101 12.5t80 46.5t34 86q0 32 -21 64t-43.5 51.5t-74.5 60.5l-72 53q-1 0 -6 5q-83 -34 -132.5 -90t-49.5 -130zM1772 686q0 61 -40.5 94t-105.5 33q-76 0 -125 -31.5t-49 -89.5q0 -45 27.5 -79t83.5 -76l47 -39q78 37 120 80t42 108z" />
    <glyph glyph-name="uni215F" unicode="&#x215f;" horiz-adv-x="1124" 
d="M573 1499l-170 -682q-25 -87 -13 -112t93 -35l-6 -21h-409l6 23q70 5 99 17t42.5 36.5t30.5 91.5l135 541h-158l6 24q205 21 318 117h26zM418 0h-156l1041 1485h155z" />
    <glyph glyph-name="uni2190" unicode="&#x2190;" horiz-adv-x="1638" 
d="M41 545l631 631l82 -93l-478 -469h1301v-127h-1313l490 -481l-82 -92z" />
    <glyph glyph-name="uni2191" unicode="&#x2191;" horiz-adv-x="1638" 
d="M817 1518l631 -631l-92 -82l-475 481v-1286h-125v1288l-477 -483l-91 82z" />
    <glyph glyph-name="uni2192" unicode="&#x2192;" horiz-adv-x="1638" 
d="M967 1176l630 -631l-630 -631l-86 92l489 481h-1309v127h1297l-477 469z" />
    <glyph glyph-name="uni2193" unicode="&#x2193;" horiz-adv-x="1638" 
d="M819 -33l-629 629l91 86l477 -485v1288h125v-1286l475 483l92 -86z" />
    <glyph glyph-name="uni2196" unicode="&#x2196;" horiz-adv-x="1638" 
d="M270 209v893h893v-119h-682l967 -971l-88 -90l-971 969v-682h-119z" />
    <glyph glyph-name="uni2197" unicode="&#x2197;" horiz-adv-x="1638" 
d="M1368 1102v-893h-115v682l-972 -969l-91 90l971 971h-682v119h889z" />
    <glyph glyph-name="uni2198" unicode="&#x2198;" horiz-adv-x="1638" 
d="M1409 891v-891h-889v119h682l-971 971l91 88l972 -967v680h115z" />
    <glyph glyph-name="uni2199" unicode="&#x2199;" horiz-adv-x="1638" 
d="M231 0v891h119v-680l971 967l88 -88l-967 -971h682v-119h-893z" />
    <glyph glyph-name="uni219E" unicode="&#x219e;" horiz-adv-x="1638" 
d="M20 559l631 631l82 -92l-477 -469h344l561 561l82 -92l-477 -469h852v-127h-864l489 -482l-82 -92l-573 574h-344l489 -482l-82 -92z" />
    <glyph glyph-name="uni219F" unicode="&#x219f;" horiz-adv-x="1638" 
d="M817 1518l631 -631l-92 -82l-475 481v-342q237 -242 567 -565l-92 -86l-475 483v-776h-125v778l-477 -485l-91 86l568 567v342l-477 -483l-91 82z" />
    <glyph glyph-name="uni21A0" unicode="&#x21a0;" horiz-adv-x="1638" 
d="M987 1190l631 -631l-631 -631l-86 92l490 482h-340l-574 -574l-84 92l488 482h-861v127h848l-475 469l84 92l561 -561h340l-477 469z" />
    <glyph glyph-name="uni21A1" unicode="&#x21a1;" horiz-adv-x="1638" 
d="M1448 594l-631 -629l-629 629l91 86l477 -485v342l-568 567l91 86l477 -485v780h125v-778l475 483l92 -86l-567 -565v-342l475 483z" />
    <glyph glyph-name="uni21A2" unicode="&#x21a2;" horiz-adv-x="1638" 
d="M31 545l631 631l83 -93l-479 -469h692l566 562l84 -93l-539 -538l539 -539l-84 -92l-576 573h-694l491 -481l-83 -92z" />
    <glyph glyph-name="uni21A3" unicode="&#x21a3;" horiz-adv-x="1638" 
d="M1608 545l-631 -631l-82 92l487 481h-692l-575 -573l-84 92l538 539l-538 538l84 93l565 -562h690l-475 469l82 93z" />
    <glyph glyph-name="uni21A4" unicode="&#x21a4;" horiz-adv-x="1638" 
d="M1427 1102h142v-1102h-142v487h-1132l489 -481l-82 -92l-630 631l630 631l82 -93l-477 -469h1120v488z" />
    <glyph glyph-name="uni21A5" unicode="&#x21a5;" horiz-adv-x="1638" 
d="M819 1518l631 -631l-92 -82l-475 481v-1161h473v-125h-1096v125h498v1163l-477 -483l-91 82z" />
    <glyph glyph-name="uni21A6" unicode="&#x21a6;" horiz-adv-x="1638" 
d="M207 487v-487h-139v1102h139v-488h1116l-477 469l86 93l631 -631l-631 -631l-86 92l489 481h-1128z" />
    <glyph glyph-name="uni21A7" unicode="&#x21a7;" horiz-adv-x="1638" 
d="M866 -35l-628 629l90 86l477 -485v1165h-498v125h1096v-125h-473v-1163l475 483l92 -86z" />
    <glyph glyph-name="uni21B0" unicode="&#x21b0;" horiz-adv-x="1638" 
d="M41 545l631 631l82 -93l-478 -469h1219v-1056h-125v929h-1106l490 -481l-82 -92z" />
    <glyph glyph-name="uni21B1" unicode="&#x21b1;" horiz-adv-x="1638" 
d="M967 1176l630 -631l-630 -631l-86 92l489 481h-1143v-929h-125v1056h1256l-477 469z" />
    <glyph glyph-name="uni21B2" unicode="&#x21b2;" horiz-adv-x="1638" 
d="M1411 1485h125v-998h-1272l490 -481l-82 -92l-631 631l631 631l82 -93l-478 -469h1135v871z" />
    <glyph glyph-name="uni21B3" unicode="&#x21b3;" horiz-adv-x="1638" 
d="M102 487v998h125v-871h1131l-477 469l86 93l630 -631l-630 -631l-86 92l489 481h-1268z" />
    <glyph glyph-name="partialdiff" unicode="&#x2202;" horiz-adv-x="1134" 
d="M240 545q0 -209 89.5 -328t245.5 -119q68 0 129.5 27t111.5 80t80 140.5t30 199.5t-29.5 199.5t-79.5 139.5t-111.5 78.5t-130.5 26.5q-154 0 -244.5 -118.5t-90.5 -325.5zM567 1114q102 0 188 -41t134 -110l2 2q-57 170 -215.5 286t-347.5 127v138q341 -25 546 -266
t205 -619q0 -167 -38 -294.5t-106 -206t-159 -118t-201 -39.5q-221 0 -353 153t-132 419q0 262 133 415.5t344 153.5z" />
    <glyph glyph-name="product" unicode="&#x220f;" horiz-adv-x="1376" 
d="M315 -387h-143v1872h1069v-1872h-145v1737h-781v-1737z" />
    <glyph glyph-name="summation" unicode="&#x2211;" horiz-adv-x="1187" 
d="M68 -260l591 809l-591 809v127h1087v-135h-917l589 -801l-589 -801h917v-135h-1087v127z" />
    <glyph glyph-name="minus" unicode="&#x2212;" 
d="M137 631h1065v-135h-1065v135z" />
    <glyph glyph-name="radical" unicode="&#x221a;" horiz-adv-x="1048" 
d="M18 459l277 125l340 -789l287 1690h141l-322 -1872h-178l-342 778l-143 -65z" />
    <glyph glyph-name="infinity" unicode="&#x221e;" horiz-adv-x="1609" 
d="M1581 518q0 -151 -94 -240.5t-250 -89.5q-215 0 -418 232q-96 -111 -193 -171.5t-208 -60.5q-161 0 -258 89.5t-97 240.5q0 153 98 243.5t259 90.5q212 0 403 -225q104 119 199 172t203 53q159 0 257.5 -91.5t98.5 -242.5zM410 735q-88 0 -147.5 -58.5t-59.5 -158.5
q0 -91 61 -153t156 -62q85 0 160.5 57.5t158.5 159.5q-91 110 -168 162.5t-161 52.5zM1235 303q87 0 147 60t60 155q0 92 -62.5 154.5t-160.5 62.5q-81 0 -153 -50.5t-161 -158.5q94 -119 169.5 -171t160.5 -52z" />
    <glyph glyph-name="integral" unicode="&#x222b;" horiz-adv-x="552" 
d="M229 299v717q0 136 19 231.5t56 151t86 80t114 24.5q67 0 108 -31t41 -86q0 -40 -23 -66t-61 -26q-36 0 -58 22t-22 52q0 38 23 64q-85 0 -116 -69t-31 -216q0 -57 2 -170t2 -176v-723q0 -133 -18.5 -226.5t-55.5 -148t-86 -78.5t-115 -24q-67 0 -108 29.5t-41 84.5
q0 41 25.5 66.5t62.5 25.5q36 0 57 -21t21 -54q0 -30 -23 -64q84 0 114.5 70t30.5 217q0 57 -2 169t-2 175z" />
    <glyph glyph-name="approxequal" unicode="&#x2248;" 
d="M1196 909q-9 -132 -85.5 -204t-199.5 -72q-57 0 -125 23.5t-120.5 51t-114.5 51t-109 23.5q-60 0 -99.5 -38.5t-43.5 -110.5h-143q7 132 84.5 204t201.5 72q66 0 138.5 -23.5t123.5 -51t108.5 -51t98.5 -23.5q60 0 100 38.5t44 110.5h141zM1196 535q-9 -133 -86 -207
t-199 -74q-57 0 -125 24t-120.5 52t-114.5 52t-109 24q-60 0 -99.5 -38.5t-43.5 -113.5h-143q7 134 84.5 207.5t201.5 73.5q66 0 138.5 -23.5t123.5 -51.5t108.5 -51.5t98.5 -23.5q60 0 100 38.5t44 111.5h141z" />
    <glyph glyph-name="notequal" unicode="&#x2260;" 
d="M932 1143l125 -68l-647 -1124l-125 65zM1163 715h-989v135h989v-135zM1163 291h-989v137h989v-137z" />
    <glyph glyph-name="lessequal" unicode="&#x2264;" 
d="M246 682l934 -291v-147l-1121 372v132l1121 372v-147zM57 0v135h1125v-135h-1125z" />
    <glyph glyph-name="greaterequal" unicode="&#x2265;" 
d="M1040 682l-934 291v147l1121 -372v-132l-1121 -372v147zM1229 0h-1125v135h1125v-135z" />
    <glyph glyph-name="uni25A0" unicode="&#x25a0;" horiz-adv-x="1638" 
d="M272 0v1102h1096v-1102h-1096z" />
    </font>
</defs>
</svg>
