<?xml version="1.0" encoding="UTF-8"?><svg xmlns="http://www.w3.org/2000/svg" viewBox="0 0 547.04 322.83"><g isolation="isolate"><g id="a"><polygon points="433.14 5.53 540.23 5.53 540.23 308.67 356.49 308.67 339.85 308.67 292.87 308.67 252.31 308.67 180.31 308.67 177.82 308.67 161.01 308.67 113.16 308.67 113.16 316.18 8.24 310.39 8.24 254.93 8.24 190.65 8.24 5.53 252.31 5.53 367.89 5.53 433.14 5.53" fill="#e4bcb1"/></g><g id="b"><polyline points="252.31 272.52 252.31 268.54 252.31 264.84 252.31 261.14 252.31 253.73 252.31 246.33 252.31 242.68 292.87 242.68 356.49 242.68 356.49 308.67" fill="none" stroke="#dadada" stroke-miterlimit="10" stroke-width="6"/><polyline points="213.05 166.41 252.31 166.41 252.31 181.89 252.31 216.71 252.31 224.12 252.31 231.52 252.31 238.93 252.31 242.68 252.31 246.33 252.31 253.73 252.31 261.14 252.31 264.84 252.31 268.54 252.31 272.52" fill="none" stroke="#dadada" stroke-miterlimit="10" stroke-width="6"/><polyline points="128.71 272.52 128.71 254.93 128.71 216.71 177.82 216.71" fill="none" stroke="#dadada" stroke-miterlimit="10" stroke-width="6"/><polyline points="367.89 5.53 433.14 5.53 433.14 26.51" fill="none" stroke="#dadada" stroke-miterlimit="10" stroke-width="6"/><polyline points="356.5 242.68 429.01 242.68 429.01 159.11" fill="none" stroke="#dadada" stroke-miterlimit="10" stroke-width="6"/><line x1="252.32" y1="166.41" x2="252.32" y2="159.11" fill="none" stroke="#dadada" stroke-miterlimit="10" stroke-width="6"/><line x1="177.82" y1="166.41" x2="177.82" y2="159.11" fill="none" stroke="#dadada" stroke-miterlimit="10" stroke-width="6"/><polygon points="540.23 308.67 540.23 5.53 433.14 5.53 367.89 5.53 252.31 5.53 8.24 5.53 8.24 190.65 8.24 254.93 8.24 310.39 113.16 316.18 113.16 308.67 161.01 308.67 177.82 308.67 180.31 308.67 252.31 308.67 292.87 308.67 339.85 308.67 356.49 308.67 540.23 308.67" fill="none" stroke="#dadada" stroke-miterlimit="10" stroke-width="6"/><polyline points="128.71 216.71 177.82 216.71 177.82 166.41 177.82 159.11" fill="none" stroke="#dadada" stroke-miterlimit="10" stroke-width="6"/><line x1="128.71" y1="216.71" x2="128.71" y2="159.11" fill="none" stroke="#dadada" stroke-miterlimit="10" stroke-width="6"/><line x1="367.89" y1="69.79" x2="367.89" y2="6.41" fill="none" stroke="#dadada" stroke-miterlimit="10" stroke-width="6"/><line x1="251.03" y1="5.53" x2="251.03" y2="70.01" fill="none" stroke="#dadada" stroke-miterlimit="10" stroke-width="6"/></g><g id="d"><g mix-blend-mode="multiply"><g><line x1="245.36" y1="12.62" x2="241.86" y2="12.62" fill="none" stroke="#ebebe5" stroke-miterlimit="10"/><line x1="239.81" y1="12.62" x2="129.91" y2="12.62" fill="none" stroke="#ebebe5" stroke-dasharray="0 0 7.19 2.05" stroke-miterlimit="10"/><polyline points="128.88 12.62 125.38 12.62 125.38 16.12" fill="none" stroke="#ebebe5" stroke-miterlimit="10"/><line x1="125.38" y1="18.24" x2="125.38" y2="64.95" fill="none" stroke="#ebebe5" stroke-dasharray="0 0 7.43 2.12" stroke-miterlimit="10"/><polyline points="125.38 66.01 125.38 69.51 128.88 69.51" fill="none" stroke="#ebebe5" stroke-miterlimit="10"/><line x1="130.94" y1="69.51" x2="240.84" y2="69.51" fill="none" stroke="#ebebe5" stroke-dasharray="0 0 7.19 2.05" stroke-miterlimit="10"/><line x1="241.86" y1="69.51" x2="245.36" y2="69.51" fill="none" stroke="#ebebe5" stroke-miterlimit="10"/></g></g><g mix-blend-mode="multiply"><g><line x1="256.7" y1="69.51" x2="260.2" y2="69.51" fill="none" stroke="#ebebe5" stroke-miterlimit="10"/><line x1="262.13" y1="69.51" x2="356.35" y2="69.51" fill="none" stroke="#ebebe5" stroke-dasharray="0 0 6.73 1.92" stroke-miterlimit="10"/><polyline points="357.31 69.51 360.81 69.51 360.81 66.01" fill="none" stroke="#ebebe5" stroke-miterlimit="10"/><line x1="360.81" y1="63.89" x2="360.81" y2="17.18" fill="none" stroke="#ebebe5" stroke-dasharray="0 0 7.43 2.12" stroke-miterlimit="10"/><polyline points="360.81 16.12 360.81 12.62 357.31 12.62" fill="none" stroke="#ebebe5" stroke-miterlimit="10"/><line x1="355.38" y1="12.62" x2="261.16" y2="12.62" fill="none" stroke="#ebebe5" stroke-dasharray="0 0 6.73 1.92" stroke-miterlimit="10"/><line x1="260.2" y1="12.62" x2="256.7" y2="12.62" fill="none" stroke="#ebebe5" stroke-miterlimit="10"/></g></g><g mix-blend-mode="multiply"><g><polyline points="135.8 206.12 135.8 209.62 139.3 209.62" fill="none" stroke="#ebebe5" stroke-miterlimit="10"/><line x1="141.22" y1="209.62" x2="166.27" y2="209.62" fill="none" stroke="#ebebe5" stroke-dasharray="0 0 6.74 1.93" stroke-miterlimit="10"/><polyline points="167.24 209.62 170.74 209.62 170.74 206.12" fill="none" stroke="#ebebe5" stroke-miterlimit="10"/><line x1="170.74" y1="204.11" x2="170.74" y2="168.85" fill="none" stroke="#ebebe5" stroke-dasharray="0 0 7.05 2.02" stroke-miterlimit="10"/><polyline points="170.74 167.84 170.74 164.34 167.24 164.34" fill="none" stroke="#ebebe5" stroke-miterlimit="10"/><line x1="165.31" y1="164.34" x2="140.26" y2="164.34" fill="none" stroke="#ebebe5" stroke-dasharray="0 0 6.74 1.93" stroke-miterlimit="10"/><polyline points="139.3 164.34 135.8 164.34 135.8 167.84" fill="none" stroke="#ebebe5" stroke-miterlimit="10"/><line x1="135.8" y1="169.85" x2="135.8" y2="205.12" fill="none" stroke="#ebebe5" stroke-dasharray="0 0 7.05 2.02" stroke-miterlimit="10"/></g></g><g mix-blend-mode="multiply"><g><polyline points="421.92 163.11 421.92 159.61 418.42 159.61" fill="none" stroke="#ebebe5" stroke-miterlimit="10"/><line x1="416.42" y1="159.61" x2="263.9" y2="159.61" fill="none" stroke="#ebebe5" stroke-dasharray="0 0 7.02 2.01" stroke-miterlimit="10"/><polyline points="262.9 159.61 259.4 159.61 259.4 163.11" fill="none" stroke="#ebebe5" stroke-miterlimit="10"/><line x1="259.4" y1="165.24" x2="259.4" y2="231.03" fill="none" stroke="#ebebe5" stroke-dasharray="0 0 7.43 2.12" stroke-miterlimit="10"/><polyline points="259.4 232.09 259.4 235.59 262.9 235.59" fill="none" stroke="#ebebe5" stroke-miterlimit="10"/><line x1="264.91" y1="235.59" x2="417.42" y2="235.59" fill="none" stroke="#ebebe5" stroke-dasharray="0 0 7.02 2.01" stroke-miterlimit="10"/><polyline points="418.42 235.59 421.92 235.59 421.92 232.09" fill="none" stroke="#ebebe5" stroke-miterlimit="10"/><line x1="421.92" y1="229.97" x2="421.92" y2="164.18" fill="none" stroke="#ebebe5" stroke-dasharray="0 0 7.43 2.12" stroke-miterlimit="10"/></g></g><g mix-blend-mode="multiply"><g><polyline points="492.3 181.43 492.3 177.93 488.8 177.93" fill="none" stroke="#ebebe5" stroke-miterlimit="10"/><line x1="486.72" y1="177.93" x2="440.94" y2="177.93" fill="none" stroke="#ebebe5" stroke-dasharray="0 0 7.28 2.08" stroke-miterlimit="10"/><polyline points="439.9 177.93 436.4 177.93 436.4 181.43" fill="none" stroke="#ebebe5" stroke-miterlimit="10"/><line x1="436.4" y1="183.33" x2="436.4" y2="216.56" fill="none" stroke="#ebebe5" stroke-dasharray="0 0 6.65 1.9" stroke-miterlimit="10"/><polyline points="436.4 217.51 436.4 221.01 439.9 221.01" fill="none" stroke="#ebebe5" stroke-miterlimit="10"/><line x1="441.98" y1="221.01" x2="487.76" y2="221.01" fill="none" stroke="#ebebe5" stroke-dasharray="0 0 7.28 2.08" stroke-miterlimit="10"/><polyline points="488.8 221.01 492.3 221.01 492.3 217.51" fill="none" stroke="#ebebe5" stroke-miterlimit="10"/><line x1="492.3" y1="215.62" x2="492.3" y2="182.38" fill="none" stroke="#ebebe5" stroke-dasharray="0 0 6.65 1.9" stroke-miterlimit="10"/></g></g><g mix-blend-mode="multiply"><g><polyline points="425.97 16.12 425.97 12.62 422.47 12.62" fill="none" stroke="#ebebe5" stroke-miterlimit="10"/><line x1="420.59" y1="12.62" x2="379.37" y2="12.62" fill="none" stroke="#ebebe5" stroke-dasharray="0 0 6.56 1.87" stroke-miterlimit="10"/><polyline points="378.43 12.62 374.93 12.62 374.93 16.12" fill="none" stroke="#ebebe5" stroke-miterlimit="10"/><line x1="374.93" y1="18.24" x2="374.93" y2="64.95" fill="none" stroke="#ebebe5" stroke-dasharray="0 0 7.43 2.12" stroke-miterlimit="10"/><polyline points="374.93 66.01 374.93 69.51 378.43 69.51" fill="none" stroke="#ebebe5" stroke-miterlimit="10"/><line x1="380.3" y1="69.51" x2="421.53" y2="69.51" fill="none" stroke="#ebebe5" stroke-dasharray="0 0 6.56 1.87" stroke-miterlimit="10"/><polyline points="422.47 69.51 425.97 69.51 425.97 66.01" fill="none" stroke="#ebebe5" stroke-miterlimit="10"/><line x1="425.97" y1="63.89" x2="425.97" y2="17.18" fill="none" stroke="#ebebe5" stroke-dasharray="0 0 7.43 2.12" stroke-miterlimit="10"/></g></g></g><g id="e"><g><path d="M292.73,192.79c1.61,0,2.72,.83,3.01,2.07l-.78,.08c-.28-.94-1.08-1.45-2.3-1.45-.82,0-1.95,.31-1.95,1.37,0,.82,.67,1.2,1.55,1.39l.96,.22c1.18,.26,2.72,.71,2.72,2.24s-1.42,2.33-2.99,2.33c-2.02,0-3.13-1.15-3.31-2.49l.78-.08c.28,1.28,1.19,1.87,2.49,1.87,.89,0,2.23-.29,2.23-1.5,0-.98-.97-1.39-2.09-1.64l-1.01-.23c-1.07-.24-2.12-.74-2.12-2.06,0-1.5,1.51-2.11,2.81-2.11Z" fill="#282727"/><path d="M299.51,194.93c1.39,0,2.71,.94,2.71,3.06s-1.32,3.06-2.71,3.06-2.71-.94-2.71-3.06,1.32-3.06,2.71-3.06Zm0,5.5c1.1,0,1.98-.79,1.98-2.45s-.88-2.45-1.98-2.45-1.98,.79-1.98,2.45,.88,2.45,1.98,2.45Z" fill="#282727"/><path d="M303.6,194.28c0-.98,.25-1.34,1.39-1.34h.49v.64h-.35c-.76,0-.84,.07-.84,.8v.65h1.19v.6h-1.19v5.28h-.7v-5.28h-.83v-.6h.83v-.74Zm3.18-.72h.7v1.46h1.19v.6h-1.19v3.72c0,.78,.02,.94,.83,.94h.36v.62h-.58c-1.07,0-1.31-.24-1.31-1.43v-3.85h-1v-.6h1v-1.46Z" fill="#282727"/><path d="M316.09,196.64c-.19-.67-.76-1.1-1.61-1.1-.59,0-1.48,.22-1.48,.95,0,.59,.44,.86,1.08,.98l.84,.16c.98,.18,2.03,.48,2.03,1.62s-1.08,1.8-2.36,1.8-2.19-.65-2.39-1.88l.72-.1c.17,.88,.8,1.37,1.73,1.37,.66,0,1.61-.28,1.61-1.08,0-.71-.62-.91-1.44-1.07l-.94-.18c-.86-.17-1.58-.64-1.58-1.57s.92-1.61,2.28-1.61c1.28,0,2.05,.76,2.23,1.62l-.72,.1Zm2.88,3.36c.37,.71,1.14,1.04,1.91,1.04,1.46,0,2.55-1.14,2.55-3.05s-1.06-3.07-2.43-3.07c-.89,0-1.61,.36-2.03,1.08v-.98h-.7v7.95h.7v-2.97Zm3.73-2c0,1.52-.74,2.43-1.85,2.43-.96,0-1.93-.73-1.93-2.43s1.02-2.46,1.93-2.46c1.12,0,1.85,.92,1.85,2.46Z" fill="#282727"/><path d="M326.99,194.93c1.39,0,2.71,.94,2.71,3.06s-1.32,3.06-2.71,3.06-2.71-.94-2.71-3.06,1.32-3.06,2.71-3.06Zm0,5.5c1.1,0,1.98-.79,1.98-2.45s-.88-2.45-1.98-2.45-1.98,.79-1.98,2.45,.88,2.45,1.98,2.45Z" fill="#282727"/><path d="M331.19,193.56h.7v1.46h1.19v.6h-1.19v3.72c0,.78,.02,.94,.83,.94h.36v.62h-.58c-1.07,0-1.31-.24-1.31-1.43v-3.85h-1v-.6h1v-1.46Z" fill="#282727"/><path d="M337.08,194.28c0-.98,.25-1.34,1.39-1.34h.49v.64h-.35c-.76,0-.84,.07-.84,.8v.65h1.19v.6h-1.19v5.28h-.7v-5.28h-.83v-.6h.83v-.74Z" fill="#282727"/><path d="M342.08,194.93c1.39,0,2.71,.94,2.71,3.06s-1.32,3.06-2.71,3.06-2.71-.94-2.71-3.06,1.32-3.06,2.71-3.06Zm0,5.5c1.1,0,1.98-.79,1.98-2.45s-.88-2.45-1.98-2.45-1.98,.79-1.98,2.45,.88,2.45,1.98,2.45Z" fill="#282727"/><path d="M348.53,195.73c-.11-.01-.22-.01-.31-.01-1.24,0-1.52,.89-1.52,2.16v3.02h-.68v-5.88h.66v1.01c.26-.71,.94-1.06,1.66-1.06,.06,0,.13,0,.2,.01v.74Z" fill="#282727"/><path d="M355.72,196.64c-.19-.67-.76-1.1-1.61-1.1-.59,0-1.48,.22-1.48,.95,0,.59,.44,.86,1.08,.98l.84,.16c.98,.18,2.03,.48,2.03,1.62s-1.08,1.8-2.36,1.8-2.19-.65-2.39-1.88l.72-.1c.17,.88,.8,1.37,1.73,1.37,.66,0,1.61-.28,1.61-1.08,0-.71-.62-.91-1.44-1.07l-.94-.18c-.86-.17-1.58-.64-1.58-1.57s.92-1.61,2.28-1.61c1.28,0,2.05,.76,2.23,1.62l-.72,.1Zm2.46-3.08h.7v1.46h1.19v.6h-1.19v3.72c0,.78,.02,.94,.83,.94h.36v.62h-.58c-1.07,0-1.31-.24-1.31-1.43v-3.85h-1v-.6h1v-1.46Z" fill="#282727"/><path d="M361.05,196.74c.07-1.14,.98-1.81,2.34-1.81s2.21,.46,2.21,1.99c0,1.07-.01,1.58-.01,2.06,0,.68,.04,1.27,.07,1.92h-.7l-.05-.91c-.34,.61-.9,1.06-2.04,1.06-1.32,0-2.04-.82-2.04-1.83,0-.56,.25-1,.64-1.26,.56-.38,1.52-.5,2.25-.58l1.18-.12v-.35c0-1.19-.77-1.37-1.58-1.37-1.02,0-1.5,.52-1.55,1.22l-.72-.02Zm3.89,1.1l-1.28,.13c-1.43,.14-2.09,.46-2.09,1.26,0,.72,.58,1.2,1.44,1.2,1.04,0,1.93-.62,1.93-2.23v-.36Z" fill="#282727"/><path d="M367.79,192.94v1.1h-.7v-1.1h.7Zm0,2.09v5.88h-.7v-5.88h.7Z" fill="#282727"/><path d="M371.99,195.73c-.11-.01-.22-.01-.31-.01-1.24,0-1.52,.89-1.52,2.16v3.02h-.68v-5.88h.66v1.01c.26-.71,.94-1.06,1.66-1.06,.06,0,.13,0,.2,.01v.74Z" fill="#282727"/><path d="M377.53,196.8l-.72,.1c-.22-.9-.9-1.34-1.77-1.34-1.03,0-1.94,.83-1.94,2.42s.91,2.45,1.95,2.45,1.64-.6,1.81-1.34l.72,.1c-.24,1.13-1.21,1.87-2.55,1.87-1.7,0-2.66-1.27-2.66-3.06s1-3.06,2.75-3.06c1.36,0,2.24,.9,2.42,1.87Z" fill="#282727"/><path d="M378.44,196.74c.07-1.14,.98-1.81,2.34-1.81s2.21,.46,2.21,1.99c0,1.07-.01,1.58-.01,2.06,0,.68,.04,1.27,.07,1.92h-.7l-.05-.91c-.34,.61-.9,1.06-2.04,1.06-1.32,0-2.04-.82-2.04-1.83,0-.56,.25-1,.64-1.26,.56-.38,1.52-.5,2.25-.58l1.18-.12v-.35c0-1.19-.77-1.37-1.58-1.37-1.02,0-1.5,.52-1.55,1.22l-.72-.02Zm3.89,1.1l-1.28,.13c-1.43,.14-2.09,.46-2.09,1.26,0,.72,.58,1.2,1.44,1.2,1.04,0,1.93-.62,1.93-2.23v-.36Z" fill="#282727"/><path d="M387.98,196.64c-.19-.67-.76-1.1-1.61-1.1-.59,0-1.48,.22-1.48,.95,0,.59,.44,.86,1.08,.98l.84,.16c.98,.18,2.03,.48,2.03,1.62s-1.08,1.8-2.36,1.8-2.19-.65-2.39-1.88l.72-.1c.17,.88,.8,1.37,1.73,1.37,.66,0,1.61-.28,1.61-1.08,0-.71-.62-.91-1.44-1.07l-.94-.18c-.86-.17-1.58-.64-1.58-1.57s.92-1.61,2.28-1.61c1.28,0,2.05,.76,2.23,1.62l-.72,.1Z" fill="#282727"/><path d="M389.74,197.98c0-1.9,1.18-3.06,2.79-3.06,1.7,0,2.75,1.33,2.65,3.2h-4.73c0,1.42,.88,2.29,2.1,2.29,.94,0,1.62-.49,1.85-1.32l.72,.1c-.28,1.15-1.3,1.85-2.62,1.85-1.76,0-2.77-1.26-2.77-3.06Zm.73-.46h3.96c0-1.02-.7-2-1.91-2-1.1,0-1.94,.72-2.05,2Z" fill="#282727"/></g><g><path d="M147.57,182.69h4.28v.7h-5.03v-7.96h.74v7.27Z" fill="#282727"/><path d="M153.39,175.42v1.1h-.7v-1.1h.7Zm0,2.09v5.88h-.7v-5.88h.7Z" fill="#282727"/><path d="M155.24,176.77c0-.98,.25-1.34,1.39-1.34h.49v.64h-.35c-.76,0-.84,.07-.84,.8v.65h1.19v.6h-1.19v5.28h-.7v-5.28h-.83v-.6h.83v-.74Zm3.18-.72h.7v1.46h1.19v.6h-1.19v3.72c0,.78,.02,.94,.83,.94h.36v.62h-.58c-1.07,0-1.31-.24-1.31-1.43v-3.85h-1v-.6h1v-1.46Z" fill="#282727"/><path d="M145.51,193.53c-.19-.67-.76-1.1-1.61-1.1-.59,0-1.48,.22-1.48,.95,0,.59,.44,.86,1.08,.98l.84,.16c.98,.18,2.03,.48,2.03,1.62s-1.08,1.8-2.36,1.8-2.19-.65-2.39-1.88l.72-.1c.17,.88,.8,1.37,1.73,1.37,.66,0,1.61-.28,1.61-1.08,0-.71-.62-.91-1.44-1.07l-.94-.18c-.86-.17-1.58-.64-1.58-1.57s.92-1.61,2.28-1.61c1.28,0,2.05,.76,2.23,1.62l-.72,.1Z" fill="#282727"/><path d="M148.42,192.92c.3-.58,.88-1.1,1.99-1.1,.72,0,1.24,.23,1.56,.62,.31,.38,.46,.94,.46,1.69v3.66h-.7v-3.48c0-.68-.12-1.13-.34-1.42-.25-.34-.65-.47-1.16-.47-1.03,0-1.81,.86-1.81,2.13v3.23h-.7v-7.96h.7v3.09Z" fill="#282727"/><path d="M153.72,193.63c.07-1.14,.98-1.81,2.34-1.81s2.21,.46,2.21,1.99c0,1.07-.01,1.58-.01,2.06,0,.68,.04,1.27,.07,1.92h-.7l-.05-.91c-.34,.61-.9,1.06-2.04,1.06-1.32,0-2.04-.82-2.04-1.83,0-.56,.25-1,.64-1.26,.56-.38,1.52-.5,2.25-.58l1.18-.12v-.35c0-1.19-.77-1.37-1.58-1.37-1.02,0-1.5,.52-1.55,1.22l-.72-.02Zm3.89,1.1l-1.28,.13c-1.43,.14-2.09,.46-2.09,1.26,0,.72,.58,1.2,1.44,1.2,1.04,0,1.93-.62,1.93-2.23v-.36Z" fill="#282727"/><path d="M159.93,191.17c0-.98,.25-1.34,1.39-1.34h.49v.64h-.35c-.76,0-.84,.07-.84,.8v.65h1.19v.6h-1.19v5.28h-.7v-5.28h-.83v-.6h.83v-.74Zm3.18-.72h.7v1.46h1.19v.6h-1.19v3.72c0,.78,.02,.94,.83,.94h.36v.62h-.58c-1.07,0-1.31-.24-1.31-1.43v-3.85h-1v-.6h1v-1.46Z" fill="#282727"/></g><g><path d="M457.86,187.88c1.61,0,2.72,.83,3.01,2.08l-.78,.08c-.28-.94-1.08-1.45-2.3-1.45-.82,0-1.96,.31-1.96,1.37,0,.82,.67,1.2,1.55,1.39l.96,.22c1.17,.26,2.72,.71,2.72,2.24s-1.42,2.33-2.99,2.33c-2.02,0-3.13-1.15-3.31-2.5l.78-.08c.28,1.28,1.19,1.87,2.5,1.87,.89,0,2.23-.29,2.23-1.5,0-.98-.97-1.39-2.09-1.64l-1.01-.23c-1.07-.24-2.12-.74-2.12-2.06,0-1.5,1.51-2.11,2.81-2.11Z" fill="#282727"/><path d="M464.64,190.02c1.39,0,2.71,.94,2.71,3.06s-1.32,3.06-2.71,3.06-2.71-.94-2.71-3.06,1.32-3.06,2.71-3.06Zm0,5.5c1.1,0,1.98-.79,1.98-2.45s-.88-2.45-1.98-2.45-1.98,.79-1.98,2.45,.88,2.45,1.98,2.45Z" fill="#282727"/><path d="M468.73,189.37c0-.98,.25-1.34,1.39-1.34h.49v.63h-.35c-.75,0-.84,.07-.84,.8v.65h1.19v.6h-1.19v5.28h-.7v-5.28h-.83v-.6h.83v-.74Zm3.18-.72h.7v1.46h1.19v.6h-1.19v3.72c0,.78,.02,.94,.83,.94h.36v.62h-.58c-1.07,0-1.31-.24-1.31-1.43v-3.85h-1v-.6h1v-1.46Z" fill="#282727"/><path d="M457.89,206.13c-.19-.67-.76-1.1-1.61-1.1-.59,0-1.48,.22-1.48,.95,0,.59,.44,.86,1.08,.98l.84,.16c.98,.18,2.03,.48,2.03,1.62s-1.08,1.8-2.36,1.8-2.19-.65-2.39-1.88l.72-.1c.17,.88,.8,1.37,1.73,1.37,.66,0,1.61-.28,1.61-1.08,0-.71-.62-.91-1.44-1.07l-.94-.18c-.86-.17-1.58-.64-1.58-1.57s.92-1.61,2.28-1.61c1.28,0,2.05,.75,2.23,1.62l-.72,.1Zm2.88,3.36c.37,.71,1.14,1.04,1.91,1.04,1.46,0,2.55-1.14,2.55-3.05s-1.06-3.07-2.43-3.07c-.89,0-1.61,.36-2.03,1.08v-.98h-.7v7.95h.7v-2.97Zm3.73-2c0,1.52-.74,2.43-1.85,2.43-.96,0-1.93-.73-1.93-2.43s1.02-2.46,1.93-2.46c1.12,0,1.85,.92,1.85,2.46Z" fill="#282727"/><path d="M468.79,204.42c1.39,0,2.71,.94,2.71,3.06s-1.32,3.06-2.71,3.06-2.71-.94-2.71-3.06,1.32-3.06,2.71-3.06Zm0,5.5c1.1,0,1.98-.79,1.98-2.45s-.88-2.45-1.98-2.45-1.98,.79-1.98,2.45,.88,2.45,1.98,2.45Z" fill="#282727"/><path d="M472.99,203.05h.7v1.46h1.19v.6h-1.19v3.72c0,.78,.02,.94,.83,.94h.36v.62h-.58c-1.07,0-1.31-.24-1.31-1.43v-3.85h-1v-.6h1v-1.46Z" fill="#282727"/></g><g><path d="M443.43,107.36c1.93,0,3.31,.5,3.31,2.45s-1.38,2.41-3.31,2.41h-1.56v3.11h-.74v-7.96h2.3Zm-1.56,.7v3.47h1.66c1.33,0,2.43-.2,2.43-1.72s-1.1-1.75-2.43-1.75h-1.66Z" fill="#282727"/><path d="M448.46,115.33h-.7v-7.96h.7v7.96Z" fill="#282727"/><path d="M449.92,111.16c.07-1.14,.98-1.81,2.34-1.81s2.21,.46,2.21,1.99c0,1.07-.01,1.58-.01,2.06,0,.68,.04,1.27,.07,1.92h-.7l-.05-.91c-.34,.61-.9,1.06-2.04,1.06-1.32,0-2.04-.82-2.04-1.83,0-.56,.25-1,.64-1.26,.56-.38,1.52-.5,2.25-.58l1.18-.12v-.35c0-1.19-.77-1.37-1.58-1.37-1.02,0-1.5,.52-1.55,1.22l-.72-.02Zm3.89,1.1l-1.28,.13c-1.43,.14-2.09,.46-2.09,1.26,0,.72,.58,1.2,1.44,1.2,1.04,0,1.93-.62,1.93-2.23v-.36Z" fill="#282727"/><path d="M456.66,110.46c.3-.58,.88-1.1,1.99-1.1,.72,0,1.24,.23,1.56,.62,.31,.38,.46,.94,.46,1.69v3.66h-.7v-3.48c0-.68-.12-1.13-.33-1.42-.25-.34-.65-.47-1.16-.47-1.03,0-1.81,.86-1.81,2.13v3.23h-.7v-5.88h.7v1.01Z" fill="#282727"/><path d="M462.45,107.99h.7v1.46h1.19v.6h-1.19v3.72c0,.78,.02,.94,.83,.94h.36v.62h-.58c-1.07,0-1.31-.24-1.31-1.43v-3.85h-1v-.6h1v-1.46Z" fill="#282727"/><path d="M467.96,111.16c.07-1.14,.98-1.81,2.34-1.81s2.21,.46,2.21,1.99c0,1.07-.01,1.58-.01,2.06,0,.68,.04,1.27,.07,1.92h-.7l-.05-.91c-.33,.61-.9,1.06-2.04,1.06-1.32,0-2.04-.82-2.04-1.83,0-.56,.25-1,.64-1.26,.56-.38,1.52-.5,2.25-.58l1.17-.12v-.35c0-1.19-.77-1.37-1.58-1.37-1.02,0-1.5,.52-1.55,1.22l-.72-.02Zm3.89,1.1l-1.28,.13c-1.43,.14-2.09,.46-2.09,1.26,0,.72,.58,1.2,1.44,1.2,1.04,0,1.93-.62,1.93-2.23v-.36Z" fill="#282727"/><path d="M476.52,110.16c-.11-.01-.22-.01-.31-.01-1.24,0-1.52,.89-1.52,2.16v3.02h-.68v-5.88h.66v1.01c.26-.71,.94-1.06,1.66-1.06,.06,0,.13,0,.2,.01v.74Z" fill="#282727"/><path d="M476.89,112.41c0-1.9,1.18-3.06,2.79-3.06,1.7,0,2.75,1.33,2.65,3.2h-4.73c0,1.42,.88,2.29,2.1,2.29,.94,0,1.62-.49,1.85-1.32l.72,.1c-.28,1.15-1.3,1.85-2.62,1.85-1.76,0-2.77-1.26-2.77-3.06Zm.73-.46h3.96c0-1.02-.7-2-1.91-2-1.1,0-1.94,.72-2.05,2Z" fill="#282727"/><path d="M483.33,111.16c.07-1.14,.98-1.81,2.34-1.81s2.21,.46,2.21,1.99c0,1.07-.01,1.58-.01,2.06,0,.68,.04,1.27,.07,1.92h-.7l-.05-.91c-.33,.61-.9,1.06-2.04,1.06-1.32,0-2.04-.82-2.04-1.83,0-.56,.25-1,.64-1.26,.56-.38,1.52-.5,2.25-.58l1.17-.12v-.35c0-1.19-.77-1.37-1.58-1.37-1.02,0-1.5,.52-1.55,1.22l-.72-.02Zm3.89,1.1l-1.28,.13c-1.43,.14-2.09,.46-2.09,1.26,0,.72,.58,1.2,1.44,1.2,1.04,0,1.93-.62,1.93-2.23v-.36Z" fill="#282727"/></g><g><path d="M57.57,109.83l-.78,.11c-.32-1.36-1.49-1.87-2.58-1.87-1.62,0-2.87,1.19-2.87,3.42s1.15,3.42,2.81,3.42c1.2,0,2.7-.47,2.7-2.42v-.3h-2.27v-.7h2.99v3.98h-.66v-1.14c-.5,.77-1.38,1.28-2.77,1.28-2.31,0-3.59-1.69-3.59-4.13s1.37-4.13,3.68-4.13c1.72,0,2.97,.91,3.33,2.47Z" fill="#282727"/><path d="M59,111.31c.07-1.14,.98-1.81,2.34-1.81s2.21,.46,2.21,1.99c0,1.07-.01,1.58-.01,2.06,0,.68,.04,1.27,.07,1.92h-.7l-.05-.91c-.34,.61-.9,1.06-2.04,1.06-1.32,0-2.04-.82-2.04-1.83,0-.56,.25-1,.64-1.26,.56-.38,1.52-.5,2.25-.58l1.18-.12v-.35c0-1.19-.77-1.37-1.58-1.37-1.02,0-1.5,.52-1.55,1.22l-.72-.02Zm3.89,1.1l-1.28,.13c-1.43,.14-2.09,.46-2.09,1.26,0,.72,.58,1.2,1.44,1.2,1.04,0,1.93-.62,1.93-2.23v-.36Z" fill="#282727"/><path d="M65.75,115.47h-.7v-7.96h.7v7.96Z" fill="#282727"/><path d="M68.12,115.47h-.7v-7.96h.7v7.96Z" fill="#282727"/><path d="M69.34,112.56c0-1.9,1.18-3.06,2.79-3.06,1.7,0,2.75,1.33,2.65,3.2h-4.73c0,1.42,.88,2.29,2.1,2.29,.94,0,1.62-.49,1.85-1.32l.72,.1c-.28,1.15-1.3,1.85-2.61,1.85-1.76,0-2.77-1.26-2.77-3.06Zm.73-.46h3.96c0-1.02-.7-2-1.91-2-1.1,0-1.94,.72-2.05,2Z" fill="#282727"/><path d="M78.5,110.3c-.11-.01-.22-.01-.31-.01-1.24,0-1.52,.89-1.52,2.16v3.02h-.68v-5.88h.66v1.01c.26-.71,.94-1.06,1.66-1.06,.06,0,.13,0,.2,.01v.74Z" fill="#282727"/><path d="M79.17,117.54v-.61h.4c.56,0,.85-.14,1.16-.98l.18-.48-2.29-5.88h.78l1.86,4.92,1.81-4.92h.74l-2.46,6.48c-.44,1.16-.72,1.48-1.8,1.48h-.38Z" fill="#282727"/><path d="M90.88,111.21c-.19-.67-.76-1.1-1.61-1.1-.59,0-1.48,.22-1.48,.95,0,.59,.44,.86,1.08,.98l.84,.16c.98,.18,2.03,.48,2.03,1.62s-1.08,1.8-2.36,1.8-2.19-.65-2.39-1.88l.72-.1c.17,.88,.8,1.37,1.73,1.37,.66,0,1.61-.28,1.61-1.08,0-.71-.62-.91-1.44-1.07l-.94-.18c-.86-.17-1.58-.64-1.58-1.57s.92-1.61,2.28-1.61c1.28,0,2.05,.76,2.23,1.62l-.72,.1Zm2.46-3.08h.7v1.46h1.19v.6h-1.19v3.72c0,.78,.02,.94,.83,.94h.36v.62h-.58c-1.07,0-1.31-.24-1.31-1.43v-3.85h-1v-.6h1v-1.46Z" fill="#282727"/><path d="M98.67,109.5c1.39,0,2.71,.94,2.71,3.06s-1.32,3.06-2.71,3.06-2.71-.94-2.71-3.06,1.32-3.06,2.71-3.06Zm0,5.5c1.1,0,1.98-.79,1.98-2.45s-.88-2.45-1.98-2.45-1.98,.79-1.98,2.45,.88,2.45,1.98,2.45Z" fill="#282727"/><path d="M105.12,110.3c-.11-.01-.22-.01-.31-.01-1.24,0-1.52,.89-1.52,2.16v3.02h-.68v-5.88h.66v1.01c.26-.71,.94-1.06,1.66-1.06,.06,0,.13,0,.2,.01v.74Z" fill="#282727"/><path d="M105.66,111.31c.07-1.14,.98-1.81,2.34-1.81s2.21,.46,2.21,1.99c0,1.07-.01,1.58-.01,2.06,0,.68,.04,1.27,.07,1.92h-.7l-.05-.91c-.34,.61-.9,1.06-2.04,1.06-1.32,0-2.04-.82-2.04-1.83,0-.56,.25-1,.64-1.26,.56-.38,1.52-.5,2.25-.58l1.18-.12v-.35c0-1.19-.77-1.37-1.58-1.37-1.02,0-1.5,.52-1.55,1.22l-.72-.02Zm3.89,1.1l-1.28,.13c-1.43,.14-2.09,.46-2.09,1.26,0,.72,.58,1.2,1.44,1.2,1.04,0,1.93-.62,1.93-2.23v-.36Z" fill="#282727"/><path d="M115.65,114.29c-.44,.73-1.12,1.08-1.95,1.08-1.38,0-2.46-1.14-2.46-2.95s1.12-2.93,2.58-2.93c.72,0,1.45,.32,1.83,1.04v-.95h.7v5.73c0,.85-.26,1.42-.71,1.79-.43,.36-1.04,.52-1.74,.52-1.24,0-2.19-.65-2.3-1.71l.72-.05c.08,.64,.59,1.16,1.61,1.16,.49,0,.92-.08,1.22-.32,.31-.25,.5-.66,.5-1.31v-1.1Zm.05-1.87c0-1.58-.97-2.31-1.9-2.31-1.06,0-1.83,.91-1.83,2.31s.77,2.34,1.82,2.34c.89,0,1.91-.76,1.91-2.34Z" fill="#282727"/><path d="M117.56,112.56c0-1.9,1.18-3.06,2.79-3.06,1.7,0,2.75,1.33,2.65,3.2h-4.73c0,1.42,.88,2.29,2.1,2.29,.94,0,1.62-.49,1.85-1.32l.72,.1c-.28,1.15-1.3,1.85-2.61,1.85-1.76,0-2.77-1.26-2.77-3.06Zm.73-.46h3.96c0-1.02-.7-2-1.91-2-1.1,0-1.94,.72-2.05,2Z" fill="#282727"/></g><g><path d="M393.96,29.15c1.61,0,2.72,.83,3.01,2.07l-.78,.08c-.28-.94-1.08-1.45-2.3-1.45-.82,0-1.95,.31-1.95,1.37,0,.82,.67,1.2,1.55,1.39l.96,.22c1.18,.26,2.72,.71,2.72,2.24s-1.42,2.33-2.99,2.33c-2.02,0-3.13-1.15-3.31-2.49l.78-.08c.28,1.28,1.19,1.87,2.5,1.87,.89,0,2.23-.29,2.23-1.5,0-.98-.97-1.39-2.09-1.64l-1.01-.23c-1.07-.24-2.12-.74-2.12-2.06,0-1.5,1.51-2.11,2.81-2.11Z" fill="#282727"/><path d="M400.74,31.29c1.39,0,2.71,.94,2.71,3.06s-1.32,3.06-2.71,3.06-2.71-.94-2.71-3.06,1.32-3.06,2.71-3.06Zm0,5.5c1.1,0,1.98-.79,1.98-2.45s-.88-2.45-1.98-2.45-1.98,.79-1.98,2.45,.88,2.45,1.98,2.45Z" fill="#282727"/><path d="M404.83,30.64c0-.98,.25-1.34,1.39-1.34h.49v.64h-.35c-.75,0-.84,.07-.84,.8v.65h1.19v.6h-1.19v5.28h-.7v-5.28h-.83v-.6h.83v-.74Zm3.18-.72h.7v1.46h1.19v.6h-1.19v3.72c0,.78,.02,.94,.83,.94h.36v.62h-.58c-1.07,0-1.31-.24-1.31-1.43v-3.85h-1v-.6h1v-1.46Z" fill="#282727"/><path d="M393.99,47.4c-.19-.67-.76-1.1-1.61-1.1-.59,0-1.48,.22-1.48,.95,0,.59,.44,.86,1.08,.98l.84,.16c.98,.18,2.03,.48,2.03,1.62s-1.08,1.8-2.36,1.8-2.2-.65-2.39-1.88l.72-.1c.17,.88,.8,1.37,1.73,1.37,.66,0,1.61-.28,1.61-1.08,0-.71-.62-.91-1.44-1.07l-.94-.18c-.86-.17-1.58-.64-1.58-1.57s.92-1.61,2.28-1.61c1.28,0,2.05,.76,2.23,1.62l-.72,.1Zm2.88,3.36c.37,.71,1.14,1.04,1.91,1.04,1.46,0,2.55-1.14,2.55-3.05s-1.06-3.07-2.43-3.07c-.89,0-1.61,.36-2.03,1.08v-.98h-.7v7.95h.7v-2.97Zm3.73-2c0,1.52-.74,2.43-1.85,2.43-.96,0-1.93-.73-1.93-2.43s1.02-2.46,1.93-2.46c1.12,0,1.85,.92,1.85,2.46Z" fill="#282727"/><path d="M404.89,45.69c1.39,0,2.71,.94,2.71,3.06s-1.32,3.06-2.71,3.06-2.71-.94-2.71-3.06,1.32-3.06,2.71-3.06Zm0,5.5c1.1,0,1.98-.79,1.98-2.45s-.88-2.45-1.98-2.45-1.98,.79-1.98,2.45,.88,2.45,1.98,2.45Z" fill="#282727"/><path d="M409.09,44.32h.7v1.46h1.19v.6h-1.19v3.72c0,.78,.02,.94,.83,.94h.36v.62h-.58c-1.07,0-1.31-.24-1.31-1.43v-3.85h-.99v-.6h.99v-1.46Z" fill="#282727"/></g><g><path d="M170.31,36.35c1.61,0,2.72,.83,3.01,2.07l-.78,.08c-.28-.94-1.08-1.45-2.3-1.45-.82,0-1.95,.31-1.95,1.37,0,.82,.67,1.2,1.55,1.39l.96,.22c1.18,.26,2.72,.71,2.72,2.24s-1.42,2.33-2.99,2.33c-2.02,0-3.13-1.15-3.31-2.49l.78-.08c.28,1.28,1.19,1.87,2.49,1.87,.89,0,2.23-.29,2.23-1.5,0-.98-.97-1.39-2.09-1.64l-1.01-.23c-1.07-.24-2.12-.74-2.12-2.06,0-1.5,1.51-2.11,2.81-2.11Z" fill="#282727"/><path d="M177.09,38.49c1.39,0,2.71,.94,2.71,3.06s-1.32,3.06-2.71,3.06-2.71-.94-2.71-3.06,1.32-3.06,2.71-3.06Zm0,5.5c1.1,0,1.98-.79,1.98-2.45s-.88-2.45-1.98-2.45-1.98,.79-1.98,2.45,.88,2.45,1.98,2.45Z" fill="#282727"/><path d="M181.18,37.84c0-.98,.25-1.34,1.39-1.34h.49v.64h-.35c-.76,0-.84,.07-.84,.8v.65h1.19v.6h-1.19v5.28h-.7v-5.28h-.83v-.6h.83v-.74Zm3.18-.72h.7v1.46h1.19v.6h-1.19v3.72c0,.78,.02,.94,.83,.94h.36v.62h-.58c-1.07,0-1.31-.24-1.31-1.43v-3.85h-1v-.6h1v-1.46Z" fill="#282727"/><path d="M193.67,40.2c-.19-.67-.76-1.1-1.61-1.1-.59,0-1.48,.22-1.48,.95,0,.59,.44,.86,1.08,.98l.84,.16c.98,.18,2.03,.48,2.03,1.62s-1.08,1.8-2.36,1.8-2.19-.65-2.39-1.88l.72-.1c.17,.88,.8,1.37,1.73,1.37,.66,0,1.61-.28,1.61-1.08,0-.71-.62-.91-1.44-1.07l-.94-.18c-.86-.17-1.58-.64-1.58-1.57s.92-1.61,2.28-1.61c1.28,0,2.05,.76,2.23,1.62l-.72,.1Zm2.88,3.36c.37,.71,1.14,1.04,1.91,1.04,1.46,0,2.55-1.14,2.55-3.05s-1.06-3.07-2.43-3.07c-.89,0-1.61,.36-2.03,1.08v-.98h-.7v7.95h.7v-2.97Zm3.73-2c0,1.52-.74,2.43-1.85,2.43-.96,0-1.93-.73-1.93-2.43s1.02-2.46,1.93-2.46c1.12,0,1.85,.92,1.85,2.46Z" fill="#282727"/><path d="M204.57,38.49c1.39,0,2.71,.94,2.71,3.06s-1.32,3.06-2.71,3.06-2.71-.94-2.71-3.06,1.32-3.06,2.71-3.06Zm0,5.5c1.1,0,1.98-.79,1.98-2.45s-.88-2.45-1.98-2.45-1.98,.79-1.98,2.45,.88,2.45,1.98,2.45Z" fill="#282727"/><path d="M208.77,37.12h.7v1.46h1.19v.6h-1.19v3.72c0,.78,.02,.94,.83,.94h.36v.62h-.58c-1.07,0-1.31-.24-1.31-1.43v-3.85h-1v-.6h1v-1.46Z" fill="#282727"/></g><g><path d="M276.74,29.15c1.61,0,2.72,.83,3.01,2.07l-.78,.08c-.28-.94-1.08-1.45-2.3-1.45-.82,0-1.95,.31-1.95,1.37,0,.82,.67,1.2,1.55,1.39l.96,.22c1.18,.26,2.72,.71,2.72,2.24s-1.42,2.33-2.99,2.33c-2.02,0-3.13-1.15-3.31-2.49l.78-.08c.28,1.28,1.19,1.87,2.49,1.87,.89,0,2.23-.29,2.23-1.5,0-.98-.97-1.39-2.09-1.64l-1.01-.23c-1.07-.24-2.12-.74-2.12-2.06,0-1.5,1.51-2.11,2.81-2.11Z" fill="#282727"/><path d="M281.73,32.39c.3-.58,.88-1.1,1.99-1.1,.72,0,1.24,.23,1.56,.62,.31,.38,.46,.94,.46,1.69v3.66h-.7v-3.48c0-.68-.12-1.13-.34-1.42-.25-.34-.65-.47-1.16-.47-1.03,0-1.81,.86-1.81,2.13v3.23h-.7v-7.96h.7v3.09Z" fill="#282727"/><path d="M287.03,33.1c.07-1.14,.98-1.81,2.34-1.81s2.21,.46,2.21,1.99c0,1.07-.01,1.58-.01,2.06,0,.68,.04,1.27,.07,1.92h-.7l-.05-.91c-.34,.61-.9,1.06-2.04,1.06-1.32,0-2.04-.82-2.04-1.83,0-.56,.25-1,.64-1.26,.56-.38,1.52-.5,2.25-.58l1.18-.12v-.35c0-1.19-.77-1.37-1.58-1.37-1.02,0-1.5,.52-1.55,1.22l-.72-.02Zm3.89,1.1l-1.28,.13c-1.43,.14-2.09,.46-2.09,1.26,0,.72,.58,1.2,1.44,1.2,1.04,0,1.93-.62,1.93-2.23v-.36Z" fill="#282727"/><path d="M293.24,30.64c0-.98,.25-1.34,1.39-1.34h.49v.64h-.35c-.76,0-.84,.07-.84,.8v.65h1.19v.6h-1.19v5.28h-.7v-5.28h-.83v-.6h.83v-.74Zm3.18-.72h.7v1.46h1.19v.6h-1.19v3.72c0,.78,.02,.94,.83,.94h.36v.62h-.58c-1.07,0-1.31-.24-1.31-1.43v-3.85h-1v-.6h1v-1.46Z" fill="#282727"/><path d="M302.31,30.64c0-.98,.25-1.34,1.39-1.34h.49v.64h-.35c-.76,0-.84,.07-.84,.8v.65h1.19v.6h-1.19v5.28h-.7v-5.28h-.83v-.6h.83v-.74Z" fill="#282727"/><path d="M307.32,31.29c1.39,0,2.71,.94,2.71,3.06s-1.32,3.06-2.71,3.06-2.71-.94-2.71-3.06,1.32-3.06,2.71-3.06Zm0,5.5c1.1,0,1.98-.79,1.98-2.45s-.88-2.45-1.98-2.45-1.98,.79-1.98,2.45,.88,2.45,1.98,2.45Z" fill="#282727"/><path d="M313.76,32.09c-.11-.01-.22-.01-.31-.01-1.24,0-1.52,.89-1.52,2.16v3.02h-.68v-5.88h.66v1.01c.26-.71,.94-1.06,1.66-1.06,.06,0,.13,0,.2,.01v.74Z" fill="#282727"/><path d="M318.06,32.39c.3-.58,.88-1.1,1.99-1.1,.72,0,1.24,.23,1.56,.62,.31,.38,.46,.94,.46,1.69v3.66h-.7v-3.48c0-.68-.12-1.13-.34-1.42-.25-.34-.65-.47-1.16-.47-1.03,0-1.81,.86-1.81,2.13v3.23h-.7v-7.96h.7v3.09Z" fill="#282727"/><path d="M325.81,31.29c1.39,0,2.71,.94,2.71,3.06s-1.32,3.06-2.71,3.06-2.71-.94-2.71-3.06,1.32-3.06,2.71-3.06Zm0,5.5c1.1,0,1.98-.79,1.98-2.45s-.88-2.45-1.98-2.45-1.98,.79-1.98,2.45,.88,2.45,1.98,2.45Z" fill="#282727"/><path d="M330.43,29.3v1.1h-.7v-1.1h.7Zm0,2.09v5.88h-.7v-5.88h.7Z" fill="#282727"/><path d="M335.7,33c-.19-.67-.76-1.1-1.61-1.1-.59,0-1.48,.22-1.48,.95,0,.59,.44,.86,1.08,.98l.84,.16c.98,.18,2.03,.48,2.03,1.62s-1.08,1.8-2.36,1.8-2.19-.65-2.39-1.88l.72-.1c.17,.88,.8,1.37,1.73,1.37,.66,0,1.61-.28,1.61-1.08,0-.71-.62-.91-1.44-1.07l-.94-.18c-.86-.17-1.58-.64-1.58-1.57s.92-1.61,2.28-1.61c1.28,0,2.05,.76,2.23,1.62l-.72,.1Zm2.46-3.08h.7v1.46h1.19v.6h-1.19v3.72c0,.78,.02,.94,.83,.94h.36v.62h-.58c-1.07,0-1.31-.24-1.31-1.43v-3.85h-1v-.6h1v-1.46Z" fill="#282727"/><path d="M282.79,45.69c1.39,0,2.71,.94,2.71,3.06s-1.32,3.06-2.71,3.06-2.71-.94-2.71-3.06,1.32-3.06,2.71-3.06Zm0,5.5c1.1,0,1.98-.79,1.98-2.45s-.88-2.45-1.98-2.45-1.98,.79-1.98,2.45,.88,2.45,1.98,2.45Z" fill="#282727"/><path d="M289.23,46.49c-.11-.01-.22-.01-.31-.01-1.24,0-1.52,.89-1.52,2.16v3.02h-.68v-5.88h.66v1.01c.26-.71,.94-1.06,1.66-1.06,.06,0,.13,0,.2,.01v.74Z" fill="#282727"/><path d="M296.78,50.49c-.44,.73-1.12,1.08-1.95,1.08-1.38,0-2.46-1.14-2.46-2.95s1.12-2.93,2.58-2.93c.72,0,1.45,.32,1.83,1.04v-.95h.7v5.73c0,.85-.26,1.42-.71,1.79-.43,.36-1.04,.52-1.74,.52-1.24,0-2.19-.65-2.3-1.71l.72-.05c.08,.64,.59,1.16,1.61,1.16,.49,0,.92-.08,1.22-.32,.31-.25,.5-.66,.5-1.31v-1.1Zm.05-1.87c0-1.58-.97-2.31-1.9-2.31-1.06,0-1.83,.91-1.83,2.31s.77,2.34,1.82,2.34c.89,0,1.91-.76,1.91-2.34Z" fill="#282727"/><path d="M301.4,45.69c1.39,0,2.71,.94,2.71,3.06s-1.32,3.06-2.71,3.06-2.71-.94-2.71-3.06,1.32-3.06,2.71-3.06Zm0,5.5c1.1,0,1.98-.79,1.98-2.45s-.88-2.45-1.98-2.45-1.98,.79-1.98,2.45,.88,2.45,1.98,2.45Z" fill="#282727"/><path d="M307.67,45.69c1.39,0,2.71,.94,2.71,3.06s-1.32,3.06-2.71,3.06-2.71-.94-2.71-3.06,1.32-3.06,2.71-3.06Zm0,5.5c1.1,0,1.98-.79,1.98-2.45s-.88-2.45-1.98-2.45-1.98,.79-1.98,2.45,.88,2.45,1.98,2.45Z" fill="#282727"/><path d="M316.38,51.66h-.68v-.94c-.43,.72-1.15,1.08-2.04,1.08-1.38,0-2.44-1.14-2.44-3.07s1.09-3.05,2.55-3.05c.77,0,1.54,.34,1.91,1.04v-3.03h.7v7.96Zm-.65-2.93c0-1.7-.97-2.43-1.93-2.43-1.1,0-1.85,.91-1.85,2.43s.73,2.46,1.85,2.46c.91,0,1.93-.76,1.93-2.46Z" fill="#282727"/><path d="M321.55,47.4c-.19-.67-.76-1.1-1.61-1.1-.59,0-1.48,.22-1.48,.95,0,.59,.44,.86,1.08,.98l.84,.16c.98,.18,2.03,.48,2.03,1.62s-1.08,1.8-2.36,1.8-2.19-.65-2.39-1.88l.72-.1c.17,.88,.8,1.37,1.73,1.37,.66,0,1.61-.28,1.61-1.08,0-.71-.62-.91-1.44-1.07l-.94-.18c-.86-.17-1.58-.64-1.58-1.57s.92-1.61,2.28-1.61c1.28,0,2.05,.76,2.23,1.62l-.72,.1Z" fill="#282727"/><path d="M327.11,51.66h-.7v-7.96h.7v7.96Z" fill="#282727"/><path d="M329.48,43.7v1.1h-.7v-1.1h.7Zm0,2.09v5.88h-.7v-5.88h.7Z" fill="#282727"/><path d="M331.33,45.04c0-.98,.25-1.34,1.39-1.34h.49v.64h-.35c-.76,0-.84,.07-.84,.8v.65h1.19v.6h-1.19v5.28h-.7v-5.28h-.83v-.6h.83v-.74Zm3.18-.72h.7v1.46h1.19v.6h-1.19v3.72c0,.78,.02,.94,.83,.94h.36v.62h-.58c-1.07,0-1.31-.24-1.31-1.43v-3.85h-1v-.6h1v-1.46Z" fill="#282727"/></g></g></g></svg>