<svg xmlns="http://www.w3.org/2000/svg" viewBox="0 0 967.4 352.2">
  <defs>
    <style>
      .cls-1 {
        isolation: isolate;
      }

      .cls-10, .cls-11, .cls-12, .cls-13, .cls-14, .cls-15, .cls-16, .cls-17, .cls-18, .cls-19, .cls-2, .cls-20, .cls-6, .cls-7, .cls-8 {
        fill: none;
        stroke-miterlimit: 10;
      }

      .cls-2 {
        stroke: #e4bcb1;
      }

      .cls-3 {
        fill: #282727;
      }

      .cls-4 {
        fill: #e4bcb1;
      }

      .cls-5 {
        opacity: 0.3;
      }

      .cls-6, .cls-7, .cls-8 {
        stroke: #dadada;
      }

      .cls-6 {
        stroke-width: 6px;
      }

      .cls-7 {
        stroke-width: 4px;
      }

      .cls-9 {
        mix-blend-mode: multiply;
      }

      .cls-10, .cls-11, .cls-12, .cls-13, .cls-14, .cls-15, .cls-16, .cls-17, .cls-18, .cls-19, .cls-20 {
        stroke: #ebebe5;
      }

      .cls-11 {
        stroke-dasharray: 7.19 2.05;
      }

      .cls-12 {
        stroke-dasharray: 7.36 2.1;
      }

      .cls-13 {
        stroke-dasharray: 6.73 1.92;
      }

      .cls-14 {
        stroke-dasharray: 6.74 1.93;
      }

      .cls-15 {
        stroke-dasharray: 7.05 2.02;
      }

      .cls-16 {
        stroke-dasharray: 7.02 2.01;
      }

      .cls-17 {
        stroke-dasharray: 7.43 2.12;
      }

      .cls-18 {
        stroke-dasharray: 7.28 2.08;
      }

      .cls-19 {
        stroke-dasharray: 6.65 1.9;
      }

      .cls-20 {
        stroke-dasharray: 6.56 1.87;
      }
    </style>
  </defs>
  <g class="cls-1">
    <g id="Courtyard">
      <line class="cls-2" x1="963.82" y1="15.6" x2="850.15" y2="129.27"/>
      <line class="cls-2" x1="963.82" y1="26.97" x2="850.15" y2="140.64"/>
      <line class="cls-2" x1="953.23" y1="14.81" x2="850.15" y2="117.89"/>
      <line class="cls-2" x1="963.82" y1="38.35" x2="850.15" y2="152.02"/>
      <line class="cls-2" x1="963.82" y1="49.72" x2="850.15" y2="163.4"/>
      <line class="cls-2" x1="963.82" y1="61.05" x2="850.15" y2="174.73"/>
      <line class="cls-2" x1="963.82" y1="72.43" x2="850.15" y2="186.1"/>
      <line class="cls-2" x1="963.82" y1="83.81" x2="850.15" y2="197.48"/>
      <line class="cls-2" x1="884.7" y1="15.16" x2="850.15" y2="49.7"/>
      <line class="cls-2" x1="896.29" y1="14.94" x2="850.15" y2="61.08"/>
      <line class="cls-2" x1="872.1" y1="16.38" x2="850.15" y2="38.33"/>
      <line class="cls-2" x1="862.97" y1="14.17" x2="850.15" y2="27"/>
      <line class="cls-2" x1="907.02" y1="15.59" x2="850.15" y2="72.45"/>
      <line class="cls-2" x1="916.45" y1="17.53" x2="850.15" y2="83.83"/>
      <line class="cls-2" x1="930.23" y1="15.09" x2="850.15" y2="95.16"/>
      <line class="cls-2" x1="940.31" y1="16.38" x2="850.15" y2="106.54"/>
      <line class="cls-2" x1="963.82" y1="95.18" x2="850.15" y2="208.85"/>
      <line class="cls-2" x1="963.82" y1="106.54" x2="850.15" y2="220.21"/>
      <line class="cls-2" x1="963.82" y1="117.91" x2="850.15" y2="231.58"/>
      <line class="cls-2" x1="963.82" y1="129.29" x2="850.15" y2="242.96"/>
      <line class="cls-2" x1="963.82" y1="140.67" x2="850.15" y2="254.34"/>
      <line class="cls-2" x1="963.82" y1="152" x2="850.15" y2="265.67"/>
      <line class="cls-2" x1="963.82" y1="163.37" x2="850.15" y2="277.04"/>
      <line class="cls-2" x1="963.82" y1="174.75" x2="850.15" y2="288.42"/>
      <line class="cls-2" x1="963.82" y1="186.13" x2="850.15" y2="299.8"/>
    </g>
    <g id="Fills">
      <g>
        <path class="cls-3" d="M380.41,300.48V329h-28.5a28.48,28.48,0,0,1,26-28.39Q379.15,300.48,380.41,300.48Z"/>
        <path class="cls-3" d="M255.21,335.62a21,21,0,0,1,21-21v21h-21Z"/>
        <path class="cls-3" d="M276.23,303.8v10.78a10.78,10.78,0,0,1-10.78-10.78h10.78Z"/>
        <path class="cls-3" d="M276.23,335.62V303.8h-2.5v-13H377.91v9.84a28.48,28.48,0,0,0-26,28.39h26v11.58H273.73v-4.95Z"/>
        <polygon class="cls-3" points="377.91 261.28 377.91 290.76 366.8 290.76 284.84 290.76 273.73 290.76 273.73 287.14 273.73 279.74 273.73 272.33 273.73 264.93 273.73 261.28 377.91 261.28"/>
        <rect class="cls-3" x="241.08" y="279.74" width="32.65" height="7.4"/>
        <rect class="cls-3" x="241.08" y="250.12" width="32.65" height="7.41"/>
        <polygon class="cls-3" points="273.73 261.28 273.73 264.93 241.08 264.93 241.08 257.53 273.73 257.53 273.73 261.28"/>
        <rect class="cls-3" x="241.08" y="264.93" width="32.65" height="7.4"/>
        <rect class="cls-3" x="241.08" y="272.33" width="32.65" height="7.41"/>
        <rect class="cls-3" x="241.08" y="235.31" width="32.65" height="7.41"/>
        <rect class="cls-3" x="241.08" y="242.72" width="32.65" height="7.4"/>
        <polygon class="cls-3" points="241.08 279.74 241.08 287.14 231.89 287.14 231.89 279.74 231.89 272.33 231.89 264.93 231.89 257.53 231.89 250.12 231.89 242.72 231.89 235.31 241.08 235.31 241.08 242.72 241.08 250.12 241.08 257.53 241.08 264.93 241.08 272.33 241.08 279.74"/>
        <polygon class="cls-3" points="273.73 185.01 273.73 200.49 265.72 200.49 246.38 200.49 226.59 200.49 207.25 200.49 199.24 200.49 199.24 185.01 273.73 185.01"/>
        <rect class="cls-3" x="199.24" y="235.31" width="32.65" height="7.41"/>
        <rect class="cls-3" x="199.24" y="242.72" width="32.65" height="7.4"/>
        <rect class="cls-3" x="199.24" y="264.93" width="32.65" height="7.4"/>
        <rect class="cls-3" x="199.24" y="257.53" width="32.65" height="7.4"/>
        <rect class="cls-3" x="199.24" y="272.33" width="32.65" height="7.41"/>
        <rect class="cls-3" x="199.24" y="250.12" width="32.65" height="7.41"/>
        <rect class="cls-3" x="199.24" y="279.74" width="32.65" height="7.4"/>
        <polygon class="cls-3" points="273.73 200.49 273.73 235.31 241.08 235.31 231.89 235.31 199.24 235.31 199.24 200.49 207.25 200.49 226.59 200.49 246.38 200.49 265.72 200.49 273.73 200.49"/>
        <path class="cls-3" d="M201.73,335.62v-21h0V303.8h-2.5V287.14h74.49V303.8h-8.28a10.78,10.78,0,0,0,10.78,10.78,21,21,0,0,0-21,21h18.52v4.95H199.24v-4.95Z"/>
        <path class="cls-3" d="M201.74,303.8v10.78h0A10.77,10.77,0,0,1,191,303.8h10.78Z"/>
        <path class="cls-3" d="M201.73,314.58v21h-21A21,21,0,0,1,201.73,314.58Z"/>
        <polygon class="cls-3" points="199.24 235.31 174.69 266.32 150.13 235.31 199.24 235.31"/>
        <polygon class="cls-3" points="199.24 287.14 199.24 297.32 174.69 266.32 199.24 235.31 199.24 242.72 199.24 250.12 199.24 257.53 199.24 264.93 199.24 272.33 199.24 279.74 199.24 287.14"/>
        <polygon class="cls-3" points="174.69 266.32 199.24 297.32 188.72 297.32 160.64 297.32 150.13 297.32 174.69 266.32"/>
        <polygon class="cls-3" points="174.69 266.32 150.13 297.32 150.13 235.31 174.69 266.32"/>
        <polygon class="cls-3" points="150.13 235.31 150.13 297.32 134.58 297.32 134.58 209.25 150.13 209.25 150.13 235.31"/>
        <path class="cls-3" d="M3.43,225.08H36.19A35.26,35.26,0,0,1,3.43,260.26c-.82.06-1.66.09-2.5.09V225.08Z"/>
        <path class="cls-3" d="M199.24,335.62v4.95H3.43V260.26a35.26,35.26,0,0,0,32.76-35.18H3.43V209.25H134.58v88.07h64.66v6.48H191a10.77,10.77,0,0,0,10.77,10.78,21,21,0,0,0-21,21Z"/>
      </g>
      <g>
        <path class="cls-4" d="M937.48,185v21.16a23.66,23.66,0,0,1-23.67-23.66h23.67Z"/>
        <path class="cls-4" d="M913.81,182.51a23.66,23.66,0,0,1-23.66,23.66V182.51Z"/>
        <path class="cls-4" d="M3.43,27H36.19A35.26,35.26,0,0,1,3.43,62.15c-.82.06-1.66.09-2.5.09V27Z"/>
        <path class="cls-4" d="M89.65,182.94H.93V94.24c.84,0,1.67,0,2.5,0A88.71,88.71,0,0,1,89.65,182.94Z"/>
        <path class="cls-4" d="M272.45,14.71l116.86.88h65.25V67.42H860.39V98.48h-9.32V185h39.08v21.16a23.66,23.66,0,0,0,23.66-23.66,23.66,23.66,0,0,0,23.67,23.66V185h23.33V338.14H836.06V348.5H452.49v-7.93H411.15v7.93H377.91V329h2.5V300.48q-1.26,0-2.49.12V261.28H273.73V185H199.24v50.3H150.13V209.25H3.43V182.94H89.65A88.71,88.71,0,0,0,3.43,94.28V62.15A35.26,35.26,0,0,0,36.19,27H3.43V9.3H70.76v-6h55v6h28.45v-6h63.35v6h38.68v5.41Z"/>
      </g>
    </g>
    <g id="Resi_stroke_detail_-_hide_" data-name="Resi stroke detail - hide?" class="cls-5">
      <line class="cls-6" x1="199.24" y1="303.8" x2="199.24" y2="235.31"/>
      <line class="cls-7" x1="265.72" y1="200.49" x2="273.73" y2="200.49"/>
      <line class="cls-8" x1="246.38" y1="201.99" x2="265.72" y2="201.99"/>
      <line class="cls-7" x1="226.59" y1="200.49" x2="246.38" y2="200.49"/>
      <line class="cls-8" x1="207.25" y1="201.99" x2="226.59" y2="201.99"/>
      <line class="cls-7" x1="199.24" y1="200.49" x2="207.25" y2="200.49"/>
      <line class="cls-6" x1="273.73" y1="261.28" x2="273.73" y2="303.8"/>
      <line class="cls-6" x1="199.24" y1="340.57" x2="199.24" y2="335.62"/>
      <line class="cls-6" x1="273.73" y1="335.62" x2="273.73" y2="340.57"/>
      <line class="cls-6" x1="273.73" y1="340.57" x2="273.73" y2="335.62"/>
      <polyline class="cls-6" points="150.13 235.31 150.13 297.32 160.64 297.32"/>
      <polyline class="cls-6" points="188.72 297.32 199.24 297.32 199.24 235.31"/>
      <line class="cls-8" x1="160.64" y1="299.82" x2="188.72" y2="299.82"/>
      <line class="cls-6" x1="150.13" y1="235.31" x2="150.13" y2="297.32"/>
      <path class="cls-8" d="M201.74,335.62h-21a21,21,0,0,1,21-21Z"/>
      <path class="cls-8" d="M201.74,303.8H191a10.77,10.77,0,0,0,10.77,10.78h0Z"/>
      <path class="cls-8" d="M276.23,335.62h-21a21,21,0,0,1,21-21Z"/>
      <path class="cls-8" d="M276.23,314.58a10.78,10.78,0,0,1-10.78-10.78h10.78Z"/>
      <rect class="cls-8" x="199.24" y="235.31" width="32.65" height="7.4"/>
      <rect class="cls-8" x="199.24" y="242.72" width="32.65" height="7.4"/>
      <rect class="cls-8" x="199.24" y="250.12" width="32.65" height="7.4"/>
      <rect class="cls-8" x="199.24" y="257.53" width="32.65" height="7.4"/>
      <rect class="cls-8" x="199.24" y="264.93" width="32.65" height="7.4"/>
      <rect class="cls-8" x="199.24" y="272.34" width="32.65" height="7.4"/>
      <rect class="cls-8" x="199.24" y="279.74" width="32.65" height="7.4"/>
      <rect class="cls-8" x="241.08" y="235.31" width="32.65" height="7.4"/>
      <rect class="cls-8" x="241.08" y="242.72" width="32.65" height="7.4"/>
      <rect class="cls-8" x="241.08" y="250.12" width="32.65" height="7.4"/>
      <rect class="cls-8" x="241.08" y="257.53" width="32.65" height="7.4"/>
      <rect class="cls-8" x="241.08" y="264.93" width="32.65" height="7.4"/>
      <rect class="cls-8" x="241.08" y="272.34" width="32.65" height="7.4"/>
      <rect class="cls-8" x="241.08" y="279.74" width="32.65" height="7.4"/>
      <rect class="cls-8" x="231.89" y="235.31" width="9.2" height="51.83"/>
      <line class="cls-8" x1="150.13" y1="235.31" x2="199.24" y2="297.32"/>
      <line class="cls-8" x1="150.13" y1="297.32" x2="199.24" y2="235.31"/>
      <line class="cls-7" x1="366.8" y1="290.76" x2="377.91" y2="290.76"/>
      <line class="cls-8" x1="284.85" y1="292.26" x2="366.8" y2="292.26"/>
      <line class="cls-7" x1="273.73" y1="290.76" x2="284.85" y2="290.76"/>
      <path class="cls-8" d="M380.41,329h-28.5a28.51,28.51,0,0,1,28.5-28.51Z"/>
      <rect class="cls-8" x="134.58" y="209.25" width="15.54" height="90.57"/>
      <path class="cls-8" d="M.93,225.08H36.19A35.27,35.27,0,0,1,.93,260.35Z"/>
    </g>
    <g id="Stroke">
      <polyline class="cls-6" points="199.24 235.31 199.24 200.49 199.24 185.01 273.73 185.01 273.73 200.49 273.73 235.31 273.73 242.72 273.73 250.12 273.73 257.53 273.73 261.28 295.3 261.23"/>
      <line class="cls-6" x1="273.73" y1="340.57" x2="199.24" y2="340.57"/>
      <polyline class="cls-6" points="377.91 300.48 377.91 261.28 273.73 261.28"/>
      <polyline class="cls-6" points="377.91 328.99 377.91 340.57 273.73 340.57"/>
      <polyline class="cls-6" points="150.13 235.31 199.24 235.31 199.24 227.15"/>
      <polyline class="cls-6" points="389.31 88.39 389.31 15.59 454.56 15.59 454.56 67.42 860.39 67.42 860.39 98.48 851.07 98.48 851.07 185.01 890.15 185.01"/>
      <polyline class="cls-6" points="937.48 185.01 960.81 185.01 960.81 338.14 836.06 338.14 836.06 348.5 452.49 348.5 452.49 340.57 411.15 340.57 411.15 348.5 377.91 348.5 377.91 340.57"/>
      <polyline class="cls-6" points="3.43 260.35 3.43 340.57 150.13 340.57"/>
      <polyline class="cls-6" points="3.43 225.08 3.43 209.25 150.13 209.25 150.13 235.31 159.27 235.31"/>
      <line class="cls-6" x1="150.13" y1="340.57" x2="199.24" y2="340.57"/>
      <polyline class="cls-6" points="3.43 26.97 3.43 9.3 70.76 9.3 70.76 3.3 125.77 3.3 125.77 9.3 154.22 9.3 154.22 3.3 217.57 3.3 217.57 9.3 256.25 9.3 256.25 14.71 272.45 14.71 272.45 88.61"/>
      <line class="cls-6" x1="3.43" y1="94.24" x2="3.43" y2="62.24"/>
      <line class="cls-6" x1="3.43" y1="209.25" x2="3.43" y2="182.94"/>
      <line class="cls-6" x1="389.83" y1="15.6" x2="272.45" y2="14.72"/>
      <line class="cls-6" x1="450.43" y1="177.72" x2="450.43" y2="264.04"/>
      <line class="cls-6" x1="377.91" y1="261.29" x2="409.06" y2="261.29"/>
      <polyline class="cls-6" points="454.56 15.6 963.82 15.6 960.81 185.01"/>
      <line class="cls-6" x1="273.73" y1="185.01" x2="273.73" y2="177.72"/>
      <path class="cls-8" d="M913.81,182.51a23.66,23.66,0,0,1-23.66,23.66V182.51Zm23.67,0v23.66a23.66,23.66,0,0,1-23.67-23.66Z"/>
      <path class="cls-8" d="M.93,27H36.19A35.27,35.27,0,0,1,.93,62.24Z"/>
      <path class="cls-8" d="M.93,94.24a88.71,88.71,0,0,1,88.72,88.7H.93Z"/>
    </g>
    <g id="Soft_spot" data-name="Soft spot">
      <g class="cls-9">
        <g>
          <line class="cls-10" x1="266.78" y1="22.24" x2="263.28" y2="22.24"/>
          <line class="cls-11" x1="261.23" y1="22.24" x2="151.33" y2="22.24"/>
          <polyline class="cls-10" points="150.3 22.24 146.8 22.24 146.8 25.74"/>
          <line class="cls-12" x1="146.8" y1="27.84" x2="146.8" y2="83.56"/>
          <polyline class="cls-10" points="146.8 84.61 146.8 88.11 150.3 88.11"/>
          <line class="cls-11" x1="152.36" y1="88.11" x2="262.26" y2="88.11"/>
          <line class="cls-10" x1="263.28" y1="88.11" x2="266.78" y2="88.11"/>
        </g>
      </g>
      <g class="cls-9">
        <g>
          <line class="cls-10" x1="278.12" y1="88.11" x2="281.62" y2="88.11"/>
          <line class="cls-13" x1="283.54" y1="88.11" x2="377.76" y2="88.11"/>
          <polyline class="cls-10" points="378.73 88.11 382.23 88.11 382.23 84.61"/>
          <line class="cls-12" x1="382.22" y1="82.51" x2="382.22" y2="26.79"/>
          <polyline class="cls-10" points="382.23 25.74 382.23 22.24 378.73 22.24"/>
          <line class="cls-13" x1="376.8" y1="22.24" x2="282.58" y2="22.24"/>
          <line class="cls-10" x1="281.62" y1="22.24" x2="278.12" y2="22.24"/>
        </g>
      </g>
      <g class="cls-9">
        <g>
          <polyline class="cls-10" points="157.21 224.73 157.21 228.23 160.71 228.23"/>
          <line class="cls-14" x1="162.64" y1="228.23" x2="187.69" y2="228.23"/>
          <polyline class="cls-10" points="188.66 228.23 192.16 228.23 192.16 224.73"/>
          <line class="cls-15" x1="192.15" y1="222.71" x2="192.15" y2="187.45"/>
          <polyline class="cls-10" points="192.16 186.44 192.16 182.94 188.66 182.94"/>
          <line class="cls-14" x1="186.73" y1="182.94" x2="161.68" y2="182.94"/>
          <polyline class="cls-10" points="160.71 182.94 157.21 182.94 157.21 186.44"/>
          <line class="cls-15" x1="157.21" y1="188.46" x2="157.21" y2="223.72"/>
        </g>
      </g>
      <g class="cls-9">
        <g>
          <polyline class="cls-10" points="443.34 181.72 443.34 178.22 439.84 178.22"/>
          <line class="cls-16" x1="437.83" y1="178.22" x2="285.32" y2="178.22"/>
          <polyline class="cls-10" points="284.32 178.22 280.82 178.22 280.82 181.72"/>
          <line class="cls-17" x1="280.82" y1="183.84" x2="280.82" y2="249.63"/>
          <polyline class="cls-10" points="280.82 250.7 280.82 254.2 284.32 254.2"/>
          <line class="cls-16" x1="286.32" y1="254.2" x2="438.84" y2="254.2"/>
          <polyline class="cls-10" points="439.84 254.2 443.34 254.2 443.34 250.7"/>
          <line class="cls-17" x1="443.34" y1="248.57" x2="443.34" y2="182.78"/>
        </g>
      </g>
      <g class="cls-9">
        <g>
          <polyline class="cls-10" points="513.72 200.04 513.72 196.54 510.21 196.54"/>
          <line class="cls-18" x1="508.13" y1="196.54" x2="462.36" y2="196.54"/>
          <polyline class="cls-10" points="461.32 196.54 457.82 196.54 457.82 200.04"/>
          <line class="cls-19" x1="457.82" y1="201.94" x2="457.82" y2="235.17"/>
          <polyline class="cls-10" points="457.82 236.12 457.82 239.62 461.32 239.62"/>
          <line class="cls-18" x1="463.4" y1="239.62" x2="509.17" y2="239.62"/>
          <polyline class="cls-10" points="510.21 239.62 513.72 239.62 513.72 236.12"/>
          <line class="cls-19" x1="513.72" y1="234.22" x2="513.72" y2="200.99"/>
        </g>
      </g>
      <g class="cls-9">
        <g>
          <polyline class="cls-10" points="447.38 25.74 447.38 22.24 443.88 22.24"/>
          <line class="cls-20" x1="442.01" y1="22.24" x2="400.78" y2="22.24"/>
          <polyline class="cls-10" points="399.85 22.24 396.35 22.24 396.35 25.74"/>
          <line class="cls-12" x1="396.35" y1="27.84" x2="396.35" y2="83.56"/>
          <polyline class="cls-10" points="396.35 84.61 396.35 88.11 399.85 88.11"/>
          <line class="cls-20" x1="401.72" y1="88.11" x2="442.95" y2="88.11"/>
          <polyline class="cls-10" points="443.88 88.11 447.38 88.11 447.38 84.61"/>
          <line class="cls-12" x1="447.38" y1="82.51" x2="447.38" y2="26.79"/>
        </g>
      </g>
    </g>
    <g id="Layer_9" data-name="Layer 9">
      <g>
        <path class="cls-3" d="M169,201.29h4.28v.7h-5v-8H169Z"/>
        <path class="cls-3" d="M174.81,194v1.1h-.7V194Zm0,2.08V202h-.7v-5.88Z"/>
        <path class="cls-3" d="M176.66,195.37c0-1,.25-1.34,1.39-1.34h.49v.63h-.35c-.75,0-.84.07-.84.81v.64h1.19v.6h-1.19V202h-.69v-5.28h-.83v-.6h.83Zm3.18-.72h.69v1.46h1.19v.6h-1.19v3.72c0,.78,0,.94.83.94h.36V202h-.58c-1.06,0-1.3-.24-1.3-1.43v-3.85h-1v-.6h1Z"/>
        <path class="cls-3" d="M166.92,212.13a1.53,1.53,0,0,0-1.6-1.1c-.59,0-1.48.22-1.48.95s.45.86,1.08,1l.84.16c1,.18,2,.48,2,1.62s-1.08,1.79-2.37,1.79a2.2,2.2,0,0,1-2.38-1.88l.72-.09a1.61,1.61,0,0,0,1.72,1.36c.66,0,1.61-.27,1.61-1.08s-.62-.91-1.44-1.06l-.93-.18c-.87-.17-1.59-.64-1.59-1.58s.93-1.6,2.28-1.6a2.11,2.11,0,0,1,2.23,1.62Z"/>
        <path class="cls-3" d="M169.84,211.52a2.07,2.07,0,0,1,2-1.1,1.92,1.92,0,0,1,1.56.62,2.64,2.64,0,0,1,.46,1.69v3.66h-.7v-3.48a2.37,2.37,0,0,0-.33-1.41,1.36,1.36,0,0,0-1.17-.47,1.91,1.91,0,0,0-1.81,2.13v3.23h-.69v-8h.69Z"/>
        <path class="cls-3" d="M175.13,212.23c.08-1.14,1-1.81,2.34-1.81s2.21.45,2.21,2c0,1.07,0,1.58,0,2.06,0,.69,0,1.27.07,1.92H179l0-.91a2.07,2.07,0,0,1-2,1.05,1.83,1.83,0,0,1-2-1.83,1.48,1.48,0,0,1,.63-1.26,5.55,5.55,0,0,1,2.26-.58l1.17-.12v-.34c0-1.19-.76-1.37-1.58-1.37-1,0-1.5.52-1.55,1.22Zm3.89,1.1-1.28.13c-1.43.15-2.09.46-2.09,1.26s.58,1.2,1.44,1.2c1,0,1.93-.62,1.93-2.23Z"/>
        <path class="cls-3" d="M181.35,209.77c0-1,.25-1.34,1.39-1.34h.49v.63h-.35c-.75,0-.83.07-.83.81v.64h1.18v.6h-1.18v5.28h-.7v-5.28h-.83v-.6h.83Zm3.18-.72h.69v1.46h1.19v.6h-1.19v3.72c0,.78,0,.94.83.94h.36v.62h-.57c-1.07,0-1.31-.24-1.31-1.43v-3.85h-1v-.6h1Z"/>
      </g>
      <g>
        <path class="cls-3" d="M479.28,206.49a2.82,2.82,0,0,1,3,2.07l-.78.09a2.14,2.14,0,0,0-2.3-1.46c-.82,0-2,.32-2,1.37,0,.82.67,1.2,1.55,1.39l1,.22c1.17.26,2.72.71,2.72,2.24s-1.41,2.33-3,2.33c-2,0-3.13-1.15-3.31-2.5l.77-.08a2.29,2.29,0,0,0,2.5,1.87c.89,0,2.23-.29,2.23-1.5,0-1-1-1.39-2.09-1.64l-1-.23c-1.07-.24-2.13-.74-2.13-2.06C476.47,207.1,478,206.49,479.28,206.49Z"/>
        <path class="cls-3" d="M486.06,208.62c1.39,0,2.71.94,2.71,3.06s-1.32,3.06-2.71,3.06-2.71-.94-2.71-3.06S484.67,208.62,486.06,208.62Zm0,5.51c1.1,0,2-.8,2-2.45s-.88-2.45-2-2.45-2,.79-2,2.45S485,214.13,486.06,214.13Z"/>
        <path class="cls-3" d="M490.15,208c0-1,.25-1.34,1.39-1.34h.5v.64h-.35c-.76,0-.84.07-.84.8v.65H492v.6h-1.19v5.27h-.7v-5.27h-.83v-.6h.83Zm3.18-.72h.7v1.47h1.18v.6H494V213c0,.78,0,.94.82.94h.36v.62h-.57c-1.07,0-1.31-.24-1.31-1.42v-3.85h-1v-.6h1Z"/>
        <path class="cls-3" d="M479.31,224.74a1.54,1.54,0,0,0-1.61-1.11c-.59,0-1.47.22-1.47,1s.44.86,1.08,1l.84.16c1,.18,2,.48,2,1.62s-1.08,1.8-2.36,1.8a2.21,2.21,0,0,1-2.39-1.89l.72-.09a1.63,1.63,0,0,0,1.73,1.37c.66,0,1.61-.28,1.61-1.08s-.63-.91-1.44-1.07l-.94-.18c-.86-.17-1.58-.64-1.58-1.57s.92-1.61,2.28-1.61a2.12,2.12,0,0,1,2.23,1.62Zm2.88,3.35a2.09,2.09,0,0,0,1.9,1c1.47,0,2.56-1.14,2.56-3s-1.06-3.07-2.44-3.07a2.21,2.21,0,0,0-2,1.08v-1h-.69v7.95h.7Zm3.73-2c0,1.52-.75,2.44-1.85,2.44s-1.93-.74-1.93-2.44,1-2.46,1.93-2.46C485.19,223.63,485.92,224.56,485.92,226.09Z"/>
        <path class="cls-3" d="M490.21,223c1.39,0,2.71.94,2.71,3.06s-1.32,3.06-2.71,3.06-2.72-.94-2.72-3.06S488.81,223,490.21,223Zm0,5.51c1.1,0,2-.8,2-2.45s-.87-2.45-2-2.45-2,.79-2,2.45S489.1,228.53,490.21,228.53Z"/>
        <path class="cls-3" d="M494.41,221.65h.69v1.47h1.19v.6H495.1v3.71c0,.78,0,.94.83.94h.36V229h-.58c-1.06,0-1.3-.24-1.3-1.42v-3.85h-1v-.6h1Z"/>
      </g>
      <g>
        <path class="cls-3" d="M314.15,211.4a2.83,2.83,0,0,1,3,2.07l-.78.08a2.15,2.15,0,0,0-2.31-1.45c-.81,0-1.95.31-1.95,1.37,0,.82.67,1.2,1.55,1.39l1,.22c1.17.26,2.72.7,2.72,2.24s-1.42,2.33-3,2.33a3,3,0,0,1-3.31-2.5l.78-.08a2.29,2.29,0,0,0,2.5,1.87c.88,0,2.23-.29,2.23-1.5,0-1-1-1.39-2.09-1.64l-1-.23c-1.06-.24-2.12-.74-2.12-2.06C311.34,212,312.85,211.4,314.15,211.4Z"/>
        <path class="cls-3" d="M320.93,213.53c1.39,0,2.71.94,2.71,3.06s-1.32,3.06-2.71,3.06-2.71-.94-2.71-3.06S319.54,213.53,320.93,213.53Zm0,5.5c1.1,0,2-.79,2-2.44s-.88-2.45-2-2.45-2,.79-2,2.45S319.82,219,320.93,219Z"/>
        <path class="cls-3" d="M325,212.88c0-1,.25-1.34,1.39-1.34h.49v.63h-.35c-.75,0-.83.08-.83.81v.65h1.18v.6h-1.18v5.27H325v-5.27h-.83v-.6H325Zm3.18-.72h.69v1.47h1.19v.6h-1.19v3.71c0,.78,0,.94.83.94h.36v.62h-.57c-1.07,0-1.31-.24-1.31-1.42v-3.85h-1v-.6h1Z"/>
        <path class="cls-3" d="M337.51,215.24a1.54,1.54,0,0,0-1.61-1.1c-.59,0-1.47.22-1.47,1s.44.86,1.08,1l.84.16c1,.18,2,.48,2,1.62s-1.08,1.8-2.36,1.8a2.22,2.22,0,0,1-2.39-1.89l.72-.09a1.62,1.62,0,0,0,1.73,1.36c.66,0,1.61-.27,1.61-1.07s-.63-.92-1.44-1.07l-.94-.18c-.86-.17-1.58-.64-1.58-1.57s.92-1.61,2.28-1.61a2.12,2.12,0,0,1,2.23,1.62Zm2.88,3.36a2.09,2.09,0,0,0,1.9,1.05c1.47,0,2.56-1.14,2.56-3.05s-1.06-3.07-2.43-3.07a2.22,2.22,0,0,0-2,1.08v-1h-.69v8h.7Zm3.73-2c0,1.52-.75,2.43-1.85,2.43s-1.93-.73-1.93-2.43,1-2.46,1.93-2.46C343.39,214.14,344.12,215.06,344.12,216.6Z"/>
        <path class="cls-3" d="M348.41,213.53c1.39,0,2.71.94,2.71,3.06s-1.32,3.06-2.71,3.06-2.71-.94-2.71-3.06S347,213.53,348.41,213.53Zm0,5.5c1.1,0,2-.79,2-2.44s-.87-2.45-2-2.45-2,.79-2,2.45S347.3,219,348.41,219Z"/>
        <path class="cls-3" d="M352.61,212.16h.69v1.47h1.19v.6H353.3v3.71c0,.78,0,.94.83.94h.36v.62h-.58c-1.06,0-1.3-.24-1.3-1.42v-3.85h-1v-.6h1Z"/>
        <path class="cls-3" d="M358.5,212.88c0-1,.25-1.34,1.39-1.34h.49v.63H360c-.75,0-.84.08-.84.81v.65h1.19v.6h-1.19v5.27h-.69v-5.27h-.83v-.6h.83Z"/>
        <path class="cls-3" d="M363.5,213.53c1.39,0,2.71.94,2.71,3.06s-1.32,3.06-2.71,3.06-2.71-.94-2.71-3.06S362.11,213.53,363.5,213.53Zm0,5.5c1.11,0,2-.79,2-2.44s-.87-2.45-2-2.45-2,.79-2,2.45S362.4,219,363.5,219Z"/>
        <path class="cls-3" d="M370,214.33h-.32c-1.23,0-1.52.89-1.52,2.16v3h-.68v-5.87h.66v1a1.68,1.68,0,0,1,1.65-1H370Z"/>
        <path class="cls-3" d="M377.13,215.24a1.53,1.53,0,0,0-1.6-1.1c-.59,0-1.48.22-1.48,1s.44.86,1.08,1l.84.16c1,.18,2,.48,2,1.62s-1.08,1.8-2.37,1.8a2.21,2.21,0,0,1-2.38-1.89l.72-.09a1.6,1.6,0,0,0,1.72,1.36c.66,0,1.61-.27,1.61-1.07s-.62-.92-1.44-1.07l-.93-.18c-.87-.17-1.59-.64-1.59-1.57s.93-1.61,2.28-1.61a2.11,2.11,0,0,1,2.23,1.62Zm2.46-3.08h.7v1.47h1.18v.6h-1.18v3.71c0,.78,0,.94.82.94h.36v.62h-.57c-1.07,0-1.31-.24-1.31-1.42v-3.85h-1v-.6h1Z"/>
        <path class="cls-3" d="M382.46,215.34c.08-1.14,1-1.81,2.34-1.81s2.21.46,2.21,2c0,1.07,0,1.58,0,2.06,0,.69,0,1.27.07,1.92h-.7l-.05-.91a2,2,0,0,1-2,1.06,1.83,1.83,0,0,1-2-1.84,1.49,1.49,0,0,1,.63-1.26,5.39,5.39,0,0,1,2.26-.57l1.17-.12v-.35c0-1.19-.76-1.37-1.58-1.37-1,0-1.5.52-1.55,1.22Zm3.89,1.1-1.28.14c-1.43.14-2.09.45-2.09,1.26s.57,1.19,1.44,1.19c1,0,1.93-.62,1.93-2.23Z"/>
        <path class="cls-3" d="M389.21,211.54v1.1h-.7v-1.1Zm0,2.09v5.87h-.7v-5.87Z"/>
        <path class="cls-3" d="M393.41,214.33h-.32c-1.23,0-1.52.89-1.52,2.16v3h-.68v-5.87h.66v1a1.68,1.68,0,0,1,1.65-1h.21Z"/>
        <path class="cls-3" d="M399,215.4l-.72.1a1.7,1.7,0,0,0-1.78-1.35c-1,0-1.94.83-1.94,2.43s.91,2.44,2,2.44a1.73,1.73,0,0,0,1.81-1.34l.72.1a2.44,2.44,0,0,1-2.56,1.87c-1.7,0-2.66-1.27-2.66-3.06s1-3.06,2.75-3.06A2.37,2.37,0,0,1,399,215.4Z"/>
        <path class="cls-3" d="M399.86,215.34c.07-1.14,1-1.81,2.34-1.81s2.21.46,2.21,2c0,1.07,0,1.58,0,2.06,0,.69,0,1.27.07,1.92h-.7l0-.91a2.06,2.06,0,0,1-2,1.06,1.83,1.83,0,0,1-2-1.84,1.49,1.49,0,0,1,.63-1.26,5.39,5.39,0,0,1,2.26-.57l1.17-.12v-.35c0-1.19-.77-1.37-1.58-1.37-1,0-1.5.52-1.55,1.22Zm3.89,1.1-1.29.14c-1.42.14-2.08.45-2.08,1.26S401,219,401.82,219c1,0,1.93-.62,1.93-2.23Z"/>
        <path class="cls-3" d="M409.4,215.24a1.53,1.53,0,0,0-1.61-1.1c-.58,0-1.47.22-1.47,1s.44.86,1.08,1l.84.16c1,.18,2,.48,2,1.62s-1.08,1.8-2.36,1.8a2.22,2.22,0,0,1-2.39-1.89l.72-.09A1.62,1.62,0,0,0,408,219c.66,0,1.61-.27,1.61-1.07s-.63-.92-1.44-1.07l-.94-.18c-.86-.17-1.58-.64-1.58-1.57s.92-1.61,2.28-1.61a2.12,2.12,0,0,1,2.23,1.62Z"/>
        <path class="cls-3" d="M411.15,216.59a2.77,2.77,0,0,1,2.8-3.06c1.7,0,2.75,1.33,2.65,3.2h-4.73A2.08,2.08,0,0,0,414,219a1.79,1.79,0,0,0,1.85-1.32l.72.1a2.51,2.51,0,0,1-2.62,1.85C412.16,219.65,411.15,218.39,411.15,216.59Zm.74-.46h3.95a1.9,1.9,0,0,0-1.9-2A2,2,0,0,0,411.89,216.13Z"/>
      </g>
      <g>
        <path class="cls-4" d="M566.73,36.64c2.57,0,4.62.88,4.62,4s-2.05,4-4.62,4h-1.61v-8Zm0,.7h-.84v6.57h.84c1.83,0,3.85-.3,3.85-3.28S568.54,37.34,566.71,37.34Z"/>
        <path class="cls-4" d="M572.11,41.69a2.77,2.77,0,0,1,2.79-3.06c1.7,0,2.75,1.34,2.65,3.21h-4.72a2.08,2.08,0,0,0,2.1,2.29,1.78,1.78,0,0,0,1.84-1.32l.72.09a2.48,2.48,0,0,1-2.61,1.85C573.11,44.75,572.11,43.49,572.11,41.69Zm.73-.45h4a1.92,1.92,0,0,0-1.91-2A2,2,0,0,0,572.84,41.24Z"/>
        <path class="cls-4" d="M583.5,44.61h-.68v-.94a2.22,2.22,0,0,1-2,1.08c-1.38,0-2.43-1.14-2.43-3.07s1.09-3,2.55-3a2.1,2.1,0,0,1,1.91,1v-3h.69Zm-.64-2.93c0-1.7-1-2.43-1.93-2.43-1.11,0-1.85.91-1.85,2.43s.73,2.46,1.85,2.46C581.84,44.14,582.86,43.38,582.86,41.68Z"/>
        <path class="cls-4" d="M585.88,36.64v1.11h-.69V36.64Zm0,2.09v5.88h-.69V38.73Z"/>
        <path class="cls-4" d="M592.26,40.51l-.72.09a1.68,1.68,0,0,0-1.77-1.34c-1,0-1.94.83-1.94,2.42s.91,2.45,1.95,2.45a1.73,1.73,0,0,0,1.81-1.35l.72.1a2.42,2.42,0,0,1-2.55,1.87c-1.71,0-2.67-1.27-2.67-3.06s1-3.06,2.75-3.06A2.36,2.36,0,0,1,592.26,40.51Z"/>
        <path class="cls-4" d="M593.18,40.45c.07-1.14,1-1.82,2.34-1.82s2.2.46,2.2,2c0,1.06,0,1.58,0,2.06,0,.68,0,1.27.07,1.92h-.69L597,43.7a2.07,2.07,0,0,1-2,1,1.83,1.83,0,0,1-2-1.83,1.45,1.45,0,0,1,.64-1.26,5.17,5.17,0,0,1,2.25-.58L597,41v-.35c0-1.18-.77-1.36-1.58-1.36-1,0-1.5.51-1.55,1.22Zm3.88,1.1-1.28.13c-1.43.14-2.09.46-2.09,1.26s.58,1.2,1.44,1.2c1,0,1.93-.62,1.93-2.23Z"/>
        <path class="cls-4" d="M599.5,37.27h.7v1.46h1.18v.6H600.2v3.72c0,.78,0,.93.83.93h.35v.63h-.57c-1.07,0-1.31-.24-1.31-1.43V39.33h-1v-.6h1Z"/>
        <path class="cls-4" d="M602.12,41.69a2.77,2.77,0,0,1,2.79-3.06c1.71,0,2.75,1.34,2.65,3.21h-4.72a2.08,2.08,0,0,0,2.1,2.29,1.77,1.77,0,0,0,1.84-1.32l.72.09a2.48,2.48,0,0,1-2.61,1.85C603.13,44.75,602.12,43.49,602.12,41.69Zm.73-.45h4a1.92,1.92,0,0,0-1.91-2A2,2,0,0,0,602.85,41.24Z"/>
        <path class="cls-4" d="M613.51,44.61h-.68v-.94a2.22,2.22,0,0,1-2,1.08c-1.38,0-2.43-1.14-2.43-3.07s1.09-3,2.55-3a2.1,2.1,0,0,1,1.91,1v-3h.69Zm-.64-2.93c0-1.7-1-2.43-1.93-2.43-1.11,0-1.85.91-1.85,2.43s.73,2.46,1.85,2.46C611.85,44.14,612.87,43.38,612.87,41.68Z"/>
        <path class="cls-4" d="M617.37,41.69a2.77,2.77,0,0,1,2.79-3.06c1.71,0,2.75,1.34,2.65,3.21h-4.72a2.08,2.08,0,0,0,2.1,2.29A1.79,1.79,0,0,0,622,42.81l.71.09a2.48,2.48,0,0,1-2.61,1.85C618.38,44.75,617.37,43.49,617.37,41.69Zm.73-.45h4a1.92,1.92,0,0,0-1.91-2A2,2,0,0,0,618.1,41.24Z"/>
        <path class="cls-4" d="M626.12,41.56l2.21,3h-.81l-1.81-2.47-1.79,2.47h-.8l2.19-3-2.07-2.85h.83L625.72,41l1.67-2.29h.78Z"/>
        <path class="cls-4" d="M629.51,37.27h.7v1.46h1.19v.6h-1.19v3.72c0,.78,0,.93.83.93h.36v.63h-.58c-1.07,0-1.31-.24-1.31-1.43V39.33h-1v-.6h1Z"/>
        <path class="cls-4" d="M632.13,41.69a2.78,2.78,0,0,1,2.79-3.06c1.71,0,2.75,1.34,2.66,3.21h-4.73a2.08,2.08,0,0,0,2.1,2.29,1.77,1.77,0,0,0,1.84-1.32l.72.09a2.48,2.48,0,0,1-2.61,1.85C633.14,44.75,632.13,43.49,632.13,41.69Zm.73-.45h4a1.92,1.92,0,0,0-1.91-2A2,2,0,0,0,632.86,41.24Z"/>
        <path class="cls-4" d="M641.3,39.44H641c-1.23,0-1.52.88-1.52,2.15v3h-.68V38.73h.66v1a1.67,1.67,0,0,1,1.65-1.06h.21Z"/>
        <path class="cls-4" d="M643,39.74a2.06,2.06,0,0,1,2-1.11,1.89,1.89,0,0,1,1.56.63A2.6,2.6,0,0,1,647,41v3.66h-.7V41.13a2.41,2.41,0,0,0-.33-1.42,1.37,1.37,0,0,0-1.17-.46A1.91,1.91,0,0,0,643,41.38v3.23h-.69V38.73H643Z"/>
        <path class="cls-4" d="M648.25,40.45c.07-1.14,1-1.82,2.33-1.82s2.21.46,2.21,2c0,1.06,0,1.58,0,2.06,0,.68,0,1.27.07,1.92h-.69l0-.91a2.07,2.07,0,0,1-2,1,1.83,1.83,0,0,1-2-1.83,1.45,1.45,0,0,1,.64-1.26,5.17,5.17,0,0,1,2.25-.58L652.1,41v-.35c0-1.18-.77-1.36-1.59-1.36-1,0-1.5.51-1.55,1.22Zm3.88,1.1-1.28.13c-1.43.14-2.09.46-2.09,1.26s.58,1.2,1.44,1.2c1,0,1.93-.62,1.93-2.23Z"/>
        <path class="cls-4" d="M655,44.61h-.7v-8h.7Z"/>
        <path class="cls-4" d="M660,46.68h-.69v-8H660v1a2.22,2.22,0,0,1,2-1.08c1.38,0,2.44,1.14,2.44,3.08s-1.09,3-2.56,3a2.1,2.1,0,0,1-1.91-1Zm0-5c0,1.7,1,2.43,1.93,2.43s1.84-.91,1.84-2.43-.73-2.46-1.84-2.46C661,39.25,660,40,660,41.71Z"/>
        <path class="cls-4" d="M666.38,44.61h-.7v-8h.7Z"/>
        <path class="cls-4" d="M667.84,40.45c.07-1.14,1-1.82,2.34-1.82s2.21.46,2.21,2c0,1.06,0,1.58,0,2.06,0,.68,0,1.27.07,1.92h-.7l0-.91a2.06,2.06,0,0,1-2,1,1.83,1.83,0,0,1-2-1.83,1.48,1.48,0,0,1,.64-1.26,5.18,5.18,0,0,1,2.26-.58l1.17-.12v-.35c0-1.18-.77-1.36-1.58-1.36-1,0-1.5.51-1.55,1.22Zm3.89,1.1-1.29.13c-1.42.14-2.08.46-2.08,1.26s.57,1.2,1.44,1.2c1,0,1.93-.62,1.93-2.23Z"/>
        <path class="cls-4" d="M674.58,39.74a2.06,2.06,0,0,1,2-1.11,1.89,1.89,0,0,1,1.55.63,2.54,2.54,0,0,1,.46,1.69v3.66h-.7V41.13a2.41,2.41,0,0,0-.33-1.42,1.36,1.36,0,0,0-1.16-.46,1.92,1.92,0,0,0-1.82,2.13v3.23h-.69V38.73h.69Z"/>
        <path class="cls-4" d="M680.37,37.27h.69v1.46h1.19v.6h-1.19v3.72c0,.78,0,.93.83.93h.36v.63h-.57c-1.07,0-1.31-.24-1.31-1.43V39.33h-1v-.6h1Z"/>
        <path class="cls-4" d="M689.68,40.35a1.54,1.54,0,0,0-1.61-1.1c-.59,0-1.47.21-1.47.94s.44.87,1.08,1l.84.15c1,.18,2,.48,2,1.62s-1.08,1.8-2.36,1.8a2.21,2.21,0,0,1-2.39-1.88l.72-.1a1.62,1.62,0,0,0,1.73,1.37c.66,0,1.61-.28,1.61-1.08s-.63-.91-1.44-1.07l-.94-.18c-.86-.16-1.58-.63-1.58-1.57s.92-1.61,2.28-1.61a2.12,2.12,0,0,1,2.23,1.62Zm2.88,3.36a2.08,2.08,0,0,0,1.9,1c1.47,0,2.56-1.14,2.56-3s-1.06-3.08-2.44-3.08a2.21,2.21,0,0,0-2,1.08l0-1h-.68v8h.7Zm3.73-2c0,1.52-.75,2.43-1.85,2.43s-1.93-.73-1.93-2.43,1-2.46,1.93-2.46C695.56,39.25,696.29,40.17,696.29,41.71Z"/>
        <path class="cls-4" d="M698,40.45c.07-1.14,1-1.82,2.34-1.82s2.21.46,2.21,2c0,1.06,0,1.58,0,2.06,0,.68,0,1.27.08,1.92h-.7l0-.91a2.06,2.06,0,0,1-2,1,1.83,1.83,0,0,1-2-1.83,1.48,1.48,0,0,1,.64-1.26,5.18,5.18,0,0,1,2.26-.58l1.17-.12v-.35c0-1.18-.77-1.36-1.58-1.36-1,0-1.5.51-1.55,1.22Zm3.89,1.1-1.29.13c-1.42.14-2.08.46-2.08,1.26s.57,1.2,1.44,1.2c1,0,1.93-.62,1.93-2.23Z"/>
        <path class="cls-4" d="M708.77,40.51l-.72.09a1.69,1.69,0,0,0-1.77-1.34c-1,0-1.95.83-1.95,2.42s.91,2.45,2,2.45a1.73,1.73,0,0,0,1.81-1.35l.72.1a2.43,2.43,0,0,1-2.56,1.87c-1.7,0-2.66-1.27-2.66-3.06s1-3.06,2.75-3.06A2.37,2.37,0,0,1,708.77,40.51Z"/>
        <path class="cls-4" d="M709.49,41.69a2.78,2.78,0,0,1,2.8-3.06c1.7,0,2.74,1.34,2.65,3.21h-4.73a2.08,2.08,0,0,0,2.1,2.29,1.79,1.79,0,0,0,1.85-1.32l.72.09a2.5,2.5,0,0,1-2.62,1.85C710.5,44.75,709.49,43.49,709.49,41.69Zm.73-.45h4a1.91,1.91,0,0,0-1.9-2A2,2,0,0,0,710.22,41.24Z"/>
      </g>
      <rect class="cls-3" x="878.58" y="98.24" width="65.23" height="19.67"/>
      <g>
        <path class="cls-4" d="M894.89,109.9a3.18,3.18,0,0,1-3.39,2.47c-2.31,0-3.58-1.69-3.58-4.13s1.32-4.12,3.62-4.12a3.13,3.13,0,0,1,3.31,2.47l-.78.1a2.42,2.42,0,0,0-2.55-1.87c-1.6,0-2.81,1.19-2.81,3.42s1.15,3.42,2.81,3.42a2.46,2.46,0,0,0,2.59-1.87Z"/>
        <path class="cls-4" d="M898.2,106.25c1.39,0,2.71.94,2.71,3.06s-1.32,3.06-2.71,3.06-2.71-.94-2.71-3.06S896.81,106.25,898.2,106.25Zm0,5.51c1.1,0,2-.8,2-2.45s-.88-2.45-2-2.45-2,.79-2,2.45S897.1,111.76,898.2,111.76Z"/>
        <path class="cls-4" d="M905.86,111.26a2,2,0,0,1-1.92,1.11,1.83,1.83,0,0,1-1.43-.53A2.61,2.61,0,0,1,902,110v-3.68h.69v3.53a2.3,2.3,0,0,0,.36,1.49,1.19,1.19,0,0,0,1,.4,1.93,1.93,0,0,0,1.82-2.14v-3.28h.69v5.87h-.69Z"/>
        <path class="cls-4" d="M910.75,107.05h-.31c-1.23,0-1.52.89-1.52,2.16v3h-.69v-5.87h.66v1a1.7,1.7,0,0,1,1.66-1h.2Z"/>
        <path class="cls-4" d="M912,104.88h.69v1.47h1.19v.6h-1.19v3.71c0,.78,0,.94.83.94h.36v.62h-.57c-1.07,0-1.31-.24-1.31-1.42V107h-1v-.6h1Z"/>
        <path class="cls-4" d="M914.79,114.3v-.61h.39c.57,0,.85-.15,1.16-1l.18-.48-2.29-5.87H915l1.86,4.91,1.81-4.91h.75L917,112.82c-.45,1.17-.72,1.48-1.8,1.48Z"/>
        <path class="cls-4" d="M920,108.06c.07-1.14,1-1.81,2.34-1.81s2.21.46,2.21,2c0,1.07,0,1.58,0,2.06,0,.69,0,1.28.08,1.92h-.7l0-.91a2.06,2.06,0,0,1-2,1.06,1.83,1.83,0,0,1-2-1.84,1.49,1.49,0,0,1,.63-1.26,5.31,5.31,0,0,1,2.26-.57l1.17-.12v-.35c0-1.19-.77-1.37-1.58-1.37-1,0-1.5.52-1.55,1.23Zm3.89,1.11-1.29.13c-1.42.14-2.08.45-2.08,1.26s.57,1.2,1.44,1.2c1,0,1.93-.63,1.93-2.24Z"/>
        <path class="cls-4" d="M928.55,107.05h-.31c-1.24,0-1.53.89-1.53,2.16v3H926v-5.87h.66v1a1.68,1.68,0,0,1,1.65-1h.21Z"/>
        <path class="cls-4" d="M934.08,112.22h-.69v-.93a2.21,2.21,0,0,1-2,1.08c-1.38,0-2.44-1.14-2.44-3.07s1.09-3,2.56-3a2.1,2.1,0,0,1,1.9,1v-3h.7Zm-.65-2.92c0-1.71-1-2.44-1.93-2.44s-1.85.91-1.85,2.44.73,2.46,1.85,2.46C932.41,111.76,933.43,111,933.43,109.3Z"/>
      </g>
      <g>
        <path class="cls-3" d="M415.38,42.76a2.83,2.83,0,0,1,3,2.07l-.78.09a2.14,2.14,0,0,0-2.3-1.46c-.82,0-2,.32-2,1.37,0,.82.67,1.2,1.55,1.39l1,.22c1.17.26,2.72.71,2.72,2.24s-1.42,2.33-3,2.33a3,3,0,0,1-3.31-2.5l.78-.08a2.29,2.29,0,0,0,2.5,1.87c.88,0,2.23-.29,2.23-1.5,0-1-1-1.39-2.09-1.64l-1-.23c-1.06-.24-2.12-.74-2.12-2.06C412.57,43.37,414.08,42.76,415.38,42.76Z"/>
        <path class="cls-3" d="M422.16,44.89c1.39,0,2.71.94,2.71,3.06S423.55,51,422.16,51s-2.71-.94-2.71-3.06S420.77,44.89,422.16,44.89Zm0,5.51c1.1,0,2-.8,2-2.45s-.88-2.45-2-2.45-2,.79-2,2.45S421.05,50.4,422.16,50.4Z"/>
        <path class="cls-3" d="M426.25,44.24c0-1,.25-1.34,1.39-1.34h.49v.64h-.34c-.76,0-.84.07-.84.8V45h1.18v.6H427v5.27h-.7V45.59h-.83V45h.83Zm3.18-.72h.69V45h1.19v.6h-1.19V49.3c0,.78,0,.94.83.94h.36v.62h-.57c-1.07,0-1.31-.24-1.31-1.42V45.59h-1V45h1Z"/>
        <path class="cls-3" d="M415.41,61a1.54,1.54,0,0,0-1.61-1.11c-.59,0-1.48.22-1.48,1s.45.86,1.08,1l.84.16c1,.18,2,.48,2,1.62s-1.08,1.8-2.36,1.8a2.21,2.21,0,0,1-2.39-1.89l.72-.09A1.62,1.62,0,0,0,414,64.8c.66,0,1.6-.28,1.6-1.08s-.62-.91-1.43-1.07l-.94-.18c-.86-.17-1.58-.64-1.58-1.57s.92-1.61,2.28-1.61a2.12,2.12,0,0,1,2.23,1.62Zm2.88,3.35a2.08,2.08,0,0,0,1.9,1c1.47,0,2.56-1.14,2.56-3s-1.06-3.07-2.44-3.07a2.19,2.19,0,0,0-2,1.08l0-1h-.68v8h.7Zm3.73-2c0,1.52-.75,2.44-1.85,2.44s-1.93-.74-1.93-2.44,1-2.46,1.93-2.46C421.28,59.9,422,60.83,422,62.36Z"/>
        <path class="cls-3" d="M426.3,59.29c1.39,0,2.71.94,2.71,3.06s-1.32,3.06-2.71,3.06-2.71-.94-2.71-3.06S424.91,59.29,426.3,59.29Zm0,5.51c1.11,0,2-.8,2-2.45s-.87-2.45-2-2.45-2,.79-2,2.45S425.2,64.8,426.3,64.8Z"/>
        <path class="cls-3" d="M430.5,57.92h.7v1.47h1.19V60H431.2V63.7c0,.78,0,.94.83.94h.36v.62h-.58c-1.07,0-1.31-.24-1.31-1.42V60h-1v-.6h1Z"/>
      </g>
      <g>
        <path class="cls-3" d="M191.73,50a2.83,2.83,0,0,1,3,2.07l-.78.08a2.15,2.15,0,0,0-2.31-1.45c-.81,0-2,.32-2,1.37,0,.82.67,1.2,1.55,1.39l.95.22c1.18.26,2.73.71,2.73,2.24s-1.42,2.33-3,2.33a3,3,0,0,1-3.31-2.5l.78-.08a2.28,2.28,0,0,0,2.49,1.87c.89,0,2.24-.29,2.24-1.5,0-1-1-1.39-2.09-1.64l-1-.23c-1.07-.24-2.12-.74-2.12-2.06C188.92,50.57,190.43,50,191.73,50Z"/>
        <path class="cls-3" d="M198.5,52.09c1.4,0,2.72.94,2.72,3.06s-1.32,3.06-2.72,3.06-2.71-.94-2.71-3.06S197.11,52.09,198.5,52.09Zm0,5.51c1.11,0,2-.8,2-2.45s-.87-2.45-2-2.45-2,.79-2,2.45S197.4,57.6,198.5,57.6Z"/>
        <path class="cls-3" d="M202.6,51.44c0-1,.25-1.34,1.39-1.34h.49v.64h-.35c-.75,0-.84.07-.84.8v.65h1.19v.6h-1.19v5.27h-.69V52.79h-.83v-.6h.83Zm3.18-.72h.69v1.47h1.19v.6h-1.19V56.5c0,.78,0,.94.83.94h.36v.62h-.58c-1.06,0-1.3-.24-1.3-1.42V52.79h-1v-.6h1Z"/>
        <path class="cls-3" d="M215.09,53.81a1.54,1.54,0,0,0-1.61-1.11c-.59,0-1.47.22-1.47.95s.44.86,1.07,1l.84.16c1,.18,2,.48,2,1.62s-1.08,1.8-2.36,1.8a2.21,2.21,0,0,1-2.39-1.89l.72-.09a1.63,1.63,0,0,0,1.73,1.37c.66,0,1.61-.28,1.61-1.08s-.63-.92-1.44-1.07l-.94-.18c-.86-.17-1.58-.64-1.58-1.57s.92-1.61,2.28-1.61a2.12,2.12,0,0,1,2.23,1.62ZM218,57.16a2.09,2.09,0,0,0,1.9,1.05c1.47,0,2.56-1.14,2.56-3.05s-1.06-3.07-2.44-3.07a2.21,2.21,0,0,0-2,1.08l0-1h-.68v8h.7Zm3.73-2c0,1.52-.75,2.44-1.85,2.44s-1.93-.74-1.93-2.44,1-2.46,1.93-2.46C221,52.7,221.7,53.63,221.7,55.16Z"/>
        <path class="cls-3" d="M226,52.09c1.4,0,2.71.94,2.71,3.06s-1.31,3.06-2.71,3.06-2.71-.94-2.71-3.06S224.59,52.09,226,52.09Zm0,5.51c1.11,0,2-.8,2-2.45s-.87-2.45-2-2.45-2,.79-2,2.45S224.88,57.6,226,57.6Z"/>
        <path class="cls-3" d="M230.19,50.72h.69v1.47h1.19v.6h-1.19V56.5c0,.78,0,.94.83.94h.36v.62h-.58c-1.06,0-1.3-.24-1.3-1.42V52.79h-1v-.6h1Z"/>
      </g>
      <g>
        <path class="cls-3" d="M298.16,42.76a2.82,2.82,0,0,1,3,2.07l-.78.09a2.14,2.14,0,0,0-2.3-1.46c-.82,0-2,.32-2,1.37,0,.82.67,1.2,1.55,1.39l1,.22c1.17.26,2.72.71,2.72,2.24S300,51,298.38,51c-2,0-3.14-1.15-3.32-2.5l.78-.08a2.29,2.29,0,0,0,2.5,1.87c.89,0,2.23-.29,2.23-1.5,0-1-1-1.39-2.09-1.64l-1-.23c-1.07-.24-2.13-.74-2.13-2.06C295.35,43.37,296.86,42.76,298.16,42.76Z"/>
        <path class="cls-3" d="M303.15,46a2.07,2.07,0,0,1,2-1.1,1.92,1.92,0,0,1,1.56.62,2.65,2.65,0,0,1,.46,1.7v3.65h-.7V47.39a2.39,2.39,0,0,0-.33-1.42A1.36,1.36,0,0,0,305,45.5a1.92,1.92,0,0,0-1.81,2.14v3.22h-.69v-8h.69Z"/>
        <path class="cls-3" d="M308.44,46.7c.08-1.14,1-1.81,2.34-1.81s2.21.46,2.21,2c0,1.07,0,1.58,0,2.06,0,.69,0,1.28.07,1.92h-.7l0-.91a2.07,2.07,0,0,1-2,1.06,1.83,1.83,0,0,1-2-1.84,1.49,1.49,0,0,1,.63-1.26,5.39,5.39,0,0,1,2.26-.57l1.17-.12v-.35c0-1.19-.76-1.37-1.58-1.37-1,0-1.5.52-1.55,1.23Zm3.89,1.11-1.28.13c-1.43.14-2.09.45-2.09,1.26s.58,1.2,1.44,1.2c1,0,1.93-.63,1.93-2.23Z"/>
        <path class="cls-3" d="M314.66,44.24c0-1,.25-1.34,1.39-1.34h.49v.64h-.34c-.76,0-.84.07-.84.8V45h1.18v.6h-1.18v5.27h-.7V45.59h-.83V45h.83Zm3.18-.72h.69V45h1.19v.6h-1.19V49.3c0,.78,0,.94.83.94h.36v.62h-.57c-1.07,0-1.31-.24-1.31-1.42V45.59h-1V45h1Z"/>
        <path class="cls-3" d="M323.73,44.24c0-1,.25-1.34,1.39-1.34h.5v.64h-.35c-.76,0-.84.07-.84.8V45h1.19v.6h-1.19v5.27h-.7V45.59h-.83V45h.83Z"/>
        <path class="cls-3" d="M328.73,44.89c1.4,0,2.72.94,2.72,3.06S330.13,51,328.73,51,326,50.07,326,48,327.34,44.89,328.73,44.89Zm0,5.51c1.11,0,2-.8,2-2.45s-.87-2.45-2-2.45-2,.79-2,2.45S327.63,50.4,328.73,50.4Z"/>
        <path class="cls-3" d="M335.18,45.69h-.31c-1.24,0-1.53.89-1.53,2.16v3h-.68V45h.66v1A1.68,1.68,0,0,1,335,44.94h.21Z"/>
        <path class="cls-3" d="M339.48,46a2,2,0,0,1,2-1.1,1.93,1.93,0,0,1,1.56.62,2.65,2.65,0,0,1,.45,1.7v3.65h-.69V47.39a2.31,2.31,0,0,0-.34-1.42,1.34,1.34,0,0,0-1.16-.47,1.92,1.92,0,0,0-1.81,2.14v3.22h-.7v-8h.7Z"/>
        <path class="cls-3" d="M347.23,44.89c1.39,0,2.71.94,2.71,3.06S348.62,51,347.23,51s-2.71-.94-2.71-3.06S345.83,44.89,347.23,44.89Zm0,5.51c1.1,0,2-.8,2-2.45s-.88-2.45-2-2.45-2,.79-2,2.45S346.12,50.4,347.23,50.4Z"/>
        <path class="cls-3" d="M351.85,42.9V44h-.7V42.9Zm0,2.09v5.87h-.7V45Z"/>
        <path class="cls-3" d="M357.11,46.61a1.52,1.52,0,0,0-1.6-1.11c-.59,0-1.48.22-1.48,1s.45.86,1.08,1l.84.16c1,.18,2,.48,2,1.62S356.9,51,355.61,51a2.21,2.21,0,0,1-2.38-1.89L354,49a1.62,1.62,0,0,0,1.72,1.37c.66,0,1.61-.28,1.61-1.08s-.62-.91-1.44-1.07l-.93-.18c-.87-.17-1.59-.64-1.59-1.57s.93-1.61,2.28-1.61a2.11,2.11,0,0,1,2.23,1.62Zm2.46-3.09h.7V45h1.19v.6h-1.19V49.3c0,.78,0,.94.83.94h.36v.62h-.58c-1.07,0-1.31-.24-1.31-1.42V45.59h-1V45h1Z"/>
        <path class="cls-3" d="M304.21,59.29c1.39,0,2.71.94,2.71,3.06s-1.32,3.06-2.71,3.06-2.71-.94-2.71-3.06S302.82,59.29,304.21,59.29Zm0,5.51c1.1,0,2-.8,2-2.45s-.88-2.45-2-2.45-2,.79-2,2.45S303.1,64.8,304.21,64.8Z"/>
        <path class="cls-3" d="M310.65,60.09h-.31c-1.24,0-1.52.89-1.52,2.16v3h-.69V59.39h.66v1a1.7,1.7,0,0,1,1.66-1h.2Z"/>
        <path class="cls-3" d="M318.2,64.09a2.17,2.17,0,0,1-2,1.08c-1.38,0-2.46-1.14-2.46-3a2.65,2.65,0,0,1,2.58-2.93,2,2,0,0,1,1.84,1v-.94h.69v5.73a2.19,2.19,0,0,1-.7,1.79,2.71,2.71,0,0,1-1.74.51,2.09,2.09,0,0,1-2.31-1.71l.72,0c.09.63.59,1.16,1.61,1.16a1.93,1.93,0,0,0,1.22-.32,1.54,1.54,0,0,0,.51-1.31Zm.05-1.87c0-1.59-1-2.32-1.9-2.32s-1.83.91-1.83,2.32.76,2.34,1.82,2.34A2.08,2.08,0,0,0,318.25,62.22Z"/>
        <path class="cls-3" d="M322.82,59.29c1.39,0,2.71.94,2.71,3.06s-1.32,3.06-2.71,3.06-2.71-.94-2.71-3.06S321.43,59.29,322.82,59.29Zm0,5.51c1.1,0,2-.8,2-2.45s-.88-2.45-2-2.45-2,.79-2,2.45S321.72,64.8,322.82,64.8Z"/>
        <path class="cls-3" d="M329.08,59.29c1.39,0,2.71.94,2.71,3.06s-1.32,3.06-2.71,3.06-2.71-.94-2.71-3.06S327.69,59.29,329.08,59.29Zm0,5.51c1.11,0,2-.8,2-2.45s-.87-2.45-2-2.45-2,.79-2,2.45S328,64.8,329.08,64.8Z"/>
        <path class="cls-3" d="M337.79,65.26h-.68v-.93a2.22,2.22,0,0,1-2,1.08c-1.38,0-2.43-1.14-2.43-3.07s1.09-3.05,2.55-3.05a2.11,2.11,0,0,1,1.91,1v-3h.69Zm-.64-2.92c0-1.71-1-2.44-1.94-2.44s-1.84.91-1.84,2.44.73,2.46,1.84,2.46C336.13,64.8,337.15,64,337.15,62.34Z"/>
        <path class="cls-3" d="M343,61a1.54,1.54,0,0,0-1.61-1.11c-.59,0-1.48.22-1.48,1s.45.86,1.08,1l.84.16c1,.18,2,.48,2,1.62s-1.08,1.8-2.36,1.8a2.21,2.21,0,0,1-2.39-1.89l.72-.09a1.62,1.62,0,0,0,1.73,1.37c.66,0,1.6-.28,1.6-1.08s-.62-.91-1.44-1.07l-.93-.18c-.86-.17-1.58-.64-1.58-1.57s.92-1.61,2.27-1.61a2.13,2.13,0,0,1,2.24,1.62Z"/>
        <path class="cls-3" d="M348.52,65.26h-.69v-8h.69Z"/>
        <path class="cls-3" d="M350.9,57.3v1.1h-.7V57.3Zm0,2.09v5.87h-.7V59.39Z"/>
        <path class="cls-3" d="M352.75,58.64c0-1,.25-1.34,1.39-1.34h.49v.64h-.35c-.75,0-.84.07-.84.8v.65h1.19V60h-1.19v5.27h-.69V60h-.83v-.6h.83Zm3.18-.72h.69v1.47h1.19V60h-1.19V63.7c0,.78,0,.94.83.94h.36v.62h-.58c-1.06,0-1.3-.24-1.3-1.42V60h-1v-.6h1Z"/>
      </g>
    </g>
  </g>
</svg>
