<svg xmlns="http://www.w3.org/2000/svg" viewBox="0 0 967.4 352.2">
  <defs>
    <style>
      .cls-1 {
        isolation: isolate;
      }

      .cls-2 {
        fill: #282727;
      }

      .cls-3 {
        fill: #e4bcb1;
      }

      .cls-4 {
        opacity: 0.3;
      }

      .cls-10, .cls-11, .cls-12, .cls-13, .cls-14, .cls-15, .cls-16, .cls-17, .cls-18, .cls-19, .cls-20, .cls-21, .cls-22, .cls-23, .cls-24, .cls-25, .cls-26, .cls-27, .cls-5, .cls-6, .cls-8, .cls-9 {
        fill: none;
        stroke-miterlimit: 10;
      }

      .cls-5, .cls-6 {
        stroke: #dadada;
      }

      .cls-5 {
        stroke-width: 6px;
      }

      .cls-7 {
        mix-blend-mode: multiply;
      }

      .cls-10, .cls-11, .cls-12, .cls-13, .cls-14, .cls-15, .cls-16, .cls-17, .cls-18, .cls-19, .cls-20, .cls-8, .cls-9 {
        stroke: #ebebe5;
      }

      .cls-9 {
        stroke-dasharray: 7.19 2.05;
      }

      .cls-10, .cls-26 {
        stroke-dasharray: 7.43 2.12;
      }

      .cls-11 {
        stroke-dasharray: 6.72 1.92;
      }

      .cls-12 {
        stroke-dasharray: 6.72 1.92;
      }

      .cls-13 {
        stroke-dasharray: 6.69 1.91;
      }

      .cls-14 {
        stroke-dasharray: 6.74 1.93;
      }

      .cls-15 {
        stroke-dasharray: 7.05 2.02;
      }

      .cls-16 {
        stroke-dasharray: 7.02 2.01;
      }

      .cls-17 {
        stroke-dasharray: 7.43 2.12;
      }

      .cls-18 {
        stroke-dasharray: 7.28 2.08;
      }

      .cls-19 {
        stroke-dasharray: 6.65 1.9;
      }

      .cls-20 {
        stroke-dasharray: 6.56 1.87;
      }

      .cls-21, .cls-22, .cls-23, .cls-24, .cls-25, .cls-26, .cls-27 {
        stroke: #fff;
      }

      .cls-22 {
        stroke-dasharray: 7.1 2.03;
      }

      .cls-23 {
        stroke-dasharray: 7 2;
      }

      .cls-24 {
        stroke-dasharray: 6.93 1.98;
      }

      .cls-25 {
        stroke-dasharray: 6.64 1.9;
      }

      .cls-27 {
        stroke-dasharray: 6.69 1.91;
      }

      .cls-28 {
        fill: #fff;
      }
    </style>
  </defs>
  <g class="cls-1">
    <g id="Fills">
      <polygon class="cls-2" points="314.31 261.5 273.75 261.5 273.75 257.75 273.75 250.34 273.75 242.94 273.75 235.53 273.75 200.71 273.75 185.23 199.26 185.23 199.26 200.71 199.26 235.53 150.15 235.53 150.15 209.47 143.76 209.47 61.75 209.47 29.68 209.47 29.68 273.75 29.68 329.21 134.6 335 134.6 327.49 150.15 327.49 182.45 327.49 199.26 327.49 201.75 327.49 273.75 327.49 314.31 327.49 361.29 327.49 377.93 327.49 377.93 261.5 314.31 261.5"/>
      <polygon class="cls-3" points="143.76 209.47 61.75 209.47 29.68 209.47 29.68 24.35 273.75 24.35 389.33 24.35 454.58 24.35 561.67 24.35 948.99 24.35 948.99 327.49 377.93 327.49 377.93 261.5 314.31 261.5 273.75 261.5 273.75 257.75 273.75 250.34 273.75 242.94 273.75 235.53 273.75 200.71 273.75 185.23 199.26 185.23 199.26 200.71 199.26 235.53 150.15 235.53 150.15 209.47 143.76 209.47"/>
    </g>
    <g id="Resi_stroke_detail_-_hide_" data-name="Resi stroke detail - hide?" class="cls-4">
      <line class="cls-5" x1="199.26" y1="327.49" x2="199.26" y2="318.68"/>
      <line class="cls-5" x1="265.74" y1="200.71" x2="273.75" y2="200.71"/>
      <line class="cls-6" x1="246.4" y1="202.21" x2="265.74" y2="202.21"/>
      <line class="cls-5" x1="226.61" y1="200.71" x2="246.4" y2="200.71"/>
      <line class="cls-6" x1="207.27" y1="202.21" x2="226.61" y2="202.21"/>
      <line class="cls-5" x1="199.26" y1="200.71" x2="207.27" y2="200.71"/>
      <line class="cls-5" x1="273.75" y1="327.49" x2="273.75" y2="318.68"/>
      <line class="cls-5" x1="150.15" y1="326.56" x2="150.15" y2="318.68"/>
      <polyline class="cls-5" points="273.75 279.96 273.75 283.66 273.75 287.36 273.75 291.34"/>
      <line class="cls-5" x1="199.26" y1="291.34" x2="199.26" y2="250.34"/>
      <line class="cls-5" x1="273.75" y1="291.34" x2="273.75" y2="261.5"/>
      <line class="cls-5" x1="150.15" y1="273.75" x2="150.15" y2="291.34"/>
      <line class="cls-5" x1="199.26" y1="291.34" x2="199.26" y2="235.53"/>
      <line class="cls-5" x1="150.15" y1="235.53" x2="150.15" y2="291.34"/>
      <path class="cls-6" d="M196.76,297.54v-6.2a27.34,27.34,0,0,1,27.35,27.34H196.76Z"/>
      <path class="cls-6" d="M271.25,304V291.34a27.34,27.34,0,0,1,27.35,27.34H271.25Z"/>
      <path class="cls-6" d="M311.81,291.34a27.34,27.34,0,0,1,27.35,27.34H311.81Z"/>
      <path class="cls-6" d="M147.65,297.54v21.14H175a27.34,27.34,0,0,0-27.35-27.34Z"/>
      <rect class="cls-6" x="199.26" y="235.53" width="32.65" height="7.4"/>
      <rect class="cls-6" x="199.26" y="242.94" width="32.65" height="7.4"/>
      <rect class="cls-6" x="241.1" y="235.53" width="32.65" height="7.4"/>
      <rect class="cls-6" x="241.1" y="242.94" width="32.65" height="7.4"/>
      <rect class="cls-6" x="241.1" y="250.34" width="32.65" height="7.4"/>
      <rect class="cls-6" x="241.1" y="257.75" width="32.65" height="7.4"/>
      <rect class="cls-6" x="241.1" y="265.15" width="32.65" height="7.4"/>
      <rect class="cls-6" x="241.1" y="272.55" width="32.65" height="7.4"/>
      <rect class="cls-6" x="241.1" y="279.96" width="32.65" height="7.4"/>
      <rect class="cls-6" x="231.91" y="235.53" width="9.2" height="51.83"/>
      <line class="cls-5" x1="138.68" y1="273.75" x2="150.15" y2="273.75"/>
      <line class="cls-6" x1="73.85" y1="276.25" x2="138.68" y2="276.25"/>
      <line class="cls-5" x1="54.72" y1="273.75" x2="73.85" y2="273.75"/>
      <line class="cls-6" x1="37.77" y1="276.25" x2="54.72" y2="276.25"/>
      <line class="cls-5" x1="29.68" y1="273.75" x2="37.77" y2="273.75"/>
      <line class="cls-5" x1="61.75" y1="273.75" x2="61.75" y2="209.47"/>
      <polyline class="cls-5" points="314.31 261.5 314.31 274.33 314.31 283.66 314.31 291.34"/>
      <line class="cls-5" x1="314.31" y1="327.49" x2="314.31" y2="318.68"/>
      <line class="cls-6" x1="273.75" y1="283.66" x2="314.31" y2="283.66"/>
      <rect class="cls-6" x="294.03" y="268.01" width="14.16" height="12.64" rx="1.23"/>
      <circle class="cls-6" cx="301.11" cy="274.33" r="1.43"/>
      <rect class="cls-6" x="350.51" y="271.45" width="14.16" height="12.64" rx="1.23" transform="translate(635.36 -79.82) rotate(90)"/>
      <circle class="cls-6" cx="357.59" cy="277.77" r="1.43"/>
      <line class="cls-6" x1="351.27" y1="274.33" x2="314.31" y2="274.33"/>
      <line class="cls-6" x1="361.29" y1="327.49" x2="361.29" y2="284.85"/>
      <path class="cls-6" d="M351.83,300.48h9.46a0,0,0,0,1,0,0v11.32a0,0,0,0,1,0,0h-9.46a5.66,5.66,0,0,1-5.66-5.66v0A5.66,5.66,0,0,1,351.83,300.48Z"/>
      <path class="cls-6" d="M155.62,265.09h8.24m-4.12-22.21v22.21m-2.94-8.16,5.88-5.88"/>
      <path class="cls-6" d="M165.53,265.09h8.24m-4.12-22.21v22.21m-2.94-8.16,5.88-5.88"/>
      <path class="cls-6" d="M175.44,265.09h8.24m-4.12-22.21v22.21m-2.94-8.16,5.88-5.88"/>
      <path class="cls-6" d="M185.35,265.09h8.24m-4.12-22.21v22.21m-2.94-8.16,5.88-5.88"/>
    </g>
    <g id="Stroke">
      <polyline class="cls-5" points="181.86 235.53 199.26 235.53 199.26 200.71 199.26 185.23 273.75 185.23 273.75 200.71 273.75 235.53 273.75 242.94 273.75 250.34 273.75 257.75 273.75 261.5 281.6 261.5 273.75 261.5"/>
      <polyline class="cls-5" points="377.93 327.49 377.93 261.5 314.31 261.5 273.75 261.5"/>
      <polyline class="cls-5" points="199.26 235.53 150.15 235.53 150.15 209.47"/>
      <polyline class="cls-5" points="389.33 88.61 389.33 24.35 454.58 24.35 454.58 45.33"/>
      <polyline class="cls-5" points="29.68 209.47 61.75 209.47 143.76 209.47 150.15 209.47 150.15 235.53"/>
      <polyline class="cls-5" points="377.93 261.5 450.45 261.5 450.45 177.94"/>
      <line class="cls-5" x1="273.75" y1="185.23" x2="273.75" y2="177.93"/>
      <polyline class="cls-5" points="29.68 209.47 29.68 24.35 273.75 24.35 389.33 24.35 454.58 24.35"/>
      <polyline class="cls-5" points="454.58 24.35 561.67 24.35 948.99 24.35 948.99 327.49 377.93 327.49"/>
      <line class="cls-5" x1="150.15" y1="209.47" x2="150.15" y2="177.93"/>
      <line class="cls-5" x1="199.26" y1="185.23" x2="199.26" y2="177.93"/>
      <line class="cls-5" x1="272.47" y1="24.35" x2="272.47" y2="88.83"/>
      <polyline class="cls-5" points="377.93 327.49 182.45 327.49 134.6 327.49 134.6 335 29.68 329.21 29.68 209.47"/>
    </g>
    <g id="Soft_spot" data-name="Soft spot">
      <g class="cls-7">
        <g>
          <line class="cls-8" x1="266.8" y1="31.44" x2="263.3" y2="31.44"/>
          <line class="cls-9" x1="261.25" y1="31.44" x2="151.35" y2="31.44"/>
          <polyline class="cls-8" points="150.32 31.44 146.82 31.44 146.82 34.94"/>
          <line class="cls-10" x1="146.82" y1="37.06" x2="146.82" y2="83.77"/>
          <polyline class="cls-8" points="146.82 84.83 146.82 88.33 150.32 88.33"/>
          <line class="cls-9" x1="152.37" y1="88.33" x2="262.27" y2="88.33"/>
          <line class="cls-8" x1="263.3" y1="88.33" x2="266.8" y2="88.33"/>
        </g>
      </g>
      <g class="cls-7">
        <g>
          <line class="cls-8" x1="304.25" y1="88.33" x2="307.75" y2="88.33"/>
          <line class="cls-11" x1="309.67" y1="88.33" x2="377.78" y2="88.33"/>
          <polyline class="cls-8" points="378.74 88.33 382.24 88.33 382.24 84.83"/>
          <line class="cls-10" x1="382.24" y1="82.71" x2="382.24" y2="36"/>
          <polyline class="cls-8" points="382.24 34.94 382.24 31.44 378.74 31.44"/>
          <line class="cls-12" x1="376.82" y1="31.44" x2="308.71" y2="31.44"/>
          <line class="cls-8" x1="307.75" y1="31.44" x2="304.25" y2="31.44"/>
        </g>
      </g>
      <g class="cls-7">
        <g>
          <line class="cls-8" x1="278.14" y1="88.33" x2="281.64" y2="88.33"/>
          <line class="cls-13" x1="283.55" y1="88.33" x2="299.79" y2="88.33"/>
          <line class="cls-8" x1="300.75" y1="88.33" x2="304.25" y2="88.33"/>
        </g>
      </g>
      <g class="cls-7">
        <g>
          <polyline class="cls-8" points="157.23 224.94 157.23 228.44 160.73 228.44"/>
          <line class="cls-14" x1="162.66" y1="228.45" x2="187.71" y2="228.45"/>
          <polyline class="cls-8" points="188.67 228.44 192.17 228.44 192.17 224.94"/>
          <line class="cls-15" x1="192.17" y1="222.93" x2="192.17" y2="187.67"/>
          <polyline class="cls-8" points="192.17 186.66 192.17 183.16 188.67 183.16"/>
          <line class="cls-14" x1="186.75" y1="183.16" x2="161.7" y2="183.16"/>
          <polyline class="cls-8" points="160.73 183.16 157.23 183.16 157.23 186.66"/>
          <line class="cls-15" x1="157.23" y1="188.67" x2="157.23" y2="223.94"/>
        </g>
      </g>
      <g class="cls-7">
        <g>
          <polyline class="cls-8" points="443.36 181.94 443.36 178.44 439.86 178.44"/>
          <line class="cls-16" x1="437.85" y1="178.43" x2="285.34" y2="178.43"/>
          <polyline class="cls-8" points="284.34 178.44 280.84 178.44 280.84 181.94"/>
          <line class="cls-17" x1="280.84" y1="184.06" x2="280.84" y2="249.85"/>
          <polyline class="cls-8" points="280.84 250.91 280.84 254.41 284.34 254.41"/>
          <line class="cls-16" x1="286.34" y1="254.41" x2="438.86" y2="254.41"/>
          <polyline class="cls-8" points="439.86 254.41 443.36 254.41 443.36 250.91"/>
          <line class="cls-17" x1="443.36" y1="248.79" x2="443.36" y2="183"/>
        </g>
      </g>
      <g class="cls-7">
        <g>
          <polyline class="cls-8" points="513.73 200.25 513.73 196.75 510.23 196.75"/>
          <line class="cls-18" x1="508.15" y1="196.75" x2="462.38" y2="196.75"/>
          <polyline class="cls-8" points="461.34 196.75 457.84 196.75 457.84 200.25"/>
          <line class="cls-19" x1="457.84" y1="202.15" x2="457.84" y2="235.39"/>
          <polyline class="cls-8" points="457.84 236.34 457.84 239.84 461.34 239.84"/>
          <line class="cls-18" x1="463.42" y1="239.83" x2="509.19" y2="239.83"/>
          <polyline class="cls-8" points="510.23 239.84 513.73 239.84 513.73 236.34"/>
          <line class="cls-19" x1="513.73" y1="234.44" x2="513.73" y2="201.2"/>
        </g>
      </g>
      <g class="cls-7">
        <g>
          <polyline class="cls-8" points="447.4 34.94 447.4 31.44 443.9 31.44"/>
          <line class="cls-20" x1="442.03" y1="31.44" x2="400.8" y2="31.44"/>
          <polyline class="cls-8" points="399.87 31.44 396.37 31.44 396.37 34.94"/>
          <line class="cls-10" x1="396.37" y1="37.06" x2="396.37" y2="83.77"/>
          <polyline class="cls-8" points="396.37 84.83 396.37 88.33 399.87 88.33"/>
          <line class="cls-20" x1="401.74" y1="88.33" x2="442.97" y2="88.33"/>
          <polyline class="cls-8" points="443.9 88.33 447.4 88.33 447.4 84.83"/>
          <line class="cls-10" x1="447.4" y1="82.71" x2="447.4" y2="36"/>
        </g>
      </g>
    </g>
    <g id="Mezzanine">
      <g>
        <g>
          <line class="cls-21" x1="146.32" y1="31.44" x2="142.82" y2="31.44"/>
          <line class="cls-22" x1="140.79" y1="31.44" x2="41.45" y2="31.44"/>
          <polyline class="cls-21" points="40.43 31.44 36.93 31.44 36.93 34.94"/>
          <line class="cls-23" x1="36.93" y1="36.94" x2="36.93" y2="143.99"/>
          <polyline class="cls-21" points="36.93 144.99 36.93 148.49 40.43 148.49"/>
          <line class="cls-24" x1="42.41" y1="148.49" x2="299.76" y2="148.49"/>
          <polyline class="cls-21" points="300.75 148.49 304.25 148.49 304.25 144.99"/>
          <line class="cls-25" x1="304.25" y1="143.09" x2="304.25" y2="92.78"/>
          <line class="cls-21" x1="304.25" y1="91.83" x2="304.25" y2="88.33"/>
        </g>
        <g>
          <line class="cls-21" x1="304.25" y1="88.33" x2="304.25" y2="84.83"/>
          <line class="cls-26" x1="304.25" y1="82.71" x2="304.25" y2="36"/>
          <polyline class="cls-21" points="304.25 34.94 304.25 31.44 300.75 31.44"/>
          <line class="cls-27" x1="298.84" y1="31.44" x2="282.59" y2="31.44"/>
          <line class="cls-21" x1="281.64" y1="31.44" x2="278.14" y2="31.44"/>
        </g>
      </g>
    </g>
    <g id="Layer_9" data-name="Layer 9">
      <g>
        <path class="cls-28" d="M118.23,130.77c1.93,0,3.31.5,3.31,2.44s-1.38,2.41-3.31,2.41h-1.56v3.11h-.74v-8Zm-1.56.69v3.47h1.66c1.33,0,2.43-.21,2.43-1.72s-1.1-1.75-2.43-1.75Z"/>
        <path class="cls-28" d="M124.63,132.76c1.39,0,2.71.93,2.71,3.05s-1.32,3.06-2.71,3.06-2.71-.93-2.71-3.06S123.23,132.76,124.63,132.76Zm0,5.5c1.1,0,2-.79,2-2.45s-.87-2.44-2-2.44-2,.79-2,2.44S123.52,138.26,124.63,138.26Z"/>
        <path class="cls-28" d="M128.83,131.39h.69v1.46h1.19v.6h-1.19v3.72c0,.78,0,.94.83.94h.36v.62h-.58c-1.06,0-1.3-.24-1.3-1.43v-3.85h-1v-.6h1Z"/>
        <path class="cls-28" d="M131.44,135.81a2.77,2.77,0,0,1,2.8-3.05c1.7,0,2.74,1.33,2.65,3.2h-4.73a2.08,2.08,0,0,0,2.1,2.29,1.79,1.79,0,0,0,1.85-1.32l.72.1a2.51,2.51,0,0,1-2.62,1.84C132.45,138.87,131.44,137.61,131.44,135.81Zm.74-.45h3.95a1.9,1.9,0,0,0-1.9-2A2,2,0,0,0,132.18,135.36Z"/>
        <path class="cls-28" d="M138.79,133.86a2,2,0,0,1,2-1.1,1.9,1.9,0,0,1,1.56.62,2.62,2.62,0,0,1,.45,1.69v3.66h-.69v-3.48a2.27,2.27,0,0,0-.34-1.41,1.34,1.34,0,0,0-1.16-.47,1.91,1.91,0,0,0-1.81,2.13v3.23h-.7v-5.88h.7Z"/>
        <path class="cls-28" d="M144.57,131.39h.7v1.46h1.18v.6h-1.18v3.72c0,.78,0,.94.82.94h.36v.62h-.57c-1.07,0-1.31-.24-1.31-1.43v-3.85h-1v-.6h1Z"/>
        <path class="cls-28" d="M148.35,130.77v1.1h-.69v-1.1Zm0,2.08v5.88h-.69v-5.88Z"/>
        <path class="cls-28" d="M149.82,134.57c.07-1.14,1-1.81,2.33-1.81s2.21.45,2.21,2c0,1.06,0,1.58,0,2.06,0,.68,0,1.27.07,1.92h-.69l0-.91a2.07,2.07,0,0,1-2,1.05,1.83,1.83,0,0,1-2-1.83,1.45,1.45,0,0,1,.64-1.26,5.46,5.46,0,0,1,2.25-.58l1.18-.12v-.34c0-1.19-.77-1.37-1.59-1.37-1,0-1.5.51-1.54,1.22Zm3.88,1.1-1.28.13c-1.43.15-2.09.46-2.09,1.26s.58,1.2,1.44,1.2c1,0,1.93-.62,1.93-2.23Z"/>
        <path class="cls-28" d="M156.56,138.73h-.7v-8h.7Z"/>
        <path class="cls-28" d="M163.52,132.85h.69v1a2,2,0,0,1,1.88-1.1,1.61,1.61,0,0,1,1.76,1.26,2,2,0,0,1,2-1.26,1.76,1.76,0,0,1,1.43.56,2.66,2.66,0,0,1,.47,1.74v3.67h-.7v-3.48a2.28,2.28,0,0,0-.37-1.51,1.35,1.35,0,0,0-1-.38c-.94,0-1.66.86-1.66,2.13v3.24h-.69v-3.47a2.33,2.33,0,0,0-.34-1.47,1.28,1.28,0,0,0-1.08-.43c-.94,0-1.66.86-1.66,2.13v3.24h-.69Z"/>
        <path class="cls-28" d="M172.78,135.81a2.77,2.77,0,0,1,2.8-3.05c1.7,0,2.74,1.33,2.65,3.2H173.5a2.08,2.08,0,0,0,2.1,2.29,1.79,1.79,0,0,0,1.85-1.32l.72.1a2.51,2.51,0,0,1-2.62,1.84C173.79,138.87,172.78,137.61,172.78,135.81Zm.74-.45h3.95a1.9,1.9,0,0,0-1.9-2A2,2,0,0,0,173.52,135.36Z"/>
        <path class="cls-28" d="M179,138.13l3.7-4.68h-3.46v-.6h4.27v.6l-3.69,4.68h3.75v.6H179Z"/>
        <path class="cls-28" d="M184.3,138.13l3.7-4.68h-3.46v-.6h4.27v.6l-3.69,4.68h3.75v.6H184.3Z"/>
        <path class="cls-28" d="M189.92,134.57c.07-1.14,1-1.81,2.34-1.81s2.2.45,2.2,2c0,1.06,0,1.58,0,2.06,0,.68,0,1.27.07,1.92h-.69l-.05-.91a2.06,2.06,0,0,1-2,1.05,1.83,1.83,0,0,1-2-1.83,1.48,1.48,0,0,1,.64-1.26,5.46,5.46,0,0,1,2.25-.58l1.18-.12v-.34c0-1.19-.77-1.37-1.58-1.37-1,0-1.5.51-1.55,1.22Zm3.89,1.1-1.29.13c-1.43.15-2.09.46-2.09,1.26s.58,1.2,1.44,1.2c1,0,1.94-.62,1.94-2.23Z"/>
        <path class="cls-28" d="M196.66,133.86a2.05,2.05,0,0,1,2-1.1,1.89,1.89,0,0,1,1.56.62,2.62,2.62,0,0,1,.46,1.69v3.66H200v-3.48a2.35,2.35,0,0,0-.33-1.41,1.35,1.35,0,0,0-1.17-.47,1.91,1.91,0,0,0-1.81,2.13v3.23H196v-5.88h.69Z"/>
        <path class="cls-28" d="M202.87,130.77v1.1h-.7v-1.1Zm0,2.08v5.88h-.7v-5.88Z"/>
        <path class="cls-28" d="M205.24,133.86a2.05,2.05,0,0,1,2-1.1,1.89,1.89,0,0,1,1.56.62,2.62,2.62,0,0,1,.46,1.69v3.66h-.7v-3.48a2.35,2.35,0,0,0-.33-1.41,1.36,1.36,0,0,0-1.17-.47,1.91,1.91,0,0,0-1.81,2.13v3.23h-.69v-5.88h.69Z"/>
        <path class="cls-28" d="M210.28,135.81a2.77,2.77,0,0,1,2.8-3.05c1.7,0,2.74,1.33,2.65,3.2H211a2.08,2.08,0,0,0,2.1,2.29,1.79,1.79,0,0,0,1.85-1.32l.72.1a2.51,2.51,0,0,1-2.62,1.84C211.29,138.87,210.28,137.61,210.28,135.81Zm.73-.45h4a1.9,1.9,0,0,0-1.9-2A2,2,0,0,0,211,135.36Z"/>
      </g>
      <g>
        <path class="cls-2" d="M169,201.51h4.28v.7h-5v-8H169Z"/>
        <path class="cls-2" d="M174.83,194.25v1.1h-.7v-1.1Zm0,2.08v5.88h-.7v-5.88Z"/>
        <path class="cls-2" d="M176.68,195.59c0-1,.25-1.34,1.39-1.34h.49v.63h-.35c-.75,0-.84.07-.84.8v.65h1.19v.6h-1.19v5.28h-.69v-5.28h-.83v-.6h.83Zm3.17-.72h.7v1.46h1.19v.6h-1.19v3.72c0,.78,0,.93.83.93h.36v.63h-.58c-1.07,0-1.31-.24-1.31-1.43v-3.85h-1v-.6h1Z"/>
        <path class="cls-2" d="M166.94,212.35a1.53,1.53,0,0,0-1.6-1.1c-.59,0-1.48.21-1.48.94s.44.87,1.08,1l.84.15c1,.18,2,.48,2,1.62s-1.08,1.8-2.37,1.8a2.21,2.21,0,0,1-2.38-1.88l.72-.1a1.6,1.6,0,0,0,1.72,1.37c.66,0,1.61-.28,1.61-1.08s-.62-.91-1.44-1.07l-.93-.18c-.87-.16-1.59-.63-1.59-1.57s.93-1.6,2.28-1.6a2.12,2.12,0,0,1,2.23,1.61Z"/>
        <path class="cls-2" d="M169.86,211.74a2.05,2.05,0,0,1,2-1.1,1.89,1.89,0,0,1,1.56.62,2.6,2.6,0,0,1,.46,1.69v3.66h-.7v-3.48a2.33,2.33,0,0,0-.34-1.42,1.35,1.35,0,0,0-1.16-.46,1.91,1.91,0,0,0-1.81,2.13v3.23h-.7v-8h.7Z"/>
        <path class="cls-2" d="M175.15,212.45c.07-1.14,1-1.81,2.34-1.81s2.21.45,2.21,2c0,1.06,0,1.58,0,2.06,0,.68,0,1.27.07,1.92h-.7l-.05-.91a2.05,2.05,0,0,1-2,1.05,1.83,1.83,0,0,1-2-1.83,1.47,1.47,0,0,1,.63-1.26,5.25,5.25,0,0,1,2.26-.58L179,213v-.35c0-1.18-.77-1.36-1.58-1.36-1,0-1.5.51-1.55,1.22Zm3.89,1.1-1.29.13c-1.42.15-2.08.46-2.08,1.26s.57,1.2,1.44,1.2c1,0,1.93-.62,1.93-2.23Z"/>
        <path class="cls-2" d="M181.37,210c0-1,.25-1.35,1.39-1.35h.49v.64h-.35c-.75,0-.84.07-.84.8v.65h1.19v.6h-1.19v5.28h-.69v-5.28h-.83v-.6h.83Zm3.18-.72h.69v1.46h1.19v.6h-1.19v3.72c0,.78,0,.93.83.93h.36v.63h-.58c-1.06,0-1.3-.24-1.3-1.43v-3.85h-1v-.6h1Z"/>
      </g>
      <g>
        <path class="cls-2" d="M479.3,206.7a2.83,2.83,0,0,1,3,2.08l-.78.08a2.14,2.14,0,0,0-2.3-1.45c-.82,0-2,.31-2,1.37,0,.81.67,1.2,1.55,1.39l1,.22c1.17.26,2.72.7,2.72,2.24s-1.41,2.33-3,2.33a3,3,0,0,1-3.31-2.5l.78-.08a2.29,2.29,0,0,0,2.5,1.87c.89,0,2.23-.29,2.23-1.5,0-1-1-1.39-2.09-1.64l-1-.23c-1.06-.24-2.12-.75-2.12-2.07C476.49,207.32,478,206.7,479.3,206.7Z"/>
        <path class="cls-2" d="M486.08,208.84c1.39,0,2.71.93,2.71,3.06s-1.32,3.06-2.71,3.06-2.71-.94-2.71-3.06S484.69,208.84,486.08,208.84Zm0,5.5c1.1,0,2-.79,2-2.44s-.88-2.45-2-2.45-2,.79-2,2.45S485,214.34,486.08,214.34Z"/>
        <path class="cls-2" d="M490.17,208.19c0-1,.25-1.34,1.39-1.34h.49v.63h-.34c-.76,0-.84.08-.84.81v.64h1.18v.6h-1.18v5.28h-.7v-5.28h-.83v-.6h.83Zm3.18-.72H494v1.46h1.19v.6H494v3.72c0,.78,0,.94.83.94h.36v.62h-.57c-1.07,0-1.31-.24-1.31-1.43v-3.85h-1v-.6h1Z"/>
        <path class="cls-2" d="M479.33,225a1.54,1.54,0,0,0-1.61-1.1c-.59,0-1.47.22-1.47,1s.44.86,1.07,1l.84.16c1,.18,2,.48,2,1.62s-1.08,1.8-2.36,1.8a2.21,2.21,0,0,1-2.39-1.89l.72-.09a1.62,1.62,0,0,0,1.73,1.36c.66,0,1.61-.27,1.61-1.08s-.63-.91-1.44-1.06l-.94-.18c-.86-.17-1.58-.64-1.58-1.57s.92-1.61,2.28-1.61a2.11,2.11,0,0,1,2.23,1.62Zm2.88,3.36a2.09,2.09,0,0,0,1.9,1.05c1.47,0,2.56-1.14,2.56-3.05s-1.06-3.07-2.44-3.07a2.21,2.21,0,0,0-2,1.08l0-1h-.68v8h.7Zm3.73-2c0,1.52-.75,2.43-1.85,2.43s-1.93-.73-1.93-2.43,1-2.46,1.93-2.46C485.2,223.85,485.94,224.77,485.94,226.31Z"/>
        <path class="cls-2" d="M490.22,223.24c1.4,0,2.71.93,2.71,3.06s-1.31,3.06-2.71,3.06-2.71-.94-2.71-3.06S488.83,223.24,490.22,223.24Zm0,5.5c1.11,0,2-.79,2-2.44s-.87-2.45-2-2.45-2,.79-2,2.45S489.12,228.74,490.22,228.74Z"/>
        <path class="cls-2" d="M494.42,221.87h.7v1.46h1.19v.6h-1.19v3.72c0,.78,0,.94.83.94h.36v.62h-.58c-1.06,0-1.31-.24-1.31-1.43v-3.85h-1v-.6h1Z"/>
      </g>
      <g>
        <path class="cls-2" d="M314.17,211.61a2.84,2.84,0,0,1,3,2.08l-.78.08a2.15,2.15,0,0,0-2.31-1.45c-.81,0-1.95.31-1.95,1.37,0,.81.67,1.2,1.55,1.39l1,.21c1.17.27,2.72.71,2.72,2.25s-1.42,2.32-3,2.32c-2,0-3.13-1.15-3.31-2.49l.78-.08a2.29,2.29,0,0,0,2.5,1.87c.88,0,2.23-.29,2.23-1.5,0-1-1-1.39-2.09-1.65l-1-.22c-1.07-.24-2.12-.75-2.12-2.07C311.36,212.22,312.87,211.61,314.17,211.61Z"/>
        <path class="cls-2" d="M321,213.75c1.39,0,2.71.93,2.71,3.06s-1.32,3.05-2.71,3.05-2.72-.93-2.72-3.05S319.55,213.75,321,213.75Zm0,5.5c1.1,0,2-.79,2-2.44s-.87-2.45-2-2.45-2,.79-2,2.45S319.84,219.25,321,219.25Z"/>
        <path class="cls-2" d="M325,213.1c0-1,.25-1.34,1.39-1.34h.49v.63h-.35c-.75,0-.84.07-.84.81v.64h1.19v.6h-1.19v5.28H325v-5.28h-.83v-.6H325Zm3.18-.72h.69v1.46h1.19v.6h-1.19v3.72c0,.78,0,.94.83.94h.36v.62h-.58c-1.06,0-1.3-.24-1.3-1.43v-3.85h-1v-.6h1Z"/>
        <path class="cls-2" d="M337.53,215.46a1.54,1.54,0,0,0-1.61-1.1c-.59,0-1.47.21-1.47.95,0,.58.44.86,1.08,1l.83.16c1,.18,2,.48,2,1.61s-1.08,1.8-2.36,1.8a2.2,2.2,0,0,1-2.39-1.88l.72-.1a1.62,1.62,0,0,0,1.73,1.37c.66,0,1.61-.27,1.61-1.08s-.63-.91-1.44-1.07l-.94-.17c-.86-.17-1.58-.64-1.58-1.58s.92-1.6,2.28-1.6a2.11,2.11,0,0,1,2.23,1.62Zm2.88,3.36a2.08,2.08,0,0,0,1.9,1c1.47,0,2.56-1.14,2.56-3s-1.06-3.07-2.44-3.07a2.21,2.21,0,0,0-2,1.08l0-1h-.68v7.95h.7Zm3.73-2c0,1.52-.75,2.43-1.85,2.43s-1.93-.73-1.93-2.43,1-2.46,1.93-2.46C343.4,214.36,344.14,215.28,344.14,216.82Z"/>
        <path class="cls-2" d="M348.42,213.75c1.4,0,2.72.93,2.72,3.06s-1.32,3.05-2.72,3.05-2.71-.93-2.71-3.05S347,213.75,348.42,213.75Zm0,5.5c1.11,0,2-.79,2-2.44s-.87-2.45-2-2.45-2,.79-2,2.45S347.32,219.25,348.42,219.25Z"/>
        <path class="cls-2" d="M352.63,212.38h.69v1.46h1.19v.6h-1.19v3.72c0,.78,0,.94.83.94h.36v.62h-.58c-1.06,0-1.3-.24-1.3-1.43v-3.85h-1v-.6h1Z"/>
        <path class="cls-2" d="M358.52,213.1c0-1,.25-1.34,1.39-1.34h.49v.63h-.35c-.75,0-.84.07-.84.81v.64h1.19v.6h-1.19v5.28h-.69v-5.28h-.83v-.6h.83Z"/>
        <path class="cls-2" d="M363.52,213.75c1.39,0,2.71.93,2.71,3.06s-1.32,3.05-2.71,3.05-2.71-.93-2.71-3.05S362.13,213.75,363.52,213.75Zm0,5.5c1.1,0,2-.79,2-2.44s-.88-2.45-2-2.45-2,.79-2,2.45S362.42,219.25,363.52,219.25Z"/>
        <path class="cls-2" d="M370,214.55h-.31c-1.23,0-1.52.89-1.52,2.16v3h-.68v-5.88h.65v1a1.7,1.7,0,0,1,1.66-1.06.71.71,0,0,1,.2,0Z"/>
        <path class="cls-2" d="M377.15,215.46a1.53,1.53,0,0,0-1.61-1.1c-.58,0-1.47.21-1.47.95,0,.58.44.86,1.08,1l.84.16c1,.18,2,.48,2,1.61s-1.08,1.8-2.37,1.8a2.2,2.2,0,0,1-2.38-1.88l.72-.1a1.6,1.6,0,0,0,1.72,1.37c.66,0,1.61-.27,1.61-1.08s-.62-.91-1.44-1.07l-.94-.17c-.86-.17-1.58-.64-1.58-1.58s.93-1.6,2.28-1.6a2.11,2.11,0,0,1,2.23,1.62Zm2.46-3.08h.7v1.46h1.18v.6h-1.18v3.72c0,.78,0,.94.82.94h.36v.62h-.57c-1.07,0-1.31-.24-1.31-1.43v-3.85h-1v-.6h1Z"/>
        <path class="cls-2" d="M382.48,215.56c.07-1.14,1-1.81,2.34-1.81s2.21.45,2.21,2c0,1.07,0,1.58,0,2.06,0,.68,0,1.27.07,1.92h-.7l-.05-.91a2.06,2.06,0,0,1-2,1.05,1.82,1.82,0,0,1-2-1.83,1.47,1.47,0,0,1,.63-1.26,5.47,5.47,0,0,1,2.26-.58l1.17-.12v-.34c0-1.19-.77-1.37-1.58-1.37-1,0-1.5.51-1.55,1.22Zm3.89,1.1-1.29.13c-1.42.15-2.08.46-2.08,1.26s.57,1.2,1.44,1.2c1,0,1.93-.62,1.93-2.23Z"/>
        <path class="cls-2" d="M389.23,211.76v1.1h-.7v-1.1Zm0,2.08v5.88h-.7v-5.88Z"/>
        <path class="cls-2" d="M393.42,214.55h-.31c-1.23,0-1.52.89-1.52,2.16v3h-.68v-5.88h.65v1a1.7,1.7,0,0,1,1.66-1.06.71.71,0,0,1,.2,0Z"/>
        <path class="cls-2" d="M399,215.62l-.72.09a1.69,1.69,0,0,0-1.78-1.34c-1,0-1.94.83-1.94,2.42s.91,2.45,2,2.45a1.71,1.71,0,0,0,1.81-1.34l.72.09a2.42,2.42,0,0,1-2.55,1.87c-1.7,0-2.66-1.27-2.66-3.05s1-3.06,2.74-3.06A2.37,2.37,0,0,1,399,215.62Z"/>
        <path class="cls-2" d="M399.88,215.56c.07-1.14,1-1.81,2.34-1.81s2.21.45,2.21,2c0,1.07,0,1.58,0,2.06,0,.68,0,1.27.08,1.92h-.7l-.05-.91a2.06,2.06,0,0,1-2,1.05,1.82,1.82,0,0,1-2-1.83,1.47,1.47,0,0,1,.63-1.26,5.47,5.47,0,0,1,2.26-.58l1.17-.12v-.34c0-1.19-.77-1.37-1.58-1.37-1,0-1.5.51-1.55,1.22Zm3.89,1.1-1.29.13c-1.42.15-2.08.46-2.08,1.26s.57,1.2,1.44,1.2c1,0,1.93-.62,1.93-2.23Z"/>
        <path class="cls-2" d="M409.42,215.46a1.54,1.54,0,0,0-1.61-1.1c-.59,0-1.47.21-1.47.95,0,.58.44.86,1.08,1l.84.16c1,.18,2,.48,2,1.61s-1.08,1.8-2.36,1.8a2.21,2.21,0,0,1-2.39-1.88l.72-.1a1.62,1.62,0,0,0,1.73,1.37c.66,0,1.61-.27,1.61-1.08s-.63-.91-1.44-1.07l-.94-.17c-.86-.17-1.58-.64-1.58-1.58s.92-1.6,2.28-1.6a2.11,2.11,0,0,1,2.23,1.62Z"/>
        <path class="cls-2" d="M411.17,216.81a2.77,2.77,0,0,1,2.8-3.06c1.7,0,2.74,1.33,2.65,3.2h-4.73a2.08,2.08,0,0,0,2.1,2.29,1.79,1.79,0,0,0,1.85-1.32l.72.1a2.51,2.51,0,0,1-2.62,1.84C412.18,219.86,411.17,218.6,411.17,216.81Zm.73-.46h4a1.9,1.9,0,0,0-1.9-2A2,2,0,0,0,411.9,216.35Z"/>
      </g>
      <g>
        <path class="cls-2" d="M415.4,48a2.84,2.84,0,0,1,3,2.08l-.78.08a2.15,2.15,0,0,0-2.31-1.45c-.81,0-1.95.31-1.95,1.37,0,.81.67,1.2,1.55,1.39l1,.22c1.17.26,2.72.7,2.72,2.24s-1.42,2.33-3,2.33a3,3,0,0,1-3.31-2.5l.78-.08a2.29,2.29,0,0,0,2.5,1.87c.88,0,2.23-.29,2.23-1.5,0-1-1-1.39-2.09-1.64l-1-.23c-1.06-.24-2.12-.75-2.12-2.07C412.59,48.59,414.1,48,415.4,48Z"/>
        <path class="cls-2" d="M422.18,50.11c1.39,0,2.71.93,2.71,3.06s-1.32,3.06-2.71,3.06-2.72-.94-2.72-3.06S420.78,50.11,422.18,50.11Zm0,5.5c1.1,0,2-.79,2-2.44s-.87-2.45-2-2.45-2,.79-2,2.45S421.07,55.61,422.18,55.61Z"/>
        <path class="cls-2" d="M426.27,49.46c0-1,.25-1.34,1.39-1.34h.49v.63h-.35c-.75,0-.84.08-.84.81v.64h1.19v.6H427v5.28h-.69V50.8h-.83v-.6h.83Zm3.18-.72h.69V50.2h1.19v.6h-1.19v3.72c0,.78,0,.94.83.94h.36v.62h-.58c-1.06,0-1.3-.24-1.3-1.43V50.8h-1v-.6h1Z"/>
        <path class="cls-2" d="M415.43,66.22a1.55,1.55,0,0,0-1.61-1.1c-.59,0-1.48.22-1.48.95s.45.86,1.08,1l.84.16c1,.18,2,.48,2,1.62s-1.08,1.8-2.36,1.8a2.21,2.21,0,0,1-2.39-1.89l.72-.09A1.62,1.62,0,0,0,414,70c.66,0,1.6-.27,1.6-1.08s-.62-.91-1.44-1.06l-.93-.18c-.87-.17-1.58-.64-1.58-1.57s.92-1.61,2.27-1.61a2.11,2.11,0,0,1,2.23,1.62Zm2.87,3.36a2.11,2.11,0,0,0,1.91,1c1.46,0,2.56-1.14,2.56-3s-1.06-3.07-2.44-3.07a2.22,2.22,0,0,0-2,1.08v-1h-.68v8h.69Zm3.73-2c0,1.52-.74,2.43-1.84,2.43s-1.93-.73-1.93-2.43,1-2.46,1.93-2.46C421.3,65.12,422,66,422,67.58Z"/>
        <path class="cls-2" d="M426.32,64.51c1.39,0,2.71.93,2.71,3.06s-1.32,3.06-2.71,3.06-2.71-.94-2.71-3.06S424.93,64.51,426.32,64.51Zm0,5.5c1.1,0,2-.79,2-2.44s-.88-2.45-2-2.45-2,.79-2,2.45S425.22,70,426.32,70Z"/>
        <path class="cls-2" d="M430.52,63.14h.7V64.6h1.19v.6h-1.19v3.72c0,.78,0,.94.83.94h.36v.62h-.58c-1.07,0-1.31-.24-1.31-1.43V65.2h-1v-.6h1Z"/>
      </g>
      <g>
        <path class="cls-2" d="M191.74,55.17a2.82,2.82,0,0,1,3,2.08l-.78.08a2.13,2.13,0,0,0-2.3-1.45c-.81,0-1.95.31-1.95,1.37,0,.81.67,1.2,1.54,1.39l1,.22c1.18.26,2.73.7,2.73,2.24s-1.42,2.33-3,2.33a3,3,0,0,1-3.31-2.5l.78-.08a2.28,2.28,0,0,0,2.49,1.87c.89,0,2.23-.29,2.23-1.5,0-1-1-1.39-2.08-1.64l-1-.23c-1.07-.24-2.12-.75-2.12-2.06C188.94,55.79,190.45,55.17,191.74,55.17Z"/>
        <path class="cls-2" d="M198.52,57.31c1.39,0,2.71.93,2.71,3.06s-1.32,3.06-2.71,3.06-2.71-.94-2.71-3.06S197.13,57.31,198.52,57.31Zm0,5.5c1.11,0,2-.79,2-2.44s-.87-2.45-2-2.45-2,.79-2,2.45S197.42,62.81,198.52,62.81Z"/>
        <path class="cls-2" d="M202.62,56.66c0-1,.25-1.34,1.39-1.34h.49V56h-.35c-.75,0-.84.08-.84.81v.64h1.19V58h-1.19v5.28h-.69V58h-.83v-.6h.83Zm3.17-.72h.7V57.4h1.19V58h-1.19v3.72c0,.78,0,.94.83.94h.36v.62h-.58c-1.07,0-1.31-.24-1.31-1.43V58h-1v-.6h1Z"/>
        <path class="cls-2" d="M215.11,59a1.55,1.55,0,0,0-1.61-1.1c-.59,0-1.48.22-1.48.95s.45.86,1.08,1l.84.16c1,.18,2,.48,2,1.62s-1.08,1.8-2.36,1.8a2.21,2.21,0,0,1-2.39-1.89l.72-.09a1.62,1.62,0,0,0,1.73,1.36c.66,0,1.6-.27,1.6-1.08s-.62-.91-1.44-1.06l-.93-.18c-.86-.17-1.58-.64-1.58-1.57s.92-1.61,2.28-1.61a2.11,2.11,0,0,1,2.23,1.62ZM218,62.38a2.11,2.11,0,0,0,1.91,1c1.46,0,2.56-1.14,2.56-3s-1.06-3.07-2.44-3.07a2.22,2.22,0,0,0-2,1.08v-1h-.68v8H218Zm3.73-2c0,1.52-.74,2.43-1.84,2.43s-1.93-.73-1.93-2.43,1-2.46,1.93-2.46C221,57.92,221.71,58.84,221.71,60.38Z"/>
        <path class="cls-2" d="M226,57.31c1.39,0,2.71.93,2.71,3.06s-1.32,3.06-2.71,3.06-2.71-.94-2.71-3.06S224.61,57.31,226,57.31Zm0,5.5c1.11,0,2-.79,2-2.44s-.87-2.45-2-2.45-2,.79-2,2.45S224.9,62.81,226,62.81Z"/>
        <path class="cls-2" d="M230.2,55.94h.7V57.4h1.19V58H230.9v3.72c0,.78,0,.94.83.94h.36v.62h-.58c-1.07,0-1.31-.24-1.31-1.43V58h-1v-.6h1Z"/>
      </g>
      <g>
        <path class="cls-2" d="M298.18,48a2.84,2.84,0,0,1,3,2.08l-.78.08a2.14,2.14,0,0,0-2.3-1.45c-.82,0-2,.31-2,1.37,0,.81.67,1.2,1.55,1.39l1,.22c1.17.26,2.72.7,2.72,2.24s-1.42,2.33-3,2.33a3,3,0,0,1-3.31-2.5l.78-.08a2.29,2.29,0,0,0,2.5,1.87c.89,0,2.23-.29,2.23-1.5,0-1-1-1.39-2.09-1.64l-1-.23c-1.06-.24-2.12-.75-2.12-2.07C295.37,48.59,296.88,48,298.18,48Z"/>
        <path class="cls-2" d="M303.17,51.21a2.07,2.07,0,0,1,2-1.1,1.92,1.92,0,0,1,1.56.62,2.64,2.64,0,0,1,.46,1.69v3.66h-.7V52.6a2.29,2.29,0,0,0-.34-1.41,1.33,1.33,0,0,0-1.16-.47,1.92,1.92,0,0,0-1.81,2.14v3.22h-.7v-8h.7Z"/>
        <path class="cls-2" d="M308.46,51.92c.08-1.14,1-1.81,2.34-1.81s2.21.45,2.21,2c0,1.07,0,1.58,0,2.06,0,.69,0,1.27.07,1.92h-.7l-.05-.91a2,2,0,0,1-2,1.06,1.83,1.83,0,0,1-2-1.84,1.49,1.49,0,0,1,.63-1.26,5.39,5.39,0,0,1,2.26-.57l1.17-.12v-.35c0-1.19-.76-1.37-1.58-1.37-1,0-1.5.52-1.55,1.22Zm3.89,1.1-1.28.14c-1.43.14-2.09.45-2.09,1.25s.57,1.2,1.44,1.2c1,0,1.93-.62,1.93-2.23Z"/>
        <path class="cls-2" d="M314.68,49.46c0-1,.25-1.34,1.39-1.34h.49v.63h-.35c-.75,0-.84.08-.84.81v.64h1.19v.6h-1.19v5.28h-.69V50.8h-.83v-.6h.83Zm3.18-.72h.69V50.2h1.19v.6h-1.19v3.72c0,.78,0,.94.83.94h.36v.62h-.58c-1.06,0-1.3-.24-1.3-1.43V50.8h-1v-.6h1Z"/>
        <path class="cls-2" d="M323.75,49.46c0-1,.25-1.34,1.39-1.34h.49v.63h-.34c-.76,0-.84.08-.84.81v.64h1.18v.6h-1.18v5.28h-.7V50.8h-.83v-.6h.83Z"/>
        <path class="cls-2" d="M328.75,50.11c1.39,0,2.71.93,2.71,3.06s-1.32,3.06-2.71,3.06S326,55.29,326,53.17,327.36,50.11,328.75,50.11Zm0,5.5c1.11,0,2-.79,2-2.44s-.87-2.45-2-2.45-2,.79-2,2.45S327.65,55.61,328.75,55.61Z"/>
        <path class="cls-2" d="M335.2,50.91h-.31c-1.24,0-1.53.89-1.53,2.16v3h-.68V50.2h.66v1A1.67,1.67,0,0,1,335,50.16h.21Z"/>
        <path class="cls-2" d="M339.49,51.21a2.07,2.07,0,0,1,2-1.1,1.92,1.92,0,0,1,1.56.62,2.58,2.58,0,0,1,.46,1.69v3.66h-.7V52.6a2.37,2.37,0,0,0-.33-1.41,1.35,1.35,0,0,0-1.17-.47,1.92,1.92,0,0,0-1.81,2.14v3.22h-.69v-8h.69Z"/>
        <path class="cls-2" d="M347.25,50.11c1.39,0,2.71.93,2.71,3.06s-1.32,3.06-2.71,3.06-2.72-.94-2.72-3.06S345.85,50.11,347.25,50.11Zm0,5.5c1.1,0,2-.79,2-2.44s-.87-2.45-2-2.45-2,.79-2,2.45S346.14,55.61,347.25,55.61Z"/>
        <path class="cls-2" d="M351.87,48.12v1.1h-.7v-1.1Zm0,2.08v5.88h-.7V50.2Z"/>
        <path class="cls-2" d="M357.13,51.82a1.53,1.53,0,0,0-1.61-1.1c-.58,0-1.47.22-1.47,1s.44.86,1.08,1l.84.16c1,.18,2,.48,2,1.62s-1.08,1.8-2.37,1.8a2.21,2.21,0,0,1-2.38-1.89l.72-.09a1.6,1.6,0,0,0,1.72,1.36c.66,0,1.61-.27,1.61-1.08s-.62-.91-1.44-1.06l-.93-.18c-.87-.17-1.59-.64-1.59-1.57s.93-1.61,2.28-1.61a2.11,2.11,0,0,1,2.23,1.62Zm2.46-3.08h.7V50.2h1.18v.6h-1.18v3.72c0,.78,0,.94.82.94h.36v.62h-.57c-1.07,0-1.31-.24-1.31-1.43V50.8h-1v-.6h1Z"/>
        <path class="cls-2" d="M304.23,64.51c1.39,0,2.71.93,2.71,3.06s-1.32,3.06-2.71,3.06-2.71-.94-2.71-3.06S302.83,64.51,304.23,64.51Zm0,5.5c1.1,0,2-.79,2-2.44s-.87-2.45-2-2.45-2,.79-2,2.45S303.12,70,304.23,70Z"/>
        <path class="cls-2" d="M310.67,65.31h-.31c-1.24,0-1.53.89-1.53,2.16v3h-.68V64.6h.66v1a1.68,1.68,0,0,1,1.66-1h.2Z"/>
        <path class="cls-2" d="M318.22,69.31a2.17,2.17,0,0,1-2,1.08c-1.38,0-2.46-1.14-2.46-3a2.65,2.65,0,0,1,2.58-2.93,2,2,0,0,1,1.84,1v-1h.69v5.74a2.14,2.14,0,0,1-.71,1.78,2.66,2.66,0,0,1-1.73.52,2.09,2.09,0,0,1-2.31-1.71l.72-.05c.09.63.59,1.16,1.61,1.16a1.93,1.93,0,0,0,1.22-.32,1.59,1.59,0,0,0,.51-1.31Zm0-1.87c0-1.59-1-2.32-1.89-2.32s-1.84.91-1.84,2.32.77,2.33,1.83,2.33A2.07,2.07,0,0,0,318.26,67.44Z"/>
        <path class="cls-2" d="M322.84,64.51c1.39,0,2.71.93,2.71,3.06s-1.32,3.06-2.71,3.06-2.71-.94-2.71-3.06S321.45,64.51,322.84,64.51Zm0,5.5c1.1,0,2-.79,2-2.44s-.88-2.45-2-2.45-2,.79-2,2.45S321.73,70,322.84,70Z"/>
        <path class="cls-2" d="M329.1,64.51c1.39,0,2.71.93,2.71,3.06s-1.32,3.06-2.71,3.06-2.71-.94-2.71-3.06S327.71,64.51,329.1,64.51Zm0,5.5c1.1,0,2-.79,2-2.44s-.88-2.45-2-2.45-2,.79-2,2.45S328,70,329.1,70Z"/>
        <path class="cls-2" d="M337.81,70.48h-.68v-.93a2.22,2.22,0,0,1-2,1.08c-1.38,0-2.44-1.14-2.44-3.07s1.1-3,2.56-3a2.1,2.1,0,0,1,1.91,1v-3h.69Zm-.65-2.92c0-1.71-1-2.44-1.93-2.44s-1.84.91-1.84,2.44.73,2.45,1.84,2.45C336.14,70,337.16,69.26,337.16,67.56Z"/>
        <path class="cls-2" d="M343,66.22a1.53,1.53,0,0,0-1.6-1.1c-.59,0-1.48.22-1.48.95s.45.86,1.08,1l.84.16c1,.18,2,.48,2,1.62s-1.08,1.8-2.36,1.8a2.21,2.21,0,0,1-2.39-1.89l.72-.09A1.62,1.62,0,0,0,341.55,70c.66,0,1.6-.27,1.6-1.08s-.62-.91-1.44-1.06l-.93-.18c-.87-.17-1.59-.64-1.59-1.57s.93-1.61,2.28-1.61a2.11,2.11,0,0,1,2.23,1.62Z"/>
        <path class="cls-2" d="M348.54,70.48h-.69v-8h.69Z"/>
        <path class="cls-2" d="M350.92,62.52v1.1h-.7v-1.1Zm0,2.08v5.88h-.7V64.6Z"/>
        <path class="cls-2" d="M352.77,63.86c0-1,.25-1.34,1.39-1.34h.49v.63h-.35c-.75,0-.84.08-.84.81v.64h1.19v.6h-1.19v5.28h-.69V65.2h-.83v-.6h.83Zm3.17-.72h.7V64.6h1.19v.6h-1.19v3.72c0,.78,0,.94.83.94h.36v.62h-.58c-1.07,0-1.31-.24-1.31-1.43V65.2h-1v-.6h1Z"/>
      </g>
    </g>
  </g>
</svg>
