<?xml version="1.0" encoding="UTF-8"?><svg xmlns="http://www.w3.org/2000/svg" viewBox="0 0 929.09 321.65"><g isolation="isolate"><g id="a"><polygon points="289.35 241.51 248.79 241.51 248.79 237.76 248.79 230.35 248.79 222.95 248.79 215.54 248.79 180.72 248.79 165.24 174.3 165.24 174.3 180.72 174.3 215.54 125.19 215.54 125.19 189.48 118.8 189.48 36.79 189.48 4.72 189.48 4.72 253.76 4.72 309.22 109.64 315.01 109.64 307.5 125.19 307.5 157.49 307.5 174.3 307.5 176.79 307.5 248.79 307.5 289.35 307.5 336.33 307.5 352.97 307.5 352.97 241.51 289.35 241.51" fill="#282727"/><polygon points="118.8 189.48 36.79 189.48 4.72 189.48 4.72 4.36 248.79 4.36 364.37 4.36 429.62 4.36 536.71 4.36 924.03 4.36 924.03 307.5 352.97 307.5 352.97 241.51 289.35 241.51 248.79 241.51 248.79 237.76 248.79 230.35 248.79 222.95 248.79 215.54 248.79 180.72 248.79 165.24 174.3 165.24 174.3 180.72 174.3 215.54 125.19 215.54 125.19 189.48 118.8 189.48" fill="#e4bcb1"/></g><g id="b" opacity=".3"><line x1="174.3" y1="307.5" x2="174.3" y2="298.69" fill="none" stroke="#dadada" stroke-miterlimit="10" stroke-width="6"/><line x1="240.78" y1="180.71" x2="248.8" y2="180.71" fill="none" stroke="#dadada" stroke-miterlimit="10" stroke-width="6"/><line x1="221.44" y1="182.21" x2="240.78" y2="182.21" fill="none" stroke="#dadada" stroke-miterlimit="10"/><line x1="201.65" y1="180.71" x2="221.44" y2="180.71" fill="none" stroke="#dadada" stroke-miterlimit="10" stroke-width="6"/><line x1="182.31" y1="182.21" x2="201.65" y2="182.21" fill="none" stroke="#dadada" stroke-miterlimit="10"/><line x1="174.3" y1="180.71" x2="182.31" y2="180.71" fill="none" stroke="#dadada" stroke-miterlimit="10" stroke-width="6"/><line x1="248.79" y1="307.5" x2="248.79" y2="298.69" fill="none" stroke="#dadada" stroke-miterlimit="10" stroke-width="6"/><line x1="125.19" y1="306.57" x2="125.19" y2="298.69" fill="none" stroke="#dadada" stroke-miterlimit="10" stroke-width="6"/><polyline points="248.79 259.97 248.79 263.67 248.79 267.37 248.79 271.35" fill="none" stroke="#dadada" stroke-miterlimit="10" stroke-width="6"/><line x1="174.3" y1="271.35" x2="174.3" y2="230.35" fill="none" stroke="#dadada" stroke-miterlimit="10" stroke-width="6"/><line x1="248.79" y1="271.35" x2="248.79" y2="241.51" fill="none" stroke="#dadada" stroke-miterlimit="10" stroke-width="6"/><line x1="125.19" y1="253.76" x2="125.19" y2="271.35" fill="none" stroke="#dadada" stroke-miterlimit="10" stroke-width="6"/><line x1="174.3" y1="271.35" x2="174.3" y2="215.54" fill="none" stroke="#dadada" stroke-miterlimit="10" stroke-width="6"/><line x1="125.19" y1="215.54" x2="125.19" y2="271.35" fill="none" stroke="#dadada" stroke-miterlimit="10" stroke-width="6"/><path d="M171.8,277.55v-6.2c15.11,0,27.35,12.24,27.35,27.34h-27.35v-21.14Z" fill="none" stroke="#dadada" stroke-miterlimit="10"/><path d="M246.29,284.03v-12.68c15.11,0,27.35,12.24,27.35,27.34h-27.35v-14.66Z" fill="none" stroke="#dadada" stroke-miterlimit="10"/><path d="M286.85,271.35c15.11,0,27.35,12.24,27.35,27.34h-27.35v-27.34Z" fill="none" stroke="#dadada" stroke-miterlimit="10"/><path d="M122.69,277.55v21.14h27.35c0-15.1-12.24-27.34-27.35-27.34v6.2Z" fill="none" stroke="#dadada" stroke-miterlimit="10"/><rect x="174.3" y="215.54" width="32.65" height="7.4" fill="none" stroke="#dadada" stroke-miterlimit="10"/><rect x="174.3" y="222.94" width="32.65" height="7.4" fill="none" stroke="#dadada" stroke-miterlimit="10"/><rect x="216.14" y="215.54" width="32.65" height="7.4" fill="none" stroke="#dadada" stroke-miterlimit="10"/><rect x="216.14" y="222.94" width="32.65" height="7.4" fill="none" stroke="#dadada" stroke-miterlimit="10"/><rect x="216.14" y="230.35" width="32.65" height="7.4" fill="none" stroke="#dadada" stroke-miterlimit="10"/><rect x="216.14" y="237.75" width="32.65" height="7.4" fill="none" stroke="#dadada" stroke-miterlimit="10"/><rect x="216.14" y="245.16" width="32.65" height="7.4" fill="none" stroke="#dadada" stroke-miterlimit="10"/><rect x="216.14" y="252.56" width="32.65" height="7.4" fill="none" stroke="#dadada" stroke-miterlimit="10"/><rect x="216.14" y="259.96" width="32.65" height="7.4" fill="none" stroke="#dadada" stroke-miterlimit="10"/><rect x="206.95" y="215.54" width="9.2" height="51.83" fill="none" stroke="#dadada" stroke-miterlimit="10"/><line x1="113.73" y1="253.75" x2="125.19" y2="253.75" fill="none" stroke="#dadada" stroke-miterlimit="10" stroke-width="6"/><line x1="48.89" y1="256.25" x2="113.73" y2="256.25" fill="none" stroke="#dadada" stroke-miterlimit="10"/><line x1="29.76" y1="253.75" x2="48.89" y2="253.75" fill="none" stroke="#dadada" stroke-miterlimit="10" stroke-width="6"/><line x1="12.81" y1="256.25" x2="29.76" y2="256.25" fill="none" stroke="#dadada" stroke-miterlimit="10"/><line x1="4.72" y1="253.75" x2="12.81" y2="253.75" fill="none" stroke="#dadada" stroke-miterlimit="10" stroke-width="6"/><line x1="36.79" y1="253.75" x2="36.79" y2="189.48" fill="none" stroke="#dadada" stroke-miterlimit="10" stroke-width="6"/><polyline points="289.35 241.51 289.35 254.34 289.35 263.67 289.35 271.35" fill="none" stroke="#dadada" stroke-miterlimit="10" stroke-width="6"/><line x1="289.35" y1="307.5" x2="289.35" y2="298.69" fill="none" stroke="#dadada" stroke-miterlimit="10" stroke-width="6"/><line x1="248.79" y1="263.67" x2="289.36" y2="263.67" fill="none" stroke="#dadada" stroke-miterlimit="10"/><rect x="269.07" y="248.02" width="14.16" height="12.64" rx="1.23" ry="1.23" fill="none" stroke="#dadada" stroke-miterlimit="10"/><circle cx="276.15" cy="254.34" r="1.43" fill="none" stroke="#dadada" stroke-miterlimit="10"/><rect x="325.56" y="251.46" width="14.16" height="12.64" rx="1.23" ry="1.23" transform="translate(590.41 -74.86) rotate(90)" fill="none" stroke="#dadada" stroke-miterlimit="10"/><circle cx="332.63" cy="257.78" r="1.43" fill="none" stroke="#dadada" stroke-miterlimit="10"/><line x1="326.31" y1="254.34" x2="289.35" y2="254.34" fill="none" stroke="#dadada" stroke-miterlimit="10"/><line x1="336.33" y1="307.5" x2="336.33" y2="264.86" fill="none" stroke="#dadada" stroke-miterlimit="10"/><path d="M326.88,280.48h9.46v11.32h-9.46c-3.12,0-5.66-2.54-5.66-5.66h0c0-3.12,2.54-5.66,5.66-5.66Z" fill="none" stroke="#dadada" stroke-miterlimit="10"/><path d="M130.66,245.1h8.24m-4.12-22.21v22.21m-2.94-8.17l5.88-5.88" fill="none" stroke="#dadada" stroke-miterlimit="10"/><path d="M140.57,245.1h8.24m-4.12-22.21v22.21m-2.94-8.17l5.88-5.88" fill="none" stroke="#dadada" stroke-miterlimit="10"/><path d="M150.48,245.1h8.24m-4.12-22.21v22.21m-2.94-8.17l5.88-5.88" fill="none" stroke="#dadada" stroke-miterlimit="10"/><path d="M160.4,245.1h8.24m-4.12-22.21v22.21m-2.94-8.17l5.88-5.88" fill="none" stroke="#dadada" stroke-miterlimit="10"/></g><g id="c"><polyline points="156.9 215.54 174.3 215.54 174.3 180.72 174.3 165.24 248.79 165.24 248.79 180.72 248.79 215.54 248.79 222.95 248.79 230.35 248.79 237.76 248.79 241.51 256.64 241.51 248.79 241.51" fill="none" stroke="#dadada" stroke-miterlimit="10" stroke-width="6"/><polyline points="352.97 307.5 352.97 241.51 289.35 241.51 248.79 241.51" fill="none" stroke="#dadada" stroke-miterlimit="10" stroke-width="6"/><polyline points="174.3 215.54 125.19 215.54 125.19 189.48" fill="none" stroke="#dadada" stroke-miterlimit="10" stroke-width="6"/><polyline points="364.37 68.62 364.37 4.36 429.62 4.36 429.62 25.34" fill="none" stroke="#dadada" stroke-miterlimit="10" stroke-width="6"/><polyline points="4.72 189.48 36.79 189.48 118.8 189.48 125.19 189.48 125.19 215.54" fill="none" stroke="#dadada" stroke-miterlimit="10" stroke-width="6"/><polyline points="352.97 241.51 425.49 241.51 425.49 157.94" fill="none" stroke="#dadada" stroke-miterlimit="10" stroke-width="6"/><line x1="248.8" y1="165.23" x2="248.8" y2="157.94" fill="none" stroke="#dadada" stroke-miterlimit="10" stroke-width="6"/><polyline points="4.72 189.48 4.72 4.36 248.79 4.36 364.37 4.36 429.62 4.36" fill="none" stroke="#dadada" stroke-miterlimit="10" stroke-width="6"/><polyline points="429.62 4.36 536.71 4.36 924.03 4.36 924.03 307.5 352.97 307.5" fill="none" stroke="#dadada" stroke-miterlimit="10" stroke-width="6"/><line x1="125.19" y1="189.48" x2="125.19" y2="157.94" fill="none" stroke="#dadada" stroke-miterlimit="10" stroke-width="6"/><line x1="174.3" y1="165.24" x2="174.3" y2="157.94" fill="none" stroke="#dadada" stroke-miterlimit="10" stroke-width="6"/><line x1="247.51" y1="4.36" x2="247.51" y2="68.84" fill="none" stroke="#dadada" stroke-miterlimit="10" stroke-width="6"/><polyline points="352.97 307.5 157.49 307.5 109.64 307.5 109.64 315.01 4.72 309.22 4.72 189.48" fill="none" stroke="#dadada" stroke-miterlimit="10" stroke-width="6"/></g><g id="d"><g mix-blend-mode="multiply"><g><line x1="241.84" y1="11.45" x2="238.34" y2="11.45" fill="none" stroke="#ebebe5" stroke-miterlimit="10"/><line x1="236.29" y1="11.45" x2="126.39" y2="11.45" fill="none" stroke="#ebebe5" stroke-dasharray="0 0 7.19 2.05" stroke-miterlimit="10"/><polyline points="125.36 11.45 121.86 11.45 121.86 14.95" fill="none" stroke="#ebebe5" stroke-miterlimit="10"/><line x1="121.86" y1="17.07" x2="121.86" y2="63.77" fill="none" stroke="#ebebe5" stroke-dasharray="0 0 7.43 2.12" stroke-miterlimit="10"/><polyline points="121.86 64.84 121.86 68.34 125.36 68.34" fill="none" stroke="#ebebe5" stroke-miterlimit="10"/><line x1="127.42" y1="68.34" x2="237.32" y2="68.34" fill="none" stroke="#ebebe5" stroke-dasharray="0 0 7.19 2.05" stroke-miterlimit="10"/><line x1="238.34" y1="68.34" x2="241.84" y2="68.34" fill="none" stroke="#ebebe5" stroke-miterlimit="10"/></g></g><g mix-blend-mode="multiply"><g><line x1="279.29" y1="68.34" x2="282.79" y2="68.34" fill="none" stroke="#ebebe5" stroke-miterlimit="10"/><line x1="284.71" y1="68.34" x2="352.83" y2="68.34" fill="none" stroke="#ebebe5" stroke-dasharray="0 0 6.72 1.92" stroke-miterlimit="10"/><polyline points="353.79 68.34 357.29 68.34 357.29 64.84" fill="none" stroke="#ebebe5" stroke-miterlimit="10"/><line x1="357.29" y1="62.71" x2="357.29" y2="16.01" fill="none" stroke="#ebebe5" stroke-dasharray="0 0 7.43 2.12" stroke-miterlimit="10"/><polyline points="357.29 14.95 357.29 11.45 353.79 11.45" fill="none" stroke="#ebebe5" stroke-miterlimit="10"/><line x1="351.87" y1="11.45" x2="283.75" y2="11.45" fill="none" stroke="#ebebe5" stroke-dasharray="0 0 6.72 1.92" stroke-miterlimit="10"/><line x1="282.79" y1="11.45" x2="279.29" y2="11.45" fill="none" stroke="#ebebe5" stroke-miterlimit="10"/></g></g><g mix-blend-mode="multiply"><g><line x1="253.18" y1="68.34" x2="256.68" y2="68.34" fill="none" stroke="#ebebe5" stroke-miterlimit="10"/><line x1="258.59" y1="68.34" x2="274.84" y2="68.34" fill="none" stroke="#ebebe5" stroke-dasharray="0 0 6.69 1.91" stroke-miterlimit="10"/><line x1="275.79" y1="68.34" x2="279.29" y2="68.34" fill="none" stroke="#ebebe5" stroke-miterlimit="10"/></g></g><g mix-blend-mode="multiply"><g><polyline points="132.27 204.95 132.27 208.45 135.77 208.45" fill="none" stroke="#ebebe5" stroke-miterlimit="10"/><line x1="137.7" y1="208.45" x2="162.75" y2="208.45" fill="none" stroke="#ebebe5" stroke-dasharray="0 0 6.74 1.93" stroke-miterlimit="10"/><polyline points="163.72 208.45 167.22 208.45 167.22 204.95" fill="none" stroke="#ebebe5" stroke-miterlimit="10"/><line x1="167.22" y1="202.94" x2="167.22" y2="167.67" fill="none" stroke="#ebebe5" stroke-dasharray="0 0 7.05 2.02" stroke-miterlimit="10"/><polyline points="167.22 166.67 167.22 163.17 163.72 163.17" fill="none" stroke="#ebebe5" stroke-miterlimit="10"/><line x1="161.79" y1="163.17" x2="136.74" y2="163.17" fill="none" stroke="#ebebe5" stroke-dasharray="0 0 6.74 1.93" stroke-miterlimit="10"/><polyline points="135.77 163.17 132.27 163.17 132.27 166.67" fill="none" stroke="#ebebe5" stroke-miterlimit="10"/><line x1="132.27" y1="168.68" x2="132.27" y2="203.94" fill="none" stroke="#ebebe5" stroke-dasharray="0 0 7.05 2.02" stroke-miterlimit="10"/></g></g><g mix-blend-mode="multiply"><g><polyline points="418.4 161.94 418.4 158.44 414.9 158.44" fill="none" stroke="#ebebe5" stroke-miterlimit="10"/><line x1="412.9" y1="158.44" x2="260.38" y2="158.44" fill="none" stroke="#ebebe5" stroke-dasharray="0 0 7.02 2.01" stroke-miterlimit="10"/><polyline points="259.38 158.44 255.88 158.44 255.88 161.94" fill="none" stroke="#ebebe5" stroke-miterlimit="10"/><line x1="255.88" y1="164.06" x2="255.88" y2="229.86" fill="none" stroke="#ebebe5" stroke-dasharray="0 0 7.43 2.12" stroke-miterlimit="10"/><polyline points="255.88 230.92 255.88 234.42 259.38 234.42" fill="none" stroke="#ebebe5" stroke-miterlimit="10"/><line x1="261.39" y1="234.42" x2="413.9" y2="234.42" fill="none" stroke="#ebebe5" stroke-dasharray="0 0 7.02 2.01" stroke-miterlimit="10"/><polyline points="414.9 234.42 418.4 234.42 418.4 230.92" fill="none" stroke="#ebebe5" stroke-miterlimit="10"/><line x1="418.4" y1="228.8" x2="418.4" y2="163" fill="none" stroke="#ebebe5" stroke-dasharray="0 0 7.43 2.12" stroke-miterlimit="10"/></g></g><g mix-blend-mode="multiply"><g><polyline points="488.78 180.26 488.78 176.76 485.28 176.76" fill="none" stroke="#ebebe5" stroke-miterlimit="10"/><line x1="483.2" y1="176.76" x2="437.42" y2="176.76" fill="none" stroke="#ebebe5" stroke-dasharray="0 0 7.28 2.08" stroke-miterlimit="10"/><polyline points="436.38 176.76 432.88 176.76 432.88 180.26" fill="none" stroke="#ebebe5" stroke-miterlimit="10"/><line x1="432.88" y1="182.16" x2="432.88" y2="215.39" fill="none" stroke="#ebebe5" stroke-dasharray="0 0 6.65 1.9" stroke-miterlimit="10"/><polyline points="432.88 216.34 432.88 219.84 436.38 219.84" fill="none" stroke="#ebebe5" stroke-miterlimit="10"/><line x1="438.46" y1="219.84" x2="484.24" y2="219.84" fill="none" stroke="#ebebe5" stroke-dasharray="0 0 7.28 2.08" stroke-miterlimit="10"/><polyline points="485.28 219.84 488.78 219.84 488.78 216.34" fill="none" stroke="#ebebe5" stroke-miterlimit="10"/><line x1="488.78" y1="214.44" x2="488.78" y2="181.21" fill="none" stroke="#ebebe5" stroke-dasharray="0 0 6.65 1.9" stroke-miterlimit="10"/></g></g><g mix-blend-mode="multiply"><g><polyline points="422.44 14.95 422.44 11.45 418.94 11.45" fill="none" stroke="#ebebe5" stroke-miterlimit="10"/><line x1="417.07" y1="11.45" x2="375.84" y2="11.45" fill="none" stroke="#ebebe5" stroke-dasharray="0 0 6.56 1.87" stroke-miterlimit="10"/><polyline points="374.91 11.45 371.41 11.45 371.41 14.95" fill="none" stroke="#ebebe5" stroke-miterlimit="10"/><line x1="371.41" y1="17.07" x2="371.41" y2="63.77" fill="none" stroke="#ebebe5" stroke-dasharray="0 0 7.43 2.12" stroke-miterlimit="10"/><polyline points="371.41 64.84 371.41 68.34 374.91 68.34" fill="none" stroke="#ebebe5" stroke-miterlimit="10"/><line x1="376.78" y1="68.34" x2="418.01" y2="68.34" fill="none" stroke="#ebebe5" stroke-dasharray="0 0 6.56 1.87" stroke-miterlimit="10"/><polyline points="418.94 68.34 422.44 68.34 422.44 64.84" fill="none" stroke="#ebebe5" stroke-miterlimit="10"/><line x1="422.44" y1="62.71" x2="422.44" y2="16.01" fill="none" stroke="#ebebe5" stroke-dasharray="0 0 7.43 2.12" stroke-miterlimit="10"/></g></g></g><g id="f"><g><g><line x1="121.36" y1="11.45" x2="117.86" y2="11.45" fill="none" stroke="#fff" stroke-miterlimit="10"/><line x1="115.83" y1="11.45" x2="16.49" y2="11.45" fill="none" stroke="#fff" stroke-dasharray="0 0 7.1 2.03" stroke-miterlimit="10"/><polyline points="15.47 11.45 11.97 11.45 11.97 14.95" fill="none" stroke="#fff" stroke-miterlimit="10"/><line x1="11.97" y1="16.95" x2="11.97" y2="123.99" fill="none" stroke="#fff" stroke-dasharray="0 0 7 2" stroke-miterlimit="10"/><polyline points="11.97 124.99 11.97 128.49 15.47 128.49" fill="none" stroke="#fff" stroke-miterlimit="10"/><line x1="17.45" y1="128.49" x2="274.8" y2="128.49" fill="none" stroke="#fff" stroke-dasharray="0 0 6.93 1.98" stroke-miterlimit="10"/><polyline points="275.79 128.49 279.29 128.49 279.29 124.99" fill="none" stroke="#fff" stroke-miterlimit="10"/><line x1="279.29" y1="123.09" x2="279.29" y2="72.78" fill="none" stroke="#fff" stroke-dasharray="0 0 6.64 1.9" stroke-miterlimit="10"/><line x1="279.29" y1="71.84" x2="279.29" y2="68.34" fill="none" stroke="#fff" stroke-miterlimit="10"/></g><g><line x1="279.29" y1="68.34" x2="279.29" y2="64.84" fill="none" stroke="#fff" stroke-miterlimit="10"/><line x1="279.29" y1="62.71" x2="279.29" y2="16.01" fill="none" stroke="#fff" stroke-dasharray="0 0 7.43 2.12" stroke-miterlimit="10"/><polyline points="279.29 14.95 279.29 11.45 275.79 11.45" fill="none" stroke="#fff" stroke-miterlimit="10"/><line x1="273.88" y1="11.45" x2="257.64" y2="11.45" fill="none" stroke="#fff" stroke-dasharray="0 0 6.69 1.91" stroke-miterlimit="10"/><line x1="256.68" y1="11.45" x2="253.18" y2="11.45" fill="none" stroke="#fff" stroke-miterlimit="10"/></g></g></g><g id="g"><g><path d="M93.27,110.77c1.93,0,3.31,.5,3.31,2.45s-1.38,2.41-3.31,2.41h-1.56v3.11h-.74v-7.96h2.3Zm-1.56,.7v3.47h1.66c1.33,0,2.43-.2,2.43-1.72s-1.1-1.75-2.43-1.75h-1.66Z" fill="#fff"/><path d="M99.67,112.76c1.39,0,2.71,.94,2.71,3.06s-1.32,3.06-2.71,3.06-2.71-.94-2.71-3.06,1.32-3.06,2.71-3.06Zm0,5.5c1.1,0,1.98-.79,1.98-2.45s-.88-2.45-1.98-2.45-1.98,.79-1.98,2.45,.88,2.45,1.98,2.45Z" fill="#fff"/><path d="M103.87,111.4h.7v1.46h1.19v.6h-1.19v3.72c0,.78,.02,.94,.83,.94h.36v.62h-.58c-1.07,0-1.31-.24-1.31-1.43v-3.85h-1v-.6h1v-1.46Z" fill="#fff"/><path d="M106.49,115.82c0-1.9,1.18-3.06,2.79-3.06,1.7,0,2.75,1.33,2.65,3.2h-4.73c0,1.42,.88,2.29,2.1,2.29,.94,0,1.62-.49,1.85-1.32l.72,.1c-.28,1.15-1.3,1.85-2.61,1.85-1.76,0-2.77-1.26-2.77-3.06Zm.73-.46h3.96c0-1.02-.7-2-1.91-2-1.1,0-1.94,.72-2.05,2Z" fill="#fff"/><path d="M113.83,113.87c.3-.58,.88-1.1,1.99-1.1,.72,0,1.24,.23,1.56,.62,.31,.38,.46,.94,.46,1.69v3.66h-.7v-3.48c0-.68-.12-1.13-.34-1.42-.25-.34-.65-.47-1.16-.47-1.03,0-1.81,.86-1.81,2.13v3.23h-.7v-5.88h.7v1.01Z" fill="#fff"/><path d="M119.61,111.4h.7v1.46h1.19v.6h-1.19v3.72c0,.78,.02,.94,.83,.94h.36v.62h-.58c-1.07,0-1.31-.24-1.31-1.43v-3.85h-1v-.6h1v-1.46Z" fill="#fff"/><path d="M123.39,110.77v1.1h-.7v-1.1h.7Zm0,2.09v5.88h-.7v-5.88h.7Z" fill="#fff"/><path d="M124.86,114.57c.07-1.14,.98-1.81,2.34-1.81s2.21,.46,2.21,1.99c0,1.07-.01,1.58-.01,2.06,0,.68,.04,1.27,.07,1.92h-.7l-.05-.91c-.34,.61-.9,1.06-2.04,1.06-1.32,0-2.04-.82-2.04-1.83,0-.56,.25-1,.64-1.26,.56-.38,1.52-.5,2.25-.58l1.18-.12v-.35c0-1.19-.77-1.37-1.58-1.37-1.02,0-1.5,.52-1.55,1.22l-.72-.02Zm3.89,1.1l-1.28,.13c-1.43,.14-2.09,.46-2.09,1.26,0,.72,.58,1.2,1.44,1.2,1.04,0,1.93-.62,1.93-2.23v-.36Z" fill="#fff"/><path d="M131.6,118.74h-.7v-7.96h.7v7.96Z" fill="#fff"/><path d="M138.56,112.86h.7v1.01c.3-.56,.82-1.1,1.87-1.1,1.25,0,1.63,.74,1.76,1.26,.36-.74,.95-1.26,2-1.26,.66,0,1.13,.2,1.43,.56,.32,.38,.47,.96,.47,1.74v3.67h-.7v-3.48c0-.76-.12-1.22-.37-1.51-.24-.26-.59-.38-1.04-.38-.94,0-1.65,.86-1.65,2.13v3.24h-.7v-3.47c0-.73-.11-1.19-.34-1.48-.24-.3-.59-.43-1.08-.43-.94,0-1.66,.86-1.66,2.13v3.24h-.7v-5.88Z" fill="#fff"/><path d="M147.83,115.82c0-1.9,1.18-3.06,2.79-3.06,1.7,0,2.75,1.33,2.65,3.2h-4.73c0,1.42,.88,2.29,2.1,2.29,.94,0,1.62-.49,1.85-1.32l.72,.1c-.28,1.15-1.3,1.85-2.61,1.85-1.76,0-2.77-1.26-2.77-3.06Zm.73-.46h3.96c0-1.02-.7-2-1.91-2-1.1,0-1.94,.72-2.05,2Z" fill="#fff"/><path d="M153.99,118.14l3.69-4.68h-3.45v-.6h4.27v.6l-3.69,4.68h3.75v.6h-4.57v-.6Z" fill="#fff"/><path d="M159.35,118.14l3.69-4.68h-3.45v-.6h4.27v.6l-3.69,4.68h3.75v.6h-4.57v-.6Z" fill="#fff"/><path d="M164.96,114.57c.07-1.14,.98-1.81,2.34-1.81s2.21,.46,2.21,1.99c0,1.07-.01,1.58-.01,2.06,0,.68,.04,1.27,.07,1.92h-.7l-.05-.91c-.34,.61-.9,1.06-2.04,1.06-1.32,0-2.04-.82-2.04-1.83,0-.56,.25-1,.64-1.26,.56-.38,1.52-.5,2.25-.58l1.18-.12v-.35c0-1.19-.77-1.37-1.58-1.37-1.02,0-1.5,.52-1.55,1.22l-.72-.02Zm3.89,1.1l-1.28,.13c-1.43,.14-2.09,.46-2.09,1.26,0,.72,.58,1.2,1.44,1.2,1.04,0,1.93-.62,1.93-2.23v-.36Z" fill="#fff"/><path d="M171.7,113.87c.3-.58,.88-1.1,1.99-1.1,.72,0,1.24,.23,1.56,.62,.31,.38,.46,.94,.46,1.69v3.66h-.7v-3.48c0-.68-.12-1.13-.34-1.42-.25-.34-.65-.47-1.16-.47-1.03,0-1.81,.86-1.81,2.13v3.23h-.7v-5.88h.7v1.01Z" fill="#fff"/><path d="M177.91,110.77v1.1h-.7v-1.1h.7Zm0,2.09v5.88h-.7v-5.88h.7Z" fill="#fff"/><path d="M180.28,113.87c.3-.58,.88-1.1,1.99-1.1,.72,0,1.24,.23,1.56,.62,.31,.38,.46,.94,.46,1.69v3.66h-.7v-3.48c0-.68-.12-1.13-.34-1.42-.25-.34-.65-.47-1.16-.47-1.03,0-1.81,.86-1.81,2.13v3.23h-.7v-5.88h.7v1.01Z" fill="#fff"/><path d="M185.32,115.82c0-1.9,1.18-3.06,2.79-3.06,1.7,0,2.75,1.33,2.65,3.2h-4.73c0,1.42,.88,2.29,2.1,2.29,.94,0,1.62-.49,1.85-1.32l.72,.1c-.28,1.15-1.3,1.85-2.61,1.85-1.76,0-2.77-1.26-2.77-3.06Zm.73-.46h3.96c0-1.02-.7-2-1.91-2-1.1,0-1.94,.72-2.05,2Z" fill="#fff"/></g><g><path d="M144.05,181.52h4.28v.7h-5.03v-7.96h.74v7.27Z" fill="#282727"/><path d="M149.87,174.25v1.1h-.7v-1.1h.7Zm0,2.09v5.88h-.7v-5.88h.7Z" fill="#282727"/><path d="M151.72,175.59c0-.98,.25-1.34,1.39-1.34h.49v.64h-.35c-.76,0-.84,.07-.84,.8v.65h1.19v.6h-1.19v5.28h-.7v-5.28h-.83v-.6h.83v-.74Zm3.18-.72h.7v1.46h1.19v.6h-1.19v3.72c0,.78,.02,.94,.83,.94h.36v.62h-.58c-1.07,0-1.31-.24-1.31-1.43v-3.85h-1v-.6h1v-1.46Z" fill="#282727"/><path d="M141.98,192.36c-.19-.67-.76-1.1-1.61-1.1-.59,0-1.48,.22-1.48,.95,0,.59,.44,.86,1.08,.98l.84,.16c.98,.18,2.03,.48,2.03,1.62s-1.08,1.8-2.36,1.8-2.19-.65-2.39-1.88l.72-.1c.17,.88,.8,1.37,1.73,1.37,.66,0,1.61-.28,1.61-1.08,0-.71-.62-.91-1.44-1.07l-.94-.18c-.86-.17-1.58-.64-1.58-1.57s.92-1.61,2.28-1.61c1.28,0,2.05,.76,2.23,1.62l-.72,.1Z" fill="#282727"/><path d="M144.9,191.74c.3-.58,.88-1.1,1.99-1.1,.72,0,1.24,.23,1.56,.62,.31,.38,.46,.94,.46,1.69v3.66h-.7v-3.48c0-.68-.12-1.13-.34-1.42-.25-.34-.65-.47-1.16-.47-1.03,0-1.81,.86-1.81,2.13v3.23h-.7v-7.96h.7v3.09Z" fill="#282727"/><path d="M150.19,192.45c.07-1.14,.98-1.81,2.34-1.81s2.21,.46,2.21,1.99c0,1.07-.01,1.58-.01,2.06,0,.68,.04,1.27,.07,1.92h-.7l-.05-.91c-.34,.61-.9,1.06-2.04,1.06-1.32,0-2.04-.82-2.04-1.83,0-.56,.25-1,.64-1.26,.56-.38,1.52-.5,2.25-.58l1.18-.12v-.35c0-1.19-.77-1.37-1.58-1.37-1.02,0-1.5,.52-1.55,1.22l-.72-.02Zm3.89,1.1l-1.28,.13c-1.43,.14-2.09,.46-2.09,1.26,0,.72,.58,1.2,1.44,1.2,1.04,0,1.93-.62,1.93-2.23v-.36Z" fill="#282727"/><path d="M156.41,189.99c0-.98,.25-1.34,1.39-1.34h.49v.64h-.35c-.76,0-.84,.07-.84,.8v.65h1.19v.6h-1.19v5.28h-.7v-5.28h-.83v-.6h.83v-.74Zm3.18-.72h.7v1.46h1.19v.6h-1.19v3.72c0,.78,.02,.94,.83,.94h.36v.62h-.58c-1.07,0-1.31-.24-1.31-1.43v-3.85h-1v-.6h1v-1.46Z" fill="#282727"/></g><g><path d="M454.34,186.71c1.61,0,2.72,.83,3.01,2.08l-.78,.08c-.28-.94-1.08-1.45-2.3-1.45-.82,0-1.96,.31-1.96,1.37,0,.82,.67,1.2,1.55,1.39l.96,.22c1.17,.26,2.72,.71,2.72,2.24s-1.42,2.33-2.99,2.33c-2.02,0-3.13-1.15-3.31-2.5l.78-.08c.28,1.28,1.19,1.87,2.5,1.87,.89,0,2.23-.29,2.23-1.5,0-.98-.97-1.39-2.09-1.64l-1.01-.23c-1.07-.24-2.12-.74-2.12-2.06,0-1.5,1.51-2.11,2.81-2.11Z" fill="#282727"/><path d="M461.12,188.84c1.39,0,2.71,.94,2.71,3.06s-1.32,3.06-2.71,3.06-2.71-.94-2.71-3.06,1.32-3.06,2.71-3.06Zm0,5.5c1.1,0,1.98-.79,1.98-2.45s-.88-2.45-1.98-2.45-1.98,.79-1.98,2.45,.88,2.45,1.98,2.45Z" fill="#282727"/><path d="M465.21,188.2c0-.98,.25-1.34,1.39-1.34h.49v.63h-.35c-.75,0-.84,.07-.84,.8v.65h1.19v.6h-1.19v5.28h-.7v-5.28h-.83v-.6h.83v-.74Zm3.18-.72h.7v1.46h1.19v.6h-1.19v3.72c0,.78,.02,.94,.83,.94h.36v.62h-.58c-1.07,0-1.31-.24-1.31-1.43v-3.85h-1v-.6h1v-1.46Z" fill="#282727"/><path d="M454.37,204.96c-.19-.67-.76-1.1-1.61-1.1-.59,0-1.48,.22-1.48,.95,0,.59,.44,.86,1.08,.98l.84,.16c.98,.18,2.03,.48,2.03,1.62s-1.08,1.8-2.36,1.8-2.19-.65-2.39-1.88l.72-.1c.17,.88,.8,1.37,1.73,1.37,.66,0,1.61-.28,1.61-1.08,0-.71-.62-.91-1.44-1.07l-.94-.18c-.86-.17-1.58-.64-1.58-1.57s.92-1.61,2.28-1.61c1.28,0,2.05,.75,2.23,1.62l-.72,.1Zm2.88,3.36c.37,.71,1.14,1.04,1.91,1.04,1.46,0,2.55-1.14,2.55-3.05s-1.06-3.07-2.43-3.07c-.89,0-1.61,.36-2.03,1.08v-.98h-.7v7.95h.7v-2.97Zm3.73-2c0,1.52-.74,2.43-1.85,2.43-.96,0-1.93-.73-1.93-2.43s1.02-2.46,1.93-2.46c1.12,0,1.85,.92,1.85,2.46Z" fill="#282727"/><path d="M465.27,203.24c1.39,0,2.71,.94,2.71,3.06s-1.32,3.06-2.71,3.06-2.71-.94-2.71-3.06,1.32-3.06,2.71-3.06Zm0,5.5c1.1,0,1.98-.79,1.98-2.45s-.88-2.45-1.98-2.45-1.98,.79-1.98,2.45,.88,2.45,1.98,2.45Z" fill="#282727"/><path d="M469.47,201.88h.7v1.46h1.19v.6h-1.19v3.72c0,.78,.02,.94,.83,.94h.36v.62h-.58c-1.07,0-1.31-.24-1.31-1.43v-3.85h-1v-.6h1v-1.46Z" fill="#282727"/></g><g><path d="M289.21,191.62c1.61,0,2.72,.83,3.01,2.07l-.78,.08c-.28-.94-1.08-1.45-2.3-1.45-.82,0-1.95,.31-1.95,1.37,0,.82,.67,1.2,1.55,1.39l.96,.22c1.18,.26,2.72,.71,2.72,2.24s-1.42,2.33-2.99,2.33c-2.02,0-3.13-1.15-3.31-2.49l.78-.08c.28,1.28,1.19,1.87,2.49,1.87,.89,0,2.23-.29,2.23-1.5,0-.98-.97-1.39-2.09-1.64l-1.01-.23c-1.07-.24-2.12-.74-2.12-2.06,0-1.5,1.51-2.11,2.81-2.11Z" fill="#282727"/><path d="M295.99,193.75c1.39,0,2.71,.94,2.71,3.06s-1.32,3.06-2.71,3.06-2.71-.94-2.71-3.06,1.32-3.06,2.71-3.06Zm0,5.5c1.1,0,1.98-.79,1.98-2.45s-.88-2.45-1.98-2.45-1.98,.79-1.98,2.45,.88,2.45,1.98,2.45Z" fill="#282727"/><path d="M300.08,193.1c0-.98,.25-1.34,1.39-1.34h.49v.64h-.35c-.76,0-.84,.07-.84,.8v.65h1.19v.6h-1.19v5.28h-.7v-5.28h-.83v-.6h.83v-.74Zm3.18-.72h.7v1.46h1.19v.6h-1.19v3.72c0,.78,.02,.94,.83,.94h.36v.62h-.58c-1.07,0-1.31-.24-1.31-1.43v-3.85h-1v-.6h1v-1.46Z" fill="#282727"/><path d="M312.57,195.47c-.19-.67-.76-1.1-1.61-1.1-.59,0-1.48,.22-1.48,.95,0,.59,.44,.86,1.08,.98l.84,.16c.98,.18,2.03,.48,2.03,1.62s-1.08,1.8-2.36,1.8-2.19-.65-2.39-1.88l.72-.1c.17,.88,.8,1.37,1.73,1.37,.66,0,1.61-.28,1.61-1.08,0-.71-.62-.91-1.44-1.07l-.94-.18c-.86-.17-1.58-.64-1.58-1.57s.92-1.61,2.28-1.61c1.28,0,2.05,.76,2.23,1.62l-.72,.1Zm2.88,3.36c.37,.71,1.14,1.04,1.91,1.04,1.46,0,2.55-1.14,2.55-3.05s-1.06-3.07-2.43-3.07c-.89,0-1.61,.36-2.03,1.08v-.98h-.7v7.95h.7v-2.97Zm3.73-2c0,1.52-.74,2.43-1.85,2.43-.96,0-1.93-.73-1.93-2.43s1.02-2.46,1.93-2.46c1.12,0,1.85,.92,1.85,2.46Z" fill="#282727"/><path d="M323.47,193.75c1.39,0,2.71,.94,2.71,3.06s-1.32,3.06-2.71,3.06-2.71-.94-2.71-3.06,1.32-3.06,2.71-3.06Zm0,5.5c1.1,0,1.98-.79,1.98-2.45s-.88-2.45-1.98-2.45-1.98,.79-1.98,2.45,.88,2.45,1.98,2.45Z" fill="#282727"/><path d="M327.67,192.39h.7v1.46h1.19v.6h-1.19v3.72c0,.78,.02,.94,.83,.94h.36v.62h-.58c-1.07,0-1.31-.24-1.31-1.43v-3.85h-1v-.6h1v-1.46Z" fill="#282727"/><path d="M333.56,193.1c0-.98,.25-1.34,1.39-1.34h.49v.64h-.35c-.76,0-.84,.07-.84,.8v.65h1.19v.6h-1.19v5.28h-.7v-5.28h-.83v-.6h.83v-.74Z" fill="#282727"/><path d="M338.56,193.75c1.39,0,2.71,.94,2.71,3.06s-1.32,3.06-2.71,3.06-2.71-.94-2.71-3.06,1.32-3.06,2.71-3.06Zm0,5.5c1.1,0,1.98-.79,1.98-2.45s-.88-2.45-1.98-2.45-1.98,.79-1.98,2.45,.88,2.45,1.98,2.45Z" fill="#282727"/><path d="M345.01,194.56c-.11-.01-.22-.01-.31-.01-1.24,0-1.52,.89-1.52,2.16v3.02h-.68v-5.88h.66v1.01c.26-.71,.94-1.06,1.66-1.06,.06,0,.13,0,.2,.01v.74Z" fill="#282727"/><path d="M352.19,195.47c-.19-.67-.76-1.1-1.61-1.1-.59,0-1.48,.22-1.48,.95,0,.59,.44,.86,1.08,.98l.84,.16c.98,.18,2.03,.48,2.03,1.62s-1.08,1.8-2.36,1.8-2.19-.65-2.39-1.88l.72-.1c.17,.88,.8,1.37,1.73,1.37,.66,0,1.61-.28,1.61-1.08,0-.71-.62-.91-1.44-1.07l-.94-.18c-.86-.17-1.58-.64-1.58-1.57s.92-1.61,2.28-1.61c1.28,0,2.05,.76,2.23,1.62l-.72,.1Zm2.46-3.08h.7v1.46h1.19v.6h-1.19v3.72c0,.78,.02,.94,.83,.94h.36v.62h-.58c-1.07,0-1.31-.24-1.31-1.43v-3.85h-1v-.6h1v-1.46Z" fill="#282727"/><path d="M357.52,195.56c.07-1.14,.98-1.81,2.34-1.81s2.21,.46,2.21,1.99c0,1.07-.01,1.58-.01,2.06,0,.68,.04,1.27,.07,1.92h-.7l-.05-.91c-.34,.61-.9,1.06-2.04,1.06-1.32,0-2.04-.82-2.04-1.83,0-.56,.25-1,.64-1.26,.56-.38,1.52-.5,2.25-.58l1.18-.12v-.35c0-1.19-.77-1.37-1.58-1.37-1.02,0-1.5,.52-1.55,1.22l-.72-.02Zm3.89,1.1l-1.28,.13c-1.43,.14-2.09,.46-2.09,1.26,0,.72,.58,1.2,1.44,1.2,1.04,0,1.93-.62,1.93-2.23v-.36Z" fill="#282727"/><path d="M364.27,191.76v1.1h-.7v-1.1h.7Zm0,2.09v5.88h-.7v-5.88h.7Z" fill="#282727"/><path d="M368.47,194.56c-.11-.01-.22-.01-.31-.01-1.24,0-1.52,.89-1.52,2.16v3.02h-.68v-5.88h.66v1.01c.26-.71,.94-1.06,1.66-1.06,.06,0,.13,0,.2,.01v.74Z" fill="#282727"/><path d="M374.01,195.62l-.72,.1c-.22-.9-.9-1.34-1.77-1.34-1.03,0-1.94,.83-1.94,2.42s.91,2.45,1.95,2.45,1.64-.6,1.81-1.34l.72,.1c-.24,1.13-1.21,1.87-2.55,1.87-1.7,0-2.66-1.27-2.66-3.06s1-3.06,2.75-3.06c1.36,0,2.24,.9,2.42,1.87Z" fill="#282727"/><path d="M374.92,195.56c.07-1.14,.98-1.81,2.34-1.81s2.21,.46,2.21,1.99c0,1.07-.01,1.58-.01,2.06,0,.68,.04,1.27,.07,1.92h-.7l-.05-.91c-.34,.61-.9,1.06-2.04,1.06-1.32,0-2.04-.82-2.04-1.83,0-.56,.25-1,.64-1.26,.56-.38,1.52-.5,2.25-.58l1.18-.12v-.35c0-1.19-.77-1.37-1.58-1.37-1.02,0-1.5,.52-1.55,1.22l-.72-.02Zm3.89,1.1l-1.28,.13c-1.43,.14-2.09,.46-2.09,1.26,0,.72,.58,1.2,1.44,1.2,1.04,0,1.93-.62,1.93-2.23v-.36Z" fill="#282727"/><path d="M384.46,195.47c-.19-.67-.76-1.1-1.61-1.1-.59,0-1.48,.22-1.48,.95,0,.59,.44,.86,1.08,.98l.84,.16c.98,.18,2.03,.48,2.03,1.62s-1.08,1.8-2.36,1.8-2.19-.65-2.39-1.88l.72-.1c.17,.88,.8,1.37,1.73,1.37,.66,0,1.61-.28,1.61-1.08,0-.71-.62-.91-1.44-1.07l-.94-.18c-.86-.17-1.58-.64-1.58-1.57s.92-1.61,2.28-1.61c1.28,0,2.05,.76,2.23,1.62l-.72,.1Z" fill="#282727"/><path d="M386.21,196.81c0-1.9,1.18-3.06,2.79-3.06,1.7,0,2.75,1.33,2.65,3.2h-4.73c0,1.42,.88,2.29,2.1,2.29,.94,0,1.62-.49,1.85-1.32l.72,.1c-.28,1.15-1.3,1.85-2.62,1.85-1.76,0-2.77-1.26-2.77-3.06Zm.73-.46h3.96c0-1.02-.7-2-1.91-2-1.1,0-1.94,.72-2.05,2Z" fill="#282727"/></g><g><path d="M390.44,27.98c1.61,0,2.72,.83,3.01,2.07l-.78,.08c-.28-.94-1.08-1.45-2.3-1.45-.82,0-1.95,.31-1.95,1.37,0,.82,.67,1.2,1.55,1.39l.96,.22c1.18,.26,2.72,.71,2.72,2.24s-1.42,2.33-2.99,2.33c-2.02,0-3.13-1.15-3.31-2.49l.78-.08c.28,1.28,1.19,1.87,2.5,1.87,.89,0,2.23-.29,2.23-1.5,0-.98-.97-1.39-2.09-1.64l-1.01-.23c-1.07-.24-2.12-.74-2.12-2.06,0-1.5,1.51-2.11,2.81-2.11Z" fill="#282727"/><path d="M397.22,30.11c1.39,0,2.71,.94,2.71,3.06s-1.32,3.06-2.71,3.06-2.71-.94-2.71-3.06,1.32-3.06,2.71-3.06Zm0,5.5c1.1,0,1.98-.79,1.98-2.45s-.88-2.45-1.98-2.45-1.98,.79-1.98,2.45,.88,2.45,1.98,2.45Z" fill="#282727"/><path d="M401.31,29.47c0-.98,.25-1.34,1.39-1.34h.49v.64h-.35c-.75,0-.84,.07-.84,.8v.65h1.19v.6h-1.19v5.28h-.7v-5.28h-.83v-.6h.83v-.74Zm3.18-.72h.7v1.46h1.19v.6h-1.19v3.72c0,.78,.02,.94,.83,.94h.36v.62h-.58c-1.07,0-1.31-.24-1.31-1.43v-3.85h-1v-.6h1v-1.46Z" fill="#282727"/><path d="M390.47,46.23c-.19-.67-.76-1.1-1.61-1.1-.59,0-1.48,.22-1.48,.95,0,.59,.44,.86,1.08,.98l.84,.16c.98,.18,2.03,.48,2.03,1.62s-1.08,1.8-2.36,1.8-2.2-.65-2.39-1.88l.72-.1c.17,.88,.8,1.37,1.73,1.37,.66,0,1.61-.28,1.61-1.08,0-.71-.62-.91-1.44-1.07l-.94-.18c-.86-.17-1.58-.64-1.58-1.57s.92-1.61,2.28-1.61c1.28,0,2.05,.76,2.23,1.62l-.72,.1Zm2.88,3.36c.37,.71,1.14,1.04,1.91,1.04,1.46,0,2.55-1.14,2.55-3.05s-1.06-3.07-2.43-3.07c-.89,0-1.61,.36-2.03,1.08v-.98h-.7v7.95h.7v-2.97Zm3.73-2c0,1.52-.74,2.43-1.85,2.43-.96,0-1.93-.73-1.93-2.43s1.02-2.46,1.93-2.46c1.12,0,1.85,.92,1.85,2.46Z" fill="#282727"/><path d="M401.36,44.51c1.39,0,2.71,.94,2.71,3.06s-1.32,3.06-2.71,3.06-2.71-.94-2.71-3.06,1.32-3.06,2.71-3.06Zm0,5.5c1.1,0,1.98-.79,1.98-2.45s-.88-2.45-1.98-2.45-1.98,.79-1.98,2.45,.88,2.45,1.98,2.45Z" fill="#282727"/><path d="M405.56,43.15h.7v1.46h1.19v.6h-1.19v3.72c0,.78,.02,.94,.83,.94h.36v.62h-.58c-1.07,0-1.31-.24-1.31-1.43v-3.85h-.99v-.6h.99v-1.46Z" fill="#282727"/></g><g><path d="M166.79,35.18c1.61,0,2.72,.83,3.01,2.07l-.78,.08c-.28-.94-1.08-1.45-2.3-1.45-.82,0-1.95,.31-1.95,1.37,0,.82,.67,1.2,1.55,1.39l.96,.22c1.18,.26,2.72,.71,2.72,2.24s-1.42,2.33-2.99,2.33c-2.02,0-3.13-1.15-3.31-2.49l.78-.08c.28,1.28,1.19,1.87,2.49,1.87,.89,0,2.23-.29,2.23-1.5,0-.98-.97-1.39-2.09-1.64l-1.01-.23c-1.07-.24-2.12-.74-2.12-2.06,0-1.5,1.51-2.11,2.81-2.11Z" fill="#282727"/><path d="M173.57,37.31c1.39,0,2.71,.94,2.71,3.06s-1.32,3.06-2.71,3.06-2.71-.94-2.71-3.06,1.32-3.06,2.71-3.06Zm0,5.5c1.1,0,1.98-.79,1.98-2.45s-.88-2.45-1.98-2.45-1.98,.79-1.98,2.45,.88,2.45,1.98,2.45Z" fill="#282727"/><path d="M177.66,36.67c0-.98,.25-1.34,1.39-1.34h.49v.64h-.35c-.76,0-.84,.07-.84,.8v.65h1.19v.6h-1.19v5.28h-.7v-5.28h-.83v-.6h.83v-.74Zm3.18-.72h.7v1.46h1.19v.6h-1.19v3.72c0,.78,.02,.94,.83,.94h.36v.62h-.58c-1.07,0-1.31-.24-1.31-1.43v-3.85h-1v-.6h1v-1.46Z" fill="#282727"/><path d="M190.15,39.03c-.19-.67-.76-1.1-1.61-1.1-.59,0-1.48,.22-1.48,.95,0,.59,.44,.86,1.08,.98l.84,.16c.98,.18,2.03,.48,2.03,1.62s-1.08,1.8-2.36,1.8-2.19-.65-2.39-1.88l.72-.1c.17,.88,.8,1.37,1.73,1.37,.66,0,1.61-.28,1.61-1.08,0-.71-.62-.91-1.44-1.07l-.94-.18c-.86-.17-1.58-.64-1.58-1.57s.92-1.61,2.28-1.61c1.28,0,2.05,.76,2.23,1.62l-.72,.1Zm2.88,3.36c.37,.71,1.14,1.04,1.91,1.04,1.46,0,2.55-1.14,2.55-3.05s-1.06-3.07-2.43-3.07c-.89,0-1.61,.36-2.03,1.08v-.98h-.7v7.95h.7v-2.97Zm3.73-2c0,1.52-.74,2.43-1.85,2.43-.96,0-1.93-.73-1.93-2.43s1.02-2.46,1.93-2.46c1.12,0,1.85,.92,1.85,2.46Z" fill="#282727"/><path d="M201.05,37.31c1.39,0,2.71,.94,2.71,3.06s-1.32,3.06-2.71,3.06-2.71-.94-2.71-3.06,1.32-3.06,2.71-3.06Zm0,5.5c1.1,0,1.98-.79,1.98-2.45s-.88-2.45-1.98-2.45-1.98,.79-1.98,2.45,.88,2.45,1.98,2.45Z" fill="#282727"/><path d="M205.25,35.95h.7v1.46h1.19v.6h-1.19v3.72c0,.78,.02,.94,.83,.94h.36v.62h-.58c-1.07,0-1.31-.24-1.31-1.43v-3.85h-1v-.6h1v-1.46Z" fill="#282727"/></g><g><path d="M273.22,27.98c1.61,0,2.72,.83,3.01,2.07l-.78,.08c-.28-.94-1.08-1.45-2.3-1.45-.82,0-1.95,.31-1.95,1.37,0,.82,.67,1.2,1.55,1.39l.96,.22c1.18,.26,2.72,.71,2.72,2.24s-1.42,2.33-2.99,2.33c-2.02,0-3.13-1.15-3.31-2.49l.78-.08c.28,1.28,1.19,1.87,2.49,1.87,.89,0,2.23-.29,2.23-1.5,0-.98-.97-1.39-2.09-1.64l-1.01-.23c-1.07-.24-2.12-.74-2.12-2.06,0-1.5,1.51-2.11,2.81-2.11Z" fill="#282727"/><path d="M278.21,31.22c.3-.58,.88-1.1,1.99-1.1,.72,0,1.24,.23,1.56,.62,.31,.38,.46,.94,.46,1.69v3.66h-.7v-3.48c0-.68-.12-1.13-.34-1.42-.25-.34-.65-.47-1.16-.47-1.03,0-1.81,.86-1.81,2.13v3.23h-.7v-7.96h.7v3.09Z" fill="#282727"/><path d="M283.51,31.93c.07-1.14,.98-1.81,2.34-1.81s2.21,.46,2.21,1.99c0,1.07-.01,1.58-.01,2.06,0,.68,.04,1.27,.07,1.92h-.7l-.05-.91c-.34,.61-.9,1.06-2.04,1.06-1.32,0-2.04-.82-2.04-1.83,0-.56,.25-1,.64-1.26,.56-.38,1.52-.5,2.25-.58l1.18-.12v-.35c0-1.19-.77-1.37-1.58-1.37-1.02,0-1.5,.52-1.55,1.22l-.72-.02Zm3.89,1.1l-1.28,.13c-1.43,.14-2.09,.46-2.09,1.26,0,.72,.58,1.2,1.44,1.2,1.04,0,1.93-.62,1.93-2.23v-.36Z" fill="#282727"/><path d="M289.72,29.47c0-.98,.25-1.34,1.39-1.34h.49v.64h-.35c-.76,0-.84,.07-.84,.8v.65h1.19v.6h-1.19v5.28h-.7v-5.28h-.83v-.6h.83v-.74Zm3.18-.72h.7v1.46h1.19v.6h-1.19v3.72c0,.78,.02,.94,.83,.94h.36v.62h-.58c-1.07,0-1.31-.24-1.31-1.43v-3.85h-1v-.6h1v-1.46Z" fill="#282727"/><path d="M298.79,29.47c0-.98,.25-1.34,1.39-1.34h.49v.64h-.35c-.76,0-.84,.07-.84,.8v.65h1.19v.6h-1.19v5.28h-.7v-5.28h-.83v-.6h.83v-.74Z" fill="#282727"/><path d="M303.8,30.11c1.39,0,2.71,.94,2.71,3.06s-1.32,3.06-2.71,3.06-2.71-.94-2.71-3.06,1.32-3.06,2.71-3.06Zm0,5.5c1.1,0,1.98-.79,1.98-2.45s-.88-2.45-1.98-2.45-1.98,.79-1.98,2.45,.88,2.45,1.98,2.45Z" fill="#282727"/><path d="M310.24,30.92c-.11-.01-.22-.01-.31-.01-1.24,0-1.52,.89-1.52,2.16v3.02h-.68v-5.88h.66v1.01c.26-.71,.94-1.06,1.66-1.06,.06,0,.13,0,.2,.01v.74Z" fill="#282727"/><path d="M314.54,31.22c.3-.58,.88-1.1,1.99-1.1,.72,0,1.24,.23,1.56,.62,.31,.38,.46,.94,.46,1.69v3.66h-.7v-3.48c0-.68-.12-1.13-.34-1.42-.25-.34-.65-.47-1.16-.47-1.03,0-1.81,.86-1.81,2.13v3.23h-.7v-7.96h.7v3.09Z" fill="#282727"/><path d="M322.29,30.11c1.39,0,2.71,.94,2.71,3.06s-1.32,3.06-2.71,3.06-2.71-.94-2.71-3.06,1.32-3.06,2.71-3.06Zm0,5.5c1.1,0,1.98-.79,1.98-2.45s-.88-2.45-1.98-2.45-1.98,.79-1.98,2.45,.88,2.45,1.98,2.45Z" fill="#282727"/><path d="M326.91,28.12v1.1h-.7v-1.1h.7Zm0,2.09v5.88h-.7v-5.88h.7Z" fill="#282727"/><path d="M332.17,31.83c-.19-.67-.76-1.1-1.61-1.1-.59,0-1.48,.22-1.48,.95,0,.59,.44,.86,1.08,.98l.84,.16c.98,.18,2.03,.48,2.03,1.62s-1.08,1.8-2.36,1.8-2.19-.65-2.39-1.88l.72-.1c.17,.88,.8,1.37,1.73,1.37,.66,0,1.61-.28,1.61-1.08,0-.71-.62-.91-1.44-1.07l-.94-.18c-.86-.17-1.58-.64-1.58-1.57s.92-1.61,2.28-1.61c1.28,0,2.05,.76,2.23,1.62l-.72,.1Zm2.46-3.08h.7v1.46h1.19v.6h-1.19v3.72c0,.78,.02,.94,.83,.94h.36v.62h-.58c-1.07,0-1.31-.24-1.31-1.43v-3.85h-1v-.6h1v-1.46Z" fill="#282727"/><path d="M279.27,44.51c1.39,0,2.71,.94,2.71,3.06s-1.32,3.06-2.71,3.06-2.71-.94-2.71-3.06,1.32-3.06,2.71-3.06Zm0,5.5c1.1,0,1.98-.79,1.98-2.45s-.88-2.45-1.98-2.45-1.98,.79-1.98,2.45,.88,2.45,1.98,2.45Z" fill="#282727"/><path d="M285.71,45.32c-.11-.01-.22-.01-.31-.01-1.24,0-1.52,.89-1.52,2.16v3.02h-.68v-5.88h.66v1.01c.26-.71,.94-1.06,1.66-1.06,.06,0,.13,0,.2,.01v.74Z" fill="#282727"/><path d="M293.26,49.31c-.44,.73-1.12,1.08-1.95,1.08-1.38,0-2.46-1.14-2.46-2.95s1.12-2.93,2.58-2.93c.72,0,1.45,.32,1.83,1.04v-.95h.7v5.73c0,.85-.26,1.42-.71,1.79-.43,.36-1.04,.52-1.74,.52-1.24,0-2.19-.65-2.3-1.71l.72-.05c.08,.64,.59,1.16,1.61,1.16,.49,0,.92-.08,1.22-.32,.31-.25,.5-.66,.5-1.31v-1.1Zm.05-1.87c0-1.58-.97-2.31-1.9-2.31-1.06,0-1.83,.91-1.83,2.31s.77,2.34,1.82,2.34c.89,0,1.91-.76,1.91-2.34Z" fill="#282727"/><path d="M297.88,44.51c1.39,0,2.71,.94,2.71,3.06s-1.32,3.06-2.71,3.06-2.71-.94-2.71-3.06,1.32-3.06,2.71-3.06Zm0,5.5c1.1,0,1.98-.79,1.98-2.45s-.88-2.45-1.98-2.45-1.98,.79-1.98,2.45,.88,2.45,1.98,2.45Z" fill="#282727"/><path d="M304.14,44.51c1.39,0,2.71,.94,2.71,3.06s-1.32,3.06-2.71,3.06-2.71-.94-2.71-3.06,1.32-3.06,2.71-3.06Zm0,5.5c1.1,0,1.98-.79,1.98-2.45s-.88-2.45-1.98-2.45-1.98,.79-1.98,2.45,.88,2.45,1.98,2.45Z" fill="#282727"/><path d="M312.85,50.49h-.68v-.94c-.43,.72-1.15,1.08-2.04,1.08-1.38,0-2.44-1.14-2.44-3.07s1.09-3.05,2.55-3.05c.77,0,1.54,.34,1.91,1.04v-3.03h.7v7.96Zm-.65-2.93c0-1.7-.97-2.43-1.93-2.43-1.1,0-1.85,.91-1.85,2.43s.73,2.46,1.85,2.46c.91,0,1.93-.76,1.93-2.46Z" fill="#282727"/><path d="M318.03,46.23c-.19-.67-.76-1.1-1.61-1.1-.59,0-1.48,.22-1.48,.95,0,.59,.44,.86,1.08,.98l.84,.16c.98,.18,2.03,.48,2.03,1.62s-1.08,1.8-2.36,1.8-2.19-.65-2.39-1.88l.72-.1c.17,.88,.8,1.37,1.73,1.37,.66,0,1.61-.28,1.61-1.08,0-.71-.62-.91-1.44-1.07l-.94-.18c-.86-.17-1.58-.64-1.58-1.57s.92-1.61,2.28-1.61c1.28,0,2.05,.76,2.23,1.62l-.72,.1Z" fill="#282727"/><path d="M323.58,50.49h-.7v-7.96h.7v7.96Z" fill="#282727"/><path d="M325.96,42.52v1.1h-.7v-1.1h.7Zm0,2.09v5.88h-.7v-5.88h.7Z" fill="#282727"/><path d="M327.81,43.87c0-.98,.25-1.34,1.39-1.34h.49v.64h-.35c-.76,0-.84,.07-.84,.8v.65h1.19v.6h-1.19v5.28h-.7v-5.28h-.83v-.6h.83v-.74Zm3.18-.72h.7v1.46h1.19v.6h-1.19v3.72c0,.78,.02,.94,.83,.94h.36v.62h-.58c-1.07,0-1.31-.24-1.31-1.43v-3.85h-1v-.6h1v-1.46Z" fill="#282727"/></g></g></g></svg>