<?xml version="1.0" encoding="utf-8"?>
<!-- Generator: Adobe Illustrator 26.3.1, SVG Export Plug-In . SVG Version: 6.00 Build 0)  -->
<svg version="1.1" id="Layer_2_00000076568268196238852500000008896143934292667297_"
	 xmlns="http://www.w3.org/2000/svg" xmlns:xlink="http://www.w3.org/1999/xlink" x="0px" y="0px" viewBox="0 0 351.5 450.1"
	 style="enable-background:new 0 0 351.5 450.1;" xml:space="preserve">
<style type="text/css">
	.st0{fill:#DDDDD3;}
	.st1{fill:#DEDED4;}
	.st2{clip-path:url(#SVGID_00000143614905108993079740000015882429272190877878_);}
	.st3{clip-path:url(#SVGID_00000010310126266160437590000015007722628100918463_);}
	.st4{opacity:0.97;}
	.st5{clip-path:url(#SVGID_00000177477294257626318830000016782810692619605688_);}
	.st6{fill:#E5BDB2;}
	.st7{clip-path:url(#SVGID_00000119087709528478189980000004475809700372160945_);}
	.st8{fill:none;stroke:#DADADA;stroke-width:2;stroke-miterlimit:10;}
	.st9{clip-path:url(#SVGID_00000064322802297054159420000011722561438719418806_);}
	.st10{clip-path:url(#SVGID_00000109010177462831900940000005347353462363038871_);}
	.st11{clip-path:url(#SVGID_00000060028471889617534590000013740228152736649377_);}
	.st12{clip-path:url(#SVGID_00000129928532855261918040000011103194710748117417_);}
	.st13{clip-path:url(#SVGID_00000114033867560998139670000013197093213211068298_);}
	.st14{clip-path:url(#SVGID_00000071534805950971376090000005303852246360988813_);}
	.st15{clip-path:url(#SVGID_00000134248719379591135670000000786188294819565972_);}
	.st16{clip-path:url(#SVGID_00000113347015206476387180000005775569131737073543_);}
	.st17{clip-path:url(#SVGID_00000089561039672361869160000017466990012839460527_);}
	.st18{clip-path:url(#SVGID_00000098205708233612774690000003125058977528539054_);}
	.st19{clip-path:url(#SVGID_00000093165058030586754120000004767070911753014943_);}
</style>
<g id="Layer_1-2">
	<g>
		<path class="st0" d="M49.9,13.2H44v-0.3c1.4-0.2,1.6-0.2,1.6-2.1V3.9c0-1.8-0.2-1.9-1.6-2V1.6h5.7c1,0,2.3,0,3.5,0L53.7,5h-0.3
			c-0.9-2.8-2.2-2.9-5.1-2.9h-0.9v4.7h2.3c0.9,0,1.5-0.4,1.7-1.8h0.3v4.3h-0.3c-0.2-1.3-0.7-1.8-1.7-1.8h-2.3v4.3
			c0,0.6,0.1,0.7,0.7,0.7h0.3c3.1,0,4.5-0.3,5.4-3h0.3L53.5,13C52.2,13.2,50.9,13.2,49.9,13.2z"/>
	</g>
	<g>
		<path class="st0" d="M55.5,1.3V1l2.9-1c0,0.9,0,1.9,0,3.5v7.4c0,1.6,0,1.9,1.3,2v0.3h-4.2v-0.3c1.3-0.1,1.3-0.4,1.3-2v-8
			C56.7,1.8,56.3,1.3,55.5,1.3z"/>
	</g>
	<g>
		<path class="st0" d="M60.6,8.9c0-2.5,1.8-4.5,3.9-4.5c1.8,0,3.3,1.1,3.5,3.5h-6V8c0,2.3,1.1,4,3.1,4c1.2,0,2-0.5,2.6-1.1l0.2,0.2
			c-0.5,1-1.7,2.3-3.5,2.3C61.8,13.4,60.6,11.5,60.6,8.9z M62.1,7.3h4C66,5.9,65.4,5,64.2,5C63.2,5,62.3,5.6,62.1,7.3z"/>
	</g>
	<g>
		<path class="st0" d="M72.6,13.4l-3.1-7.5c-0.3-0.8-0.5-1-1.1-1.1V4.6h3.8v0.3C71,5,71,5.4,71.4,6.2l1.9,4.8l1.6-4
			c0.7-1.6,0.6-2-0.4-2.1V4.6h2.8v0.3c-0.7,0.1-0.9,0.5-1.4,1.6l-3,6.9H72.6z"/>
	</g>
	<g>
		<path class="st0" d="M84.3,12.4c0.3,0,0.5-0.1,0.7-0.3l0.2,0.2c-0.4,0.5-0.8,1.1-1.6,1.1c-0.7,0-1.3-0.3-1.3-1.6
			c-0.5,0.9-1.3,1.6-2.6,1.6s-2.4-0.9-2.4-1.9s0.7-1.7,2.1-2.4c0.8-0.4,1.7-0.8,2.9-1.3V7.4c0-1.7-0.6-2.3-1.7-2.3
			c-1.5,0-1.8,0.9-1.7,2.2h-1.5c0-1.3,1.5-2.8,3.6-2.8c1.5,0,2.8,0.6,2.8,2.7l-0.1,4.1C83.7,12.2,83.9,12.3,84.3,12.4L84.3,12.4z
			 M82.2,11.4l0.1-3c-2.9,0.9-3.4,1.8-3.4,2.5c0,0.9,0.6,1.4,1.6,1.4C81.2,12.4,81.8,12.1,82.2,11.4z"/>
		<path class="st0" d="M86.7,10.9V5.2h-1.4V4.6h1.4V3.1L88.3,2v2.6h2.1v0.6h-2.1v5.5c0,1.2,0.3,1.7,1.1,1.7c0.4,0,0.9-0.1,1.2-0.5
			l0.1,0.1c-0.4,0.7-1,1.4-2.1,1.4S86.7,12.7,86.7,10.9z"/>
	</g>
	<g>
		<path class="st0" d="M94.4,10.9c0,1.6,0,1.9,1.3,2v0.3h-4.2v-0.3c1.3-0.1,1.3-0.4,1.3-2V7.3c0-1.1-0.4-1.6-1.3-1.6V5.4l2.9-1
			c0,0.8,0,1.9,0,3.5C94.4,7.9,94.4,10.9,94.4,10.9z M92.4,1.3c0-0.6,0.5-1.1,1.1-1.1s1.1,0.5,1.1,1.1s-0.5,1.1-1.1,1.1
			S92.4,2,92.4,1.3z"/>
	</g>
	<g>
		<path class="st0" d="M105.3,8.9c0,2.5-1.9,4.5-4.3,4.5s-4.4-1.8-4.4-4.5s1.9-4.5,4.3-4.5C103.3,4.4,105.3,6.2,105.3,8.9z
			 M98.5,8.3c0,1.6,0.7,4.4,2.8,4.4c1.5,0,2.3-1.2,2.3-3.3c0-1.6-0.7-4.4-2.8-4.4C99.3,5.1,98.5,6.3,98.5,8.3z"/>
		<path class="st0" d="M106.4,5.4l2.8-1v1.4c0.6-0.7,1.4-1.4,2.5-1.4c1.4,0,2.4,0.9,2.4,3v3.4c0,1.6,0,1.9,1.3,2v0.3h-4.2v-0.3
			c1.3-0.1,1.3-0.4,1.3-2v-3c0-1.5-0.5-2.2-1.6-2.2c-0.7,0-1.4,0.2-1.7,0.8V11c0,1.6,0,1.9,1.3,2v0.3h-4.2V13c1.3-0.1,1.3-0.4,1.3-2
			V7.3c0-1.1-0.4-1.6-1.3-1.6L106.4,5.4L106.4,5.4L106.4,5.4z"/>
		<path class="st0" d="M124.1,13.4L121,5.9c-0.3-0.8-0.5-1-1.1-1.1V4.6h3.8v0.3c-1.2,0.1-1.2,0.5-0.8,1.3l1.9,4.8l1.7-3.9
			c0.7-1.6,0.6-2-0.4-2.1V4.6h2.8v0.3c-0.7,0.1-0.9,0.5-1.4,1.6l-3,6.9C124.4,13.4,124.1,13.4,124.1,13.4z"/>
	</g>
	<g>
		<path class="st0" d="M132.5,10.9c0,1.6,0,1.9,1.3,2v0.3h-4.2v-0.3c1.3-0.1,1.3-0.4,1.3-2V7.3c0-1.1-0.4-1.6-1.3-1.6V5.4l2.9-1
			c0,0.8,0,1.9,0,3.5V10.9z M130.5,1.3c0-0.6,0.5-1.1,1.1-1.1s1.1,0.5,1.1,1.1s-0.5,1.1-1.1,1.1S130.5,2,130.5,1.3z"/>
	</g>
	<g>
		<path class="st0" d="M134.8,8.9c0-2.5,1.8-4.5,3.9-4.5c1.8,0,3.3,1.1,3.5,3.5h-6V8c0,2.3,1.1,4,3.1,4c1.2,0,2-0.5,2.6-1.1l0.2,0.2
			c-0.5,1-1.6,2.3-3.5,2.3C136,13.4,134.8,11.5,134.8,8.9z M136.3,7.3h4c-0.1-1.4-0.7-2.3-1.8-2.3S136.5,5.6,136.3,7.3L136.3,7.3z"
			/>
	</g>
	<g>
		<path class="st0" d="M148.8,7l-2.2,6.4h-0.3L143.6,6c-0.3-0.8-0.5-1-1.1-1.1V4.6h3.8v0.3c-1.2,0.1-1.1,0.5-0.9,1.3l1.4,4.4l2.1-6
			h0.6l2,6l1.3-3.6c0.6-1.6,0.6-2-0.4-2.1V4.6h2.8v0.3c-0.7,0.1-1,0.4-1.4,1.6l-2.6,7h-0.3C150.9,13.4,148.8,7,148.8,7z"/>
	</g>
	<g>
		<path class="st0" d="M46,319.6c1.4-0.2,1.6-0.2,1.6-2v-6.9c0-1.8-0.2-1.9-1.6-2v-0.3h1.7c1.2,0,2.4,0,3.2,0c2.7,0,5,0.8,5,3.4
			s-2.2,3.4-5,3.4h-1.5v2.5c0,1.6,0,1.9,1.7,2v0.3H46V319.6L46,319.6L46,319.6z M50.7,308.9h-1.4v5.6h1.4c2,0,3.1-0.5,3.1-2.8
			C53.8,309.4,52.7,308.9,50.7,308.9z"/>
		<path class="st0" d="M56.6,308v-0.3l2.9-1c0,0.9,0,1.9,0,3.5v7.4c0,1.6,0,1.9,1.3,2v0.3h-4.2v-0.3c1.3-0.1,1.3-0.4,1.3-2v-8
			C57.9,308.5,57.5,308,56.6,308L56.6,308z"/>
		<path class="st0" d="M69.1,319c0.3,0,0.5-0.1,0.7-0.3l0.2,0.2c-0.4,0.5-0.8,1.1-1.6,1.1c-0.7,0-1.3-0.3-1.3-1.6
			c-0.5,0.9-1.3,1.6-2.6,1.6s-2.4-0.9-2.4-1.9s0.7-1.7,2.1-2.4c0.8-0.4,1.7-0.8,2.9-1.3V314c0-1.7-0.6-2.3-1.7-2.3
			c-1.5,0-1.8,0.9-1.7,2.2h-1.5c0-1.3,1.5-2.8,3.6-2.8c1.5,0,2.8,0.6,2.8,2.7l-0.1,4.1C68.5,318.9,68.6,319,69.1,319L69.1,319z
			 M67,318.1l0.1-3c-2.9,0.9-3.4,1.8-3.4,2.5c0,0.9,0.6,1.4,1.6,1.4C65.9,319.1,66.5,318.8,67,318.1z"/>
		<path class="st0" d="M70.4,312.1l2.8-1v1.4c0.6-0.7,1.4-1.4,2.5-1.4c1.4,0,2.4,0.9,2.4,3v3.4c0,1.6,0,1.9,1.3,2v0.3h-4.2v-0.3
			c1.3-0.1,1.3-0.4,1.3-2v-3.1c0-1.5-0.5-2.2-1.6-2.2c-0.7,0-1.4,0.2-1.7,0.8v4.6c0,1.6,0,1.9,1.3,2v0.3h-4.2v-0.3
			c1.3-0.1,1.3-0.4,1.3-2V314c0-1.1-0.4-1.6-1.3-1.6L70.4,312.1L70.4,312.1z"/>
		<path class="st0" d="M88.2,320.1l-3.1-7.5c-0.3-0.8-0.5-1-1.1-1.1v-0.3h3.8v0.3c-1.2,0.1-1.2,0.5-0.8,1.3l1.9,4.8l1.7-4
			c0.7-1.6,0.6-2-0.4-2.1v-0.3H93v0.3c-0.7,0.1-0.9,0.5-1.4,1.6l-3,7L88.2,320.1L88.2,320.1z"/>
	</g>
	<g>
		<path class="st0" d="M96.6,317.6c0,1.6,0,1.9,1.3,2v0.3h-4.2v-0.3c1.3-0.1,1.3-0.4,1.3-2V314c0-1.1-0.4-1.6-1.3-1.6v-0.3l2.9-1
			c0,0.9,0,1.9,0,3.5C96.6,314.6,96.6,317.6,96.6,317.6z M94.5,308.1c0-0.6,0.5-1.1,1.1-1.1s1.1,0.5,1.1,1.1s-0.5,1.1-1.1,1.1
			S94.5,308.7,94.5,308.1z"/>
	</g>
	<g>
		<path class="st0" d="M98.8,315.6c0-2.5,1.8-4.5,3.9-4.5c1.8,0,3.3,1.1,3.5,3.5h-5.9v0.1c0,2.3,1.1,4,3.1,4c1.2,0,2-0.5,2.6-1.1
			l0.2,0.2c-0.5,1-1.7,2.3-3.5,2.3C100.1,320.1,98.8,318.2,98.8,315.6L98.8,315.6z M100.3,314h4c-0.1-1.4-0.7-2.3-1.8-2.3
			C101.4,311.7,100.5,312.3,100.3,314z"/>
	</g>
	<g>
		<path class="st0" d="M112.9,313.7l-2.2,6.4h-0.3l-2.7-7.4c-0.3-0.8-0.5-1-1.1-1.1v-0.3h3.8v0.3c-1.2,0.1-1.1,0.5-0.8,1.3l1.4,4.4
			l2.1-6h0.6l2,6l1.3-3.6c0.6-1.6,0.6-2-0.4-2.1v-0.3h2.8v0.3c-0.7,0.1-1,0.4-1.4,1.5l-2.6,7H115L112.9,313.7L112.9,313.7z"/>
	</g>
	<g>
		<path class="st1" d="M8,213.7l-7.2,2.8H8v0.7H0V216l7.1-2.7L0,210.6v-1.2h8v0.7H0.7l7.2,2.8v0.8H8z"/>
		<path class="st1" d="M2,205.4c0-1.4,0.9-2.7,3.1-2.7s3.1,1.3,3.1,2.7s-0.9,2.7-3.1,2.7S2,206.8,2,205.4z M7.5,205.4
			c0-1.1-0.8-2-2.4-2s-2.5,0.9-2.5,2s0.8,2,2.5,2S7.5,206.5,7.5,205.4z"/>
		<path class="st1" d="M7,197.7c0.6,0.3,1.1,0.8,1.1,1.9c0,0.7-0.2,1.1-0.5,1.4c-0.4,0.4-1,0.5-1.8,0.5H2.1v-0.7h3.5
			c0.7,0,1.2-0.1,1.5-0.4c0.3-0.2,0.4-0.6,0.4-1c0-1-0.8-1.8-2.1-1.8H2.1V197H8v0.7H7z"/>
		<path class="st1" d="M3.1,194.6c-0.6-0.3-1.1-0.9-1.1-2c0-0.7,0.2-1.2,0.6-1.6c0.4-0.3,0.9-0.5,1.7-0.5H8v0.7H4.5
			c-0.7,0-1.1,0.1-1.4,0.3s-0.5,0.6-0.5,1.2c0,1,0.9,1.8,2.1,1.8H8v0.7H2.1v-0.7L3.1,194.6L3.1,194.6z"/>
		<path class="st1" d="M0.6,188.9v-0.7h1.5V187h0.6v1.2h3.7c0.8,0,0.9,0,0.9-0.8V187H8v0.6c0,1.1-0.2,1.3-1.4,1.3H2.7v1H2.1v-1
			L0.6,188.9L0.6,188.9z"/>
	</g>
	<g>
		<path class="st1" d="M4.5,180c0,0.2,0,0.5,0,0.8v1.5H8v0.7H0v-2.2c0-1.9,0.3-3.3,2.2-3.3c1.3,0,1.9,0.7,2.2,1.7l3.6-1.9v0.8
			L4.5,180L4.5,180z M0.7,182.3h3.1v-1.6c0-1.3-0.2-2.4-1.6-2.4s-1.5,1.1-1.5,2.4C0.7,180.7,0.7,182.3,0.7,182.3z"/>
	</g>
	<g>
		<path class="st1" d="M2,173.9c0-1.4,0.9-2.7,3.1-2.7s3.1,1.3,3.1,2.7s-0.9,2.7-3.1,2.7S2,175.3,2,173.9z M7.5,173.9
			c0-1.1-0.8-2-2.4-2s-2.5,0.9-2.5,2s0.8,2,2.5,2S7.5,175,7.5,173.9z"/>
	</g>
	<g>
		<path class="st1" d="M2.1,167.3v-0.7l4.8-1.5l-4.8-1.3V163l5.9,1.7v0.6l-4.9,1.6l4.9,1.5v0.6l-5.9,1.7v-0.8l4.8-1.3L2.1,167.3
			L2.1,167.3z"/>
	</g>
	<g>
		<path class="st1" d="M320.6,182.6l-1.9,0.3c-0.2-0.6-0.7-1.1-1.8-1.1c-1.2,0-2.1,0.8-2.1,2.5s0.9,2.5,2.1,2.5
			c0.9,0,1.8-0.3,1.8-1.4v-0.1h-1.9v-1.6h3.9v4.5h-1.5l-0.1-0.9c-0.5,0.7-1.3,1-2.5,1c-2.4,0-3.9-1.6-3.9-4.1s1.7-4.1,4.1-4.1
			C318.8,180.1,320.3,181,320.6,182.6z"/>
	</g>
	<g>
		<path class="st1" d="M315.3,224.6h3.9v1.7h-5.8v-8h1.9V224.6L315.3,224.6z"/>
	</g>
	<g>
		<path class="st1" d="M326.8,220.6l-1.9,0.3c-0.2-0.6-0.7-1.1-1.8-1.1c-1.2,0-2.1,0.8-2.1,2.5s0.9,2.5,2.1,2.5
			c0.9,0,1.8-0.3,1.8-1.4v-0.1H323v-1.6h3.9v4.5h-1.5l-0.1-0.9c-0.5,0.7-1.3,1-2.5,1c-2.4,0-3.9-1.6-3.9-4.1s1.7-4.1,4.1-4.1
			C324.9,218.1,326.4,219,326.8,220.6z"/>
	</g>
	<g>
		<g>
			<g>
				<defs>
					<rect id="SVGID_1_" x="25.4" y="41.3" width="292.9" height="234.5"/>
				</defs>
				<clipPath id="SVGID_00000169539782224166820240000009401089402694690461_">
					<use xlink:href="#SVGID_1_"  style="overflow:visible;"/>
				</clipPath>
				<g style="clip-path:url(#SVGID_00000169539782224166820240000009401089402694690461_);">
					<g>
						<g>
							<g>
								<defs>
									<rect id="SVGID_00000101793426192438591640000012700595239714700465_" x="25.4" y="41.3" width="292.9" height="234.5"/>
								</defs>
								<clipPath id="SVGID_00000112599648078504142300000003165318971032794769_">
									<use xlink:href="#SVGID_00000101793426192438591640000012700595239714700465_"  style="overflow:visible;"/>
								</clipPath>
								<g style="clip-path:url(#SVGID_00000112599648078504142300000003165318971032794769_);">
									<g class="st4">
										<g>
											<g>
												<defs>
													
														<rect id="SVGID_00000103954106285712975330000004066495764140397207_" x="139.4" y="195.4" width="167.4" height="47.9"/>
												</defs>
												<clipPath id="SVGID_00000166671114718555407370000008817725359500318879_">
													<use xlink:href="#SVGID_00000103954106285712975330000004066495764140397207_"  style="overflow:visible;"/>
												</clipPath>
												<g style="clip-path:url(#SVGID_00000166671114718555407370000008817725359500318879_);">
													<rect x="146.9" y="201.2" class="st6" width="152.6" height="41.3"/>
												</g>
											</g>
										</g>
									</g>
								</g>
							</g>
						</g>
						<g>
							<g>
								<defs>
									<rect id="SVGID_00000068646191767544377170000016187920921435909269_" x="25.4" y="41.3" width="292.9" height="234.5"/>
								</defs>
								<clipPath id="SVGID_00000102530131238677847640000003946496038364587926_">
									<use xlink:href="#SVGID_00000068646191767544377170000016187920921435909269_"  style="overflow:visible;"/>
								</clipPath>
								<g style="clip-path:url(#SVGID_00000102530131238677847640000003946496038364587926_);">
									<polygon class="st8" points="158.1,68 158.1,42.1 80.4,42.1 80.4,68 43.7,68 43.7,167.4 169.6,167.4 169.6,68 									"/>
								</g>
							</g>
						</g>
					</g>
				</g>
			</g>
		</g>
		<g>
			<g>
				<defs>
					<rect id="SVGID_00000015355218388620104870000004593990532886342580_" x="25.4" y="41.3" width="292.9" height="234.5"/>
				</defs>
				<clipPath id="SVGID_00000133488866395912821560000003466387211717296310_">
					<use xlink:href="#SVGID_00000015355218388620104870000004593990532886342580_"  style="overflow:visible;"/>
				</clipPath>
				<g style="clip-path:url(#SVGID_00000133488866395912821560000003466387211717296310_);">
					<polygon class="st8" points="272.2,167.1 300,167.1 300,201.2 43.7,201.2 43.7,167.1 169.4,167.1 186.5,150.8 203.7,167.1 
						220.8,150.8 237.9,167.1 255.1,150.8 					"/>
				</g>
			</g>
		</g>
		<g>
			<g>
				<defs>
					<rect id="SVGID_00000128461575457393643310000004840790679687554988_" x="25.4" y="41.3" width="292.9" height="234.5"/>
				</defs>
				<clipPath id="SVGID_00000044136913616775372590000010346652564922831803_">
					<use xlink:href="#SVGID_00000128461575457393643310000004840790679687554988_"  style="overflow:visible;"/>
				</clipPath>
				<g style="clip-path:url(#SVGID_00000044136913616775372590000010346652564922831803_);">
					<g>
						<g>
							<defs>
								<rect id="SVGID_00000143588534018167261240000009993586437644976566_" x="25.4" y="41.3" width="292.9" height="234.5"/>
							</defs>
							<clipPath id="SVGID_00000057143950377858748010000006366355663798149513_">
								<use xlink:href="#SVGID_00000143588534018167261240000009993586437644976566_"  style="overflow:visible;"/>
							</clipPath>
							<g style="clip-path:url(#SVGID_00000057143950377858748010000006366355663798149513_);">
								<rect x="43.7" y="242.5" class="st8" width="151.5" height="32.5"/>
							</g>
						</g>
					</g>
				</g>
			</g>
		</g>
		<g>
			<g>
				<defs>
					<rect id="SVGID_00000170276362707490970210000000744513816465702798_" x="25.4" y="41.3" width="292.9" height="234.5"/>
				</defs>
				<clipPath id="SVGID_00000068661390511466780050000005996406605279222955_">
					<use xlink:href="#SVGID_00000170276362707490970210000000744513816465702798_"  style="overflow:visible;"/>
				</clipPath>
				<g style="clip-path:url(#SVGID_00000068661390511466780050000005996406605279222955_);">
					<rect x="43.7" y="201.1" class="st8" width="256.3" height="41.4"/>
				</g>
			</g>
		</g>
		<g>
			<g>
				<defs>
					<rect id="SVGID_00000119099504633966524610000005709957075751070135_" x="25.4" y="41.3" width="292.9" height="234.5"/>
				</defs>
				<clipPath id="SVGID_00000112614546511744631770000011166365555860892812_">
					<use xlink:href="#SVGID_00000119099504633966524610000005709957075751070135_"  style="overflow:visible;"/>
				</clipPath>
				<g style="clip-path:url(#SVGID_00000112614546511744631770000011166365555860892812_);">
					<g>
						<g>
							<defs>
								<rect id="SVGID_00000055679871571083110380000004894403513090042027_" x="25.4" y="41.3" width="292.9" height="234.5"/>
							</defs>
							<clipPath id="SVGID_00000090277563851706205070000013454193575197868691_">
								<use xlink:href="#SVGID_00000055679871571083110380000004894403513090042027_"  style="overflow:visible;"/>
							</clipPath>
							<g style="clip-path:url(#SVGID_00000090277563851706205070000013454193575197868691_);">
								<line class="st8" x1="26.3" y1="201.4" x2="317.5" y2="201.4"/>
							</g>
						</g>
					</g>
				</g>
			</g>
		</g>
	</g>
	<g>
		<g>
			<g>
				<defs>
					<rect id="SVGID_00000104693165033335252080000004909470541453731757_" x="45.2" y="338.7" width="254.8" height="92.7"/>
				</defs>
				<clipPath id="SVGID_00000084497097292666765380000017704843974371013268_">
					<use xlink:href="#SVGID_00000104693165033335252080000004909470541453731757_"  style="overflow:visible;"/>
				</clipPath>
				<g style="clip-path:url(#SVGID_00000084497097292666765380000017704843974371013268_);">
					<polygon class="st6" points="299.2,338.7 272.3,339.6 148.1,339.5 148.1,430.5 299.2,430.5 					"/>
				</g>
			</g>
		</g>
		<g>
			<g>
				<defs>
					<rect id="SVGID_00000060737896203593613270000010927579096394878594_" x="45.2" y="338.7" width="254.8" height="92.7"/>
				</defs>
				<clipPath id="SVGID_00000047782885546462044320000015656205822286099872_">
					<use xlink:href="#SVGID_00000060737896203593613270000010927579096394878594_"  style="overflow:visible;"/>
				</clipPath>
				<g style="clip-path:url(#SVGID_00000047782885546462044320000015656205822286099872_);">
					<g>
						<g>
							<defs>
								<rect id="SVGID_00000018918725688329823620000011537747671920467856_" x="45.2" y="338.7" width="254.8" height="92.7"/>
							</defs>
							<clipPath id="SVGID_00000089560801582079877770000017995244562459799452_">
								<use xlink:href="#SVGID_00000018918725688329823620000011537747671920467856_"  style="overflow:visible;"/>
							</clipPath>
							<g style="clip-path:url(#SVGID_00000089560801582079877770000017995244562459799452_);">
								<polyline class="st8" points="148.1,339.5 299.2,339.5 299.2,386 								"/>
							</g>
						</g>
					</g>
				</g>
			</g>
		</g>
		<g>
			<g>
				<defs>
					<rect id="SVGID_00000109717817281174062120000001162717437103000997_" x="45.2" y="338.7" width="254.8" height="92.7"/>
				</defs>
				<clipPath id="SVGID_00000042733682659650028530000012967974295952774572_">
					<use xlink:href="#SVGID_00000109717817281174062120000001162717437103000997_"  style="overflow:visible;"/>
				</clipPath>
				<g style="clip-path:url(#SVGID_00000042733682659650028530000012967974295952774572_);">
					<g>
						<g>
							<defs>
								<rect id="SVGID_00000060745484948610172860000012555414511192861882_" x="45.2" y="338.7" width="254.8" height="92.7"/>
							</defs>
							<clipPath id="SVGID_00000059282878482873743620000004627074270183642284_">
								<use xlink:href="#SVGID_00000060745484948610172860000012555414511192861882_"  style="overflow:visible;"/>
							</clipPath>
							<g style="clip-path:url(#SVGID_00000059282878482873743620000004627074270183642284_);">
								<polyline class="st8" points="299.2,339.5 299.2,430.5 148.1,430.5 148.1,390.7 46.1,390.7 46.1,339.5 148.1,339.5 								
									"/>
							</g>
						</g>
					</g>
				</g>
			</g>
		</g>
	</g>
</g>
</svg>
