<?xml version="1.0" encoding="utf-8"?>
<!-- Generator: Adobe Illustrator 26.3.1, SVG Export Plug-In . SVG Version: 6.00 Build 0)  -->
<svg version="1.1" id="b" xmlns="http://www.w3.org/2000/svg" xmlns:xlink="http://www.w3.org/1999/xlink" x="0px" y="0px"
	 viewBox="0 0 405.4 518.2" style="enable-background:new 0 0 405.4 518.2;" xml:space="preserve">
<style type="text/css">
	.st0{fill:#DDDDD3;}
	.st1{fill:#DEDED4;}
	.st2{fill:none;stroke:#DADADA;stroke-width:2;stroke-miterlimit:10;}
	.st3{clip-path:url(#SVGID_00000103981771057192060210000016463289099300018623_);}
	.st4{clip-path:url(#SVGID_00000101090226897113255130000004604061946457697470_);}
	.st5{clip-path:url(#SVGID_00000018215406176284662790000014096817658815757453_);}
	.st6{fill:none;stroke:#DDDDD3;stroke-width:2;}
	.st7{clip-path:url(#SVGID_00000018217392459331809660000004771457722279819159_);}
	.st8{clip-path:url(#SVGID_00000116237609489796835020000012374750891565164712_);}
	.st9{clip-path:url(#SVGID_00000098222407991534184740000005897670186627339933_);}
	.st10{clip-path:url(#SVGID_00000022535006055524498800000007890777944069296517_);}
	.st11{clip-path:url(#SVGID_00000161601626207066834500000011140487069740326539_);}
</style>
<g id="c">
	<g>
		<path class="st0" d="M57.5,15.2h-6.8v-0.3c1.6-0.2,1.8-0.3,1.8-2.4v-8c0-2.1-0.2-2.1-1.8-2.4V1.8h6.5c1.1,0,2.7,0,4.1-0.1l0.5,4
			h-0.3c-1-3.3-2.5-3.3-5.9-3.3h-1.1v5.4h2.6c1,0,1.7-0.5,1.9-2.1h0.3v4.9h-0.3c-0.2-1.5-0.8-2.1-1.9-2.1h-2.6v5
			c0,0.7,0.1,0.9,0.8,0.9h0.3c3.5,0,5.2-0.3,6.3-3.4h0.3l-0.7,4.1C60.2,15.2,58.7,15.2,57.5,15.2L57.5,15.2z"/>
	</g>
	<g>
		<path class="st0" d="M63.9,1.5V1.1L67.3,0c0,1,0,2.1,0,4v8.5c0,1.9,0,2.1,1.5,2.3v0.3h-4.8v-0.3c1.4-0.2,1.5-0.4,1.5-2.3V3.3
			C65.4,2.1,64.9,1.5,63.9,1.5L63.9,1.5z"/>
	</g>
	<g>
		<path class="st0" d="M69.8,10.3c0-2.9,2.1-5.2,4.5-5.2c2.1,0,3.8,1.3,4,4h-6.9v0.1c0,2.6,1.2,4.6,3.6,4.6c1.3,0,2.3-0.6,3-1.2
			l0.2,0.2c-0.6,1.1-1.9,2.6-4,2.6C71.2,15.4,69.8,13.2,69.8,10.3L69.8,10.3z M71.5,8.4h4.6c-0.1-1.6-0.8-2.6-2.1-2.6
			C72.8,5.8,71.8,6.5,71.5,8.4z"/>
	</g>
	<g>
		<path class="st0" d="M83.6,15.4L80,6.8c-0.4-0.9-0.6-1.2-1.3-1.2V5.3h4.4v0.3c-1.4,0.1-1.3,0.6-1,1.5l2.2,5.6l1.9-4.6
			c0.8-1.8,0.7-2.3-0.5-2.4V5.3h3.3v0.3c-0.8,0.1-1.1,0.6-1.6,1.8l-3.5,8C84,15.4,83.6,15.4,83.6,15.4z"/>
	</g>
	<g>
		<path class="st0" d="M97.2,14.2c0.3,0,0.6-0.2,0.8-0.4l0.2,0.2c-0.5,0.6-1,1.3-1.9,1.3c-0.8,0-1.5-0.4-1.5-1.8
			c-0.6,1-1.5,1.9-3,1.9s-2.8-1-2.8-2.2c0-1.1,0.8-1.9,2.4-2.8c0.9-0.5,2-0.9,3.4-1.5l0-0.4c0-2-0.7-2.6-1.9-2.6
			c-1.7,0-2.1,1.1-2,2.5h-1.7c0-1.5,1.8-3.2,4.2-3.2c1.7,0,3.3,0.7,3.2,3.1L96.5,13C96.5,14,96.7,14.2,97.2,14.2L97.2,14.2z
			 M94.8,13.2l0.1-3.5c-3.4,1-3.9,2-3.9,2.9c0,1,0.7,1.6,1.8,1.6C93.5,14.2,94.3,13.9,94.8,13.2z"/>
		<path class="st0" d="M99.9,12.6V6h-1.6V5.3h1.6V3.5l1.8-1.2v3h2.4V6h-2.4v6.3c0,1.4,0.3,1.9,1.3,1.9c0.5,0,1-0.2,1.4-0.6l0.2,0.1
			c-0.5,0.8-1.2,1.6-2.4,1.6C100.8,15.4,99.9,14.7,99.9,12.6z"/>
	</g>
	<g>
		<path class="st0" d="M108.8,12.5c0,1.9,0,2.2,1.5,2.3v0.3h-4.8v-0.3c1.4-0.2,1.5-0.4,1.5-2.3V8.4c0-1.2-0.5-1.8-1.5-1.8V6.2
			l3.3-1.1c0,1,0,2.1,0,4L108.8,12.5L108.8,12.5z M106.4,1.6c0-0.7,0.6-1.3,1.3-1.3s1.3,0.6,1.3,1.3s-0.6,1.3-1.3,1.3
			S106.4,2.3,106.4,1.6z"/>
	</g>
	<g>
		<path class="st0" d="M121.4,10.2c0,2.9-2.2,5.2-4.9,5.2s-5-2.1-5-5.2s2.2-5.2,4.9-5.2C119,5.1,121.4,7.2,121.4,10.2L121.4,10.2z
			 M113.5,9.6c0,1.8,0.8,5.1,3.2,5.1c1.8,0,2.6-1.4,2.6-3.8c0-1.8-0.8-5.1-3.2-5.1C114.4,5.8,113.5,7.2,113.5,9.6z"/>
		<path class="st0" d="M122.6,6.2l3.3-1.1l0,1.7c0.7-0.8,1.6-1.7,2.9-1.7c1.6,0,2.8,1.1,2.8,3.5v3.9c0,1.9,0,2.1,1.5,2.3v0.3h-4.8
			v-0.3c1.4-0.2,1.5-0.4,1.5-2.3V9c0-1.8-0.6-2.6-1.9-2.6c-0.8,0-1.6,0.2-2,0.9v5.3c0,1.9,0,2.2,1.5,2.3v0.3h-4.8v-0.3
			c1.4-0.2,1.5-0.4,1.5-2.3V8.4c0-1.2-0.5-1.8-1.5-1.8L122.6,6.2L122.6,6.2L122.6,6.2z"/>
		<path class="st0" d="M143,15.4l-3.6-8.6c-0.4-0.9-0.6-1.2-1.3-1.2V5.3h4.4v0.3c-1.4,0.1-1.3,0.6-1,1.5l2.2,5.6l1.9-4.6
			c0.8-1.8,0.7-2.3-0.5-2.4V5.3h3.3v0.3c-0.8,0.1-1.1,0.6-1.6,1.8l-3.5,8H143L143,15.4z"/>
	</g>
	<g>
		<path class="st0" d="M152.7,12.5c0,1.9,0,2.2,1.5,2.3v0.3h-4.8v-0.3c1.4-0.2,1.5-0.4,1.5-2.3V8.4c0-1.2-0.5-1.8-1.5-1.8V6.2
			l3.4-1.1c0,1,0,2.1,0,4L152.7,12.5L152.7,12.5z M150.4,1.6c0-0.7,0.6-1.3,1.3-1.3s1.3,0.6,1.3,1.3s-0.6,1.3-1.3,1.3
			S150.4,2.3,150.4,1.6z"/>
	</g>
	<g>
		<path class="st0" d="M155.3,10.3c0-2.9,2.1-5.2,4.5-5.2c2.1,0,3.8,1.3,4,4H157v0.1c0,2.6,1.2,4.6,3.6,4.6c1.4,0,2.3-0.6,3-1.2
			l0.2,0.2c-0.6,1.1-1.9,2.6-4,2.6C156.7,15.4,155.3,13.2,155.3,10.3L155.3,10.3z M157,8.4h4.6c-0.1-1.6-0.8-2.6-2.1-2.6
			C158.3,5.8,157.3,6.5,157,8.4L157,8.4z"/>
	</g>
	<g>
		<path class="st0" d="M171.5,8.1l-2.5,7.4h-0.4l-3.1-8.6c-0.3-0.9-0.5-1.2-1.3-1.3V5.3h4.4v0.3c-1.4,0.1-1.3,0.6-1,1.5l1.7,5.1
			l2.4-6.9h0.7l2.3,6.9l1.5-4.2c0.7-1.8,0.7-2.3-0.5-2.4V5.3h3.3v0.3c-0.8,0.1-1.1,0.5-1.6,1.8l-2.9,8h-0.4L171.5,8.1L171.5,8.1z"/>
	</g>
	<g>
		<path class="st0" d="M53,368.3c1.6-0.2,1.8-0.3,1.8-2.4v-8c0-2.1-0.2-2.1-1.8-2.4v-0.3h2c1.4,0,2.8,0,3.6,0c3.1,0,5.7,0.9,5.7,3.9
			s-2.6,3.9-5.7,3.9h-1.7v2.9c0,1.8,0,2.2,2,2.3v0.4H53L53,368.3L53,368.3L53,368.3z M58.4,355.9h-1.6v6.4h1.6
			c2.3,0,3.6-0.6,3.6-3.2C62,356.5,60.7,355.9,58.4,355.9z"/>
		<path class="st0" d="M65.3,354.9v-0.3l3.3-1.1c0,1,0,2.1,0,4v8.5c0,1.9,0,2.1,1.5,2.3v0.3h-4.8v-0.3c1.4-0.2,1.5-0.4,1.5-2.3v-9.2
			C66.8,355.5,66.3,354.9,65.3,354.9L65.3,354.9z"/>
		<path class="st0" d="M79.6,367.7c0.3,0,0.6-0.2,0.8-0.4l0.2,0.2c-0.5,0.6-1,1.3-1.9,1.3c-0.8,0-1.5-0.4-1.5-1.8
			c-0.6,1-1.5,1.9-3,1.9s-2.8-1-2.8-2.2c0-1.1,0.8-1.9,2.4-2.8c0.9-0.5,2-0.9,3.4-1.5l0-0.4c0-2-0.7-2.6-1.9-2.6
			c-1.7,0-2.1,1.1-2,2.5h-1.7c0-1.5,1.8-3.2,4.2-3.2c1.7,0,3.3,0.7,3.2,3.1l-0.1,4.8C78.9,367.5,79.1,367.6,79.6,367.7L79.6,367.7z
			 M77.2,366.6l0.1-3.5c-3.4,1-3.9,2-3.9,2.9c0,1,0.7,1.6,1.8,1.6C75.9,367.7,76.7,367.4,77.2,366.6z"/>
		<path class="st0" d="M81.1,359.7l3.3-1.1l0,1.7c0.7-0.8,1.6-1.7,2.9-1.7c1.6,0,2.8,1.1,2.8,3.5v3.9c0,1.9,0,2.1,1.5,2.3v0.3h-4.8
			v-0.3c1.4-0.2,1.5-0.4,1.5-2.3v-3.6c0-1.8-0.6-2.6-1.9-2.6c-0.8,0-1.6,0.2-2,0.9v5.3c0,1.9,0,2.1,1.5,2.3v0.3h-4.8v-0.3
			c1.4-0.2,1.5-0.4,1.5-2.3v-4.1c0-1.2-0.5-1.8-1.5-1.8L81.1,359.7L81.1,359.7L81.1,359.7z"/>
		<path class="st0" d="M101.6,368.9l-3.6-8.6c-0.4-0.9-0.6-1.2-1.3-1.2v-0.3h4.4v0.3c-1.4,0.1-1.3,0.6-1,1.5l2.2,5.5l1.9-4.5
			c0.8-1.8,0.7-2.3-0.5-2.5v-0.3h3.3v0.3c-0.8,0.1-1.1,0.5-1.6,1.8l-3.5,8C102,368.9,101.6,368.9,101.6,368.9z"/>
	</g>
	<g>
		<path class="st0" d="M111.3,366c0,1.9,0,2.1,1.5,2.3v0.3H108v-0.3c1.4-0.2,1.5-0.4,1.5-2.3v-4.1c0-1.2-0.5-1.8-1.5-1.8v-0.3
			l3.3-1.1c0,1,0,2.1,0,4L111.3,366L111.3,366z M108.9,355c0-0.7,0.6-1.3,1.3-1.3s1.3,0.5,1.3,1.3s-0.6,1.3-1.3,1.3
			S108.9,355.7,108.9,355z"/>
	</g>
	<g>
		<path class="st0" d="M113.9,363.7c0-2.9,2.1-5.2,4.5-5.2c2.1,0,3.8,1.3,4,4h-6.9v0.1c0,2.6,1.2,4.6,3.6,4.6c1.3,0,2.3-0.6,3-1.2
			l0.2,0.2c-0.6,1.1-1.9,2.6-4,2.6C115.3,368.9,113.9,366.6,113.9,363.7L113.9,363.7z M115.6,361.8h4.6c-0.1-1.6-0.8-2.6-2.1-2.6
			C116.9,359.2,115.8,359.9,115.6,361.8z"/>
	</g>
	<g>
		<path class="st0" d="M130.1,361.5l-2.5,7.4h-0.3l-3.1-8.6c-0.3-0.9-0.5-1.2-1.3-1.3v-0.3h4.4v0.3c-1.4,0.1-1.3,0.6-1,1.5l1.7,5.1
			l2.4-6.9h0.7l2.3,6.9l1.5-4.2c0.7-1.8,0.7-2.3-0.5-2.4v-0.3h3.3v0.3c-0.8,0.1-1.1,0.5-1.6,1.8l-2.9,8h-0.4L130.1,361.5
			L130.1,361.5z"/>
	</g>
	<g>
		<path class="st1" d="M9.2,246.4l-8.3,3.2h8.3v0.9H0V249l8.2-3.1L0,242.8v-1.4h9.2v0.9H0.8l8.3,3.2V246.4L9.2,246.4z"/>
		<path class="st1" d="M2.3,236.8c0-1.6,1.1-3.1,3.5-3.1s3.5,1.5,3.5,3.1s-1.1,3.1-3.5,3.1S2.3,238.4,2.3,236.8z M8.6,236.8
			c0-1.3-0.9-2.3-2.8-2.3s-2.8,1-2.8,2.3s0.9,2.3,2.8,2.3C7.7,239.1,8.6,238.1,8.6,236.8z"/>
		<path class="st1" d="M8.1,228c0.6,0.4,1.3,1,1.3,2.2c0,0.8-0.2,1.3-0.6,1.6c-0.4,0.4-1.1,0.6-2.1,0.6H2.4v-0.8h4.1
			c0.8,0,1.4-0.1,1.7-0.4c0.3-0.3,0.5-0.6,0.5-1.1c0-1.2-1-2.1-2.4-2.1H2.4v-0.8h6.8v0.8C9.2,228,8.1,228,8.1,228z"/>
		<path class="st1" d="M3.6,224.4c-0.7-0.4-1.3-1-1.3-2.3c0-0.8,0.3-1.4,0.7-1.8c0.4-0.4,1.1-0.5,1.9-0.5h4.2v0.8h-4
			c-0.8,0-1.3,0.1-1.6,0.4c-0.4,0.3-0.5,0.8-0.5,1.3c0,1.2,1,2.1,2.5,2.1h3.7v0.8H2.4v-0.8L3.6,224.4L3.6,224.4z"/>
		<path class="st1" d="M0.7,217.8V217h1.7v-1.4h0.7v1.4h4.3c0.9,0,1.1,0,1.1-1v-0.4h0.7v0.7c0,1.2-0.3,1.5-1.7,1.5H3.1v1.1H2.4v-1.1
			L0.7,217.8L0.7,217.8z"/>
	</g>
	<g>
		<path class="st1" d="M5.2,207.5c0,0.3,0,0.6,0,0.9v1.7h4v0.9H0v-2.6c0-2.2,0.4-3.8,2.6-3.8c1.5,0,2.2,0.8,2.5,2l4.1-2.1v1
			L5.2,207.5L5.2,207.5z M0.8,210.2h3.6v-1.9c0-1.5-0.2-2.8-1.8-2.8s-1.8,1.3-1.8,2.8V210.2z"/>
	</g>
	<g>
		<path class="st1" d="M2.3,200.5c0-1.6,1.1-3.1,3.5-3.1s3.5,1.5,3.5,3.1s-1.1,3.1-3.5,3.1S2.3,202.1,2.3,200.5z M8.6,200.5
			c0-1.3-0.9-2.3-2.8-2.3s-2.8,1-2.8,2.3s0.9,2.3,2.8,2.3S8.6,201.8,8.6,200.5z"/>
	</g>
	<g>
		<path class="st1" d="M2.4,192.9v-0.8l5.5-1.8l-5.5-1.5v-0.9l6.8,2v0.8l-5.7,1.8l5.7,1.8v0.7l-6.8,2v-0.9l5.5-1.5L2.4,192.9
			L2.4,192.9z"/>
	</g>
	<g>
		<path class="st1" d="M369.5,210.5l-2.1,0.3c-0.2-0.7-0.9-1.3-2-1.3c-1.4,0-2.4,0.9-2.4,2.9s1,2.9,2.4,2.9c1,0,2.1-0.4,2.1-1.6
			v-0.1h-2.2v-1.8h4.4v5.2h-1.7l-0.1-1c-0.6,0.8-1.5,1.2-2.9,1.2c-2.8,0-4.4-1.8-4.4-4.8s1.9-4.7,4.8-4.7
			C367.4,207.7,369.1,208.7,369.5,210.5L369.5,210.5z"/>
	</g>
	<g>
		<path class="st1" d="M363.4,258.9h4.5v1.9h-6.7v-9.2h2.2V258.9L363.4,258.9z"/>
	</g>
	<g>
		<path class="st1" d="M376.5,254.3l-2.1,0.3c-0.2-0.7-0.9-1.3-2-1.3c-1.4,0-2.4,0.9-2.4,2.9c0,2,1,2.9,2.4,2.9c1,0,2.1-0.4,2.1-1.6
			v-0.1h-2.2v-1.8h4.4v5.2H375l-0.1-1c-0.6,0.8-1.5,1.2-2.9,1.2c-2.8,0-4.4-1.8-4.4-4.8s1.9-4.7,4.8-4.7
			C374.4,251.5,376.1,252.5,376.5,254.3L376.5,254.3z"/>
	</g>
	<g>
		<polygon class="st2" points="182.1,78.5 182.1,48.7 92.6,48.7 92.6,78.5 50.4,78.5 50.4,193 195.4,193 195.4,78.5 		"/>
		<rect x="50.6" y="192.8" class="st0" width="119.3" height="39.2"/>
		<polygon class="st2" points="313.7,192.6 345.8,192.6 345.8,231.9 50.4,231.9 50.4,192.6 195.2,192.6 215,173.9 234.7,192.6 
			254.4,173.9 274.2,192.6 293.9,173.9 		"/>
		<rect x="50.4" y="279.6" class="st2" width="174.6" height="37.5"/>
		<rect x="50.4" y="231.9" class="st2" width="295.4" height="47.8"/>
		<line class="st2" x1="30.3" y1="232.2" x2="365.9" y2="232.2"/>
	</g>
	<g>
		<g>
			<defs>
				<rect id="SVGID_1_" x="52.3" y="384.2" width="293.5" height="111.3"/>
			</defs>
			<clipPath id="SVGID_00000068637675883215786960000011000100516255733660_">
				<use xlink:href="#SVGID_1_"  style="overflow:visible;"/>
			</clipPath>
			<g style="clip-path:url(#SVGID_00000068637675883215786960000011000100516255733660_);">
				<path class="st0" d="M193.1,398.7c2.4,0,4.3,0.8,4.3,3.7c0,2.9-1.9,3.7-4.3,3.7h-1.5v-7.5L193.1,398.7L193.1,398.7z
					 M193.1,399.4h-0.8v6.2h0.8c1.7,0,3.6-0.3,3.6-3.1S194.8,399.4,193.1,399.4z M198.1,403.5c0-1.8,1.1-2.9,2.6-2.9
					c1.6,0,2.6,1.3,2.5,3h-4.4c0,1.3,0.8,2.2,2,2.2c0.9,0,1.5-0.5,1.7-1.2l0.7,0.1c-0.3,1.1-1.2,1.7-2.5,1.7
					C199.1,406.3,198.1,405.2,198.1,403.5L198.1,403.5z M198.8,403h3.7c0-1-0.6-1.9-1.8-1.9C199.7,401.2,198.9,401.8,198.8,403z
					 M208.9,406.2h-0.6v-0.9c-0.4,0.7-1.1,1-1.9,1c-1.3,0-2.3-1.1-2.3-2.9c0-1.8,1-2.9,2.4-2.9c0.7,0,1.4,0.3,1.8,1v-2.9h0.6
					L208.9,406.2L208.9,406.2L208.9,406.2z M208.3,403.5c0-1.6-0.9-2.3-1.8-2.3c-1,0-1.7,0.9-1.7,2.3s0.7,2.3,1.7,2.3
					C207.3,405.8,208.3,405.1,208.3,403.5z M211.1,398.7v1h-0.6v-1H211.1z M211.1,400.7v5.5h-0.6v-5.5L211.1,400.7L211.1,400.7z
					 M217.1,402.4l-0.7,0.1c-0.2-0.8-0.8-1.3-1.7-1.3c-1,0-1.8,0.8-1.8,2.3s0.9,2.3,1.8,2.3c1,0,1.5-0.6,1.7-1.3l0.7,0.1
					c-0.2,1.1-1.1,1.8-2.4,1.8c-1.6,0-2.5-1.2-2.5-2.9s0.9-2.9,2.6-2.9C216.1,400.6,216.9,401.4,217.1,402.4L217.1,402.4z
					 M218,402.3c0.1-1.1,0.9-1.7,2.2-1.7c1.3,0,2.1,0.4,2.1,1.9c0,1,0,1.5,0,1.9c0,0.6,0,1.2,0.1,1.8h-0.6l0-0.9
					c-0.3,0.6-0.8,1-1.9,1c-1.2,0-1.9-0.8-1.9-1.7c0-0.5,0.2-0.9,0.6-1.2c0.5-0.4,1.4-0.5,2.1-0.5l1.1-0.1v-0.3
					c0-1.1-0.7-1.3-1.5-1.3c-1,0-1.4,0.5-1.5,1.1L218,402.3L218,402.3z M221.6,403.4l-1.2,0.1c-1.3,0.1-2,0.4-2,1.2
					c0,0.7,0.5,1.1,1.3,1.1c1,0,1.8-0.6,1.8-2.1V403.4L221.6,403.4z M223.9,399.3h0.6v1.4h1.1v0.6h-1.1v3.5c0,0.7,0,0.9,0.8,0.9h0.3
					v0.6h-0.5c-1,0-1.2-0.2-1.2-1.3v-3.6H223v-0.6h0.9L223.9,399.3L223.9,399.3L223.9,399.3z M226.4,403.5c0-1.8,1.1-2.9,2.6-2.9
					c1.6,0,2.6,1.3,2.5,3h-4.4c0,1.3,0.8,2.2,2,2.2c0.9,0,1.5-0.5,1.7-1.2l0.7,0.1c-0.3,1.1-1.2,1.7-2.5,1.7
					C227.3,406.4,226.4,405.2,226.4,403.5L226.4,403.5z M227.1,403.1h3.7c0-1-0.6-1.9-1.8-1.9C228,401.2,227.2,401.8,227.1,403.1
					L227.1,403.1z M237.1,406.2h-0.6v-0.9c-0.4,0.7-1.1,1-1.9,1c-1.3,0-2.3-1.1-2.3-2.9c0-1.8,1-2.9,2.4-2.9c0.7,0,1.4,0.3,1.8,1
					v-2.9h0.6L237.1,406.2L237.1,406.2L237.1,406.2z M236.5,403.5c0-1.6-0.9-2.3-1.8-2.3c-1,0-1.7,0.9-1.7,2.3
					c0,1.4,0.7,2.3,1.7,2.3C235.5,405.8,236.5,405.1,236.5,403.5z M241.8,408.2h-0.6v-7.5h0.6v0.9c0.4-0.7,1.1-1,1.9-1
					c1.3,0,2.3,1.1,2.3,2.9c0,1.8-1,2.9-2.4,2.9c-0.7,0-1.4-0.3-1.8-1L241.8,408.2L241.8,408.2L241.8,408.2z M241.8,403.5
					c0,1.6,0.9,2.3,1.8,2.3c1,0,1.7-0.9,1.7-2.3s-0.7-2.3-1.7-2.3C242.7,401.2,241.8,401.9,241.8,403.5z M247.8,406.2h-0.6v-7.5h0.6
					V406.2z M249.2,402.3c0.1-1.1,0.9-1.7,2.2-1.7c1.3,0,2.1,0.4,2.1,1.9c0,1,0,1.5,0,1.9c0,0.6,0,1.2,0.1,1.8h-0.6l0-0.9
					c-0.3,0.6-0.8,1-1.9,1c-1.2,0-1.9-0.8-1.9-1.7c0-0.5,0.2-0.9,0.6-1.2c0.5-0.4,1.4-0.5,2.1-0.5l1.1-0.1v-0.3
					c0-1.1-0.7-1.3-1.5-1.3c-1,0-1.4,0.5-1.5,1.1L249.2,402.3L249.2,402.3z M252.9,403.3l-1.2,0.1c-1.3,0.1-2,0.4-2,1.2
					c0,0.7,0.5,1.1,1.3,1.1c1,0,1.8-0.6,1.8-2.1V403.3L252.9,403.3z M255.6,401.6c0.3-0.5,0.8-1,1.9-1c0.7,0,1.2,0.2,1.5,0.6
					c0.3,0.4,0.4,0.9,0.4,1.6v3.4h-0.6V403c0-0.6-0.1-1.1-0.3-1.3c-0.2-0.3-0.6-0.4-1.1-0.4c-1,0-1.7,0.8-1.7,2v3h-0.6v-5.5h0.6
					L255.6,401.6L255.6,401.6L255.6,401.6z M261,399.3h0.6v1.4h1.1v0.6h-1.1v3.5c0,0.7,0,0.9,0.8,0.9h0.3v0.6h-0.5
					c-1,0-1.2-0.2-1.2-1.3v-3.6H260v-0.6h0.9L261,399.3L261,399.3L261,399.3z M269.8,402.2c-0.2-0.6-0.7-1-1.5-1
					c-0.6,0-1.4,0.2-1.4,0.9c0,0.6,0.4,0.8,1,0.9l0.8,0.1c0.9,0.2,1.9,0.4,1.9,1.5s-1,1.7-2.2,1.7c-1.2,0-2.1-0.6-2.3-1.8l0.7-0.1
					c0.2,0.8,0.8,1.3,1.6,1.3c0.6,0,1.5-0.3,1.5-1c0-0.7-0.6-0.9-1.3-1l-0.9-0.2c-0.8-0.2-1.5-0.6-1.5-1.5s0.9-1.5,2.1-1.5
					c1.2,0,1.9,0.7,2.1,1.5L269.8,402.2L269.8,402.2z M272.5,405.4c0.4,0.7,1.1,1,1.8,1c1.4,0,2.4-1.1,2.4-2.9c0-1.8-1-2.9-2.3-2.9
					c-0.8,0-1.5,0.3-1.9,1v-0.9h-0.6v7.5h0.6V405.4L272.5,405.4L272.5,405.4z M276,403.5c0,1.4-0.7,2.3-1.7,2.3
					c-0.9,0-1.8-0.7-1.8-2.3s1-2.3,1.8-2.3C275.3,401.2,276,402,276,403.5z M277.6,402.3c0.1-1.1,0.9-1.7,2.2-1.7s2.1,0.4,2.1,1.9
					c0,1,0,1.5,0,1.9c0,0.6,0,1.2,0.1,1.8h-0.6l0-0.9c-0.3,0.6-0.8,1-1.9,1c-1.2,0-1.9-0.8-1.9-1.7c0-0.5,0.2-0.9,0.6-1.2
					c0.5-0.4,1.4-0.5,2.1-0.5l1.1-0.1v-0.3c0-1.1-0.7-1.3-1.5-1.3c-1,0-1.4,0.5-1.5,1.1L277.6,402.3L277.6,402.3z M281.3,403.3
					l-1.2,0.1c-1.3,0.1-2,0.4-2,1.2c0,0.7,0.5,1.1,1.3,1.1c1,0,1.8-0.6,1.8-2.1V403.3L281.3,403.3z M287.7,402.4l-0.7,0.1
					c-0.2-0.8-0.8-1.3-1.7-1.3c-1,0-1.8,0.8-1.8,2.3s0.9,2.3,1.8,2.3c1,0,1.5-0.6,1.7-1.3l0.7,0.1c-0.2,1.1-1.1,1.8-2.4,1.8
					c-1.6,0-2.5-1.2-2.5-2.9s0.9-2.9,2.6-2.9C286.7,400.6,287.6,401.4,287.7,402.4L287.7,402.4z M288.4,403.5c0-1.8,1.1-2.9,2.6-2.9
					c1.6,0,2.6,1.3,2.5,3h-4.4c0,1.3,0.8,2.2,2,2.2c0.9,0,1.5-0.5,1.7-1.2l0.7,0.1c-0.3,1.1-1.2,1.7-2.5,1.7
					C289.4,406.3,288.4,405.2,288.4,403.5L288.4,403.5z M289.1,403h3.7c0-1-0.6-1.9-1.8-1.9C290,401.2,289.2,401.8,289.1,403
					L289.1,403z"/>
			</g>
		</g>
		<g>
			<defs>
				<rect id="SVGID_00000150825303559364492230000004078503650329589665_" x="52.3" y="384.2" width="293.5" height="111.3"/>
			</defs>
			<clipPath id="SVGID_00000099661219916866737130000009549177651480458129_">
				<use xlink:href="#SVGID_00000150825303559364492230000004078503650329589665_"  style="overflow:visible;"/>
			</clipPath>
			<g style="clip-path:url(#SVGID_00000099661219916866737130000009549177651480458129_);">
				<g>
					<defs>
						<rect id="SVGID_00000040546141655842853210000007294102590163104945_" x="313.8" y="389.8" width="31" height="52.9"/>
					</defs>
					<clipPath id="SVGID_00000031207145995854150050000002964985330745121944_">
						<use xlink:href="#SVGID_00000040546141655842853210000007294102590163104945_"  style="overflow:visible;"/>
					</clipPath>
					<g style="clip-path:url(#SVGID_00000031207145995854150050000002964985330745121944_);">
						<path class="st6" d="M298.3,475l54.5-54.5 M298.3,465.9l54.5-54.5 M298.3,456.8l54.5-54.5 M298.3,447.6l54.5-54.5
							 M298.3,438.5l54.5-54.5 M298.3,429.3l54.5-54.5 M298.3,420.2l54.5-54.5 M298.3,411.1l54.5-54.5"/>
					</g>
				</g>
			</g>
		</g>
		<g>
			<defs>
				<rect id="SVGID_00000180333002658405677050000007198655176442991276_" x="52.3" y="384.2" width="293.5" height="111.3"/>
			</defs>
			<clipPath id="SVGID_00000069397493305899951150000014873866195726242491_">
				<use xlink:href="#SVGID_00000180333002658405677050000007198655176442991276_"  style="overflow:visible;"/>
			</clipPath>
			<g style="clip-path:url(#SVGID_00000069397493305899951150000014873866195726242491_);">
				<rect x="53.2" y="389.8" class="st0" width="117.6" height="59"/>
			</g>
		</g>
		<g>
			<defs>
				<rect id="SVGID_00000055681329963855326910000014311468433511901334_" x="52.3" y="384.2" width="293.5" height="111.3"/>
			</defs>
			<clipPath id="SVGID_00000118368178183432470430000012446992500659978114_">
				<use xlink:href="#SVGID_00000055681329963855326910000014311468433511901334_"  style="overflow:visible;"/>
			</clipPath>
			<g style="clip-path:url(#SVGID_00000118368178183432470430000012446992500659978114_);">
				<g>
					<g>
						<defs>
							<rect id="SVGID_00000143592625320166610340000005207972999140290957_" x="52.3" y="384.2" width="293.5" height="111.3"/>
						</defs>
						<clipPath id="SVGID_00000103954841754973106430000011436707019261512374_">
							<use xlink:href="#SVGID_00000143592625320166610340000005207972999140290957_"  style="overflow:visible;"/>
						</clipPath>
						<g style="clip-path:url(#SVGID_00000103954841754973106430000011436707019261512374_);">
							<polygon class="st2" points="313.8,414.8 313.8,442.6 344.8,442.6 344.8,494.6 170.8,494.6 170.8,448.7 53.2,448.7 
								53.2,389.8 170.8,389.8 170.8,414.8 							"/>
						</g>
					</g>
					<g>
						<defs>
							<rect id="SVGID_00000163030899959532233690000015475872525760480659_" x="52.3" y="384.2" width="293.5" height="111.3"/>
						</defs>
						<clipPath id="SVGID_00000057132670052532384360000001551934768935160998_">
							<use xlink:href="#SVGID_00000163030899959532233690000015475872525760480659_"  style="overflow:visible;"/>
						</clipPath>
						<g style="clip-path:url(#SVGID_00000057132670052532384360000001551934768935160998_);">
							<rect x="53.2" y="448.7" class="st2" width="117.6" height="45.9"/>
						</g>
					</g>
					<g>
						<defs>
							<rect id="SVGID_00000147209862973241266570000017977002328968549814_" x="52.3" y="384.2" width="293.5" height="111.3"/>
						</defs>
						<clipPath id="SVGID_00000141446906270673088820000003078341048685887121_">
							<use xlink:href="#SVGID_00000147209862973241266570000017977002328968549814_"  style="overflow:visible;"/>
						</clipPath>
						<g style="clip-path:url(#SVGID_00000141446906270673088820000003078341048685887121_);">
							<polyline class="st2" points="170.8,389.8 344.8,389.8 344.8,443.3 							"/>
						</g>
					</g>
				</g>
			</g>
		</g>
	</g>
</g>
</svg>
