<?xml version="1.0" encoding="UTF-8"?><svg xmlns="http://www.w3.org/2000/svg" viewBox="0 0 975.52 358.04"><g isolation="isolate"><g id="a"><line x1="968.23" y1="18.12" x2="854.56" y2="131.79" fill="none" stroke="#e4bcb1" stroke-miterlimit="10"/><line x1="968.23" y1="29.5" x2="854.56" y2="143.17" fill="none" stroke="#e4bcb1" stroke-miterlimit="10"/><line x1="957.64" y1="17.34" x2="854.56" y2="120.42" fill="none" stroke="#e4bcb1" stroke-miterlimit="10"/><line x1="968.23" y1="40.88" x2="854.56" y2="154.55" fill="none" stroke="#e4bcb1" stroke-miterlimit="10"/><line x1="968.23" y1="52.25" x2="854.56" y2="165.92" fill="none" stroke="#e4bcb1" stroke-miterlimit="10"/><line x1="968.23" y1="63.58" x2="854.56" y2="177.25" fill="none" stroke="#e4bcb1" stroke-miterlimit="10"/><line x1="968.23" y1="74.96" x2="854.56" y2="188.63" fill="none" stroke="#e4bcb1" stroke-miterlimit="10"/><line x1="968.23" y1="86.34" x2="854.56" y2="200.01" fill="none" stroke="#e4bcb1" stroke-miterlimit="10"/><line x1="889.11" y1="17.68" x2="854.56" y2="52.23" fill="none" stroke="#e4bcb1" stroke-miterlimit="10"/><line x1="900.7" y1="17.46" x2="854.56" y2="63.61" fill="none" stroke="#e4bcb1" stroke-miterlimit="10"/><line x1="876.51" y1="18.9" x2="854.56" y2="40.85" fill="none" stroke="#e4bcb1" stroke-miterlimit="10"/><line x1="867.38" y1="16.7" x2="854.56" y2="29.52" fill="none" stroke="#e4bcb1" stroke-miterlimit="10"/><line x1="911.43" y1="18.12" x2="854.56" y2="74.98" fill="none" stroke="#e4bcb1" stroke-miterlimit="10"/><line x1="920.86" y1="20.06" x2="854.56" y2="86.36" fill="none" stroke="#e4bcb1" stroke-miterlimit="10"/><line x1="934.64" y1="17.61" x2="854.56" y2="97.69" fill="none" stroke="#e4bcb1" stroke-miterlimit="10"/><line x1="944.72" y1="18.9" x2="854.56" y2="109.06" fill="none" stroke="#e4bcb1" stroke-miterlimit="10"/><line x1="968.23" y1="97.71" x2="854.56" y2="211.38" fill="none" stroke="#e4bcb1" stroke-miterlimit="10"/><line x1="968.23" y1="109.06" x2="854.56" y2="222.74" fill="none" stroke="#e4bcb1" stroke-miterlimit="10"/><line x1="968.23" y1="120.44" x2="854.56" y2="234.11" fill="none" stroke="#e4bcb1" stroke-miterlimit="10"/><line x1="968.23" y1="131.82" x2="854.56" y2="245.49" fill="none" stroke="#e4bcb1" stroke-miterlimit="10"/><line x1="968.23" y1="143.19" x2="854.56" y2="256.86" fill="none" stroke="#e4bcb1" stroke-miterlimit="10"/><line x1="968.23" y1="154.52" x2="854.56" y2="268.19" fill="none" stroke="#e4bcb1" stroke-miterlimit="10"/><line x1="968.23" y1="165.9" x2="854.56" y2="279.57" fill="none" stroke="#e4bcb1" stroke-miterlimit="10"/><line x1="968.23" y1="177.28" x2="854.56" y2="290.95" fill="none" stroke="#e4bcb1" stroke-miterlimit="10"/><line x1="968.23" y1="188.65" x2="854.56" y2="302.32" fill="none" stroke="#e4bcb1" stroke-miterlimit="10"/></g><g id="b"><g><path d="M384.82,303.01v28.51h-28.5c0-14.91,11.43-27.14,26.01-28.39,.82-.08,1.65-.12,2.49-.12Z" fill="#282727"/><path d="M259.62,338.15c0-11.62,9.41-21.04,21.02-21.04v21.04h-21.02Z" fill="#282727"/><path d="M280.64,306.33v10.78c-5.95,0-10.78-4.82-10.78-10.78h10.78Z" fill="#282727"/><path d="M280.64,338.15v-31.82h-2.5v-13.04h104.18v9.84c-14.57,1.25-26,13.48-26,28.39h26v11.58h-104.18v-4.95h2.5Z" fill="#282727"/><polygon points="382.32 263.81 382.32 293.29 371.21 293.29 289.25 293.29 278.14 293.29 278.14 289.67 278.14 282.27 278.14 274.86 278.14 267.46 278.14 263.81 382.32 263.81" fill="#282727"/><rect x="245.49" y="282.27" width="32.65" height="7.4" fill="#282727"/><rect x="245.49" y="252.65" width="32.65" height="7.41" fill="#282727"/><polygon points="278.14 263.81 278.14 267.46 245.49 267.46 245.49 260.06 278.14 260.06 278.14 263.81" fill="#282727"/><rect x="245.49" y="267.46" width="32.65" height="7.4" fill="#282727"/><rect x="245.49" y="274.86" width="32.65" height="7.41" fill="#282727"/><rect x="245.49" y="237.84" width="32.65" height="7.41" fill="#282727"/><rect x="245.49" y="245.25" width="32.65" height="7.4" fill="#282727"/><polygon points="245.49 282.27 245.49 289.67 236.3 289.67 236.3 282.27 236.3 274.86 236.3 267.46 236.3 260.06 236.3 252.65 236.3 245.25 236.3 237.84 245.49 237.84 245.49 245.25 245.49 252.65 245.49 260.06 245.49 267.46 245.49 274.86 245.49 282.27" fill="#282727"/><polygon points="278.14 187.54 278.14 203.02 270.13 203.02 250.79 203.02 231 203.02 211.66 203.02 203.65 203.02 203.65 187.54 278.14 187.54" fill="#282727"/><rect x="203.65" y="237.84" width="32.65" height="7.41" fill="#282727"/><rect x="203.65" y="245.25" width="32.65" height="7.4" fill="#282727"/><rect x="203.65" y="267.46" width="32.65" height="7.4" fill="#282727"/><rect x="203.65" y="260.06" width="32.65" height="7.4" fill="#282727"/><rect x="203.65" y="274.86" width="32.65" height="7.41" fill="#282727"/><rect x="203.65" y="252.65" width="32.65" height="7.41" fill="#282727"/><rect x="203.65" y="282.27" width="32.65" height="7.4" fill="#282727"/><polygon points="278.14 203.02 278.14 237.84 245.49 237.84 236.3 237.84 203.65 237.84 203.65 203.02 211.66 203.02 231 203.02 250.79 203.02 270.13 203.02 278.14 203.02" fill="#282727"/><path d="M206.14,338.15v-21.04h.01v-10.78h-2.5v-16.66h74.49v16.66h-8.28c0,5.96,4.83,10.78,10.78,10.78-11.61,0-21.02,9.42-21.02,21.04h18.52v4.95h-74.49v-4.95h2.49Z" fill="#282727"/><path d="M206.15,306.33v10.78h-.01c-5.96-.01-10.77-4.82-10.77-10.78h10.78Z" fill="#282727"/><path d="M206.14,317.11v21.04h-21.02c0-11.62,9.41-21.04,21.02-21.04Z" fill="#282727"/><polygon points="203.65 237.84 179.1 268.85 154.54 237.84 203.65 237.84" fill="#282727"/><polygon points="203.65 289.67 203.65 299.85 179.1 268.85 203.65 237.84 203.65 245.25 203.65 252.65 203.65 260.06 203.65 267.46 203.65 274.86 203.65 282.27 203.65 289.67" fill="#282727"/><polygon points="179.1 268.85 203.65 299.85 193.13 299.85 165.05 299.85 154.54 299.85 179.1 268.85" fill="#282727"/><polygon points="179.1 268.85 154.54 299.85 154.54 237.84 179.1 268.85" fill="#282727"/><polygon points="154.54 237.84 154.54 299.85 138.99 299.85 138.99 211.78 154.54 211.78 154.54 237.84" fill="#282727"/><path d="M7.84,227.61H40.6c0,18.64-14.45,33.9-32.76,35.18-.82,.06-1.66,.09-2.5,.09v-35.27h2.5Z" fill="#282727"/><path d="M203.65,338.15v4.95H7.84v-80.31c18.31-1.28,32.76-16.54,32.76-35.18H7.84v-15.83H138.99v88.07h64.66v6.48h-8.28c0,5.96,4.81,10.77,10.77,10.78-11.61,0-21.02,9.42-21.02,21.04h18.53Z" fill="#282727"/></g><g><path d="M941.89,187.54v21.16c-13.07,0-23.67-10.59-23.67-23.66h23.67v2.5Z" fill="#e4bcb1"/><path d="M918.22,185.04c0,13.07-10.59,23.66-23.66,23.66v-23.66h23.66Z" fill="#e4bcb1"/><path d="M7.84,29.5H40.6c0,18.64-14.45,33.9-32.76,35.18-.82,.06-1.66,.09-2.5,.09V29.5h2.5Z" fill="#e4bcb1"/><path d="M94.06,185.47H5.34V96.77c.84,0,1.67,0,2.5,.04,47.84,1.32,86.22,40.52,86.22,88.66Z" fill="#e4bcb1"/><path d="M276.86,17.24l116.86,.88h65.25v51.83h405.83v31.06h-9.32v86.53h39.08v21.16c13.07,0,23.66-10.59,23.66-23.66,0,13.07,10.6,23.66,23.67,23.66v-21.16h23.33v153.13h-124.75v10.36H456.9v-7.93h-41.34v7.93h-33.24v-19.51h2.5v-28.51c-.84,0-1.67,.04-2.49,.12v-39.32h-104.19v-76.27h-74.49v50.3h-49.11v-26.06H7.84v-26.31H94.06c0-48.14-38.38-87.34-86.22-88.66v-32.13c18.31-1.28,32.76-16.54,32.76-35.18H7.84V11.83H75.17V5.83h55.01v6h28.45V5.83h63.35v6h38.68v5.41h16.2Z" fill="#e4bcb1"/></g></g><g id="c" opacity=".3"><line x1="203.65" y1="306.33" x2="203.65" y2="237.84" fill="none" stroke="#dadada" stroke-miterlimit="10" stroke-width="6"/><line x1="270.13" y1="203.02" x2="278.14" y2="203.02" fill="none" stroke="#dadada" stroke-miterlimit="10" stroke-width="4"/><line x1="250.79" y1="204.52" x2="270.13" y2="204.52" fill="none" stroke="#dadada" stroke-miterlimit="10"/><line x1="231" y1="203.02" x2="250.79" y2="203.02" fill="none" stroke="#dadada" stroke-miterlimit="10" stroke-width="4"/><line x1="211.66" y1="204.52" x2="231" y2="204.52" fill="none" stroke="#dadada" stroke-miterlimit="10"/><line x1="203.65" y1="203.02" x2="211.66" y2="203.02" fill="none" stroke="#dadada" stroke-miterlimit="10" stroke-width="4"/><line x1="278.14" y1="263.81" x2="278.14" y2="306.33" fill="none" stroke="#dadada" stroke-miterlimit="10" stroke-width="6"/><line x1="203.65" y1="343.1" x2="203.65" y2="338.15" fill="none" stroke="#dadada" stroke-miterlimit="10" stroke-width="6"/><line x1="278.14" y1="338.15" x2="278.14" y2="343.1" fill="none" stroke="#dadada" stroke-miterlimit="10" stroke-width="6"/><line x1="278.14" y1="343.1" x2="278.14" y2="338.15" fill="none" stroke="#dadada" stroke-miterlimit="10" stroke-width="6"/><polyline points="154.54 237.84 154.54 299.85 165.05 299.85" fill="none" stroke="#dadada" stroke-miterlimit="10" stroke-width="6"/><polyline points="193.13 299.85 203.65 299.85 203.65 237.84" fill="none" stroke="#dadada" stroke-miterlimit="10" stroke-width="6"/><line x1="165.05" y1="302.35" x2="193.13" y2="302.35" fill="none" stroke="#dadada" stroke-miterlimit="10"/><line x1="154.54" y1="237.84" x2="154.54" y2="299.85" fill="none" stroke="#dadada" stroke-miterlimit="10" stroke-width="6"/><path d="M206.14,338.15h-21.02c0-11.62,9.41-21.03,21.02-21.03v21.03Z" fill="none" stroke="#dadada" stroke-miterlimit="10"/><path d="M206.15,306.33h-10.78c0,5.96,4.81,10.77,10.77,10.78h.01v-10.78Z" fill="none" stroke="#dadada" stroke-miterlimit="10"/><path d="M280.64,338.15h-21.02c0-11.62,9.41-21.04,21.02-21.04v21.04Z" fill="none" stroke="#dadada" stroke-miterlimit="10"/><path d="M280.64,317.11c-5.95,0-10.78-4.82-10.78-10.78h10.78v10.78Z" fill="none" stroke="#dadada" stroke-miterlimit="10"/><rect x="203.65" y="237.84" width="32.65" height="7.4" fill="none" stroke="#dadada" stroke-miterlimit="10"/><rect x="203.65" y="245.25" width="32.65" height="7.4" fill="none" stroke="#dadada" stroke-miterlimit="10"/><rect x="203.65" y="252.65" width="32.65" height="7.4" fill="none" stroke="#dadada" stroke-miterlimit="10"/><rect x="203.65" y="260.06" width="32.65" height="7.4" fill="none" stroke="#dadada" stroke-miterlimit="10"/><rect x="203.65" y="267.46" width="32.65" height="7.4" fill="none" stroke="#dadada" stroke-miterlimit="10"/><rect x="203.65" y="274.86" width="32.65" height="7.4" fill="none" stroke="#dadada" stroke-miterlimit="10"/><rect x="203.65" y="282.27" width="32.65" height="7.4" fill="none" stroke="#dadada" stroke-miterlimit="10"/><rect x="245.49" y="237.84" width="32.65" height="7.4" fill="none" stroke="#dadada" stroke-miterlimit="10"/><rect x="245.49" y="245.25" width="32.65" height="7.4" fill="none" stroke="#dadada" stroke-miterlimit="10"/><rect x="245.49" y="252.65" width="32.65" height="7.4" fill="none" stroke="#dadada" stroke-miterlimit="10"/><rect x="245.49" y="260.06" width="32.65" height="7.4" fill="none" stroke="#dadada" stroke-miterlimit="10"/><rect x="245.49" y="267.46" width="32.65" height="7.4" fill="none" stroke="#dadada" stroke-miterlimit="10"/><rect x="245.49" y="274.86" width="32.65" height="7.4" fill="none" stroke="#dadada" stroke-miterlimit="10"/><rect x="245.49" y="282.27" width="32.65" height="7.4" fill="none" stroke="#dadada" stroke-miterlimit="10"/><rect x="236.3" y="237.84" width="9.2" height="51.83" fill="none" stroke="#dadada" stroke-miterlimit="10"/><line x1="154.54" y1="237.84" x2="203.65" y2="299.85" fill="none" stroke="#dadada" stroke-miterlimit="10"/><line x1="154.54" y1="299.85" x2="203.65" y2="237.84" fill="none" stroke="#dadada" stroke-miterlimit="10"/><line x1="371.21" y1="293.29" x2="382.32" y2="293.29" fill="none" stroke="#dadada" stroke-miterlimit="10" stroke-width="4"/><line x1="289.25" y1="294.79" x2="371.21" y2="294.79" fill="none" stroke="#dadada" stroke-miterlimit="10"/><line x1="278.14" y1="293.29" x2="289.25" y2="293.29" fill="none" stroke="#dadada" stroke-miterlimit="10" stroke-width="4"/><path d="M384.82,331.52h-28.5c0-15.75,12.76-28.51,28.5-28.51v28.51Z" fill="none" stroke="#dadada" stroke-miterlimit="10"/><rect x="138.99" y="211.78" width="15.54" height="90.57" fill="none" stroke="#dadada" stroke-miterlimit="10"/><path d="M5.34,227.61H40.6c0,19.48-15.79,35.27-35.26,35.27v-35.27Z" fill="none" stroke="#dadada" stroke-miterlimit="10"/></g><g id="d"><polyline points="203.65 237.84 203.65 203.02 203.65 187.54 278.14 187.54 278.14 203.02 278.14 237.84 278.14 245.25 278.14 252.65 278.14 260.06 278.14 263.81 299.71 263.76" fill="none" stroke="#dadada" stroke-miterlimit="10" stroke-width="6"/><line x1="278.14" y1="343.1" x2="203.65" y2="343.1" fill="none" stroke="#dadada" stroke-miterlimit="10" stroke-width="6"/><polyline points="382.32 303.01 382.32 263.81 278.14 263.81" fill="none" stroke="#dadada" stroke-miterlimit="10" stroke-width="6"/><polyline points="382.32 331.52 382.32 343.1 278.14 343.1" fill="none" stroke="#dadada" stroke-miterlimit="10" stroke-width="6"/><polyline points="154.54 237.84 203.65 237.84 203.65 229.67" fill="none" stroke="#dadada" stroke-miterlimit="10" stroke-width="6"/><polyline points="393.72 90.92 393.72 18.12 458.97 18.12 458.97 69.95 864.8 69.95 864.8 101.01 855.48 101.01 855.48 187.54 894.56 187.54" fill="none" stroke="#dadada" stroke-miterlimit="10" stroke-width="6"/><polyline points="941.89 187.54 965.22 187.54 965.22 340.67 840.47 340.67 840.47 351.03 456.9 351.03 456.9 343.1 415.56 343.1 415.56 351.03 382.32 351.03 382.32 343.1" fill="none" stroke="#dadada" stroke-miterlimit="10" stroke-width="6"/><polyline points="7.84 262.88 7.84 343.1 154.54 343.1" fill="none" stroke="#dadada" stroke-miterlimit="10" stroke-width="6"/><polyline points="7.84 227.61 7.84 211.78 154.54 211.78 154.54 237.84 163.68 237.84" fill="none" stroke="#dadada" stroke-miterlimit="10" stroke-width="6"/><line x1="154.54" y1="343.1" x2="203.65" y2="343.1" fill="none" stroke="#dadada" stroke-miterlimit="10" stroke-width="6"/><polyline points="7.84 29.5 7.84 11.83 75.17 11.83 75.17 5.83 130.18 5.83 130.18 11.83 158.63 11.83 158.63 5.83 221.98 5.83 221.98 11.83 260.66 11.83 260.66 17.24 276.86 17.24 276.86 91.14" fill="none" stroke="#dadada" stroke-miterlimit="10" stroke-width="6"/><line x1="7.84" y1="96.77" x2="7.84" y2="64.77" fill="none" stroke="#dadada" stroke-miterlimit="10" stroke-width="6"/><line x1="7.84" y1="211.78" x2="7.84" y2="185.47" fill="none" stroke="#dadada" stroke-miterlimit="10" stroke-width="6"/><line x1="394.24" y1="18.12" x2="276.86" y2="17.24" fill="none" stroke="#dadada" stroke-miterlimit="10" stroke-width="6"/><line x1="454.84" y1="180.24" x2="454.84" y2="266.56" fill="none" stroke="#dadada" stroke-miterlimit="10" stroke-width="6"/><line x1="382.32" y1="263.81" x2="413.47" y2="263.81" fill="none" stroke="#dadada" stroke-miterlimit="10" stroke-width="6"/><polyline points="458.97 18.12 968.23 18.12 965.22 187.54" fill="none" stroke="#dadada" stroke-miterlimit="10" stroke-width="6"/><line x1="278.14" y1="187.54" x2="278.14" y2="180.24" fill="none" stroke="#dadada" stroke-miterlimit="10" stroke-width="6"/><path d="M918.22,185.04c0,13.07-10.59,23.66-23.66,23.66v-23.66h23.66Zm23.67,0v23.66c-13.07,0-23.67-10.59-23.67-23.66h23.67Z" fill="none" stroke="#dadada" stroke-miterlimit="10"/><path d="M5.34,29.5H40.6c0,19.48-15.79,35.27-35.26,35.27V29.5Z" fill="none" stroke="#dadada" stroke-miterlimit="10"/><path d="M5.34,96.77c49,0,88.72,39.72,88.72,88.7H5.34V96.77Z" fill="none" stroke="#dadada" stroke-miterlimit="10"/></g><g id="e"><g mix-blend-mode="multiply"><g><line x1="271.19" y1="24.77" x2="267.69" y2="24.77" fill="none" stroke="#ebebe5" stroke-miterlimit="10"/><line x1="265.64" y1="24.77" x2="155.74" y2="24.77" fill="none" stroke="#ebebe5" stroke-dasharray="0 0 7.19 2.05" stroke-miterlimit="10"/><polyline points="154.71 24.77 151.21 24.77 151.21 28.27" fill="none" stroke="#ebebe5" stroke-miterlimit="10"/><line x1="151.21" y1="30.37" x2="151.21" y2="86.09" fill="none" stroke="#ebebe5" stroke-dasharray="0 0 7.36 2.1" stroke-miterlimit="10"/><polyline points="151.21 87.14 151.21 90.64 154.71 90.64" fill="none" stroke="#ebebe5" stroke-miterlimit="10"/><line x1="156.76" y1="90.64" x2="266.66" y2="90.64" fill="none" stroke="#ebebe5" stroke-dasharray="0 0 7.19 2.05" stroke-miterlimit="10"/><line x1="267.69" y1="90.64" x2="271.19" y2="90.64" fill="none" stroke="#ebebe5" stroke-miterlimit="10"/></g></g><g mix-blend-mode="multiply"><g><line x1="282.53" y1="90.64" x2="286.03" y2="90.64" fill="none" stroke="#ebebe5" stroke-miterlimit="10"/><line x1="287.95" y1="90.64" x2="382.17" y2="90.64" fill="none" stroke="#ebebe5" stroke-dasharray="0 0 6.73 1.92" stroke-miterlimit="10"/><polyline points="383.13 90.64 386.63 90.64 386.63 87.14" fill="none" stroke="#ebebe5" stroke-miterlimit="10"/><line x1="386.63" y1="85.04" x2="386.63" y2="29.32" fill="none" stroke="#ebebe5" stroke-dasharray="0 0 7.36 2.1" stroke-miterlimit="10"/><polyline points="386.63 28.27 386.63 24.77 383.13 24.77" fill="none" stroke="#ebebe5" stroke-miterlimit="10"/><line x1="381.21" y1="24.77" x2="286.99" y2="24.77" fill="none" stroke="#ebebe5" stroke-dasharray="0 0 6.73 1.92" stroke-miterlimit="10"/><line x1="286.03" y1="24.77" x2="282.53" y2="24.77" fill="none" stroke="#ebebe5" stroke-miterlimit="10"/></g></g><g mix-blend-mode="multiply"><g><polyline points="161.62 227.26 161.62 230.76 165.12 230.76" fill="none" stroke="#ebebe5" stroke-miterlimit="10"/><line x1="167.05" y1="230.76" x2="192.1" y2="230.76" fill="none" stroke="#ebebe5" stroke-dasharray="0 0 6.74 1.93" stroke-miterlimit="10"/><polyline points="193.06 230.76 196.56 230.76 196.56 227.26" fill="none" stroke="#ebebe5" stroke-miterlimit="10"/><line x1="196.56" y1="225.24" x2="196.56" y2="189.98" fill="none" stroke="#ebebe5" stroke-dasharray="0 0 7.05 2.02" stroke-miterlimit="10"/><polyline points="196.56 188.97 196.56 185.47 193.06 185.47" fill="none" stroke="#ebebe5" stroke-miterlimit="10"/><line x1="191.14" y1="185.47" x2="166.09" y2="185.47" fill="none" stroke="#ebebe5" stroke-dasharray="0 0 6.74 1.93" stroke-miterlimit="10"/><polyline points="165.12 185.47 161.62 185.47 161.62 188.97" fill="none" stroke="#ebebe5" stroke-miterlimit="10"/><line x1="161.62" y1="190.99" x2="161.62" y2="226.25" fill="none" stroke="#ebebe5" stroke-dasharray="0 0 7.05 2.02" stroke-miterlimit="10"/></g></g><g mix-blend-mode="multiply"><g><polyline points="447.75 184.24 447.75 180.74 444.25 180.74" fill="none" stroke="#ebebe5" stroke-miterlimit="10"/><line x1="442.24" y1="180.74" x2="289.73" y2="180.74" fill="none" stroke="#ebebe5" stroke-dasharray="0 0 7.02 2.01" stroke-miterlimit="10"/><polyline points="288.73 180.74 285.23 180.74 285.23 184.24" fill="none" stroke="#ebebe5" stroke-miterlimit="10"/><line x1="285.23" y1="186.37" x2="285.23" y2="252.16" fill="none" stroke="#ebebe5" stroke-dasharray="0 0 7.43 2.12" stroke-miterlimit="10"/><polyline points="285.23 253.22 285.23 256.72 288.73 256.72" fill="none" stroke="#ebebe5" stroke-miterlimit="10"/><line x1="290.73" y1="256.72" x2="443.25" y2="256.72" fill="none" stroke="#ebebe5" stroke-dasharray="0 0 7.02 2.01" stroke-miterlimit="10"/><polyline points="444.25 256.72 447.75 256.72 447.75 253.22" fill="none" stroke="#ebebe5" stroke-miterlimit="10"/><line x1="447.75" y1="251.1" x2="447.75" y2="185.31" fill="none" stroke="#ebebe5" stroke-dasharray="0 0 7.43 2.12" stroke-miterlimit="10"/></g></g><g mix-blend-mode="multiply"><g><polyline points="518.12 202.56 518.12 199.06 514.62 199.06" fill="none" stroke="#ebebe5" stroke-miterlimit="10"/><line x1="512.54" y1="199.06" x2="466.77" y2="199.06" fill="none" stroke="#ebebe5" stroke-dasharray="0 0 7.28 2.08" stroke-miterlimit="10"/><polyline points="465.73 199.06 462.23 199.06 462.23 202.56" fill="none" stroke="#ebebe5" stroke-miterlimit="10"/><line x1="462.23" y1="204.46" x2="462.23" y2="237.7" fill="none" stroke="#ebebe5" stroke-dasharray="0 0 6.65 1.9" stroke-miterlimit="10"/><polyline points="462.23 238.64 462.23 242.14 465.73 242.14" fill="none" stroke="#ebebe5" stroke-miterlimit="10"/><line x1="467.81" y1="242.14" x2="513.58" y2="242.14" fill="none" stroke="#ebebe5" stroke-dasharray="0 0 7.28 2.08" stroke-miterlimit="10"/><polyline points="514.62 242.14 518.12 242.14 518.12 238.64" fill="none" stroke="#ebebe5" stroke-miterlimit="10"/><line x1="518.12" y1="236.75" x2="518.12" y2="203.51" fill="none" stroke="#ebebe5" stroke-dasharray="0 0 6.65 1.9" stroke-miterlimit="10"/></g></g><g mix-blend-mode="multiply"><g><polyline points="451.79 28.27 451.79 24.77 448.29 24.77" fill="none" stroke="#ebebe5" stroke-miterlimit="10"/><line x1="446.42" y1="24.77" x2="405.19" y2="24.77" fill="none" stroke="#ebebe5" stroke-dasharray="0 0 6.56 1.87" stroke-miterlimit="10"/><polyline points="404.26 24.77 400.76 24.77 400.76 28.27" fill="none" stroke="#ebebe5" stroke-miterlimit="10"/><line x1="400.76" y1="30.37" x2="400.76" y2="86.09" fill="none" stroke="#ebebe5" stroke-dasharray="0 0 7.36 2.1" stroke-miterlimit="10"/><polyline points="400.76 87.14 400.76 90.64 404.26 90.64" fill="none" stroke="#ebebe5" stroke-miterlimit="10"/><line x1="406.13" y1="90.64" x2="447.36" y2="90.64" fill="none" stroke="#ebebe5" stroke-dasharray="0 0 6.56 1.87" stroke-miterlimit="10"/><polyline points="448.29 90.64 451.79 90.64 451.79 87.14" fill="none" stroke="#ebebe5" stroke-miterlimit="10"/><line x1="451.79" y1="85.04" x2="451.79" y2="29.32" fill="none" stroke="#ebebe5" stroke-dasharray="0 0 7.36 2.1" stroke-miterlimit="10"/></g></g></g><g id="f"><g><path d="M173.4,203.82h4.28v.7h-5.03v-7.96h.74v7.27Z" fill="#282727"/><path d="M179.22,196.56v1.1h-.7v-1.1h.7Zm0,2.09v5.88h-.7v-5.88h.7Z" fill="#282727"/><path d="M181.07,197.9c0-.98,.25-1.34,1.39-1.34h.49v.64h-.35c-.76,0-.84,.07-.84,.8v.65h1.19v.6h-1.19v5.28h-.7v-5.28h-.83v-.6h.83v-.74Zm3.18-.72h.7v1.46h1.19v.6h-1.19v3.72c0,.78,.02,.94,.83,.94h.36v.62h-.58c-1.07,0-1.31-.24-1.31-1.43v-3.85h-1v-.6h1v-1.46Z" fill="#282727"/><path d="M171.33,214.66c-.19-.67-.76-1.1-1.61-1.1-.59,0-1.48,.22-1.48,.95,0,.59,.44,.86,1.08,.98l.84,.16c.98,.18,2.03,.48,2.03,1.62s-1.08,1.8-2.36,1.8-2.19-.65-2.39-1.88l.72-.1c.17,.88,.8,1.37,1.73,1.37,.66,0,1.61-.28,1.61-1.08,0-.71-.62-.91-1.44-1.07l-.94-.18c-.86-.17-1.58-.64-1.58-1.57s.92-1.61,2.28-1.61c1.28,0,2.05,.76,2.23,1.62l-.72,.1Z" fill="#282727"/><path d="M174.25,214.05c.3-.58,.88-1.1,1.99-1.1,.72,0,1.24,.23,1.56,.62,.31,.38,.46,.94,.46,1.69v3.66h-.7v-3.48c0-.68-.12-1.13-.34-1.42-.25-.34-.65-.47-1.16-.47-1.03,0-1.81,.86-1.81,2.13v3.23h-.7v-7.96h.7v3.09Z" fill="#282727"/><path d="M179.54,214.76c.07-1.14,.98-1.81,2.34-1.81s2.21,.46,2.21,1.99c0,1.07-.01,1.58-.01,2.06,0,.68,.04,1.27,.07,1.92h-.7l-.05-.91c-.34,.61-.9,1.06-2.04,1.06-1.32,0-2.04-.82-2.04-1.83,0-.56,.25-1,.64-1.26,.56-.38,1.52-.5,2.25-.58l1.18-.12v-.35c0-1.19-.77-1.37-1.58-1.37-1.02,0-1.5,.52-1.55,1.22l-.72-.02Zm3.89,1.1l-1.28,.13c-1.43,.14-2.09,.46-2.09,1.26,0,.72,.58,1.2,1.44,1.2,1.04,0,1.93-.62,1.93-2.23v-.36Z" fill="#282727"/><path d="M185.76,212.3c0-.98,.25-1.34,1.39-1.34h.49v.64h-.35c-.76,0-.84,.07-.84,.8v.65h1.19v.6h-1.19v5.28h-.7v-5.28h-.83v-.6h.83v-.74Zm3.18-.72h.7v1.46h1.19v.6h-1.19v3.72c0,.78,.02,.94,.83,.94h.36v.62h-.58c-1.07,0-1.31-.24-1.31-1.43v-3.85h-1v-.6h1v-1.46Z" fill="#282727"/></g><g><path d="M483.69,209.01c1.61,0,2.72,.83,3.01,2.08l-.78,.08c-.28-.94-1.08-1.45-2.3-1.45-.82,0-1.96,.31-1.96,1.37,0,.82,.67,1.2,1.55,1.39l.96,.22c1.17,.26,2.72,.71,2.72,2.24s-1.42,2.33-2.99,2.33c-2.02,0-3.13-1.15-3.31-2.5l.78-.08c.28,1.28,1.19,1.87,2.5,1.87,.89,0,2.23-.29,2.23-1.5,0-.98-.97-1.39-2.09-1.64l-1.01-.23c-1.07-.24-2.12-.74-2.12-2.06,0-1.5,1.51-2.11,2.81-2.11Z" fill="#282727"/><path d="M490.47,211.15c1.39,0,2.71,.94,2.71,3.06s-1.32,3.06-2.71,3.06-2.71-.94-2.71-3.06,1.32-3.06,2.71-3.06Zm0,5.5c1.1,0,1.98-.79,1.98-2.45s-.88-2.45-1.98-2.45-1.98,.79-1.98,2.45,.88,2.45,1.98,2.45Z" fill="#282727"/><path d="M494.56,210.5c0-.98,.25-1.34,1.39-1.34h.49v.63h-.35c-.75,0-.84,.07-.84,.8v.65h1.19v.6h-1.19v5.28h-.7v-5.28h-.83v-.6h.83v-.74Zm3.18-.72h.7v1.46h1.19v.6h-1.19v3.72c0,.78,.02,.94,.83,.94h.36v.62h-.58c-1.07,0-1.31-.24-1.31-1.43v-3.85h-1v-.6h1v-1.46Z" fill="#282727"/><path d="M483.72,227.26c-.19-.67-.76-1.1-1.61-1.1-.59,0-1.48,.22-1.48,.95,0,.59,.44,.86,1.08,.98l.84,.16c.98,.18,2.03,.48,2.03,1.62s-1.08,1.8-2.36,1.8-2.19-.65-2.39-1.88l.72-.1c.17,.88,.8,1.37,1.73,1.37,.66,0,1.61-.28,1.61-1.08,0-.71-.62-.91-1.44-1.07l-.94-.18c-.86-.17-1.58-.64-1.58-1.57s.92-1.61,2.28-1.61c1.28,0,2.05,.75,2.23,1.62l-.72,.1Zm2.88,3.36c.37,.71,1.14,1.04,1.91,1.04,1.46,0,2.55-1.14,2.55-3.05s-1.06-3.07-2.43-3.07c-.89,0-1.61,.36-2.03,1.08v-.98h-.7v7.95h.7v-2.97Zm3.73-2c0,1.52-.74,2.43-1.85,2.43-.96,0-1.93-.73-1.93-2.43s1.02-2.46,1.93-2.46c1.12,0,1.85,.92,1.85,2.46Z" fill="#282727"/><path d="M494.61,225.55c1.39,0,2.71,.94,2.71,3.06s-1.32,3.06-2.71,3.06-2.71-.94-2.71-3.06,1.32-3.06,2.71-3.06Zm0,5.5c1.1,0,1.98-.79,1.98-2.45s-.88-2.45-1.98-2.45-1.98,.79-1.98,2.45,.88,2.45,1.98,2.45Z" fill="#282727"/><path d="M498.81,224.18h.7v1.46h1.19v.6h-1.19v3.72c0,.78,.02,.94,.83,.94h.36v.62h-.58c-1.07,0-1.31-.24-1.31-1.43v-3.85h-1v-.6h1v-1.46Z" fill="#282727"/></g><g><path d="M318.56,213.92c1.61,0,2.72,.83,3.01,2.07l-.78,.08c-.28-.94-1.08-1.45-2.3-1.45-.82,0-1.95,.31-1.95,1.37,0,.82,.67,1.2,1.55,1.39l.96,.22c1.18,.26,2.72,.71,2.72,2.24s-1.42,2.33-2.99,2.33c-2.02,0-3.13-1.15-3.31-2.49l.78-.08c.28,1.28,1.19,1.87,2.49,1.87,.89,0,2.23-.29,2.23-1.5,0-.98-.97-1.39-2.09-1.64l-1.01-.23c-1.07-.24-2.12-.74-2.12-2.06,0-1.5,1.51-2.11,2.81-2.11Z" fill="#282727"/><path d="M325.33,216.06c1.39,0,2.71,.94,2.71,3.06s-1.32,3.06-2.71,3.06-2.71-.94-2.71-3.06,1.32-3.06,2.71-3.06Zm0,5.5c1.1,0,1.98-.79,1.98-2.45s-.88-2.45-1.98-2.45-1.98,.79-1.98,2.45,.88,2.45,1.98,2.45Z" fill="#282727"/><path d="M329.43,215.41c0-.98,.25-1.34,1.39-1.34h.49v.64h-.35c-.76,0-.84,.07-.84,.8v.65h1.19v.6h-1.19v5.28h-.7v-5.28h-.83v-.6h.83v-.74Zm3.18-.72h.7v1.46h1.19v.6h-1.19v3.72c0,.78,.02,.94,.83,.94h.36v.62h-.58c-1.07,0-1.31-.24-1.31-1.43v-3.85h-1v-.6h1v-1.46Z" fill="#282727"/><path d="M341.92,217.77c-.19-.67-.76-1.1-1.61-1.1-.59,0-1.48,.22-1.48,.95,0,.59,.44,.86,1.08,.98l.84,.16c.98,.18,2.03,.48,2.03,1.62s-1.08,1.8-2.36,1.8-2.19-.65-2.39-1.88l.72-.1c.17,.88,.8,1.37,1.73,1.37,.66,0,1.61-.28,1.61-1.08,0-.71-.62-.91-1.44-1.07l-.94-.18c-.86-.17-1.58-.64-1.58-1.57s.92-1.61,2.28-1.61c1.28,0,2.05,.76,2.23,1.62l-.72,.1Zm2.88,3.36c.37,.71,1.14,1.04,1.91,1.04,1.46,0,2.55-1.14,2.55-3.05s-1.06-3.07-2.43-3.07c-.89,0-1.61,.36-2.03,1.08v-.98h-.7v7.95h.7v-2.97Zm3.73-2c0,1.52-.74,2.43-1.85,2.43-.96,0-1.93-.73-1.93-2.43s1.02-2.46,1.93-2.46c1.12,0,1.85,.92,1.85,2.46Z" fill="#282727"/><path d="M352.81,216.06c1.39,0,2.71,.94,2.71,3.06s-1.32,3.06-2.71,3.06-2.71-.94-2.71-3.06,1.32-3.06,2.71-3.06Zm0,5.5c1.1,0,1.98-.79,1.98-2.45s-.88-2.45-1.98-2.45-1.98,.79-1.98,2.45,.88,2.45,1.98,2.45Z" fill="#282727"/><path d="M357.02,214.69h.7v1.46h1.19v.6h-1.19v3.72c0,.78,.02,.94,.83,.94h.36v.62h-.58c-1.07,0-1.31-.24-1.31-1.43v-3.85h-1v-.6h1v-1.46Z" fill="#282727"/><path d="M362.91,215.41c0-.98,.25-1.34,1.39-1.34h.49v.64h-.35c-.76,0-.84,.07-.84,.8v.65h1.19v.6h-1.19v5.28h-.7v-5.28h-.83v-.6h.83v-.74Z" fill="#282727"/><path d="M367.91,216.06c1.39,0,2.71,.94,2.71,3.06s-1.32,3.06-2.71,3.06-2.71-.94-2.71-3.06,1.32-3.06,2.71-3.06Zm0,5.5c1.1,0,1.98-.79,1.98-2.45s-.88-2.45-1.98-2.45-1.98,.79-1.98,2.45,.88,2.45,1.98,2.45Z" fill="#282727"/><path d="M374.35,216.86c-.11-.01-.22-.01-.31-.01-1.24,0-1.52,.89-1.52,2.16v3.02h-.68v-5.88h.66v1.01c.26-.71,.94-1.06,1.66-1.06,.06,0,.13,0,.2,.01v.74Z" fill="#282727"/><path d="M381.54,217.77c-.19-.67-.76-1.1-1.61-1.1-.59,0-1.48,.22-1.48,.95,0,.59,.44,.86,1.08,.98l.84,.16c.98,.18,2.03,.48,2.03,1.62s-1.08,1.8-2.36,1.8-2.19-.65-2.39-1.88l.72-.1c.17,.88,.8,1.37,1.73,1.37,.66,0,1.61-.28,1.61-1.08,0-.71-.62-.91-1.44-1.07l-.94-.18c-.86-.17-1.58-.64-1.58-1.57s.92-1.61,2.28-1.61c1.28,0,2.05,.76,2.23,1.62l-.72,.1Zm2.46-3.08h.7v1.46h1.19v.6h-1.19v3.72c0,.78,.02,.94,.83,.94h.36v.62h-.58c-1.07,0-1.31-.24-1.31-1.43v-3.85h-1v-.6h1v-1.46Z" fill="#282727"/><path d="M386.87,217.87c.07-1.14,.98-1.81,2.34-1.81s2.21,.46,2.21,1.99c0,1.07-.01,1.58-.01,2.06,0,.68,.04,1.27,.07,1.92h-.7l-.05-.91c-.34,.61-.9,1.06-2.04,1.06-1.32,0-2.04-.82-2.04-1.83,0-.56,.25-1,.64-1.26,.56-.38,1.52-.5,2.25-.58l1.18-.12v-.35c0-1.19-.77-1.37-1.58-1.37-1.02,0-1.5,.52-1.55,1.22l-.72-.02Zm3.89,1.1l-1.28,.13c-1.43,.14-2.09,.46-2.09,1.26,0,.72,.58,1.2,1.44,1.2,1.04,0,1.93-.62,1.93-2.23v-.36Z" fill="#282727"/><path d="M393.61,214.07v1.1h-.7v-1.1h.7Zm0,2.09v5.88h-.7v-5.88h.7Z" fill="#282727"/><path d="M397.81,216.86c-.11-.01-.22-.01-.31-.01-1.24,0-1.52,.89-1.52,2.16v3.02h-.68v-5.88h.66v1.01c.26-.71,.94-1.06,1.66-1.06,.06,0,.13,0,.2,.01v.74Z" fill="#282727"/><path d="M403.36,217.93l-.72,.1c-.22-.9-.9-1.34-1.77-1.34-1.03,0-1.94,.83-1.94,2.42s.91,2.45,1.95,2.45,1.64-.6,1.81-1.34l.72,.1c-.24,1.13-1.21,1.87-2.55,1.87-1.7,0-2.66-1.27-2.66-3.06s1-3.06,2.75-3.06c1.36,0,2.24,.9,2.42,1.87Z" fill="#282727"/><path d="M404.27,217.87c.07-1.14,.98-1.81,2.34-1.81s2.21,.46,2.21,1.99c0,1.07-.01,1.58-.01,2.06,0,.68,.04,1.27,.07,1.92h-.7l-.05-.91c-.34,.61-.9,1.06-2.04,1.06-1.32,0-2.04-.82-2.04-1.83,0-.56,.25-1,.64-1.26,.56-.38,1.52-.5,2.25-.58l1.18-.12v-.35c0-1.19-.77-1.37-1.58-1.37-1.02,0-1.5,.52-1.55,1.22l-.72-.02Zm3.89,1.1l-1.28,.13c-1.43,.14-2.09,.46-2.09,1.26,0,.72,.58,1.2,1.44,1.2,1.04,0,1.93-.62,1.93-2.23v-.36Z" fill="#282727"/><path d="M413.81,217.77c-.19-.67-.76-1.1-1.61-1.1-.59,0-1.48,.22-1.48,.95,0,.59,.44,.86,1.08,.98l.84,.16c.98,.18,2.03,.48,2.03,1.62s-1.08,1.8-2.36,1.8-2.19-.65-2.39-1.88l.72-.1c.17,.88,.8,1.37,1.73,1.37,.66,0,1.61-.28,1.61-1.08,0-.71-.62-.91-1.44-1.07l-.94-.18c-.86-.17-1.58-.64-1.58-1.57s.92-1.61,2.28-1.61c1.28,0,2.05,.76,2.23,1.62l-.72,.1Z" fill="#282727"/><path d="M415.56,219.12c0-1.9,1.18-3.06,2.79-3.06,1.7,0,2.75,1.33,2.65,3.2h-4.73c0,1.42,.88,2.29,2.1,2.29,.94,0,1.62-.49,1.85-1.32l.72,.1c-.28,1.15-1.3,1.85-2.62,1.85-1.76,0-2.77-1.26-2.77-3.06Zm.73-.46h3.96c0-1.02-.7-2-1.91-2-1.1,0-1.94,.72-2.05,2Z" fill="#282727"/></g><g><path d="M571.14,39.17c2.57,0,4.62,.88,4.62,3.98s-2.05,3.98-4.62,3.98h-1.61v-7.96h1.61Zm-.02,.7h-.84v6.57h.84c1.83,0,3.85-.3,3.85-3.29s-2.01-3.29-3.85-3.29Z" fill="#e4bcb1"/><path d="M576.51,44.22c0-1.9,1.18-3.06,2.79-3.06,1.7,0,2.75,1.33,2.65,3.2h-4.73c0,1.42,.88,2.29,2.1,2.29,.94,0,1.62-.49,1.85-1.32l.72,.1c-.28,1.15-1.3,1.85-2.62,1.85-1.76,0-2.77-1.26-2.77-3.06Zm.73-.46h3.96c0-1.02-.7-2-1.91-2-1.1,0-1.94,.72-2.05,2Z" fill="#e4bcb1"/><path d="M587.91,47.14h-.68v-.94c-.43,.72-1.15,1.08-2.04,1.08-1.38,0-2.44-1.14-2.44-3.07s1.09-3.05,2.55-3.05c.77,0,1.54,.34,1.91,1.04v-3.03h.7v7.96Zm-.65-2.93c0-1.7-.97-2.43-1.93-2.43-1.1,0-1.85,.91-1.85,2.43s.73,2.46,1.85,2.46c.91,0,1.93-.76,1.93-2.46Z" fill="#e4bcb1"/><path d="M590.29,39.17v1.1h-.7v-1.1h.7Zm0,2.09v5.88h-.7v-5.88h.7Z" fill="#e4bcb1"/><path d="M596.67,43.03l-.72,.1c-.22-.9-.9-1.34-1.77-1.34-1.03,0-1.94,.83-1.94,2.42s.91,2.45,1.96,2.45,1.64-.6,1.81-1.34l.72,.1c-.24,1.13-1.21,1.87-2.55,1.87-1.7,0-2.66-1.27-2.66-3.06s1-3.06,2.75-3.06c1.36,0,2.24,.9,2.42,1.87Z" fill="#e4bcb1"/><path d="M597.59,42.97c.07-1.14,.98-1.81,2.34-1.81s2.21,.46,2.21,1.99c0,1.07-.01,1.58-.01,2.06,0,.68,.04,1.27,.07,1.92h-.7l-.05-.91c-.33,.61-.9,1.06-2.04,1.06-1.32,0-2.04-.82-2.04-1.83,0-.56,.25-1,.64-1.26,.56-.38,1.52-.5,2.25-.58l1.17-.12v-.35c0-1.19-.77-1.37-1.58-1.37-1.02,0-1.5,.52-1.55,1.22l-.72-.02Zm3.89,1.1l-1.28,.13c-1.43,.14-2.09,.46-2.09,1.26,0,.72,.58,1.2,1.44,1.2,1.04,0,1.93-.62,1.93-2.23v-.36Z" fill="#e4bcb1"/><path d="M603.91,39.8h.7v1.46h1.19v.6h-1.19v3.72c0,.78,.02,.94,.83,.94h.36v.62h-.58c-1.07,0-1.31-.24-1.31-1.43v-3.85h-1v-.6h1v-1.46Z" fill="#e4bcb1"/><path d="M606.53,44.22c0-1.9,1.18-3.06,2.79-3.06,1.7,0,2.75,1.33,2.65,3.2h-4.73c0,1.42,.88,2.29,2.1,2.29,.94,0,1.62-.49,1.85-1.32l.72,.1c-.28,1.15-1.3,1.85-2.62,1.85-1.76,0-2.77-1.26-2.77-3.06Zm.73-.46h3.96c0-1.02-.7-2-1.91-2-1.1,0-1.94,.72-2.05,2Z" fill="#e4bcb1"/><path d="M617.92,47.14h-.68v-.94c-.43,.72-1.15,1.08-2.04,1.08-1.38,0-2.43-1.14-2.43-3.07s1.09-3.05,2.55-3.05c.77,0,1.54,.34,1.91,1.04v-3.03h.7v7.96Zm-.65-2.93c0-1.7-.97-2.43-1.93-2.43-1.1,0-1.85,.91-1.85,2.43s.73,2.46,1.85,2.46c.91,0,1.93-.76,1.93-2.46Z" fill="#e4bcb1"/><path d="M621.78,44.22c0-1.9,1.18-3.06,2.79-3.06,1.7,0,2.75,1.33,2.65,3.2h-4.73c0,1.42,.88,2.29,2.1,2.29,.94,0,1.62-.49,1.85-1.32l.72,.1c-.28,1.15-1.29,1.85-2.61,1.85-1.76,0-2.77-1.26-2.77-3.06Zm.73-.46h3.96c0-1.02-.7-2-1.91-2-1.1,0-1.94,.72-2.05,2Z" fill="#e4bcb1"/><path d="M630.52,44.09l2.22,3.05h-.82l-1.81-2.47-1.79,2.47h-.8l2.2-3.02-2.08-2.85h.83l1.66,2.29,1.67-2.29h.78l-2.05,2.83Z" fill="#e4bcb1"/><path d="M633.92,39.8h.7v1.46h1.19v.6h-1.19v3.72c0,.78,.02,.94,.83,.94h.36v.62h-.58c-1.07,0-1.31-.24-1.31-1.43v-3.85h-1v-.6h1v-1.46Z" fill="#e4bcb1"/><path d="M636.54,44.22c0-1.9,1.18-3.06,2.79-3.06,1.7,0,2.75,1.33,2.65,3.2h-4.73c0,1.42,.88,2.29,2.1,2.29,.94,0,1.62-.49,1.85-1.32l.72,.1c-.28,1.15-1.3,1.85-2.62,1.85-1.76,0-2.77-1.26-2.77-3.06Zm.73-.46h3.96c0-1.02-.7-2-1.91-2-1.1,0-1.94,.72-2.05,2Z" fill="#e4bcb1"/><path d="M645.71,41.97c-.11-.01-.22-.01-.31-.01-1.24,0-1.52,.89-1.52,2.16v3.02h-.68v-5.88h.66v1.01c.26-.71,.94-1.06,1.66-1.06,.06,0,.13,0,.2,.01v.74Z" fill="#e4bcb1"/><path d="M647.36,42.27c.3-.58,.88-1.1,1.99-1.1,.72,0,1.24,.23,1.56,.62,.31,.38,.46,.94,.46,1.69v3.66h-.7v-3.48c0-.68-.12-1.13-.34-1.42-.25-.34-.65-.47-1.16-.47-1.03,0-1.81,.86-1.81,2.13v3.23h-.7v-5.88h.7v1.01Z" fill="#e4bcb1"/><path d="M652.65,42.97c.07-1.14,.98-1.81,2.34-1.81s2.21,.46,2.21,1.99c0,1.07-.01,1.58-.01,2.06,0,.68,.04,1.27,.07,1.92h-.7l-.05-.91c-.33,.61-.9,1.06-2.04,1.06-1.32,0-2.04-.82-2.04-1.83,0-.56,.25-1,.64-1.26,.56-.38,1.52-.5,2.25-.58l1.17-.12v-.35c0-1.19-.77-1.37-1.58-1.37-1.02,0-1.5,.52-1.55,1.22l-.72-.02Zm3.89,1.1l-1.28,.13c-1.43,.14-2.09,.46-2.09,1.26,0,.72,.58,1.2,1.44,1.2,1.04,0,1.93-.62,1.93-2.23v-.36Z" fill="#e4bcb1"/><path d="M659.4,47.14h-.7v-7.96h.7v7.96Z" fill="#e4bcb1"/><path d="M664.41,49.21h-.7v-7.95h.68v.98c.43-.72,1.15-1.08,2.04-1.08,1.38,0,2.43,1.14,2.43,3.07s-1.09,3.05-2.55,3.05c-.77,0-1.54-.34-1.91-1.04v2.97Zm-.05-4.98c0,1.7,.97,2.43,1.93,2.43,1.1,0,1.85-.91,1.85-2.43s-.73-2.46-1.85-2.46c-.91,0-1.93,.76-1.93,2.46Z" fill="#e4bcb1"/><path d="M670.79,47.14h-.7v-7.96h.7v7.96Z" fill="#e4bcb1"/><path d="M672.25,42.97c.07-1.14,.98-1.81,2.34-1.81s2.21,.46,2.21,1.99c0,1.07-.01,1.58-.01,2.06,0,.68,.04,1.27,.07,1.92h-.7l-.05-.91c-.33,.61-.9,1.06-2.04,1.06-1.32,0-2.04-.82-2.04-1.83,0-.56,.25-1,.64-1.26,.56-.38,1.52-.5,2.25-.58l1.17-.12v-.35c0-1.19-.77-1.37-1.58-1.37-1.02,0-1.5,.52-1.55,1.22l-.72-.02Zm3.89,1.1l-1.28,.13c-1.43,.14-2.09,.46-2.09,1.26,0,.72,.58,1.2,1.44,1.2,1.04,0,1.93-.62,1.93-2.23v-.36Z" fill="#e4bcb1"/><path d="M678.99,42.27c.3-.58,.88-1.1,1.99-1.1,.72,0,1.24,.23,1.56,.62,.31,.38,.46,.94,.46,1.69v3.66h-.7v-3.48c0-.68-.12-1.13-.33-1.42-.25-.34-.65-.47-1.16-.47-1.03,0-1.81,.86-1.81,2.13v3.23h-.7v-5.88h.7v1.01Z" fill="#e4bcb1"/><path d="M684.78,39.8h.7v1.46h1.19v.6h-1.19v3.72c0,.78,.02,.94,.83,.94h.36v.62h-.58c-1.07,0-1.31-.24-1.31-1.43v-3.85h-1v-.6h1v-1.46Z" fill="#e4bcb1"/><path d="M694.09,42.88c-.19-.67-.76-1.1-1.61-1.1-.59,0-1.48,.22-1.48,.95,0,.59,.44,.86,1.08,.98l.84,.16c.98,.18,2.03,.48,2.03,1.62s-1.08,1.8-2.36,1.8-2.19-.65-2.39-1.88l.72-.1c.17,.88,.8,1.37,1.73,1.37,.66,0,1.61-.28,1.61-1.08,0-.71-.62-.91-1.44-1.07l-.94-.18c-.86-.17-1.58-.64-1.58-1.57s.92-1.61,2.28-1.61c1.28,0,2.05,.76,2.23,1.62l-.72,.1Zm2.88,3.36c.37,.71,1.14,1.04,1.91,1.04,1.46,0,2.55-1.14,2.55-3.05s-1.06-3.07-2.43-3.07c-.89,0-1.61,.36-2.03,1.08v-.98h-.7v7.95h.7v-2.97Zm3.73-2c0,1.52-.74,2.43-1.85,2.43-.96,0-1.93-.73-1.93-2.43s1.02-2.46,1.93-2.46c1.12,0,1.85,.92,1.85,2.46Z" fill="#e4bcb1"/><path d="M702.43,42.97c.07-1.14,.98-1.81,2.34-1.81s2.21,.46,2.21,1.99c0,1.07-.01,1.58-.01,2.06,0,.68,.04,1.27,.07,1.92h-.7l-.05-.91c-.34,.61-.9,1.06-2.04,1.06-1.32,0-2.04-.82-2.04-1.83,0-.56,.25-1,.64-1.26,.56-.38,1.52-.5,2.25-.58l1.18-.12v-.35c0-1.19-.77-1.37-1.58-1.37-1.02,0-1.5,.52-1.55,1.22l-.72-.02Zm3.89,1.1l-1.28,.13c-1.43,.14-2.09,.46-2.09,1.26,0,.72,.58,1.2,1.44,1.2,1.04,0,1.93-.62,1.93-2.23v-.36Z" fill="#e4bcb1"/><path d="M713.18,43.03l-.72,.1c-.22-.9-.9-1.34-1.78-1.34-1.03,0-1.94,.83-1.94,2.42s.91,2.45,1.95,2.45,1.64-.6,1.81-1.34l.72,.1c-.24,1.13-1.21,1.87-2.55,1.87-1.7,0-2.66-1.27-2.66-3.06s1-3.06,2.75-3.06c1.36,0,2.24,.9,2.42,1.87Z" fill="#e4bcb1"/><path d="M713.9,44.22c0-1.9,1.18-3.06,2.79-3.06,1.7,0,2.75,1.33,2.65,3.2h-4.73c0,1.42,.88,2.29,2.1,2.29,.94,0,1.62-.49,1.85-1.32l.72,.1c-.28,1.15-1.29,1.85-2.61,1.85-1.76,0-2.77-1.26-2.77-3.06Zm.73-.46h3.96c0-1.02-.7-2-1.91-2-1.1,0-1.94,.72-2.05,2Z" fill="#e4bcb1"/></g><rect x="882.99" y="100.77" width="65.23" height="19.67" fill="#282727"/><g><path d="M899.29,112.42c-.35,1.5-1.54,2.47-3.38,2.47-2.32,0-3.59-1.69-3.59-4.13s1.32-4.13,3.62-4.13c1.76,0,2.96,.95,3.31,2.47l-.78,.11c-.32-1.33-1.4-1.87-2.55-1.87-1.59,0-2.81,1.19-2.81,3.42s1.15,3.42,2.81,3.42c1.49,0,2.36-.85,2.59-1.87l.78,.11Z" fill="#e4bcb1"/><path d="M902.61,108.78c1.39,0,2.71,.94,2.71,3.06s-1.32,3.06-2.71,3.06-2.71-.94-2.71-3.06,1.32-3.06,2.71-3.06Zm0,5.5c1.1,0,1.98-.79,1.98-2.45s-.88-2.45-1.98-2.45-1.98,.79-1.98,2.45,.88,2.45,1.98,2.45Z" fill="#e4bcb1"/><path d="M910.26,113.79c-.3,.56-.83,1.1-1.92,1.1-.66,0-1.12-.19-1.43-.53-.35-.38-.5-.98-.5-1.81v-3.68h.7v3.54c0,.73,.12,1.2,.36,1.49,.23,.28,.56,.4,.98,.4,1.02,0,1.81-.85,1.81-2.13v-3.29h.7v5.88h-.7v-.96Z" fill="#e4bcb1"/><path d="M915.16,109.58c-.11-.01-.22-.01-.31-.01-1.24,0-1.52,.89-1.52,2.16v3.02h-.68v-5.88h.66v1.01c.26-.71,.94-1.06,1.66-1.06,.06,0,.13,0,.2,.01v.74Z" fill="#e4bcb1"/><path d="M916.4,107.41h.7v1.46h1.19v.6h-1.19v3.72c0,.78,.02,.94,.83,.94h.36v.62h-.58c-1.07,0-1.31-.24-1.31-1.43v-3.85h-1v-.6h1v-1.46Z" fill="#e4bcb1"/><path d="M919.19,116.83v-.61h.4c.56,0,.85-.14,1.16-.98l.18-.48-2.29-5.88h.78l1.86,4.92,1.81-4.92h.74l-2.46,6.48c-.44,1.16-.72,1.48-1.8,1.48h-.38Z" fill="#e4bcb1"/><path d="M924.39,110.59c.07-1.14,.98-1.81,2.34-1.81s2.21,.46,2.21,1.99c0,1.07-.01,1.58-.01,2.06,0,.68,.04,1.27,.07,1.92h-.7l-.05-.91c-.33,.61-.9,1.06-2.04,1.06-1.32,0-2.04-.82-2.04-1.83,0-.56,.25-1,.64-1.26,.56-.38,1.52-.5,2.25-.58l1.17-.12v-.35c0-1.19-.77-1.37-1.58-1.37-1.02,0-1.5,.52-1.55,1.22l-.72-.02Zm3.89,1.1l-1.28,.13c-1.43,.14-2.09,.46-2.09,1.26,0,.72,.58,1.2,1.44,1.2,1.04,0,1.93-.62,1.93-2.23v-.36Z" fill="#e4bcb1"/><path d="M932.96,109.58c-.11-.01-.22-.01-.31-.01-1.24,0-1.52,.89-1.52,2.16v3.02h-.68v-5.88h.66v1.01c.26-.71,.94-1.06,1.66-1.06,.06,0,.13,0,.2,.01v.74Z" fill="#e4bcb1"/><path d="M938.49,114.75h-.68v-.94c-.43,.72-1.15,1.08-2.04,1.08-1.38,0-2.44-1.14-2.44-3.07s1.09-3.05,2.55-3.05c.77,0,1.54,.34,1.91,1.04v-3.03h.7v7.96Zm-.65-2.93c0-1.7-.97-2.43-1.93-2.43-1.1,0-1.85,.91-1.85,2.43s.73,2.46,1.85,2.46c.91,0,1.93-.76,1.93-2.46Z" fill="#e4bcb1"/></g><g><path d="M419.79,45.28c1.61,0,2.72,.83,3.01,2.07l-.78,.08c-.28-.94-1.08-1.45-2.3-1.45-.82,0-1.95,.31-1.95,1.37,0,.82,.67,1.2,1.55,1.39l.96,.22c1.18,.26,2.72,.71,2.72,2.24s-1.42,2.33-2.99,2.33c-2.02,0-3.13-1.15-3.31-2.49l.78-.08c.28,1.28,1.19,1.87,2.5,1.87,.89,0,2.23-.29,2.23-1.5,0-.98-.97-1.39-2.09-1.64l-1.01-.23c-1.07-.24-2.12-.74-2.12-2.06,0-1.5,1.51-2.11,2.81-2.11Z" fill="#282727"/><path d="M426.57,47.42c1.39,0,2.71,.94,2.71,3.06s-1.32,3.06-2.71,3.06-2.71-.94-2.71-3.06,1.32-3.06,2.71-3.06Zm0,5.5c1.1,0,1.98-.79,1.98-2.45s-.88-2.45-1.98-2.45-1.98,.79-1.98,2.45,.88,2.45,1.98,2.45Z" fill="#282727"/><path d="M430.66,46.77c0-.98,.25-1.34,1.39-1.34h.49v.64h-.35c-.75,0-.84,.07-.84,.8v.65h1.19v.6h-1.19v5.28h-.7v-5.28h-.83v-.6h.83v-.74Zm3.18-.72h.7v1.46h1.19v.6h-1.19v3.72c0,.78,.02,.94,.83,.94h.36v.62h-.58c-1.07,0-1.31-.24-1.31-1.43v-3.85h-1v-.6h1v-1.46Z" fill="#282727"/><path d="M419.82,63.53c-.19-.67-.76-1.1-1.61-1.1-.59,0-1.48,.22-1.48,.95,0,.59,.44,.86,1.08,.98l.84,.16c.98,.18,2.03,.48,2.03,1.62s-1.08,1.8-2.36,1.8-2.2-.65-2.39-1.88l.72-.1c.17,.88,.8,1.37,1.73,1.37,.66,0,1.61-.28,1.61-1.08,0-.71-.62-.91-1.44-1.07l-.94-.18c-.86-.17-1.58-.64-1.58-1.57s.92-1.61,2.28-1.61c1.28,0,2.05,.76,2.23,1.62l-.72,.1Zm2.88,3.36c.37,.71,1.14,1.04,1.91,1.04,1.46,0,2.55-1.14,2.55-3.05s-1.06-3.07-2.43-3.07c-.89,0-1.61,.36-2.03,1.08v-.98h-.7v7.95h.7v-2.97Zm3.73-2c0,1.52-.74,2.43-1.85,2.43-.96,0-1.93-.73-1.93-2.43s1.02-2.46,1.93-2.46c1.12,0,1.85,.92,1.85,2.46Z" fill="#282727"/><path d="M430.71,61.82c1.39,0,2.71,.94,2.71,3.06s-1.32,3.06-2.71,3.06-2.71-.94-2.71-3.06,1.32-3.06,2.71-3.06Zm0,5.5c1.1,0,1.98-.79,1.98-2.45s-.88-2.45-1.98-2.45-1.98,.79-1.98,2.45,.88,2.45,1.98,2.45Z" fill="#282727"/><path d="M434.91,60.45h.7v1.46h1.19v.6h-1.19v3.72c0,.78,.02,.94,.83,.94h.36v.62h-.58c-1.07,0-1.31-.24-1.31-1.43v-3.85h-.99v-.6h.99v-1.46Z" fill="#282727"/></g><g><path d="M196.13,52.48c1.61,0,2.72,.83,3.01,2.07l-.78,.08c-.28-.94-1.08-1.45-2.3-1.45-.82,0-1.95,.31-1.95,1.37,0,.82,.67,1.2,1.55,1.39l.96,.22c1.18,.26,2.72,.71,2.72,2.24s-1.42,2.33-2.99,2.33c-2.02,0-3.13-1.15-3.31-2.49l.78-.08c.28,1.28,1.19,1.87,2.49,1.87,.89,0,2.23-.29,2.23-1.5,0-.98-.97-1.39-2.09-1.64l-1.01-.23c-1.07-.24-2.12-.74-2.12-2.06,0-1.5,1.51-2.11,2.81-2.11Z" fill="#282727"/><path d="M202.91,54.62c1.39,0,2.71,.94,2.71,3.06s-1.32,3.06-2.71,3.06-2.71-.94-2.71-3.06,1.32-3.06,2.71-3.06Zm0,5.5c1.1,0,1.98-.79,1.98-2.45s-.88-2.45-1.98-2.45-1.98,.79-1.98,2.45,.88,2.45,1.98,2.45Z" fill="#282727"/><path d="M207.01,53.97c0-.98,.25-1.34,1.39-1.34h.49v.64h-.35c-.76,0-.84,.07-.84,.8v.65h1.19v.6h-1.19v5.28h-.7v-5.28h-.83v-.6h.83v-.74Zm3.18-.72h.7v1.46h1.19v.6h-1.19v3.72c0,.78,.02,.94,.83,.94h.36v.62h-.58c-1.07,0-1.31-.24-1.31-1.43v-3.85h-1v-.6h1v-1.46Z" fill="#282727"/><path d="M219.5,56.33c-.19-.67-.76-1.1-1.61-1.1-.59,0-1.48,.22-1.48,.95,0,.59,.44,.86,1.08,.98l.84,.16c.98,.18,2.03,.48,2.03,1.62s-1.08,1.8-2.36,1.8-2.19-.65-2.39-1.88l.72-.1c.17,.88,.8,1.37,1.73,1.37,.66,0,1.61-.28,1.61-1.08,0-.71-.62-.91-1.44-1.07l-.94-.18c-.86-.17-1.58-.64-1.58-1.57s.92-1.61,2.28-1.61c1.28,0,2.05,.76,2.23,1.62l-.72,.1Zm2.88,3.36c.37,.71,1.14,1.04,1.91,1.04,1.46,0,2.55-1.14,2.55-3.05s-1.06-3.07-2.43-3.07c-.89,0-1.61,.36-2.03,1.08v-.98h-.7v7.95h.7v-2.97Zm3.73-2c0,1.52-.74,2.43-1.85,2.43-.96,0-1.93-.73-1.93-2.43s1.02-2.46,1.93-2.46c1.12,0,1.85,.92,1.85,2.46Z" fill="#282727"/><path d="M230.39,54.62c1.39,0,2.71,.94,2.71,3.06s-1.32,3.06-2.71,3.06-2.71-.94-2.71-3.06,1.32-3.06,2.71-3.06Zm0,5.5c1.1,0,1.98-.79,1.98-2.45s-.88-2.45-1.98-2.45-1.98,.79-1.98,2.45,.88,2.45,1.98,2.45Z" fill="#282727"/><path d="M234.59,53.25h.7v1.46h1.19v.6h-1.19v3.72c0,.78,.02,.94,.83,.94h.36v.62h-.58c-1.07,0-1.31-.24-1.31-1.43v-3.85h-1v-.6h1v-1.46Z" fill="#282727"/></g><g><path d="M302.57,45.28c1.61,0,2.72,.83,3.01,2.07l-.78,.08c-.28-.94-1.08-1.45-2.3-1.45-.82,0-1.95,.31-1.95,1.37,0,.82,.67,1.2,1.55,1.39l.96,.22c1.18,.26,2.72,.71,2.72,2.24s-1.42,2.33-2.99,2.33c-2.02,0-3.13-1.15-3.31-2.49l.78-.08c.28,1.28,1.19,1.87,2.49,1.87,.89,0,2.23-.29,2.23-1.5,0-.98-.97-1.39-2.09-1.64l-1.01-.23c-1.07-.24-2.12-.74-2.12-2.06,0-1.5,1.51-2.11,2.81-2.11Z" fill="#282727"/><path d="M307.56,48.52c.3-.58,.88-1.1,1.99-1.1,.72,0,1.24,.23,1.56,.62,.31,.38,.46,.94,.46,1.69v3.66h-.7v-3.48c0-.68-.12-1.13-.34-1.42-.25-.34-.65-.47-1.16-.47-1.03,0-1.81,.86-1.81,2.13v3.23h-.7v-7.96h.7v3.09Z" fill="#282727"/><path d="M312.85,49.23c.07-1.14,.98-1.81,2.34-1.81s2.21,.46,2.21,1.99c0,1.07-.01,1.58-.01,2.06,0,.68,.04,1.27,.07,1.92h-.7l-.05-.91c-.34,.61-.9,1.06-2.04,1.06-1.32,0-2.04-.82-2.04-1.83,0-.56,.25-1,.64-1.26,.56-.38,1.52-.5,2.25-.58l1.18-.12v-.35c0-1.19-.77-1.37-1.58-1.37-1.02,0-1.5,.52-1.55,1.22l-.72-.02Zm3.89,1.1l-1.28,.13c-1.43,.14-2.09,.46-2.09,1.26,0,.72,.58,1.2,1.44,1.2,1.04,0,1.93-.62,1.93-2.23v-.36Z" fill="#282727"/><path d="M319.07,46.77c0-.98,.25-1.34,1.39-1.34h.49v.64h-.35c-.76,0-.84,.07-.84,.8v.65h1.19v.6h-1.19v5.28h-.7v-5.28h-.83v-.6h.83v-.74Zm3.18-.72h.7v1.46h1.19v.6h-1.19v3.72c0,.78,.02,.94,.83,.94h.36v.62h-.58c-1.07,0-1.31-.24-1.31-1.43v-3.85h-1v-.6h1v-1.46Z" fill="#282727"/><path d="M328.14,46.77c0-.98,.25-1.34,1.39-1.34h.49v.64h-.35c-.76,0-.84,.07-.84,.8v.65h1.19v.6h-1.19v5.28h-.7v-5.28h-.83v-.6h.83v-.74Z" fill="#282727"/><path d="M333.14,47.42c1.39,0,2.71,.94,2.71,3.06s-1.32,3.06-2.71,3.06-2.71-.94-2.71-3.06,1.32-3.06,2.71-3.06Zm0,5.5c1.1,0,1.98-.79,1.98-2.45s-.88-2.45-1.98-2.45-1.98,.79-1.98,2.45,.88,2.45,1.98,2.45Z" fill="#282727"/><path d="M339.59,48.22c-.11-.01-.22-.01-.31-.01-1.24,0-1.52,.89-1.52,2.16v3.02h-.68v-5.88h.66v1.01c.26-.71,.94-1.06,1.66-1.06,.06,0,.13,0,.2,.01v.74Z" fill="#282727"/><path d="M343.88,48.52c.3-.58,.88-1.1,1.99-1.1,.72,0,1.24,.23,1.56,.62,.31,.38,.46,.94,.46,1.69v3.66h-.7v-3.48c0-.68-.12-1.13-.34-1.42-.25-.34-.65-.47-1.16-.47-1.03,0-1.81,.86-1.81,2.13v3.23h-.7v-7.96h.7v3.09Z" fill="#282727"/><path d="M351.64,47.42c1.39,0,2.71,.94,2.71,3.06s-1.32,3.06-2.71,3.06-2.71-.94-2.71-3.06,1.32-3.06,2.71-3.06Zm0,5.5c1.1,0,1.98-.79,1.98-2.45s-.88-2.45-1.98-2.45-1.98,.79-1.98,2.45,.88,2.45,1.98,2.45Z" fill="#282727"/><path d="M356.26,45.43v1.1h-.7v-1.1h.7Zm0,2.09v5.88h-.7v-5.88h.7Z" fill="#282727"/><path d="M361.52,49.13c-.19-.67-.76-1.1-1.61-1.1-.59,0-1.48,.22-1.48,.95,0,.59,.44,.86,1.08,.98l.84,.16c.98,.18,2.03,.48,2.03,1.62s-1.08,1.8-2.36,1.8-2.19-.65-2.39-1.88l.72-.1c.17,.88,.8,1.37,1.73,1.37,.66,0,1.61-.28,1.61-1.08,0-.71-.62-.91-1.44-1.07l-.94-.18c-.86-.17-1.58-.64-1.58-1.57s.92-1.61,2.28-1.61c1.28,0,2.05,.76,2.23,1.62l-.72,.1Zm2.46-3.08h.7v1.46h1.19v.6h-1.19v3.72c0,.78,.02,.94,.83,.94h.36v.62h-.58c-1.07,0-1.31-.24-1.31-1.43v-3.85h-1v-.6h1v-1.46Z" fill="#282727"/><path d="M308.62,61.82c1.39,0,2.71,.94,2.71,3.06s-1.32,3.06-2.71,3.06-2.71-.94-2.71-3.06,1.32-3.06,2.71-3.06Zm0,5.5c1.1,0,1.98-.79,1.98-2.45s-.88-2.45-1.98-2.45-1.98,.79-1.98,2.45,.88,2.45,1.98,2.45Z" fill="#282727"/><path d="M315.06,62.62c-.11-.01-.22-.01-.31-.01-1.24,0-1.52,.89-1.52,2.16v3.02h-.68v-5.88h.66v1.01c.26-.71,.94-1.06,1.66-1.06,.06,0,.13,0,.2,.01v.74Z" fill="#282727"/><path d="M322.61,66.62c-.44,.73-1.12,1.08-1.95,1.08-1.38,0-2.46-1.14-2.46-2.95s1.12-2.93,2.58-2.93c.72,0,1.45,.32,1.83,1.04v-.95h.7v5.73c0,.85-.26,1.42-.71,1.79-.43,.36-1.04,.52-1.74,.52-1.24,0-2.19-.65-2.3-1.71l.72-.05c.08,.64,.59,1.16,1.61,1.16,.49,0,.92-.08,1.22-.32,.31-.25,.5-.66,.5-1.31v-1.1Zm.05-1.87c0-1.58-.97-2.31-1.9-2.31-1.06,0-1.83,.91-1.83,2.31s.77,2.34,1.82,2.34c.89,0,1.91-.76,1.91-2.34Z" fill="#282727"/><path d="M327.23,61.82c1.39,0,2.71,.94,2.71,3.06s-1.32,3.06-2.71,3.06-2.71-.94-2.71-3.06,1.32-3.06,2.71-3.06Zm0,5.5c1.1,0,1.98-.79,1.98-2.45s-.88-2.45-1.98-2.45-1.98,.79-1.98,2.45,.88,2.45,1.98,2.45Z" fill="#282727"/><path d="M333.49,61.82c1.39,0,2.71,.94,2.71,3.06s-1.32,3.06-2.71,3.06-2.71-.94-2.71-3.06,1.32-3.06,2.71-3.06Zm0,5.5c1.1,0,1.98-.79,1.98-2.45s-.88-2.45-1.98-2.45-1.98,.79-1.98,2.45,.88,2.45,1.98,2.45Z" fill="#282727"/><path d="M342.2,67.79h-.68v-.94c-.43,.72-1.15,1.08-2.04,1.08-1.38,0-2.44-1.14-2.44-3.07s1.09-3.05,2.55-3.05c.77,0,1.54,.34,1.91,1.04v-3.03h.7v7.96Zm-.65-2.93c0-1.7-.97-2.43-1.93-2.43-1.1,0-1.85,.91-1.85,2.43s.73,2.46,1.85,2.46c.91,0,1.93-.76,1.93-2.46Z" fill="#282727"/><path d="M347.37,63.53c-.19-.67-.76-1.1-1.61-1.1-.59,0-1.48,.22-1.48,.95,0,.59,.44,.86,1.08,.98l.84,.16c.98,.18,2.03,.48,2.03,1.62s-1.08,1.8-2.36,1.8-2.19-.65-2.39-1.88l.72-.1c.17,.88,.8,1.37,1.73,1.37,.66,0,1.61-.28,1.61-1.08,0-.71-.62-.91-1.44-1.07l-.94-.18c-.86-.17-1.58-.64-1.58-1.57s.92-1.61,2.28-1.61c1.28,0,2.05,.76,2.23,1.62l-.72,.1Z" fill="#282727"/><path d="M352.93,67.79h-.7v-7.96h.7v7.96Z" fill="#282727"/><path d="M355.31,59.83v1.1h-.7v-1.1h.7Zm0,2.09v5.88h-.7v-5.88h.7Z" fill="#282727"/><path d="M357.16,61.17c0-.98,.25-1.34,1.39-1.34h.49v.64h-.35c-.76,0-.84,.07-.84,.8v.65h1.19v.6h-1.19v5.28h-.7v-5.28h-.83v-.6h.83v-.74Zm3.18-.72h.7v1.46h1.19v.6h-1.19v3.72c0,.78,.02,.94,.83,.94h.36v.62h-.58c-1.07,0-1.31-.24-1.31-1.43v-3.85h-1v-.6h1v-1.46Z" fill="#282727"/></g></g></g></svg>