<?xml version="1.0" encoding="utf-8"?>
<!-- Generator: Adobe Illustrator 24.0.1, SVG Export Plug-In . SVG Version: 6.00 Build 0)  -->
<svg version="1.1" id="Layer_1" xmlns="http://www.w3.org/2000/svg" xmlns:xlink="http://www.w3.org/1999/xlink" x="0px" y="0px"
	 viewBox="0 0 130.2 24.3" style="enable-background:new 0 0 130.2 24.3;" xml:space="preserve" preserveAspectRatio="xMinYMin meet">
<style type="text/css">
	.st0{fill:#282727;}
</style>
<polygon class="st0" points="61.7,0.3 59.1,5.7 56.5,0.3 54,0.3 52.8,10.1 55.3,10.1 55.9,3.7 58.9,10.1 59.3,10.1 62.3,3.7 
	62.9,10.1 65.4,10.1 64.3,0.3 "/>
<g>
	<path class="st0" d="M72.3,10.4c-3.4,0-5.5-2.2-5.5-5.2c0-2.9,2-5.2,5.4-5.2c3.4,0,5.4,2.4,5.4,5.1C77.6,7.9,75.7,10.4,72.3,10.4
		 M74.9,5.2c0-1.9-1-3.3-2.7-3.3c-1.6,0-2.7,1.4-2.7,3.3c0,1.8,1,3.2,2.7,3.2C74.1,8.4,74.9,6.7,74.9,5.2"/>
</g>
<polygon class="st0" points="86.6,0.3 86.6,5.6 81.7,0.3 79.5,0.3 79.5,10.1 82,10.1 82,4.1 87.4,10.1 89,10.1 89,0.3 "/>
<polygon class="st0" points="90.8,0.3 90.8,2.2 93.7,2.2 93.7,10.1 96.2,10.1 96.2,2.2 99,2.2 99,0.3 "/>
<g>
	<path class="st0" d="M108.8,10.1h-2.7l-0.7-2h-3.5l-0.7,2h-2.6l3.9-9.9h2.5L108.8,10.1z M104.9,6.6l-1.1-3.1
		c-0.1-0.2-0.1-0.3-0.1-0.5c-0.1,0.3-0.1,0.3-0.2,0.5l-1.1,3.2H104.9z"/>
	<path class="st0" d="M119.2,9.4c-1.4,0.6-2.8,1-4.3,1c-3.5,0-5.7-2.1-5.7-5.1c0-2.7,2.1-5.2,6.1-5.2c1.1,0,2.1,0.2,3.2,0.5v2.2
		c-0.4-0.3-1.5-0.9-2.9-0.9c-2.2,0-3.7,1.4-3.7,3.4c0,1.8,1.2,3.4,3.4,3.4c0.7,0,1.2-0.2,1.5-0.3l0-1.9h-2.3l1-1.8h3.7L119.2,9.4z"
		/>
	<path class="st0" d="M130.2,0.3v6c0,0.6,0,1.5-0.5,2.3c-0.8,1.4-2.4,1.8-4.1,1.8c-1.7,0-2.7-0.5-3.2-0.9c-1.2-1-1.2-2.4-1.2-3V0.3
		h2.6v5.6c0,1.4,0.3,2.6,2,2.6c1.6,0,1.9-1.1,1.9-2.4V0.3H130.2z"/>
</g>
<polygon class="st0" points="53.2,14.1 53.2,24 59.2,24 60.3,22.1 55.7,22.1 55.7,19.9 59,19.9 59,18 55.7,18 55.7,16.1 59.6,16.1 
	59.6,14.1 "/>
<polygon class="st0" points="68.4,14.1 66,20.9 63.6,14.1 60.8,14.1 64.7,24 67,24 71,14.1 "/>
<g>
	<path class="st0" d="M80.4,24h-2.7L77,22h-3.5l-0.7,2h-2.6l3.9-9.9h2.5L80.4,24z M76.5,20.5l-1-3.1c-0.1-0.2-0.1-0.3-0.1-0.5
		c-0.1,0.3-0.1,0.3-0.2,0.5L74,20.5H76.5z"/>
</g>
<polygon class="st0" points="88.9,14.1 88.9,19.5 84.1,14.1 81.8,14.1 81.8,24 84.3,24 84.3,18 89.7,24 91.4,24 91.4,14.1 "/>
<g>
	<path class="st0" d="M93.7,21.5c0.2,0.2,0.4,0.4,0.9,0.6c0.5,0.2,1.1,0.4,1.7,0.4c0.5,0,0.9-0.1,1.1-0.3c0.2-0.2,0.4-0.5,0.4-0.9
		c0-0.7-0.6-1-1.1-1.2L96,19.8c-0.7-0.3-2.3-1-2.3-2.8c0-1.4,1.1-3.1,3.6-3.1c0.9,0,1.7,0.2,2.5,0.6v2.1c-0.7-0.6-1.4-0.9-2.2-0.9
		c-1,0-1.3,0.7-1.3,1.1c0,0.7,0.6,1,1.2,1.2l0.7,0.3c0.7,0.3,2.1,1,2.1,2.8c0,1.7-1.3,3.1-3.7,3.1c-0.4,0-1.6,0-2.9-0.6V21.5z"/>
</g>
<path class="st0" d="M24.5,24.1h24v-7.5h-24V24.1z M24.5,16.1h23.9V8.3H24.5V16.1z M0,24.1h7.7V0.3H0V24.1z M8.2,24.1h7.5V0.3H8.2
	V24.1z M16.3,24.1h7.7V0.3h-7.7V24.1z M24.5,7.7h24V0.3h-24V7.7z"/>
</svg>
