<?xml version="1.0" encoding="UTF-8"?><svg id="Layer_2" xmlns="http://www.w3.org/2000/svg" xmlns:xlink="http://www.w3.org/1999/xlink" viewBox="0 0 351.48 450.06"><defs><clipPath id="clippath"><rect x="25.44" y="41.32" width="292.93" height="234.55" fill="none"/></clipPath><clipPath id="clippath-1"><rect x="25.44" y="41.32" width="292.93" height="234.55" fill="none"/></clipPath><clipPath id="clippath-2"><rect x="139.41" y="195.38" width="167.45" height="47.92" fill="none"/></clipPath><clipPath id="clippath-3"><rect x="25.44" y="41.32" width="292.93" height="234.55" fill="none"/></clipPath><clipPath id="clippath-4"><rect x="25.44" y="41.32" width="292.93" height="234.55" fill="none"/></clipPath><clipPath id="clippath-5"><rect x="25.44" y="41.32" width="292.93" height="234.55" fill="none"/></clipPath><clipPath id="clippath-6"><rect x="25.44" y="41.32" width="292.93" height="234.55" fill="none"/></clipPath><clipPath id="clippath-7"><rect x="25.44" y="41.32" width="292.93" height="234.55" fill="none"/></clipPath><clipPath id="clippath-8"><rect x="25.44" y="41.32" width="292.93" height="234.55" fill="none"/></clipPath><clipPath id="clippath-9"><rect x="25.44" y="41.32" width="292.93" height="234.55" fill="none"/></clipPath><clipPath id="clippath-11"><rect x="45.25" y="338.7" width="306.23" height="111.36" fill="none"/></clipPath><clipPath id="clippath-12"><rect x="45.25" y="338.7" width="306.23" height="111.36" fill="none"/></clipPath><clipPath id="clippath-13"><rect x="45.25" y="338.7" width="306.23" height="111.36" fill="none"/></clipPath><clipPath id="clippath-15"><rect x="45.25" y="338.7" width="306.23" height="111.36" fill="none"/></clipPath><clipPath id="clippath-16"><rect x="45.25" y="338.7" width="306.23" height="111.36" fill="none"/></clipPath></defs><g id="Layer_1-2"><g isolation="isolate"><path d="M49.91,13.18h-5.89v-.29c1.39-.19,1.58-.24,1.58-2.05V3.91c0-1.81-.19-1.86-1.58-2.05v-.29h5.65c.98,0,2.35,0,3.54-.05l.46,3.5h-.29c-.91-2.85-2.16-2.88-5.09-2.88h-.93V6.83h2.26c.91,0,1.49-.45,1.65-1.79h.29v4.29h-.29c-.16-1.34-.74-1.79-1.65-1.79h-2.26v4.35c0,.59,.08,.74,.72,.74h.26c3.06,0,4.47-.27,5.43-2.96h.3l-.62,3.52c-1.2-.01-2.56-.01-3.54-.01Z" fill="#ddddd3"/></g><g isolation="isolate"><path d="M55.46,1.27v-.29l2.91-.98c-.02,.85-.03,1.86-.03,3.5v7.36c0,1.65,.02,1.87,1.28,2.02v.29h-4.16v-.29c1.26-.14,1.28-.37,1.28-2.02V2.86q0-1.59-1.28-1.59Z" fill="#ddddd3"/></g><g isolation="isolate"><path d="M60.59,8.94c0-2.51,1.78-4.51,3.94-4.51,1.81,0,3.3,1.1,3.46,3.47h-5.95v.06c0,2.3,1.07,4.03,3.14,4.03,1.17,0,2.03-.51,2.58-1.07l.18,.16c-.53,.98-1.65,2.3-3.51,2.3-2.62,.01-3.84-1.91-3.84-4.44Zm1.48-1.67h3.99c-.05-1.41-.67-2.27-1.84-2.27-1.02,0-1.95,.64-2.15,2.27Z" fill="#ddddd3"/></g><g isolation="isolate"><path d="M72.55,13.39l-3.12-7.46c-.32-.75-.48-1.02-1.09-1.07v-.29h3.78v.29c-1.23,.06-1.15,.5-.85,1.26l1.94,4.82,1.68-3.95c.67-1.57,.62-2.03-.43-2.13v-.29h2.83v.29c-.72,.06-.94,.48-1.41,1.58l-3.01,6.95h-.32Z" fill="#ddddd3"/></g><g isolation="isolate"><path d="M84.32,12.35c.26,0,.48-.14,.7-.32l.16,.16c-.42,.53-.85,1.15-1.62,1.15-.66,0-1.34-.34-1.31-1.57-.48,.9-1.28,1.62-2.64,1.62s-2.4-.85-2.4-1.92c0-.99,.66-1.66,2.13-2.42,.77-.4,1.73-.82,2.95-1.34l.02-.37c.03-1.7-.58-2.27-1.65-2.27-1.49,0-1.82,.94-1.74,2.18h-1.47c.02-1.33,1.54-2.8,3.6-2.8,1.5,0,2.83,.58,2.79,2.72l-.08,4.15c-.03,.88,.13,1.03,.56,1.03Zm-2.09-.93l.05-3.01c-2.93,.88-3.41,1.76-3.41,2.54,0,.86,.62,1.41,1.6,1.41,.7,0,1.34-.28,1.76-.94Z" fill="#ddddd3"/><path d="M86.72,10.94V5.19h-1.41v-.62h1.41v-1.5l1.6-1.07v2.58h2.06v.62h-2.06v5.46c0,1.2,.27,1.68,1.12,1.68,.4,0,.86-.14,1.23-.5l.14,.13c-.4,.72-1.02,1.42-2.13,1.42-1.22,0-1.96-.67-1.96-2.45Z" fill="#ddddd3"/></g><g isolation="isolate"><path d="M94.39,10.87c0,1.65,.02,1.87,1.28,2.02v.29h-4.16v-.29c1.26-.14,1.28-.37,1.28-2.02v-3.6q0-1.58-1.28-1.58v-.29l2.91-.98c-.02,.85-.03,1.86-.03,3.51v2.94Zm-2.02-9.52c0-.61,.51-1.09,1.14-1.09s1.12,.48,1.12,1.09-.48,1.09-1.12,1.09-1.14-.46-1.14-1.09Z" fill="#ddddd3"/></g><g isolation="isolate"><path d="M105.35,8.89c0,2.51-1.9,4.5-4.26,4.5s-4.37-1.84-4.37-4.48,1.87-4.48,4.26-4.48c2.28-.01,4.37,1.82,4.37,4.46Zm-6.86-.56c0,1.58,.74,4.42,2.8,4.42,1.54,0,2.29-1.2,2.29-3.26,0-1.6-.72-4.42-2.75-4.42-1.57,0-2.34,1.19-2.34,3.26Z" fill="#ddddd3"/><path d="M106.36,5.4l2.85-.98,.03,1.44c.58-.69,1.36-1.44,2.54-1.44,1.39,0,2.42,.93,2.42,3.04v3.41c0,1.65,.02,1.87,1.28,2.02v.29h-4.16v-.29c1.26-.14,1.28-.37,1.28-2.02v-3.09c0-1.52-.5-2.24-1.62-2.24-.66,0-1.39,.22-1.74,.75v4.58c0,1.65,.02,1.87,1.28,2.02v.29h-4.16v-.29c1.26-.14,1.28-.37,1.28-2.02v-3.6q0-1.58-1.28-1.58v-.29h0Z" fill="#ddddd3"/><path d="M124.12,13.39l-3.12-7.46c-.32-.75-.48-1.02-1.09-1.07v-.29h3.78v.29c-1.23,.06-1.15,.5-.85,1.26l1.94,4.82,1.68-3.95c.67-1.57,.62-2.03-.43-2.13v-.29h2.83v.29c-.72,.06-.94,.48-1.41,1.58l-3.01,6.95h-.32Z" fill="#ddddd3"/></g><g isolation="isolate"><path d="M132.49,10.87c0,1.65,.02,1.87,1.28,2.02v.29h-4.16v-.29c1.26-.14,1.28-.37,1.28-2.02v-3.6q0-1.58-1.28-1.58v-.29l2.91-.98c-.02,.85-.03,1.86-.03,3.51v2.94Zm-2.01-9.52c0-.61,.51-1.09,1.14-1.09s1.12,.48,1.12,1.09-.48,1.09-1.12,1.09-1.14-.46-1.14-1.09Z" fill="#ddddd3"/></g><g isolation="isolate"><path d="M134.78,8.94c0-2.51,1.78-4.51,3.94-4.51,1.81,0,3.3,1.1,3.46,3.47h-5.96v.06c0,2.3,1.07,4.03,3.14,4.03,1.17,0,2.03-.51,2.58-1.07l.18,.16c-.53,.98-1.65,2.3-3.51,2.3-2.61,.01-3.83-1.91-3.83-4.44Zm1.48-1.67h3.99c-.05-1.41-.67-2.27-1.84-2.27-1.02,0-1.95,.64-2.15,2.27Z" fill="#ddddd3"/></g><g isolation="isolate"><path d="M148.8,7l-2.19,6.39h-.3l-2.67-7.44c-.29-.77-.46-1.01-1.09-1.09v-.29h3.78v.29c-1.23,.06-1.1,.5-.85,1.28l1.44,4.42,2.05-5.99h.59l2,5.99,1.3-3.62c.58-1.58,.59-1.99-.45-2.08v-.29h2.83v.29c-.72,.06-.98,.43-1.41,1.55l-2.56,6.98h-.32l-2.15-6.39Z" fill="#ddddd3"/></g><g isolation="isolate"><path d="M45.97,319.59c1.39-.19,1.58-.24,1.58-2.05v-6.93c0-1.81-.19-1.86-1.58-2.05v-.29h1.7c1.2,0,2.39-.02,3.15-.02,2.72,0,4.96,.77,4.96,3.38s-2.24,3.38-4.96,3.38h-1.5v2.54c0,1.58,.03,1.89,1.73,2.02v.3h-5.07v-.28h-.01Zm4.73-10.74h-1.38v5.57h1.38c1.98,0,3.14-.51,3.14-2.79-.01-2.27-1.16-2.78-3.14-2.78Z" fill="#ddddd3"/><path d="M56.63,307.97v-.29l2.91-.98c-.02,.85-.03,1.86-.03,3.5v7.36c0,1.65,.02,1.87,1.28,2.02v.29h-4.16v-.29c1.26-.14,1.28-.37,1.28-2.02v-8.02q0-1.57-1.28-1.57Z" fill="#ddddd3"/><path d="M69.05,319.04c.26,0,.48-.14,.7-.32l.16,.16c-.42,.53-.85,1.15-1.62,1.15-.66,0-1.34-.34-1.31-1.57-.48,.9-1.28,1.62-2.64,1.62s-2.4-.85-2.4-1.92c0-.99,.66-1.66,2.13-2.42,.77-.4,1.73-.82,2.95-1.34l.02-.37c.03-1.7-.58-2.27-1.65-2.27-1.49,0-1.82,.94-1.74,2.18h-1.47c.02-1.33,1.54-2.8,3.6-2.8,1.5,0,2.83,.58,2.79,2.72l-.08,4.15c-.03,.89,.13,1.03,.56,1.03Zm-2.1-.92l.05-3.01c-2.93,.88-3.41,1.76-3.41,2.54,0,.86,.62,1.41,1.6,1.41,.7,0,1.34-.29,1.76-.94Z" fill="#ddddd3"/><path d="M70.4,312.1l2.85-.98,.03,1.44c.58-.69,1.36-1.44,2.54-1.44,1.39,0,2.42,.93,2.42,3.04v3.41c0,1.65,.02,1.87,1.28,2.02v.29h-4.16v-.29c1.26-.14,1.28-.37,1.28-2.02v-3.09c0-1.52-.5-2.24-1.62-2.24-.66,0-1.39,.22-1.74,.75v4.58c0,1.65,.02,1.87,1.28,2.02v.29h-4.16v-.29c1.26-.14,1.28-.37,1.28-2.02v-3.6q0-1.58-1.28-1.58v-.29h0Z" fill="#ddddd3"/><path d="M88.17,320.08l-3.12-7.46c-.32-.75-.48-1.02-1.09-1.07v-.29h3.78v.29c-1.23,.06-1.15,.5-.85,1.26l1.94,4.82,1.68-3.95c.67-1.57,.62-2.03-.43-2.13v-.29h2.83v.29c-.72,.06-.94,.48-1.41,1.58l-3.01,6.95h-.32Z" fill="#ddddd3"/></g><g isolation="isolate"><path d="M96.55,317.57c0,1.65,.02,1.87,1.28,2.02v.29h-4.16v-.29c1.26-.14,1.28-.37,1.28-2.02v-3.6q0-1.58-1.28-1.58v-.29l2.91-.98c-.02,.85-.03,1.86-.03,3.51v2.94Zm-2.02-9.52c0-.61,.51-1.09,1.14-1.09s1.12,.48,1.12,1.09-.48,1.09-1.12,1.09-1.14-.47-1.14-1.09Z" fill="#ddddd3"/></g><g isolation="isolate"><path d="M98.84,315.63c0-2.51,1.78-4.51,3.94-4.51,1.81,0,3.3,1.1,3.46,3.47h-5.95v.06c0,2.3,1.07,4.03,3.14,4.03,1.17,0,2.03-.51,2.58-1.07l.18,.16c-.53,.98-1.65,2.3-3.51,2.3-2.63,.01-3.84-1.91-3.84-4.44Zm1.47-1.66h3.99c-.05-1.41-.67-2.27-1.84-2.27-1.01,0-1.94,.64-2.15,2.27Z" fill="#ddddd3"/></g><g isolation="isolate"><path d="M112.86,313.7l-2.19,6.39h-.3l-2.67-7.44c-.29-.77-.46-1.01-1.09-1.09v-.29h3.78v.29c-1.23,.06-1.1,.5-.85,1.28l1.44,4.42,2.05-5.99h.59l2,5.99,1.3-3.62c.58-1.58,.59-1.99-.45-2.08v-.29h2.83v.29c-.72,.06-.98,.43-1.41,1.55l-2.56,6.98h-.32l-2.15-6.39Z" fill="#ddddd3"/></g><g isolation="isolate"><path d="M7.96,213.68l-7.24,2.75H7.96v.74H0v-1.2l7.11-2.67L0,210.63v-1.19H7.96v.74H.72l7.24,2.75v.75Z" fill="#deded4"/><path d="M1.99,205.38c0-1.39,.94-2.71,3.06-2.71s3.06,1.32,3.06,2.71-.94,2.71-3.06,2.71c-2.12,0-3.06-1.32-3.06-2.71Zm5.5,0c0-1.1-.79-1.98-2.45-1.98s-2.45,.88-2.45,1.98,.79,1.98,2.45,1.98,2.45-.87,2.45-1.98Z" fill="#deded4"/><path d="M7,197.73c.56,.3,1.1,.83,1.1,1.92,0,.66-.19,1.12-.53,1.43-.38,.35-.98,.5-1.81,.5H2.09v-.7h3.54c.73,0,1.2-.12,1.49-.36,.28-.23,.4-.56,.4-.98,0-1.02-.85-1.81-2.13-1.81H2.09v-.7H7.97v.7h-.97Z" fill="#deded4"/><path d="M3.09,194.65c-.58-.3-1.1-.88-1.1-1.99,0-.72,.23-1.24,.62-1.56,.38-.31,.93-.46,1.69-.46h3.66v.7h-3.48c-.68,0-1.13,.12-1.42,.34-.34,.25-.47,.65-.47,1.16,0,1.03,.86,1.81,2.13,1.81h3.23v.7H2.09v-.7h1Z" fill="#deded4"/><path d="M.62,188.87v-.7h1.46v-1.19h.6v1.19h3.72c.78,0,.94-.02,.94-.83v-.36h.62v.58c0,1.07-.24,1.31-1.43,1.31H2.69v1h-.6v-1H.62Z" fill="#deded4"/></g><g isolation="isolate"><path d="M4.5,179.98c0,.25,.02,.52,.02,.79v1.51h3.44v.74H0v-2.25c0-1.93,.34-3.3,2.22-3.3,1.32,0,1.92,.67,2.16,1.73l3.59-1.85v.83l-3.47,1.8Zm-3.8,2.3H3.83v-1.61c0-1.33-.16-2.42-1.58-2.42s-1.55,1.09-1.55,2.42v1.61Z" fill="#deded4"/></g><g isolation="isolate"><path d="M1.99,173.9c0-1.39,.94-2.71,3.06-2.71s3.06,1.32,3.06,2.71-.94,2.71-3.06,2.71-3.06-1.32-3.06-2.71Zm5.5,0c0-1.1-.79-1.98-2.45-1.98s-2.45,.88-2.45,1.98,.79,1.98,2.45,1.98c1.66,0,2.45-.87,2.45-1.98Z" fill="#deded4"/></g><g isolation="isolate"><path d="M2.09,167.26v-.7l4.8-1.54-4.8-1.28v-.77l5.88,1.74v.65l-4.92,1.57,4.92,1.52v.64l-5.88,1.74v-.77l4.79-1.33-4.79-1.47Z" fill="#deded4"/></g><g isolation="isolate"><path d="M320.65,182.58l-1.87,.28c-.17-.6-.74-1.14-1.78-1.14-1.18,0-2.09,.78-2.09,2.48s.85,2.54,2.12,2.54c.88,0,1.79-.34,1.79-1.36v-.12h-1.94v-1.56h3.85v4.5h-1.45l-.06-.89c-.53,.7-1.32,1.03-2.47,1.03-2.39,0-3.85-1.57-3.85-4.15s1.67-4.09,4.13-4.09c1.8,0,3.24,.91,3.62,2.48Z" fill="#deded4"/></g><g isolation="isolate"><path d="M315.3,224.55h3.87v1.68h-5.78v-7.96h1.91v6.28Z" fill="#deded4"/></g><g isolation="isolate"><path d="M326.75,220.6l-1.87,.28c-.17-.6-.74-1.14-1.77-1.14-1.18,0-2.09,.78-2.09,2.48s.85,2.54,2.12,2.54c.88,0,1.79-.34,1.79-1.36v-.12h-1.94v-1.56h3.85v4.5h-1.45l-.06-.89c-.53,.7-1.32,1.03-2.47,1.03-2.39,0-3.85-1.57-3.85-4.15s1.67-4.09,4.13-4.09c1.79,0,3.23,.91,3.61,2.48Z" fill="#deded4"/></g><g><g clip-path="url(#clippath)"><g><g clip-path="url(#clippath-1)"><g opacity=".97"><g clip-path="url(#clippath-2)"><rect x="146.86" y="201.17" width="152.55" height="41.3" fill="#ddddd3"/></g></g></g><g clip-path="url(#clippath-3)"><polygon points="158.05 68 158.05 42.14 80.37 42.14 80.37 68 43.71 68 43.71 167.36 169.57 167.36 169.57 68 158.05 68" fill="none" stroke="#dadada" stroke-miterlimit="10" stroke-width="2"/></g></g></g><g clip-path="url(#clippath-4)"><polygon points="272.21 167.07 300.05 167.07 300.05 201.16 43.73 201.16 43.73 167.07 169.4 167.07 186.53 150.81 203.66 167.07 220.79 150.81 237.92 167.07 255.07 150.81 272.21 167.07" fill="none" stroke="#dadada" stroke-miterlimit="10" stroke-width="2"/></g><g clip-path="url(#clippath-5)"><g clip-path="url(#clippath-6)"><rect x="43.73" y="242.52" width="151.52" height="32.51" fill="none" stroke="#dadada" stroke-miterlimit="10" stroke-width="2"/></g></g><g clip-path="url(#clippath-7)"><rect x="43.73" y="201.12" width="256.32" height="41.44" fill="none" stroke="#dadada" stroke-miterlimit="10" stroke-width="2"/></g><g clip-path="url(#clippath-8)"><g clip-path="url(#clippath-9)"><line x1="26.27" y1="201.42" x2="317.54" y2="201.42" fill="none" stroke="#dadada" stroke-miterlimit="10" stroke-width="2"/></g></g></g><g><g clip-path="url(#clippath-11)"><polygon points="350.49 338.7 318.13 339.82 168.9 339.69 168.9 449.06 350.49 449.06 350.49 338.7" fill="#ddddd3"/></g><g clip-path="url(#clippath-12)"><g clip-path="url(#clippath-13)"><polyline points="168.9 339.68 350.5 339.68 350.5 395.55" fill="none" stroke="#dadada" stroke-miterlimit="10" stroke-width="2"/></g></g><g clip-path="url(#clippath-15)"><g clip-path="url(#clippath-16)"><polyline points="350.5 339.69 350.5 449.07 168.9 449.07 168.9 401.23 46.24 401.23 46.24 339.68 168.9 339.68" fill="none" stroke="#dadada" stroke-miterlimit="10" stroke-width="2"/></g></g></g></g></svg>